<?xml version="1.0" standalone="no"?>
<!DOCTYPE svg PUBLIC "-//W3C//DTD SVG 1.1//EN" "http://www.w3.org/Graphics/SVG/1.1/DTD/svg11.dtd" >
<svg>
<metadata>
Created by FontForge 20090914 at Thu Aug 16 10:07:20 2018
 By www-data
Copyright 2017 The Playfair Display Project Authors (https://github.com/clauseggers/Playfair-Display), with Reserved Font Name "Playfair Display".
</metadata>
<defs>
<font id="PlayfairDisplay-Italic" horiz-adv-x="0" >
  <font-face 
    font-family="Playfair Display"
    font-weight="400"
    font-style="italic"
    font-stretch="normal"
    units-per-em="1000"
    panose-1="0 0 5 0 0 0 0 0 0 0"
    ascent="800"
    descent="-200"
    x-height="520.001"
    cap-height="708"
    bbox="-749 -241.001 1101 1151"
    underline-thickness="20"
    underline-position="-80"
    slope="-14"
    unicode-range="U+000D-U+FB02"
  />
<missing-glyph horiz-adv-x="562" 
d="M502 772v-772h-442v772h442zM466 30v712h-370v-712h370z" />
    <glyph glyph-name="IJ" unicode="IJ" horiz-adv-x="798" 
d="M905 717c0 -15.333 -24 -32.334 -72 -51.001c-41.333 -34.667 -73.833 -75 -97.5 -121s-44.167 -105.667 -61.5 -179h108l-4 -20h-109l-1 -6l-61 -275c-16 -74 -43 -134.667 -81 -182s-86.667 -71 -146 -71c-32 0 -57.333 5 -76 15s-28 24.667 -28 44
c0 14 5 26.667 15 38s22.667 17 38 17c12.667 0 23.167 -4.33301 31.5 -13s12.5 -18.667 12.5 -30c0 -10.667 -3.5 -20.334 -10.5 -29.001s-16.167 -15.667 -27.5 -21c10 -3.33301 21.667 -5 35 -5c30.667 0 55.5 11.5 74.5 34.5s33.667 51.833 44 86.5
s21.833 82.334 34.5 143.001c1.33301 9.33301 5 27 11 53l32 150c4.66699 22 9 39 13 51h-122l4 20h124c14 43.333 31.333 81 52 113s43 59.667 67 83s56.333 52.333 97 87l16 14c-76.667 -40 -142 -60 -196 -60c-32.667 0 -62.667 2.33301 -90 7s-60 11.667 -98 21
c-39.333 9.33301 -72.5 16.333 -99.5 21s-57.167 7 -90.5 7c-28.667 0 -51.334 -5.33301 -68.001 -16s-25 -26.334 -25 -47.001c0 -28 15.5 -48.167 46.5 -60.5s65.833 -18.5 104.5 -18.5c21.333 0 43.5 3.33301 66.5 10s44.167 16.334 63.5 29.001l8 -15
c-21.333 -14.667 -49.666 -26.667 -84.999 -36l-116 -399c-6 -20 -9 -36.333 -9 -49c0 -13.333 5 -22.666 15 -27.999s27.667 -8.33301 53 -9l-4 -20c-30.667 2 -73 3 -127 3c-55.333 0 -97.666 -1 -126.999 -3l5 20c23.333 1.33301 40.666 4.16602 51.999 8.49902
s20.5 12 27.5 23s14.167 29.167 21.5 54.5l114 392c-42 3.33301 -77.667 14 -107 32s-44 45.333 -44 82c0 36 13.667 66.167 41 90.5s61.666 36.5 102.999 36.5c36 0 68.667 -4.5 98 -13.5s63.333 -22.5 102 -40.5c40.667 -18 75 -31.333 103 -40s59.333 -13 94 -13
c30.667 0 57.834 3.33301 81.501 10s54.834 18.334 93.501 35.001c24 38.667 44.333 58 61 58c5.33301 0 9.66602 -1.66699 12.999 -5c4.66699 -4.66699 7 -9 7 -13z" />
    <glyph glyph-name="ij" unicode="ij" horiz-adv-x="625" 
d="M226.5 735.5c14.333 16.333 31.835 24.5 52.502 24.5c15.333 0 27.666 -4.83301 36.999 -14.5s14 -21.834 14 -36.501c0 -18.667 -7.33301 -36.167 -22 -52.5s-32.334 -24.5 -53.001 -24.5c-14.667 0 -26.667 4.83301 -36 14.5s-14 21.834 -14 36.501
c0 18.667 7.16699 36.167 21.5 52.5zM556.502 735.5c14.333 16.333 31.835 24.5 52.502 24.5c15.333 0 27.666 -4.83301 36.999 -14.5s14 -21.834 14 -36.501c0 -18.667 -7.33301 -36.167 -22 -52.5s-32.334 -24.5 -53.001 -24.5c-14.667 0 -26.667 4.83301 -36 14.5
s-14 21.834 -14 36.501c0 18.667 7.16699 36.167 21.5 52.5zM278.004 157.5c5.33301 23 12.002 55.835 20.002 98.502c6 38 12.167 70.5 18.5 97.5s14.833 52.167 25.5 75.5c29.333 66 79 99 149 99c54.667 0 82 -25.667 82 -77c0 -17.333 -3.33301 -38.333 -10 -63
l-77 -273c-46 -164.667 -111 -262.334 -195 -293.001c-19.333 -6.66699 -39 -10 -59 -10c-15.333 0 -27 3.5 -35 10.5s-12 16.5 -12 28.5c0 14.667 6 28.5 18 41.5s25.667 19.5 41 19.5c10 0 18 -2.83301 24 -8.5s9 -13.167 9 -22.5c0 -17.333 -9.33301 -35.333 -28 -54
c25.333 3.33301 45.666 13 60.999 29s28 42.333 38 79l139 494c2.66699 8.66699 4 17.334 4 26.001c0 24 -13 36 -39 36c-21.333 0 -39.833 -6.16699 -55.5 -18.5s-30.167 -35.5 -43.5 -69.5c-7.33301 -18 -13.166 -37 -17.499 -57s-9.5 -48 -15.5 -84
c-9.33301 -48.667 -17 -85.834 -23 -111.501s-15 -51.5 -27 -77.5c-26 -58 -72.333 -87 -139 -87c-30 0 -52.667 7.5 -68 22.5s-23 35.167 -23 60.5c0 17.333 3.66699 36.333 11 57l107 303c6 17.333 9 30.666 9 39.999c0 14.667 -7.66699 22 -23 22s-29 -8 -41 -24
s-24.667 -42 -38 -78l-14 -37h-19l26 73c13.333 38 31.166 64.667 53.499 80s45.833 23 70.5 23c44.667 0 67 -20.667 67 -62c0 -20 -5.66699 -46 -17 -78l-107 -303c-2.66699 -7.33301 -4 -15 -4 -23c0 -12 4 -21.5 12 -28.5s19.667 -10.5 35 -10.5
c18 0 34.333 4.83301 49 14.5s27.667 27.5 39 53.5c9.33301 21.333 16.666 43.5 21.999 66.5z" />
    <glyph glyph-name="fi" unicode="fi" horiz-adv-x="579" 
d="M603 708c0 -20 -7.66504 -37.667 -22.998 -53s-32.666 -23 -51.999 -23c-14.667 0 -26.834 4.83301 -36.501 14.5s-14.5 21.5 -14.5 35.5c0 2.66699 0.666992 7.33398 2 14.001c2.66699 14.667 9.5 27.834 20.5 39.501s23.833 19.167 38.5 22.5c-15.333 6 -37 9 -65 9
c-36.667 0 -71.667 -10.667 -105 -32c-26.667 -17.333 -47.834 -42.5 -63.501 -75.5s-31.834 -81.167 -48.501 -144.5v-1h190c38 1.33301 68.333 6 91 14l-135 -443c-4.66699 -14 -7 -26.333 -7 -37c0 -16.667 7.66699 -25 23 -25c14 0 27 7.66699 39 23
s25 41.666 39 78.999l14 37h19l-26 -73c-13.333 -36.667 -30.833 -63 -52.5 -79s-45.167 -24 -70.5 -24c-46.667 0 -70 20.333 -70 61c0 19.333 6 45.666 18 78.999l112 368h-190l-190 -668c-36 -1.33301 -66 -6 -90 -14l194 682h-97l6 20h96c13.333 48 28 87.833 44 119.5
s35.667 57.5 59 77.5c28 24 60.167 41.833 96.5 53.5s73.833 17.5 112.5 17.5c24 0 46.167 -3.5 66.5 -10.5s35.833 -17.833 46.5 -32.5c6 -8 9 -18.333 9 -31z" />
    <glyph glyph-name="fl" unicode="fl" horiz-adv-x="588" 
d="M518 162h19l-25 -73c-23.333 -68.667 -63.333 -103 -120 -103c-46 0 -69 21.667 -69 65c0 16.667 4.66699 41.667 14 75l163 541c3.33301 12 5 22 5 30c0 14 -5 24.5 -15 31.5s-27 10.5 -51 10.5h-12c-22.667 0 -48.667 -8.66699 -78 -26
c-22.667 -12.667 -40.5 -34 -53.5 -64s-27.5 -74.667 -43.5 -134v-1h117l-6 -20h-117l-185 -668c-36 -1.33301 -66 -6 -90 -14l189 682h-92l6 20h91c12 44 25.167 80.167 39.5 108.5s31.833 51.5 52.5 69.5c22.667 20 48.834 35.333 78.501 46s59.5 16 89.5 16h19
c35.333 0.666992 67.166 4.33398 95.499 11.001s55.833 16.667 82.5 30l-209 -710c-4 -14 -6 -25.667 -6 -35c0 -18 7.66699 -27 23 -27c13.333 0 25.833 7.66699 37.5 23s24.167 41.666 37.5 78.999z" />
    <glyph glyph-name="f_f" unicode="ff" horiz-adv-x="610" 
d="M748.5 762c17 -13.333 25.502 -30.3311 25.502 -50.998c0 -17.333 -6.5 -33.166 -19.5 -47.499s-28.833 -21.5 -47.5 -21.5c-12.667 0 -22.667 3 -30 9s-10.666 14.333 -9.99902 25c0 16 5.16699 29.833 15.5 41.5s24.166 20.167 41.499 25.5c0 6 -4.5 11.5 -13.5 16.5
s-19.833 7.5 -32.5 7.5c-20 0 -39.333 -8.66699 -58 -26c-14 -12.667 -25.667 -32.834 -35 -60.501s-21 -68.5 -35 -122.5l-11 -43v-1h118l-6 -20h-118l-179 -668c-36 -1.33301 -66 -6 -90 -14l182 682h-201l-180 -668c-36 -1.33301 -66 -6 -90 -14l184 682h-92l6 20h91
c10 33.333 22.833 64.166 38.5 92.499s32.5 50.833 50.5 67.5c51.333 45.333 111 68 179 68c40.667 0 74.667 -10.667 102 -32c4 5.33301 10.667 12.666 20 21.999c15.333 15.333 34.166 27.5 56.499 36.5s45.166 13.5 68.499 13.5c29.333 0 52.5 -6.66699 69.5 -20z
M452.002 515.002c10.667 41.333 21.667 76.334 33 105.001s24 53.334 38 74.001c-24 20 -53.667 30 -89 30c-36 0 -65.5 -8.83301 -88.5 -26.5s-41.5 -41.334 -55.5 -71.001s-27 -66.834 -39 -111.501v-1h201v1z" />
    <glyph glyph-name="f_f_i" unicode="ffi" horiz-adv-x="865" 
d="M889 708c0 -20 -7.66504 -37.666 -22.998 -52.999s-32.666 -23 -51.999 -23c-14.667 0 -26.834 4.83301 -36.501 14.5s-14.5 21.5 -14.5 35.5c0 2.66699 0.666992 7.33398 2 14.001c2.66699 14.667 9.5 27.834 20.5 39.501s23.833 19.167 38.5 22.5
c-15.333 6 -37 9 -65 9c-36.667 0 -71.667 -10.667 -105 -32c-26.667 -17.333 -47.834 -42.5 -63.501 -75.5s-31.834 -81.167 -48.501 -144.5v-1h190c38 1.33301 68.333 6 91 14l-135 -443c-4.66699 -14 -7 -26.333 -7 -37c0 -16.667 7.66699 -25 23 -25
c14 0 27 7.66699 39 23s25 41.666 39 78.999l14 37h19l-26 -73c-13.333 -36.667 -30.833 -63 -52.5 -79s-45.167 -24 -70.5 -24c-46.667 0 -70 20.333 -70 61c0 19.333 6 45.666 18 78.999l112 368h-190l-190 -668c-36 -1.33301 -66 -6 -90 -14l194 682h-204l-185 -668
c-36 -1.33301 -66 -6 -90 -14l189 682h-92l6 20h91c10 33.333 22.833 64.166 38.5 92.499s32.5 50.833 50.5 67.5c51.333 45.333 111 68 179 68c46 0 83.667 -14 113 -42l12 11c28 24 60.167 41.833 96.5 53.5s73.833 17.5 112.5 17.5c24 0 46.167 -3.5 66.5 -10.5
s35.833 -17.833 46.5 -32.5c6 -8 9 -18.333 9 -31zM489.502 614.501c12.333 27.667 26.833 51.165 43.5 70.498c-26 26 -58.667 39 -98 39c-32 0 -60 -8 -84 -24c-23.333 -15.333 -42.333 -37.166 -57 -65.499s-28.667 -68.166 -42 -119.499v-1h203
c10.667 39.333 22.167 72.833 34.5 100.5z" />
    <glyph glyph-name="f_f_l" unicode="ffl" horiz-adv-x="879" 
d="M809 162l19.001 0.000976562l-25 -73c-23.333 -68.667 -63.333 -103 -120 -103c-46 0 -69 21.667 -69 65c0 16.667 4.66699 41.667 14 75l163 541c3.33301 12 5 22 5 30c0 14 -5 24.5 -15 31.5s-27 10.5 -51 10.5h-12c-22.667 0 -48.667 -8.66699 -78 -26
c-22.667 -12.667 -40.5 -34 -53.5 -64s-27.5 -74.667 -43.5 -134v-1h117l-6 -20h-117l-185 -668c-36 -1.33301 -66 -6 -90 -14l189 682h-205l-185 -668c-36 -1.33301 -66 -6 -90 -14l189 682h-92l6 20h91c10 33.333 22.833 64.166 38.5 92.499s32.5 50.833 50.5 67.5
c51.333 45.333 111 68 179 68c50 0 89.333 -15.667 118 -47c23.333 19.333 49.333 34 78 44s57.667 15 87 15h19c35.333 0.666992 67.166 4.33398 95.499 11.001s55.833 16.667 82.5 30l-209 -710c-4 -14 -6 -25.667 -6 -35c0 -18 7.66699 -27 23 -27
c13.333 0 25.833 7.66699 37.5 23s24.167 41.666 37.5 78.999zM491.501 615.001c12.333 26.667 27.1689 48.6641 44.502 65.9971c-24.667 28.667 -58.334 43 -101.001 43c-32 0 -60 -8 -84 -24c-23.333 -15.333 -42.333 -37.166 -57 -65.499s-28.667 -68.166 -42 -119.499
v-1h204c11.333 40.667 23.166 74.334 35.499 101.001z" />
    <glyph glyph-name="T_h.liga" unicode="Th" horiz-adv-x="1149" 
d="M1099 162l-24.9932 -72.999c-24 -68.667 -64.333 -103 -121 -103c-46.667 0 -70 20.667 -70 62c0 21.333 5.33301 47.333 16 78l95 286c7.33301 23.333 11 40 11 50c0 22.667 -11 34 -33 34c-26 0 -54.167 -17.333 -84.5 -52s-60.5 -83 -90.5 -145
s-57.333 -133.333 -82 -214l-24 -85h-87l189 675c-18 -8 -37.833 -13.5 -59.5 -16.5s-46.834 -4.5 -75.501 -4.5c-44.667 0 -95.667 4.66699 -153 14l-147 -552c-6 -20.667 -9 -37.667 -9 -51c0 -16.667 6.16699 -28.167 18.5 -34.5s34.166 -9.83301 65.499 -10.5l-4 -20
c-34.667 2 -84.334 3 -149.001 3c-65.333 0 -114 -1 -146 -3l4 20c28 1.33301 49.833 4.83301 65.5 10.5s27.834 15 36.501 28s17 32.167 25 57.5l151 566c-50 8 -93 12 -129 12c-58 0 -95.333 -5.66699 -112 -17c5.33301 -7.33301 9.66602 -16.333 12.999 -27s5 -21 5 -31
c0 -15.333 -4.33301 -28.833 -13 -40.5s-21 -17.5 -37 -17.5c-14 0 -24.833 4.5 -32.5 13.5s-11.5 21.167 -11.5 36.5c0 34.667 17.667 60.667 53 78c31.333 15.333 76 23 134 23c30.667 0 58.834 -1.5 84.501 -4.5s61.5 -7.83301 107.5 -14.5
c37.333 -6 70.166 -10.667 98.499 -14s57.833 -5 88.5 -5c30 0 55.167 1.66699 75.5 5s40.166 9.66602 59.499 18.999l23 83c38 1.33301 68.333 6 91 14l-147 -523c39.333 92 77.666 157.667 114.999 197s78.333 59 123 59c53.333 0 80 -25 80 -75
c0 -22.667 -4.66699 -48 -14 -76l-97 -292c-5.33301 -16 -8 -28.667 -8 -38c0 -16 8 -24 24 -24c13.333 0 26.166 7.5 38.499 22.5s25.166 41.5 38.499 79.5l13 37h19z" />
    <glyph glyph-name="f_b.liga" unicode="fb" horiz-adv-x="828" 
d="M762.5 492.5c18.333 -23.667 27.5 -58.834 27.5 -105.501c0 -54 -12 -112.5 -36 -175.5s-58.333 -116.333 -103 -160s-96 -65.5 -154 -65.5c-20 0 -37.5 5.83301 -52.5 17.5s-25.5 28.167 -31.5 49.5l-85 -69l-15 7c8 16.667 14.333 36 19 58l165 618
c2.66699 8.66699 4 18 4 28c0 14.667 -5 25.667 -15 33s-26.667 11 -50 11c-38 -0.666992 -71 -13.167 -99 -37.5s-50.333 -65.5 -67 -123.5l-18 -64h117l-6 -20h-116l-186 -668c-36 -1.33301 -66 -6 -90 -14l188 682h-91l6 20h91l3 11c44.667 152.667 135 229 271 229
c35.333 0.666992 67 4.33398 95 11.001s55 16.667 81 30l-129 -494c32.667 80 65.167 137.833 97.5 173.5s66.5 53.5 102.5 53.5c32.667 0 58.167 -11.833 76.5 -35.5zM597 75.5c32 44.333 57.833 98.167 77.5 161.5s29.5 120.666 29.5 171.999
c0 28.667 -4.16699 50.334 -12.5 65.001s-19.833 22 -34.5 22c-18.667 0 -40.167 -14.667 -64.5 -44s-49 -69 -74 -119s-47.167 -104.667 -66.5 -164l-27 -105c8 -20 17.833 -34.167 29.5 -42.5s25.5 -12.5 41.5 -12.5c35.333 0 69 22.167 101 66.5z" />
    <glyph glyph-name="f_f_b.liga" unicode="ffb" horiz-adv-x="1122" 
d="M1056.5 492.5c18.333 -23.667 27.501 -58.833 27.501 -105.5c0 -54 -12 -112.5 -36 -175.5s-58.333 -116.333 -103 -160s-96 -65.5 -154 -65.5c-20 0 -37.5 5.83301 -52.5 17.5s-25.5 28.167 -31.5 49.5l-85 -69l-15 7c8 16.667 14.333 36 19 58l165 618
c2.66699 8.66699 4 18 4 28c0 14.667 -5 25.667 -15 33s-26.667 11 -50 11c-38 -0.666992 -71 -13.167 -99 -37.5s-50.333 -65.5 -67 -123.5l-18 -64h117l-6 -20h-116l-186 -668c-36 -1.33301 -66 -6 -90 -14l188 682h-207l-185 -668c-36 -1.33301 -66 -6 -90 -14l189 682
h-92l6 20h91c10 33.333 22.833 64.166 38.5 92.499s32.5 50.833 50.5 67.5c49.333 45.333 109 68 179 68c24.667 0 48.167 -4.5 70.5 -13.5s41.166 -20.5 56.499 -34.5c45.333 40 103 60 173 60c35.333 0.666992 67 4.33398 95 11.001s55 16.667 81 30l-129 -494
c32.667 80 65.167 137.833 97.5 173.5s66.5 53.5 102.5 53.5c32.667 0 58.167 -11.833 76.5 -35.5zM462.001 525.001c20 66.667 48.001 118.666 84.001 155.999c-28.667 28.667 -65.667 43 -111 43c-36 0 -65.5 -8.83301 -88.5 -26.5s-41.333 -41.167 -55 -70.5
s-26.834 -66.666 -39.501 -111.999v-1h207zM891.002 75.5c32 44.333 57.833 98.167 77.5 161.5s29.5 120.666 29.5 171.999c0 28.667 -4.16699 50.334 -12.5 65.001s-19.833 22 -34.5 22c-18.667 0 -40.167 -14.667 -64.5 -44s-49 -69 -74 -119s-47.167 -104.667 -66.5 -164
l-27 -105c8 -20 17.833 -34.167 29.5 -42.5s25.5 -12.5 41.5 -12.5c35.333 0 69 22.167 101 66.5z" />
    <glyph glyph-name="f_f_h.liga" unicode="ffh" horiz-adv-x="1146" 
d="M1096 162l-24.998 -73.0029c-24 -68.667 -64.333 -103 -121 -103c-46.667 0 -70 20.667 -70 62c0 20 5.33301 46 16 78l95 286c6.66699 18.667 10 35.334 10 50.001c0 22.667 -10.667 34 -32 34c-26 0 -54.167 -17.333 -84.5 -52s-60.5 -83 -90.5 -145
s-57.333 -133.333 -82 -214l-24 -85h-87l188 667c3.33301 11.333 5 20.666 5 27.999c0 14.667 -5.5 25.667 -16.5 33s-28.5 11 -52.5 11c-38 0 -71.167 -12.167 -99.5 -36.5s-50.833 -65.833 -67.5 -124.5l-18 -64h117l-6 -20h-116l-186 -668c-36 -1.33301 -66 -6 -90 -14
l188 682h-201l-185 -668c-36 -1.33301 -66 -6 -90 -14l189 682h-92l6 20h91c10 32.667 22.667 63.334 38 92.001s32.333 51.334 51 68.001c48 45.333 107.667 68 179 68c50 0 89.667 -16 119 -48c46 40 104.333 60 175 60c72 0.666992 133.333 14.334 184 41.001l-146 -520
c38.667 90.667 76.667 155.5 114 194.5s78.333 58.5 123 58.5c54 0 81 -25.333 81 -76c0 -21.333 -5 -46.333 -15 -75l-97 -292c-5.33301 -16 -8 -28.667 -8 -38c0 -16 8 -24 24 -24c13.333 0 26.166 7.5 38.499 22.5s25.166 41.5 38.499 79.5l13 37h19zM456.002 524.997
c19.333 66.667 46.668 118.332 82.001 154.999c-12 14 -26.833 24.833 -44.5 32.5s-37.167 11.5 -58.5 11.5c-36 0 -65.5 -8.66699 -88.5 -26s-41.333 -40.666 -55 -69.999s-26.834 -67 -39.501 -113v-1h201z" />
    <glyph glyph-name="f_f_j.liga" unicode="ffj" horiz-adv-x="860" 
d="M884.5 737c5 -8 7.49805 -17.3311 7.49805 -27.998c0 -20.667 -7.66699 -38.667 -23 -54s-32.666 -23 -51.999 -23c-14.667 0 -26.834 4.83301 -36.501 14.5s-14.5 21.5 -14.5 35.5c0 2.66699 0.666992 7.33398 2 14.001c2.66699 14 8.83398 26.5 18.501 37.5
s20.834 18.833 33.501 23.5c-19.333 6 -38.666 9 -57.999 9c-40.667 0 -74.5 -10.333 -101.5 -31s-49.167 -48.834 -66.5 -84.501s-33.666 -80.834 -48.999 -135.501v-1h215c38 1.33301 68.333 6 91 14l-116 -413c-46 -164.667 -111 -262.334 -195 -293.001
c-19.333 -6.66699 -39 -10 -59 -10c-15.333 0 -27 3.5 -35 10.5s-12 16.5 -12 28.5c0 14.667 6 28.5 18 41.5s25.667 19.5 41 19.5c10 0 18 -2.83301 24 -8.5s9 -13.167 9 -22.5c0 -17.333 -9.33301 -35.333 -28 -54c25.333 3.33301 45.666 13 60.999 29s28 42.333 38 79
l157 559h-215l-139 -494h-86l139 494h-207l-185 -668c-36 -1.33301 -66 -6 -90 -14l189 682h-92l6 20h91c10 32 22.833 62.333 38.5 91s32.5 51.667 50.5 69c47.333 45.333 107 68 179 68c49.333 0 88.333 -15.667 117 -47l16 16c26 24 57 41.667 93 53s73 17 111 17
c37.333 0 68.666 -8.66699 93.999 -26c8.66699 -4 15.5 -10 20.5 -18zM536.998 680.002c-12 14 -26.666 24.832 -43.999 32.499s-36.666 11.5 -57.999 11.5c-36 0 -65.5 -8.66699 -88.5 -26s-41.333 -40.666 -55 -69.999s-26.834 -67 -39.501 -113v-1h206
c19.333 70.667 45.666 126 78.999 166z" />
    <glyph glyph-name="f_f_k.liga" unicode="ffk" horiz-adv-x="1125" 
d="M1086.5 513c9.66699 -10 14.4961 -23.0049 14.4961 -39.0049c0 -14.667 -4.83301 -29.834 -14.5 -45.501s-24.167 -23.5 -43.5 -23.5c-13.333 0 -23.166 3.83301 -29.499 11.5s-9.5 17.167 -9.5 28.5c0 9.33301 3 19.833 9 31.5s13.667 21.834 23 30.501h-2
c-7.33301 0 -13.666 -1.16699 -18.999 -3.5s-11.333 -5.83301 -18 -10.5c-9.33301 -7.33301 -17.5 -16.833 -24.5 -28.5s-14.833 -27.5 -23.5 -47.5c-16.667 -35.333 -33.5 -63.333 -50.5 -84s-41.5 -34.667 -73.5 -42c42 -2 76.5 -10.833 103.5 -26.5
s40.5 -40.167 40.5 -73.5c0 -8 -1 -17 -3 -27l-20 -100c-1.33301 -5.33301 -2 -12 -2 -20c0 -7.33301 1.66699 -12.666 5 -15.999s9 -5 17 -5c13.333 0 25.833 7.83301 37.5 23.5s23.834 41.834 36.501 78.501l12 37h19l-24 -73c-22 -68.667 -61.667 -103 -119 -103
c-19.333 0 -35 5.33301 -47 16s-18 27 -18 49c0 10 1.33301 20 4 30l18 86c2.66699 12.667 4 25 4 37c0 26 -9.16699 45.333 -27.5 58s-49.5 20.667 -93.5 24l-80 -286h-87l188 667c3.33301 11.333 5 20.666 5 27.999c0 14.667 -5.5 25.667 -16.5 33s-28.5 11 -52.5 11
c-38 0 -71.167 -12.167 -99.5 -36.5s-50.833 -65.833 -67.5 -124.5l-18 -64h117l-6 -20h-116l-186 -668c-36 -1.33301 -66 -6 -90 -14l188 682h-201l-185 -668c-36 -1.33301 -66 -6 -90 -14l189 682h-92l6 20h91c10 32.667 22.667 63.334 38 92.001s32.333 51.334 51 68.001
c48 45.333 107.667 68 179 68c50 0 89.667 -16 119 -48c46 40 104.333 60 175 60c72 0.666992 133.333 14.334 184 41.001l-140 -498c32 2 58 9.16699 78 21.5s35.333 26.5 46 42.5s22 37 34 63c8.66699 20 16.834 36.333 24.501 49s17.167 23.334 28.5 32.001
c20.667 15.333 40.667 23 60 23c20 0 34.833 -5 44.5 -15zM455.996 524.995c19.333 66.667 46.668 118.332 82.001 154.999c-12 14 -26.833 24.833 -44.5 32.5s-37.167 11.5 -58.5 11.5c-36 0 -65.5 -8.66699 -88.5 -26s-41.333 -40.666 -55 -69.999
s-26.834 -67 -39.501 -113v-1h201z" />
    <glyph glyph-name="f_h.liga" unicode="fh" horiz-adv-x="858" 
d="M808 162l-24.998 -73.001c-24 -68.667 -64.333 -103 -121 -103c-46.667 0 -70 20.667 -70 62c0 20 5.33301 46 16 78l95 286c6.66699 18.667 10 35.334 10 50.001c0 22.667 -10.667 34 -32 34c-26 0 -54.167 -17.333 -84.5 -52s-60.5 -83 -90.5 -145
s-57.333 -133.333 -82 -214l-24 -85h-87l188 667c3.33301 11.333 5 20.666 5 27.999c0 14.667 -5.5 25.667 -16.5 33s-28.5 11 -52.5 11c-38 0 -71.167 -12.167 -99.5 -36.5s-50.833 -65.833 -67.5 -124.5l-18 -64h117l-6 -20h-116l-186 -668c-36 -1.33301 -66 -6 -90 -14
l188 682h-91l6 20h91l3 11c42 152.667 132.333 229 271 229c72 0.666992 133.333 14.334 184 41.001l-146 -520c38.667 90.667 76.667 155.5 114 194.5s78.333 58.5 123 58.5c54 0 81 -25.333 81 -76c0 -21.333 -5 -46.333 -15 -75l-97 -292c-5.33301 -16 -8 -28.667 -8 -38
c0 -16 8 -24 24 -24c13.333 0 26.166 7.5 38.499 22.5s25.166 41.5 38.499 79.5l13 37h19z" />
    <glyph glyph-name="f_idieresis.liga" unicode="f&#xef;" horiz-adv-x="569" 
d="M394 85c-4.66699 -14 -6.99902 -26.333 -6.99902 -37c0 -16.667 7 -25 21 -25c14.667 0 28.167 7.83301 40.5 23.5s24.833 41.834 37.5 78.501l13 37h19l-25 -73c-24 -68.667 -64.333 -103 -121 -103c-38.667 0 -58 20.333 -58 61c0 19.333 5 45.666 15 78.999l112 368
h-195l-185 -668c-36 -1.33301 -66 -6 -90 -14l189 682h-92l6 20h91c12 46.667 24.167 85 36.5 115s29.5 56 51.5 78c36 36 79.667 54 131 54c34.667 0 63 -9.66699 85 -29l5 -4l2 -2v0c8 -10 12 -21 12 -33c0 -16.667 -6.66699 -31.834 -20 -45.501s-29 -20.5 -47 -20.5
c-14.667 0 -26.667 4.83301 -36 14.5s-14 21.834 -14 36.501c0 12.667 4.66699 25 14 37s20.666 20.333 33.999 25c-10 4 -21 6 -33 6c-13.333 0 -26 -3.33301 -38 -10s-22.667 -15.667 -32 -27c-10.667 -12.667 -19.167 -28.5 -25.5 -47.5s-14.5 -48.5 -24.5 -88.5l-14 -58
v-1h195c38 1.33301 68.333 6 91 14zM685.501 728.5c9.66699 -9.66699 14.5 -21.5 14.5 -35.5c0 -16.667 -6.66699 -31.834 -20 -45.501s-29 -20.5 -47 -20.5c-14.667 0 -26.667 4.83301 -36 14.5s-14 21.834 -14 36.501c0 16 6.83301 30.833 20.5 44.5
s29.167 20.5 46.5 20.5c14 0 25.833 -4.83301 35.5 -14.5z" />
    <glyph glyph-name="f_igrave.liga" unicode="f&#xec;" horiz-adv-x="569" 
d="M499 162l19.001 -0.000976562l-25 -73c-24 -68.667 -64.333 -103 -121 -103c-38.667 0 -58 20.333 -58 61c0 19.333 5 45.666 15 78.999l112 368h-195l-185 -668c-36 -1.33301 -66 -6 -90 -14l189 682h-92l6 20h91c14.667 51.333 29.167 92.5 43.5 123.5s33 55.5 56 73.5
s52.5 27 88.5 27c20.667 0 38.667 -4 54 -12c-23.333 30 -37.666 49.333 -42.999 58c-6.66699 11.333 -10 22 -10 32c0 13.333 5.33301 22.666 16 27.999c5.33301 2 10.666 3 15.999 3c16.667 0 31 -10.333 43 -31c6.66699 -11.333 17.667 -36.333 33 -75
c17.333 -46 36.666 -91.333 57.999 -136l-13 -6c-16 22.667 -36 49.334 -60 80.001c-12.667 13.333 -24.667 22.833 -36 28.5s-25.333 8.5 -42 8.5c-20 0 -36.5 -6.83301 -49.5 -20.5s-23.333 -31.167 -31 -52.5s-16.5 -51.666 -26.5 -90.999l-10 -37v-1h195
c38 1.33301 68.333 6 91 14l-144 -443c-4.66699 -14 -7 -26.667 -7 -38c0 -16 7 -24 21 -24c14.667 0 28.167 7.83301 40.5 23.5s24.833 41.834 37.5 78.501z" />
    <glyph glyph-name="f_j.liga" unicode="fj" horiz-adv-x="571" 
d="M595.5 737c5 -8 7.49707 -17.332 7.49707 -27.999c0 -20.667 -7.66699 -38.667 -23 -54s-32.666 -23 -51.999 -23c-14.667 0 -26.834 4.83301 -36.501 14.5s-14.5 21.5 -14.5 35.5c0 2.66699 0.666992 7.33398 2 14.001c2.66699 14 8.83398 26.5 18.501 37.5
s20.834 18.833 33.501 23.5c-19.333 6 -38.666 9 -57.999 9c-40.667 0 -74.5 -10.333 -101.5 -31s-49.167 -48.834 -66.5 -84.501s-33.666 -80.834 -48.999 -135.501v-1h215c38 1.33301 68.333 6 91 14l-116 -413c-46 -164.667 -111 -262.334 -195 -293.001
c-19.333 -6.66699 -39 -10 -59 -10c-15.333 0 -27 3.5 -35 10.5s-12 16.5 -12 28.5c0 14.667 6 28.5 18 41.5s25.667 19.5 41 19.5c10 0 18 -2.83301 24 -8.5s9 -13.167 9 -22.5c0 -17.333 -9.33301 -35.333 -28 -54c25.333 3.33301 45.666 13 60.999 29s28 42.333 38 79
l157 559h-215l-139 -494h-86l139 494h-97l6 20h96c12.667 45.333 27.834 83.833 45.501 115.5s38.5 58.834 62.5 81.501c26 24 57 41.667 93 53s73 17 111 17c37.333 0 68.666 -8.66699 93.999 -26c8.66699 -4 15.5 -10 20.5 -18z" />
    <glyph glyph-name="f_k.liga" unicode="fk" horiz-adv-x="837" 
d="M798.5 513c9.66699 -10 14.4961 -23.0029 14.4961 -39.0029c0 -14.667 -4.83301 -29.834 -14.5 -45.501s-24.167 -23.5 -43.5 -23.5c-13.333 0 -23.166 3.83301 -29.499 11.5s-9.5 17.167 -9.5 28.5c0 9.33301 3 19.833 9 31.5s13.667 21.834 23 30.501h-2
c-7.33301 0 -13.666 -1.16699 -18.999 -3.5s-11.333 -5.83301 -18 -10.5c-9.33301 -7.33301 -17.5 -16.833 -24.5 -28.5s-14.833 -27.5 -23.5 -47.5c-16.667 -35.333 -33.5 -63.333 -50.5 -84s-41.5 -34.667 -73.5 -42c42 -2 76.5 -10.833 103.5 -26.5
s40.5 -40.167 40.5 -73.5c0 -8 -1 -17 -3 -27l-20 -100c-1.33301 -5.33301 -2 -12 -2 -20c0 -7.33301 1.66699 -12.666 5 -15.999s9 -5 17 -5c13.333 0 25.833 7.83301 37.5 23.5s23.834 41.834 36.501 78.501l12 37h19l-24 -73c-22 -68.667 -61.667 -103 -119 -103
c-19.333 0 -35 5.33301 -47 16s-18 27 -18 49c0 10 1.33301 20 4 30l18 86c2.66699 12.667 4 25 4 37c0 26 -9.16699 45.333 -27.5 58s-49.5 20.667 -93.5 24l-80 -286h-87l188 667c3.33301 11.333 5 20.666 5 27.999c0 14.667 -5.5 25.667 -16.5 33s-28.5 11 -52.5 11
c-38 0 -71.167 -12.167 -99.5 -36.5s-50.833 -65.833 -67.5 -124.5l-18 -64h117l-6 -20h-116l-186 -668c-36 -1.33301 -66 -6 -90 -14l188 682h-91l6 20h91l3 11c42 152.667 132.333 229 271 229c72 0.666992 133.333 14.334 184 41.001l-140 -498c32 2 58 9.16699 78 21.5
s35.333 26.5 46 42.5s22 37 34 63c8.66699 20 16.834 36.333 24.501 49s17.167 23.334 28.5 32.001c20.667 15.333 40.667 23 60 23c20 0 34.833 -5 44.5 -15z" />
    <glyph glyph-name=".notdef" horiz-adv-x="562" 
d="M502 772v-772h-442v772h442zM466 30v712h-370v-712h370z" />
    <glyph glyph-name="NULL" 
 />
    <glyph glyph-name="NULL" 
 />
    <glyph glyph-name="nonmarkingreturn" unicode="&#xd;" horiz-adv-x="253" 
 />
    <glyph glyph-name="space" unicode=" " horiz-adv-x="253" 
 />
    <glyph glyph-name="exclam" unicode="!" horiz-adv-x="263" 
d="M130 357.5c10 53 20.667 114.832 32 185.499c2 13.333 7 43 15 89s16 83 24 111c3.33301 12.667 9 22.334 17 29.001s17.333 10 28 10c14.667 0 26 -3.83301 34 -11.5s12 -17.167 12 -28.5c0 -8.66699 -1.33301 -16 -4 -22c-8.66699 -30 -27.334 -83.667 -56.001 -161
c-26 -68.667 -48.667 -131.667 -68 -189s-36.666 -115.333 -51.999 -174l-18 3c14 52.667 26 105.5 36 158.5zM29.5 90.499c15 15.667 32.167 23.499 51.5 23.499c15.333 0 27.666 -5 36.999 -15s14 -22.333 14 -37c0 -20 -7.66699 -37.667 -23 -53s-32.666 -23 -51.999 -23
c-14.667 0 -26.667 4.83301 -36 14.5s-14 21.834 -14 36.501c0 20 7.5 37.833 22.5 53.5z" />
    <glyph glyph-name="quotedbl" unicode="&#x22;" horiz-adv-x="296" 
d="M225.5 661c-5 -12 -13.502 -28.999 -25.502 -50.999c-17.333 -30 -32.666 -60.667 -45.999 -92h-14c4.66699 35.333 8.33398 68.666 11.001 99.999c2 28.667 5 52 9 70c3.33301 14 8.83301 24.5 16.5 31.5s16.167 10.5 25.5 10.5c10.667 0 18.5 -3 23.5 -9
s7.5 -14 7.5 -24c0 -12 -2.5 -24 -7.5 -36zM334.498 661.001c-5 -12 -13.502 -28.999 -25.502 -50.999c-17.333 -30 -32.666 -60.667 -45.999 -92h-14c4.66699 35.333 8.33398 68.666 11.001 99.999c2 28.667 5 52 9 70c3.33301 14 8.83301 24.5 16.5 31.5
s16.167 10.5 25.5 10.5c10.667 0 18.5 -3 23.5 -9s7.5 -14 7.5 -24c0 -12 -2.5 -24 -7.5 -36z" />
    <glyph glyph-name="numbersign" unicode="#" horiz-adv-x="639" 
d="M481 434l-77 -167h143l-10 -20h-142l-68 -146h-24l68 146h-163l-68 -146h-24l68 146h-147l9 20h147l77 167h-146l8 20h147l69 148h24l-69 -148h163l69 148h24l-69 -148h143l-8 -20h-144zM457 434h-163l-77 -167h163z" />
    <glyph glyph-name="dollar" unicode="$" horiz-adv-x="551" 
d="M553.5 620c11 -19.333 16.499 -39.668 16.499 -61.001s-5.5 -39.833 -16.5 -55.5s-25.5 -23.5 -43.5 -23.5c-16.667 0 -29.334 6.33301 -38.001 19s-13 28 -13 46c0 19.333 3.5 37.166 10.5 53.499s16.5 33.833 28.5 52.5c-14.667 14.667 -33.667 27 -57 37l-87 -314
c36.667 -34 65 -65.667 85 -95s30 -61.666 30 -96.999c0 -40 -10.667 -74 -32 -102s-48.833 -49.667 -82.5 -65s-69.834 -24.666 -108.501 -27.999l-33 -119h-22l33 118h-8c-28 0 -52 3 -72 9l-35 -127h-22l37 133c-19.333 7.33301 -35.5 16 -48.5 26s-20.5 15.667 -22.5 17
c-14.667 11.333 -27 26.333 -37 45s-15 38.667 -15 60s5.5 39.833 16.5 55.5s25.5 23.5 43.5 23.5c16.667 0 29.334 -6.33301 38.001 -19s13 -28 13 -46c0 -19.333 -3.5 -37 -10.5 -53s-16.5 -33.667 -28.5 -53c15.333 -15.333 34.333 -27.333 57 -36l91 330
c-27.333 28 -48.5 55.5 -63.5 82.5s-22.5 58.167 -22.5 93.5c0 55.333 18.333 99.833 55 133.5s81.334 53.5 134.001 59.5l33 120h22l-33 -118h9c26 0 49.667 -2.66699 71 -8l35 126h22l-37 -133c13.333 -4.66699 24.833 -10.167 34.5 -16.5s17.834 -12 24.501 -17
s11 -8.16699 13 -9.5c12.667 -10 24.5 -24.667 35.5 -44zM420.999 693.998c-20 6 -41.667 9 -65 9h-15l-69 -249c16 -17.333 37.333 -38.333 64 -63zM254.999 473.998l62.999 226c-31.333 -6 -56.166 -19.333 -74.499 -40s-27.5 -48.667 -27.5 -84
c0 -32.667 13 -66.667 39 -102zM228.998 5.99805l74 265c-10 11.333 -26 27 -48 47l-17 16l-88 -319c20 -6 43 -9 69 -9h10zM319.998 250.998l-68 -243c36 4.66699 64 17.167 84 37.5s30 48.833 30 85.5c0 41.333 -15.333 81.333 -46 120z" />
    <glyph glyph-name="percent" unicode="%" horiz-adv-x="766" 
d="M839 811l-833 -866l-15 13l833 866zM139.5 640c18.333 35.333 43.334 64.333 75.001 87s66.5 34 104.5 34c35.333 0 62.666 -9.16699 81.999 -27.5s29 -43.833 29 -76.5c0 -35.333 -9 -70.666 -27 -105.999s-42.833 -64.333 -74.5 -87s-66.5 -34 -104.5 -34
c-35.333 0 -62.833 9 -82.5 27s-29.5 43.667 -29.5 77c0 35.333 9.16699 70.666 27.5 105.999zM241.001 703c-20 -26.667 -35.333 -58 -46 -94s-16 -67.333 -16 -94c0 -44.667 17.333 -67 52 -67c26.667 0 50 13.333 70 40s35.333 58.167 46 94.5s16 67.833 16 94.5
c0 22 -4.5 38.5 -13.5 49.5s-21.833 16.5 -38.5 16.5c-26.667 0 -50 -13.333 -70 -40zM403.501 196c18.333 35.333 43.334 64.333 75.001 87s66.5 34 104.5 34c35.333 0 62.666 -9.16699 81.999 -27.5s29 -43.833 29 -76.5c0 -35.333 -9 -70.666 -27 -105.999
s-42.833 -64.333 -74.5 -87s-66.5 -34 -104.5 -34c-35.333 0 -62.833 9 -82.5 27s-29.5 43.667 -29.5 77c0 35.333 9.16699 70.666 27.5 105.999zM505.002 259c-20 -26.667 -35.333 -58 -46 -94s-16 -67.333 -16 -94c0 -44.667 17.333 -67 52 -67c26.667 0 50 13.333 70 40
s35.333 58.167 46 94.5s16 67.833 16 94.5c0 22 -4.5 38.5 -13.5 49.5s-21.833 16.5 -38.5 16.5c-26.667 0 -50 -13.333 -70 -40z" />
    <glyph glyph-name="ampersand" unicode="&#x26;" horiz-adv-x="817" 
d="M834.5 694c22.333 -18.667 33.499 -47.332 33.499 -85.999c0 -34 -9.66699 -64 -29 -90s-50.333 -49.667 -93 -71c-29.333 -14.667 -82.666 -36 -159.999 -64c48.667 -40.667 73 -90.667 73 -150c0 -44.667 -13.333 -85.834 -40 -123.501s-65.167 -67.667 -115.5 -90
s-109.5 -33.5 -177.5 -33.5c-88.667 0 -158.834 18.833 -210.501 56.5s-77.5 89.167 -77.5 154.5c0 58.667 20.167 110.834 60.5 156.501s91.833 77.167 154.5 94.5c-22.667 12 -40 28 -52 48s-18 41.333 -18 64c0 29.333 9.83301 54.666 29.5 75.999
s44.834 37.666 75.501 48.999s61.667 17 93 17c37.333 0 67.166 -8 89.499 -24s33.5 -37 33.5 -63c0 -24 -8.66699 -42.5 -26 -55.5s-37 -19.5 -59 -19.5l2 18c18.667 0 33.667 4.83301 45 14.5s17 23.167 17 40.5c0 22 -9.16699 39.667 -27.5 53s-41.5 20 -69.5 20
c-40.667 0 -74.334 -14 -101.001 -42s-40 -63.667 -40 -107c0 -30.667 7.33301 -58.334 22 -83.001c24 4 45 6 63 6c24 0 36 -7 36 -21c0 -6.66699 -3 -11.834 -9 -15.501s-13.333 -5.5 -22 -5.5c-16.667 0 -39.667 7.33301 -69 22
c-45.333 -13.333 -82.166 -38.166 -110.499 -74.499s-42.5 -77.166 -42.5 -122.499c0 -58 23.167 -103 69.5 -135s106.833 -48 181.5 -48c51.333 0 98 7.66699 140 23s75 37.166 99 65.499s36 60.833 36 97.5c0 24 -5.66699 47.833 -17 71.5s-28 43.5 -50 59.5l-127 -47
c-30 -11.333 -55 -24.666 -75 -39.999s-30 -35 -30 -59c0 -20.667 8.16699 -37 24.5 -49s36.5 -18 60.5 -18c26 0 47.333 6.33301 64 19s29.334 26 38.001 40l13 -9c-26.667 -44 -66.334 -66 -119.001 -66c-30.667 0 -56.334 7.66699 -77.001 23s-31 40.333 -31 75
c0 38.667 13.833 70.667 41.5 96s69.167 48.333 124.5 69l49 18l112.5 40.5c41 15 73.5 28.5 97.5 40.5c32.667 15.333 58 31.833 76 49.5s27 38.167 27 61.5c0 24.667 -9.5 45.167 -28.5 61.5s-42.5 24.5 -70.5 24.5c-17.333 0 -28 -3 -32 -9
c6.66699 -4 11.834 -9.33301 15.501 -16s5.5 -14 5.5 -22c0 -15.333 -6.66699 -28.666 -20 -39.999s-28.666 -17 -45.999 -17c-13.333 0 -24.166 3.66699 -32.499 11s-12.5 17.666 -12.5 30.999c0 14 4.66699 26.333 14 37s21.333 19.334 36 26.001
c21.333 9.33301 45.666 14 72.999 14c38.667 0 69.167 -9.33301 91.5 -28z" />
    <glyph glyph-name="quotesingle" unicode="'" horiz-adv-x="187" 
d="M225.5 661c-5 -12 -13.502 -28.999 -25.502 -50.999c-17.333 -30 -32.666 -60.667 -45.999 -92h-14c4.66699 35.333 8.33398 68.666 11.001 99.999c2 28.667 5 52 9 70c3.33301 14 8.83301 24.5 16.5 31.5s16.167 10.5 25.5 10.5c10.667 0 18.5 -3 23.5 -9
s7.5 -14 7.5 -24c0 -12 -2.5 -24 -7.5 -36z" />
    <glyph glyph-name="parenleft" unicode="(" horiz-adv-x="361" 
d="M80.5 6c-28.333 62 -42.499 134.332 -42.499 216.999c0 72 18.667 144.167 56 216.5s88.666 139.833 153.999 202.5s139.666 117.334 222.999 164.001l10 -13c-117.333 -78.667 -207.666 -165.167 -270.999 -259.5s-95 -201.5 -95 -321.5
c0 -150.667 36.667 -277.667 110 -381l-18 -13c-56 63.333 -98.167 126 -126.5 188z" />
    <glyph glyph-name="parenright" unicode=")" horiz-adv-x="361" 
d="M289.5 618c28.333 -62 42.499 -134.332 42.499 -216.999c0 -72 -18.667 -144.167 -56 -216.5s-88.666 -139.833 -153.999 -202.5s-139.666 -117.334 -222.999 -164.001l-10 13c117.333 78.667 207.666 165.167 270.999 259.5s95 201.5 95 321.5
c0 150.667 -36.667 277.667 -110 381l18 13c56 -63.333 98.167 -126 126.5 -188z" />
    <glyph glyph-name="asterisk" unicode="*" horiz-adv-x="495" 
d="M512 614c0 -8 -3.5 -16.3311 -10.5 -24.998s-17.833 -16.667 -32.5 -24c-12.667 -6 -28 -11.667 -46 -17s-37.333 -10.333 -58 -15l-55 -14l55 -16l49 -15.5c15.333 -5 27 -10.167 35 -15.5c16 -10 24 -22 24 -36c0 -8.66699 -3 -16.667 -9 -24
c-7.33301 -10.667 -17.666 -16 -30.999 -16c-10 0 -21 4 -33 12c-8.66699 5.33301 -16.667 12 -24 20s-17.333 20 -30 36c-14 18 -26.667 33.333 -38 46l3 -64c1.33301 -25.333 2 -42.666 2 -51.999c0 -8.66699 -0.666992 -19.667 -2 -33
c-4.66699 -18.667 -11.667 -32.334 -21 -41.001s-19.333 -13 -30 -13c-7.33301 0 -13.5 2.5 -18.5 7.5s-7.5 13.167 -7.5 24.5c0 6.66699 1 14 3 22c2 13.333 6.66699 28.166 14 44.499s18.333 39.166 33 68.499l20 41h-1l-29 -24l-23 -19l-47.5 -38.5
c-15 -11.667 -27.833 -20.5 -38.5 -26.5c-14.667 -7.33301 -27.667 -11 -39 -11c-13.333 0 -22.333 5.66699 -27 17c-1.33301 4 -2 7 -2 9c0 16.667 14.333 33 43 49c12 6 27 11.5 45 16.5l57 15.5c26.667 6 45.334 10.667 56.001 14c-6 2 -24.667 7.66699 -56 17
c-22 6 -39.167 11.167 -51.5 15.5s-22.5 9.16602 -30.5 14.499c-16 10 -24 22 -24 36c0 9.33301 3 17.333 9 24c7.33301 10.667 17.666 16 30.999 16c10 0 21 -4 33 -12c8.66699 -5.33301 16.667 -12 24 -20s17.666 -20.333 30.999 -37c18 -22.667 31.333 -39 40 -49
c-1.33301 13.333 -2 22.666 -2 27.999c-4 46.667 -6 76.334 -6 89.001c0 13.333 1 25.333 3 36c4 18.667 10.667 32.334 20 41.001s19 13 29 13c8 0 14.5 -2.66699 19.5 -8s7.5 -13.333 7.5 -24c0 -6.66699 -1 -14 -3 -22c-2 -12 -5.83301 -24.833 -11.5 -38.5
s-14.5 -33.167 -26.5 -58.5c-4.66699 -9.33301 -13 -27.333 -25 -54l24 19.5l26 21.5l46.5 37.5c15 11.667 27.833 20.5 38.5 26.5c14.667 7.33301 27.667 11 39 11c13.333 0 22.333 -5.66699 27 -17c1.33301 -4 2 -7 2 -9z" />
    <glyph glyph-name="plus" unicode="+" horiz-adv-x="585" 
d="M296 370l67 236h36l-67 -236h232l-9 -30h-232l-67 -235h-36l67 235h-233l9 30h233z" />
    <glyph glyph-name="comma" unicode="," horiz-adv-x="252" 
d="M89.5 -49.5c-26.333 -34.333 -62.168 -62.502 -107.501 -84.502l-5 14c31.333 19.333 56.333 40.333 75 63s29 45.334 31 68.001c-19.333 -16.667 -36.666 -25 -51.999 -25c-12 0 -21.333 3.16699 -28 9.5s-10 14.833 -10 25.5c0 14 4.5 28.333 13.5 43
s20.667 26.667 35 36s28.833 14 43.5 14s25.667 -5.66699 33 -17s11 -25.333 11 -42c0 -35.333 -13.167 -70.166 -39.5 -104.499z" />
    <glyph glyph-name="hyphen" unicode="-" horiz-adv-x="504" 
d="M429 283l-15 -58h-361l15 58h361z" />
    <glyph glyph-name="period" unicode="." horiz-adv-x="244" 
d="M21.5 90.5c15 15.667 32.167 23.499 51.5 23.499c15.333 0 27.666 -5 36.999 -15s14 -22.333 14 -37c0 -20 -7.66699 -37.667 -23 -53s-32.666 -23 -51.999 -23c-14.667 0 -26.667 4.83301 -36 14.5s-14 21.834 -14 36.501c0 20 7.5 37.833 22.5 53.5z" />
    <glyph glyph-name="slash" unicode="/" horiz-adv-x="468" 
d="M508 722h33l-548 -736h-33z" />
    <glyph glyph-name="zero" unicode="0" horiz-adv-x="565" 
d="M472.5 482.5c27 -31 40.5 -74.499 40.5 -130.499c0 -59.333 -14.5 -117.333 -43.5 -174s-68 -102.834 -117 -138.501s-101.5 -53.5 -157.5 -53.5c-51.333 0 -91.5 15.333 -120.5 46s-43.5 74.667 -43.5 132c0 59.333 15.167 117.333 45.5 174s70.5 102.667 120.5 138
s103 53 159 53c50.667 0 89.5 -15.5 116.5 -46.5zM233.5 460.501c-33 -33.667 -59.667 -77.998 -80 -132.998s-30.5 -112.5 -30.5 -172.5c0 -100.667 30.333 -151 91 -151c37.333 0 71.833 17.667 103.5 53s56.834 81.166 75.501 137.499s28 113.833 28 172.5
c0 51.333 -7.33301 88.166 -22 110.499s-35.334 33.5 -62.001 33.5c-36 0 -70.5 -16.833 -103.5 -50.5z" />
    <glyph glyph-name="one" unicode="1" horiz-adv-x="342" 
d="M159 0l-87 -0.00195312l128 433c-38.667 -22 -88.667 -42.333 -150 -61l3 21c55.333 16.667 99.833 35.334 133.5 56.001s69.5 46.334 107.5 77.001h20z" />
    <glyph glyph-name="two" unicode="2" horiz-adv-x="503" 
d="M402.5 502c24.333 -17.333 36.5 -41.6641 36.5 -72.9971c0 -32.667 -13.167 -65.834 -39.5 -99.501s-57.166 -64.5 -92.499 -92.5s-78.333 -59.667 -129 -95c-37.333 -26 -62.333 -44.333 -75 -55c18 0 52.333 -4.66699 103 -14c52 -9.33301 88.333 -14 109 -14
c46 0 69 16 69 48c0 24.667 -14.667 43.667 -44 57l13 13c36.667 -17.333 55 -43.666 55 -78.999c0 -28.667 -10.5 -53.167 -31.5 -73.5s-52.167 -30.5 -93.5 -30.5c-14 0 -27.667 1.16699 -41 3.5s-29.666 5.83301 -48.999 10.5c-20.667 5.33301 -39.167 9.33301 -55.5 12
s-33.5 4 -51.5 4c-19.333 0 -36.833 -1.83301 -52.5 -5.5s-33.834 -9.83398 -54.501 -18.501l5 21c7.33301 6 18 13.833 32 23.5s25 17.5 33 23.5c57.333 40.667 106.166 77.5 146.499 110.5s75.833 70.5 106.5 112.5s46 84.333 46 127c0 27.333 -6.66699 48.833 -20 64.5
s-32.333 23.5 -57 23.5c-24 0 -49.5 -8 -76.5 -24s-49.5 -36.5 -67.5 -61.5s-27 -50.167 -27 -75.5c0 -16.667 4.5 -28.834 13.5 -36.501s23.833 -11.5 44.5 -11.5c17.333 0 32.833 3.16699 46.5 9.5s28.834 16.833 45.501 31.5l12 -14
c-17.333 -16.667 -35.666 -28.834 -54.999 -36.501s-38 -11.5 -56 -11.5c-20.667 0 -38.334 5 -53.001 15s-22 27.667 -22 53c0 29.333 10.5 58.333 31.5 87s49 52 84 70s72.5 27 112.5 27c41.333 0 74.166 -8.66699 98.499 -26z" />
    <glyph glyph-name="three" unicode="3" horiz-adv-x="485" 
d="M401.5 505c24.333 -17.333 36.5049 -41.6641 36.5049 -72.9971c0 -28.667 -10.5 -55.334 -31.5 -80.001s-47.5 -45.834 -79.5 -63.501s-64 -30.5 -96 -38.5c46.667 -1.33301 85 -11.833 115 -31.5s45 -47.167 45 -82.5c0 -57.333 -25.167 -107.666 -75.5 -150.999
s-112.333 -76.5 -186 -99.5s-143.5 -35.167 -209.5 -36.5l5 18c57.333 3.33301 114.666 16.166 171.999 38.499s105.166 53.833 143.499 94.5s57.5 88.334 57.5 143.001c0 26.667 -7.5 48.167 -22.5 64.5s-35.833 25.166 -62.5 26.499
c-10.667 -4.66699 -21.167 -8.66699 -31.5 -12s-19.166 -5 -26.499 -5c-14.667 0 -20.334 5 -17.001 15c2.66699 12.667 18.667 19 48 19l19 -1c41.333 16 76.166 39.167 104.499 69.5s42.5 63.5 42.5 99.5c0 28 -7.33301 50 -22 66s-34.667 24 -60 24
c-22.667 0 -46.667 -6.5 -72 -19.5s-46.5 -29.667 -63.5 -50s-25.5 -40.833 -25.5 -61.5c0 -16.667 4.5 -28.834 13.5 -36.501s23.833 -11.5 44.5 -11.5c22 0 42.667 5 62 15l11 -15c-26 -14 -52.667 -21 -80 -21c-20.667 0 -38.334 5 -53.001 15s-22 27.667 -22 53
c0 24 10 48 30 72s46.667 43.667 80 59s69.333 23 108 23c41.333 0 74.166 -8.66699 98.499 -26z" />
    <glyph glyph-name="four" unicode="4" horiz-adv-x="515" 
d="M418 34h-133l-47 -175h-87l47 175h-249l6 21l436 474h26l-117 -438h134zM213 91l82 307l-281 -307h199z" />
    <glyph glyph-name="five" unicode="5" horiz-adv-x="459" 
d="M439 531c-34 -73.333 -79.6621 -110 -136.995 -110c-14.667 0 -33.334 6.33301 -56.001 19c-2 1.33301 -7.16699 3.83301 -15.5 7.5s-15.833 6.16699 -22.5 7.5s-12.334 1.66602 -17.001 0.999023l-112 -229c21.333 11.333 43.166 19.833 65.499 25.5
s47.166 8.5 74.499 8.5c51.333 0 89.666 -10.333 114.999 -31s38 -48.334 38 -83.001c0 -61.333 -24.333 -113.833 -73 -157.5s-108.334 -77 -179.001 -100s-137.667 -35.5 -201 -37.5l5 18c54 0.666992 108.333 11.834 163 33.501s100 53.334 136 95.001s54 90.5 54 146.5
c0 26.667 -8.66699 47.667 -26 63s-43.666 23 -78.999 23c-34.667 0 -71.667 -9 -111 -27l-10 5l150 309c20 0.666992 41.667 -3 65 -11c26.667 -9.33301 52.667 -14 78 -14c38 0 65.667 15 83 45z" />
    <glyph glyph-name="six" unicode="6" horiz-adv-x="527" 
d="M530 702c-64 -15.333 -127.166 -50.335 -189.499 -105.002s-113.5 -122.5 -153.5 -203.5s-60 -166.5 -60 -256.5c0 -48.667 6 -82.667 18 -102s30 -29 54 -29c35.333 0 66.666 16.333 93.999 49s48.5 72.667 63.5 120s22.5 91.666 22.5 132.999
c0 67.333 -21.667 101 -65 101c-22 0 -43.333 -9.5 -64 -28.5s-38.667 -50.167 -54 -93.5l-16 6c16.667 52 40.167 89.167 70.5 111.5s62.5 33.5 96.5 33.5c38 0 68.5 -13.167 91.5 -39.5s34.5 -63.166 34.5 -110.499c0 -51.333 -13.333 -100.333 -40 -147
s-62.334 -84.167 -107.001 -112.5s-92.334 -42.5 -143.001 -42.5c-50 0 -87 15 -111 45s-36 74.667 -36 134c0 94.667 26.833 182.334 80.5 263.001s118.834 146.834 195.501 198.501s147.334 83.5 212.001 95.5z" />
    <glyph glyph-name="seven" unicode="7" horiz-adv-x="487" 
d="M541 514c-15.333 -21.333 -46.6631 -59.0029 -93.9961 -113.003c-44 -50.667 -80.833 -95.167 -110.5 -133.5s-57.834 -81.833 -84.501 -130.5s-47.334 -100.334 -62.001 -155.001c-2.66699 -9.33301 -6.66699 -27 -12 -53l-5 -26
c-4 -14.667 -11.5 -26.834 -22.5 -36.501s-24.167 -14.5 -39.5 -14.5c-20.667 0 -31 11.333 -31 34c0 4 0.666992 11.333 2 22c7.33301 42.667 26.833 89.834 58.5 141.501s67 101.334 106 149.001s86.5 102.834 142.5 165.501c42 46.667 72 81.334 90 104.001
c-42 -28 -90.667 -42 -146 -42c-18.667 0 -35.5 1.33301 -50.5 4s-31.5 6.66699 -49.5 12c-30 8.66699 -54.667 13 -74 13c-26 0 -46.833 -5.66699 -62.5 -17s-23.5 -28 -23.5 -50c0 -28 11.333 -51.333 34 -70s57.667 -33.667 105 -45l-6 -15c-104.667 20 -157 67 -157 141
c0 20 5.16699 39.333 15.5 58s26 33.834 47 45.501s47.167 17.5 78.5 17.5c20 0 38.167 -2 54.5 -6s37.5 -10.333 63.5 -19c23.333 -8.66699 43.166 -15 59.499 -19s34.166 -6 53.499 -6c20.667 0 38.5 3.16699 53.5 9.5s28.5 17.833 40.5 34.5h26z" />
    <glyph glyph-name="eight" unicode="8" horiz-adv-x="544" 
d="M339 396c26.667 -25.333 47.667 -46.833 63 -64.5s28.5 -38.167 39.5 -61.5s16.5 -49 16.5 -77c0 -41.333 -12 -77.666 -36 -108.999s-56.667 -55.5 -98 -72.5s-87 -25.5 -137 -25.5c-54 0 -97 10.667 -129 32s-48 53.666 -48 96.999c0 54.667 23.333 103.667 70 147
s103 79.333 169 108c-30 29.333 -52.833 56.5 -68.5 81.5s-23.5 53.833 -23.5 86.5c0 36 11.5 68 34.5 96s52.833 49.667 89.5 65s75 23 115 23c42 0 76 -8.83301 102 -26.5s39 -44.167 39 -79.5c0 -76 -66 -149.333 -198 -220zM419 500.5
c24.667 38.333 36.999 77.832 36.999 118.499c0 56.667 -26 85 -78 85c-24.667 0 -47.667 -6.16699 -69 -18.5s-38.166 -29.5 -50.499 -51.5s-18.5 -46.667 -18.5 -74c0 -28 7.5 -53.667 22.5 -77s36.833 -48.666 65.5 -75.999c36 24 66.333 55.167 91 93.5z
M354.499 242.999c-9.66699 21.333 -21.667 40.168 -36 56.501s-33.5 36.166 -57.5 59.499c-48 -26.667 -87.167 -63 -117.5 -109s-45.5 -94 -45.5 -144c0 -32 7.5 -57 22.5 -75s40.167 -27 75.5 -27c30 0 58.333 6.66699 85 20s48 32.833 64 58.5s24 55.5 24 89.5
c0 26 -4.83301 49.667 -14.5 71z" />
    <glyph glyph-name="nine" unicode="9" horiz-adv-x="513" 
d="M430 483c24 -30 35.9941 -74.668 35.9941 -134.001c0 -91.333 -26.167 -176 -78.5 -254s-116.166 -141.833 -191.499 -191.5s-144.666 -80.167 -207.999 -91.5l-6 20c62.667 14.667 124.334 48.334 185.001 101.001s110.5 118.167 149.5 196.5s58.5 160.833 58.5 247.5
c0 48.667 -6 82.667 -18 102s-30 29 -54 29c-35.333 0 -66.666 -16.333 -93.999 -49s-48.5 -72.667 -63.5 -120s-22.5 -91.666 -22.5 -132.999c0 -67.333 21.667 -101 65 -101c22 0 43.333 9.5 64 28.5s38.667 50.167 54 93.5l16 -6
c-16.667 -52 -40.167 -89.167 -70.5 -111.5s-62.5 -33.5 -96.5 -33.5c-38 0 -68.5 13.167 -91.5 39.5s-34.5 63.166 -34.5 110.499c0 51.333 13.333 100.333 40 147s62.334 84.167 107.001 112.5s92.334 42.5 143.001 42.5c50 0 87 -15 111 -45z" />
    <glyph glyph-name="colon" unicode=":" horiz-adv-x="278" 
d="M138.5 504.5c15 15.667 32.167 23.499 51.5 23.499c15.333 0 27.666 -5 36.999 -15s14 -22.333 14 -37c0 -20 -7.66699 -37.667 -23 -53s-32.666 -23 -51.999 -23c-14.667 0 -26.667 4.83301 -36 14.5s-14 21.834 -14 36.501c0 20 7.5 37.833 22.5 53.5zM38.5 90.499
c15 15.667 32.167 23.499 51.5 23.499c15.333 0 27.666 -5 36.999 -15s14 -22.333 14 -37c0 -20 -7.66699 -37.667 -23 -53s-32.666 -23 -51.999 -23c-14.667 0 -26.667 4.83301 -36 14.5s-14 21.834 -14 36.501c0 20 7.5 37.833 22.5 53.5z" />
    <glyph glyph-name="semicolon" unicode=";" horiz-adv-x="287" 
d="M139.5 504.5c15 15.667 32.167 23.499 51.5 23.499c15.333 0 27.666 -5 36.999 -15s14 -22.333 14 -37c0 -20 -7.66699 -37.667 -23 -53s-32.666 -23 -51.999 -23c-14.667 0 -26.667 4.83301 -36 14.5s-14 21.834 -14 36.501c0 20 7.5 37.833 22.5 53.5zM109.5 -49.501
c-26.333 -34.333 -62.168 -62.502 -107.501 -84.502l-5 14c31.333 19.333 56.333 40.333 75 63s29 45.334 31 68.001c-19.333 -16.667 -36.666 -25 -51.999 -25c-12 0 -21.333 3.16699 -28 9.5s-10 14.833 -10 25.5c0 14 4.5 28.333 13.5 43s20.667 26.667 35 36
s28.833 14 43.5 14s25.667 -5.66699 33 -17s11 -25.333 11 -42c0 -35.333 -13.167 -70.166 -39.5 -104.499z" />
    <glyph glyph-name="less" unicode="&#x3c;" horiz-adv-x="602" 
d="M613 553l-487 -202l331 -174l-16 -32l-390 210l552 227z" />
    <glyph glyph-name="equal" unicode="=" horiz-adv-x="663" 
d="M119 440h501l-9 -30h-501zM79 300h501l-9 -30h-501z" />
    <glyph glyph-name="greater" unicode="&#x3e;" horiz-adv-x="602" 
d="M52 184l460 192l-370 198l16 29l429 -231l-525 -217z" />
    <glyph glyph-name="question" unicode="?" horiz-adv-x="438" 
d="M246.5 752c-21 -8.66699 -34.1699 -20.666 -39.5029 -35.999c6 -1.33301 11.667 -5.83301 17 -13.5s8 -16.5 8 -26.5c0 -14 -5.16699 -25.667 -15.5 -35s-22.833 -14 -37.5 -14c-13.333 0 -23.333 3.83301 -30 11.5s-10 17.834 -10 30.501c0 21.333 9 40.666 27 57.999
s41.667 30.833 71 40.5s59.333 14.5 90 14.5c44.667 0 80.5 -10.333 107.5 -31s40.5 -49.667 40.5 -87c0 -32 -12.167 -64.5 -36.5 -97.5s-67.166 -73.167 -128.499 -120.5c-4 -3.33301 -21.667 -16.666 -53 -39.999c-41.333 -30 -69.666 -53.5 -84.999 -70.5
s-23 -37.5 -23 -61.5c0 -20 5.66699 -36.5 17 -49.5s29.333 -19.5 54 -19.5c20 0 39.333 4 58 12s31.334 18.667 38.001 32c-6.66699 0.666992 -12.834 4.5 -18.501 11.5s-8.16699 14.833 -7.5 23.5c0 10.667 4.33301 20.167 13 28.5s19.334 12.5 32.001 12.5
c10 0 18.167 -2.83301 24.5 -8.5s9.5 -14.5 9.5 -26.5c0 -20 -8.66699 -37.667 -26 -53s-39 -27.333 -65 -36s-51.667 -13 -77 -13c-34.667 0 -62.5 8.33301 -83.5 25s-31.5 40.667 -31.5 72c0 24 6.5 46.5 19.5 67.5s29.667 40.167 50 57.5s48.833 39.666 85.5 66.999
l31 23c49.333 37.333 83.333 67.666 102 90.999s28 50 28 80c0 28.667 -7.66699 51.5 -23 68.5s-38 25.5 -68 25.5c-22 0 -43.5 -4.33301 -64.5 -13zM129.497 90.501c15 15.667 32.167 23.499 51.5 23.499c15.333 0 27.666 -5 36.999 -15s14 -22.333 14 -37
c0 -20 -7.66699 -37.667 -23 -53s-32.666 -23 -51.999 -23c-14.667 0 -26.667 4.83301 -36 14.5s-14 21.834 -14 36.501c0 20 7.5 37.833 22.5 53.5z" />
    <glyph glyph-name="at" unicode="@" horiz-adv-x="848" 
d="M462 91c0 14 3.00098 32.332 9.00098 54.999c-20 -41.333 -41.667 -71.666 -65 -90.999s-51 -29 -83 -29c-36 0 -62.167 11 -78.5 33s-24.5 51.333 -24.5 88c0 49.333 13 100 39 152s59.333 94.833 100 128.5s81 50.5 121 50.5s62 -21.333 66 -64l14 50
c38 0 68 4.66699 90 14l-106 -367c-4 -14 -6 -25.333 -6 -34c0 -9.33301 2.33301 -16 7 -20s12 -6 22 -6c25.333 0 57 14.167 95 42.5s71.167 68.5 99.5 120.5s42.5 112 42.5 180c0 87.333 -27.167 151.833 -81.5 193.5s-124.166 62.5 -209.499 62.5
c-80 0 -155.833 -23.167 -227.5 -69.5s-129 -108.333 -172 -186s-64.5 -160.834 -64.5 -249.501c0 -98 27.167 -170.5 81.5 -217.5s127.166 -70.5 218.499 -70.5c77.333 0 146 18 206 54l7 -13c-26 -18 -57.333 -32.333 -94 -43s-76.667 -16 -120 -16
c-97.333 0 -174.833 25.167 -232.5 75.5s-86.5 126.5 -86.5 228.5c0 89.333 21.667 174.333 65 255s102 145.834 176 195.501s154.667 74.5 242 74.5c93.333 0 168.666 -22.667 225.999 -68s86 -114.333 86 -207c0 -70.667 -15.5 -134 -46.5 -190
s-69.167 -99.5 -114.5 -130.5s-88.333 -46.5 -129 -46.5c-48 0 -72 21.667 -72 65zM429.001 106.999c23.333 34 48.332 86.333 74.999 157l34 121c-0.666992 24.667 -5.5 42.5 -14.5 53.5s-22.167 16.5 -39.5 16.5c-31.333 0 -60.666 -15.167 -87.999 -45.5
s-49.333 -69 -66 -116s-25 -93.833 -25 -140.5c0 -64.667 17.333 -97 52 -97c24.667 0 48.667 17 72 51z" />
    <glyph glyph-name="A" unicode="A" horiz-adv-x="629" 
d="M521 36c9.33301 -10 20.002 -15.334 32.002 -16.001l-4 -20c-26.667 2 -63 3 -109 3c-54 0 -94 -1 -120 -3l4 20c22.667 1.33301 40.167 4.16602 52.5 8.49902s21.166 12.333 26.499 24s7.66602 28.834 6.99902 51.501l-9 164h-246l-75 -106c-31.333 -44 -47 -77 -47 -99
c0 -27.333 24.667 -41.666 74 -42.999l-5 -20c-36.667 2 -74.667 3 -114 3c-28.667 0 -53.667 -1 -75 -3l5 20c30.667 6.66699 64 35.667 100 87l431 606h15l40 -629c2 -22 7.66699 -38 17 -48zM400.002 287.999l-17 303l-214 -303h231z" />
    <glyph glyph-name="B" unicode="B" horiz-adv-x="632" 
d="M520.5 317c25.667 -28.667 38.5 -63.999 38.5 -105.999c0 -45.333 -14.333 -83.833 -43 -115.5s-65.834 -55.5 -111.501 -71.5s-93.5 -24 -143.5 -24l-73 1c-40 1.33301 -73 2 -99 2c-53.333 0 -94 -1 -122 -3l4 20c24 1.33301 42 4 54 8s21.5 11.667 28.5 23
s13.833 29.666 20.5 54.999l132 496c5.33301 20 8 36 8 48c0 12.667 -4.83301 22 -14.5 28s-27.167 9.33301 -52.5 10l5 20c26.667 -2 66.334 -3 119.001 -3c30 0 52.667 0.333008 68 1l73 1c62 0 108.833 -11.333 140.5 -34s47.5 -54 47.5 -94
c0 -48 -19.833 -89.667 -59.5 -125s-88.167 -62 -145.5 -80c58 -9.33301 99.833 -28.333 125.5 -57zM238 376.001h65.999c39.333 0 73.833 9 103.5 27s52.667 42 69 72s24.5 62.333 24.5 97c0 39.333 -8.66699 68.5 -26 87.5s-44.666 28.5 -81.999 28.5
c-29.333 0 -50 -4.66699 -62 -14s-21.667 -28.333 -29 -57zM401.999 74.501c38 34.333 57 84.833 57 151.5c0 88.667 -47.667 133 -143 133h-82l-67 -253c-6 -24 -9 -40.333 -9 -49c0 -12 4.5 -20.667 13.5 -26s24.5 -8 46.5 -8c84.667 0 146 17.167 184 51.5z" />
    <glyph glyph-name="C" unicode="C" horiz-adv-x="670" 
d="M648 478l-22 -0.00292969c4 26 6 49 6 69c0 32 -5.33301 58.333 -16 79c-12 24.667 -29.833 43.834 -53.5 57.501s-49.5 20.5 -77.5 20.5c-55.333 0 -108.833 -26 -160.5 -78s-93.5 -117.5 -125.5 -196.5s-48 -155.5 -48 -229.5c0 -64 12.667 -112.667 38 -146
s60.333 -50 105 -50c29.333 0 60.333 6.83301 93 20.5s61 32.834 85 57.501c17.333 17.333 32.333 37.5 45 60.5s27.667 55.5 45 97.5h22c-31.333 -115.333 -51 -195.333 -59 -240h-22c2 14 3 25.333 3 34c0 17.333 -4 26 -12 26c-4.66699 0 -11.667 -3 -21 -9
c-34.667 -22.667 -65 -39.167 -91 -49.5s-58.667 -15.5 -98 -15.5c-74 0 -131.333 20 -172 60s-61 98.333 -61 175s19.167 154 57.5 232s91 142.333 158 193s140.5 76 220.5 76c38.667 0 68.167 -5.5 88.5 -16.5s40.5 -27.167 60.5 -48.5c4.66699 -6 9.66699 -9 15 -9
c6 0 12.167 4.83301 18.5 14.5s13.5 24.834 21.5 45.501h21c-22 -57.333 -43.333 -134 -64 -230z" />
    <glyph glyph-name="D" unicode="D" horiz-adv-x="725" 
d="M642 249.5c-41.333 -75 -98.168 -135.332 -170.501 -180.999s-152.833 -68.5 -241.5 -68.5l-58 1c-37.333 1.33301 -64.666 2 -81.999 2c-54 0 -94 -1 -120 -3l3 20c22.667 1.33301 39.834 4 51.501 8s21 11.833 28 23.5s13.833 29.834 20.5 54.501l131 496
c6 25.333 9 41.666 9 48.999c0 13.333 -4.83301 22.666 -14.5 27.999s-27.167 8.33301 -52.5 9l3 20c22.667 -2 55 -3 97 -3l85 1c45.333 1.33301 75.666 2 90.999 2c94 0 164.5 -18.667 211.5 -56s70.5 -92.333 70.5 -165c0 -83.333 -20.667 -162.5 -62 -237.5z
M429.998 85.501c58.667 45 103 105.167 133 180.5s45 157.333 45 246c0 60.667 -17 105.5 -51 134.5s-88.333 43.5 -163 43.5c-20.667 0 -36.834 -2.33301 -48.501 -7s-21.167 -13 -28.5 -25s-14 -30 -20 -54l-131 -500c-6 -24 -9 -40.333 -9 -49
c0 -12.667 4.5 -22 13.5 -28s24.833 -9 47.5 -9c82.667 0 153.334 22.5 212.001 67.5z" />
    <glyph glyph-name="E" unicode="E" horiz-adv-x="610" 
d="M642 708c-17.333 -48 -30.001 -87.334 -38.001 -118.001c-7.33301 -24 -12 -44.667 -14 -62h-23c6 38.667 9 65.334 9 80.001c0 28.667 -7.33301 48.667 -22 60s-41 17 -79 17h-73c-24 0 -41.833 -1.83301 -53.5 -5.5s-21.167 -11.167 -28.5 -22.5
s-14.333 -29.666 -21 -54.999l-63 -236h66c23.333 0 42.666 5.5 57.999 16.5s27.333 23.833 36 38.5s17.334 33.334 26.001 56.001c2 6.66699 4.66699 13.667 8 21h23c-14 -44 -25.667 -83.667 -35 -119l-6 -23c-9.33301 -35.333 -20 -82.666 -32 -141.999h-23l3 20l3 22
c1.33301 10 2 18.667 2 26c0 20 -5.16699 35.667 -15.5 47s-28.166 17 -53.499 17h-66l-64 -240c-6 -20.667 -9 -37 -9 -49c0 -14 5 -23.167 15 -27.5s27.667 -6.5 53 -6.5h73c41.333 0 74.333 5.5 99 16.5s45.167 28.667 61.5 53s33.166 60.166 50.499 107.499h23
c-7.33301 -19.333 -14.666 -43.333 -21.999 -72c-10.667 -37.333 -19.667 -80 -27 -128c-45.333 2 -121.666 3 -228.999 3c-128 0 -224.333 -1 -289 -3l5 20c24 1.33301 41.833 4 53.5 8s21.167 11.667 28.5 23s14.333 29.666 21 54.999l133 496c6 21.333 9 37.666 9 48.999
c0 14 -4.83301 23.333 -14.5 28s-27.167 7.66699 -52.5 9l5 20c65.333 -2 162 -3 290 -3c93.333 0 159.666 1 198.999 3z" />
    <glyph glyph-name="F" unicode="F" horiz-adv-x="566" 
d="M642 708c-16.667 -47.333 -30.333 -90 -41 -128c-6.66699 -24.667 -13 -52 -19 -82h-23c7.33301 42.667 11 76 11 100c0 32 -8.33301 54.5 -25 67.5s-46.667 19.5 -90 19.5h-53c-24 0 -41.833 -1.83301 -53.5 -5.5s-21.167 -11.167 -28.5 -22.5
s-14.333 -29.666 -21 -54.999l-66 -246h73c34 0 59.333 10.167 76 30.5s28.834 40.833 36.501 61.5s12.834 34 15.501 40h23c-14 -44 -25.667 -83.667 -35 -119l-6 -23c-10.667 -44 -21.334 -91.333 -32.001 -142h-23l3 22c3.33301 18 5 33.667 5 47c0 20 -5 35.5 -15 46.5
s-27.667 16.5 -53 16.5h-73l-62 -230c-5.33301 -20 -8 -34.667 -8 -44c0 -16 6.16699 -26.667 18.5 -32s34.833 -8.66602 67.5 -9.99902l-5 -20c-34.667 2 -83.667 3 -147 3c-56.667 0 -99 -1 -127 -3l5 20c24 1.33301 41.833 4 53.5 8s21.167 11.667 28.5 23
s14.333 29.666 21 54.999l133 496c6 21.333 9 37.666 9 48.999c0 14 -4.83301 23.333 -14.5 28s-27.167 7.66699 -52.5 9l5 20c65.333 -2 162 -3 290 -3c93.333 0 159.666 1 198.999 3z" />
    <glyph glyph-name="G" unicode="G" horiz-adv-x="705" 
d="M378.5 15c19.667 6 36.8359 13.3301 51.5029 21.9971c13.333 8 23.333 17 30 27s12 22 16 36l23 88c6 22 9 39.333 9 52c0 16.667 -6 27.834 -18 33.501s-34 9.16699 -66 10.5l5 20c35.333 -2 82 -3 140 -3c46 0 81 1 105 3l-5 -20c-16 -1.33301 -27.833 -4 -35.5 -8
s-14.334 -11.5 -20.001 -22.5s-11.834 -29.5 -18.501 -55.5l-53 -198h-20c2 8 3 16.667 3 26c0 20.667 -5 31 -15 31c-4 0 -8.5 -1 -13.5 -3s-13.167 -6.66699 -24.5 -14c-28 -17.333 -55.667 -30.666 -83 -39.999s-56.333 -14 -87 -14
c-81.333 0 -143.666 19.833 -186.999 59.5s-65 96.167 -65 169.5c0 77.333 18.833 155.333 56.5 234s90 143.834 157 195.501s141.833 77.5 224.5 77.5c40 0 71.833 -5.5 95.5 -16.5s46.5 -27.167 68.5 -48.5c6 -6 11.667 -9 17 -9c6.66699 0 13.167 4.66699 19.5 14
s13.166 24.666 20.499 45.999h22c-22 -57.333 -43.333 -134 -64 -230h-22c3.33301 28.667 5 53.667 5 75c0 30.667 -4.66699 55 -14 73c-14 24.667 -34.667 43.834 -62 57.501s-58 20.5 -92 20.5c-68.667 0 -128.834 -29 -180.501 -87s-91 -128 -118 -210
s-40.5 -157 -40.5 -225c0 -60 14.167 -104.333 42.5 -133s71.833 -43 130.5 -43c22 0 42.833 3 62.5 9z" />
    <glyph glyph-name="H" unicode="H" horiz-adv-x="755" 
d="M820 708l-4.99805 -20.0059c-24.667 -1.33301 -42.834 -4 -54.501 -8s-21 -11.667 -28 -23s-13.833 -29.666 -20.5 -54.999l-132 -496c-6 -25.333 -9 -41.666 -9 -48.999c0 -14 4.83301 -23.333 14.5 -28s27.5 -7.66699 53.5 -9l-4 -20c-28 2 -70.667 3 -128 3
c-53.333 0 -95.666 -1 -126.999 -3l4 20c24 1.33301 42 4 54 8s21.5 11.667 28.5 23s13.833 29.666 20.5 54.999l64 240h-321l-64 -240c-6 -25.333 -9 -41.666 -9 -48.999c0 -14 4.83301 -23.333 14.5 -28s27.5 -7.66699 53.5 -9l-4 -20c-30.667 2 -73 3 -127 3
c-56 0 -98.333 -1 -127 -3l5 20c23.333 1.33301 40.833 4 52.5 8s21 11.833 28 23.5s13.833 29.834 20.5 54.501l132 496c5.33301 22.667 8 38.667 8 48c0 14.667 -4.83301 24.334 -14.5 29.001s-27.167 7.66699 -52.5 9l5 20c27.333 -2 69.666 -3 126.999 -3
c53.333 0 96 1 128 3l-5 -20c-24.667 -1.33301 -42.834 -4 -54.501 -8s-21 -11.667 -28 -23s-13.833 -29.666 -20.5 -54.999l-63 -236h321l63 236c6 21.333 9 37.333 9 48c0 14.667 -5 24.334 -15 29.001s-27.667 7.66699 -53 9l5 20c30 -2 72 -3 126 -3
c57.333 0 100.333 1 129 3z" />
    <glyph glyph-name="I" unicode="I" horiz-adv-x="341" 
d="M157 57c0 -14 4.83496 -23.3369 14.502 -28.0039s27.5 -7.66699 53.5 -9l-4 -20c-30.667 2 -73 3 -127 3c-56 0 -98.333 -1 -127 -3l5 20c23.333 1.33301 40.833 4 52.5 8s21 11.833 28 23.5s13.833 29.834 20.5 54.501l132 496c5.33301 22.667 8 38.667 8 48
c0 14.667 -4.83301 24.334 -14.5 29.001s-27.167 7.66699 -52.5 9l5 20c27.333 -2 69.666 -3 126.999 -3c53.333 0 96 1 128 3l-5 -20c-24.667 -1.33301 -42.834 -4 -54.501 -8s-21 -11.667 -28 -23s-13.833 -29.666 -20.5 -54.999l-132 -496
c-6 -25.333 -9 -41.666 -9 -48.999z" />
    <glyph glyph-name="J" unicode="J" horiz-adv-x="636" 
d="M743 718c0 -16 -24.3398 -33.3369 -73.0068 -52.0039c-93.333 -62 -162.666 -162 -207.999 -300h99l-3 -20h-102c-5.33301 -17.333 -9 -30.333 -11 -39l-62 -242c-19.333 -74.667 -48.666 -135.5 -87.999 -182.5s-88.666 -70.5 -147.999 -70.5
c-31.333 0 -56.166 4.83301 -74.499 14.5s-27.5 23.834 -27.5 42.501c0 14.667 5.33301 27.834 16 39.501s23.667 17.5 39 17.5c12 0 22 -4 30 -12s12 -18 12 -30c0 -10.667 -3.83301 -20.5 -11.5 -29.5s-17.167 -16.167 -28.5 -21.5c10 -3.33301 21.667 -5 35 -5
c30 0 54.833 11.333 74.5 34s35.334 51 47.001 85s24.834 81 39.501 141c2.66699 12.667 7.33398 31.667 14.001 57l30 117c8.66699 32 18 60 28 84h-133l3 20h138c28 60.667 63.667 113 107 157s99.333 90.667 168 140c-77.333 -40 -143.333 -60 -198 -60
c-21.333 0 -40.833 2.33301 -58.5 7s-38.834 11.667 -63.501 21c-26 9.33301 -47.667 16.333 -65 21s-37 7 -59 7c-21.333 0 -37.5 -5.33301 -48.5 -16s-16.5 -25.667 -16.5 -45c0 -42.667 24.667 -68.667 74 -78l-3 -20c-31.333 5.33301 -57.5 17.833 -78.5 37.5
s-31.5 48.167 -31.5 85.5c0 34 10.333 61.833 31 83.5s49 32.5 85 32.5c24.667 0 46.834 -4.66699 66.501 -14s41.834 -22.666 66.501 -39.999c25.333 -18 47.5 -31.333 66.5 -40s40.167 -13 63.5 -13c30.667 0 58 3.33301 82 10s55.667 18.334 95 35.001
c25.333 38.667 46.333 58 63 58c5.33301 0 9.66602 -1.66699 12.999 -5c4 -4 6 -8 6 -12z" />
    <glyph glyph-name="K" unicode="K" horiz-adv-x="675" 
d="M692.5 707c9.66699 -10 14.4961 -22.9971 14.4961 -38.9971c0 -14.667 -4.83301 -29.834 -14.5 -45.501s-24.167 -23.5 -43.5 -23.5c-13.333 0 -23.166 3.83301 -29.499 11.5s-9.5 17.167 -9.5 28.5c0 9.33301 3 19.833 9 31.5s13.667 21.834 23 30.501h-3
c-13.333 -0.666992 -25.333 -5.33398 -36 -14.001c-11.333 -10 -20.833 -23.5 -28.5 -40.5s-17.5 -42.167 -29.5 -75.5c-14 -39.333 -27.333 -71.833 -40 -97.5s-30 -48.334 -52 -68.001s-49.667 -31.834 -83 -36.501c24.667 -5.33301 44.334 -12.5 59.001 -21.5
s26 -24.667 34 -47s11.333 -54.166 10 -95.499l-4 -113c-0.666992 -17.333 0.833008 -30.166 4.5 -38.499s12.167 -12.5 25.5 -12.5c16.667 0 30.834 6.16699 42.501 18.5s22.167 32.166 31.5 59.499l17 51h20l-26 -77c-12.667 -36.667 -29 -63.667 -49 -81
s-44.333 -26 -73 -26c-61.333 0 -89.333 38.667 -84 116l7 113c0.666992 8.66699 1 20.667 1 36c0 30.667 -3 53.667 -9 69s-15.333 28 -28 38c-24.667 -6 -43.667 -9 -57 -9c-20.667 0 -31 6.66699 -31 20s10 20 30 20c14.667 0 35 -3.33301 61 -10
c34 4 61.833 15.5 83.5 34.5s38.334 40.833 50.001 65.5s24.5 56.667 38.5 96c12 34.667 22.333 61.167 31 79.5s19.667 33.166 33 44.499c19.333 15.333 39.333 23 60 23c20 0 34.833 -5 44.5 -15zM156.996 57.0029c0 -14 4.83496 -23.3369 14.502 -28.0039
s27.5 -7.66699 53.5 -9l-4 -20c-30.667 2 -73 3 -127 3c-56 0 -98.333 -1 -127 -3l5 20c23.333 1.33301 40.833 4 52.5 8s21 11.833 28 23.5s13.833 29.834 20.5 54.501l132 496c5.33301 22.667 8 38.667 8 48c0 14.667 -4.83301 24.334 -14.5 29.001
s-27.167 7.66699 -52.5 9l5 20c27.333 -2 69.666 -3 126.999 -3c53.333 0 96 1 128 3l-5 -20c-24.667 -1.33301 -42.834 -4 -54.501 -8s-21 -11.667 -28 -23s-13.833 -29.666 -20.5 -54.999l-132 -496c-6 -25.333 -9 -41.666 -9 -48.999z" />
    <glyph glyph-name="L" unicode="L" horiz-adv-x="586" 
d="M510 128c-10.667 -37.333 -19.667 -79.999 -27 -127.999c-45.333 2 -121.666 3 -228.999 3c-128 0 -224.333 -1 -289 -3l5 20c24 1.33301 41.833 4 53.5 8s21.167 11.667 28.5 23s14.333 29.666 21 54.999l133 496c6 21.333 9 37.666 9 48.999
c0 14 -4.83301 23.333 -14.5 28s-27.167 7.66699 -52.5 9l5 20c28 -2 70.667 -3 128 -3c54 0 96.333 1 127 3l-5 -20c-24.667 -1.33301 -42.834 -4 -54.501 -8s-21.167 -11.667 -28.5 -23s-14.333 -29.666 -21 -54.999l-133 -496c-6 -20.667 -9 -37 -9 -49
c0 -14 5 -23.167 15 -27.5s27.667 -6.5 53 -6.5h73c41.333 0 74.5 5.83301 99.5 17.5s45.833 30.5 62.5 56.5s34 63.667 52 113h23c-4.66699 -12.667 -13 -40 -25 -82z" />
    <glyph glyph-name="M" unicode="M" horiz-adv-x="868" 
d="M808 705c51.333 0 93.001 0.999023 125.001 2.99902l-5 -20c-24.667 -1.33301 -42.834 -4 -54.501 -8s-21 -11.667 -28 -23s-13.833 -29.666 -20.5 -54.999l-132 -496c-5.33301 -22.667 -8 -38.667 -8 -48c0 -14.667 4.83301 -24.334 14.5 -29.001
s27.167 -7.66699 52.5 -9l-4 -20c-30.667 2 -72 3 -124 3c-58.667 0 -102 -1 -130 -3l4 20c24.667 1.33301 42.834 4 54.501 8s21 11.667 28 23s13.833 29.666 20.5 54.999l145 539l-415 -650h-22l-68 658l-142 -537c-5.33301 -22.667 -8 -39.334 -8 -50.001
c0 -16.667 5.5 -28.167 16.5 -34.5s30.5 -10.166 58.5 -11.499l-5 -20c-22.667 2 -56.334 3 -101.001 3c-39.333 0 -70.666 -1 -93.999 -3l5 20c23.333 1.33301 41.333 4.83301 54 10.5s22.667 14.834 30 27.501s14.333 32 21 58l130 486c5.33301 22.667 8 38.667 8 48
c0 14.667 -4.83301 24.334 -14.5 29.001s-27.167 7.66699 -52.5 9l5 20c21.333 -2 51 -3 89 -3c35.333 0 64.666 1 87.999 3l55 -593l376 590h48z" />
    <glyph glyph-name="N" unicode="N" horiz-adv-x="770" 
d="M858 740c9.33301 -9.33301 14 -21.6689 14 -37.002c0 -18 -5.33301 -34.5 -16 -49.5s-25 -22.5 -43 -22.5c-13.333 0 -23 3.83301 -29 11.5s-9 16.834 -9 27.501s3 21.667 9 33s13.667 21.333 23 30h-3c-32.667 -0.666992 -60 -17.667 -82 -51
c-29.333 -44 -60 -121.5 -92 -232.5s-68.333 -262.5 -109 -454.5h-22l-228 644c-32.667 -167.333 -63.5 -308.666 -92.5 -423.999s-56.833 -190.666 -83.5 -225.999c-14.667 -19.333 -30.167 -34.666 -46.5 -45.999s-36.5 -17 -60.5 -17c-40 0 -60 17.333 -60 52
c0 18 5.33301 34.333 16 49s25 22 43 22c13.333 0 23 -3.83301 29 -11.5s9 -16.834 9 -27.501s-3 -21.667 -9 -33s-13.667 -21.333 -23 -30h3c34 0.666992 61.667 18 83 52c24.667 39.333 50.334 109.666 77.001 210.999s55.667 232 87 392c4 19.333 6 34.333 6 45
c0 16 -5.33301 26.5 -16 31.5s-31 8.16699 -61 9.5l5 20c21.333 -2 51 -3 89 -3c30.667 0 57.667 1 81 3l189 -553c28.667 128 56.667 238.833 84 332.5s55.333 161.167 84 202.5c29.333 42.667 65.333 64 108 64c21.333 0 36.666 -4.66699 45.999 -14z" />
    <glyph glyph-name="O" unicode="O" horiz-adv-x="729" 
d="M107 455c35.333 77.333 84.833 141.168 148.5 191.501s135.5 75.5 215.5 75.5c74.667 0 132.667 -21 174 -63s62 -101.333 62 -178c0 -75.333 -17.833 -151.5 -53.5 -228.5s-85.5 -140.667 -149.5 -191s-135.667 -75.5 -215 -75.5c-74 0 -131.667 21 -173 63
s-62 101 -62 177c0 75.333 17.667 151.666 53 228.999zM316.5 632.002c-47 -48 -84.833 -110.167 -113.5 -186.5s-43 -153.833 -43 -232.5c0 -64.667 12.667 -115.667 38 -153s58.666 -56 99.999 -56c50 0 98.5 24 145.5 72s84.833 110.167 113.5 186.5s43 153.833 43 232.5
c0 64.667 -12.667 115.667 -38 153s-58.666 56 -99.999 56c-50 0 -98.5 -24 -145.5 -72z" />
    <glyph glyph-name="P" unicode="P" horiz-adv-x="589" 
d="M569.5 666.5c33.667 -27 50.499 -63.834 50.499 -110.501c0 -52 -15.833 -98.667 -47.5 -140s-76.167 -73.666 -133.5 -96.999s-122.666 -35 -195.999 -35h-30l-47 -178c-1.33301 -4.66699 -3.33301 -12.5 -6 -23.5s-4 -19.833 -4 -26.5c0 -12.667 5 -21.667 15 -27
s28 -8.33301 54 -9l-4 -20c-30.667 2 -72 3 -124 3c-58.667 0 -102 -1 -130 -3l4 20c24 1.33301 42 4 54 8s21.5 11.667 28.5 23s13.833 29.666 20.5 54.999l132 496c6 24 9 40 9 48c0 13.333 -5 22.833 -15 28.5s-27.667 8.83398 -53 9.50098l5 20
c26.667 -2 67.667 -3 123 -3c32 0 56 0.333008 72 1l74 1c65.333 0 114.833 -13.5 148.5 -40.5zM455.999 376.999c42 48.667 63 113.667 63 195c0 39.333 -10 68.5 -30 87.5s-52.333 28.5 -97 28.5c-20 0 -35.667 -2.5 -47 -7.5s-20.5 -13.5 -27.5 -25.5
s-13.5 -29.667 -19.5 -53l-79 -298h34c93.333 0 161 24.333 203 73z" />
    <glyph glyph-name="Q" unicode="Q" horiz-adv-x="781" 
d="M683 34.5c9.33301 -10.333 14.002 -24.165 14.002 -41.498c0 -29.333 -13 -58 -39 -86s-58.833 -50.833 -98.5 -68.5s-79.167 -26.5 -118.5 -26.5c-46.667 0 -88 11.833 -124 35.5s-74.667 57.167 -116 100.5c-56 -20 -103.333 -30 -142 -30
c-32.667 0 -58.167 6.5 -76.5 19.5s-27.5 31.167 -27.5 54.5c0 26 11.5 47.333 34.5 64s52.167 25 87.5 25c34 0 64 -7.16699 90 -21.5s58.333 -36.833 97 -67.5c66 34 128.333 79 187 135s106.167 117.5 142.5 184.5s54.5 132.833 54.5 197.5
c0 59.333 -14.833 106.666 -44.5 141.999s-71.834 53 -126.501 53c-49.333 0 -93.333 -14.333 -132 -43s-68.667 -65.667 -90 -111s-32 -92.333 -32 -141c0 -48 10.333 -83.833 31 -107.5s48.334 -35.5 83.001 -35.5c29.333 0 56 8 80 24s42.833 36.333 56.5 61
s20.5 49 20.5 73c0 18 -2.33301 31.333 -7 40c-6.66699 -14 -17 -25 -31 -33s-28.333 -12 -43 -12s-26.167 4.33301 -34.5 13s-12.5 20 -12.5 34c0 17.333 6.5 31.833 19.5 43.5s29.5 17.5 49.5 17.5c24 0 43.167 -9 57.5 -27s21.5 -41.667 21.5 -71
c0 -32.667 -9.16699 -63.334 -27.5 -92.001s-43.833 -51.5 -76.5 -68.5s-69.667 -25.5 -111 -25.5c-56 0 -99.667 16 -131 48s-47 74.333 -47 127c0 56.667 17.833 108.334 53.5 155.001s82.167 83.167 139.5 109.5s117.333 39.5 180 39.5c80 0 143 -18.333 189 -55
s69 -87.334 69 -152.001c0 -67.333 -23.167 -135.5 -69.5 -204.5s-105.833 -132.167 -178.5 -189.5s-147.667 -104.333 -225 -141c41.333 -32 80.166 -56.667 116.499 -74s79.166 -26 128.499 -26c33.333 0 61.833 5.16699 85.5 15.5s43.167 27.833 58.5 52.5
c-10 -4 -20.333 -6 -31 -6c-15.333 0 -27.333 4.5 -36 13.5s-13 20.5 -13 34.5c0 16 5.66699 30 17 42s25.333 18 42 18c14.667 0 26.667 -5.16699 36 -15.5zM190.002 -39.999c-32.667 34.667 -59.167 59.833 -79.5 75.5s-41.5 23.5 -63.5 23.5
c-19.333 0 -36.333 -6 -51 -18s-22 -27.667 -22 -47c0 -39.333 32 -59 96 -59c33.333 0 73.333 8.33301 120 25z" />
    <glyph glyph-name="R" unicode="R" horiz-adv-x="664" 
d="M592 121l22.999 -0.00195312l-4 -13c-12 -42 -27.167 -72.833 -45.5 -92.5s-42.833 -29.5 -73.5 -29.5c-31.333 0 -54.666 9.33301 -69.999 28s-22 41.334 -20 68.001l8 112c0.666992 8 1 18.667 1 32c0 28 -5 49.667 -15 65s-28.167 26.5 -54.5 33.5
s-64.5 10.833 -114.5 11.5l-61 -230c-6 -20 -9 -36.333 -9 -49c0 -13.333 4.83301 -22.666 14.5 -27.999s27.5 -8.33301 53.5 -9l-4 -20c-30.667 2 -72 3 -124 3c-58.667 0 -102 -1 -130 -3l4 20c24 1.33301 42 4 54 8s21.5 11.667 28.5 23s13.833 29.666 20.5 54.999
l132 496c6 22.667 9 38.334 9 47.001c0 14 -5 23.833 -15 29.5s-27.667 8.83398 -53 9.50098l5 20c26.667 -2 67.667 -3 123 -3c32 0 56 0.333008 72 1l74 1c65.333 0 114.833 -12.5 148.5 -37.5s50.5 -59.5 50.5 -103.5c0 -54.667 -23.667 -102 -71 -142
s-110.666 -66.667 -189.999 -80c8.66699 -0.666992 20.334 -2.33398 35.001 -5.00098c39.333 -7.33301 67.666 -19 84.999 -35s26 -41.667 26 -77c0 -8.66699 -0.333008 -15.334 -1 -20.001l-8 -102c-0.666992 -4.66699 -1 -11.667 -1 -21c0 -40.667 10.667 -61 32 -61
c11.333 0 21.666 6.83301 30.999 20.5s19 34.834 29 63.501zM232.999 355.998l30 0.000976562c90 0 155.167 19.667 195.5 59s60.5 91.666 60.5 156.999c0 39.333 -10 68.5 -30 87.5s-52.333 28.5 -97 28.5c-20 0 -35.667 -2.5 -47 -7.5s-20.5 -13.5 -27.5 -25.5
s-13.5 -29.667 -19.5 -53z" />
    <glyph glyph-name="S" unicode="S" horiz-adv-x="554" 
d="M517 511l-19.999 0.00390625c4 19.333 6 38.333 6 57c0 39.333 -11.667 71.666 -35 96.999s-59 38 -107 38c-42 0 -75.833 -10.667 -101.5 -32s-38.5 -53 -38.5 -95c0 -32.667 10.167 -62.667 30.5 -90s50.833 -59.666 91.5 -96.999c28.667 -26 51.667 -48.667 69 -68
s32 -40.666 44 -63.999s18 -48.333 18 -75c0 -43.333 -12.5 -79.833 -37.5 -109.5s-56.833 -51.5 -95.5 -65.5s-78.667 -21 -120 -21c-35.333 0 -63.5 4.33301 -84.5 13s-40.167 19.667 -57.5 33c-12.667 10 -24.667 15 -36 15c-8 0 -14.667 -4 -20 -12s-12.333 -22 -21 -42
h-20c10.667 25.333 21.167 55.833 31.5 91.5s22.5 85.167 36.5 148.5h20c-6 -31.333 -9 -56 -9 -74c0 -48.667 13.333 -86.334 40 -113.001s67.667 -40 123 -40c45.333 0 81.166 10.333 107.499 31s39.5 52 39.5 94c0 25.333 -5 48.666 -15 69.999
s-22.167 40.166 -36.5 56.499s-34.166 36.833 -59.499 61.5c-26.667 25.333 -47.834 47 -63.501 65s-29 39 -40 63s-16.5 50.667 -16.5 80c0 41.333 10.5 76.666 31.5 105.999s48.333 51.5 82 66.5s69.167 22.5 106.5 22.5c27.333 0 51 -3.33301 71 -10
s39.667 -17.334 59 -32.001c16 -12 27 -18 33 -18c5.33301 0 10.5 4.16699 15.5 12.5s10.833 21.833 17.5 40.5h20c-24 -60.667 -43.667 -128.667 -59 -204z" />
    <glyph glyph-name="T" unicode="T" horiz-adv-x="659" 
d="M801.5 803.5c7.66699 -9 11.5 -20.501 11.5 -34.501c0 -14.667 -4.33301 -28.167 -13 -40.5s-20 -22.833 -34 -31.5c-35.333 -22 -88 -33 -158 -33c-29.333 0 -63.333 2.33301 -102 7l-148 -555c-6 -20.667 -9 -37.667 -9 -51c0 -16.667 6.16699 -28.167 18.5 -34.5
s34.166 -9.83301 65.499 -10.5l-4 -20c-34.667 2 -84.334 3 -149.001 3c-65.333 0 -114 -1 -146 -3l4 20c28 1.33301 49.833 4.83301 65.5 10.5s27.834 15 36.501 28s17 32.167 25 57.5l151 567c-54 7.33301 -97 11 -129 11c-58 0 -95.333 -5.66699 -112 -17
c5.33301 -7.33301 9.66602 -16.333 12.999 -27s5 -21 5 -31c0 -15.333 -4.33301 -28.833 -13 -40.5s-21 -17.5 -37 -17.5c-14 0 -24.833 4.5 -32.5 13.5s-11.5 21.167 -11.5 36.5c0 34.667 17.667 60.667 53 78c31.333 15.333 76 23 134 23c26.667 0 52 -1.16699 76 -3.5
s54.333 -5.83301 91 -10.5c34.667 -4.66699 63.834 -8.16699 87.501 -10.5s48.5 -3.5 74.5 -3.5c30 0 55 1.66699 75 5s38 9 54 17c-16.667 16.667 -25 35.334 -25 56.001c0 14.667 4.16699 27.5 12.5 38.5s20.5 16.5 36.5 16.5c14.667 0 25.834 -4.5 33.501 -13.5z" />
    <glyph glyph-name="U" unicode="U" horiz-adv-x="682" 
d="M638 636c0 18.667 -5.66309 31.667 -16.9961 39s-30.333 11.666 -57 12.999l5 20c23.333 -2 57 -3 101 -3c39.333 0 70.666 1 93.999 3l-5 -20c-23.333 -1.33301 -41.5 -4.83301 -54.5 -10.5s-23.333 -15 -31 -28s-14.5 -32.167 -20.5 -57.5l-78 -301
c-24 -92 -56.667 -162.667 -98 -212c-24.667 -28.667 -54.834 -51.334 -90.501 -68.001s-73.834 -25 -114.501 -25c-71.333 0 -122.666 18 -153.999 54c-12 14 -20.833 29.167 -26.5 45.5s-8.5 35.166 -8.5 56.499c0 36 8.33301 84.667 25 146l83 314
c5.33301 22.667 8 38.667 8 48c0 14.667 -4.83301 24.334 -14.5 29.001s-27.167 7.66699 -52.5 9l6 20c26.667 -2 69.667 -3 129 -3c51.333 0 93 1 125 3l-6 -20c-24.667 -1.33301 -42.834 -4 -54.501 -8s-21 -11.667 -28 -23s-13.833 -29.666 -20.5 -54.999l-88 -331
c-14.667 -56.667 -22 -101.667 -22 -135c0 -36.667 9.16699 -65 27.5 -85s48.5 -30 90.5 -30c70 0 125.167 22.667 165.5 68s71.166 109 92.499 191l82 312c4.66699 16.667 7 31.334 7 44.001z" />
    <glyph glyph-name="V" unicode="V" horiz-adv-x="632" 
d="M742 708l-5 -20.002c-35.333 -7.33301 -69 -36.333 -101 -87l-394 -606h-15l-79 629c-2.66699 22 -9.16699 38 -19.5 48s-21.166 15.333 -32.499 16l5 20c26 -2 62 -3 108 -3c51.333 0 91.333 1 120 3l-5 -20c-21.333 -1.33301 -37.5 -3.33301 -48.5 -6
s-19.333 -8 -25 -16s-8.5 -20.333 -8.5 -37c0 -4.66699 0.666992 -13 2 -25l57 -483l277 425c28.667 44.667 43 77.667 43 99c0 14.667 -6.16699 25.334 -18.5 32.001s-30.833 10.334 -55.5 11.001l5 20c36.667 -2 74.667 -3 114 -3c29.333 0 54.666 1 75.999 3z" />
    <glyph glyph-name="W" unicode="W" horiz-adv-x="902" 
d="M994 708l-5 -19.9971c-39.333 -8.66699 -71 -37.667 -95 -87l-299 -606h-16l-72 456l-271 -456h-16l-79 629c-5.33301 41.333 -23.666 62.666 -54.999 63.999l4 20c26.667 -2 59.667 -3 99 -3c48 0 84 1 108 3l-4 -20c-20.667 -1.33301 -35.5 -6 -44.5 -14
s-13.5 -22.667 -13.5 -44c0 -4 0.666992 -12.667 2 -26l56 -477l209 355l-22 142c-6.66699 41.333 -21.667 62.666 -45 63.999l4 20c24 -2 53.667 -3 89 -3c57.333 0 100 1 128 3l-4 -20c-30 -1.33301 -50.667 -5.33301 -62 -12s-17 -20 -17 -40c0 -9.33301 1 -20 3 -32
l72 -455l195 397c22 45.333 33 77.666 33 96.999c0 16.667 -6.16699 28.167 -18.5 34.5s-31.833 9.83301 -58.5 10.5l5 20c37.333 -2 75.333 -3 114 -3c29.333 0 54.666 1 75.999 3z" />
    <glyph glyph-name="X" unicode="X" horiz-adv-x="699" 
d="M735 708c9.33301 -9.33301 13.998 -21.665 13.998 -36.998c0 -16.667 -5 -32.834 -15 -48.501s-24.667 -23.5 -44 -23.5c-12.667 0 -22.167 3.66699 -28.5 11s-9.5 16.333 -9.5 27c0 10 3 21.167 9 33.5s13.667 22.5 23 30.5h-3c-23.333 0 -44.666 -7 -63.999 -21
c-30 -22 -63.5 -58.833 -100.5 -110.5s-72.5 -114.167 -106.5 -187.5l26 -227c4 -35.333 12 -63.166 24 -83.499s30.333 -30.5 55 -30.5c19.333 0 35 6 47 18s23 32 33 60l17 51h20l-26 -77c-12.667 -36.667 -29 -63.667 -49 -81s-44.333 -26 -73 -26
c-43.333 0 -74.666 14.5 -93.999 43.5s-31.666 66.5 -36.999 112.5l-18 157c-26 -55.333 -59.5 -109 -100.5 -161s-79.833 -91 -116.5 -117c-30.667 -23.333 -61.334 -35 -92.001 -35c-20.667 0 -35.667 4.66699 -45 14s-14 21.666 -14 36.999c0 16.667 5 32.834 15 48.501
s24.667 23.5 44 23.5c13.333 0 23 -3.66699 29 -11s9 -16.333 9 -27c0 -10 -3 -21.167 -9 -33.5s-13.667 -22.5 -23 -30.5h4c22.667 0.666992 43.667 7.66699 63 21c34.667 22.667 72.834 60.167 114.501 112.5s80.834 116.166 117.501 191.499l-26 221
c-4 35.333 -12 63.166 -24 83.499s-30.333 30.5 -55 30.5c-19.333 0 -35 -6 -47 -18s-23 -32 -33 -60l-17 -51h-20l26 77c12.667 36.667 29 63.667 49 81s44.333 26 73 26c43.333 0 74.666 -14.5 93.999 -43.5s31.666 -66.5 36.999 -112.5l18 -155
c26 56.667 56.667 110.5 92 161.5s68.666 89.167 99.999 114.5c30.667 23.333 61.334 35 92.001 35c20.667 0 35.667 -4.66699 45 -14z" />
    <glyph glyph-name="Y" unicode="Y" horiz-adv-x="670" 
d="M742.5 707c9 -10 13.499 -22.6689 13.499 -38.002c0 -16.667 -5 -32.5 -15 -47.5s-24.667 -22.5 -44 -22.5c-13.333 0 -23 3.83301 -29 11.5s-9 17.167 -9 28.5c0 10.667 3 21.5 9 32.5s13.667 20.833 23 29.5h-3c-18 -0.666992 -36.333 -8 -55 -22
c-34.667 -25.333 -72.167 -66.166 -112.5 -122.499s-79.166 -129.166 -116.499 -218.499l-58 -232c-5.33301 -22.667 -8 -38.667 -8 -48c0 -14.667 4.83301 -24.334 14.5 -29.001s27.167 -7.66699 52.5 -9l-5 -20c-30 2 -71.333 3 -124 3c-58 0 -101.667 -1 -131 -3l5 20
c24 1.33301 42 4 54 8s21.667 11.833 29 23.5s14 29.834 20 54.501l59 233c-10.667 94.667 -25 173 -43 235s-42.667 93 -74 93c-11.333 0 -20.833 -3.66699 -28.5 -11s-14.167 -19.333 -19.5 -36l-28 -82h-22l33 97c10.667 31.333 22.834 53.666 36.501 66.999
s34.167 20 61.5 20c35.333 0 63.833 -14.333 85.5 -43s38.5 -68.667 50.5 -120s22.333 -117.666 31 -198.999c24.667 62 53 118 85 168s66 93 102 129c43.333 43.333 82.666 65 117.999 65c19.333 0 33.5 -5 42.5 -15z" />
    <glyph glyph-name="Z" unicode="Z" horiz-adv-x="652" 
d="M719 700c0 -9.33301 -6.16699 -19.5 -18.5 -30.5s-31.166 -21.5 -56.499 -31.5l-277 -272h152l-8 -20h-164l-283 -278c61.333 36 119 54 173 54c18.667 0 35.667 -2.33301 51 -7s33.666 -11.667 54.999 -21c22.667 -9.33301 41.5 -16.333 56.5 -21s32.167 -7 51.5 -7
c22 0 38.833 5.83301 50.5 17.5s17.5 27.834 17.5 48.501c0 39.333 -24 63.666 -72 72.999l4 20c30 -5.33301 55.167 -17.166 75.5 -35.499s30.5 -45.166 30.5 -80.499c0 -36 -11 -65.5 -33 -88.5s-51.333 -34.5 -88 -34.5c-22 0 -41.333 4.5 -58 13.5s-36 22.5 -58 40.5
c-21.333 17.333 -40.333 30.5 -57 39.5s-35.334 13.5 -56.001 13.5c-25.333 0 -48.333 -3.5 -69 -10.5s-47 -18.5 -79 -34.5c-12 -17.333 -24.833 -31.333 -38.5 -42s-25.5 -16 -35.5 -16c-6 0 -10.667 1.66699 -14 5c-4 2.66699 -6 7 -6 13
c0 9.33301 6.16699 19.5 18.5 30.5s31.166 21.5 56.499 31.5l281 276h-162l7 20h175l279 274c-61.333 -36 -119 -54 -173 -54c-18.667 0 -35.667 2.33301 -51 7s-33.666 11.667 -54.999 21c-22.667 9.33301 -41.5 16.333 -56.5 21s-32.167 7 -51.5 7
c-22 0 -38.833 -5.83301 -50.5 -17.5s-17.5 -27.834 -17.5 -48.501c0 -39.333 24 -63.666 72 -72.999l-4 -20c-30 5.33301 -55.167 17.166 -75.5 35.499s-30.5 45.166 -30.5 80.499c0 36 11 65.5 33 88.5s51.333 34.5 88 34.5c22 0 41.333 -4.5 58 -13.5s36 -22.5 58 -40.5
c21.333 -17.333 40.333 -30.5 57 -39.5s35.334 -13.5 56.001 -13.5c25.333 0 48.333 3.5 69 10.5s47 18.5 79 34.5c12 17.333 24.833 31.333 38.5 42s25.5 16 35.5 16c6 0 10.667 -1.66699 14 -5c4 -2.66699 6 -7 6 -13z" />
    <glyph glyph-name="bracketleft" unicode="[" horiz-adv-x="300" 
d="M213 772h170l-4 -19h-81l-229 -915h81l-4 -19h-170z" />
    <glyph glyph-name="backslash" unicode="\" horiz-adv-x="492" 
d="M391 -14h-33l-226 736h31z" />
    <glyph glyph-name="bracketright" unicode="]" horiz-adv-x="300" 
d="M87 -181h-170l4 19h81l229 915h-81l4 19h170z" />
    <glyph glyph-name="asciicircum" unicode="^" horiz-adv-x="535" 
d="M197 376.5c-36 -21.667 -72 -39.834 -108 -54.501l-4 14c48 20.667 93.167 48.167 135.5 82.5s76.5 70.833 102.5 109.5h18c5.33301 -38.667 20 -75.167 44 -109.5s54.667 -61.833 92 -82.5l-12 -14c-36 14.667 -70.167 32.834 -102.5 54.501s-56.833 43.5 -73.5 65.5
c-25.333 -22 -56 -43.833 -92 -65.5z" />
    <glyph glyph-name="underscore" unicode="_" horiz-adv-x="744" 
d="M561 -120l-11 -40h-600l10 40h601z" />
    <glyph glyph-name="grave" unicode="`" horiz-adv-x="320" 
d="M252 717l-22.498 27.501c-11.667 14.333 -21.167 27.5 -28.5 39.5c-6.66699 11.333 -10 22 -10 32c0 13.333 5.33301 22.666 16 27.999c4.66699 2 10 3 16 3c16.667 0 31 -10.333 43 -31c6.66699 -11.333 17.667 -36.333 33 -75c17.333 -46 36.666 -91.333 57.999 -136
l-13 -6c-24.667 34 -55.334 73.333 -92.001 118z" />
    <glyph glyph-name="a" unicode="a" horiz-adv-x="523" 
d="M455 163l18.998 0.000976562l-25 -73c-13.333 -36.667 -30.333 -63.167 -51 -79.5s-42 -24.5 -64 -24.5c-12.667 0 -23.667 2.33301 -33 7s-16.666 11 -21.999 19c-6 10 -9 21.667 -9 35c0 14 2.33301 29.667 7 47l9 33l18 72c-32 -74.667 -64.5 -128.834 -97.5 -162.501
s-67.5 -50.5 -103.5 -50.5c-30.667 0 -54 11 -70 33s-24 51.333 -24 88c0 54 14.333 114.333 43 181s66 123.334 112 170.001s92.667 70 140 70c18 0 32.667 -6.66699 44 -20s18 -32 20 -56l16 62c36.667 1.33301 67.334 6 92.001 14l-125 -442l-4 -15.5
c-2 -7.66699 -3 -14.834 -3 -21.501c0 -16.667 7.33301 -25 22 -25c29.333 0 55 34 77 102zM198.998 61.001c26 28.667 51.5 66.834 76.5 114.501s45.5 98.5 61.5 152.5l18 71c0.666992 5.33301 1 12.666 1 21.999c0 27.333 -4.83301 48.833 -14.5 64.5
s-23.167 23.5 -40.5 23.5c-28.667 0 -59 -22.167 -91 -66.5s-58.833 -99 -80.5 -164s-32.5 -126.167 -32.5 -183.5c0 -27.333 3 -47 9 -59s14.667 -18 26 -18c18.667 0 41 14.333 67 43z" />
    <glyph glyph-name="b" unicode="b" horiz-adv-x="504" 
d="M438.5 492.5c18.333 -23.667 27.501 -58.833 27.501 -105.5c0 -54 -12 -112.5 -36 -175.5s-58.333 -116.333 -103 -160s-96 -65.5 -154 -65.5c-20 0 -37.5 5.83301 -52.5 17.5s-25.5 28.167 -31.5 49.5l-85 -69l-15 7c8 16.667 14.333 36 19 58l175 618
c2.66699 8.66699 4 17.667 4 27c0 13.333 -5 23.166 -15 29.499s-27.333 9.5 -52 9.5l5 21c35.333 0.666992 67 4.33398 95 11.001s55 16.667 81 30l-129 -472c31.333 72 62.166 124.167 92.499 156.5s62.833 48.5 97.5 48.5c32.667 0 58.167 -11.833 76.5 -35.5z
M273.001 75.501c32 44.333 57.834 98.167 77.501 161.5s29.5 120.666 29.5 171.999c0 28.667 -4.16699 50.334 -12.5 65.001s-19.833 22 -34.5 22c-26.667 0 -58.834 -29.333 -96.501 -88s-71.5 -131 -101.5 -217l-34 -127c8 -20 17.833 -34.167 29.5 -42.5
s25.5 -12.5 41.5 -12.5c35.333 0 69 22.167 101 66.5z" />
    <glyph glyph-name="c" unicode="c" horiz-adv-x="432" 
d="M223.5 454c-33 -36 -60.002 -83.667 -81.002 -143s-31.5 -121.666 -31.5 -186.999c0 -32.667 6.16699 -56.834 18.5 -72.501s29.5 -23.5 51.5 -23.5c54.667 0 104.667 33.333 150 100l20 -8c-21.333 -36.667 -50.166 -68.167 -86.499 -94.5s-74.5 -39.5 -114.5 -39.5
c-40.667 0 -72.834 12.5 -96.501 37.5s-35.5 61.5 -35.5 109.5c0 54 12.667 112 38 174s61 114.333 107 157s98.333 64 157 64c30.667 0 56.334 -7.66699 77.001 -23s31 -36 31 -62c0 -20.667 -6.66699 -39.167 -20 -55.5s-30.333 -24.5 -51 -24.5
c-13.333 0 -23.5 3.66699 -30.5 11s-10.5 16.666 -10.5 27.999c0 18.667 7.33301 34.834 22 48.501s32.334 22.5 53.001 26.5c-14 20.667 -36.667 31 -68 31c-33.333 0 -66.5 -18 -99.5 -54z" />
    <glyph glyph-name="d" unicode="d" horiz-adv-x="542" 
d="M472 162l19.0029 0.00195312l-23 -73c-11.333 -36.667 -27.666 -63 -48.999 -79s-43.666 -24 -66.999 -24c-20.667 0 -36.334 5.33301 -47.001 16s-16 26 -16 46c0 18.667 4.33301 44.667 13 78l14 51c-31.333 -67.333 -63.333 -116 -96 -146s-67.334 -45 -104.001 -45
c-32.667 0 -58.167 11 -76.5 33s-27.5 55 -27.5 99c0 55.333 14.5 115.333 43.5 180s68.333 119.167 118 163.5s103.5 66.5 161.5 66.5c13.333 0 25.666 -4.33301 36.999 -13s19.333 -20.334 24 -35.001l50 187c2.66699 8.66699 4 17.667 4 27
c0 13.333 -5.16699 23.166 -15.5 29.499s-27.833 9.5 -52.5 9.5l6 21c35.333 0.666992 67.166 4.33398 95.499 11.001s55.5 16.667 81.5 30l-196 -710c-4 -16 -6 -27.333 -6 -34c0 -18.667 8 -28 24 -28c13.333 0 25.666 7.66699 36.999 23s23.333 41.666 36 78.999z
M214.003 60.002c26 28 51.667 65.501 77 112.501s46.333 97.167 63 150.5l35 131c-4 17.333 -10.833 30.166 -20.5 38.499s-20.5 12.5 -32.5 12.5c-40.667 0 -79 -21.5 -115 -64.5s-65 -96.167 -87 -159.5s-33 -122 -33 -176c0 -58 14.667 -87 44 -87c20 0 43 14 69 42z" />
    <glyph glyph-name="e" unicode="e" horiz-adv-x="429" 
d="M325 320c-60.667 -40.667 -130.002 -73.6709 -208.002 -99.0039c-7.33301 -33.333 -11 -65.666 -11 -96.999c0 -64 23 -96 69 -96c57.333 0 108.666 33.333 153.999 100l16 -8c-21.333 -36.667 -50.166 -68.167 -86.499 -94.5s-74.5 -39.5 -114.5 -39.5
c-41.333 0 -73.666 12 -96.999 36s-35 59 -35 105c0 50.667 14.833 107.834 44.5 171.501s69.834 117.834 120.501 162.501s105.667 67 165 67c21.333 0 39 -5.66699 53 -17s21 -27.666 21 -48.999c0 -54 -30.333 -101.333 -91 -142zM248.498 471.496
c-26.333 -25 -51.001 -58.167 -74.001 -99.5s-40.5 -85.333 -52.5 -132c63.333 22 108.666 43.333 135.999 64c24.667 19.333 43.834 42.833 57.501 70.5s20.5 57.5 20.5 89.5c0 18 -1.33301 30 -4 36s-6.66699 9 -12 9c-21.333 0 -45.166 -12.5 -71.499 -37.5z" />
    <glyph glyph-name="f" unicode="f" horiz-adv-x="321" 
d="M459.5 762c17 -13.333 25.501 -30.332 25.501 -50.999c0 -17.333 -6.5 -33.166 -19.5 -47.499s-28.833 -21.5 -47.5 -21.5c-12.667 0 -22.667 3 -30 9s-10.666 14.333 -9.99902 25c0 16 5.16699 29.833 15.5 41.5s24.166 20.167 41.499 25.5c0 6 -4.5 11.5 -13.5 16.5
s-19.833 7.5 -32.5 7.5c-20 0 -39.333 -8.66699 -58 -26c-14 -12.667 -25.667 -32.834 -35 -60.501s-21 -68.5 -35 -122.5l-11 -43v-1h118l-6 -20h-118l-179 -668c-36 -1.33301 -66 -6 -90 -14l182 682h-90l6 20h90v1c14.667 54.667 29.834 99.167 45.501 133.5
s34.5 62.166 56.5 83.499c15.333 15.333 34.166 27.5 56.499 36.5s45.166 13.5 68.499 13.5c29.333 0 52.5 -6.66699 69.5 -20z" />
    <glyph glyph-name="g" unicode="g" horiz-adv-x="449" 
d="M485.5 554c10.333 -10 15.501 -25.0029 15.501 -45.0029c0 -17.333 -4.33301 -30.666 -13 -39.999s-19 -14 -31 -14c-12.667 0 -23.834 4.33301 -33.501 13s-14.5 21.334 -14.5 38.001c0 12 3 26 9 42c-26 -11.333 -45 -25.333 -57 -42c28 -19.333 42 -49.333 42 -90
c0 -29.333 -7.16699 -58 -21.5 -86s-34.666 -52.167 -60.999 -72.5s-56.833 -33.833 -91.5 -40.5l-33 -18c-31.333 -16.667 -54.166 -30 -68.499 -40s-21.5 -19.667 -21.5 -29c0 -7.33301 4.66699 -13.666 14 -18.999s24.666 -10.666 45.999 -15.999l73 -19
c38 -10 66.333 -21 85 -33s28 -30 28 -54c0 -25.333 -10.5 -52.333 -31.5 -81s-53.333 -53 -97 -73s-97.5 -30 -161.5 -30c-51.333 0 -90.5 6.66699 -117.5 20s-40.5 31.666 -40.5 54.999c0 22.667 12.333 45.5 37 68.5s59.667 41.167 105 54.5l7 -15
c-43.333 -22.667 -65 -53 -65 -91c0 -25.333 8.83301 -44.166 26.5 -56.499s41.167 -18.5 70.5 -18.5s59.666 6 90.999 18s57.166 27.833 77.499 47.5s30.5 40.167 30.5 61.5c0 9.33301 -2.66699 15.666 -8 18.999s-16.333 7 -33 11l-153 39c-36 9.33301 -54 29.333 -54 60
c0 20.667 10.833 41.167 32.5 61.5s62.5 44.833 122.5 73.5h-7c-38.667 0 -70 9.16699 -94 27.5s-36 45.5 -36 81.5c0 28 7.33301 58 22 90s38.334 59.333 71.001 82s74 34 124 34c28.667 0 52.667 -4.33301 72 -13c12.667 16 28 29 46 39s36 15 54 15s32.167 -5 42.5 -15z
M267.001 266.497c18 23.667 30.333 51.167 37 82.5s10 60.333 10 87c0 24.667 -3.33301 43.167 -10 55.5s-19 18.5 -37 18.5c-32 0 -57.5 -14.167 -76.5 -42.5s-32 -59.5 -39 -93.5s-10.5 -61.667 -10.5 -83c0 -40 17.667 -60 53 -60c30.667 0 55 11.833 73 35.5z" />
    <glyph glyph-name="h" unicode="h" horiz-adv-x="536" 
d="M486 162l-24.9961 -73.001c-24 -68.667 -64.333 -103 -121 -103c-46.667 0 -70 20.667 -70 62c0 20 5.33301 46 16 78l95 286c6.66699 18.667 10 35.334 10 50.001c0 22.667 -10.667 34 -32 34c-24.667 0 -51.167 -15.5 -79.5 -46.5s-56.833 -74.5 -85.5 -130.5
s-55.334 -121 -80.001 -195l-36 -124h-87l198 667c3.33301 11.333 5 20.333 5 27c0 13.333 -5.33301 23.166 -16 29.499s-28.334 9.5 -53.001 9.5l6 21c69.333 0.666992 129.333 14.334 180 41.001l-145 -496c36 81.333 72 139.833 108 175.5s75.333 53.5 118 53.5
c54 0 81 -25.333 81 -76c0 -21.333 -5 -46.333 -15 -75l-97 -292c-5.33301 -16 -8 -28.667 -8 -38c0 -16 8 -24 24 -24c13.333 0 26.166 7.5 38.499 22.5s25.166 41.5 38.499 79.5l13 37h19z" />
    <glyph glyph-name="i" unicode="i" horiz-adv-x="302" 
d="M210.5 736.5c15 15.667 32.167 23.499 51.5 23.499c15.333 0 27.666 -5 36.999 -15s14 -22.333 14 -37c0 -20 -7.66699 -37.667 -23 -53s-32.666 -23 -51.999 -23c-14.667 0 -26.667 4.83301 -36 14.5s-14 21.834 -14 36.501c0 20 7.5 37.833 22.5 53.5zM166 465.999
c0 16.667 -7.33203 25.002 -21.999 25.002c-15.333 0 -29 -8 -41 -24s-24.667 -42 -38 -78l-14 -37h-19l26 73c13.333 38 31.166 64.667 53.499 80s45.833 23 70.5 23c44 0 66 -21 66 -63c0 -22 -5.33301 -47.667 -16 -77l-107 -303c-5.33301 -16 -8 -28.333 -8 -37
c0 -16.667 8 -25 24 -25c14 0 27 7.66699 39 23s25 41.666 39 78.999l14 37h19l-26 -73c-13.333 -36.667 -30.833 -63 -52.5 -79s-45.167 -24 -70.5 -24c-46.667 0 -70 20.333 -70 61c0 19.333 6 45.666 18 78.999l107 303c5.33301 16 8 28.333 8 37z" />
    <glyph glyph-name="j" unicode="j" horiz-adv-x="276" 
d="M-133 -173c41.333 2 76.666 19.6689 105.999 53.002s51.333 79.666 66 138.999l115 410c4.66699 16 7 29 7 39c0 15.333 -7.33301 23 -22 23c-13.333 0 -26 -7.83301 -38 -23.5s-24.667 -41.834 -38 -78.501l-13 -37h-19l24 73c22.667 68.667 63.667 103 123 103
c44.667 0 67 -20.333 67 -61c0 -17.333 -5 -43.666 -15 -78.999l-77 -273c-27.333 -110.667 -71.666 -191.334 -132.999 -242.001c-22.667 -18.667 -47.5 -33.5 -74.5 -44.5s-54.5 -16.5 -82.5 -16.5zM208.5 740.502c14.333 16.333 31.835 24.5 52.502 24.5
c15.333 0 27.666 -4.83301 36.999 -14.5s14 -21.834 14 -36.501c0 -18.667 -7.33301 -36.167 -22 -52.5s-32.334 -24.5 -53.001 -24.5c-14.667 0 -26.667 4.83301 -36 14.5s-14 21.834 -14 36.501c0 18.667 7.16699 36.167 21.5 52.5z" />
    <glyph glyph-name="k" unicode="k" horiz-adv-x="515" 
d="M476.5 513c9.66699 -10 14.499 -23.002 14.499 -39.002c0 -14.667 -4.83301 -29.834 -14.5 -45.501s-24.167 -23.5 -43.5 -23.5c-13.333 0 -23.166 3.83301 -29.499 11.5s-9.5 17.167 -9.5 28.5c0 9.33301 3 19.833 9 31.5s13.667 21.834 23 30.501h-2
c-7.33301 0 -13.666 -1.16699 -18.999 -3.5s-11.333 -5.83301 -18 -10.5c-9.33301 -7.33301 -17.5 -16.833 -24.5 -28.5s-14.833 -27.5 -23.5 -47.5c-16.667 -35.333 -33.5 -63.333 -50.5 -84s-41.5 -34.667 -73.5 -42c42 -2 76.5 -10.833 103.5 -26.5
s40.5 -40.167 40.5 -73.5c0 -8 -1 -17 -3 -27l-20 -100c-1.33301 -5.33301 -2 -12 -2 -20c0 -7.33301 1.66699 -12.666 5 -15.999s9 -5 17 -5c13.333 0 25.833 7.83301 37.5 23.5s23.834 41.834 36.501 78.501l12 37h19l-24 -73c-22 -68.667 -61.667 -103 -119 -103
c-19.333 0 -35 5.33301 -47 16s-18 27 -18 49c0 10 1.33301 20 4 30l18 86c3.33301 15.333 5 27.666 5 36.999c0 25.333 -9 44.333 -27 57s-48.333 20.667 -91 24l-84 -285h-87l198 667c3.33301 11.333 5 20.333 5 27c0 13.333 -5.33301 23.166 -16 29.499
s-28.334 9.5 -53.001 9.5l6 21c69.333 0.666992 129.333 14.334 180 41.001l-146 -498c31.333 2.66699 56.666 10 75.999 22s34.166 26 44.499 42s21.5 37 33.5 63c8.66699 20 16.834 36.333 24.501 49s17.167 23.334 28.5 32.001c20.667 15.333 40.667 23 60 23
c20 0 34.833 -5 44.5 -15z" />
    <glyph glyph-name="l" unicode="l" horiz-adv-x="277" 
d="M96 50c0 -18 7.66797 -27 23.001 -27c13.333 0 25.833 7.66699 37.5 23s24.167 41.666 37.5 78.999l13 37h19l-25 -73c-23.333 -68.667 -63.333 -103 -120 -103c-46 0 -69 21.667 -69 65c0 16.667 4.66699 41.667 14 75l163 541c3.33301 12 5 21.333 5 28
c0 13.333 -5.16699 23 -15.5 29s-27.833 9 -52.5 9l7 21c35.333 0.666992 67.166 4.33398 95.499 11.001s55.833 16.667 82.5 30l-209 -710c-4 -14 -6 -25.667 -6 -35z" />
    <glyph glyph-name="m" unicode="m" horiz-adv-x="809" 
d="M759 162l-24.9961 -73c-24 -68.667 -64.333 -103 -121 -103c-30 0 -50.667 9 -62 27c-6 10 -9 21.667 -9 35c0 18 5.66699 44 17 78l95 286c6.66699 20 10 37.667 10 53c0 20.667 -7.33301 31 -22 31c-38 0 -80.833 -43.5 -128.5 -130.5
s-93.834 -202.167 -138.501 -345.5l1 6l-7 -26h-90l125 412c6.66699 20 10 37 10 51c0 22 -9.33301 33 -28 33c-24.667 0 -52.334 -19.5 -83.001 -58.5s-60.834 -92.167 -90.501 -159.5s-55.5 -141.666 -77.5 -222.999l-14 -55h-87l120 429c4.66699 18.667 7 31 7 37
c0 16.667 -7 25 -21 25c-14.667 0 -28.167 -7.83301 -40.5 -23.5s-24.833 -41.834 -37.5 -78.501l-13 -37h-19l25 73c24 68.667 64.333 103 121 103c38.667 0 58 -20 58 -60c0 -17.333 -5 -44 -15 -80l-32 -127c40 97.333 77.667 166.166 113 206.499s75 60.5 119 60.5
s66 -23.333 66 -70c0 -20.667 -4.66699 -47.667 -14 -81l-36 -134c28 70 54.333 125.5 79 166.5s49.834 71 75.501 90s54.167 28.5 85.5 28.5c46.667 0 70 -25 70 -75c0 -21.333 -4.66699 -46.666 -14 -75.999l-97 -292c-5.33301 -17.333 -8 -30 -8 -38c0 -16 8 -24 24 -24
c13.333 0 26.166 7.5 38.499 22.5s25.166 41.5 38.499 79.5l13 37h19z" />
    <glyph glyph-name="n" unicode="n" horiz-adv-x="580" 
d="M530 162l-25 -72.9971c-24 -68.667 -64.333 -103 -121 -103c-30 0 -51 9.66699 -63 29c-5.33301 8 -8 19 -8 33c0 18 5.66699 44 17 78l95 286c6.66699 22 10 38.333 10 49c0 23.333 -10.667 35 -32 35c-25.333 0 -54.166 -18.5 -86.499 -55.5
s-64.166 -87.833 -95.499 -152.5s-58.333 -136.334 -81 -215.001l-18 -73h-87l120 429c4.66699 17.333 7 29.666 7 36.999c0 16.667 -7.33301 25 -22 25s-27.667 -7.33301 -39 -22s-24 -41.334 -38 -80.001l-13 -37h-19l25 73c24 68.667 63.667 103 119 103
c21.333 0 36.5 -5.16699 45.5 -15.5s13.5 -24.833 13.5 -43.5c0 -18 -4.66699 -45 -14 -81l-35 -137c42.667 100.667 83.5 172 122.5 214s81.833 63 128.5 63c54 0 81 -25 81 -75c0 -22 -5 -47.333 -15 -76l-97 -292c-5.33301 -16 -8 -28.667 -8 -38c0 -16 8 -24 24 -24
c13.333 0 26.166 7.5 38.499 22.5s25.166 41.5 38.499 79.5l13 37h19z" />
    <glyph glyph-name="o" unicode="o" horiz-adv-x="488" 
d="M56 312.5c23.333 60.333 57 111.333 101 153s95 62.5 153 62.5c42.667 0 76.167 -13.167 100.5 -39.5s36.5 -65.5 36.5 -117.5c0 -52.667 -11.667 -109.167 -35 -169.5s-57 -111.333 -101 -153s-95 -62.5 -153 -62.5c-42.667 0 -76.167 13.167 -100.5 39.5
s-36.5 65.5 -36.5 117.5c0 52.667 11.667 109.167 35 169.5zM207.5 443c-30.333 -43.333 -54.666 -97.5 -72.999 -162.5s-27.5 -127.5 -27.5 -187.5c0 -30 4.66699 -52 14 -66s23.666 -21 42.999 -21c34 0 66.167 21.667 96.5 65s54.666 97.5 72.999 162.5
s27.5 127.5 27.5 187.5c0 30 -4.66699 52 -14 66s-23.666 21 -42.999 21c-34 0 -66.167 -21.667 -96.5 -65z" />
    <glyph glyph-name="p" unicode="p" horiz-adv-x="551" 
d="M485.5 492.5c18.333 -23.667 27.5 -58.834 27.5 -105.501c0 -54 -12 -112.5 -36 -175.5s-58.333 -116.333 -103 -160s-96 -65.5 -154 -65.5c-18 0 -34.333 5.16699 -49 15.5s-25.334 24.5 -32.001 42.5l-38 -132c-2.66699 -8 -4 -16 -4 -24
c0 -17.333 7.33301 -29.666 22 -36.999s35.667 -11 63 -11l-6 -21l-21 1c-58 2 -95.667 3 -113 3c-18 0 -55 -1.33301 -111 -4l6 21c24 0 41.333 4.33301 52 13s19.334 25 26.001 49l187 667c-20 -44.667 -43.333 -84 -70 -118s-59.667 -69.667 -99 -107l-11 13
c31.333 30.667 57.5 58 78.5 82s42 53.167 63 87.5s41.833 76.5 62.5 126.5l4 14c36 1.33301 66.333 6 91 14l-104 -364c31.333 74 62.5 127.667 93.5 161s63.833 50 98.5 50c32.667 0 58.167 -11.833 76.5 -35.5zM320 75.5c32 44.333 57.832 98.165 77.499 161.498
s29.5 120.666 29.5 171.999c0 28.667 -4.16699 50.334 -12.5 65.001s-19.833 22 -34.5 22c-18.667 0 -40.5 -15.167 -65.5 -45.5s-50.167 -71.166 -75.5 -122.499s-47.666 -107.333 -66.999 -168l-26 -91c8 -21.333 18 -36.666 30 -45.999s26.333 -14 43 -14
c35.333 0 69 22.167 101 66.5z" />
    <glyph glyph-name="q" unicode="q" horiz-adv-x="507" 
d="M326 -88c-2.66699 -8.66699 -4 -17.335 -4 -26.002c0 -30.667 21.667 -46 65 -46l-6 -21l-21 1c-58 2 -95.667 3 -113 3c-18 0 -55 -1.33301 -111 -4l6 21c30.667 0 53 4.33301 67 13s24.333 25 31 49l69 264c-30 -64 -60.167 -110 -90.5 -138s-62.5 -42 -96.5 -42
c-32.667 0 -58.167 11.833 -76.5 35.5s-27.5 58.834 -27.5 105.501c0 54 12 112.5 36 175.5s58.333 116.333 103 160s96 65.5 154 65.5c20 0 37.5 -5.83301 52.5 -17.5s25.5 -28.167 31.5 -49.5l85 69l16 -7c-8.66699 -17.333 -15.667 -36.666 -21 -57.999zM215 55.499
c24 25 47.5 58.499 70.5 100.499s41.833 87 56.5 135l41 159c-8 20 -17.833 34.167 -29.5 42.5s-25.5 12.5 -41.5 12.5c-35.333 0 -69 -22.167 -101 -66.5s-57.833 -98.166 -77.5 -161.499s-29.5 -120.666 -29.5 -171.999c0 -28.667 4.16699 -50.334 12.5 -65.001
s19.833 -22 34.5 -22c18.667 0 40 12.5 64 37.5z" />
    <glyph glyph-name="r" unicode="r" horiz-adv-x="426" 
d="M438 512c10.667 -10.667 16 -24.3311 16 -40.998c0 -20 -7 -37 -21 -51s-30.333 -21 -49 -21c-12 0 -21.667 3.16699 -29 9.5s-11 15.166 -11 26.499c0 15.333 4 28.333 12 39s19 19 33 25c-2.66699 2.66699 -6.33398 4 -11.001 4c-36 0 -75.167 -38.833 -117.5 -116.5
s-82.166 -180.167 -119.499 -307.5l-20 -79h-87l120 429c4.66699 14.667 7 27.667 7 39c0 15.333 -7 23 -21 23c-14.667 0 -28.167 -7.83301 -40.5 -23.5s-24.833 -41.834 -37.5 -78.501l-13 -37h-19l25 73c24 68.667 64.333 103 121 103c38 0 57 -19.333 57 -58
c0 -18.667 -4.66699 -46 -14 -82l-32 -126c36 96.667 69.833 165.167 101.5 205.5s67.167 60.5 106.5 60.5c18 0 32.333 -5.33301 43 -16z" />
    <glyph glyph-name="s" unicode="s" horiz-adv-x="381" 
d="M78.5 8c6.33301 -1.33301 15.168 -2.00098 26.501 -2.00098c30 0 54.333 9 73 27s28 43.333 28 76c0 21.333 -4 42.166 -12 62.499s-21.333 43.5 -40 69.5c-22.667 30.667 -39.167 55.834 -49.5 75.501s-15.5 42.834 -15.5 69.501c0 27.333 7 51.833 21 73.5
s32.833 38.5 56.5 50.5s49.5 18 77.5 18c34.667 0 63.667 -6.5 87 -19.5s35 -35.5 35 -67.5c0 -12 -3.83301 -23.667 -11.5 -35s-19.167 -17 -34.5 -17c-11.333 0 -20.833 4 -28.5 12s-11.5 18 -11.5 30c0 21.333 9.33301 43.666 28 66.999c-12.667 8 -29.334 12 -50.001 12
c-25.333 0 -46.166 -8.5 -62.499 -25.5s-24.5 -40.167 -24.5 -69.5c0 -17.333 3 -32.166 9 -44.499s17 -30.5 33 -54.5l18 -26c20 -30.667 34.833 -57 44.5 -79s14.5 -44.667 14.5 -68c0 -30 -7.83301 -57 -23.5 -81s-36.667 -42.667 -63 -56s-54.833 -20 -85.5 -20
c-38 0 -70 8.16699 -96 24.5s-39 41.166 -39 74.499c0 11.333 3.16699 21.666 9.5 30.999s16.166 14 29.499 14c14.667 0 25.667 -6 33 -18s11 -27 11 -45c0 -11.333 -2.33301 -28.666 -7 -51.999c6.66699 -3.33301 13.167 -5.66602 19.5 -6.99902z" />
    <glyph glyph-name="t" unicode="t" horiz-adv-x="336" 
d="M121 85c-2 -8 -3 -15.333 -3 -22c0 -13.333 4 -23.333 12 -30s18.333 -10 31 -10c16.667 0 32.167 7.16699 46.5 21.5s28.5 40.5 42.5 78.5l14 39h19l-21 -63c-14 -41.333 -32.167 -70.5 -54.5 -87.5s-49.833 -25.5 -82.5 -25.5c-30 0 -52.333 7.33301 -67 22
s-22 35 -22 61c0 17.333 3 36.333 9 57l106 368h-90l5 20h90l44 152c36 1.33301 66 6 90 14l-47 -166h132l-3 -20h-135z" />
    <glyph glyph-name="u" unicode="u" horiz-adv-x="567" 
d="M499 162h18.998l-25 -73c-24 -68.667 -64.333 -103 -121 -103c-10.667 0 -20.667 2.33301 -30 7s-16.333 11.334 -21 20.001c-4 9.33301 -6 19.666 -6 30.999c0 17.333 4.66699 44.666 14 81.999l31 125c-38.667 -95.333 -76.334 -163.333 -113.001 -204
s-76.667 -61 -120 -61c-56 0 -84 25.667 -84 77c0 21.333 4.66699 46 14 74l97 292c5.33301 16 8 28.333 8 37c0 16.667 -8 25 -24 25c-13.333 0 -26.166 -7.5 -38.499 -22.5s-25.166 -41.5 -38.499 -79.5l-13 -37h-19l25 73c24 68.667 64.333 103 121 103
c46.667 0 70 -20.667 70 -62c0 -20 -5.33301 -46 -16 -78l-95 -286c-6.66699 -20 -10 -36.667 -10 -50c0 -22.667 10.667 -34 32 -34c26 0 54.667 19.167 86 57.5s62.333 91.5 93 159.5s57.334 144.667 80.001 230l12 49c38 1.33301 68.333 6 91 14l-124 -443
c-4.66699 -17.333 -7 -30.333 -7 -39c0 -15.333 7 -23 21 -23c14.667 0 28.167 7.83301 40.5 23.5s24.833 41.834 37.5 78.501z" />
    <glyph glyph-name="v" unicode="v" horiz-adv-x="533" 
d="M422 420c-14 17.333 -21.002 37.332 -21.002 59.999c0 16.667 4.5 29 13.5 37s19.167 12 30.5 12c18.667 0 32.667 -9 42 -27s14 -42.667 14 -74c0 -17.333 -0.666992 -30.666 -2 -39.999c-8 -68.667 -25.5 -133.667 -52.5 -195s-63 -111.166 -108 -149.499
s-96.833 -57.5 -155.5 -57.5c-42 0 -72 12 -90 36s-26 53.333 -24 88c4 54.667 26.833 115.667 68.5 183s96.167 133 163.5 197c-16.667 -6.66699 -35.667 -16.667 -57 -30c-16.667 -10.667 -31 -18.834 -43 -24.501s-22.667 -8.5 -32 -8.5c-7.33301 0 -14.333 2 -21 6
s-11 6.33301 -13 7c-12 8 -21.667 12 -29 12c-10.667 0 -19.5 -4.5 -26.5 -13.5s-14.5 -25.167 -22.5 -48.5l-11 -37h-19l22 73c18.667 68 50 102 94 102c8.66699 0 16 -1.5 22 -4.5s13.667 -7.83301 23 -14.5c8.66699 -6.66699 16.334 -11.667 23.001 -15
s14.334 -5 23.001 -5c33.333 0 61.333 10.333 84 31l10 19l21 -10c-54 -66.667 -96 -133 -126 -199s-48 -133.667 -54 -203c-0.666992 -6 -1 -14 -1 -24c0 -56 14.667 -84 44 -84c48.667 0 92.667 20.333 132 61s70.333 89.5 93 146.5s35 107.833 37 152.5
c-20.667 10 -38 23.667 -52 41z" />
    <glyph glyph-name="w" unicode="w" horiz-adv-x="685" 
d="M627 326c0 -54 -8.83789 -106.999 -26.5049 -158.999s-45 -95.167 -82 -129.5s-82.833 -51.5 -137.5 -51.5c-52.667 0 -88 20.333 -106 61c-45.333 -40.667 -91.333 -61 -138 -61c-42.667 0 -74 10.833 -94 32.5s-30 48.834 -30 81.501c0 56.667 28 118.167 84 184.5
s123.667 129.166 203 188.499c-2 -0.666992 -9.66699 -5.33398 -23 -14.001c-18.667 -11.333 -33.334 -19.5 -44.001 -24.5s-20.667 -7.5 -30 -7.5c-8 0 -15.167 2 -21.5 6s-10.166 6.33301 -11.499 7c-12 8 -22 12 -30 12c-10.667 0 -19.667 -4.5 -27 -13.5
s-14.666 -25.167 -21.999 -48.5l-12 -37h-19l23 73c12 37.333 25.833 63.666 41.5 78.999s32.834 23 51.501 23c8.66699 0 16 -1.5 22 -4.5s13.667 -7.83301 23 -14.5c10 -6.66699 18.167 -11.667 24.5 -15s13.833 -5 22.5 -5c16 0 30.333 2.5 43 7.5s25 12.833 37 23.5
l14 19l21 -10c-81.333 -68.667 -147 -138 -197 -208s-75 -141.667 -75 -215c0 -32 4.66699 -55 14 -69s23 -21 41 -21c16.667 0 33.834 4 51.501 12s34.834 20 51.501 36c-4.66699 18.667 -7 38.334 -7 59.001c0 37.333 8.16699 74.333 24.5 111s36 66.667 59 90
s43.833 35 62.5 35c13.333 0 22.5 -7 27.5 -21s7.5 -30.333 7.5 -49c0 -36 -9.66699 -72.333 -29 -109s-48 -69.667 -86 -99c15.333 -44 42 -66 80 -66c42.667 0 78.834 16.333 108.501 49s51.834 73 66.501 121s22 94.667 22 140c0 27.333 -2.33301 49.333 -7 66
c-24 4.66699 -45.833 14.5 -65.5 29.5s-29.5 34.833 -29.5 59.5c0 16 4.16699 28 12.5 36s18.166 12 29.499 12c18.667 0 34 -10.667 46 -32s21.333 -50 28 -86c5.33301 -22 8 -50 8 -84zM363.995 311.001c-13.333 -17.333 -24.668 -39.5 -34.001 -66.5
s-14 -54.167 -14 -81.5c0 -24 2.33301 -45.333 7 -64c30 24.667 53.667 54.167 71 88.5s26 68.5 26 102.5c0 31.333 -6.33301 47 -19 47c-11.333 0 -23.666 -8.66699 -36.999 -26z" />
    <glyph glyph-name="x" unicode="x" horiz-adv-x="526" 
d="M509.5 518c8.33301 -6.66699 12.501 -15.667 12.501 -27c0 -12.667 -5 -23.834 -15 -33.501s-22.667 -14.5 -38 -14.5c-22.667 0 -43.667 8 -63 24c-42 -38 -78 -96.333 -108 -175l24 -214c2.66699 -16.667 6.66699 -28.5 12 -35.5s12.666 -10.5 21.999 -10.5
c11.333 0 22.166 6.5 32.499 19.5s21.833 37.167 34.5 72.5l13 37h19l-25 -73c-24.667 -68 -62.667 -102 -114 -102c-48 0 -75.667 30.667 -83 92l-15 130c-26.667 -59.333 -62 -112.666 -106 -159.999c-20.667 -21.333 -38.834 -37 -54.501 -47s-31.167 -15 -46.5 -15
c-14.667 0 -25.834 3.16699 -33.501 9.5s-11.5 15.5 -11.5 27.5c0 12.667 5 23.834 15 33.501s22.333 14.5 37 14.5c21.333 0 42.333 -8 63 -24c27.333 25.333 52.666 55.666 75.999 90.999s42.333 70.666 57 105.999l-21 192c-2.66699 16.667 -6.66699 28.5 -12 35.5
s-12.666 10.5 -21.999 10.5c-11.333 0 -22.166 -6.5 -32.499 -19.5s-21.833 -37.167 -34.5 -72.5l-13 -37h-19l25 73c24.667 68 62.667 102 114 102c24.667 0 43.667 -6.83301 57 -20.5s22 -37.5 26 -71.5l12 -103c22 50.667 50 95.334 84 134.001
c18.667 22 35.834 37.667 51.501 47s31.834 14 48.501 14c12.667 0 23.167 -3.33301 31.5 -10z" />
    <glyph glyph-name="y" unicode="y" horiz-adv-x="481" 
d="M458 447c0 -63.333 -19.6689 -136.67 -59.002 -220.003s-85.333 -158 -138 -224c-62 -77.333 -127.667 -132.666 -197 -165.999c-35.333 -16.667 -64.333 -25 -87 -25c-14 0 -25.833 3.66699 -35.5 11s-14.5 17.333 -14.5 30c0 14 5.33301 25 16 33s23.334 12 38.001 12
c14 0 27.5 -3.5 40.5 -10.5s27.167 -16.5 42.5 -28.5c52 28 102 68 150 120l-74 448c-3.33301 20.667 -7.33301 35 -12 43s-11.334 12 -20.001 12s-17.5 -6.5 -26.5 -19.5s-19.833 -37.167 -32.5 -72.5l-13 -37h-19l25 73c23.333 68 61.666 102 114.999 102
c21.333 0 37.5 -6.66699 48.5 -20s18.833 -37.333 23.5 -72l51 -376c36.667 50.667 68.334 103.834 95.001 159.501s45.334 110.834 56.001 165.501c-20 10.667 -37.667 23.834 -53 39.501s-23 33.167 -23 52.5c0 15.333 4.83301 27.666 14.5 36.999s21.834 14 36.501 14
c34.667 0 52 -27 52 -81z" />
    <glyph glyph-name="z" unicode="z" horiz-adv-x="445" 
d="M97.5 79.5c18.333 7.66699 36.5 11.5 54.5 11.5c10.667 0 20.5 -1.33301 29.5 -4s20.833 -6.66699 35.5 -12s27.167 -9.33301 37.5 -12s21.166 -4 32.499 -4c17.333 0 30.833 4.16699 40.5 12.5s14.5 20.833 14.5 37.5c0 17.333 -7.33301 32.5 -22 45.5
s-33.667 21.833 -57 26.5l6 15c31.333 -7.33301 55.333 -19 72 -35s25 -36.667 25 -62c0 -29.333 -9.5 -54.166 -28.5 -74.499s-48.167 -30.5 -87.5 -30.5c-15.333 0 -29.166 1.83301 -41.499 5.5s-25.833 8.83398 -40.5 15.501c-16.667 7.33301 -31.5 12.833 -44.5 16.5
s-28.167 5.5 -45.5 5.5c-18.667 0 -35 -2.66699 -49 -8s-27.667 -15 -41 -29h-27l451 475c-30 -19.333 -54.167 -32.833 -72.5 -40.5s-36.5 -11.5 -54.5 -11.5c-10.667 0 -20.5 1.33301 -29.5 4s-20.833 6.66699 -35.5 12s-27.167 9.33301 -37.5 12s-21.166 4 -32.499 4
c-17.333 0 -30.833 -4.16699 -40.5 -12.5s-14.5 -20.833 -14.5 -37.5c0 -17.333 7.33301 -32.5 22 -45.5s33.667 -21.833 57 -26.5l-6 -15c-31.333 7.33301 -55.333 19 -72 35s-25 36.667 -25 62c0 29.333 9.5 54.166 28.5 74.499s48.167 30.5 87.5 30.5
c15.333 0 29.166 -1.83301 41.499 -5.5s25.833 -8.83398 40.5 -15.501c16.667 -7.33301 31.5 -12.833 44.5 -16.5s28.167 -5.5 45.5 -5.5c18.667 0 35 2.66699 49 8s27.667 15 41 29h27l-451 -475c30 19.333 54.167 32.833 72.5 40.5z" />
    <glyph glyph-name="braceleft" unicode="{" horiz-adv-x="306" 
d="M55.5 -160c-20.333 18.667 -30.5 45.335 -30.5 80.002c0 16 1.83301 33.5 5.5 52.5s8.83398 42.5 15.501 70.5c22 88.667 33 150 33 184c-0.666992 20 -4.66699 34.5 -12 43.5s-19 14.167 -35 15.5h-5l3 18h5c21.333 2 39.166 10.167 53.499 24.5
s27.833 38.166 40.5 71.499s27 82.333 43 147c16 62 33.5 109.833 52.5 143.5s42.167 57.334 69.5 71.001s62.333 20.5 105 20.5l-5 -19c-23.333 -0.666992 -41.333 -5.5 -54 -14.5s-24.834 -28.167 -36.501 -57.5s-25.5 -77.333 -41.5 -144
c-20 -81.333 -47.333 -140.333 -82 -177s-75.667 -61.667 -123 -75c64 -18.667 96 -64.334 96 -137.001c0 -30 -5.66699 -68.333 -17 -115c-19.333 -78.667 -29 -131.334 -29 -158.001c0 -20.667 4.33301 -34.667 13 -42s23.334 -11.333 44.001 -12l-5 -19
c-48.667 0 -83.167 9.33301 -103.5 28z" />
    <glyph glyph-name="bar" unicode="|" horiz-adv-x="318" 
d="M189 -195h-40v1053h40v-1053z" />
    <glyph glyph-name="braceright" unicode="}" horiz-adv-x="306" 
d="M251.5 754c20.333 -18.667 30.5 -45.335 30.5 -80.002c0 -16 -1.83301 -33.5 -5.5 -52.5s-8.83398 -42.5 -15.501 -70.5c-22 -88.667 -33 -150 -33 -184c0.666992 -20 4.66699 -34.5 12 -43.5s19 -14.167 35 -15.5h5l-3 -18h-5c-21.333 -2 -39.166 -10.167 -53.499 -24.5
s-27.833 -38.166 -40.5 -71.499s-27 -82.333 -43 -147c-16 -62 -33.5 -109.833 -52.5 -143.5s-42.167 -57.334 -69.5 -71.001s-62.333 -20.5 -105 -20.5l5 19c23.333 0.666992 41.333 5.5 54 14.5s24.834 28.167 36.501 57.5s25.5 77.333 41.5 144
c20 81.333 47.333 140.333 82 177s75.667 61.667 123 75c-64 18.667 -96 64.334 -96 137.001c0 30 5.66699 68.333 17 115c19.333 78.667 29 131.334 29 158.001c0 20.667 -4.33301 34.667 -13 42s-23.334 11.333 -44.001 12l5 19c48.667 0 83.167 -9.33301 103.5 -28z" />
    <glyph glyph-name="asciitilde" unicode="~" horiz-adv-x="649" 
d="M358.5 247c-17.667 6.66699 -38.5 16.667 -62.5 30c-23.333 12.667 -42.833 22.167 -58.5 28.5s-33.834 9.5 -54.501 9.5c-43.333 0 -77 -19.333 -101 -58l-14 5c15.333 33.333 37.5 59.5 66.5 78.5s61.833 28.5 98.5 28.5c23.333 0 43.833 -3.33301 61.5 -10
s38.5 -16.667 62.5 -30c23.333 -12.667 42.833 -22.167 58.5 -28.5s33.834 -9.5 54.501 -9.5c43.333 0 77 19.333 101 58l14 -5c-15.333 -33.333 -37.5 -59.5 -66.5 -78.5s-61.833 -28.5 -98.5 -28.5c-23.333 0 -43.833 3.33301 -61.5 10z" />
    <glyph glyph-name="uni00A0" unicode="&#xa0;" horiz-adv-x="253" 
 />
    <glyph glyph-name="exclamdown" unicode="&#xa1;" horiz-adv-x="249" 
d="M128.5 504.5c15 15.667 32.167 23.499 51.5 23.499c15.333 0 27.666 -5 36.999 -15s14 -22.333 14 -37c0 -20 -7.66699 -37.667 -23 -53s-32.666 -23 -51.999 -23c-14.667 0 -26.667 4.83301 -36 14.5s-14 21.834 -14 36.501c0 20 7.5 37.833 22.5 53.5zM113 180.999
c-8 -44.667 -17 -98.667 -27 -162l-11.5 -72c-6.33301 -39.333 -12.833 -71.333 -19.5 -96c-2.66699 -12.667 -8.16699 -22.334 -16.5 -29.001s-17.833 -10 -28.5 -10c-15.333 0 -26.833 3.66699 -34.5 11s-11.5 17.333 -11.5 30c0 4.66699 1.33301 11.667 4 21
c7.33301 24.667 24.333 71.334 51 140.001c23.333 60 43.333 113.667 60 161s31.667 95.333 45 144l18 -3c-11.333 -45.333 -21 -90.333 -29 -135z" />
    <glyph glyph-name="cent" unicode="&#xa2;" horiz-adv-x="433" 
d="M394 505c20.667 -15.333 30.998 -35.998 30.998 -61.998c0 -20.667 -6.66699 -39.167 -20 -55.5s-30.333 -24.5 -51 -24.5c-13.333 0 -23.5 3.66699 -30.5 11s-10.5 16.666 -10.5 27.999c0 18.667 7.33301 34.834 22 48.501s32.334 22.5 53.001 26.5
c-14 20.667 -36.667 31 -68 31c-4.66699 0 -11 -0.666992 -19 -2l-129 -478h6c54.667 0 104.667 33.333 150 100l20 -8c-20 -34.667 -46.833 -64.834 -80.5 -90.501s-69.167 -39.834 -106.5 -42.501l-45 -168h-22l45 167c-38.667 1.33301 -69 14.5 -91 39.5
s-33 60.833 -33 107.5c0 50.667 11.167 105 33.5 163s54 108.667 95 152s87.833 69 140.5 77l49 183h22l-48 -180h10c30.667 0 56.334 -7.66699 77.001 -23zM275.998 498.002c-29.333 -14 -56.832 -39.6689 -82.499 -77.002s-46.334 -82.166 -62.001 -134.499
s-23.5 -106.5 -23.5 -162.5c0 -49.333 14.333 -79.666 43 -90.999z" />
    <glyph glyph-name="sterling" unicode="&#xa3;" horiz-adv-x="624" 
d="M515.5 675c9 10.667 20.499 17.999 34.499 21.999c0 6.66699 -5.83301 12.334 -17.5 17.001s-24.5 7 -38.5 7c-40 0 -72.5 -11.5 -97.5 -34.5s-44.5 -51.667 -58.5 -86s-28.667 -79.5 -44 -135.5l-13 -48h136l-6 -20h-135l-21 -80h135l-6 -20h-135
c-13.333 -41.333 -31.833 -77.833 -55.5 -109.5s-56.834 -68.834 -99.501 -111.501c46 21.333 88 32 126 32c14.667 0 28.334 -1.66699 41.001 -5s29.667 -9 51 -17c22.667 -8 40.834 -13.833 54.501 -17.5s29.167 -5.5 46.5 -5.5c22.667 0 42.667 6.83301 60 20.5
s26 31.5 26 53.5c0 37.333 -21.667 60.333 -65 69l6 17c28.667 -4.66699 52.667 -15.834 72 -33.501s29 -40.5 29 -68.5c0 -22 -6.66699 -43.333 -20 -64s-31 -37.667 -53 -51s-45.333 -20 -70 -20c-20.667 0 -39.167 4 -55.5 12s-35.166 19.667 -56.499 35
c-22.667 16 -42 27.833 -58 35.5s-34.667 11.5 -56 11.5c-27.333 0 -56.333 -6.66699 -87 -20c-16.667 -23.333 -33.5 -41.5 -50.5 -54.5s-32.167 -19.5 -45.5 -19.5c-4.66699 0 -8 0.666992 -10 2s-3 4 -3 8c0 10.667 9.16699 23.334 27.5 38.001
s42.166 26.334 71.499 35.001c14 26.667 26.333 54 37 82s22 63.667 34 107l10 39h-97l6 20h97l21 80h-97l6 20h96l6 22c24 90.667 60.5 162.834 109.5 216.501s113.167 80.5 192.5 80.5c34 0 59.833 -6.5 77.5 -19.5s26.5 -29.167 26.5 -48.5
c0 -16.667 -6 -31.334 -18 -44.001s-26.667 -19 -44 -19c-10 0 -18.5 3.16699 -25.5 9.5s-10.5 14.5 -10.5 24.5c0 13.333 4.5 25.333 13.5 36z" />
    <glyph glyph-name="currency" unicode="&#xa4;" horiz-adv-x="569" 
d="M139 181c-28 34.667 -42 74.335 -42 119.002s14.333 84.667 43 120l-44 44l28 28l44 -44c16 13.333 34.333 23.666 55 30.999s42 11 64 11c44 0 83.667 -14.333 119 -43l45 45l28 -28l-45 -45c28 -35.333 42 -75 42 -119c0 -44.667 -14 -84.334 -42 -119.001l44 -43
l-28 -29l-44 44c-35.333 -28 -75 -42 -119 -42c-46 0 -85.667 13.667 -119 41l-43 -43l-29 29zM158.5 224.001c13.667 -23.333 31.832 -41.835 54.499 -55.502s47.334 -20.5 74.001 -20.5s51.334 6.83301 74.001 20.5s40.667 32.167 54 55.5s20 48.666 20 75.999
c0 26.667 -6.66699 51.834 -20 75.501s-31.333 42.5 -54 56.5s-47.334 21 -74.001 21s-51.5 -7 -74.5 -21s-41.167 -32.667 -54.5 -56s-20 -48.666 -20 -75.999s6.83301 -52.666 20.5 -75.999z" />
    <glyph glyph-name="yen" unicode="&#xa5;" horiz-adv-x="703" 
d="M750.5 707c9 -10 13.499 -22.6689 13.499 -38.002c0 -16.667 -5 -32.5 -15 -47.5s-24.667 -22.5 -44 -22.5c-13.333 0 -23 3.83301 -29 11.5s-9 17.167 -9 28.5c0 10.667 3 21.5 9 32.5s13.667 20.833 23 29.5h-3c-18 -0.666992 -36.333 -8 -55 -22
c-34.667 -25.333 -72.167 -66.166 -112.5 -122.499s-79.166 -129.166 -116.499 -218.499l-10 -41h141l-5 -20h-141l-15 -60h139l-5 -20h-139l-23 -91c-5.33301 -22.667 -8 -38.667 -8 -48c0 -14.667 4.83301 -24.334 14.5 -29.001s27.167 -7.66699 52.5 -9l-5 -20
c-30 2 -71.333 3 -124 3c-58 0 -101.667 -1 -131 -3l5 20c24 1.33301 42 4 54 8s21.667 11.833 29 23.5s14 29.834 20 54.501l23 91h-141l5 20h141l15 60h-139l5 20h139l11 42c-10.667 94.667 -25 173 -43 235s-42.667 93 -74 93c-11.333 0 -20.833 -3.66699 -28.5 -11
s-14.167 -19.333 -19.5 -36l-28 -82h-22l33 97c10.667 31.333 22.834 53.666 36.501 66.999s34.167 20 61.5 20c35.333 0 63.833 -14.333 85.5 -43s38.5 -68.667 50.5 -120s22.333 -117.666 31 -198.999c24.667 62 53 118 85 168s66 93 102 129
c43.333 43.333 82.666 65 117.999 65c19.333 0 33.5 -5 42.5 -15z" />
    <glyph glyph-name="brokenbar" unicode="&#xa6;" horiz-adv-x="322" 
d="M191 384h-40v474h40v-474zM151 326h40v-521h-40v521z" />
    <glyph glyph-name="section" unicode="&#xa7;" horiz-adv-x="508" 
d="M427.5 703c11 11.333 24.8311 19.335 41.498 24.002c-4 13.333 -14.833 22.666 -32.5 27.999s-36.167 8 -55.5 8c-38.667 0 -72 -10.667 -100 -32s-42 -55 -42 -101c0 -20.667 5.66699 -40 17 -58s24 -33.5 38 -46.5s36.333 -32.5 67 -58.5
c36 -30.667 62.333 -57.167 79 -79.5s25 -47.5 25 -75.5c0 -42.667 -14.833 -80.834 -44.5 -114.501s-68.5 -62.5 -116.5 -86.5c28.667 -32 43 -66 43 -102s-10.167 -69.167 -30.5 -99.5s-47.5 -54.166 -81.5 -71.499s-70 -26 -108 -26c-35.333 0 -67.5 7.66699 -96.5 23
s-43.5 38.666 -43.5 69.999c0 17.333 6.5 33 19.5 47s28.833 21 47.5 21c13.333 0 23.833 -3.5 31.5 -10.5s11.5 -16.833 11.5 -29.5c0 -16 -5.5 -29.833 -16.5 -41.5s-24.833 -19.834 -41.5 -24.501c4 -12.667 15.167 -21.834 33.5 -27.501s36.5 -8.5 54.5 -8.5
c39.333 0 72.833 10.833 100.5 32.5s41.5 55.834 41.5 102.501c0 20 -5.66699 39 -17 57s-23.666 33 -36.999 45l-68 59c-36 30.667 -62.333 57.167 -79 79.5s-25 47.5 -25 75.5c0 42.667 14.833 80.834 44.5 114.501s68.5 62.5 116.5 86.5c-28.667 32 -43 66 -43 102
s10.167 69.167 30.5 99.5s47.5 54.166 81.5 71.499s70 26 108 26c34.667 0 66.834 -7.66699 96.501 -23s44.5 -37.666 44.5 -66.999c0 -18.667 -6.5 -35.167 -19.5 -49.5s-29.167 -21.5 -48.5 -21.5c-13.333 0 -23.833 3.83301 -31.5 11.5s-11.5 17.834 -11.5 30.501
c0 15.333 5.5 28.666 16.5 39.999zM278.998 414.002c-29.333 23.333 -50.668 41.999 -64.001 55.999c-71.333 -38 -107 -82 -107 -132c0 -24 8.83301 -46.667 26.5 -68s43.834 -46.666 78.501 -75.999l16 -14c29.333 -23.333 50.666 -42 63.999 -56
c71.333 38 107 82 107 132c0 24.667 -8.66699 47.5 -26 68.5s-43.666 46.167 -78.999 75.5z" />
    <glyph glyph-name="dieresis" unicode="&#xa8;" horiz-adv-x="428" 
d="M176.5 722.5c13.667 13.667 29.167 20.5 46.5 20.5c14 0 25.833 -4.83301 35.5 -14.5s14.5 -21.5 14.5 -35.5c0 -16.667 -6.66699 -31.834 -20 -45.501s-29 -20.5 -47 -20.5c-14.667 0 -26.667 4.83301 -36 14.5s-14 21.834 -14 36.501c0 16 6.83301 30.833 20.5 44.5z
M388.5 722.5c13.667 13.667 29.167 20.5 46.5 20.5c14 0 25.833 -4.83301 35.5 -14.5s14.5 -21.5 14.5 -35.5c0 -16.667 -6.66699 -31.834 -20 -45.501s-29 -20.5 -47 -20.5c-14.667 0 -26.667 4.83301 -36 14.5s-14 21.834 -14 36.501c0 16 6.83301 30.833 20.5 44.5z" />
    <glyph glyph-name="copyright" unicode="&#xa9;" horiz-adv-x="924" 
d="M141.5 583.5c35.667 61 84 109.333 145 145s127.5 53.5 199.5 53.5s138.5 -17.833 199.5 -53.5s109.333 -84 145 -145s53.5 -127.5 53.5 -199.5s-17.833 -138.5 -53.5 -199.5s-84 -109.333 -145 -145s-127.5 -53.5 -199.5 -53.5s-138.5 17.833 -199.5 53.5
s-109.333 84 -145 145s-53.5 127.5 -53.5 199.5s17.833 138.5 53.5 199.5zM176 201c32 -56 75.5 -100.5 130.5 -133.5s114.833 -49.5 179.5 -49.5s124.5 16.5 179.5 49.5s98.5 77.5 130.5 133.5s48 117 48 183s-16 127 -48 183s-75.5 100.5 -130.5 133.5
s-114.833 49.5 -179.5 49.5s-124.5 -16.5 -179.5 -49.5s-98.5 -77.5 -130.5 -133.5s-48 -117 -48 -183s16 -127 48 -183zM591.5 181c25.667 16.667 46.833 42.667 63.5 78l19 -7c-11.333 -38 -32.5 -70.667 -63.5 -98s-70.833 -41 -119.5 -41
c-42 0 -79.833 10.667 -113.5 32s-60.167 52 -79.5 92s-29 87 -29 141s9.83301 102.167 29.5 144.5s47.167 75.166 82.5 98.499s76 35 122 35c43.333 0 81.166 -10.167 113.499 -30.5s48.5 -46.5 48.5 -78.5c0 -17.333 -5 -31 -15 -41s-22.667 -15 -38 -15
s-28.333 4.83301 -39 14.5s-16 22.834 -16 39.501c0 14 3.83301 25.333 11.5 34s17.834 14.334 30.501 17.001c-6.66699 12 -18.5 22 -35.5 30s-35.167 12 -54.5 12c-39.333 0 -73 -19.333 -101 -58s-42 -102 -42 -190c0 -80.667 13.333 -139.834 40 -177.501
s61 -56.5 103 -56.5c29.333 0 56.833 8.33301 82.5 25z" />
    <glyph glyph-name="ordfeminine" unicode="&#xaa;" horiz-adv-x="454" 
d="M436 478h19.002l-18 -49c-9.33301 -26 -21.166 -44 -35.499 -54s-32.5 -15 -54.5 -15c-14.667 0 -25.5 3.16699 -32.5 9.5s-10.5 16.833 -10.5 31.5c0 13.333 3 31 9 53l12 43c-44 -91.333 -94 -137 -150 -137c-24 0 -43 7.33301 -57 22s-21 34 -21 58
c0 38.667 12.833 80.167 38.5 124.5s57.667 81.666 96 111.999s75.166 45.5 110.499 45.5c9.33301 0 17.666 -2.83301 24.999 -8.5s11.666 -14.5 12.999 -26.5l7 26c26.667 0 50 3 70 9l-94 -292c-3.33301 -11.333 -5 -19.666 -5 -24.999c0 -10.667 5.33301 -16 16 -16
s20.167 4.66699 28.5 14s16.5 26 24.5 50zM246.002 414c20 19.333 39.5 44.668 58.5 76.001s34.833 64.666 47.5 99.999l20 70c-0.666992 25.333 -9 38 -25 38c-22.667 0 -48 -13 -76 -39s-51.833 -59.667 -71.5 -101s-29.5 -83.333 -29.5 -126
c0 -31.333 8.33301 -47 25 -47c14 0 31 9.66699 51 29z" />
    <glyph glyph-name="guillemotleft" unicode="&#xab;" horiz-adv-x="517" 
d="M219 371c-44 -58.667 -83.999 -100.999 -119.999 -126.999c27.333 -22.667 55.166 -60.834 83.499 -114.501s47.5 -101.5 57.5 -143.5h-18c-58 114 -124 199.667 -198 257v2c51.333 36 99.333 77.333 144 124s88.667 99.667 132 159h18c-22 -46 -55 -98.333 -99 -157z
M386.001 372.501c-44.667 -59 -85.332 -101.832 -121.999 -128.499c27.333 -22.667 55.166 -60.834 83.499 -114.501s47.5 -101.5 57.5 -143.5h-18c-58 114 -124 199.667 -198 257v2c51.333 36 99.333 77.333 144 124s88.667 99.667 132 159h18
c-20 -44.667 -52.333 -96.5 -97 -155.5z" />
    <glyph glyph-name="logicalnot" unicode="&#xac;" horiz-adv-x="661" 
d="M103 370h501l-59 -205h-36l50 175h-465z" />
    <glyph glyph-name="uni00AD" unicode="&#xad;" horiz-adv-x="504" 
 />
    <glyph glyph-name="registered" unicode="&#xae;" horiz-adv-x="699" 
d="M545 744.5c42.667 -25 76.5 -58.833 101.5 -101.5s37.5 -89.334 37.5 -140.001s-12.5 -97.334 -37.5 -140.001s-58.833 -76.5 -101.5 -101.5s-89.334 -37.5 -140.001 -37.5s-97.334 12.5 -140.001 37.5s-76.5 58.833 -101.5 101.5s-37.5 89.334 -37.5 140.001
s12.5 97.334 37.5 140.001s58.833 76.5 101.5 101.5s89.334 37.5 140.001 37.5s97.334 -12.5 140.001 -37.5zM524.5 289.5c36.333 22.333 65 52.333 86 90s31.5 78.834 31.5 123.501s-10.5 85.834 -31.5 123.501s-49.667 67.667 -86 90s-76.166 33.5 -119.499 33.5
s-83.166 -11.167 -119.499 -33.5s-65 -52.333 -86 -90s-31.5 -78.834 -31.5 -123.501s10.5 -85.834 31.5 -123.501s49.667 -67.667 86 -90s76.166 -33.5 119.499 -33.5s83.166 11.167 119.499 33.5zM554 372l10.001 -6.99805c-4 -8 -9.5 -13.5 -16.5 -16.5
s-16.167 -4.5 -27.5 -4.5c-16.667 0 -29.167 3.16699 -37.5 9.5s-14.166 16.833 -17.499 31.5l-17 74c-2.66699 13.333 -6.33398 23 -11.001 29s-12.667 10.167 -24 12.5s-29 3.83301 -53 4.5v-101c0 -15.333 1.33301 -25 4 -29s9 -6.66699 19 -8v-15l-51 1l-52 -1v15
c10 1.33301 16.333 4 19 8s4 13.667 4 29v219c0 15.333 -1.33301 25.166 -4 29.499s-9 7.16602 -19 8.49902v15c8 -0.666992 24 -1 48 -1l86 1c38 0 66.833 -6.83301 86.5 -20.5s29.5 -33.167 29.5 -58.5c0 -45.333 -32.667 -73.666 -98 -84.999
c26.667 -2.66699 45.667 -8.5 57 -17.5s19 -22.5 23 -40.5l12 -57c0.666992 -2.66699 1.66699 -7.33398 3 -14.001s3.16602 -11.5 5.49902 -14.5s5.5 -4.5 9.5 -4.5c5.33301 0 9.33301 2.66699 12 8zM367.001 654.502c-4.66699 -4.33301 -7.00098 -13.166 -7.00098 -26.499
v-107h24c32.667 0 54.834 5.66699 66.501 17s17.5 27.666 17.5 48.999c0 25.333 -5.33301 44 -16 56s-28.667 18 -54 18c-16 0 -26.333 -2.16699 -31 -6.5z" />
    <glyph glyph-name="macron" unicode="&#xaf;" horiz-adv-x="412" 
d="M469 687h-312l6 25h312z" />
    <glyph glyph-name="degree" unicode="&#xb0;" horiz-adv-x="335" 
d="M347.5 787c23.667 -22 35.5 -51 35.5 -87s-11.833 -65.167 -35.5 -87.5s-52.5 -33.5 -86.5 -33.5c-33.333 0 -61.833 11.167 -85.5 33.5s-35.5 51.5 -35.5 87.5s11.833 65 35.5 87s52.167 33 85.5 33c34 0 62.833 -11 86.5 -33zM328.5 623
c19.667 18 29.502 43.333 29.502 76c0 32 -10 57.333 -30 76s-42.333 28 -67 28s-46.834 -9.33301 -66.501 -28s-29.5 -44 -29.5 -76c0 -32.667 9.66699 -58 29 -76s41.666 -27 66.999 -27s47.833 9 67.5 27z" />
    <glyph glyph-name="plusminus" unicode="&#xb1;" horiz-adv-x="635" 
d="M0 30h501l-9 -30h-501zM317 370l67 236h36l-67 -236h232l-9 -30h-232l-67 -235h-36l67 235h-233l9 30h233z" />
    <glyph glyph-name="uni00B2" unicode="&#xb2;" horiz-adv-x="341" 
d="M352 740c14 -9.33301 20.998 -23.6631 20.998 -42.9961c0 -29.333 -13.167 -56.833 -39.5 -82.5s-63.166 -54.834 -110.499 -87.501c-24 -16.667 -41 -29 -51 -37c14.667 0 35.667 -3 63 -9c4 -0.666992 13.333 -2.33398 28 -5.00098s26.334 -4 35.001 -4
c14 0 25.333 3.16699 34 9.5s13 14.833 13 25.5c0 7.33301 -1.33301 13.666 -4 18.999l17 7c6.66699 -10 10 -20.667 10 -32c0 -19.333 -8 -35.5 -24 -48.5s-38 -19.5 -66 -19.5c-12.667 0 -31.667 2.66699 -57 8c-28 6.66699 -53 10 -75 10
c-12.667 0 -23.334 -1 -32.001 -3s-19.667 -5.66699 -33 -11l4 18l36 23c56 35.333 102.167 69 138.5 101s54.5 64.667 54.5 98c0 28.667 -18 43 -54 43c-41.333 0 -77 -17.333 -107 -52l-14 11c17.333 21.333 39.333 39.166 66 53.499s56.334 21.5 89.001 21.5
c24.667 0 44 -4.66699 58 -14z" />
    <glyph glyph-name="uni00B3" unicode="&#xb3;" horiz-adv-x="326" 
d="M357 740.5c14.667 -9 21.999 -22.4951 21.999 -40.4951c0 -26 -14.833 -49.5 -44.5 -70.5s-61.167 -35.5 -94.5 -43.5c31.333 -1.33301 57.333 -7.83301 78 -19.5s31 -29.834 31 -54.501c0 -31.333 -16 -59 -48 -83s-71.667 -43 -119 -57s-93.666 -22.667 -138.999 -26
v18c40 3.33301 79 11.666 117 24.999s69 31.166 93 53.499s36 48.166 36 77.499c0 33.333 -18.333 50.666 -55 51.999c-12.667 -6.66699 -23.334 -10 -32.001 -10c-4.66699 0 -8.83398 1 -12.501 3s-5.5 5.33301 -5.5 10c0 12.667 14.667 18.334 44 17.001
c28.667 10.667 51.334 24 68.001 40s25 34 25 54c0 12 -4.16699 21.167 -12.5 27.5s-19.833 9.5 -34.5 9.5c-40 0 -78.667 -18.667 -116 -56l-14 12c16.667 19.333 38.834 36.666 66.501 51.999s57.167 23 88.5 23c24 0 43.333 -4.5 58 -13.5z" />
    <glyph glyph-name="acute" unicode="&#xb4;" horiz-adv-x="276" 
d="M230 726c25.333 34.667 44.668 58.6641 58.001 71.9971c12.667 14.667 26.334 22 41.001 22c9.33301 0 16.666 -2.33301 21.999 -7c5.33301 -5.33301 8 -11.666 8 -18.999c0 -13.333 -7.66699 -27.666 -23 -42.999c-14.667 -15.333 -37.334 -33.666 -68.001 -54.999
c-4.66699 -3.33301 -18.667 -14.166 -42 -32.499l-78 -64.5l-10 9c26 31.333 56.667 70.666 92 117.999z" />
    <glyph glyph-name="paragraph" unicode="&#xb6;" horiz-adv-x="640" 
d="M112 51c-50.667 42.667 -75.9971 101.999 -75.9971 177.999c0 87.333 20.833 167.666 62.5 240.999s98.5 131.5 170.5 174.5s151.333 64.5 238 64.5c19.333 0 46.333 -0.666992 81 -2l69 -1c26.667 0 46.667 0.666992 60 2l-5 -19
c-30.667 -1.33301 -52.5 -7.16602 -65.5 -17.499s-22.833 -27.166 -29.5 -50.499l-139 -528c-23.333 -87.333 -55 -156 -95 -206s-90 -75 -150 -75c-30.667 0 -55.167 4.66699 -73.5 14s-27.833 23 -28.5 41c0 14.667 6 28.5 18 41.5s25.667 19.5 41 19.5
c10 0 18 -2.83301 24 -8.5s9 -13.167 9 -22.5c0 -22 -11.667 -43.333 -35 -64c10 -3.33301 21.667 -5 35 -5c33.333 0 59.666 13.5 78.999 40.5s36.666 66.5 51.999 118.5c-110.667 0 -191.334 21.333 -242.001 64zM382.003 168.499
c-8 -51.667 -11.999 -88.167 -11.999 -109.5c0 -7.33301 0.666992 -11 2 -11l80.5 302.5l82.5 305.5c-2 0 -9.33301 -14.167 -22 -42.5s-27 -64.666 -43 -108.999s-30.667 -90.5 -44 -138.5c-68 0 -132.167 -2 -192.5 -6s-90.833 -7 -91.5 -9
c-0.666992 -2.66699 27.666 -5.66699 84.999 -9s121 -5 191 -5c-16 -60.667 -28 -116.834 -36 -168.501z" />
    <glyph glyph-name="periodcentered" unicode="&#xb7;" horiz-adv-x="258" 
d="M77.5 291.5c15 15.667 32.167 23.499 51.5 23.499c15.333 0 27.666 -5 36.999 -15s14 -22.333 14 -37c0 -20 -7.66699 -37.667 -23 -53s-32.666 -23 -51.999 -23c-14.667 0 -26.667 4.83301 -36 14.5s-14 21.834 -14 36.501c0 20 7.5 37.833 22.5 53.5z" />
    <glyph glyph-name="cedilla" unicode="&#xb8;" horiz-adv-x="290" 
d="M64 -72c12.667 4.66699 26.333 7.00098 41 7.00098c13.333 0 23.833 -3.5 31.5 -10.5s11.5 -16.833 11.5 -29.5c0 -26.667 -12.833 -47.167 -38.5 -61.5s-53.834 -21.5 -84.501 -21.5c-17.333 0 -33.166 2.16699 -47.499 6.5s-25.166 9.5 -32.499 15.5l7 15
c19.333 -8.66699 39.333 -13 60 -13c15.333 0 31.166 4.16699 47.499 12.5s24.5 21.166 24.5 38.499c0 16 -9.33301 24 -28 24c-10.667 0 -21 -2.33301 -31 -7l46 96h27z" />
    <glyph glyph-name="uni00B9" unicode="&#xb9;" horiz-adv-x="253" 
d="M215 437l-59 -0.000976562l81 251c-20.667 -12 -40.167 -22.167 -58.5 -30.5s-40.833 -16.166 -67.5 -23.499l5 19c42 12.667 75.167 26.5 99.5 41.5s51.5 34.5 81.5 58.5h19z" />
    <glyph glyph-name="ordmasculine" unicode="&#xba;" horiz-adv-x="411" 
d="M132.5 578c17 40 41.667 74.001 74 102.001s69.833 42 112.5 42c36 0 64.167 -8.83301 84.5 -26.5s30.5 -43.834 30.5 -78.501c0 -35.333 -8.5 -73 -25.5 -113s-41.667 -73.833 -74 -101.5s-69.833 -41.5 -112.5 -41.5c-36 0 -64.167 8.83301 -84.5 26.5
s-30.5 43.5 -30.5 77.5c0 35.333 8.5 73 25.5 113zM247.5 663.001c-21 -27.333 -37.667 -61.833 -50 -103.5s-18.5 -82.5 -18.5 -122.5c0 -38.667 16 -58 48 -58c23.333 0 45.5 13.667 66.5 41s37.667 61.833 50 103.5s18.5 82.5 18.5 122.5c0 38.667 -16 58 -48 58
c-23.333 0 -45.5 -13.667 -66.5 -41z" />
    <glyph glyph-name="guillemotright" unicode="&#xbb;" horiz-adv-x="516" 
d="M309 270l-0.000976562 -1.00098c-51.333 -36 -99.333 -77.333 -144 -124s-88.667 -99.667 -132 -159h-18c22 46 55 98.333 99 157s84 101 120 127c-27.333 22.667 -55.166 60.834 -83.499 114.501s-47.5 101.5 -57.5 143.5h18c58.667 -115.333 124.667 -201.333 198 -258
zM473.999 269.999l-0.000976562 -1.00098c-51.333 -36 -99.333 -77.333 -144 -124s-88.667 -99.667 -132 -159h-18c22 46 55 98.333 99 157s84 101 120 127c-27.333 22.667 -55.166 60.834 -83.499 114.501s-47.5 101.5 -57.5 143.5h18
c58.667 -115.333 124.667 -201.333 198 -258z" />
    <glyph glyph-name="onequarter" unicode="&#xbc;" horiz-adv-x="606" 
d="M734 811l-833 -866l-15 13l833 866zM215 437l-59 -0.000976562l81 251c-20.667 -12 -40.167 -22.167 -58.5 -30.5s-40.833 -16.166 -67.5 -23.499l5 19c42 12.667 75.167 26.5 99.5 41.5s51.5 34.5 81.5 58.5h19zM402 72.999h56l-11 -41h-57l-34 -117h-52l34 117h-189
l5 18l300 267h19zM350 72.999l49 170l-192 -170h143z" />
    <glyph glyph-name="onehalf" unicode="&#xbd;" horiz-adv-x="606" 
d="M734 811l-833 -866l-15 13l833 866zM215 437l-59 -0.000976562l81 251c-20.667 -12 -40.167 -22.167 -58.5 -30.5s-40.833 -16.166 -67.5 -23.499l5 19c42 12.667 75.167 26.5 99.5 41.5s51.5 34.5 81.5 58.5h19zM519 302.999
c14 -9.33301 20.998 -23.6631 20.998 -42.9961c0 -29.333 -13.167 -56.833 -39.5 -82.5s-63.166 -54.834 -110.499 -87.501c-24 -16.667 -41 -29 -51 -37c14.667 0 35.667 -3 63 -9c4 -0.666992 13.333 -2.33398 28 -5.00098s26.334 -4 35.001 -4
c14 0 25.333 3.16699 34 9.5s13 14.833 13 25.5c0 7.33301 -1.33301 13.666 -4 18.999l17 7c6.66699 -10 10 -20.667 10 -32c0 -19.333 -8 -35.5 -24 -48.5s-38 -19.5 -66 -19.5c-12.667 0 -31.667 2.66699 -57 8c-28 6.66699 -53 10 -75 10
c-12.667 0 -23.334 -1 -32.001 -3s-19.667 -5.66699 -33 -11l4 18l36 23c56 35.333 102.167 69 138.5 101s54.5 64.667 54.5 98c0 28.667 -18 43 -54 43c-41.333 0 -77 -17.333 -107 -52l-14 11c17.333 21.333 39.333 39.166 66 53.499s56.334 21.5 89.001 21.5
c24.667 0 44 -4.66699 58 -14z" />
    <glyph glyph-name="threequarters" unicode="&#xbe;" horiz-adv-x="706" 
d="M834 811l-833 -866l-15 13l833 866zM357 740.5c14.667 -9 21.999 -22.4951 21.999 -40.4951c0 -26 -14.833 -49.5 -44.5 -70.5s-61.167 -35.5 -94.5 -43.5c31.333 -1.33301 57.333 -7.83301 78 -19.5s31 -29.834 31 -54.501c0 -31.333 -16 -59 -48 -83
s-71.667 -43 -119 -57s-93.666 -22.667 -138.999 -26v18c40 3.33301 79 11.666 117 24.999s69 31.166 93 53.499s36 48.166 36 77.499c0 33.333 -18.333 50.666 -55 51.999c-12.667 -6.66699 -23.334 -10 -32.001 -10c-4.66699 0 -8.83398 1 -12.501 3s-5.5 5.33301 -5.5 10
c0 12.667 14.667 18.334 44 17.001c28.667 10.667 51.334 24 68.001 40s25 34 25 54c0 12 -4.16699 21.167 -12.5 27.5s-19.833 9.5 -34.5 9.5c-40 0 -78.667 -18.667 -116 -56l-14 12c16.667 19.333 38.834 36.666 66.501 51.999s57.167 23 88.5 23
c24 0 43.333 -4.5 58 -13.5zM501.999 73.0049h56l-11 -41h-57l-34 -117h-52l34 117h-189l5 18l300 267h19zM449.999 73.0049l49 170l-192 -170h143z" />
    <glyph glyph-name="questiondown" unicode="&#xbf;" horiz-adv-x="446" 
d="M222.5 504.5c15 15.667 32.167 23.499 51.5 23.499c15.333 0 27.666 -5 36.999 -15s14 -22.333 14 -37c0 -20 -7.66699 -37.667 -23 -53s-32.666 -23 -51.999 -23c-14.667 0 -26.667 4.83301 -36 14.5s-14 21.834 -14 36.501c0 20 7.5 37.833 22.5 53.5zM199.5 -158.001
c25 8.66699 40.501 20.668 46.501 36.001c-6 1.33301 -11.667 5.83301 -17 13.5s-8 16.5 -8 26.5c0 14 5.16699 25.667 15.5 35s22.833 14 37.5 14c13.333 0 23.333 -3.83301 30 -11.5s10 -17.834 10 -30.501c0 -21.333 -10 -40.666 -30 -57.999
s-46.167 -30.833 -78.5 -40.5s-66.166 -14.5 -101.499 -14.5c-44 0 -79.333 8.5 -106 25.5s-40 41.167 -40 72.5c0 20 5.16699 38.333 15.5 55s26.666 34 48.999 52s55.833 41.667 100.5 71l34 24c39.333 27.333 66.333 48.666 81 63.999s22 33.666 22 54.999
c0 18.667 -6.33301 34.667 -19 48s-29 20 -49 20c-21.333 0 -42.166 -4 -62.499 -12s-34.5 -18.667 -42.5 -32c6.66699 -0.666992 12.834 -4.5 18.501 -11.5s8.16699 -14.833 7.5 -23.5c0 -10.667 -4.33301 -20.167 -13 -28.5s-19.334 -12.5 -32.001 -12.5
c-22.667 0 -34 11.667 -34 35c0 20 9.16699 37.667 27.5 53s41.333 27.333 69 36s54.834 13 81.501 13c34.667 0 62.5 -8.33301 83.5 -25s31.5 -40.334 31.5 -71.001c0 -22 -5.83301 -42.167 -17.5 -60.5s-26.834 -35.166 -45.501 -50.499s-45.334 -35.333 -80.001 -60
l-23 -16c-47.333 -31.333 -80 -56.166 -98 -74.499s-27 -38.833 -27 -61.5c0 -19.333 7.66699 -35.5 23 -48.5s36.666 -19.5 63.999 -19.5c26 0 51.5 4.33301 76.5 13z" />
    <glyph glyph-name="Agrave" unicode="&#xc0;" horiz-adv-x="629" 
d="M521 36c9.33301 -10 20.002 -15.334 32.002 -16.001l-4 -20c-26.667 2 -63 3 -109 3c-54 0 -94 -1 -120 -3l4 20c22.667 1.33301 40.167 4.16602 52.5 8.49902s21.166 12.333 26.499 24s7.66602 28.834 6.99902 51.501l-9 164h-246l-75 -106c-31.333 -44 -47 -77 -47 -99
c0 -27.333 24.667 -41.666 74 -42.999l-5 -20c-36.667 2 -74.667 3 -114 3c-28.667 0 -53.667 -1 -75 -3l5 20c30.667 6.66699 64 35.667 100 87l431 606h15l40 -629c2 -22 7.66699 -38 17 -48zM400.002 287.999l-17 303l-214 -303h231zM389.002 842.999
c-26.667 18 -46.667 33.332 -60 45.999c-12.667 12.667 -19 25.667 -19 39c0 8 2.33301 14.667 7 20c6 6.66699 13.667 10 23 10c7.33301 0 15 -2 23 -6s14.667 -9 20 -15c10.667 -11.333 24.667 -30.666 42 -57.999c32.667 -46.667 56.667 -80 72 -100l-10 -10
c-27.333 22 -60 46.667 -98 74z" />
    <glyph glyph-name="Aacute" unicode="&#xc1;" horiz-adv-x="629" 
d="M521 36c9.33301 -10 20.002 -15.334 32.002 -16.001l-4 -20c-26.667 2 -63 3 -109 3c-54 0 -94 -1 -120 -3l4 20c22.667 1.33301 40.167 4.16602 52.5 8.49902s21.166 12.333 26.499 24s7.66602 28.834 6.99902 51.501l-9 164h-246l-75 -106c-31.333 -44 -47 -77 -47 -99
c0 -27.333 24.667 -41.666 74 -42.999l-5 -20c-36.667 2 -74.667 3 -114 3c-28.667 0 -53.667 -1 -75 -3l5 20c30.667 6.66699 64 35.667 100 87l431 606h15l40 -629c2 -22 7.66699 -38 17 -48zM400.002 287.999l-17 303l-214 -303h231zM520.502 838.499l46.5 34.502
c32.667 25.333 56.667 42.666 72 51.999c12 7.33301 24.667 11 38 11c14 0 23.333 -5.33301 28 -16c1.33301 -4 2 -7.33301 2 -10c0 -8.66699 -3.5 -16.834 -10.5 -24.501s-15.167 -14.167 -24.5 -19.5c-12.667 -7.33301 -28.167 -14.5 -46.5 -21.5l-32.5 -12.5
c-58 -22 -105.667 -42 -143 -60l-7 11z" />
    <glyph glyph-name="Acircumflex" unicode="&#xc2;" horiz-adv-x="629" 
d="M521 36c9.33301 -10 20.002 -15.334 32.002 -16.001l-4 -20c-26.667 2 -63 3 -109 3c-54 0 -94 -1 -120 -3l4 20c22.667 1.33301 40.167 4.16602 52.5 8.49902s21.166 12.333 26.499 24s7.66602 28.834 6.99902 51.501l-9 164h-246l-75 -106c-31.333 -44 -47 -77 -47 -99
c0 -27.333 24.667 -41.666 74 -42.999l-5 -20c-36.667 2 -74.667 3 -114 3c-28.667 0 -53.667 -1 -75 -3l5 20c30.667 6.66699 64 35.667 100 87l431 606h15l40 -629c2 -22 7.66699 -38 17 -48zM400.002 287.999l-17 303l-214 -303h231zM263.002 771.999l-5 14
c48 14.667 92.667 33.5 134 56.5s75 47.5 101 73.5h18c18.667 -32 38.5 -58.5 59.5 -79.5s47.5 -37.833 79.5 -50.5l-4 -14c-36 6.66699 -65.167 14.5 -87.5 23.5s-41.5 18 -57.5 27s-26.667 14.833 -32 17.5c-74 -31.333 -142.667 -54 -206 -68z" />
    <glyph glyph-name="Atilde" unicode="&#xc3;" horiz-adv-x="629" 
d="M521 36c9.33301 -10 20.002 -15.334 32.002 -16.001l-4 -20c-26.667 2 -63 3 -109 3c-54 0 -94 -1 -120 -3l4 20c22.667 1.33301 40.167 4.16602 52.5 8.49902s21.166 12.333 26.499 24s7.66602 28.834 6.99902 51.501l-9 164h-246l-75 -106c-31.333 -44 -47 -77 -47 -99
c0 -27.333 24.667 -41.666 74 -42.999l-5 -20c-36.667 2 -74.667 3 -114 3c-28.667 0 -53.667 -1 -75 -3l5 20c30.667 6.66699 64 35.667 100 87l431 606h15l40 -629c2 -22 7.66699 -38 17 -48zM400.002 287.999l-17 303l-214 -303h231zM473.002 884.999
c14 -6.66699 29.667 -16.667 47 -30c14 -11.333 26.167 -19.666 36.5 -24.999s22.5 -8 36.5 -8c25.333 0 48.666 19.333 69.999 58l18 -5c-14.667 -34.667 -33.667 -60.5 -57 -77.5s-47.666 -25.5 -72.999 -25.5c-21.333 0 -39 3.33301 -53 10s-29.667 16.667 -47 30
c-14 11.333 -26.167 19.666 -36.5 24.999s-22.5 8 -36.5 8c-25.333 0 -48.666 -19.333 -69.999 -58l-18 5c14.667 34.667 33.667 60.5 57 77.5s47.666 25.5 72.999 25.5c21.333 0 39 -3.33301 53 -10z" />
    <glyph glyph-name="Adieresis" unicode="&#xc4;" horiz-adv-x="629" 
d="M521 36c9.33301 -10 20.002 -15.334 32.002 -16.001l-4 -20c-26.667 2 -63 3 -109 3c-54 0 -94 -1 -120 -3l4 20c22.667 1.33301 40.167 4.16602 52.5 8.49902s21.166 12.333 26.499 24s7.66602 28.834 6.99902 51.501l-9 164h-246l-75 -106c-31.333 -44 -47 -77 -47 -99
c0 -27.333 24.667 -41.666 74 -42.999l-5 -20c-36.667 2 -74.667 3 -114 3c-28.667 0 -53.667 -1 -75 -3l5 20c30.667 6.66699 64 35.667 100 87l431 606h15l40 -629c2 -22 7.66699 -38 17 -48zM400.002 287.999l-17 303l-214 -303h231zM338.502 867.499
c13.667 13.667 29.167 20.5 46.5 20.5c14 0 25.833 -4.83301 35.5 -14.5s14.5 -21.5 14.5 -35.5c0 -16.667 -6.66699 -31.834 -20 -45.501s-29 -20.5 -47 -20.5c-14.667 0 -26.667 4.83301 -36 14.5s-14 21.834 -14 36.501c0 16 6.83301 30.833 20.5 44.5zM550.502 867.499
c13.667 13.667 29.167 20.5 46.5 20.5c14 0 25.833 -4.83301 35.5 -14.5s14.5 -21.5 14.5 -35.5c0 -16.667 -6.66699 -31.834 -20 -45.501s-29 -20.5 -47 -20.5c-14.667 0 -26.667 4.83301 -36 14.5s-14 21.834 -14 36.501c0 16 6.83301 30.833 20.5 44.5z" />
    <glyph glyph-name="Aring" unicode="&#xc5;" horiz-adv-x="629" 
d="M521 36c9.33301 -10 20.002 -15.334 32.002 -16.001l-4 -20c-26.667 2 -63 3 -109 3c-54 0 -94 -1 -120 -3l4 20c22.667 1.33301 40.167 4.16602 52.5 8.49902s21.166 12.333 26.499 24s7.66602 28.834 6.99902 51.501l-9 164h-246l-75 -106c-31.333 -44 -47 -77 -47 -99
c0 -27.333 24.667 -41.666 74 -42.999l-5 -20c-36.667 2 -74.667 3 -114 3c-28.667 0 -53.667 -1 -75 -3l5 20c30.667 6.66699 64 35.667 100 87l431 606h15l40 -629c2 -22 7.66699 -38 17 -48zM400.002 287.999l-17 303l-214 -303h231zM548.502 902.999
c16.333 -14.667 24.5 -34 24.5 -58c0 -28 -11.167 -52.167 -33.5 -72.5s-48.5 -30.5 -78.5 -30.5c-24 0 -43.833 7.16699 -59.5 21.5s-23.5 33.833 -23.5 58.5c0 28.667 10.667 53 32 73s47 30 77 30c24.667 0 45.167 -7.33301 61.5 -22zM522.002 786.999
c16.667 16 25 35.667 25 59c0 18 -6.5 32.167 -19.5 42.5s-27.833 15.5 -44.5 15.5c-20.667 0 -39 -8.16699 -55 -24.5s-24 -35.166 -24 -56.499c0 -18.667 6 -33.334 18 -44.001s26.333 -16 43 -16c21.333 0 40.333 8 57 24z" />
    <glyph glyph-name="AE" unicode="&#xc6;" horiz-adv-x="897" 
d="M934 708c-8.66699 -24 -21.3359 -63.332 -38.0029 -117.999c-6 -20 -10.333 -40.667 -13 -62h-22c4.66699 26 7 49.667 7 71c0 31.333 -7 53.5 -21 66.5s-36.333 19.5 -67 19.5h-93c-23.333 0 -40.833 -1.83301 -52.5 -5.5s-20.834 -11.167 -27.501 -22.5
s-13.334 -29.666 -20.001 -54.999l-63 -236h108c18.667 0 34.334 5 47.001 15s22.834 22.333 30.501 37s16.167 34.667 25.5 60h22c-10.667 -32.667 -19.667 -64.334 -27 -95.001l-7 -27c-7.33301 -27.333 -16 -68 -26 -122h-22c0 10.667 1 21 3 31
c1.33301 14.667 2 25 2 31c0 14.667 -3.66699 26.334 -11 35.001s-21 13.667 -41 15h-109l-64 -240c-6 -25.333 -9 -41.666 -9 -48.999c0 -14 4.83301 -23.167 14.5 -27.5s26.834 -6.5 51.501 -6.5h103c32 0 58.333 5.5 79 16.5s38.667 29 54 54s30.666 60.5 45.999 106.5
h22c-5.33301 -14.667 -12.333 -38.667 -21 -72c-11.333 -39.333 -20 -82 -26 -128c-45.333 2 -120.666 3 -225.999 3c-126.667 0 -222.667 -1 -288 -3l4 20c24 1.33301 42 4 54 8s21.5 11.667 28.5 23s13.833 29.666 20.5 54.999l64 240h-163l-223 -252
c-10 -12 -17.333 -21.5 -22 -28.5s-7 -13.167 -7 -18.5c0 -15.333 20.667 -24.333 62 -27v-20c-18 2 -46.667 3 -86 3c-28.667 0 -51 -1 -67 -3v20c20.667 1.33301 49.334 22.666 86.001 63.999l496 561c0.666992 16.667 -3.66602 27.667 -12.999 33
s-27.333 8.66602 -54 9.99902l5 20c48 -1.33301 86.667 -2 116 -2l59 67h26l-60 -67c39.333 -0.666992 88 -1 146 -1c96 0 165 1 207 3zM430.998 366.001l63 236l2 7l-215 -243h150z" />
    <glyph glyph-name="Ccedilla" unicode="&#xc7;" horiz-adv-x="670" 
d="M648 478l-22 -0.00292969c4 26 6 49 6 69c0 32 -5.33301 58.333 -16 79c-12 24.667 -29.833 43.834 -53.5 57.501s-49.5 20.5 -77.5 20.5c-55.333 0 -108.833 -26 -160.5 -78s-93.5 -117.5 -125.5 -196.5s-48 -155.5 -48 -229.5c0 -64 12.667 -112.667 38 -146
s60.333 -50 105 -50c29.333 0 60.333 6.83301 93 20.5s61 32.834 85 57.501c17.333 17.333 32.333 37.5 45 60.5s27.667 55.5 45 97.5h22c-31.333 -115.333 -51 -195.333 -59 -240h-22c2 14 3 25.333 3 34c0 17.333 -4 26 -12 26c-4.66699 0 -11.667 -3 -21 -9
c-34.667 -22.667 -65 -39.167 -91 -49.5s-58.667 -15.5 -98 -15.5c-74 0 -131.333 20 -172 60s-61 98.333 -61 175s19.167 154 57.5 232s91 142.333 158 193s140.5 76 220.5 76c38.667 0 68.167 -5.5 88.5 -16.5s40.5 -27.167 60.5 -48.5c4.66699 -6 9.66699 -9 15 -9
c6 0 12.167 4.83301 18.5 14.5s13.5 24.834 21.5 45.501h21c-22 -57.333 -43.333 -134 -64 -230zM266 -72.0029c16 4.66699 32.999 7.00098 50.999 7.00098c16.667 0 29.667 -3.5 39 -10.5s14 -16.833 14 -29.5c0 -26.667 -16.167 -47.167 -48.5 -61.5
s-67.166 -21.5 -104.499 -21.5c-22 0 -41.833 2.16699 -59.5 6.5s-31.167 9.5 -40.5 15.5l7 15c21.333 -8.66699 48 -13 80 -13c22 0 44.5 4.16699 67.5 12.5s34.5 21.166 34.5 38.499c0 16 -12.667 24 -38 24c-13.333 0 -27 -2.33301 -41 -7l48 100h27z" />
    <glyph glyph-name="Egrave" unicode="&#xc8;" horiz-adv-x="610" 
d="M642 708c-17.333 -48 -30.001 -87.334 -38.001 -118.001c-7.33301 -24 -12 -44.667 -14 -62h-23c6 38.667 9 65.334 9 80.001c0 28.667 -7.33301 48.667 -22 60s-41 17 -79 17h-73c-24 0 -41.833 -1.83301 -53.5 -5.5s-21.167 -11.167 -28.5 -22.5
s-14.333 -29.666 -21 -54.999l-63 -236h66c23.333 0 42.666 5.5 57.999 16.5s27.333 23.833 36 38.5s17.334 33.334 26.001 56.001c2 6.66699 4.66699 13.667 8 21h23c-14 -44 -25.667 -83.667 -35 -119l-6 -23c-9.33301 -35.333 -20 -82.666 -32 -141.999h-23l3 20l3 22
c1.33301 10 2 18.667 2 26c0 20 -5.16699 35.667 -15.5 47s-28.166 17 -53.499 17h-66l-64 -240c-6 -20.667 -9 -37 -9 -49c0 -14 5 -23.167 15 -27.5s27.667 -6.5 53 -6.5h73c41.333 0 74.333 5.5 99 16.5s45.167 28.667 61.5 53s33.166 60.166 50.499 107.499h23
c-7.33301 -19.333 -14.666 -43.333 -21.999 -72c-10.667 -37.333 -19.667 -80 -27 -128c-45.333 2 -121.666 3 -228.999 3c-128 0 -224.333 -1 -289 -3l5 20c24 1.33301 41.833 4 53.5 8s21.167 11.667 28.5 23s14.333 29.666 21 54.999l133 496c6 21.333 9 37.666 9 48.999
c0 14 -4.83301 23.333 -14.5 28s-27.167 7.66699 -52.5 9l5 20c65.333 -2 162 -3 290 -3c93.333 0 159.666 1 198.999 3zM353.999 842.999c-26.667 18 -46.667 33.332 -60 45.999c-12.667 12.667 -19 25.667 -19 39c0 8 2.33301 14.667 7 20c6 6.66699 13.667 10 23 10
c7.33301 0 15 -2 23 -6s14.667 -9 20 -15c10.667 -11.333 24.667 -30.666 42 -57.999c32.667 -46.667 56.667 -80 72 -100l-10 -10c-27.333 22 -60 46.667 -98 74z" />
    <glyph glyph-name="Eacute" unicode="&#xc9;" horiz-adv-x="610" 
d="M642 708c-17.333 -48 -30.001 -87.334 -38.001 -118.001c-7.33301 -24 -12 -44.667 -14 -62h-23c6 38.667 9 65.334 9 80.001c0 28.667 -7.33301 48.667 -22 60s-41 17 -79 17h-73c-24 0 -41.833 -1.83301 -53.5 -5.5s-21.167 -11.167 -28.5 -22.5
s-14.333 -29.666 -21 -54.999l-63 -236h66c23.333 0 42.666 5.5 57.999 16.5s27.333 23.833 36 38.5s17.334 33.334 26.001 56.001c2 6.66699 4.66699 13.667 8 21h23c-14 -44 -25.667 -83.667 -35 -119l-6 -23c-9.33301 -35.333 -20 -82.666 -32 -141.999h-23l3 20l3 22
c1.33301 10 2 18.667 2 26c0 20 -5.16699 35.667 -15.5 47s-28.166 17 -53.499 17h-66l-64 -240c-6 -20.667 -9 -37 -9 -49c0 -14 5 -23.167 15 -27.5s27.667 -6.5 53 -6.5h73c41.333 0 74.333 5.5 99 16.5s45.167 28.667 61.5 53s33.166 60.166 50.499 107.499h23
c-7.33301 -19.333 -14.666 -43.333 -21.999 -72c-10.667 -37.333 -19.667 -80 -27 -128c-45.333 2 -121.666 3 -228.999 3c-128 0 -224.333 -1 -289 -3l5 20c24 1.33301 41.833 4 53.5 8s21.167 11.667 28.5 23s14.333 29.666 21 54.999l133 496c6 21.333 9 37.666 9 48.999
c0 14 -4.83301 23.333 -14.5 28s-27.167 7.66699 -52.5 9l5 20c65.333 -2 162 -3 290 -3c93.333 0 159.666 1 198.999 3zM485.499 838.499l46.5 34.502c32.667 25.333 56.667 42.666 72 51.999c12 7.33301 24.667 11 38 11c14 0 23.333 -5.33301 28 -16
c1.33301 -4 2 -7.33301 2 -10c0 -8.66699 -3.5 -16.834 -10.5 -24.501s-15.167 -14.167 -24.5 -19.5c-12.667 -7.33301 -28.167 -14.5 -46.5 -21.5l-32.5 -12.5c-58 -22 -105.667 -42 -143 -60l-7 11z" />
    <glyph glyph-name="Ecircumflex" unicode="&#xca;" horiz-adv-x="610" 
d="M642 708c-17.333 -48 -30.001 -87.334 -38.001 -118.001c-7.33301 -24 -12 -44.667 -14 -62h-23c6 38.667 9 65.334 9 80.001c0 28.667 -7.33301 48.667 -22 60s-41 17 -79 17h-73c-24 0 -41.833 -1.83301 -53.5 -5.5s-21.167 -11.167 -28.5 -22.5
s-14.333 -29.666 -21 -54.999l-63 -236h66c23.333 0 42.666 5.5 57.999 16.5s27.333 23.833 36 38.5s17.334 33.334 26.001 56.001c2 6.66699 4.66699 13.667 8 21h23c-14 -44 -25.667 -83.667 -35 -119l-6 -23c-9.33301 -35.333 -20 -82.666 -32 -141.999h-23l3 20l3 22
c1.33301 10 2 18.667 2 26c0 20 -5.16699 35.667 -15.5 47s-28.166 17 -53.499 17h-66l-64 -240c-6 -20.667 -9 -37 -9 -49c0 -14 5 -23.167 15 -27.5s27.667 -6.5 53 -6.5h73c41.333 0 74.333 5.5 99 16.5s45.167 28.667 61.5 53s33.166 60.166 50.499 107.499h23
c-7.33301 -19.333 -14.666 -43.333 -21.999 -72c-10.667 -37.333 -19.667 -80 -27 -128c-45.333 2 -121.666 3 -228.999 3c-128 0 -224.333 -1 -289 -3l5 20c24 1.33301 41.833 4 53.5 8s21.167 11.667 28.5 23s14.333 29.666 21 54.999l133 496c6 21.333 9 37.666 9 48.999
c0 14 -4.83301 23.333 -14.5 28s-27.167 7.66699 -52.5 9l5 20c65.333 -2 162 -3 290 -3c93.333 0 159.666 1 198.999 3zM227.999 771.999l-5 14c48 14.667 92.667 33.5 134 56.5s75 47.5 101 73.5h18c18.667 -32 38.5 -58.5 59.5 -79.5s47.5 -37.833 79.5 -50.5l-4 -14
c-36 6.66699 -65.167 14.5 -87.5 23.5s-41.5 18 -57.5 27s-26.667 14.833 -32 17.5c-74 -31.333 -142.667 -54 -206 -68z" />
    <glyph glyph-name="Edieresis" unicode="&#xcb;" horiz-adv-x="610" 
d="M642 708c-17.333 -48 -30.001 -87.334 -38.001 -118.001c-7.33301 -24 -12 -44.667 -14 -62h-23c6 38.667 9 65.334 9 80.001c0 28.667 -7.33301 48.667 -22 60s-41 17 -79 17h-73c-24 0 -41.833 -1.83301 -53.5 -5.5s-21.167 -11.167 -28.5 -22.5
s-14.333 -29.666 -21 -54.999l-63 -236h66c23.333 0 42.666 5.5 57.999 16.5s27.333 23.833 36 38.5s17.334 33.334 26.001 56.001c2 6.66699 4.66699 13.667 8 21h23c-14 -44 -25.667 -83.667 -35 -119l-6 -23c-9.33301 -35.333 -20 -82.666 -32 -141.999h-23l3 20l3 22
c1.33301 10 2 18.667 2 26c0 20 -5.16699 35.667 -15.5 47s-28.166 17 -53.499 17h-66l-64 -240c-6 -20.667 -9 -37 -9 -49c0 -14 5 -23.167 15 -27.5s27.667 -6.5 53 -6.5h73c41.333 0 74.333 5.5 99 16.5s45.167 28.667 61.5 53s33.166 60.166 50.499 107.499h23
c-7.33301 -19.333 -14.666 -43.333 -21.999 -72c-10.667 -37.333 -19.667 -80 -27 -128c-45.333 2 -121.666 3 -228.999 3c-128 0 -224.333 -1 -289 -3l5 20c24 1.33301 41.833 4 53.5 8s21.167 11.667 28.5 23s14.333 29.666 21 54.999l133 496c6 21.333 9 37.666 9 48.999
c0 14 -4.83301 23.333 -14.5 28s-27.167 7.66699 -52.5 9l5 20c65.333 -2 162 -3 290 -3c93.333 0 159.666 1 198.999 3zM303.499 867.499c13.667 13.667 29.167 20.5 46.5 20.5c14 0 25.833 -4.83301 35.5 -14.5s14.5 -21.5 14.5 -35.5
c0 -16.667 -6.66699 -31.834 -20 -45.501s-29 -20.5 -47 -20.5c-14.667 0 -26.667 4.83301 -36 14.5s-14 21.834 -14 36.501c0 16 6.83301 30.833 20.5 44.5zM515.499 867.499c13.667 13.667 29.167 20.5 46.5 20.5c14 0 25.833 -4.83301 35.5 -14.5s14.5 -21.5 14.5 -35.5
c0 -16.667 -6.66699 -31.834 -20 -45.501s-29 -20.5 -47 -20.5c-14.667 0 -26.667 4.83301 -36 14.5s-14 21.834 -14 36.501c0 16 6.83301 30.833 20.5 44.5z" />
    <glyph glyph-name="Igrave" unicode="&#xcc;" horiz-adv-x="341" 
d="M157 57c0 -14 4.83496 -23.3369 14.502 -28.0039s27.5 -7.66699 53.5 -9l-4 -20c-30.667 2 -73 3 -127 3c-56 0 -98.333 -1 -127 -3l5 20c23.333 1.33301 40.833 4 52.5 8s21 11.833 28 23.5s13.833 29.834 20.5 54.501l132 496c5.33301 22.667 8 38.667 8 48
c0 14.667 -4.83301 24.334 -14.5 29.001s-27.167 7.66699 -52.5 9l5 20c27.333 -2 69.666 -3 126.999 -3c53.333 0 96 1 128 3l-5 -20c-24.667 -1.33301 -42.834 -4 -54.501 -8s-21 -11.667 -28 -23s-13.833 -29.666 -20.5 -54.999l-132 -496
c-6 -25.333 -9 -41.666 -9 -48.999zM216.002 842.996c-26.667 18 -46.667 33.332 -60 45.999c-12.667 12.667 -19 25.667 -19 39c0 8 2.33301 14.667 7 20c6 6.66699 13.667 10 23 10c7.33301 0 15 -2 23 -6s14.667 -9 20 -15c10.667 -11.333 24.667 -30.666 42 -57.999
c32.667 -46.667 56.667 -80 72 -100l-10 -10c-27.333 22 -60 46.667 -98 74z" />
    <glyph glyph-name="Iacute" unicode="&#xcd;" horiz-adv-x="341" 
d="M157 57c0 -14 4.83496 -23.3369 14.502 -28.0039s27.5 -7.66699 53.5 -9l-4 -20c-30.667 2 -73 3 -127 3c-56 0 -98.333 -1 -127 -3l5 20c23.333 1.33301 40.833 4 52.5 8s21 11.833 28 23.5s13.833 29.834 20.5 54.501l132 496c5.33301 22.667 8 38.667 8 48
c0 14.667 -4.83301 24.334 -14.5 29.001s-27.167 7.66699 -52.5 9l5 20c27.333 -2 69.666 -3 126.999 -3c53.333 0 96 1 128 3l-5 -20c-24.667 -1.33301 -42.834 -4 -54.501 -8s-21 -11.667 -28 -23s-13.833 -29.666 -20.5 -54.999l-132 -496
c-6 -25.333 -9 -41.666 -9 -48.999zM347.502 838.496l46.5 34.502c32.667 25.333 56.667 42.666 72 51.999c12 7.33301 24.667 11 38 11c14 0 23.333 -5.33301 28 -16c1.33301 -4 2 -7.33301 2 -10c0 -8.66699 -3.5 -16.834 -10.5 -24.501s-15.167 -14.167 -24.5 -19.5
c-12.667 -7.33301 -28.167 -14.5 -46.5 -21.5l-32.5 -12.5c-58 -22 -105.667 -42 -143 -60l-7 11z" />
    <glyph glyph-name="Icircumflex" unicode="&#xce;" horiz-adv-x="341" 
d="M157 57c0 -14 4.83496 -23.3369 14.502 -28.0039s27.5 -7.66699 53.5 -9l-4 -20c-30.667 2 -73 3 -127 3c-56 0 -98.333 -1 -127 -3l5 20c23.333 1.33301 40.833 4 52.5 8s21 11.833 28 23.5s13.833 29.834 20.5 54.501l132 496c5.33301 22.667 8 38.667 8 48
c0 14.667 -4.83301 24.334 -14.5 29.001s-27.167 7.66699 -52.5 9l5 20c27.333 -2 69.666 -3 126.999 -3c53.333 0 96 1 128 3l-5 -20c-24.667 -1.33301 -42.834 -4 -54.501 -8s-21 -11.667 -28 -23s-13.833 -29.666 -20.5 -54.999l-132 -496
c-6 -25.333 -9 -41.666 -9 -48.999zM90.002 771.996l-5 14c48 14.667 92.667 33.5 134 56.5s75 47.5 101 73.5h18c18.667 -32 38.5 -58.5 59.5 -79.5s47.5 -37.833 79.5 -50.5l-4 -14c-36 6.66699 -65.167 14.5 -87.5 23.5s-41.5 18 -57.5 27s-26.667 14.833 -32 17.5
c-74 -31.333 -142.667 -54 -206 -68z" />
    <glyph glyph-name="Idieresis" unicode="&#xcf;" horiz-adv-x="341" 
d="M157 57c0 -14 4.83496 -23.3369 14.502 -28.0039s27.5 -7.66699 53.5 -9l-4 -20c-30.667 2 -73 3 -127 3c-56 0 -98.333 -1 -127 -3l5 20c23.333 1.33301 40.833 4 52.5 8s21 11.833 28 23.5s13.833 29.834 20.5 54.501l132 496c5.33301 22.667 8 38.667 8 48
c0 14.667 -4.83301 24.334 -14.5 29.001s-27.167 7.66699 -52.5 9l5 20c27.333 -2 69.666 -3 126.999 -3c53.333 0 96 1 128 3l-5 -20c-24.667 -1.33301 -42.834 -4 -54.501 -8s-21 -11.667 -28 -23s-13.833 -29.666 -20.5 -54.999l-132 -496
c-6 -25.333 -9 -41.666 -9 -48.999zM165.502 867.496c13.667 13.667 29.167 20.5 46.5 20.5c14 0 25.833 -4.83301 35.5 -14.5s14.5 -21.5 14.5 -35.5c0 -16.667 -6.66699 -31.834 -20 -45.501s-29 -20.5 -47 -20.5c-14.667 0 -26.667 4.83301 -36 14.5
s-14 21.834 -14 36.501c0 16 6.83301 30.833 20.5 44.5zM377.502 867.496c13.667 13.667 29.167 20.5 46.5 20.5c14 0 25.833 -4.83301 35.5 -14.5s14.5 -21.5 14.5 -35.5c0 -16.667 -6.66699 -31.834 -20 -45.501s-29 -20.5 -47 -20.5c-14.667 0 -26.667 4.83301 -36 14.5
s-14 21.834 -14 36.501c0 16 6.83301 30.833 20.5 44.5z" />
    <glyph glyph-name="Eth" unicode="&#xd0;" horiz-adv-x="725" 
d="M642 249.5c-41.333 -75 -98.168 -135.332 -170.501 -180.999s-152.833 -68.5 -241.5 -68.5l-58 1c-37.333 1.33301 -64.666 2 -81.999 2c-54 0 -94 -1 -120 -3l3 20c22.667 1.33301 39.834 4 51.501 8s21 11.833 28 23.5s13.833 29.834 20.5 54.501l131 496
c6 25.333 9 41.666 9 48.999c0 13.333 -4.83301 22.666 -14.5 27.999s-27.167 8.33301 -52.5 9l3 20c22.667 -2 55 -3 97 -3l85 1c45.333 1.33301 75.666 2 90.999 2c94 0 164.5 -18.667 211.5 -56s70.5 -92.333 70.5 -165c0 -83.333 -20.667 -162.5 -62 -237.5z
M429.998 85.501c58.667 45 103 105.167 133 180.5s45 157.333 45 246c0 60.667 -17 105.5 -51 134.5s-88.333 43.5 -163 43.5c-20.667 0 -36.834 -2.33301 -48.501 -7s-21.167 -13 -28.5 -25s-14 -30 -20 -54l-131 -500c-6 -24 -9 -40.333 -9 -49
c0 -12.667 4.5 -22 13.5 -28s24.833 -9 47.5 -9c82.667 0 153.334 22.5 212.001 67.5zM431.998 341.001h-412l6 25h412z" />
    <glyph glyph-name="Ntilde" unicode="&#xd1;" horiz-adv-x="770" 
d="M858 740c9.33301 -9.33301 14 -21.6689 14 -37.002c0 -18 -5.33301 -34.5 -16 -49.5s-25 -22.5 -43 -22.5c-13.333 0 -23 3.83301 -29 11.5s-9 16.834 -9 27.501s3 21.667 9 33s13.667 21.333 23 30h-3c-32.667 -0.666992 -60 -17.667 -82 -51
c-29.333 -44 -60 -121.5 -92 -232.5s-68.333 -262.5 -109 -454.5h-22l-228 644c-32.667 -167.333 -63.5 -308.666 -92.5 -423.999s-56.833 -190.666 -83.5 -225.999c-14.667 -19.333 -30.167 -34.666 -46.5 -45.999s-36.5 -17 -60.5 -17c-40 0 -60 17.333 -60 52
c0 18 5.33301 34.333 16 49s25 22 43 22c13.333 0 23 -3.83301 29 -11.5s9 -16.834 9 -27.501s-3 -21.667 -9 -33s-13.667 -21.333 -23 -30h3c34 0.666992 61.667 18 83 52c24.667 39.333 50.334 109.666 77.001 210.999s55.667 232 87 392c4 19.333 6 34.333 6 45
c0 16 -5.33301 26.5 -16 31.5s-31 8.16699 -61 9.5l5 20c21.333 -2 51 -3 89 -3c30.667 0 57.667 1 81 3l189 -553c28.667 128 56.667 238.833 84 332.5s55.333 161.167 84 202.5c29.333 42.667 65.333 64 108 64c21.333 0 36.666 -4.66699 45.999 -14zM526 884.997
c14 -6.66699 29.667 -16.667 47 -30c14 -11.333 26.167 -19.666 36.5 -24.999s22.5 -8 36.5 -8c25.333 0 48.666 19.333 69.999 58l18 -5c-14.667 -34.667 -33.667 -60.5 -57 -77.5s-47.666 -25.5 -72.999 -25.5c-21.333 0 -39 3.33301 -53 10s-29.667 16.667 -47 30
c-14 11.333 -26.167 19.666 -36.5 24.999s-22.5 8 -36.5 8c-25.333 0 -48.666 -19.333 -69.999 -58l-18 5c14.667 34.667 33.667 60.5 57 77.5s47.666 25.5 72.999 25.5c21.333 0 39 -3.33301 53 -10z" />
    <glyph glyph-name="Ograve" unicode="&#xd2;" horiz-adv-x="729" 
d="M107 455c35.333 77.333 84.833 141.168 148.5 191.501s135.5 75.5 215.5 75.5c74.667 0 132.667 -21 174 -63s62 -101.333 62 -178c0 -75.333 -17.833 -151.5 -53.5 -228.5s-85.5 -140.667 -149.5 -191s-135.667 -75.5 -215 -75.5c-74 0 -131.667 21 -173 63
s-62 101 -62 177c0 75.333 17.667 151.666 53 228.999zM316.5 632.002c-47 -48 -84.833 -110.167 -113.5 -186.5s-43 -153.833 -43 -232.5c0 -64.667 12.667 -115.667 38 -153s58.666 -56 99.999 -56c50 0 98.5 24 145.5 72s84.833 110.167 113.5 186.5s43 153.833 43 232.5
c0 64.667 -12.667 115.667 -38 153s-58.666 56 -99.999 56c-50 0 -98.5 -24 -145.5 -72zM397 843.002c-26.667 18 -46.667 33.332 -60 45.999c-12.667 12.667 -19 25.667 -19 39c0 8 2.33301 14.667 7 20c6 6.66699 13.667 10 23 10c7.33301 0 15 -2 23 -6s14.667 -9 20 -15
c10.667 -11.333 24.667 -30.666 42 -57.999c32.667 -46.667 56.667 -80 72 -100l-10 -10c-27.333 22 -60 46.667 -98 74z" />
    <glyph glyph-name="Oacute" unicode="&#xd3;" horiz-adv-x="729" 
d="M107 455c35.333 77.333 84.833 141.168 148.5 191.501s135.5 75.5 215.5 75.5c74.667 0 132.667 -21 174 -63s62 -101.333 62 -178c0 -75.333 -17.833 -151.5 -53.5 -228.5s-85.5 -140.667 -149.5 -191s-135.667 -75.5 -215 -75.5c-74 0 -131.667 21 -173 63
s-62 101 -62 177c0 75.333 17.667 151.666 53 228.999zM316.5 632.002c-47 -48 -84.833 -110.167 -113.5 -186.5s-43 -153.833 -43 -232.5c0 -64.667 12.667 -115.667 38 -153s58.666 -56 99.999 -56c50 0 98.5 24 145.5 72s84.833 110.167 113.5 186.5s43 153.833 43 232.5
c0 64.667 -12.667 115.667 -38 153s-58.666 56 -99.999 56c-50 0 -98.5 -24 -145.5 -72zM528.5 838.502l46.5 34.502c32.667 25.333 56.667 42.666 72 51.999c12 7.33301 24.667 11 38 11c14 0 23.333 -5.33301 28 -16c1.33301 -4 2 -7.33301 2 -10
c0 -8.66699 -3.5 -16.834 -10.5 -24.501s-15.167 -14.167 -24.5 -19.5c-12.667 -7.33301 -28.167 -14.5 -46.5 -21.5l-32.5 -12.5c-58 -22 -105.667 -42 -143 -60l-7 11z" />
    <glyph glyph-name="Ocircumflex" unicode="&#xd4;" horiz-adv-x="729" 
d="M107 455c35.333 77.333 84.833 141.168 148.5 191.501s135.5 75.5 215.5 75.5c74.667 0 132.667 -21 174 -63s62 -101.333 62 -178c0 -75.333 -17.833 -151.5 -53.5 -228.5s-85.5 -140.667 -149.5 -191s-135.667 -75.5 -215 -75.5c-74 0 -131.667 21 -173 63
s-62 101 -62 177c0 75.333 17.667 151.666 53 228.999zM316.5 632.002c-47 -48 -84.833 -110.167 -113.5 -186.5s-43 -153.833 -43 -232.5c0 -64.667 12.667 -115.667 38 -153s58.666 -56 99.999 -56c50 0 98.5 24 145.5 72s84.833 110.167 113.5 186.5s43 153.833 43 232.5
c0 64.667 -12.667 115.667 -38 153s-58.666 56 -99.999 56c-50 0 -98.5 -24 -145.5 -72zM271 772.002l-5 14c48 14.667 92.667 33.5 134 56.5s75 47.5 101 73.5h18c18.667 -32 38.5 -58.5 59.5 -79.5s47.5 -37.833 79.5 -50.5l-4 -14c-36 6.66699 -65.167 14.5 -87.5 23.5
s-41.5 18 -57.5 27s-26.667 14.833 -32 17.5c-74 -31.333 -142.667 -54 -206 -68z" />
    <glyph glyph-name="Otilde" unicode="&#xd5;" horiz-adv-x="729" 
d="M107 455c35.333 77.333 84.833 141.168 148.5 191.501s135.5 75.5 215.5 75.5c74.667 0 132.667 -21 174 -63s62 -101.333 62 -178c0 -75.333 -17.833 -151.5 -53.5 -228.5s-85.5 -140.667 -149.5 -191s-135.667 -75.5 -215 -75.5c-74 0 -131.667 21 -173 63
s-62 101 -62 177c0 75.333 17.667 151.666 53 228.999zM316.5 632.002c-47 -48 -84.833 -110.167 -113.5 -186.5s-43 -153.833 -43 -232.5c0 -64.667 12.667 -115.667 38 -153s58.666 -56 99.999 -56c50 0 98.5 24 145.5 72s84.833 110.167 113.5 186.5s43 153.833 43 232.5
c0 64.667 -12.667 115.667 -38 153s-58.666 56 -99.999 56c-50 0 -98.5 -24 -145.5 -72zM481 885.002c14 -6.66699 29.667 -16.667 47 -30c14 -11.333 26.167 -19.666 36.5 -24.999s22.5 -8 36.5 -8c25.333 0 48.666 19.333 69.999 58l18 -5
c-14.667 -34.667 -33.667 -60.5 -57 -77.5s-47.666 -25.5 -72.999 -25.5c-21.333 0 -39 3.33301 -53 10s-29.667 16.667 -47 30c-14 11.333 -26.167 19.666 -36.5 24.999s-22.5 8 -36.5 8c-25.333 0 -48.666 -19.333 -69.999 -58l-18 5c14.667 34.667 33.667 60.5 57 77.5
s47.666 25.5 72.999 25.5c21.333 0 39 -3.33301 53 -10z" />
    <glyph glyph-name="Odieresis" unicode="&#xd6;" horiz-adv-x="729" 
d="M107 455c35.333 77.333 84.833 141.168 148.5 191.501s135.5 75.5 215.5 75.5c74.667 0 132.667 -21 174 -63s62 -101.333 62 -178c0 -75.333 -17.833 -151.5 -53.5 -228.5s-85.5 -140.667 -149.5 -191s-135.667 -75.5 -215 -75.5c-74 0 -131.667 21 -173 63
s-62 101 -62 177c0 75.333 17.667 151.666 53 228.999zM316.5 632.002c-47 -48 -84.833 -110.167 -113.5 -186.5s-43 -153.833 -43 -232.5c0 -64.667 12.667 -115.667 38 -153s58.666 -56 99.999 -56c50 0 98.5 24 145.5 72s84.833 110.167 113.5 186.5s43 153.833 43 232.5
c0 64.667 -12.667 115.667 -38 153s-58.666 56 -99.999 56c-50 0 -98.5 -24 -145.5 -72zM346.5 867.502c13.667 13.667 29.167 20.5 46.5 20.5c14 0 25.833 -4.83301 35.5 -14.5s14.5 -21.5 14.5 -35.5c0 -16.667 -6.66699 -31.834 -20 -45.501s-29 -20.5 -47 -20.5
c-14.667 0 -26.667 4.83301 -36 14.5s-14 21.834 -14 36.501c0 16 6.83301 30.833 20.5 44.5zM558.5 867.502c13.667 13.667 29.167 20.5 46.5 20.5c14 0 25.833 -4.83301 35.5 -14.5s14.5 -21.5 14.5 -35.5c0 -16.667 -6.66699 -31.834 -20 -45.501s-29 -20.5 -47 -20.5
c-14.667 0 -26.667 4.83301 -36 14.5s-14 21.834 -14 36.501c0 16 6.83301 30.833 20.5 44.5z" />
    <glyph glyph-name="multiply" unicode="&#xd7;" horiz-adv-x="513" 
d="M250 355l-125 175l26 18l123 -175l227 177l16 -22l-227 -176l125 -173l-25 -18l-124 173l-224 -174l-15 22z" />
    <glyph glyph-name="Oslash" unicode="&#xd8;" horiz-adv-x="729" 
d="M666 633c27.333 -39.333 40.999 -89.999 40.999 -151.999c0 -75.333 -17.833 -151.5 -53.5 -228.5s-85.5 -140.667 -149.5 -191s-135.667 -75.5 -215 -75.5c-75.333 0 -133.666 21.667 -174.999 65l-117 -124l-17 14l119 127c-30 40.667 -45 93.334 -45 158.001
c0 75.333 17.667 151.666 53 228.999s84.833 141.166 148.5 191.499s135.5 75.5 215.5 75.5c80.667 0 141.667 -24.333 183 -73l118 124l15 -13zM316.499 632.001c-47 -48 -84.833 -110.166 -113.5 -186.499s-43 -153.833 -43 -232.5c0 -28 2.66699 -54.667 8 -80l421 454
c-10.667 37.333 -27 66.166 -49 86.499s-48 30.5 -78 30.5c-50 0 -98.5 -24 -145.5 -72zM443.499 76.002c47 48 84.832 110.167 113.499 186.5s43 153.833 43 232.5c0 24.667 -2 47 -6 67l-419 -454c10.667 -32.667 26.834 -58.167 48.501 -76.5s46.5 -27.5 74.5 -27.5
c50 0 98.5 24 145.5 72z" />
    <glyph glyph-name="Ugrave" unicode="&#xd9;" horiz-adv-x="682" 
d="M638 636c0 18.667 -5.66309 31.667 -16.9961 39s-30.333 11.666 -57 12.999l5 20c23.333 -2 57 -3 101 -3c39.333 0 70.666 1 93.999 3l-5 -20c-23.333 -1.33301 -41.5 -4.83301 -54.5 -10.5s-23.333 -15 -31 -28s-14.5 -32.167 -20.5 -57.5l-78 -301
c-24 -92 -56.667 -162.667 -98 -212c-24.667 -28.667 -54.834 -51.334 -90.501 -68.001s-73.834 -25 -114.501 -25c-71.333 0 -122.666 18 -153.999 54c-12 14 -20.833 29.167 -26.5 45.5s-8.5 35.166 -8.5 56.499c0 36 8.33301 84.667 25 146l83 314
c5.33301 22.667 8 38.667 8 48c0 14.667 -4.83301 24.334 -14.5 29.001s-27.167 7.66699 -52.5 9l6 20c26.667 -2 69.667 -3 129 -3c51.333 0 93 1 125 3l-6 -20c-24.667 -1.33301 -42.834 -4 -54.501 -8s-21 -11.667 -28 -23s-13.833 -29.666 -20.5 -54.999l-88 -331
c-14.667 -56.667 -22 -101.667 -22 -135c0 -36.667 9.16699 -65 27.5 -85s48.5 -30 90.5 -30c70 0 125.167 22.667 165.5 68s71.166 109 92.499 191l82 312c4.66699 16.667 7 31.334 7 44.001zM407.004 843c-26.667 18 -46.667 33.332 -60 45.999
c-12.667 12.667 -19 25.667 -19 39c0 8 2.33301 14.667 7 20c6 6.66699 13.667 10 23 10c7.33301 0 15 -2 23 -6s14.667 -9 20 -15c10.667 -11.333 24.667 -30.666 42 -57.999c32.667 -46.667 56.667 -80 72 -100l-10 -10c-27.333 22 -60 46.667 -98 74z" />
    <glyph glyph-name="Uacute" unicode="&#xda;" horiz-adv-x="682" 
d="M638 636c0 18.667 -5.66309 31.667 -16.9961 39s-30.333 11.666 -57 12.999l5 20c23.333 -2 57 -3 101 -3c39.333 0 70.666 1 93.999 3l-5 -20c-23.333 -1.33301 -41.5 -4.83301 -54.5 -10.5s-23.333 -15 -31 -28s-14.5 -32.167 -20.5 -57.5l-78 -301
c-24 -92 -56.667 -162.667 -98 -212c-24.667 -28.667 -54.834 -51.334 -90.501 -68.001s-73.834 -25 -114.501 -25c-71.333 0 -122.666 18 -153.999 54c-12 14 -20.833 29.167 -26.5 45.5s-8.5 35.166 -8.5 56.499c0 36 8.33301 84.667 25 146l83 314
c5.33301 22.667 8 38.667 8 48c0 14.667 -4.83301 24.334 -14.5 29.001s-27.167 7.66699 -52.5 9l6 20c26.667 -2 69.667 -3 129 -3c51.333 0 93 1 125 3l-6 -20c-24.667 -1.33301 -42.834 -4 -54.501 -8s-21 -11.667 -28 -23s-13.833 -29.666 -20.5 -54.999l-88 -331
c-14.667 -56.667 -22 -101.667 -22 -135c0 -36.667 9.16699 -65 27.5 -85s48.5 -30 90.5 -30c70 0 125.167 22.667 165.5 68s71.166 109 92.499 191l82 312c4.66699 16.667 7 31.334 7 44.001zM538.504 838.5l46.5 34.502c32.667 25.333 56.667 42.666 72 51.999
c12 7.33301 24.667 11 38 11c14 0 23.333 -5.33301 28 -16c1.33301 -4 2 -7.33301 2 -10c0 -8.66699 -3.5 -16.834 -10.5 -24.501s-15.167 -14.167 -24.5 -19.5c-12.667 -7.33301 -28.167 -14.5 -46.5 -21.5l-32.5 -12.5c-58 -22 -105.667 -42 -143 -60l-7 11z" />
    <glyph glyph-name="Ucircumflex" unicode="&#xdb;" horiz-adv-x="682" 
d="M638 636c0 18.667 -5.66309 31.667 -16.9961 39s-30.333 11.666 -57 12.999l5 20c23.333 -2 57 -3 101 -3c39.333 0 70.666 1 93.999 3l-5 -20c-23.333 -1.33301 -41.5 -4.83301 -54.5 -10.5s-23.333 -15 -31 -28s-14.5 -32.167 -20.5 -57.5l-78 -301
c-24 -92 -56.667 -162.667 -98 -212c-24.667 -28.667 -54.834 -51.334 -90.501 -68.001s-73.834 -25 -114.501 -25c-71.333 0 -122.666 18 -153.999 54c-12 14 -20.833 29.167 -26.5 45.5s-8.5 35.166 -8.5 56.499c0 36 8.33301 84.667 25 146l83 314
c5.33301 22.667 8 38.667 8 48c0 14.667 -4.83301 24.334 -14.5 29.001s-27.167 7.66699 -52.5 9l6 20c26.667 -2 69.667 -3 129 -3c51.333 0 93 1 125 3l-6 -20c-24.667 -1.33301 -42.834 -4 -54.501 -8s-21 -11.667 -28 -23s-13.833 -29.666 -20.5 -54.999l-88 -331
c-14.667 -56.667 -22 -101.667 -22 -135c0 -36.667 9.16699 -65 27.5 -85s48.5 -30 90.5 -30c70 0 125.167 22.667 165.5 68s71.166 109 92.499 191l82 312c4.66699 16.667 7 31.334 7 44.001zM281.004 772l-5 14c48 14.667 92.667 33.5 134 56.5s75 47.5 101 73.5h18
c18.667 -32 38.5 -58.5 59.5 -79.5s47.5 -37.833 79.5 -50.5l-4 -14c-36 6.66699 -65.167 14.5 -87.5 23.5s-41.5 18 -57.5 27s-26.667 14.833 -32 17.5c-74 -31.333 -142.667 -54 -206 -68z" />
    <glyph glyph-name="Udieresis" unicode="&#xdc;" horiz-adv-x="682" 
d="M638 636c0 18.667 -5.66309 31.667 -16.9961 39s-30.333 11.666 -57 12.999l5 20c23.333 -2 57 -3 101 -3c39.333 0 70.666 1 93.999 3l-5 -20c-23.333 -1.33301 -41.5 -4.83301 -54.5 -10.5s-23.333 -15 -31 -28s-14.5 -32.167 -20.5 -57.5l-78 -301
c-24 -92 -56.667 -162.667 -98 -212c-24.667 -28.667 -54.834 -51.334 -90.501 -68.001s-73.834 -25 -114.501 -25c-71.333 0 -122.666 18 -153.999 54c-12 14 -20.833 29.167 -26.5 45.5s-8.5 35.166 -8.5 56.499c0 36 8.33301 84.667 25 146l83 314
c5.33301 22.667 8 38.667 8 48c0 14.667 -4.83301 24.334 -14.5 29.001s-27.167 7.66699 -52.5 9l6 20c26.667 -2 69.667 -3 129 -3c51.333 0 93 1 125 3l-6 -20c-24.667 -1.33301 -42.834 -4 -54.501 -8s-21 -11.667 -28 -23s-13.833 -29.666 -20.5 -54.999l-88 -331
c-14.667 -56.667 -22 -101.667 -22 -135c0 -36.667 9.16699 -65 27.5 -85s48.5 -30 90.5 -30c70 0 125.167 22.667 165.5 68s71.166 109 92.499 191l82 312c4.66699 16.667 7 31.334 7 44.001zM356.504 867.5c13.667 13.667 29.167 20.5 46.5 20.5
c14 0 25.833 -4.83301 35.5 -14.5s14.5 -21.5 14.5 -35.5c0 -16.667 -6.66699 -31.834 -20 -45.501s-29 -20.5 -47 -20.5c-14.667 0 -26.667 4.83301 -36 14.5s-14 21.834 -14 36.501c0 16 6.83301 30.833 20.5 44.5zM568.504 867.5c13.667 13.667 29.167 20.5 46.5 20.5
c14 0 25.833 -4.83301 35.5 -14.5s14.5 -21.5 14.5 -35.5c0 -16.667 -6.66699 -31.834 -20 -45.501s-29 -20.5 -47 -20.5c-14.667 0 -26.667 4.83301 -36 14.5s-14 21.834 -14 36.501c0 16 6.83301 30.833 20.5 44.5z" />
    <glyph glyph-name="Yacute" unicode="&#xdd;" horiz-adv-x="670" 
d="M742.5 707c9 -10 13.499 -22.6689 13.499 -38.002c0 -16.667 -5 -32.5 -15 -47.5s-24.667 -22.5 -44 -22.5c-13.333 0 -23 3.83301 -29 11.5s-9 17.167 -9 28.5c0 10.667 3 21.5 9 32.5s13.667 20.833 23 29.5h-3c-18 -0.666992 -36.333 -8 -55 -22
c-34.667 -25.333 -72.167 -66.166 -112.5 -122.499s-79.166 -129.166 -116.499 -218.499l-58 -232c-5.33301 -22.667 -8 -38.667 -8 -48c0 -14.667 4.83301 -24.334 14.5 -29.001s27.167 -7.66699 52.5 -9l-5 -20c-30 2 -71.333 3 -124 3c-58 0 -101.667 -1 -131 -3l5 20
c24 1.33301 42 4 54 8s21.667 11.833 29 23.5s14 29.834 20 54.501l59 233c-10.667 94.667 -25 173 -43 235s-42.667 93 -74 93c-11.333 0 -20.833 -3.66699 -28.5 -11s-14.167 -19.333 -19.5 -36l-28 -82h-22l33 97c10.667 31.333 22.834 53.666 36.501 66.999
s34.167 20 61.5 20c35.333 0 63.833 -14.333 85.5 -43s38.5 -68.667 50.5 -120s22.333 -117.666 31 -198.999c24.667 62 53 118 85 168s66 93 102 129c43.333 43.333 82.666 65 117.999 65c19.333 0 33.5 -5 42.5 -15zM534.499 838.498l46.5 34.502
c32.667 25.333 56.667 42.666 72 51.999c12 7.33301 24.667 11 38 11c14 0 23.333 -5.33301 28 -16c1.33301 -4 2 -7.33301 2 -10c0 -8.66699 -3.5 -16.834 -10.5 -24.501s-15.167 -14.167 -24.5 -19.5c-12.667 -7.33301 -28.167 -14.5 -46.5 -21.5l-32.5 -12.5
c-58 -22 -105.667 -42 -143 -60l-7 11z" />
    <glyph glyph-name="Thorn" unicode="&#xde;" horiz-adv-x="605" 
d="M166 106c-6 -25.333 -8.99902 -41.6709 -8.99902 -49.0039c0 -14 4.83301 -23.333 14.5 -28s27.5 -7.66699 53.5 -9l-4 -20c-30.667 2 -73 3 -127 3c-56 0 -98.333 -1 -127 -3l5 20c23.333 1.33301 40.833 4 52.5 8s21 11.833 28 23.5s13.833 29.834 20.5 54.501l132 496
c5.33301 22.667 8 38.667 8 48c0 14.667 -4.83301 24.334 -14.5 29.001s-27.167 7.66699 -52.5 9l5 20c27.333 -2 69.666 -3 126.999 -3c53.333 0 96 1 128 3l-5 -20c-24.667 -1.33301 -42.834 -4 -54.501 -8s-21 -11.667 -28 -23s-13.833 -29.666 -20.5 -54.999l-8 -29
c46.667 1.33301 82 2 106 2c65.333 0 114.833 -13.5 148.5 -40.5s50.5 -63.833 50.5 -110.5c0 -52 -15.833 -98.667 -47.5 -140s-76.167 -73.666 -133.5 -96.999s-122.666 -35 -195.999 -35h-40zM184.001 171.995h44c93.333 0 161 24.333 203 73s63 113.667 63 195
c0 39.333 -10 68.5 -30 87.5s-52.333 28.5 -97 28.5c-32.667 0 -60 -1 -82 -3z" />
    <glyph glyph-name="germandbls" unicode="&#xdf;" horiz-adv-x="547" 
d="M295.5 726.5c-18.333 -27 -36.1689 -72.832 -53.502 -137.499l-201 -763c-36 -1.33301 -66 -6 -90 -14l182 695c16.667 64 35 115.667 55 155s45.333 69.166 76 89.499s69.667 30.5 117 30.5c46.667 0 81 -9.66699 103 -29s33 -43.333 33 -72s-9.16699 -55 -27.5 -79
s-45.166 -52 -80.499 -84l-24 -23c-22.667 -20.667 -34 -45.667 -34 -75c0 -20 4.16699 -37.833 12.5 -53.5s20.833 -34.167 37.5 -55.5l16 -21c18.667 -25.333 33.167 -49.666 43.5 -72.999s15.5 -47.333 15.5 -72c0 -31.333 -8 -59 -24 -83s-37.667 -42.667 -65 -56
s-57.333 -20 -90 -20c-34.667 0 -64.667 7.33301 -90 22s-38 36 -38 64c0 14.667 3.66699 26.334 11 35.001s16.666 13 27.999 13c16 0 27.167 -7.16699 33.5 -21.5s9.5 -29.833 9.5 -46.5c0 -9.33301 -2 -22 -6 -38c14.667 -5.33301 28.667 -8 42 -8
c30.667 0 55.834 9.33301 75.501 28s29.5 44 29.5 76c0 43.333 -17.333 87 -52 131c-3.33301 4.66699 -11.333 14.667 -24 30s-22.667 31.166 -30 47.499s-11 33.166 -11 50.499c0 21.333 5 39 15 53s26 30.333 48 49c20.667 18.667 33.334 30.667 38.001 36
c42.667 44.667 64 96 64 154c0 35.333 -6.66699 61.833 -20 79.5s-31.333 26.5 -54 26.5c-28.667 0 -52.167 -13.5 -70.5 -40.5z" />
    <glyph glyph-name="agrave" unicode="&#xe0;" horiz-adv-x="523" 
d="M455 163l18.998 0.000976562l-25 -73c-13.333 -36.667 -30.333 -63.167 -51 -79.5s-42 -24.5 -64 -24.5c-12.667 0 -23.667 2.33301 -33 7s-16.666 11 -21.999 19c-6 10 -9 21.667 -9 35c0 14 2.33301 29.667 7 47l9 33l18 72c-32 -74.667 -64.5 -128.834 -97.5 -162.501
s-67.5 -50.5 -103.5 -50.5c-30.667 0 -54 11 -70 33s-24 51.333 -24 88c0 54 14.333 114.333 43 181s66 123.334 112 170.001s92.667 70 140 70c18 0 32.667 -6.66699 44 -20s18 -32 20 -56l16 62c36.667 1.33301 67.334 6 92.001 14l-125 -442l-4 -15.5
c-2 -7.66699 -3 -14.834 -3 -21.501c0 -16.667 7.33301 -25 22 -25c29.333 0 55 34 77 102zM198.998 61.001c26 28.667 51.5 66.834 76.5 114.501s45.5 98.5 61.5 152.5l18 71c0.666992 5.33301 1 12.666 1 21.999c0 27.333 -4.83301 48.833 -14.5 64.5
s-23.167 23.5 -40.5 23.5c-28.667 0 -59 -22.167 -91 -66.5s-58.833 -99 -80.5 -164s-32.5 -126.167 -32.5 -183.5c0 -27.333 3 -47 9 -59s14.667 -18 26 -18c18.667 0 41 14.333 67 43zM260.998 717.001l-22.498 27.501c-11.667 14.333 -21.167 27.5 -28.5 39.5
c-6.66699 11.333 -10 22 -10 32c0 13.333 5.33301 22.666 16 27.999c4.66699 2 10 3 16 3c16.667 0 31 -10.333 43 -31c6.66699 -11.333 17.667 -36.333 33 -75c17.333 -46 36.666 -91.333 57.999 -136l-13 -6c-24.667 34 -55.334 73.333 -92.001 118z" />
    <glyph glyph-name="aacute" unicode="&#xe1;" horiz-adv-x="523" 
d="M455 163l18.998 0.000976562l-25 -73c-13.333 -36.667 -30.333 -63.167 -51 -79.5s-42 -24.5 -64 -24.5c-12.667 0 -23.667 2.33301 -33 7s-16.666 11 -21.999 19c-6 10 -9 21.667 -9 35c0 14 2.33301 29.667 7 47l9 33l18 72c-32 -74.667 -64.5 -128.834 -97.5 -162.501
s-67.5 -50.5 -103.5 -50.5c-30.667 0 -54 11 -70 33s-24 51.333 -24 88c0 54 14.333 114.333 43 181s66 123.334 112 170.001s92.667 70 140 70c18 0 32.667 -6.66699 44 -20s18 -32 20 -56l16 62c36.667 1.33301 67.334 6 92.001 14l-125 -442l-4 -15.5
c-2 -7.66699 -3 -14.834 -3 -21.501c0 -16.667 7.33301 -25 22 -25c29.333 0 55 34 77 102zM198.998 61.001c26 28.667 51.5 66.834 76.5 114.501s45.5 98.5 61.5 152.5l18 71c0.666992 5.33301 1 12.666 1 21.999c0 27.333 -4.83301 48.833 -14.5 64.5
s-23.167 23.5 -40.5 23.5c-28.667 0 -59 -22.167 -91 -66.5s-58.833 -99 -80.5 -164s-32.5 -126.167 -32.5 -183.5c0 -27.333 3 -47 9 -59s14.667 -18 26 -18c18.667 0 41 14.333 67 43zM385.998 726.001c25.333 34.667 44.668 58.6641 58.001 71.9971
c12.667 14.667 26.334 22 41.001 22c9.33301 0 16.666 -2.33301 21.999 -7c5.33301 -5.33301 8 -11.666 8 -18.999c0 -13.333 -7.66699 -27.666 -23 -42.999c-14.667 -15.333 -37.334 -33.666 -68.001 -54.999c-4.66699 -3.33301 -18.667 -14.166 -42 -32.499l-78 -64.5
l-10 9c26 31.333 56.667 70.666 92 117.999z" />
    <glyph glyph-name="acircumflex" unicode="&#xe2;" horiz-adv-x="523" 
d="M455 163l18.998 0.000976562l-25 -73c-13.333 -36.667 -30.333 -63.167 -51 -79.5s-42 -24.5 -64 -24.5c-12.667 0 -23.667 2.33301 -33 7s-16.666 11 -21.999 19c-6 10 -9 21.667 -9 35c0 14 2.33301 29.667 7 47l9 33l18 72c-32 -74.667 -64.5 -128.834 -97.5 -162.501
s-67.5 -50.5 -103.5 -50.5c-30.667 0 -54 11 -70 33s-24 51.333 -24 88c0 54 14.333 114.333 43 181s66 123.334 112 170.001s92.667 70 140 70c18 0 32.667 -6.66699 44 -20s18 -32 20 -56l16 62c36.667 1.33301 67.334 6 92.001 14l-125 -442l-4 -15.5
c-2 -7.66699 -3 -14.834 -3 -21.501c0 -16.667 7.33301 -25 22 -25c29.333 0 55 34 77 102zM198.998 61.001c26 28.667 51.5 66.834 76.5 114.501s45.5 98.5 61.5 152.5l18 71c0.666992 5.33301 1 12.666 1 21.999c0 27.333 -4.83301 48.833 -14.5 64.5
s-23.167 23.5 -40.5 23.5c-28.667 0 -59 -22.167 -91 -66.5s-58.833 -99 -80.5 -164s-32.5 -126.167 -32.5 -183.5c0 -27.333 3 -47 9 -59s14.667 -18 26 -18c18.667 0 41 14.333 67 43zM261.998 662.001c-30.667 -18.667 -61 -34.0029 -91 -46.0029l-5 14
c43.333 18.667 84 43.334 122 74.001s69 63.334 93 98.001h18c7.33301 -42 20 -76.333 38 -103s45 -49.667 81 -69l-4 -14c-38.667 10.667 -70.5 24.334 -95.5 41.001s-49.167 37.667 -72.5 63c-25.333 -20 -53.333 -39.333 -84 -58z" />
    <glyph glyph-name="atilde" unicode="&#xe3;" horiz-adv-x="523" 
d="M455 163l18.998 0.000976562l-25 -73c-13.333 -36.667 -30.333 -63.167 -51 -79.5s-42 -24.5 -64 -24.5c-12.667 0 -23.667 2.33301 -33 7s-16.666 11 -21.999 19c-6 10 -9 21.667 -9 35c0 14 2.33301 29.667 7 47l9 33l18 72c-32 -74.667 -64.5 -128.834 -97.5 -162.501
s-67.5 -50.5 -103.5 -50.5c-30.667 0 -54 11 -70 33s-24 51.333 -24 88c0 54 14.333 114.333 43 181s66 123.334 112 170.001s92.667 70 140 70c18 0 32.667 -6.66699 44 -20s18 -32 20 -56l16 62c36.667 1.33301 67.334 6 92.001 14l-125 -442l-4 -15.5
c-2 -7.66699 -3 -14.834 -3 -21.501c0 -16.667 7.33301 -25 22 -25c29.333 0 55 34 77 102zM198.998 61.001c26 28.667 51.5 66.834 76.5 114.501s45.5 98.5 61.5 152.5l18 71c0.666992 5.33301 1 12.666 1 21.999c0 27.333 -4.83301 48.833 -14.5 64.5
s-23.167 23.5 -40.5 23.5c-28.667 0 -59 -22.167 -91 -66.5s-58.833 -99 -80.5 -164s-32.5 -126.167 -32.5 -183.5c0 -27.333 3 -47 9 -59s14.667 -18 26 -18c18.667 0 41 14.333 67 43zM356.998 757.501c12.667 -7 26 -16.833 40 -29.5
c12.667 -11.333 23.5 -19.666 32.5 -24.999s19.833 -8 32.5 -8c25.333 0 48.666 19.333 69.999 58l18 -5c-14.667 -34.667 -33.667 -60.5 -57 -77.5s-47.666 -25.5 -72.999 -25.5c-19.333 0 -35.333 3.5 -48 10.5s-26 16.833 -40 29.5
c-12.667 11.333 -23.5 19.666 -32.5 24.999s-19.833 8 -32.5 8c-25.333 0 -48.666 -19.333 -69.999 -58l-18 5c14.667 34.667 33.667 60.5 57 77.5s47.666 25.5 72.999 25.5c19.333 0 35.333 -3.5 48 -10.5z" />
    <glyph glyph-name="adieresis" unicode="&#xe4;" horiz-adv-x="523" 
d="M455 163l18.998 0.000976562l-25 -73c-13.333 -36.667 -30.333 -63.167 -51 -79.5s-42 -24.5 -64 -24.5c-12.667 0 -23.667 2.33301 -33 7s-16.666 11 -21.999 19c-6 10 -9 21.667 -9 35c0 14 2.33301 29.667 7 47l9 33l18 72c-32 -74.667 -64.5 -128.834 -97.5 -162.501
s-67.5 -50.5 -103.5 -50.5c-30.667 0 -54 11 -70 33s-24 51.333 -24 88c0 54 14.333 114.333 43 181s66 123.334 112 170.001s92.667 70 140 70c18 0 32.667 -6.66699 44 -20s18 -32 20 -56l16 62c36.667 1.33301 67.334 6 92.001 14l-125 -442l-4 -15.5
c-2 -7.66699 -3 -14.834 -3 -21.501c0 -16.667 7.33301 -25 22 -25c29.333 0 55 34 77 102zM198.998 61.001c26 28.667 51.5 66.834 76.5 114.501s45.5 98.5 61.5 152.5l18 71c0.666992 5.33301 1 12.666 1 21.999c0 27.333 -4.83301 48.833 -14.5 64.5
s-23.167 23.5 -40.5 23.5c-28.667 0 -59 -22.167 -91 -66.5s-58.833 -99 -80.5 -164s-32.5 -126.167 -32.5 -183.5c0 -27.333 3 -47 9 -59s14.667 -18 26 -18c18.667 0 41 14.333 67 43zM229.498 722.501c13.667 13.667 29.167 20.5 46.5 20.5
c14 0 25.833 -4.83301 35.5 -14.5s14.5 -21.5 14.5 -35.5c0 -16.667 -6.66699 -31.834 -20 -45.501s-29 -20.5 -47 -20.5c-14.667 0 -26.667 4.83301 -36 14.5s-14 21.834 -14 36.501c0 16 6.83301 30.833 20.5 44.5zM441.498 722.501c13.667 13.667 29.167 20.5 46.5 20.5
c14 0 25.833 -4.83301 35.5 -14.5s14.5 -21.5 14.5 -35.5c0 -16.667 -6.66699 -31.834 -20 -45.501s-29 -20.5 -47 -20.5c-14.667 0 -26.667 4.83301 -36 14.5s-14 21.834 -14 36.501c0 16 6.83301 30.833 20.5 44.5z" />
    <glyph glyph-name="aring" unicode="&#xe5;" horiz-adv-x="523" 
d="M455 163l18.998 0.000976562l-25 -73c-13.333 -36.667 -30.333 -63.167 -51 -79.5s-42 -24.5 -64 -24.5c-12.667 0 -23.667 2.33301 -33 7s-16.666 11 -21.999 19c-6 10 -9 21.667 -9 35c0 14 2.33301 29.667 7 47l9 33l18 72c-32 -74.667 -64.5 -128.834 -97.5 -162.501
s-67.5 -50.5 -103.5 -50.5c-30.667 0 -54 11 -70 33s-24 51.333 -24 88c0 54 14.333 114.333 43 181s66 123.334 112 170.001s92.667 70 140 70c18 0 32.667 -6.66699 44 -20s18 -32 20 -56l16 62c36.667 1.33301 67.334 6 92.001 14l-125 -442l-4 -15.5
c-2 -7.66699 -3 -14.834 -3 -21.501c0 -16.667 7.33301 -25 22 -25c29.333 0 55 34 77 102zM198.998 61.001c26 28.667 51.5 66.834 76.5 114.501s45.5 98.5 61.5 152.5l18 71c0.666992 5.33301 1 12.666 1 21.999c0 27.333 -4.83301 48.833 -14.5 64.5
s-23.167 23.5 -40.5 23.5c-28.667 0 -59 -22.167 -91 -66.5s-58.833 -99 -80.5 -164s-32.5 -126.167 -32.5 -183.5c0 -27.333 3 -47 9 -59s14.667 -18 26 -18c18.667 0 41 14.333 67 43zM452.498 769.001c16.333 -14.667 24.5 -34 24.5 -58
c0 -28 -11.167 -52.167 -33.5 -72.5s-48.5 -30.5 -78.5 -30.5c-24 0 -43.833 7.16699 -59.5 21.5s-23.5 33.833 -23.5 58.5c0 28.667 10.667 53 32 73s47 30 77 30c24.667 0 45.167 -7.33301 61.5 -22zM425.998 653.001c16.667 16 25 35.667 25 59
c0 18 -6.5 32.167 -19.5 42.5s-27.833 15.5 -44.5 15.5c-20.667 0 -39 -8.16699 -55 -24.5s-24 -35.166 -24 -56.499c0 -18.667 6.16699 -33.334 18.5 -44.001s26.5 -16 42.5 -16c21.333 0 40.333 8 57 24z" />
    <glyph glyph-name="ae" unicode="&#xe6;" horiz-adv-x="659" 
d="M554.5 316c-60.333 -38.667 -130.169 -70.665 -209.502 -95.998c-6.66699 -35.333 -10 -67.333 -10 -96c0 -64 23 -96 69 -96c54.667 0 104.667 33.333 150 100l20 -8c-21.333 -36.667 -50.166 -68.167 -86.499 -94.5s-74.5 -39.5 -114.5 -39.5
c-32.667 0 -59.834 7.5 -81.501 22.5s-36.5 37.167 -44.5 66.5c-38 -59.333 -86 -89 -144 -89c-33.333 0 -58.333 10 -75 30s-25 47 -25 81c0 57.333 18.167 119.166 54.5 185.499s82.333 122.166 138 167.499s109.834 68 162.501 68c12.667 0 24.834 -2.66699 36.501 -8
s21.5 -14.333 29.5 -27c40.667 30 83 45 127 45c28 0 50.667 -6.5 68 -19.5s26 -31.833 26 -56.5c0 -52 -30.167 -97.333 -90.5 -136zM463.997 471.502c-24 -25 -46.335 -58.332 -67.002 -99.999s-36.667 -85.834 -48 -132.501c66 23.333 112 45 138 65
c24.667 19.333 43.834 42.833 57.501 70.5s20.5 57.5 20.5 89.5c0 14 -3.16699 25 -9.5 33s-15.166 12 -26.499 12c-19.333 0 -41 -12.5 -65 -37.5zM188.495 37.0029c19 12.667 37.166 32.667 54.499 60c-1.33301 13.333 -2 23.333 -2 30
c0 34.667 7.16699 73.834 21.5 117.501s34.5 86 60.5 127s55.333 74.833 88 101.5c-11.333 16 -26.666 24 -45.999 24c-35.333 0 -74.833 -20.167 -118.5 -60.5s-80.5 -92.333 -110.5 -156s-45 -128.834 -45 -195.501c0 -20.667 3.66699 -37 11 -49s18.333 -18 33 -18
c16.667 0 34.5 6.33301 53.5 19z" />
    <glyph glyph-name="ccedilla" unicode="&#xe7;" horiz-adv-x="432" 
d="M223.5 454c-33 -36 -60.002 -83.667 -81.002 -143s-31.5 -121.666 -31.5 -186.999c0 -32.667 6.16699 -56.834 18.5 -72.501s29.5 -23.5 51.5 -23.5c54.667 0 104.667 33.333 150 100l20 -8c-21.333 -36.667 -50.166 -68.167 -86.499 -94.5s-74.5 -39.5 -114.5 -39.5
c-40.667 0 -72.834 12.5 -96.501 37.5s-35.5 61.5 -35.5 109.5c0 54 12.667 112 38 174s61 114.333 107 157s98.333 64 157 64c30.667 0 56.334 -7.66699 77.001 -23s31 -36 31 -62c0 -20.667 -6.66699 -39.167 -20 -55.5s-30.333 -24.5 -51 -24.5
c-13.333 0 -23.5 3.66699 -30.5 11s-10.5 16.666 -10.5 27.999c0 18.667 7.33301 34.834 22 48.501s32.334 22.5 53.001 26.5c-14 20.667 -36.667 31 -68 31c-33.333 0 -66.5 -18 -99.5 -54zM122.998 -72c12.667 4.66699 26.333 7.00098 41 7.00098
c13.333 0 23.833 -3.5 31.5 -10.5s11.5 -16.833 11.5 -29.5c0 -26.667 -12.833 -47.167 -38.5 -61.5s-53.834 -21.5 -84.501 -21.5c-17.333 0 -33.166 2.16699 -47.499 6.5s-25.166 9.5 -32.499 15.5l7 15c19.333 -8.66699 39.333 -13 60 -13
c15.333 0 31.166 4.16699 47.499 12.5s24.5 21.166 24.5 38.499c0 16 -9.33301 24 -28 24c-10.667 0 -21 -2.33301 -31 -7l46 96h27z" />
    <glyph glyph-name="egrave" unicode="&#xe8;" horiz-adv-x="429" 
d="M325 320c-60.667 -40.667 -130.002 -73.6709 -208.002 -99.0039c-7.33301 -33.333 -11 -65.666 -11 -96.999c0 -64 23 -96 69 -96c57.333 0 108.666 33.333 153.999 100l16 -8c-21.333 -36.667 -50.166 -68.167 -86.499 -94.5s-74.5 -39.5 -114.5 -39.5
c-41.333 0 -73.666 12 -96.999 36s-35 59 -35 105c0 50.667 14.833 107.834 44.5 171.501s69.834 117.834 120.501 162.501s105.667 67 165 67c21.333 0 39 -5.66699 53 -17s21 -27.666 21 -48.999c0 -54 -30.333 -101.333 -91 -142zM248.498 471.496
c-26.333 -25 -51.001 -58.167 -74.001 -99.5s-40.5 -85.333 -52.5 -132c63.333 22 108.666 43.333 135.999 64c24.667 19.333 43.834 42.833 57.501 70.5s20.5 57.5 20.5 89.5c0 18 -1.33301 30 -4 36s-6.66699 9 -12 9c-21.333 0 -45.166 -12.5 -71.499 -37.5z
M235.997 716.996l-22.498 27.501c-11.667 14.333 -21.167 27.5 -28.5 39.5c-6.66699 11.333 -10 22 -10 32c0 13.333 5.33301 22.666 16 27.999c4.66699 2 10 3 16 3c16.667 0 31 -10.333 43 -31c6.66699 -11.333 17.667 -36.333 33 -75
c17.333 -46 36.666 -91.333 57.999 -136l-13 -6c-24.667 34 -55.334 73.333 -92.001 118z" />
    <glyph glyph-name="eacute" unicode="&#xe9;" horiz-adv-x="429" 
d="M325 320c-60.667 -40.667 -130.002 -73.6709 -208.002 -99.0039c-7.33301 -33.333 -11 -65.666 -11 -96.999c0 -64 23 -96 69 -96c57.333 0 108.666 33.333 153.999 100l16 -8c-21.333 -36.667 -50.166 -68.167 -86.499 -94.5s-74.5 -39.5 -114.5 -39.5
c-41.333 0 -73.666 12 -96.999 36s-35 59 -35 105c0 50.667 14.833 107.834 44.5 171.501s69.834 117.834 120.501 162.501s105.667 67 165 67c21.333 0 39 -5.66699 53 -17s21 -27.666 21 -48.999c0 -54 -30.333 -101.333 -91 -142zM248.498 471.496
c-26.333 -25 -51.001 -58.167 -74.001 -99.5s-40.5 -85.333 -52.5 -132c63.333 22 108.666 43.333 135.999 64c24.667 19.333 43.834 42.833 57.501 70.5s20.5 57.5 20.5 89.5c0 18 -1.33301 30 -4 36s-6.66699 9 -12 9c-21.333 0 -45.166 -12.5 -71.499 -37.5z
M360.997 725.996c25.333 34.667 44.668 58.6641 58.001 71.9971c12.667 14.667 26.334 22 41.001 22c9.33301 0 16.666 -2.33301 21.999 -7c5.33301 -5.33301 8 -11.666 8 -18.999c0 -13.333 -7.66699 -27.666 -23 -42.999c-14.667 -15.333 -37.334 -33.666 -68.001 -54.999
c-4.66699 -3.33301 -18.667 -14.166 -42 -32.499l-78 -64.5l-10 9c26 31.333 56.667 70.666 92 117.999z" />
    <glyph glyph-name="ecircumflex" unicode="&#xea;" horiz-adv-x="429" 
d="M325 320c-60.667 -40.667 -130.002 -73.6709 -208.002 -99.0039c-7.33301 -33.333 -11 -65.666 -11 -96.999c0 -64 23 -96 69 -96c57.333 0 108.666 33.333 153.999 100l16 -8c-21.333 -36.667 -50.166 -68.167 -86.499 -94.5s-74.5 -39.5 -114.5 -39.5
c-41.333 0 -73.666 12 -96.999 36s-35 59 -35 105c0 50.667 14.833 107.834 44.5 171.501s69.834 117.834 120.501 162.501s105.667 67 165 67c21.333 0 39 -5.66699 53 -17s21 -27.666 21 -48.999c0 -54 -30.333 -101.333 -91 -142zM248.498 471.496
c-26.333 -25 -51.001 -58.167 -74.001 -99.5s-40.5 -85.333 -52.5 -132c63.333 22 108.666 43.333 135.999 64c24.667 19.333 43.834 42.833 57.501 70.5s20.5 57.5 20.5 89.5c0 18 -1.33301 30 -4 36s-6.66699 9 -12 9c-21.333 0 -45.166 -12.5 -71.499 -37.5z
M236.997 661.996c-30.667 -18.667 -61 -34.0029 -91 -46.0029l-5 14c43.333 18.667 84 43.334 122 74.001s69 63.334 93 98.001h18c7.33301 -42 20 -76.333 38 -103s45 -49.667 81 -69l-4 -14c-38.667 10.667 -70.5 24.334 -95.5 41.001s-49.167 37.667 -72.5 63
c-25.333 -20 -53.333 -39.333 -84 -58z" />
    <glyph glyph-name="edieresis" unicode="&#xeb;" horiz-adv-x="429" 
d="M325 320c-60.667 -40.667 -130.002 -73.6709 -208.002 -99.0039c-7.33301 -33.333 -11 -65.666 -11 -96.999c0 -64 23 -96 69 -96c57.333 0 108.666 33.333 153.999 100l16 -8c-21.333 -36.667 -50.166 -68.167 -86.499 -94.5s-74.5 -39.5 -114.5 -39.5
c-41.333 0 -73.666 12 -96.999 36s-35 59 -35 105c0 50.667 14.833 107.834 44.5 171.501s69.834 117.834 120.501 162.501s105.667 67 165 67c21.333 0 39 -5.66699 53 -17s21 -27.666 21 -48.999c0 -54 -30.333 -101.333 -91 -142zM248.498 471.496
c-26.333 -25 -51.001 -58.167 -74.001 -99.5s-40.5 -85.333 -52.5 -132c63.333 22 108.666 43.333 135.999 64c24.667 19.333 43.834 42.833 57.501 70.5s20.5 57.5 20.5 89.5c0 18 -1.33301 30 -4 36s-6.66699 9 -12 9c-21.333 0 -45.166 -12.5 -71.499 -37.5z
M204.497 722.496c13.667 13.667 29.167 20.5 46.5 20.5c14 0 25.833 -4.83301 35.5 -14.5s14.5 -21.5 14.5 -35.5c0 -16.667 -6.66699 -31.834 -20 -45.501s-29 -20.5 -47 -20.5c-14.667 0 -26.667 4.83301 -36 14.5s-14 21.834 -14 36.501c0 16 6.83301 30.833 20.5 44.5z
M416.497 722.496c13.667 13.667 29.167 20.5 46.5 20.5c14 0 25.833 -4.83301 35.5 -14.5s14.5 -21.5 14.5 -35.5c0 -16.667 -6.66699 -31.834 -20 -45.501s-29 -20.5 -47 -20.5c-14.667 0 -26.667 4.83301 -36 14.5s-14 21.834 -14 36.501c0 16 6.83301 30.833 20.5 44.5z
" />
    <glyph glyph-name="igrave" unicode="&#xec;" horiz-adv-x="302" 
d="M166 466c0 16.667 -7.33203 25.002 -21.999 25.002c-15.333 0 -29 -8 -41 -24s-24.667 -42 -38 -78l-14 -37h-19l26 73c13.333 38 31.166 64.667 53.499 80s45.833 23 70.5 23c44 0 66 -21 66 -63c0 -22 -5.33301 -47.667 -16 -77l-107 -303
c-5.33301 -16 -8 -28.333 -8 -37c0 -16.667 8 -25 24 -25c14 0 27 7.66699 39 23s25 41.666 39 78.999l14 37h19l-26 -73c-13.333 -36.667 -30.833 -63 -52.5 -79s-45.167 -24 -70.5 -24c-46.667 0 -70 20.333 -70 61c0 19.333 6 45.666 18 78.999l107 303
c5.33301 16 8 28.333 8 37zM130.001 717.002l-22.498 27.501c-11.667 14.333 -21.167 27.5 -28.5 39.5c-6.66699 11.333 -10 22 -10 32c0 13.333 5.33301 22.666 16 27.999c4.66699 2 10 3 16 3c16.667 0 31 -10.333 43 -31c6.66699 -11.333 17.667 -36.333 33 -75
c17.333 -46 36.666 -91.333 57.999 -136l-13 -6c-24.667 34 -55.334 73.333 -92.001 118z" />
    <glyph glyph-name="iacute" unicode="&#xed;" horiz-adv-x="302" 
d="M166 466c0 16.667 -7.33203 25.002 -21.999 25.002c-15.333 0 -29 -8 -41 -24s-24.667 -42 -38 -78l-14 -37h-19l26 73c13.333 38 31.166 64.667 53.499 80s45.833 23 70.5 23c44 0 66 -21 66 -63c0 -22 -5.33301 -47.667 -16 -77l-107 -303
c-5.33301 -16 -8 -28.333 -8 -37c0 -16.667 8 -25 24 -25c14 0 27 7.66699 39 23s25 41.666 39 78.999l14 37h19l-26 -73c-13.333 -36.667 -30.833 -63 -52.5 -79s-45.167 -24 -70.5 -24c-46.667 0 -70 20.333 -70 61c0 19.333 6 45.666 18 78.999l107 303
c5.33301 16 8 28.333 8 37zM255.001 726.002c25.333 34.667 44.668 58.6641 58.001 71.9971c12.667 14.667 26.334 22 41.001 22c9.33301 0 16.666 -2.33301 21.999 -7c5.33301 -5.33301 8 -11.666 8 -18.999c0 -13.333 -7.66699 -27.666 -23 -42.999
c-14.667 -15.333 -37.334 -33.666 -68.001 -54.999c-4.66699 -3.33301 -18.667 -14.166 -42 -32.499l-78 -64.5l-10 9c26 31.333 56.667 70.666 92 117.999z" />
    <glyph glyph-name="icircumflex" unicode="&#xee;" horiz-adv-x="302" 
d="M166 466c0 16.667 -7.33203 25.002 -21.999 25.002c-15.333 0 -29 -8 -41 -24s-24.667 -42 -38 -78l-14 -37h-19l26 73c13.333 38 31.166 64.667 53.499 80s45.833 23 70.5 23c44 0 66 -21 66 -63c0 -22 -5.33301 -47.667 -16 -77l-107 -303
c-5.33301 -16 -8 -28.333 -8 -37c0 -16.667 8 -25 24 -25c14 0 27 7.66699 39 23s25 41.666 39 78.999l14 37h19l-26 -73c-13.333 -36.667 -30.833 -63 -52.5 -79s-45.167 -24 -70.5 -24c-46.667 0 -70 20.333 -70 61c0 19.333 6 45.666 18 78.999l107 303
c5.33301 16 8 28.333 8 37zM131.001 662.002c-30.667 -18.667 -61 -34.0029 -91 -46.0029l-5 14c43.333 18.667 84 43.334 122 74.001s69 63.334 93 98.001h18c7.33301 -42 20 -76.333 38 -103s45 -49.667 81 -69l-4 -14c-38.667 10.667 -70.5 24.334 -95.5 41.001
s-49.167 37.667 -72.5 63c-25.333 -20 -53.333 -39.333 -84 -58z" />
    <glyph glyph-name="idieresis" unicode="&#xef;" horiz-adv-x="302" 
d="M166 466c0 16.667 -7.33203 25.002 -21.999 25.002c-15.333 0 -29 -8 -41 -24s-24.667 -42 -38 -78l-14 -37h-19l26 73c13.333 38 31.166 64.667 53.499 80s45.833 23 70.5 23c44 0 66 -21 66 -63c0 -22 -5.33301 -47.667 -16 -77l-107 -303
c-5.33301 -16 -8 -28.333 -8 -37c0 -16.667 8 -25 24 -25c14 0 27 7.66699 39 23s25 41.666 39 78.999l14 37h19l-26 -73c-13.333 -36.667 -30.833 -63 -52.5 -79s-45.167 -24 -70.5 -24c-46.667 0 -70 20.333 -70 61c0 19.333 6 45.666 18 78.999l107 303
c5.33301 16 8 28.333 8 37zM98.501 722.502c13.667 13.667 29.167 20.5 46.5 20.5c14 0 25.833 -4.83301 35.5 -14.5s14.5 -21.5 14.5 -35.5c0 -16.667 -6.66699 -31.834 -20 -45.501s-29 -20.5 -47 -20.5c-14.667 0 -26.667 4.83301 -36 14.5s-14 21.834 -14 36.501
c0 16 6.83301 30.833 20.5 44.5zM310.501 722.502c13.667 13.667 29.167 20.5 46.5 20.5c14 0 25.833 -4.83301 35.5 -14.5s14.5 -21.5 14.5 -35.5c0 -16.667 -6.66699 -31.834 -20 -45.501s-29 -20.5 -47 -20.5c-14.667 0 -26.667 4.83301 -36 14.5s-14 21.834 -14 36.501
c0 16 6.83301 30.833 20.5 44.5z" />
    <glyph glyph-name="eth" unicode="&#xf0;" horiz-adv-x="487" 
d="M345 675c68 -71.333 101.998 -165.001 101.998 -281.001c0 -60 -11.5 -121.667 -34.5 -185s-56.5 -116.333 -100.5 -159s-95.333 -64 -154 -64c-42.667 0 -76.167 13.167 -100.5 39.5s-36.5 65.5 -36.5 117.5s11.5 108.333 34.5 169s55.833 111.834 98.5 153.501
s91.667 62.5 147 62.5c20.667 0 38.334 -5 53.001 -15c-9.33301 53.333 -27.666 100.333 -54.999 141l-185 -82l-6 18l179 79c-30 37.333 -70.667 69.333 -122 96l12 17c62 -23.333 113.333 -54.333 154 -93l160 71l6 -18zM260.498 70.999
c30.333 43.333 54.6689 97.498 73.002 162.498s27.5 127.5 27.5 187.5c0 18.667 -1.33301 42.667 -4 72c-12.667 10 -31.334 15 -56.001 15c-33.333 0 -64.833 -21.667 -94.5 -65s-53.667 -97.666 -72 -162.999s-27.5 -127.666 -27.5 -186.999c0 -30 4.66699 -52 14 -66
s23.666 -21 42.999 -21c34 0 66.167 21.667 96.5 65z" />
    <glyph glyph-name="ntilde" unicode="&#xf1;" horiz-adv-x="580" 
d="M530 162l-25 -72.9971c-24 -68.667 -64.333 -103 -121 -103c-30 0 -51 9.66699 -63 29c-5.33301 8 -8 19 -8 33c0 18 5.66699 44 17 78l95 286c6.66699 22 10 38.333 10 49c0 23.333 -10.667 35 -32 35c-25.333 0 -54.166 -18.5 -86.499 -55.5
s-64.166 -87.833 -95.499 -152.5s-58.333 -136.334 -81 -215.001l-18 -73h-87l120 429c4.66699 17.333 7 29.666 7 36.999c0 16.667 -7.33301 25 -22 25s-27.667 -7.33301 -39 -22s-24 -41.334 -38 -80.001l-13 -37h-19l25 73c24 68.667 63.667 103 119 103
c21.333 0 36.5 -5.16699 45.5 -15.5s13.5 -24.833 13.5 -43.5c0 -18 -4.66699 -45 -14 -81l-35 -137c42.667 100.667 83.5 172 122.5 214s81.833 63 128.5 63c54 0 81 -25 81 -75c0 -22 -5 -47.333 -15 -76l-97 -292c-5.33301 -16 -8 -28.667 -8 -38c0 -16 8 -24 24 -24
c13.333 0 26.166 7.5 38.499 22.5s25.166 41.5 38.499 79.5l13 37h19zM369 757.503c12.667 -7 26 -16.833 40 -29.5c12.667 -11.333 23.5 -19.666 32.5 -24.999s19.833 -8 32.5 -8c25.333 0 48.666 19.333 69.999 58l18 -5c-14.667 -34.667 -33.667 -60.5 -57 -77.5
s-47.666 -25.5 -72.999 -25.5c-19.333 0 -35.333 3.5 -48 10.5s-26 16.833 -40 29.5c-12.667 11.333 -23.5 19.666 -32.5 24.999s-19.833 8 -32.5 8c-25.333 0 -48.666 -19.333 -69.999 -58l-18 5c14.667 34.667 33.667 60.5 57 77.5s47.666 25.5 72.999 25.5
c19.333 0 35.333 -3.5 48 -10.5z" />
    <glyph glyph-name="ograve" unicode="&#xf2;" horiz-adv-x="488" 
d="M56 312.5c23.333 60.333 57 111.333 101 153s95 62.5 153 62.5c42.667 0 76.167 -13.167 100.5 -39.5s36.5 -65.5 36.5 -117.5c0 -52.667 -11.667 -109.167 -35 -169.5s-57 -111.333 -101 -153s-95 -62.5 -153 -62.5c-42.667 0 -76.167 13.167 -100.5 39.5
s-36.5 65.5 -36.5 117.5c0 52.667 11.667 109.167 35 169.5zM207.5 443c-30.333 -43.333 -54.666 -97.5 -72.999 -162.5s-27.5 -127.5 -27.5 -187.5c0 -30 4.66699 -52 14 -66s23.666 -21 42.999 -21c34 0 66.167 21.667 96.5 65s54.666 97.5 72.999 162.5
s27.5 127.5 27.5 187.5c0 30 -4.66699 52 -14 66s-23.666 21 -42.999 21c-34 0 -66.167 -21.667 -96.5 -65zM256 717l-22.498 27.501c-11.667 14.333 -21.167 27.5 -28.5 39.5c-6.66699 11.333 -10 22 -10 32c0 13.333 5.33301 22.666 16 27.999c4.66699 2 10 3 16 3
c16.667 0 31 -10.333 43 -31c6.66699 -11.333 17.667 -36.333 33 -75c17.333 -46 36.666 -91.333 57.999 -136l-13 -6c-24.667 34 -55.334 73.333 -92.001 118z" />
    <glyph glyph-name="oacute" unicode="&#xf3;" horiz-adv-x="488" 
d="M56 312.5c23.333 60.333 57 111.333 101 153s95 62.5 153 62.5c42.667 0 76.167 -13.167 100.5 -39.5s36.5 -65.5 36.5 -117.5c0 -52.667 -11.667 -109.167 -35 -169.5s-57 -111.333 -101 -153s-95 -62.5 -153 -62.5c-42.667 0 -76.167 13.167 -100.5 39.5
s-36.5 65.5 -36.5 117.5c0 52.667 11.667 109.167 35 169.5zM207.5 443c-30.333 -43.333 -54.666 -97.5 -72.999 -162.5s-27.5 -127.5 -27.5 -187.5c0 -30 4.66699 -52 14 -66s23.666 -21 42.999 -21c34 0 66.167 21.667 96.5 65s54.666 97.5 72.999 162.5
s27.5 127.5 27.5 187.5c0 30 -4.66699 52 -14 66s-23.666 21 -42.999 21c-34 0 -66.167 -21.667 -96.5 -65zM381 726c25.333 34.667 44.668 58.6641 58.001 71.9971c12.667 14.667 26.334 22 41.001 22c9.33301 0 16.666 -2.33301 21.999 -7
c5.33301 -5.33301 8 -11.666 8 -18.999c0 -13.333 -7.66699 -27.666 -23 -42.999c-14.667 -15.333 -37.334 -33.666 -68.001 -54.999c-4.66699 -3.33301 -18.667 -14.166 -42 -32.499l-78 -64.5l-10 9c26 31.333 56.667 70.666 92 117.999z" />
    <glyph glyph-name="ocircumflex" unicode="&#xf4;" horiz-adv-x="488" 
d="M56 312.5c23.333 60.333 57 111.333 101 153s95 62.5 153 62.5c42.667 0 76.167 -13.167 100.5 -39.5s36.5 -65.5 36.5 -117.5c0 -52.667 -11.667 -109.167 -35 -169.5s-57 -111.333 -101 -153s-95 -62.5 -153 -62.5c-42.667 0 -76.167 13.167 -100.5 39.5
s-36.5 65.5 -36.5 117.5c0 52.667 11.667 109.167 35 169.5zM207.5 443c-30.333 -43.333 -54.666 -97.5 -72.999 -162.5s-27.5 -127.5 -27.5 -187.5c0 -30 4.66699 -52 14 -66s23.666 -21 42.999 -21c34 0 66.167 21.667 96.5 65s54.666 97.5 72.999 162.5
s27.5 127.5 27.5 187.5c0 30 -4.66699 52 -14 66s-23.666 21 -42.999 21c-34 0 -66.167 -21.667 -96.5 -65zM257 662c-30.667 -18.667 -61 -34.0029 -91 -46.0029l-5 14c43.333 18.667 84 43.334 122 74.001s69 63.334 93 98.001h18c7.33301 -42 20 -76.333 38 -103
s45 -49.667 81 -69l-4 -14c-38.667 10.667 -70.5 24.334 -95.5 41.001s-49.167 37.667 -72.5 63c-25.333 -20 -53.333 -39.333 -84 -58z" />
    <glyph glyph-name="otilde" unicode="&#xf5;" horiz-adv-x="488" 
d="M56 312.5c23.333 60.333 57 111.333 101 153s95 62.5 153 62.5c42.667 0 76.167 -13.167 100.5 -39.5s36.5 -65.5 36.5 -117.5c0 -52.667 -11.667 -109.167 -35 -169.5s-57 -111.333 -101 -153s-95 -62.5 -153 -62.5c-42.667 0 -76.167 13.167 -100.5 39.5
s-36.5 65.5 -36.5 117.5c0 52.667 11.667 109.167 35 169.5zM207.5 443c-30.333 -43.333 -54.666 -97.5 -72.999 -162.5s-27.5 -127.5 -27.5 -187.5c0 -30 4.66699 -52 14 -66s23.666 -21 42.999 -21c34 0 66.167 21.667 96.5 65s54.666 97.5 72.999 162.5
s27.5 127.5 27.5 187.5c0 30 -4.66699 52 -14 66s-23.666 21 -42.999 21c-34 0 -66.167 -21.667 -96.5 -65zM352 757.5c12.667 -7 26 -16.833 40 -29.5c12.667 -11.333 23.5 -19.666 32.5 -24.999s19.833 -8 32.5 -8c25.333 0 48.666 19.333 69.999 58l18 -5
c-14.667 -34.667 -33.667 -60.5 -57 -77.5s-47.666 -25.5 -72.999 -25.5c-19.333 0 -35.333 3.5 -48 10.5s-26 16.833 -40 29.5c-12.667 11.333 -23.5 19.666 -32.5 24.999s-19.833 8 -32.5 8c-25.333 0 -48.666 -19.333 -69.999 -58l-18 5
c14.667 34.667 33.667 60.5 57 77.5s47.666 25.5 72.999 25.5c19.333 0 35.333 -3.5 48 -10.5z" />
    <glyph glyph-name="odieresis" unicode="&#xf6;" horiz-adv-x="488" 
d="M56 312.5c23.333 60.333 57 111.333 101 153s95 62.5 153 62.5c42.667 0 76.167 -13.167 100.5 -39.5s36.5 -65.5 36.5 -117.5c0 -52.667 -11.667 -109.167 -35 -169.5s-57 -111.333 -101 -153s-95 -62.5 -153 -62.5c-42.667 0 -76.167 13.167 -100.5 39.5
s-36.5 65.5 -36.5 117.5c0 52.667 11.667 109.167 35 169.5zM207.5 443c-30.333 -43.333 -54.666 -97.5 -72.999 -162.5s-27.5 -127.5 -27.5 -187.5c0 -30 4.66699 -52 14 -66s23.666 -21 42.999 -21c34 0 66.167 21.667 96.5 65s54.666 97.5 72.999 162.5
s27.5 127.5 27.5 187.5c0 30 -4.66699 52 -14 66s-23.666 21 -42.999 21c-34 0 -66.167 -21.667 -96.5 -65zM224.5 722.5c13.667 13.667 29.167 20.5 46.5 20.5c14 0 25.833 -4.83301 35.5 -14.5s14.5 -21.5 14.5 -35.5c0 -16.667 -6.66699 -31.834 -20 -45.501
s-29 -20.5 -47 -20.5c-14.667 0 -26.667 4.83301 -36 14.5s-14 21.834 -14 36.501c0 16 6.83301 30.833 20.5 44.5zM436.5 722.5c13.667 13.667 29.167 20.5 46.5 20.5c14 0 25.833 -4.83301 35.5 -14.5s14.5 -21.5 14.5 -35.5c0 -16.667 -6.66699 -31.834 -20 -45.501
s-29 -20.5 -47 -20.5c-14.667 0 -26.667 4.83301 -36 14.5s-14 21.834 -14 36.501c0 16 6.83301 30.833 20.5 44.5z" />
    <glyph glyph-name="divide" unicode="&#xf7;" horiz-adv-x="657" 
d="M355 532c15.333 14.667 31.999 22.001 49.999 22.001c12.667 0 22.834 -3.66699 30.501 -11s11.5 -17 11.5 -29c0 -18.667 -7.66699 -35 -23 -49s-32.333 -21 -51 -21c-12.667 0 -22.667 3.66699 -30 11s-11 16.666 -11 27.999c0 18 7.66699 34.333 23 49z
M95.999 370.001h501l-9 -30h-501zM271.999 244.001c15.333 14.667 31.999 22 49.999 22c12.667 0 22.834 -3.66699 30.501 -11s11.5 -17 11.5 -29c0 -18.667 -7.66699 -35.167 -23 -49.5s-32.333 -21.5 -51 -21.5c-12 0 -21.833 3.83301 -29.5 11.5s-11.5 17.167 -11.5 28.5
c0 18 7.66699 34.333 23 49z" />
    <glyph glyph-name="oslash" unicode="&#xf8;" horiz-adv-x="488" 
d="M421 474c17.333 -25.333 26 -59.667 26 -103c0 -52.667 -11.667 -109.167 -35 -169.5s-57 -111.333 -101 -153s-95 -62.5 -153 -62.5c-44.667 0 -79 14 -103 42l-84 -101l-14 13l86 105c-14.667 26 -22 58.667 -22 98c0 52.667 11.667 109.167 35 169.5
s57 111.333 101 153s95 62.5 153 62.5c42.667 0 76 -13 100 -39l80 97l13 -12zM211 447.499c-29.333 -40.333 -53.3311 -91.333 -71.998 -153s-29.334 -122.167 -32.001 -181.5l253 327c-2.66699 45.333 -21.334 68 -56.001 68c-32.667 0 -63.667 -20.167 -93 -60.5z
M259.502 68.499c29.667 41.667 53.668 94.167 72.001 157.5s28.166 125 29.499 185l-254 -331c2.66699 -49.333 21.667 -74 57 -74c34 0 65.833 20.833 95.5 62.5z" />
    <glyph glyph-name="ugrave" unicode="&#xf9;" horiz-adv-x="567" 
d="M499 162h18.998l-25 -73c-24 -68.667 -64.333 -103 -121 -103c-10.667 0 -20.667 2.33301 -30 7s-16.333 11.334 -21 20.001c-4 9.33301 -6 19.666 -6 30.999c0 17.333 4.66699 44.666 14 81.999l31 125c-38.667 -95.333 -76.334 -163.333 -113.001 -204
s-76.667 -61 -120 -61c-56 0 -84 25.667 -84 77c0 21.333 4.66699 46 14 74l97 292c5.33301 16 8 28.333 8 37c0 16.667 -8 25 -24 25c-13.333 0 -26.166 -7.5 -38.499 -22.5s-25.166 -41.5 -38.499 -79.5l-13 -37h-19l25 73c24 68.667 64.333 103 121 103
c46.667 0 70 -20.667 70 -62c0 -20 -5.33301 -46 -16 -78l-95 -286c-6.66699 -20 -10 -36.667 -10 -50c0 -22.667 10.667 -34 32 -34c26 0 54.667 19.167 86 57.5s62.333 91.5 93 159.5s57.334 144.667 80.001 230l12 49c38 1.33301 68.333 6 91 14l-124 -443
c-4.66699 -17.333 -7 -30.333 -7 -39c0 -15.333 7 -23 21 -23c14.667 0 28.167 7.83301 40.5 23.5s24.833 41.834 37.5 78.501zM245.998 717l-22.498 27.501c-11.667 14.333 -21.167 27.5 -28.5 39.5c-6.66699 11.333 -10 22 -10 32c0 13.333 5.33301 22.666 16 27.999
c4.66699 2 10 3 16 3c16.667 0 31 -10.333 43 -31c6.66699 -11.333 17.667 -36.333 33 -75c17.333 -46 36.666 -91.333 57.999 -136l-13 -6c-24.667 34 -55.334 73.333 -92.001 118z" />
    <glyph glyph-name="uacute" unicode="&#xfa;" horiz-adv-x="567" 
d="M499 162h18.998l-25 -73c-24 -68.667 -64.333 -103 -121 -103c-10.667 0 -20.667 2.33301 -30 7s-16.333 11.334 -21 20.001c-4 9.33301 -6 19.666 -6 30.999c0 17.333 4.66699 44.666 14 81.999l31 125c-38.667 -95.333 -76.334 -163.333 -113.001 -204
s-76.667 -61 -120 -61c-56 0 -84 25.667 -84 77c0 21.333 4.66699 46 14 74l97 292c5.33301 16 8 28.333 8 37c0 16.667 -8 25 -24 25c-13.333 0 -26.166 -7.5 -38.499 -22.5s-25.166 -41.5 -38.499 -79.5l-13 -37h-19l25 73c24 68.667 64.333 103 121 103
c46.667 0 70 -20.667 70 -62c0 -20 -5.33301 -46 -16 -78l-95 -286c-6.66699 -20 -10 -36.667 -10 -50c0 -22.667 10.667 -34 32 -34c26 0 54.667 19.167 86 57.5s62.333 91.5 93 159.5s57.334 144.667 80.001 230l12 49c38 1.33301 68.333 6 91 14l-124 -443
c-4.66699 -17.333 -7 -30.333 -7 -39c0 -15.333 7 -23 21 -23c14.667 0 28.167 7.83301 40.5 23.5s24.833 41.834 37.5 78.501zM370.998 726c25.333 34.667 44.668 58.6641 58.001 71.9971c12.667 14.667 26.334 22 41.001 22c9.33301 0 16.666 -2.33301 21.999 -7
c5.33301 -5.33301 8 -11.666 8 -18.999c0 -13.333 -7.66699 -27.666 -23 -42.999c-14.667 -15.333 -37.334 -33.666 -68.001 -54.999c-4.66699 -3.33301 -18.667 -14.166 -42 -32.499l-78 -64.5l-10 9c26 31.333 56.667 70.666 92 117.999z" />
    <glyph glyph-name="ucircumflex" unicode="&#xfb;" horiz-adv-x="567" 
d="M499 162h18.998l-25 -73c-24 -68.667 -64.333 -103 -121 -103c-10.667 0 -20.667 2.33301 -30 7s-16.333 11.334 -21 20.001c-4 9.33301 -6 19.666 -6 30.999c0 17.333 4.66699 44.666 14 81.999l31 125c-38.667 -95.333 -76.334 -163.333 -113.001 -204
s-76.667 -61 -120 -61c-56 0 -84 25.667 -84 77c0 21.333 4.66699 46 14 74l97 292c5.33301 16 8 28.333 8 37c0 16.667 -8 25 -24 25c-13.333 0 -26.166 -7.5 -38.499 -22.5s-25.166 -41.5 -38.499 -79.5l-13 -37h-19l25 73c24 68.667 64.333 103 121 103
c46.667 0 70 -20.667 70 -62c0 -20 -5.33301 -46 -16 -78l-95 -286c-6.66699 -20 -10 -36.667 -10 -50c0 -22.667 10.667 -34 32 -34c26 0 54.667 19.167 86 57.5s62.333 91.5 93 159.5s57.334 144.667 80.001 230l12 49c38 1.33301 68.333 6 91 14l-124 -443
c-4.66699 -17.333 -7 -30.333 -7 -39c0 -15.333 7 -23 21 -23c14.667 0 28.167 7.83301 40.5 23.5s24.833 41.834 37.5 78.501zM246.998 662c-30.667 -18.667 -61 -34.0029 -91 -46.0029l-5 14c43.333 18.667 84 43.334 122 74.001s69 63.334 93 98.001h18
c7.33301 -42 20 -76.333 38 -103s45 -49.667 81 -69l-4 -14c-38.667 10.667 -70.5 24.334 -95.5 41.001s-49.167 37.667 -72.5 63c-25.333 -20 -53.333 -39.333 -84 -58z" />
    <glyph glyph-name="udieresis" unicode="&#xfc;" horiz-adv-x="567" 
d="M499 162h18.998l-25 -73c-24 -68.667 -64.333 -103 -121 -103c-10.667 0 -20.667 2.33301 -30 7s-16.333 11.334 -21 20.001c-4 9.33301 -6 19.666 -6 30.999c0 17.333 4.66699 44.666 14 81.999l31 125c-38.667 -95.333 -76.334 -163.333 -113.001 -204
s-76.667 -61 -120 -61c-56 0 -84 25.667 -84 77c0 21.333 4.66699 46 14 74l97 292c5.33301 16 8 28.333 8 37c0 16.667 -8 25 -24 25c-13.333 0 -26.166 -7.5 -38.499 -22.5s-25.166 -41.5 -38.499 -79.5l-13 -37h-19l25 73c24 68.667 64.333 103 121 103
c46.667 0 70 -20.667 70 -62c0 -20 -5.33301 -46 -16 -78l-95 -286c-6.66699 -20 -10 -36.667 -10 -50c0 -22.667 10.667 -34 32 -34c26 0 54.667 19.167 86 57.5s62.333 91.5 93 159.5s57.334 144.667 80.001 230l12 49c38 1.33301 68.333 6 91 14l-124 -443
c-4.66699 -17.333 -7 -30.333 -7 -39c0 -15.333 7 -23 21 -23c14.667 0 28.167 7.83301 40.5 23.5s24.833 41.834 37.5 78.501zM214.498 722.5c13.667 13.667 29.167 20.5 46.5 20.5c14 0 25.833 -4.83301 35.5 -14.5s14.5 -21.5 14.5 -35.5
c0 -16.667 -6.66699 -31.834 -20 -45.501s-29 -20.5 -47 -20.5c-14.667 0 -26.667 4.83301 -36 14.5s-14 21.834 -14 36.501c0 16 6.83301 30.833 20.5 44.5zM426.498 722.5c13.667 13.667 29.167 20.5 46.5 20.5c14 0 25.833 -4.83301 35.5 -14.5s14.5 -21.5 14.5 -35.5
c0 -16.667 -6.66699 -31.834 -20 -45.501s-29 -20.5 -47 -20.5c-14.667 0 -26.667 4.83301 -36 14.5s-14 21.834 -14 36.501c0 16 6.83301 30.833 20.5 44.5z" />
    <glyph glyph-name="yacute" unicode="&#xfd;" horiz-adv-x="481" 
d="M458 447c0 -63.333 -19.6689 -136.67 -59.002 -220.003s-85.333 -158 -138 -224c-62 -77.333 -127.667 -132.666 -197 -165.999c-35.333 -16.667 -64.333 -25 -87 -25c-14 0 -25.833 3.66699 -35.5 11s-14.5 17.333 -14.5 30c0 14 5.33301 25 16 33s23.334 12 38.001 12
c14 0 27.5 -3.5 40.5 -10.5s27.167 -16.5 42.5 -28.5c52 28 102 68 150 120l-74 448c-3.33301 20.667 -7.33301 35 -12 43s-11.334 12 -20.001 12s-17.5 -6.5 -26.5 -19.5s-19.833 -37.167 -32.5 -72.5l-13 -37h-19l25 73c23.333 68 61.666 102 114.999 102
c21.333 0 37.5 -6.66699 48.5 -20s18.833 -37.333 23.5 -72l51 -376c36.667 50.667 68.334 103.834 95.001 159.501s45.334 110.834 56.001 165.501c-20 10.667 -37.667 23.834 -53 39.501s-23 33.167 -23 52.5c0 15.333 4.83301 27.666 14.5 36.999s21.834 14 36.501 14
c34.667 0 52 -27 52 -81zM338.998 725.996c25.333 34.667 44.668 58.6641 58.001 71.9971c12.667 14.667 26.334 22 41.001 22c9.33301 0 16.666 -2.33301 21.999 -7c5.33301 -5.33301 8 -11.666 8 -18.999c0 -13.333 -7.66699 -27.666 -23 -42.999
c-14.667 -15.333 -37.334 -33.666 -68.001 -54.999c-4.66699 -3.33301 -18.667 -14.166 -42 -32.499l-78 -64.5l-10 9c26 31.333 56.667 70.666 92 117.999z" />
    <glyph glyph-name="thorn" unicode="&#xfe;" horiz-adv-x="551" 
d="M485.5 492.5c18.333 -23.667 27.499 -58.833 27.499 -105.5c0 -54 -12 -112.5 -36 -175.5s-58.333 -116.333 -103 -160s-96 -65.5 -154 -65.5c-18.667 0 -35.167 5 -49.5 15s-24.833 24.333 -31.5 43l-38 -132c-2.66699 -8 -4 -16 -4 -24
c0 -17.333 7.33301 -29.666 22 -36.999s35.667 -11 63 -11l-6 -21l-21 1c-58 2 -95.667 3 -113 3c-18 0 -55 -1.33301 -111 -4l6 21c24 0 41.333 4.33301 52 13s19.334 25 26.001 49l188 666c-20 -44 -43.5 -83 -70.5 -117s-60.167 -69.667 -99.5 -107l-11 13
c32 31.333 58.333 58.833 79 82.5s41.667 52.667 63 87s42.333 76.166 63 125.499l36 129c36 1.33301 66.333 6 91 14l-126 -440c29.333 61.333 58.5 105.5 87.5 132.5s60.167 40.5 93.5 40.5c32.667 0 58.167 -11.833 76.5 -35.5zM319.999 75.501
c32 44.333 57.8311 98.167 77.498 161.5s29.5 120.666 29.5 171.999c0 28.667 -4.16699 50.334 -12.5 65.001s-19.833 22 -34.5 22c-17.333 0 -37.333 -11.167 -60 -33.5s-45 -52.5 -67 -90.5s-40.667 -79 -56 -123l-51 -180c8.66699 -22 18.834 -37.5 30.501 -46.5
s25.834 -13.5 42.501 -13.5c35.333 0 69 22.167 101 66.5z" />
    <glyph glyph-name="ydieresis" unicode="&#xff;" horiz-adv-x="481" 
d="M458 447c0 -63.333 -19.6689 -136.67 -59.002 -220.003s-85.333 -158 -138 -224c-62 -77.333 -127.667 -132.666 -197 -165.999c-35.333 -16.667 -64.333 -25 -87 -25c-14 0 -25.833 3.66699 -35.5 11s-14.5 17.333 -14.5 30c0 14 5.33301 25 16 33s23.334 12 38.001 12
c14 0 27.5 -3.5 40.5 -10.5s27.167 -16.5 42.5 -28.5c52 28 102 68 150 120l-74 448c-3.33301 20.667 -7.33301 35 -12 43s-11.334 12 -20.001 12s-17.5 -6.5 -26.5 -19.5s-19.833 -37.167 -32.5 -72.5l-13 -37h-19l25 73c23.333 68 61.666 102 114.999 102
c21.333 0 37.5 -6.66699 48.5 -20s18.833 -37.333 23.5 -72l51 -376c36.667 50.667 68.334 103.834 95.001 159.501s45.334 110.834 56.001 165.501c-20 10.667 -37.667 23.834 -53 39.501s-23 33.167 -23 52.5c0 15.333 4.83301 27.666 14.5 36.999s21.834 14 36.501 14
c34.667 0 52 -27 52 -81zM182.498 722.496c13.667 13.667 29.167 20.5 46.5 20.5c14 0 25.833 -4.83301 35.5 -14.5s14.5 -21.5 14.5 -35.5c0 -16.667 -6.66699 -31.834 -20 -45.501s-29 -20.5 -47 -20.5c-14.667 0 -26.667 4.83301 -36 14.5s-14 21.834 -14 36.501
c0 16 6.83301 30.833 20.5 44.5zM394.498 722.496c13.667 13.667 29.167 20.5 46.5 20.5c14 0 25.833 -4.83301 35.5 -14.5s14.5 -21.5 14.5 -35.5c0 -16.667 -6.66699 -31.834 -20 -45.501s-29 -20.5 -47 -20.5c-14.667 0 -26.667 4.83301 -36 14.5s-14 21.834 -14 36.501
c0 16 6.83301 30.833 20.5 44.5z" />
    <glyph glyph-name="Amacron" unicode="&#x100;" horiz-adv-x="629" 
d="M521 36c9.33301 -10 20.002 -15.334 32.002 -16.001l-4 -20c-26.667 2 -63 3 -109 3c-54 0 -94 -1 -120 -3l4 20c22.667 1.33301 40.167 4.16602 52.5 8.49902s21.166 12.333 26.499 24s7.66602 28.834 6.99902 51.501l-9 164h-246l-75 -106c-31.333 -44 -47 -77 -47 -99
c0 -27.333 24.667 -41.666 74 -42.999l-5 -20c-36.667 2 -74.667 3 -114 3c-28.667 0 -53.667 -1 -75 -3l5 20c30.667 6.66699 64 35.667 100 87l431 606h15l40 -629c2 -22 7.66699 -38 17 -48zM400.002 287.999l-17 303l-214 -303h231zM632.002 818.999h-352l6 25h352z" />
    <glyph glyph-name="amacron" unicode="&#x101;" horiz-adv-x="523" 
d="M455 163l18.998 0.000976562l-25 -73c-13.333 -36.667 -30.333 -63.167 -51 -79.5s-42 -24.5 -64 -24.5c-12.667 0 -23.667 2.33301 -33 7s-16.666 11 -21.999 19c-6 10 -9 21.667 -9 35c0 14 2.33301 29.667 7 47l9 33l18 72c-32 -74.667 -64.5 -128.834 -97.5 -162.501
s-67.5 -50.5 -103.5 -50.5c-30.667 0 -54 11 -70 33s-24 51.333 -24 88c0 54 14.333 114.333 43 181s66 123.334 112 170.001s92.667 70 140 70c18 0 32.667 -6.66699 44 -20s18 -32 20 -56l16 62c36.667 1.33301 67.334 6 92.001 14l-125 -442l-4 -15.5
c-2 -7.66699 -3 -14.834 -3 -21.501c0 -16.667 7.33301 -25 22 -25c29.333 0 55 34 77 102zM198.998 61.001c26 28.667 51.5 66.834 76.5 114.501s45.5 98.5 61.5 152.5l18 71c0.666992 5.33301 1 12.666 1 21.999c0 27.333 -4.83301 48.833 -14.5 64.5
s-23.167 23.5 -40.5 23.5c-28.667 0 -59 -22.167 -91 -66.5s-58.833 -99 -80.5 -164s-32.5 -126.167 -32.5 -183.5c0 -27.333 3 -47 9 -59s14.667 -18 26 -18c18.667 0 41 14.333 67 43zM524.998 687.001h-312l6 25h312z" />
    <glyph glyph-name="Abreve" unicode="&#x102;" horiz-adv-x="629" 
d="M521 36c9.33301 -10 20.002 -15.334 32.002 -16.001l-4 -20c-26.667 2 -63 3 -109 3c-54 0 -94 -1 -120 -3l4 20c22.667 1.33301 40.167 4.16602 52.5 8.49902s21.166 12.333 26.499 24s7.66602 28.834 6.99902 51.501l-9 164h-246l-75 -106c-31.333 -44 -47 -77 -47 -99
c0 -27.333 24.667 -41.666 74 -42.999l-5 -20c-36.667 2 -74.667 3 -114 3c-28.667 0 -53.667 -1 -75 -3l5 20c30.667 6.66699 64 35.667 100 87l431 606h15l40 -629c2 -22 7.66699 -38 17 -48zM400.002 287.999l-17 303l-214 -303h231zM594.502 863.999
c40.333 10 75.8359 24.334 106.503 43.001l10 -11c-28.667 -28.667 -67.334 -54.834 -116.001 -78.501s-92.667 -35.5 -132 -35.5c-41.333 0 -75 10.833 -101 32.5s-42.667 49.5 -50 83.5l16 5c17.333 -20 37.666 -34 60.999 -42s53.666 -12 90.999 -12
c36 0 74.167 5 114.5 15z" />
    <glyph glyph-name="abreve" unicode="&#x103;" horiz-adv-x="523" 
d="M455 163l18.998 0.000976562l-25 -73c-13.333 -36.667 -30.333 -63.167 -51 -79.5s-42 -24.5 -64 -24.5c-12.667 0 -23.667 2.33301 -33 7s-16.666 11 -21.999 19c-6 10 -9 21.667 -9 35c0 14 2.33301 29.667 7 47l9 33l18 72c-32 -74.667 -64.5 -128.834 -97.5 -162.501
s-67.5 -50.5 -103.5 -50.5c-30.667 0 -54 11 -70 33s-24 51.333 -24 88c0 54 14.333 114.333 43 181s66 123.334 112 170.001s92.667 70 140 70c18 0 32.667 -6.66699 44 -20s18 -32 20 -56l16 62c36.667 1.33301 67.334 6 92.001 14l-125 -442l-4 -15.5
c-2 -7.66699 -3 -14.834 -3 -21.501c0 -16.667 7.33301 -25 22 -25c29.333 0 55 34 77 102zM198.998 61.001c26 28.667 51.5 66.834 76.5 114.501s45.5 98.5 61.5 152.5l18 71c0.666992 5.33301 1 12.666 1 21.999c0 27.333 -4.83301 48.833 -14.5 64.5
s-23.167 23.5 -40.5 23.5c-28.667 0 -59 -22.167 -91 -66.5s-58.833 -99 -80.5 -164s-32.5 -126.167 -32.5 -183.5c0 -27.333 3 -47 9 -59s14.667 -18 26 -18c18.667 0 41 14.333 67 43zM473.998 723.501c38.667 15.667 71.998 37.165 99.998 64.498l10 -11
c-16 -22.667 -37.667 -45.167 -65 -67.5s-56.166 -40.666 -86.499 -54.999s-57.833 -21.5 -82.5 -21.5c-34.667 0 -62.5 13.5 -83.5 40.5s-34.833 62.167 -41.5 105.5l16 5c15.333 -31.333 32.333 -53.166 51 -65.499s43.667 -18.5 75 -18.5
c32.667 0 68.334 7.83301 107.001 23.5z" />
    <glyph glyph-name="Aogonek" unicode="&#x104;" horiz-adv-x="629" 
d="M521 36c9.33301 -10 20.002 -15.334 32.002 -16.001l-4 -20c-26.667 2 -63 3 -109 3c-54 0 -94 -1 -120 -3l4 20c22.667 1.33301 40.167 4.16602 52.5 8.49902s21.166 12.333 26.499 24s7.66602 28.834 6.99902 51.501l-9 164h-246l-75 -106c-31.333 -44 -47 -77 -47 -99
c0 -27.333 24.667 -41.666 74 -42.999l-5 -20c-36.667 2 -74.667 3 -114 3c-28.667 0 -53.667 -1 -75 -3l5 20c30.667 6.66699 64 35.667 100 87l431 606h15l40 -629c2 -22 7.66699 -38 17 -48zM400.002 287.999l-17 303l-214 -303h231zM466.002 -37.501
c-24 -18.333 -36.002 -40.167 -36.002 -65.5c0 -24.667 13 -37 39 -37c12.667 0 26.334 2.66699 41.001 8s26.667 11.333 36 18l11 -17c-40 -38 -83 -57 -129 -57c-24 0 -42.333 5.16699 -55 15.5s-19 24.5 -19 42.5c0 30 15.833 56.333 47.5 79s67.834 40.667 108.501 54
h38c-30.667 -8.66699 -58 -22.167 -82 -40.5z" />
    <glyph glyph-name="aogonek" unicode="&#x105;" horiz-adv-x="523" 
d="M455 163l18.998 0.000976562l-25 -73c-13.333 -36.667 -30.333 -63.167 -51 -79.5s-42 -24.5 -64 -24.5c-12.667 0 -23.667 2.33301 -33 7s-16.666 11 -21.999 19c-6 10 -9 21.667 -9 35c0 14 2.33301 29.667 7 47l9 33l18 72c-32 -74.667 -64.5 -128.834 -97.5 -162.501
s-67.5 -50.5 -103.5 -50.5c-30.667 0 -54 11 -70 33s-24 51.333 -24 88c0 54 14.333 114.333 43 181s66 123.334 112 170.001s92.667 70 140 70c18 0 32.667 -6.66699 44 -20s18 -32 20 -56l16 62c36.667 1.33301 67.334 6 92.001 14l-125 -442l-4 -15.5
c-2 -7.66699 -3 -14.834 -3 -21.501c0 -16.667 7.33301 -25 22 -25c29.333 0 55 34 77 102zM198.998 61.001c26 28.667 51.5 66.834 76.5 114.501s45.5 98.5 61.5 152.5l18 71c0.666992 5.33301 1 12.666 1 21.999c0 27.333 -4.83301 48.833 -14.5 64.5
s-23.167 23.5 -40.5 23.5c-28.667 0 -59 -22.167 -91 -66.5s-58.833 -99 -80.5 -164s-32.5 -126.167 -32.5 -183.5c0 -27.333 3 -47 9 -59s14.667 -18 26 -18c18.667 0 41 14.333 67 43zM307.498 -35.999c-25 -18.667 -37.501 -40.666 -37.501 -65.999
c0 -12.667 3.33301 -22.167 10 -28.5s16 -9.5 28 -9.5c12.667 0 25.334 2.83301 38.001 8.5s22.667 13.167 30 22.5l12 -11c-37.333 -45.333 -78 -68 -122 -68c-22.667 0 -40.334 5.33301 -53.001 16s-19 25 -19 43c0 29.333 15.833 55.166 47.5 77.499
s67.834 40.5 108.501 54.5h38c-28.667 -7.33301 -55.5 -20.333 -80.5 -39z" />
    <glyph glyph-name="Cacute" unicode="&#x106;" horiz-adv-x="670" 
d="M648 478l-22 -0.00292969c4 26 6 49 6 69c0 32 -5.33301 58.333 -16 79c-12 24.667 -29.833 43.834 -53.5 57.501s-49.5 20.5 -77.5 20.5c-55.333 0 -108.833 -26 -160.5 -78s-93.5 -117.5 -125.5 -196.5s-48 -155.5 -48 -229.5c0 -64 12.667 -112.667 38 -146
s60.333 -50 105 -50c29.333 0 60.333 6.83301 93 20.5s61 32.834 85 57.501c17.333 17.333 32.333 37.5 45 60.5s27.667 55.5 45 97.5h22c-31.333 -115.333 -51 -195.333 -59 -240h-22c2 14 3 25.333 3 34c0 17.333 -4 26 -12 26c-4.66699 0 -11.667 -3 -21 -9
c-34.667 -22.667 -65 -39.167 -91 -49.5s-58.667 -15.5 -98 -15.5c-74 0 -131.333 20 -172 60s-61 98.333 -61 175s19.167 154 57.5 232s91 142.333 158 193s140.5 76 220.5 76c38.667 0 68.167 -5.5 88.5 -16.5s40.5 -27.167 60.5 -48.5c4.66699 -6 9.66699 -9 15 -9
c6 0 12.167 4.83301 18.5 14.5s13.5 24.834 21.5 45.501h21c-22 -57.333 -43.333 -134 -64 -230zM556.5 838.497l46.5 34.502c32.667 25.333 56.667 42.666 72 51.999c12 7.33301 24.667 11 38 11c14 0 23.333 -5.33301 28 -16c1.33301 -4 2 -7.33301 2 -10
c0 -8.66699 -3.5 -16.834 -10.5 -24.501s-15.167 -14.167 -24.5 -19.5c-12.667 -7.33301 -28.167 -14.5 -46.5 -21.5l-32.5 -12.5c-58 -22 -105.667 -42 -143 -60l-7 11z" />
    </font>
</defs>
</svg>
