<?xml version="1.0" standalone="no"?>
<!DOCTYPE svg PUBLIC "-//W3C//DTD SVG 1.1//EN" "http://www.w3.org/Graphics/SVG/1.1/DTD/svg11.dtd" >
<svg>
<metadata>
Created by FontForge 20090914 at Thu Aug 16 10:06:38 2018
 By www-data
Copyright (c) 2014, Girish Dalvi, Ek Type. All rights reserved.
</metadata>
<defs>
<font id="Mukta-Medium" horiz-adv-x="0" >
  <font-face 
    font-family="Mukta Medium"
    font-weight="500"
    font-stretch="normal"
    units-per-em="1000"
    panose-1="2 11 0 0 0 0 0 0 0 0"
    ascent="800"
    descent="-200"
    x-height="472"
    cap-height="630"
    bbox="-691 -513.998 2020 1130"
    underline-thickness="20"
    underline-position="-113"
    unicode-range="U+000D-U+FB06"
  />
<missing-glyph horiz-adv-x="506" 
d="M0 699h506v-699h-506v699zM415 645h-324l162 -243zM447 112v476l-159 -238zM415 54l-162 243l-162 -243h324zM59 112l159 238l-159 238v-476z" />
    <glyph glyph-name="ff" unicode="ff" horiz-adv-x="631" 
d="M550 715c20.667 0 40.3301 -2.3291 58.9971 -6.99609s36.334 -11.334 53.001 -20.001l-24 -70c-12.667 5.33301 -23.5 9.16602 -32.5 11.499s-19.167 3.5 -30.5 3.5c-29.333 0 -50.5 -8.16699 -63.5 -24.5s-19.5 -44.5 -19.5 -84.5v-52h136v-76h-136v-396h-102v396h-200
v-396h-102v396h-70v76h70v80c0 52 14 92.167 42 120.5s67.333 42.5 118 42.5c20.667 0 40.334 -2.33301 59.001 -7s36.334 -11.334 53.001 -20.001l-24 -70c-12.667 5.33301 -23.5 9.16602 -32.5 11.499s-19.167 3.5 -30.5 3.5c-29.333 0 -50.5 -8.16699 -63.5 -24.5
s-19.5 -44.5 -19.5 -84.5v-52h200v80c0 52 14 92.167 42 120.5s67.333 42.5 118 42.5z" />
    <glyph glyph-name="fi" unicode="fi" horiz-adv-x="543" 
d="M377 0l-0.000976562 396.002h-187v-396h-102v396h-70v76h70v50c0 29.333 4.66699 55.833 14 79.5s22.5 44 39.5 61s37.833 30 62.5 39s52 13.5 82 13.5c20.667 0 43 -2.83301 67 -8.5s44.667 -12.834 62 -21.501l-21 -70c-12.667 5.33301 -26.5 9.66602 -41.5 12.999
s-29.167 5 -42.5 5c-39.333 0 -69.166 -9 -89.499 -27s-30.5 -49.667 -30.5 -95v-39h290v-472h-103z" />
    <glyph glyph-name="fl" unicode="fl" horiz-adv-x="549" 
d="M379 0l0.000976562 396h-189v-396h-102v396h-70v76h70v48c0 29.333 4.83301 56 14.5 80s23.5 44.5 41.5 61.5s39.667 30.167 65 39.5s53.666 14 84.999 14c42.667 0 79.5 -5.33301 110.5 -16s56.167 -21.667 75.5 -33v-666h-101zM190.001 472l189.001 0.000976562v149
c-10.667 3.33301 -21.834 6.16602 -33.501 8.49902s-22.5 3.5 -32.5 3.5c-40 0 -70.5 -9.16699 -91.5 -27.5s-31.5 -50.5 -31.5 -96.5v-37z" />
    <glyph glyph-name="ffi" unicode="ffi" horiz-adv-x="845" 
d="M251 715c20 0 39.499 -2.32812 58.499 -6.99512s36.833 -11.334 53.5 -20.001l-25 -70c-12.667 5.33301 -23.5 9.16602 -32.5 11.499s-19.167 3.5 -30.5 3.5c-30 0 -51.667 -8.5 -65 -25.5s-20 -45.833 -20 -86.5v-49h196v50c0 29.333 4.66699 55.833 14 79.5
s22.5 44 39.5 61s37.833 30 62.5 39s52 13.5 82 13.5c20.667 0 43 -2.83301 67 -8.5s44.667 -12.834 62 -21.501l-21 -70c-12.667 5.33301 -26.5 9.66602 -41.5 12.999s-29.167 5 -42.5 5c-39.333 0 -69.166 -9 -89.499 -27s-30.5 -49.667 -30.5 -95v-39h290v-472h-103v396
h-187v-396h-102v396h-196v-396h-102v396h-70v76h70v78c0 53.333 14.167 94.166 42.5 122.499s68.5 42.5 120.5 42.5z" />
    <glyph glyph-name="ffl" unicode="ffl" horiz-adv-x="835" 
d="M675 0v396.003h-189v-396h-102v396h-194v-396h-102v396h-70v76h70v78c0 53.333 14.167 94.166 42.5 122.499s68.5 42.5 120.5 42.5c20 0 39.5 -2.33301 58.5 -7s36.833 -11.334 53.5 -20.001l-25 -70c-12.667 5.33301 -23.5 9.16602 -32.5 11.499s-19.167 3.5 -30.5 3.5
c-30 0 -51.667 -8.5 -65 -25.5s-20 -45.833 -20 -86.5v-49h194v48c0 29.333 4.83301 56 14.5 80s23.5 44.5 41.5 61.5s39.5 30.167 64.5 39.5s53.167 14 84.5 14c42.667 0 79.5 -5.33301 110.5 -16s56.5 -21.667 76.5 -33v-666h-101zM608 633.003
c-40 0 -70.334 -9.16602 -91.001 -27.499s-31 -50.5 -31 -96.5v-37h189v149c-11.333 3.33301 -22.666 6.16602 -33.999 8.49902s-22.333 3.5 -33 3.5z" />
    <glyph glyph-name="f_f_j" unicode="ffj" horiz-adv-x="814" 
d="M251 715c20 0 39.501 -2.32715 58.501 -6.99414s36.833 -11.334 53.5 -20.001l-25 -70c-12.667 5.33301 -23.5 9.16602 -32.5 11.499s-19.167 3.5 -30.5 3.5c-30 0 -51.667 -8.5 -65 -25.5s-20 -45.833 -20 -86.5v-49h197v50c0 29.333 4.66699 55.833 14 79.5
s22.5 44 39.5 61s37.833 30 62.5 39s52 13.5 82 13.5c20.667 0 43 -2.83301 67 -8.5s44.667 -12.834 62 -21.501l-21 -70c-12.667 5.33301 -26.5 9.66602 -41.5 12.999s-29.167 5 -42.5 5c-39.333 0 -69.166 -9 -89.499 -27s-30.5 -49.667 -30.5 -95v-39h290v-402
c0 -38 -2.5 -73 -7.5 -105s-13.833 -61 -26.5 -87s-30.167 -49.333 -52.5 -70s-50.833 -38.334 -85.5 -53.001l-46 74c20.667 10.667 38.167 21.5 52.5 32.5s26.166 24.833 35.499 41.5s16.166 37.5 20.499 62.5s6.5 56.5 6.5 94.5v336h-187v-396h-102v396h-197v-396h-102
v396h-70v76h70v78c0 53.333 14.167 94.166 42.5 122.499s68.5 42.5 120.5 42.5z" />
    <glyph glyph-name="f_j" unicode="fj" horiz-adv-x="547" 
d="M190 472l290.001 0.00292969v-402c0 -38 -2.5 -73 -7.5 -105s-13.833 -61 -26.5 -87s-30.167 -49.333 -52.5 -70s-50.833 -38.334 -85.5 -53.001l-46 74c20.667 10.667 38.167 21.5 52.5 32.5s26.166 24.833 35.499 41.5s16.166 37.5 20.499 62.5s6.5 56.5 6.5 94.5v336
h-187v-396h-102v396h-70v76h70v50c0 29.333 4.66699 55.833 14 79.5s22.5 44 39.5 61s37.833 30 62.5 39s52 13.5 82 13.5c20.667 0 43 -2.83301 67 -8.5s44.667 -12.834 62 -21.501l-21 -70c-12.667 5.33301 -26.5 9.66602 -41.5 12.999s-29.167 5 -42.5 5
c-39.333 0 -69.166 -9 -89.499 -27s-30.5 -49.667 -30.5 -95v-39z" />
    <glyph glyph-name=".notdef" horiz-adv-x="506" 
d="M0 699h506v-699h-506v699zM415 645h-324l162 -243zM447 112v476l-159 -238zM415 54l-162 243l-162 -243h324zM59 112l159 238l-159 238v-476z" />
    <glyph glyph-name="NULL" 
 />
    <glyph glyph-name="NULL" 
 />
    <glyph glyph-name="CR" unicode="&#xd;" horiz-adv-x="1026" 
 />
    <glyph glyph-name="space" unicode=" " horiz-adv-x="226" 
 />
    <glyph glyph-name="exclam" unicode="!" horiz-adv-x="252" 
d="M72 710h109l-14 -496h-83zM60 58c0 19.333 6.66699 35.333 20 48s28.666 19 45.999 19c18 0 33.333 -6.33301 46 -19s19 -28.667 19 -48c0 -20.667 -6.33301 -37.167 -19 -49.5s-28 -18.5 -46 -18.5c-17.333 0 -32.666 6.16699 -45.999 18.5s-20 28.833 -20 49.5z" />
    <glyph glyph-name="quotedbl" unicode="&#x22;" horiz-adv-x="338" 
d="M196 645h93l-16 -222h-62zM48 645h93l-15 -222h-62z" />
    <glyph glyph-name="numbersign" unicode="#" horiz-adv-x="619" 
d="M259 464l-28 -177h141l28 177h-141zM445 740h72l-33 -203h102v-73h-113l-29 -177h108v-73h-118l-35 -214h-73l34 214h-140l-35 -214h-72l33 214h-111v73h124l28 177h-117v73h130l32 203h72l-33 -204h142z" />
    <glyph glyph-name="dollar" unicode="$" horiz-adv-x="538" 
d="M235 722l72.001 0.000976562v-104c20 -2 40.667 -6 62 -12s42.666 -14.667 63.999 -26l-29 -77c-45.333 24 -89.666 36 -132.999 36c-30 0 -54.5 -6.66699 -73.5 -20s-28.5 -33.333 -28.5 -60c0 -24.667 8.5 -42.834 25.5 -54.501s40.833 -22.5 71.5 -32.5l46 -15
c51.333 -16.667 90.166 -39 116.499 -67s39.5 -63.667 39.5 -107c0 -24 -4.33301 -45.833 -13 -65.5s-20.834 -37 -36.501 -52s-34.167 -27.167 -55.5 -36.5s-45 -15.333 -71 -18v-108h-72v108c-30 1.33301 -56.667 5.66602 -80 12.999s-47.666 18 -72.999 32l36 77
c26.667 -16 52.834 -27 78.501 -33s49.167 -9 70.5 -9c33.333 0 60.333 7 81 21s31 35 31 63c0 24.667 -8.66699 43.834 -26 57.501s-44 26.167 -80 37.5l-48 16c-21.333 6.66699 -40.833 14.667 -58.5 24s-33 20.5 -46 33.5s-23.167 28.167 -30.5 45.5s-11 37 -11 59
c0 50 15.667 89.833 47 119.5s72.666 46.5 123.999 50.5v104z" />
    <glyph glyph-name="percent" unicode="%" horiz-adv-x="815" 
d="M159 0l437 750h70l-437 -750h-70zM784 179c0 -25.333 -3.5 -49.5 -10.5 -72.5s-17.5 -43.167 -31.5 -60.5s-31.5 -31 -52.5 -41s-45.167 -15 -72.5 -15c-26.667 0 -50.334 5 -71.001 15s-38 23.667 -52 41s-24.5 37.5 -31.5 60.5s-10.5 47.167 -10.5 72.5
s3.83301 49.333 11.5 72s18.667 42.5 33 59.5s31.833 30.5 52.5 40.5s44.334 15 71.001 15c26 0 49.167 -5 69.5 -15s37.5 -23.5 51.5 -40.5s24.667 -36.833 32 -59.5s11 -46.667 11 -72zM702 179c0 16 -1.33203 31.6689 -3.99902 47.002s-7.16699 29 -13.5 41
s-14.833 21.5 -25.5 28.5s-23.667 10.5 -39 10.5s-28.333 -3.5 -39 -10.5s-19.5 -16.167 -26.5 -27.5s-12.167 -24.833 -15.5 -40.5s-5 -31.834 -5 -48.501c0 -17.333 1.5 -33.833 4.5 -49.5s7.83301 -29.334 14.5 -41.001s15.167 -21 25.5 -28s23.166 -10.5 38.499 -10.5
c30 0 51.667 12 65 36s20 55 20 93zM361.001 563.002c0 -25.333 -3.66699 -49.5 -11 -72.5s-18 -43.167 -32 -60.5s-31.333 -31 -52 -41s-44.667 -15 -72 -15c-26.667 0 -50.334 5 -71.001 15s-38 23.667 -52 41s-24.5 37.5 -31.5 60.5s-10.5 47.167 -10.5 72.5
s3.83301 49.333 11.5 72s18.667 42.5 33 59.5s31.833 30.5 52.5 40.5s44.334 15 71.001 15c26 0 49.167 -5 69.5 -15s37.5 -23.5 51.5 -40.5s24.667 -36.833 32 -59.5s11 -46.667 11 -72zM279.001 563.002c0 16 -1.33203 31.502 -3.99902 46.502s-7.16699 28.333 -13.5 40
s-14.833 21 -25.5 28s-23.667 10.5 -39 10.5s-28.333 -3.33301 -39 -10s-19.5 -15.834 -26.5 -27.501s-12.167 -25 -15.5 -40s-5 -30.833 -5 -47.5c0 -17.333 1.5 -33.833 4.5 -49.5s7.83301 -29.334 14.5 -41.001s15.167 -21 25.5 -28s23.166 -10.5 38.499 -10.5
c29.333 0 50.833 12 64.5 36s20.5 55 20.5 93z" />
    <glyph glyph-name="ampersand" unicode="&#x26;" horiz-adv-x="669" 
d="M130 189c0 -40 12.999 -70.001 38.999 -90.001s61 -30 105 -30c30 0 57.833 5.83301 83.5 17.5s45.834 26.5 60.501 44.5l-188 191c-27.333 -13.333 -50.833 -30.666 -70.5 -51.999s-29.5 -48.333 -29.5 -81zM29.999 185.999c0 46.667 13.8301 85.666 41.4971 116.999
s64.5 57 110.5 77c-16.667 17.333 -31.334 38.5 -44.001 63.5s-19 51.5 -19 79.5c0 22.667 4.33301 43.167 13 61.5s20.834 33.833 36.501 46.5s34 22.334 55 29.001s43.833 10 68.5 10c24 0 46.333 -3.5 67 -10.5s38.334 -17 53.001 -30s26.167 -28.333 34.5 -46
s12.5 -36.834 12.5 -57.501c0 -35.333 -9.33301 -64.833 -28 -88.5s-42 -42.167 -70 -55.5l-48 55c15.333 8 27.833 19.333 37.5 34s14.5 31.667 14.5 51c0 21.333 -7 39 -21 53s-32 21 -54 21c-24 0 -42.5 -6.5 -55.5 -19.5s-19.5 -30.5 -19.5 -52.5
c0 -27.333 7.66699 -52.5 23 -75.5s37.666 -49.5 66.999 -79.5l165 -168c10 16.667 19.833 36.334 29.5 59.001s18.167 44 25.5 64l81 -32c-10.667 -30 -22.667 -58.167 -36 -84.5s-26.333 -48.833 -39 -67.5l138 -140h-124l-72 74c-18.667 -21.333 -45.667 -40.5 -81 -57.5
s-78.666 -25.5 -129.999 -25.5c-35.333 0 -67.166 4.66699 -95.499 14s-52.666 22.5 -72.999 39.5s-36 37.5 -47 61.5s-16.5 50.667 -16.5 80z" />
    <glyph glyph-name="quotesingle" unicode="'" horiz-adv-x="190" 
d="M48 645h93l-15 -222h-62z" />
    <glyph glyph-name="parenleft" unicode="(" horiz-adv-x="303" 
d="M208 -153c-20 27.333 -39.666 56.334 -58.999 87.001s-36.5 63.834 -51.5 99.501s-27.167 73.667 -36.5 114s-14 84.166 -14 131.499c0 46.667 4.66699 90.834 14 132.501s21.666 80.667 36.999 117s32.833 69.666 52.5 99.999s39.5 57.5 59.5 81.5l56 -37
c-36 -54.667 -65.333 -114.5 -88 -179.5s-34 -136.5 -34 -214.5c0 -38.667 2.66699 -75.334 8 -110.001s13.333 -68 24 -100s23.5 -63.5 38.5 -94.5s32.167 -62.167 51.5 -93.5z" />
    <glyph glyph-name="parenright" unicode=")" horiz-adv-x="303" 
d="M94 710c20.667 -26.667 40.833 -55.334 60.5 -86.001s37 -63.834 52 -99.501s27 -74 36 -115s13.5 -84.833 13.5 -131.5s-4.66699 -90.834 -14 -132.501s-21.666 -80.5 -36.999 -116.5s-32.833 -69.167 -52.5 -99.5s-39.5 -57.833 -59.5 -82.5l-56 38
c36 56.667 65.333 116.834 88 180.501s34 134.5 34 212.5c0 38.667 -2.83301 75.5 -8.5 110.5s-13.834 68.833 -24.501 101.5s-23.5 64.334 -38.5 95.001s-31.833 61.334 -50.5 92.001z" />
    <glyph glyph-name="asterisk" unicode="*" horiz-adv-x="352" 
d="M57 411l40 54l58 51l-77 8l-64 20l20 61l63 -18l71 -39l-21 75v65h68v-65l-19 -75l69 38l63 19l20 -61l-64 -21l-77 -7l58 -51l39 -54l-54 -40l-38 55l-31 71l-31 -72l-40 -54z" />
    <glyph glyph-name="plus" unicode="+" horiz-adv-x="559" 
d="M522 340v-71h-207v-207h-71v207h-207v71h207v207h71v-207h207z" />
    <glyph glyph-name="comma" unicode="," horiz-adv-x="222" 
d="M103 -10c-18.667 3.33301 -32.999 11.668 -42.999 25.001s-15 28.666 -15 45.999s6 33 18 47s29 21 51 21c8.66699 0 17.667 -1.5 27 -4.5s17.666 -8.33301 24.999 -16s13.5 -18.167 18.5 -31.5s7.5 -30.333 7.5 -51c0 -40 -11.333 -76 -34 -108s-50.667 -57 -84 -75
l-32 44c18.667 10 35.167 23.333 49.5 40s23.833 36.667 28.5 60z" />
    <glyph glyph-name="hyphen" unicode="-" horiz-adv-x="280" 
d="M250 335v-86h-220v86h220z" />
    <glyph glyph-name="period" unicode="." horiz-adv-x="218" 
d="M52 60c0 19.333 6.66699 35.5 20 48.5s29 19.5 47 19.5s33.5 -6.5 46.5 -19.5s19.5 -29.167 19.5 -48.5c0 -21.333 -6.5 -38.333 -19.5 -51s-28.5 -19 -46.5 -19s-33.667 6.33301 -47 19s-20 29.667 -20 51z" />
    <glyph glyph-name="slash" unicode="/" horiz-adv-x="372" 
d="M-1 -109l294 859h82l-294 -859h-82z" />
    <glyph glyph-name="zero" unicode="0" horiz-adv-x="580" 
d="M291 640c36 0 69.167 -6.16602 99.5 -18.499s56.5 -31.666 78.5 -57.999s39.333 -60 52 -101s19 -90.167 19 -147.5s-6.83301 -106.333 -20.5 -147s-32 -74.334 -55 -101.001s-49.5 -46.167 -79.5 -58.5s-61.667 -18.5 -95 -18.5c-36 0 -69.167 6.16699 -99.5 18.5
s-56.666 31.666 -78.999 57.999s-39.833 60 -52.5 101s-19 90.167 -19 147.5c0 54.667 6.83301 102.5 20.5 143.5s32 74.833 55 101.5s49.667 46.667 80 60s62.166 20 95.499 20zM147 315.001c0 -50 4.00098 -90.833 12.001 -122.5s18.667 -56.667 32 -75
s28.666 -31 45.999 -38s35.333 -10.5 54 -10.5s36.667 3.83301 54 11.5s32.5 20.834 45.5 39.501s23.333 43.834 31 75.501s11.5 71.5 11.5 119.5c0 50 -4 90.833 -12 122.5s-18.5 56.667 -31.5 75s-28.167 31 -45.5 38s-35.333 10.5 -54 10.5s-36.667 -3.83301 -54 -11.5
s-32.5 -20.834 -45.5 -39.501s-23.5 -43.834 -31.5 -75.501s-12 -71.5 -12 -119.5z" />
    <glyph glyph-name="one" unicode="1" horiz-adv-x="379" 
d="M212 630h79v-630h-101v528l-114 -53l-24 81z" />
    <glyph glyph-name="two" unicode="2" horiz-adv-x="485" 
d="M223 558c-21.333 0 -41.667 -3.83008 -61 -11.4971s-40 -20.167 -62 -37.5l-45 67c28.667 23.333 57.167 39.833 85.5 49.5s57.833 14.5 88.5 14.5c33.333 0 62.666 -4.83301 87.999 -14.5s46.333 -22.834 63 -39.501s29.167 -36.334 37.5 -59.001
s12.5 -47.334 12.5 -74.001c0 -47.333 -18 -96 -54 -146s-85.333 -105.333 -148 -166l-60 -58h274v-83h-381l-19 71l86 86c35.333 35.333 65.5 66.833 90.5 94.5s45.333 52.834 61 75.501s27.167 43.667 34.5 63s11 38.666 11 57.999c0 32.667 -8.66699 59.167 -26 79.5
s-42.666 30.5 -75.999 30.5z" />
    <glyph glyph-name="three" unicode="3" horiz-adv-x="493" 
d="M52 593c25.333 16.667 51.833 28.6631 79.5 35.9961s55.834 11 84.501 11s55 -4.16699 79 -12.5s44.667 -19.666 62 -33.999s30.666 -31.5 39.999 -51.5s14 -41.667 14 -65c0 -39.333 -10.333 -71.666 -31 -96.999s-45.334 -43.666 -74.001 -54.999
c36.667 -8 67 -25.5 91 -52.5s36 -59.5 36 -97.5c0 -33.333 -6.5 -61.666 -19.5 -84.999s-30.167 -42.5 -51.5 -57.5s-45.833 -25.833 -73.5 -32.5s-56.167 -10 -85.5 -10c-30 0 -59.5 2.83301 -88.5 8.5s-54.167 14.167 -75.5 25.5l23 76
c22.667 -8.66699 43.5 -15.667 62.5 -21s42.833 -8 71.5 -8c16.667 0 32.834 2 48.501 6s29.5 10.333 41.5 19s21.667 19.667 29 33s11 29.333 11 48c0 34.667 -12 60.5 -36 77.5s-56 25.5 -96 25.5h-74v78h56c38 0 69.167 8.83301 93.5 26.5s36.5 44.5 36.5 80.5
c0 28 -9.83301 50.833 -29.5 68.5s-44.167 26.5 -73.5 26.5c-20 0 -39 -2.83301 -57 -8.5s-38.667 -15.167 -62 -28.5z" />
    <glyph glyph-name="four" unicode="4" horiz-adv-x="543" 
d="M310 630h104v-392h97v-83h-97v-155h-97v155h-297v65zM269 432l-138 -194h186v187l6 101h-2z" />
    <glyph glyph-name="five" unicode="5" horiz-adv-x="521" 
d="M432 632v-83.001l-228 -2l-18 -153c15.333 2.66699 33.666 4 54.999 4c26 0 51.833 -3.5 77.5 -10.5s48.667 -18.167 69 -33.5s37 -35.166 50 -59.499s19.5 -53.833 19.5 -88.5c0 -30 -5.33301 -58 -16 -84s-26.5 -48.833 -47.5 -68.5s-47.167 -35.167 -78.5 -46.5
s-68 -17 -110 -17c-26.667 0 -52.667 3 -78 9s-47.666 13.667 -66.999 23l23 79c16.667 -8 34.667 -14.667 54 -20s40 -8 62 -8c48 0 85.167 11 111.5 33s39.5 53.667 39.5 95s-14.167 72.166 -42.5 92.499s-63.5 30.5 -105.5 30.5c-18 0 -36.167 -1.16699 -54.5 -3.5
s-36.5 -5.16602 -54.5 -8.49902l31 318z" />
    <glyph glyph-name="six" unicode="6" horiz-adv-x="531" 
d="M319 640c23.333 0 45 -1.66992 65 -5.00293s39.333 -9 58 -17l-24 -81c-13.333 6.66699 -28 12 -44 16s-33.333 6 -52 6c-28 0 -52.333 -5 -73 -15s-38.167 -24 -52.5 -42s-25.5 -39.5 -33.5 -64.5s-12.667 -52.5 -14 -82.5c18 21.333 39.667 36.833 65 46.5
s52 14.5 80 14.5c28.667 0 55.334 -4.66699 80.001 -14s46 -22.666 64 -39.999s32.167 -38.666 42.5 -63.999s15.5 -54.333 15.5 -87c0 -33.333 -5.5 -63.5 -16.5 -90.5s-26.333 -50.167 -46 -69.5s-43 -34.333 -70 -45s-56.833 -16 -89.5 -16
c-28.667 0 -56.834 5.33301 -84.501 16s-52.5 28 -74.5 52s-39.667 55 -53 93s-20 84.333 -20 139c0 64 7.83301 118.167 23.5 162.5s36.334 80.333 62.001 108s55.167 47.834 88.5 60.501s67.666 19 102.999 19zM149 228.997c0 -22.667 3.00195 -43.832 9.00195 -63.499
s14.5 -36.667 25.5 -51s24.333 -25.666 40 -33.999s33.167 -12.5 52.5 -12.5c18 0 34.167 3.66699 48.5 11s26.5 17.166 36.5 29.499s17.833 27 23.5 44s8.5 35.5 8.5 55.5c0 44 -11 76.333 -33 97s-51.333 31 -88 31c-26.667 0 -49.334 -6 -68.001 -18s-33 -26 -43 -42
c-4.66699 -7.33301 -7.83398 -14.833 -9.50098 -22.5s-2.5 -15.834 -2.5 -24.501z" />
    <glyph glyph-name="seven" unicode="7" horiz-adv-x="495" 
d="M451 630v-70l-270 -580l-88 39l257 530h-296v81h397z" />
    <glyph glyph-name="eight" unicode="8" horiz-adv-x="510" 
d="M258 640c33.333 0 62.501 -4.49902 87.501 -13.499s45.833 -20.833 62.5 -35.5s29.167 -31.5 37.5 -50.5s12.5 -38.833 12.5 -59.5c0 -31.333 -9.83301 -60 -29.5 -86s-48.834 -46.667 -87.501 -62c42.667 -16.667 75.5 -37.5 98.5 -62.5s34.5 -57.5 34.5 -97.5
c0 -29.333 -5.5 -55.333 -16.5 -78s-26.167 -41.667 -45.5 -57s-42.333 -27.166 -69 -35.499s-56 -12.5 -88 -12.5c-31.333 0 -60.5 4.16699 -87.5 12.5s-50.333 20 -70 35s-35 33.167 -46 54.5s-16.5 45.333 -16.5 72c0 41.333 10.833 74.166 32.5 98.499
s53.5 45.166 95.5 62.499c-32.667 15.333 -58.667 35.333 -78 60s-29 53 -29 85c0 22 4.16699 43.167 12.5 63.5s21 38.5 38 54.5s38 28.667 63 38s54.5 14 88.5 14zM154.001 476.001c0 -14 2.83203 -26.666 8.49902 -37.999s13.5 -21.333 23.5 -30
s21.333 -16.334 34 -23.001s26 -12.334 40 -17.001c28 10.667 51.5 24.834 70.5 42.501s28.5 39.5 28.5 65.5c0 27.333 -9.83301 48.833 -29.5 64.5s-44.167 23.5 -73.5 23.5c-33.333 0 -58.666 -8.83301 -75.999 -26.5s-26 -38.167 -26 -61.5zM248 287.002
c-32 -10.667 -58.167 -25.168 -78.5 -43.501s-30.5 -43.833 -30.5 -76.5c0 -27.333 9.83301 -50.666 29.5 -69.999s49.167 -29 88.5 -29c35.333 0 63.166 10 83.499 30s30.5 43.333 30.5 70c0 31.333 -11.667 56.5 -35 75.5s-52.666 33.5 -87.999 43.5z" />
    <glyph glyph-name="nine" unicode="9" horiz-adv-x="524" 
d="M212 -10c-31.333 0 -58.168 2.49902 -80.501 7.49902s-41.166 11.5 -56.499 19.5l23 79c14 -6.66699 29.167 -12.5 45.5 -17.5s37.166 -7.5 62.499 -7.5c56 0 97.5 17.333 124.5 52s41.833 84.334 44.5 149.001c-15.333 -17.333 -35 -31 -59 -41s-49.667 -15 -77 -15
c-29.333 0 -56.166 4.5 -80.499 13.5s-45.5 22.333 -63.5 40s-32 39.167 -42 64.5s-15 54.333 -15 87s5.33301 62.5 16 89.5s25.834 50.167 45.501 69.5s43.167 34.166 70.5 44.499s57.666 15.5 90.999 15.5c28.667 0 56.334 -5.5 83.001 -16.5s50.167 -28.5 70.5 -52.5
s36.666 -55 48.999 -93s18.5 -83.667 18.5 -137c0 -63.333 -6.83301 -117.166 -20.5 -161.499s-32.667 -80.5 -57 -108.5s-53 -48.5 -86 -61.5s-68.5 -19.5 -106.5 -19.5zM374.998 396.999c0 22 -2.83008 43 -8.49707 63s-13.834 37.5 -24.501 52.5s-23.334 27 -38.001 36
s-31.334 13.5 -50.001 13.5c-36 0 -63.833 -12 -83.5 -36s-29.5 -56.667 -29.5 -98c0 -44 10.833 -77 32.5 -99s50.5 -33 86.5 -33c24 0 45 5.33301 63 16s31.667 24 41 40c7.33301 12.667 11 27.667 11 45z" />
    <glyph glyph-name="colon" unicode=":" horiz-adv-x="230" 
d="M48 59c0 19.333 6.66699 35.666 20 48.999s29.333 20 48 20c18 0 33.5 -6.66699 46.5 -20s19.5 -29.666 19.5 -48.999c0 -21.333 -6.5 -38.166 -19.5 -50.499s-28.5 -18.5 -46.5 -18.5c-18.667 0 -34.667 6.16699 -48 18.5s-20 29.166 -20 50.499zM48 362
c0 19.333 6.66699 35.5 20 48.5s29.333 19.5 48 19.5c18 0 33.5 -6.5 46.5 -19.5s19.5 -29.167 19.5 -48.5c0 -21.333 -6.5 -38.166 -19.5 -50.499s-28.5 -18.5 -46.5 -18.5c-18.667 0 -34.667 6.16699 -48 18.5s-20 29.166 -20 50.499z" />
    <glyph glyph-name="semicolon" unicode=";" horiz-adv-x="227" 
d="M50 362c0 19.333 6.66699 35.5 20 48.5s29 19.5 47 19.5s33.5 -6.5 46.5 -19.5s19.5 -29.167 19.5 -48.5c0 -21.333 -6.5 -38.166 -19.5 -50.499s-28.5 -18.5 -46.5 -18.5s-33.667 6.16699 -47 18.5s-20 29.166 -20 50.499zM103 -10
c-18.667 3.33301 -32.999 11.668 -42.999 25.001s-15 28.666 -15 45.999s6 33 18 47s29 21 51 21c8.66699 0 17.667 -1.5 27 -4.5s17.666 -8.33301 24.999 -16s13.5 -18.167 18.5 -31.5s7.5 -30.333 7.5 -51c0 -40 -11.333 -76 -34 -108s-50.667 -57 -84 -75l-32 44
c18.667 10 35.167 23.333 49.5 40s23.833 36.667 28.5 60z" />
    <glyph glyph-name="less" unicode="&#x3c;" horiz-adv-x="491" 
d="M63 222v63l364 208v-82l-286 -157l286 -157v-82z" />
    <glyph glyph-name="equal" unicode="=" horiz-adv-x="458" 
d="M37 245v-70h383v70h-383zM420 424v-70h-383v70h383z" />
    <glyph glyph-name="greater" unicode="&#x3e;" horiz-adv-x="491" 
d="M63 15v82l287 157l-287 157v82l364 -208v-63z" />
    <glyph glyph-name="question" unicode="?" horiz-adv-x="438" 
d="M202 715c30.667 0 57.9961 -4.33398 81.9961 -13.001s44.333 -20.5 61 -35.5s29.334 -32.833 38.001 -53.5s13 -43 13 -67c0 -17.333 -2.66699 -33.833 -8 -49.5s-12.666 -30.667 -21.999 -45s-20 -28.166 -32 -41.499s-24.333 -26.333 -37 -39
c-28 -25.333 -49.167 -46.5 -63.5 -63.5s-21.5 -36.5 -21.5 -58.5c0 -8.66699 0.5 -16.167 1.5 -22.5s3.16699 -14.166 6.5 -23.499l-86 -14c-3.33301 9.33301 -6.16602 19.5 -8.49902 30.5s-3.5 22.167 -3.5 33.5c0 28.667 7 54.167 21 76.5s34.667 47.166 62 74.499
l34 34.5c10.667 11 19.834 22 27.501 33s13.667 22.167 18 33.5s6.5 24 6.5 38c0 22 -7.5 41.833 -22.5 59.5s-40.167 26.5 -75.5 26.5c-16 0 -32 -2.33301 -48 -7s-32 -12.667 -48 -24l-42 74c19.333 14 42.333 24.667 69 32s52.667 11 78 11zM119.996 57.999
c0 19.333 6.66699 35.333 20 48s28.666 19 45.999 19c18 0 33.333 -6.33301 46 -19s19 -28.667 19 -48c0 -20.667 -6.33301 -37.167 -19 -49.5s-28 -18.5 -46 -18.5c-17.333 0 -32.666 6.16699 -45.999 18.5s-20 28.833 -20 49.5z" />
    <glyph glyph-name="at" unicode="@" horiz-adv-x="965" 
d="M561 60l-1.99805 0.00195312c-22.667 -22.667 -45.834 -40 -69.501 -52s-53.5 -18 -89.5 -18c-42 0 -74.833 11.5 -98.5 34.5s-35.5 52.167 -35.5 87.5c0 30 6.16699 55.667 18.5 77s29 39 50 53s45.5 24.167 73.5 30.5s57.333 9.5 88 9.5h80l6 35
c0.666992 4 1.16699 7.66699 1.5 11s0.5 6.66602 0.5 9.99902c0 23.333 -7 39.666 -21 48.999s-33.333 14 -58 14c-17.333 0 -38 -3 -62 -9s-50.667 -16.667 -80 -32l-25 71c32.667 16 64 28.167 94 36.5s61 12.5 93 12.5c24 0 45.667 -2.33301 65 -7s36 -12.167 50 -22.5
s24.833 -23.833 32.5 -40.5s11.5 -37 11.5 -61c0 -13.333 -1 -27.333 -3 -42l-26 -160c-3.33301 -18.667 -5 -32.667 -5 -42c0 -13.333 2.66699 -22.833 8 -28.5s13.666 -8.5 24.999 -8.5c20 0 38.833 6.66699 56.5 20s33.167 31.833 46.5 55.5s23.833 51.334 31.5 83.001
s11.5 65.5 11.5 101.5c0 41.333 -6.5 79.833 -19.5 115.5s-31.667 66.5 -56 92.5s-54.5 46.5 -90.5 61.5s-77 22.5 -123 22.5c-56 0 -108.5 -9.5 -157.5 -28.5s-91.833 -47.167 -128.5 -84.5s-65.5 -83.833 -86.5 -139.5s-31.5 -119.834 -31.5 -192.501
c0 -60 9.83301 -110.333 29.5 -151s45.167 -73.5 76.5 -98.5s66.666 -43 105.999 -54s78.666 -16.5 117.999 -16.5c42.667 0 79 3.66699 109 11s58.333 16.333 85 27l19 -66c-28 -12 -61.667 -22.667 -101 -32s-82 -14 -128 -14c-50 0 -99 7 -147 21
s-90.833 36.5 -128.5 67.5s-68 71 -91 120s-34.5 108.833 -34.5 179.5c0 81.333 13.167 154.333 39.5 219s61.833 119.5 106.5 164.5s96.334 79.5 155.001 103.5s120.667 36 186 36c62 0 116.667 -9 164 -27s87.333 -43 120 -75s57.334 -69.833 74.001 -113.5
s25 -91.167 25 -142.5c0 -58 -8 -108.167 -24 -150.5s-36.5 -77.166 -61.5 -104.499s-53 -47.5 -84 -60.5s-61.833 -19.5 -92.5 -19.5c-16 0 -30.833 1.16699 -44.5 3.5s-24.167 5.16602 -31.5 8.49902zM567.002 217.002l-65.001 -2.00098
c-47.333 -1.33301 -81 -10.666 -101 -27.999s-30 -39 -30 -65c0 -20.667 6.83301 -35.667 20.5 -45s30.167 -14 49.5 -14c40.667 0 77.334 19 110.001 57z" />
    <glyph glyph-name="A" unicode="A" horiz-adv-x="601" 
d="M203 247l190.998 0.000976562l-37 102c-11.333 28 -21.166 54.167 -29.499 78.5s-17.166 52.166 -26.499 83.499h-2l-28 -81.5c-8.66699 -25 -18.667 -52.167 -30 -81.5zM250.998 630.001h102l245 -630h-112l-63 165h-247l-62 -165h-111z" />
    <glyph glyph-name="B" unicode="B" horiz-adv-x="548" 
d="M277 630c64.667 0 114.998 -13.832 150.998 -41.499s54 -67.5 54 -119.5c0 -19.333 -3.16699 -36.5 -9.5 -51.5s-14.666 -28 -24.999 -39s-22.5 -20.167 -36.5 -27.5s-28.667 -13 -44 -17c18.667 -3.33301 36.167 -9.16602 52.5 -17.499s30.5 -19 42.5 -32
s21.5 -28.5 28.5 -46.5s10.5 -38.333 10.5 -61c0 -26 -5.66699 -49.833 -17 -71.5s-27.166 -40.334 -47.499 -56.001s-44.5 -27.834 -72.5 -36.501s-59 -13 -93 -13h-195v630h201zM182.998 371.001h72.002c16 0 31.167 1.33301 45.5 4s26.666 7.5 36.999 14.5
s18.666 16.333 24.999 28s9.5 26.167 9.5 43.5c0 29.333 -10 50.833 -30 64.5s-47 20.5 -81 20.5h-78v-175zM183 84.001h74.999c18 0 35 1.83301 51 5.5s30 9.5 42 17.5s21.5 18.5 28.5 31.5s10.5 29.167 10.5 48.5c0 18.667 -4 34.5 -12 47.5s-18.667 23.5 -32 31.5
s-28.666 13.667 -45.999 17s-35.333 5 -54 5h-63v-204z" />
    <glyph glyph-name="C" unicode="C" horiz-adv-x="563" 
d="M363 76c32.667 0 59.835 2.83203 81.502 8.49902s42.167 13.167 61.5 22.5l23 -83c-21.333 -10 -46 -18.167 -74 -24.5s-62.333 -9.5 -103 -9.5c-43.333 0 -83.833 7.16699 -121.5 21.5s-70.334 35.333 -98.001 63s-49.5 61.667 -65.5 102s-24 86.5 -24 138.5
c0 50.667 7.66699 96.167 23 136.5s36.833 74.5 64.5 102.5s60.667 49.333 99 64s80.5 22 126.5 22c42 0 76.5 -3.5 103.5 -10.5s50.833 -16.167 71.5 -27.5l-25 -81c-22.667 10 -44.167 18 -64.5 24s-44.5 9 -72.5 9c-28.667 0 -55.834 -4.33301 -81.501 -13
s-48 -22.667 -67 -42s-34.167 -44.166 -45.5 -74.499s-17 -66.833 -17 -109.5s5.5 -79.167 16.5 -109.5s25.667 -55 44 -74s40 -33 65 -42s51.5 -13.5 79.5 -13.5z" />
    <glyph glyph-name="D" unicode="D" horiz-adv-x="646" 
d="M286 630c46 0 88.334 -6.33301 127.001 -19s72 -31.5 100 -56.5s49.833 -56.333 65.5 -94s23.5 -81.5 23.5 -131.5c0 -59.333 -9.33301 -109.833 -28 -151.5s-43.834 -75.667 -75.501 -102s-68.667 -45.5 -111 -57.5s-86.833 -18 -133.5 -18h-178v630h210zM183.001 86
l62 0.000976562c30.667 0 60.5 3.5 89.5 10.5s54.833 19.667 77.5 38s40.834 43.166 54.501 74.499s20.5 71.333 20.5 120c0 69.333 -19.833 122.5 -59.5 159.5s-92.834 55.5 -159.501 55.5h-85v-458z" />
    <glyph glyph-name="E" unicode="E" horiz-adv-x="506" 
d="M76 630h390v-86h-283v-174h257v-85h-257v-199h286v-86h-393v630z" />
    <glyph glyph-name="F" unicode="F" horiz-adv-x="489" 
d="M456 630v-86h-273v-192h251v-85h-251v-267h-107v630h380z" />
    <glyph glyph-name="G" unicode="G" horiz-adv-x="622" 
d="M360 640c73.333 0 134.671 -12.3311 184.004 -36.998l-24 -79c-24 11.333 -48.167 19.666 -72.5 24.999s-49.5 8 -75.5 8c-28.667 0 -55.834 -4.33301 -81.501 -13s-48.334 -22.667 -68.001 -42s-35.334 -44.333 -47.001 -75s-17.5 -68.334 -17.5 -113.001
c0 -78 17.667 -137.5 53 -178.5s85.333 -61.5 150 -61.5c22.667 0 42.167 1.16699 58.5 3.5s31.833 6.16602 46.5 11.499v166h-114v82h215v-309c-26.667 -10.667 -56.667 -19.667 -90 -27s-72.333 -11 -117 -11c-44 0 -85.333 7 -124 21s-72.334 34.667 -101.001 62
s-51.167 61.166 -67.5 101.499s-24.5 86.833 -24.5 139.5s8 99.334 24 140.001s38.167 74.834 66.5 102.501s61.833 48.5 100.5 62.5s80.667 21 126 21z" />
    <glyph glyph-name="H" unicode="H" horiz-adv-x="645" 
d="M76 0v630h107v-260h279v260h107v-630h-107v282h-279v-282h-107z" />
    <glyph glyph-name="I" unicode="I" horiz-adv-x="259" 
d="M183 630v-630h-107v630h107z" />
    <glyph glyph-name="J" unicode="J" horiz-adv-x="276" 
d="M206 630v-515.002c0 -48.667 -2.66699 -88.5 -8 -119.5s-17 -58.167 -35 -81.5c-21.333 -28 -48 -47.167 -80 -57.5s-65 -15.833 -99 -16.5v85c19.333 0.666992 36 3.83398 50 9.50098s26 13.834 36 24.501c12 12 19.833 27.5 23.5 46.5s5.5 39.167 5.5 60.5v564h107z
" />
    <glyph glyph-name="K" unicode="K" horiz-adv-x="588" 
d="M76 0v630h107v-278l249 278h133l-252 -278l272 -352h-134l-215 282l-53 -57v-225h-107z" />
    <glyph glyph-name="L" unicode="L" horiz-adv-x="460" 
d="M76 630h107v-542h264v-88h-371v630z" />
    <glyph glyph-name="M" unicode="M" horiz-adv-x="818" 
d="M114 630l137.999 0.000976562l111 -340l24.5 -77.5c7 -23 14.167 -48.833 21.5 -77.5h3l22.5 77l22.5 78l107 340h138l52 -630h-104l-15.5 201.5c-5 67.667 -8.83301 135.5 -11.5 203.5l-4 115h-2l-35.5 -126c-12.333 -42.667 -25.166 -83.667 -38.499 -123l-89 -271h-91
l-90 272l-24.5 78l-19 64.5l-15.5 55.5l-13 50h-3c-2 -56.667 -5 -114.334 -9 -173.001s-7.66699 -115 -11 -169l-12 -178h-102z" />
    <glyph glyph-name="N" unicode="N" horiz-adv-x="672" 
d="M76 630l95 -0.000976562l264 -377c12 -17.333 23.333 -34.666 34 -51.999s19.667 -33 27 -47h2c-3.33301 49.333 -5 98.5 -5 147.5v148.5v180h103v-630h-95l-257 365c-12.667 18 -25 37.5 -37 58.5s-22.333 39.833 -31 56.5h-2c3.33301 -52 5 -103.5 5 -154.5v-153.5
v-172h-103v630z" />
    <glyph glyph-name="O" unicode="O" horiz-adv-x="692" 
d="M348 640c43.333 0 83.333 -6.99707 120 -20.9971s68.334 -34.667 95.001 -62s47.5 -61.333 62.5 -102s22.5 -87.334 22.5 -140.001c0 -52 -7.66699 -98.167 -23 -138.5s-36.666 -74.333 -63.999 -102s-59.5 -48.667 -96.5 -63s-77.167 -21.5 -120.5 -21.5
s-83.333 7 -120 21s-68.334 34.667 -95.001 62s-47.5 61.166 -62.5 101.499s-22.5 87.166 -22.5 140.499c0 52 7.66699 98.167 23 138.5s36.666 74.333 63.999 102s59.5 48.667 96.5 63s77.167 21.5 120.5 21.5zM159 315.003c0 -40.667 5 -76.167 15 -106.5
s23.5 -55.5 40.5 -75.5s37 -34.833 60 -44.5s47.5 -14.5 73.5 -14.5s50.333 4.83301 73 14.5s42.167 24.5 58.5 44.5s29.333 45.167 39 75.5s14.5 65.833 14.5 106.5c0 42 -5 78.167 -15 108.5s-23.5 55.333 -40.5 75s-37 34.167 -60 43.5s-47.5 14 -73.5 14
s-50.333 -4.83301 -73 -14.5s-42.167 -24.5 -58.5 -44.5s-29.333 -45.167 -39 -75.5s-14.5 -65.833 -14.5 -106.5z" />
    <glyph glyph-name="P" unicode="P" horiz-adv-x="535" 
d="M76 630l205.999 0.000976562c34 0 64.833 -4.33301 92.5 -13s51.334 -21.167 71.001 -37.5s35 -36.333 46 -60s16.5 -50.834 16.5 -81.501c0 -34 -6 -63.5 -18 -88.5s-28.667 -45.667 -50 -62s-46.5 -28.5 -75.5 -36.5s-60.5 -12 -94.5 -12h-87v-239h-107v630z
M182.999 324.001l57 0.00195312c22.667 0 43.5 1.66699 62.5 5s35.5 9.16602 49.5 17.499s25 19.666 33 33.999s12 32.833 12 55.5c0 20 -3.66699 37 -11 51s-17.333 25.333 -30 34s-27 15 -43 19s-33 6 -51 6h-79v-222z" />
    <glyph glyph-name="Q" unicode="Q" horiz-adv-x="689" 
d="M348 640c43.333 0 83.3311 -6.99902 119.998 -20.999s68.334 -34.667 95.001 -62s47.5 -61.333 62.5 -102s22.5 -87.334 22.5 -140.001c0 -71.333 -15 -132.333 -45 -183s-76 -93 -138 -127l-130 -73c18 -0.666992 35 -3.33398 51 -8.00098s32.333 -9.83398 49 -15.501
s33.834 -10.834 51.501 -15.501s37.5 -7 59.5 -7c14.667 0 29.667 2.33301 45 7s29 11.667 41 21l40 -76c-16 -11.333 -35.333 -20.5 -58 -27.5s-45.667 -10.5 -69 -10.5c-25.333 0 -49.666 3.16699 -72.999 9.5s-46.333 13.333 -69 21s-44.834 14.667 -66.501 21
s-43.5 9.5 -65.5 9.5c-18.667 0 -36.167 -2.5 -52.5 -7.5s-33.166 -12.5 -50.499 -22.5l-41 75l157 90c-36 6 -68.667 17.333 -98 34s-54.5 38.334 -75.5 65.001s-37.333 58.334 -49 95.001s-17.5 78.334 -17.5 125.001c0 52 7.66699 98.167 23 138.5
s36.666 74.333 63.999 102s59.5 48.667 96.5 63s77.167 21.5 120.5 21.5zM158.998 315.001c0 -40.667 4.66699 -76.335 14 -107.002s22 -56.167 38 -76.5s35.167 -35.666 57.5 -45.999s46.5 -15.5 72.5 -15.5s50.667 5.33301 74 16s43.833 26.334 61.5 47.001
s31.5 46.167 41.5 76.5s15 65.5 15 105.5c0 42 -5 78.167 -15 108.5s-23.5 55.333 -40.5 75s-37 34.167 -60 43.5s-47.5 14 -73.5 14s-50.333 -4.83301 -73 -14.5s-42.167 -24.5 -58.5 -44.5s-29.333 -45.167 -39 -75.5s-14.5 -65.833 -14.5 -106.5z" />
    <glyph glyph-name="R" unicode="R" horiz-adv-x="548" 
d="M76 630l217 -0.00292969c33.333 0 62.833 -4.83301 88.5 -14.5s47.167 -23 64.5 -40s30.333 -37.167 39 -60.5s13 -48.666 13 -75.999c0 -24.667 -3.83301 -46.667 -11.5 -66s-17.5 -36.166 -29.5 -50.499s-25.5 -26.666 -40.5 -36.999s-30.167 -18.5 -45.5 -24.5
l162 -261h-121l-139 242h-93v-242h-104v630zM180 326.997h67.999c20 0 38.333 2 55 6s31.334 10.333 44.001 19s22.5 19.834 29.5 33.501s10.5 30.167 10.5 49.5c0 37.333 -10.667 65.166 -32 83.499s-52 27.5 -92 27.5h-83v-219z" />
    <glyph glyph-name="S" unicode="S" horiz-adv-x="515" 
d="M262 640c68.667 0 128.669 -12.666 180.002 -37.999l-25 -85c-28 13.333 -53.833 23.166 -77.5 29.499s-47.5 9.5 -71.5 9.5c-36 0 -64.333 -7.66699 -85 -23s-31 -36.666 -31 -63.999c0 -24 8 -43 24 -57s42 -26.667 78 -38l62 -20
c54.667 -17.333 94.667 -41.5 120 -72.5s38 -66.833 38 -107.5c0 -27.333 -5.33301 -52.333 -16 -75s-25.834 -42 -45.501 -58s-43.5 -28.5 -71.5 -37.5s-59 -13.5 -93 -13.5s-67.833 3.16699 -101.5 9.5s-66.5 17.166 -98.5 32.499l25 84c28.667 -14 56.667 -24.5 84 -31.5
s56 -10.5 86 -10.5c36 0 65.333 7.66699 88 23s34 38 34 68c0 21.333 -7.83301 40.333 -23.5 57s-46.167 32.334 -91.5 47.001l-59 19c-46 15.333 -82.167 35.833 -108.5 61.5s-39.5 61.5 -39.5 107.5c0 55.333 18.667 99.666 56 132.999s91.666 50 162.999 50z" />
    <glyph glyph-name="T" unicode="T" horiz-adv-x="503" 
d="M494 630v-88h-190v-542h-107v542h-187v88h484z" />
    <glyph glyph-name="U" unicode="U" horiz-adv-x="647" 
d="M70 630l107.002 -0.000976562v-377c0 -62.667 11.667 -108 35 -136s60.666 -42 111.999 -42c50.667 0 87.5 15.167 110.5 45.5s34.5 70.5 34.5 120.5v389h107v-384c0 -87.333 -21.833 -151.833 -65.5 -193.5s-105.834 -62.5 -186.501 -62.5
c-79.333 0 -141.5 20.833 -186.5 62.5s-67.5 107.834 -67.5 198.501v379z" />
    <glyph glyph-name="V" unicode="V" horiz-adv-x="586" 
d="M113 630l122 -345l13.5 -38l15.5 -43.5l15.5 -45l13.5 -41.5h2c3.33301 12.667 7.33301 26.167 12 40.5l14 43.5l14 42c4.66699 13.333 9 25 13 35l128 352h111l-240 -630h-109l-238 630h113z" />
    <glyph glyph-name="W" unicode="W" horiz-adv-x="860" 
d="M116 630l95.001 -345.999l8 -33.5c3.33301 -13.667 6.5 -28 9.5 -43s5.83301 -30 8.5 -45l7 -40.5h2l7 40.5c2.66699 15 5.66699 30 9 45s6.66602 29.167 9.99902 42.5s6.33301 24.666 9 33.999l99 346h102l100 -344c2.66699 -8 5.66699 -19 9 -33l10 -44
c3.33301 -15.333 6.5 -30.833 9.5 -46.5l7.5 -40.5h2c2 12 4.5 25.333 7.5 40l9 44.5c3 15 6.16699 29.5 9.5 43.5s6.33301 26 9 36l90 344h108l-177 -630h-112l-93 337l-20.5 80l-20.5 83h-2l-20 -82l-20 -79l-90 -339h-110l-181 630h109z" />
    <glyph glyph-name="X" unicode="X" horiz-adv-x="572" 
d="M141 630l144 -237l150 237h119l-205 -310l215 -320h-124l-157 247l-155 -247h-120l209 320l-200 310h124z" />
    <glyph glyph-name="Y" unicode="Y" horiz-adv-x="544" 
d="M128 630l150 -270l150 270h115l-216 -367v-263h-107v263l-210 367h118z" />
    <glyph glyph-name="Z" unicode="Z" horiz-adv-x="519" 
d="M487 630v-63l-332 -483h338v-84h-467v72l326 474h-313v84h448z" />
    <glyph glyph-name="bracketleft" unicode="[" horiz-adv-x="299" 
d="M76 -157v879h195v-71h-102v-736h102v-72h-195z" />
    <glyph glyph-name="backslash" unicode="\" horiz-adv-x="325" 
d="M243 -88l-243 808h81l244 -808h-82z" />
    <glyph glyph-name="bracketright" unicode="]" horiz-adv-x="299" 
d="M29 -157v72h101v736h-101v71h195v-879h-195z" />
    <glyph glyph-name="asciicircum" unicode="^" horiz-adv-x="513" 
d="M457 413h-81l-120 241l-117 -241h-82l167 307h64z" />
    <glyph glyph-name="underscore" unicode="_" horiz-adv-x="368" 
d="M360 -185v-65h-351v65h351z" />
    <glyph glyph-name="grave" unicode="`" horiz-adv-x="212" 
d="M20 720h96l77 -165h-67z" />
    <glyph glyph-name="a" unicode="a" horiz-adv-x="495" 
d="M71 430c30.667 16.667 60.168 29.166 88.501 37.499s59.833 12.5 94.5 12.5c26.667 0 51.167 -3 73.5 -9s41.5 -15.667 57.5 -29s28.5 -31.166 37.5 -53.499s13.5 -49.5 13.5 -81.5v-307h-83l-11 51h-3c-18.667 -21.333 -40.334 -36.833 -65.001 -46.5
s-52 -14.5 -82 -14.5c-47.333 0 -85.5 12.667 -114.5 38s-43.5 59 -43.5 101c0 26 5.33301 48.5 16 67.5s25.667 34.833 45 47.5s42.333 22.167 69 28.5s56 9.5 88 9.5h80v36c0 30 -8 50.833 -24 62.5s-38 17.5 -66 17.5c-17.333 0 -36.833 -2.83301 -58.5 -8.5
s-46.5 -16.167 -74.5 -31.5zM333.001 213.999l-63 -1.00098c-47.333 -1.33301 -80.666 -9.66602 -99.999 -24.999s-29 -33.333 -29 -54c0 -13.333 2.16699 -24.333 6.5 -33s10.166 -15.667 17.499 -21s15.833 -9.16602 25.5 -11.499s19.5 -3.5 29.5 -3.5
c20.667 0 41.167 5.16699 61.5 15.5s37.5 25.166 51.5 44.499v89z" />
    <glyph glyph-name="b" unicode="b" horiz-adv-x="549" 
d="M512 236c0 -38 -5.66602 -72.1689 -16.999 -102.502s-26.833 -56.166 -46.5 -77.499s-42.667 -37.666 -69 -48.999s-54.5 -17 -84.5 -17c-30.667 0 -57.334 4.5 -80.001 13.5s-43.667 22.5 -63 40.5h-2l-9 -44h-74v711h102v-291c19.333 20 41.333 35 66 45
s50.667 15 78 15c61.333 0 109.833 -21.5 145.5 -64.5s53.5 -102.833 53.5 -179.5zM405.001 233.998c0 50.667 -10.6689 90.667 -32.002 120s-51 44 -89 44c-23.333 0 -44.5 -5.33301 -63.5 -16s-36.167 -24.667 -51.5 -42v-225c12 -14 26.167 -25.333 42.5 -34
s34.833 -13 55.5 -13c18 0 35.333 3.33301 52 10s31.334 16.667 44.001 30s22.834 30.5 30.501 51.5s11.5 45.833 11.5 74.5z" />
    <glyph glyph-name="c" unicode="c" horiz-adv-x="448" 
d="M297 68c21.333 0 40.167 2.50391 56.5 7.50391s31.166 10.833 44.499 17.5l21 -74c-16 -8.66699 -35.333 -15.667 -58 -21s-47.667 -8 -75 -8c-34.667 0 -67.167 5.16699 -97.5 15.5s-56.666 25.666 -78.999 45.999s-40 45.833 -53 76.5s-19.5 66.334 -19.5 107.001
c0 37.333 6 71.166 18 101.499s29 56.166 51 77.499s48.333 37.666 79 48.999s64.334 17 101.001 17c20.667 0 41.5 -1.66699 62.5 -5s44.167 -11 69.5 -23l-23 -75c-31.333 17.333 -64 26 -98 26c-46 0 -83.333 -14.333 -112 -43s-43 -69.334 -43 -122.001
c0 -32 4.5 -58.833 13.5 -80.5s20.833 -39.167 35.5 -52.5s31.167 -22.833 49.5 -28.5s37.166 -8.5 56.499 -8.5z" />
    <glyph glyph-name="d" unicode="d" horiz-adv-x="545" 
d="M376 711l102.999 -0.00195312v-711h-81l-12 52h-4c-17.333 -20 -36.666 -35.333 -57.999 -46s-49 -16 -83 -16c-26.667 0 -52.167 5.16699 -76.5 15.5s-46 25.833 -65 46.5s-34.167 46.334 -45.5 77.001s-17 66 -17 106c0 37.333 4.83301 71 14.5 101
s23.667 55.667 42 77s40.833 37.833 67.5 49.5s57 17.5 91 17.5c23.333 0 46 -3.66699 68 -11s40.667 -17.666 56 -30.999v273zM375.999 354.998c-28 32 -61.666 48 -100.999 48c-17.333 0 -34 -3 -50 -9s-30.333 -15.667 -43 -29s-22.667 -30.333 -30 -51s-11 -46 -11 -76
s3.5 -55.667 10.5 -77s16.167 -39 27.5 -53s24.5 -24.167 39.5 -30.5s30.5 -9.5 46.5 -9.5c24 0 45.167 5.33301 63.5 16s34.166 25.667 47.499 45v226z" />
    <glyph glyph-name="e" unicode="e" horiz-adv-x="509" 
d="M474 218l-331 -0.000976562v-4c0 -48 14 -84.333 42 -109s65 -37 111 -37c25.333 0 48.166 2.16699 68.499 6.5s40.833 11.166 61.5 20.499l20 -75c-19.333 -8.66699 -42.333 -15.834 -69 -21.501s-56 -8.5 -88 -8.5c-34 0 -66.333 4.66699 -97 14s-57.5 24 -80.5 44
s-41.167 45.333 -54.5 76s-20 67.334 -20 110.001c0 36.667 5.5 70.167 16.5 100.5s26.667 56.333 47 78s45 38.334 74 50.001s61.167 17.5 96.5 17.5c30.667 0 58.5 -5 83.5 -15s46.333 -24.167 64 -42.5s31.334 -40.666 41.001 -66.999s14.5 -55.5 14.5 -87.5v-50z
M368 289.999c0 16 -2 31.001 -6 45.001s-10 26.167 -18 36.5s-18.5 18.666 -31.5 24.999s-28.5 9.5 -46.5 9.5c-33.333 0 -60.5 -10.667 -81.5 -32s-33.833 -50 -38.5 -86z" />
    <glyph glyph-name="f" unicode="f" horiz-adv-x="344" 
d="M248 715c20.667 0 41.668 -2.83105 63.001 -8.49805s40.333 -12.834 57 -21.501l-21 -70c-12.667 5.33301 -24.834 9.66602 -36.501 12.999s-24.167 5 -37.5 5c-29.333 0 -50.5 -8.16699 -63.5 -24.5s-19.5 -44.5 -19.5 -84.5v-52h136v-76h-136v-396h-102v396h-70v76h70
v80c0 52 14 92.167 42 120.5s67.333 42.5 118 42.5z" />
    <glyph glyph-name="g" unicode="g" horiz-adv-x="550" 
d="M59 314c0 26 4.83496 49.3311 14.502 69.998s23.167 38.167 40.5 52.5s38 25.166 62 32.499s50 11 78 11c20.667 0 41.667 -2.66699 63 -8h203v-71h-35l-74 10c11.333 -12.667 20.333 -27.334 27 -44.001s10 -34 10 -52c0 -26 -4.66699 -49.167 -14 -69.5
s-22.5 -37.666 -39.5 -51.999s-37.5 -25.166 -61.5 -32.499s-50.333 -11 -79 -11c-9.33301 0 -18.166 0.333008 -26.499 1s-16.5 1.66699 -24.5 3c-12.667 -5.33301 -21.667 -11.666 -27 -18.999s-8 -15.333 -8 -24c0 -13.333 4.66699 -22.666 14 -27.999
s22.666 -8 39.999 -8h119c52 0 92.5 -11.833 121.5 -35.5s43.5 -57.5 43.5 -101.5c0 -26 -5.83301 -49.5 -17.5 -70.5s-28.334 -39 -50.001 -54s-47.834 -26.5 -78.501 -34.5s-65 -12 -103 -12c-70 0 -125.333 12.333 -166 37s-61 61 -61 109c0 23.333 7.66699 43.333 23 60
s35.666 29.667 60.999 39c-12 8 -21.667 17.5 -29 28.5s-11 25.5 -11 43.5c0 21.333 6.33301 39.5 19 54.5s29.334 26.833 50.001 35.5c-24 11.333 -44 28.5 -60 51.5s-24 52.5 -24 88.5zM173.002 -5.00195c-30.667 -14.667 -46 -36.666 -46 -65.999
c0 -26.667 10.833 -47 32.5 -61s55.5 -21 101.5 -21c26 0 48 2.5 66 7.5s32.833 11.5 44.5 19.5s20.167 17 25.5 27s8 20.333 8 31c0 25.333 -8.5 42.166 -25.5 50.499s-39.5 12.5 -67.5 12.5h-139zM345.002 312.999c0 32 -8.33301 55.833 -25 71.5s-38.667 23.5 -66 23.5
c-28 0 -50.167 -7.66699 -66.5 -23s-24.5 -38.333 -24.5 -69c0 -32 8.33301 -55.667 25 -71s38.667 -23 66 -23c28 0 50.167 7.66699 66.5 23s24.5 38 24.5 68z" />
    <glyph glyph-name="h" unicode="h" horiz-adv-x="550" 
d="M170 0l-102.999 0.000976562v711h103v-293c21.333 17.333 44.833 32 70.5 44s54.167 18 85.5 18c26.667 0 50 -4 70 -12s36.5 -19 49.5 -33s22.667 -30.667 29 -50s9.5 -40.333 9.5 -63v-322h-103v299c0 35.333 -7.33301 60.666 -22 75.999s-36 23 -64 23
c-20.667 0 -41.834 -5.16699 -63.501 -15.5s-42.167 -24.5 -61.5 -42.5v-340z" />
    <glyph glyph-name="i" unicode="i" horiz-adv-x="256" 
d="M76 0v472h103v-472h-103zM128 589c-18 0 -32.333 5.5 -43 16.5s-16 24.833 -16 41.5s5.33301 30.5 16 41.5s25 16.5 43 16.5c17.333 0 31.5 -5.5 42.5 -16.5s16.5 -24.833 16.5 -41.5c0 -17.333 -5.5 -31.333 -16.5 -42s-25.167 -16 -42.5 -16z" />
    <glyph glyph-name="j" unicode="j" horiz-adv-x="257" 
d="M77 472l103 0.000976562v-402c0 -38 -2.5 -73 -7.5 -105s-13.833 -61 -26.5 -87s-30 -49.333 -52 -70s-50.333 -38.334 -85 -53.001l-46 74c20.667 10.667 38.167 21.5 52.5 32.5s26 24.833 35 41.5s15.667 37.5 20 62.5s6.5 56.5 6.5 94.5v412zM129 589.001
c-18 0 -32.333 5.5 -43 16.5s-16 24.833 -16 41.5s5.5 30.5 16.5 41.5s25.167 16.5 42.5 16.5s31.5 -5.5 42.5 -16.5s16.5 -24.833 16.5 -41.5c0 -17.333 -5.5 -31.333 -16.5 -42s-25.167 -16 -42.5 -16z" />
    <glyph glyph-name="k" unicode="k" horiz-adv-x="487" 
d="M169 168v-168h-102v711h102v-436l179 197h126l-190 -199l199 -273h-121l-149 212z" />
    <glyph glyph-name="l" unicode="l" horiz-adv-x="240" 
d="M69 0v711h101v-711h-101z" />
    <glyph glyph-name="m" unicode="m" horiz-adv-x="834" 
d="M168 0h-103.001v472h80l14 -63c22 22 45.667 39.333 71 52s55 19 89 19s61.833 -6.66699 83.5 -20s38.167 -32 49.5 -56c22.667 24 47.834 42.667 75.501 56s58.167 20 91.5 20c49.333 0 86.5 -13.5 111.5 -40.5s37.5 -65.167 37.5 -114.5v-325h-103v309
c0 28.667 -6.16699 50.667 -18.5 66s-32.5 23 -60.5 23c-42.667 0 -82 -19 -118 -57v-341h-103v309c0 28.667 -6.16699 50.667 -18.5 66s-32.5 23 -60.5 23c-42.667 0 -82 -20 -118 -60v-338z" />
    <glyph glyph-name="n" unicode="n" horiz-adv-x="544" 
d="M168 0l-103.001 -0.000976562v472h81l14 -63c23.333 22.667 47.833 40.167 73.5 52.5s54.834 18.5 87.501 18.5c50 0 88.667 -13.667 116 -41s41 -66.333 41 -117v-322h-103v309c0 27.333 -7 49 -21 65s-35 24 -63 24c-21.333 0 -42.5 -5.16699 -63.5 -15.5
s-40.833 -25.166 -59.5 -44.499v-338z" />
    <glyph glyph-name="o" unicode="o" horiz-adv-x="545" 
d="M507 241c0 -39.333 -6.16699 -74.6689 -18.5 -106.002s-29.166 -57.666 -50.499 -78.999s-46.333 -37.666 -75 -48.999s-59.667 -17 -93 -17s-64.166 5.33301 -92.499 16s-53 26.167 -74 46.5s-37.333 45.5 -49 75.5s-17.5 64.333 -17.5 103
c0 40 6.16699 75.333 18.5 106s29.166 56.667 50.499 78s46.333 37.5 75 48.5s59.667 16.5 93 16.5s64.166 -5.16699 92.499 -15.5s53 -25.5 74 -45.5s37.333 -45 49 -75s17.5 -64.333 17.5 -103zM400 235.997c0 30 -3.66699 55.499 -11 76.499s-17 38.167 -29 51.5
s-25.667 23 -41 29s-31.333 9 -48 9c-16 0 -31.667 -2.66699 -47 -8s-29 -14.333 -41 -27s-21.5 -29.667 -28.5 -51s-10.5 -48 -10.5 -80c0 -29.333 3.66699 -54.666 11 -75.999s17 -38.833 29 -52.5s25.833 -23.667 41.5 -30s31.5 -9.5 47.5 -9.5s31.667 2.66699 47 8
s29 14.5 41 27.5s21.5 30.333 28.5 52s10.5 48.5 10.5 80.5z" />
    <glyph glyph-name="p" unicode="p" horiz-adv-x="541" 
d="M270 -10c-20 0 -39.333 2.66797 -58 8.00098s-34.667 12.666 -48 21.999v-250h-102v708h83l13 -59c18.667 17.333 39.667 31.833 63 43.5s50.333 17.5 81 17.5c62.667 0 112 -20.333 148 -61s54 -98.334 54 -173.001c0 -43.333 -6.5 -81.166 -19.5 -113.499
s-30.333 -59 -52 -80s-46.667 -36.667 -75 -47s-57.5 -15.5 -87.5 -15.5zM277 399.001c-25.333 0 -47.8311 -6.16699 -67.498 -18.5s-34.834 -25.166 -45.501 -38.499v-243c27.333 -20.667 58.333 -31 93 -31c17.333 0 34.333 3 51 9s31.667 16 45 30s24 32.167 32 54.5
s12 49.5 12 81.5c0 47.333 -9.83301 85.166 -29.5 113.499s-49.834 42.5 -90.501 42.5z" />
    <glyph glyph-name="q" unicode="q" horiz-adv-x="545" 
d="M376 31c-16 -14.667 -34.498 -25.1689 -55.498 -31.502s-43.833 -9.5 -68.5 -9.5c-34 0 -64.167 5.83301 -90.5 17.5s-48.833 28.334 -67.5 50.001s-32.834 47.5 -42.501 77.5s-14.5 63.667 -14.5 101c0 35.333 4.83301 67.833 14.5 97.5s23.834 55.334 42.501 77.001
s41.5 38.667 68.5 51s57.833 18.5 92.5 18.5c21.333 0 44.666 -4.5 69.999 -13.5s45.666 -22.167 60.999 -39.5l10 45h83v-702h-103v261zM376.002 348.998c-11.333 14.667 -25.667 27.334 -43 38.001s-37 16 -59 16c-18 0 -35 -3 -51 -9s-30 -15.667 -42 -29
s-21.667 -30.333 -29 -51s-11 -45.667 -11 -75c0 -56.667 12.167 -99.334 36.5 -128.001s54.833 -43 91.5 -43c23.333 0 44 4.5 62 13.5s33 20.167 45 33.5v234z" />
    <glyph glyph-name="r" unicode="r" horiz-adv-x="378" 
d="M64 0l0.000976562 472.001h78l15 -91c11.333 28 29.666 51.5 54.999 70.5s56 28.5 92 28.5c16 0 29.833 -1.33301 41.5 -4s22.167 -6.33398 31.5 -11.001l-19 -86c-8 4 -17.167 7.33301 -27.5 10s-22.166 4 -35.499 4c-36.667 0 -67.334 -12.5 -92.001 -37.5
s-37 -62.833 -37 -113.5v-242h-102z" />
    <glyph glyph-name="s" unicode="s" horiz-adv-x="416" 
d="M337 376c-21.333 10 -41.167 17.166 -59.5 21.499s-36.5 6.5 -54.5 6.5c-28 0 -49.167 -5.16699 -63.5 -15.5s-21.5 -24.166 -21.5 -41.499c0 -13.333 5.33301 -24.833 16 -34.5s32.667 -19.167 66 -28.5l30 -9c43.333 -13.333 76.166 -30.666 98.499 -51.999
s33.5 -50 33.5 -86c0 -44 -16.667 -79.5 -50 -106.5s-79 -40.5 -137 -40.5c-31.333 0 -60.5 2.83301 -87.5 8.5s-51.167 13.5 -72.5 23.5l24 78c19.333 -9.33301 40 -17 62 -23s44.667 -9 68 -9c28.667 0 51 5 67 15s24 25.333 24 46c0 19.333 -7.16699 33.166 -21.5 41.499
s-36.5 17.166 -66.5 26.499l-31 9c-42 14 -73.167 31.667 -93.5 53s-30.5 49.333 -30.5 84c0 20.667 4.33301 39.334 13 56.001s20.667 31 36 43s33.833 21.333 55.5 28s45.5 10 71.5 10c24.667 0 49.834 -2.33301 75.501 -7s49.5 -12 71.5 -22z" />
    <glyph glyph-name="t" unicode="t" horiz-adv-x="370" 
d="M325 396l-134 -0.000976562v-255c0 -23.333 5.5 -39 16.5 -47s25.833 -12 44.5 -12c13.333 0 27.5 1.5 42.5 4.5s28.167 6.5 39.5 10.5l16 -76c-13.333 -5.33301 -30.5 -10.166 -51.5 -14.499s-43.167 -6.5 -66.5 -6.5c-50.667 0 -87.167 10.5 -109.5 31.5
s-33.5 52.167 -33.5 93.5v271h-72v76h72v149h102v-149h134v-76z" />
    <glyph glyph-name="u" unicode="u" horiz-adv-x="546" 
d="M378 472l103 0.000976562v-472h-79l-13 57h-4c-16.667 -17.333 -37.667 -32.833 -63 -46.5s-56 -20.5 -92 -20.5c-50 0 -90 14 -120 42s-45 70 -45 126v314h103v-303c0 -36.667 8.5 -62.334 25.5 -77.001s37.5 -22 61.5 -22c26 0 49 5.5 69 16.5s38 25.5 54 43.5v342z
" />
    <glyph glyph-name="v" unicode="v" horiz-adv-x="477" 
d="M357 472h109l-173 -472h-108l-173 472h111l94 -294l21 -98h4l21 97z" />
    <glyph glyph-name="w" unicode="w" horiz-adv-x="728" 
d="M10 472h109l74 -281l18 -112h4l22 112l73 281h110l76 -281l21 -112h4l21 112l72 281h105l-139 -472h-119l-74 278l-22 116l-23 -116l-76 -278h-115z" />
    <glyph glyph-name="x" unicode="x" horiz-adv-x="470" 
d="M295 240l166 -240h-118l-70 103l-41 70l-38 -69l-68 -104h-116l165 240l-156 232h115l66 -101l39 -68l37 68l61 101h112z" />
    <glyph glyph-name="y" unicode="y" horiz-adv-x="481" 
d="M8 472h111l95 -255l34 -113h2l33 114l86 254h105l-179 -504c-20 -56.667 -45.5 -102.834 -76.5 -138.501s-71.5 -62.167 -121.5 -79.5l-44 81c33.333 12.667 62.333 30.834 87 54.501s43 54.5 55 92.5l8 23z" />
    <glyph glyph-name="z" unicode="z" horiz-adv-x="414" 
d="M386 411l-241 -335h246v-76h-367v64l240 332h-225v76h347v-61z" />
    <glyph glyph-name="braceleft" unicode="{" horiz-adv-x="326" 
d="M301 634c-34 0 -58.667 -8.99707 -74 -26.9971s-23 -46 -23 -84v-130c0 -59.333 -23.333 -97.333 -70 -114v-3c46.667 -22.667 70 -69.667 70 -141v-130c0 -28.667 7.66699 -49.667 23 -63s40 -21 74 -23v-74c-55.333 1.33301 -100 16.166 -134 44.499
s-51 67.5 -51 117.5v143c0 28.667 -7 51 -21 67s-36.333 24.667 -67 26v66c30 4 52.167 12.667 66.5 26s21.5 35 21.5 65v155c0 21.333 4 41.166 12 59.499s19.833 34.166 35.5 47.499s35 23.833 58 31.5s49.5 11.5 79.5 11.5v-71z" />
    <glyph glyph-name="bar" unicode="|" horiz-adv-x="226" 
d="M72 -230v980h82v-980h-82z" />
    <glyph glyph-name="braceright" unicode="}" horiz-adv-x="326" 
d="M24 709c58.667 -0.666992 104.167 -15.8281 136.5 -45.4951s48.5 -66.834 48.5 -111.501v-152c0 -29.333 7.16699 -51 21.5 -65s36.5 -22.667 66.5 -26v-66c-30.667 -2.66699 -53 -11.5 -67 -26.5s-21 -37.167 -21 -66.5v-146c0 -24 -4.33301 -45.667 -13 -65
s-21.167 -35.833 -37.5 -49.5s-35.833 -24.334 -58.5 -32.001s-48 -11.834 -76 -12.501v73c34 1.33301 58.667 9.33301 74 24s23 37.667 23 69v129c0 68 23.667 113 71 135v3c-47.333 17.333 -71 57.333 -71 120v131c0 35.333 -7.66699 61.166 -23 77.499
s-40 25.166 -74 26.499v76z" />
    <glyph glyph-name="asciitilde" unicode="~" horiz-adv-x="583" 
d="M46 207c0 51.333 13.332 90.0029 39.999 116.003s60.334 39 101.001 39c20 0 39.333 -4.16699 58 -12.5s36.667 -17.333 54 -27l50.5 -27c16.333 -8.33301 32.5 -12.5 48.5 -12.5c22 0 39 6.66699 51 20s18 32.666 18 57.999h69c0 -28.667 -3.66699 -52.834 -11 -72.501
s-17.333 -35.667 -30 -48s-27 -21.166 -43 -26.499s-32.667 -8 -50 -8c-20 0 -39.5 4.16699 -58.5 12.5s-37.5 17.666 -55.5 27.999s-35.5 19.666 -52.5 27.999s-33.5 12.5 -49.5 12.5c-22.667 0 -40.167 -7.83301 -52.5 -23.5s-18.5 -34.5 -18.5 -56.5h-69z" />
    <glyph glyph-name="uni0097" horiz-adv-x="442" 
 />
    <glyph glyph-name="uni00A0" unicode="&#xa0;" horiz-adv-x="226" 
 />
    <glyph glyph-name="exclamdown" unicode="&#xa1;" horiz-adv-x="251" 
d="M84 254h83l14 -496h-109zM60 410c0 20.667 6.66699 37.167 20 49.5s28.666 18.5 45.999 18.5c18 0 33.333 -6.16699 46 -18.5s19 -28.833 19 -49.5c0 -19.333 -6.33301 -35.333 -19 -48s-28 -19 -46 -19c-17.333 0 -32.666 6.33301 -45.999 19s-20 28.667 -20 48z" />
    <glyph glyph-name="cent" unicode="&#xa2;" horiz-adv-x="502" 
d="M318 144c21.333 0 40 2.16699 56 6.5s30.667 10.166 44 17.499l22 -74c-26 -13.333 -56.667 -22 -92 -26v-89h-85v89c-29.333 4 -56.5 11.833 -81.5 23.5s-46.667 27.334 -65 47.001s-32.666 43.5 -42.999 71.5s-15.5 60 -15.5 96c0 68 18.667 122.833 56 164.5
s87 66.5 149 74.5v95h85v-95c28.667 -2 58.667 -10.333 90 -25l-22 -75c-14 8 -30 14.333 -48 19s-36.667 7 -56 7c-46 0 -82.333 -13.667 -109 -41s-40 -67.333 -40 -120c0 -32 4.5 -58.667 13.5 -80s20.833 -38.333 35.5 -51s31.167 -21.667 49.5 -27s37.166 -8 56.499 -8
z" />
    <glyph glyph-name="sterling" unicode="&#xa3;" horiz-adv-x="506" 
d="M76 0l-21.9971 66.999c40 21.333 68.5 48.666 85.5 81.999s20.833 73.666 11.5 120.999h-91v73h80c-2.66699 14.667 -5.16699 30.834 -7.5 48.501s-3.5 35.834 -3.5 54.501c0 29.333 5.16699 56 15.5 80s24.666 44.5 42.999 61.5s40.333 30 66 39s53.5 13.5 83.5 13.5
c25.333 0 48.833 -2.66699 70.5 -8s38.167 -11.666 49.5 -18.999l-23 -75c-12.667 5.33301 -26.834 10.166 -42.501 14.499s-33.167 6.5 -52.5 6.5c-37.333 0 -65.5 -11.167 -84.5 -33.5s-28.5 -50.166 -28.5 -83.499c0 -20.667 1.16699 -38.5 3.5 -53.5
s5.16602 -30.167 8.49902 -45.5h159v-73h-150c4.66699 -40 3 -75 -5 -105s-26 -55.667 -54 -77l1 -4h277v-84h-390z" />
    <glyph glyph-name="currency" unicode="&#xa4;" horiz-adv-x="516" 
d="M81 66l-47.001 47l83 83c-20 31.333 -30 68 -30 110c0 22 2.5 42.167 7.5 60.5s12.167 34.5 21.5 48.5l-82 83l48 47l81 -83c26.667 18 58.667 27 96 27c35.333 0 66.333 -9.33301 93 -28l83 84l47 -47l-84 -83c9.33301 -15.333 16.833 -32 22.5 -50s8.5 -37.667 8.5 -59
c0 -22.667 -2.66699 -43.5 -8 -62.5s-12.666 -35.5 -21.999 -49.5l83 -82l-47 -47l-83 83c-13.333 -8 -28 -14.333 -44 -19s-33.333 -7 -52 -7c-34.667 0 -65.667 9 -93 27zM351.999 306c0 38.667 -7.83105 68.832 -23.498 90.499s-38.834 32.5 -69.501 32.5
c-30 0 -53.333 -10.167 -70 -30.5s-25 -51.166 -25 -92.499c0 -39.333 8.16699 -69.833 24.5 -91.5s39.166 -32.5 68.499 -32.5c26 0 48.333 9.5 67 28.5s28 50.833 28 95.5z" />
    <glyph glyph-name="yen" unicode="&#xa5;" horiz-adv-x="533" 
d="M494 225v-67h-177v-158h-104v158h-179v67h179v39l-29 49h-150v67h114l-141 250h116l146 -282l146 282h112l-145 -250h112v-67h-149l-28 -49v-39h177z" />
    <glyph glyph-name="brokenbar" unicode="&#xa6;" horiz-adv-x="242" 
d="M80 380v370h82v-370h-82zM80 -180v368h82v-368h-82z" />
    <glyph glyph-name="section" unicode="&#xa7;" horiz-adv-x="518" 
d="M82 36c22 -11.333 44.5029 -19.833 67.5029 -25.5s48.167 -8.5 75.5 -8.5c34 0 58.833 6.66699 74.5 20s23.5 29.666 23.5 48.999c0 9.33301 -1.66699 17.333 -5 24s-8.5 12.667 -15.5 18s-16.167 10.5 -27.5 15.5s-25 10.5 -41 16.5l-55 20
c-40 14.667 -70.833 33.334 -92.5 56.001s-32.5 50.667 -32.5 84c0 26.667 6.16699 50 18.5 70s27.166 36.667 44.499 50c-15.333 19.333 -23 43.333 -23 72c0 20.667 4.16699 39.834 12.5 57.501s20.333 33 36 46s35 23.167 58 30.5s49.167 11 78.5 11
c56.667 0 106.667 -10.333 150 -31l-23 -72c-21.333 10.667 -41.333 18.167 -60 22.5s-37.334 6.5 -56.001 6.5c-32.667 0 -57.167 -5.83301 -73.5 -17.5s-24.5 -27.5 -24.5 -47.5c0 -9.33301 1.5 -17.333 4.5 -24s8 -12.667 15 -18s16.5 -10.666 28.5 -15.999
s26.667 -11 44 -17l54 -20c40 -14.667 71 -33.334 93 -56.001s33 -51 33 -85c0 -26.667 -6.33301 -50 -19 -70s-27.667 -36.333 -45 -49c14.667 -20.667 22 -44.334 22 -71.001c0 -21.333 -4.33301 -41 -13 -59s-21 -33.667 -37 -47s-35.333 -23.833 -58 -31.5
s-48.334 -11.5 -77.001 -11.5c-37.333 0 -70.5 2.83301 -99.5 8.5s-55.167 14.167 -78.5 25.5zM372.003 253c0 21.333 -6.83301 37.6699 -20.5 49.0029s-33.5 21.666 -59.5 30.999l-59 21c-10 3.33301 -20 7.16602 -30 11.499s-19.333 9.16602 -28 14.499
c-8.66699 -7.33301 -15.667 -15.833 -21 -25.5s-8 -20.834 -8 -33.501c0 -21.333 7 -37.666 21 -48.999s33.333 -21.333 58 -30l58 -21l31 -12c10 -4 19.667 -8.66699 29 -14c8 7.33301 14.833 15.833 20.5 25.5s8.5 20.5 8.5 32.5z" />
    <glyph glyph-name="dieresis" unicode="&#xa8;" horiz-adv-x="352" 
d="M33 622c0 14 5.33301 26.5 16 37.5s23.667 16.5 39 16.5s28.333 -5.5 39 -16.5s16 -23.5 16 -37.5c0 -15.333 -5.33301 -28.5 -16 -39.5s-23.667 -16.5 -39 -16.5s-28.333 5.5 -39 16.5s-16 24.167 -16 39.5zM210 622c0 14 5.33301 26.5 16 37.5s23.667 16.5 39 16.5
s28.166 -5.5 38.499 -16.5s15.5 -23.5 15.5 -37.5c0 -15.333 -5.16699 -28.5 -15.5 -39.5s-23.166 -16.5 -38.499 -16.5s-28.333 5.5 -39 16.5s-16 24.167 -16 39.5z" />
    <glyph glyph-name="copyright" unicode="&#xa9;" horiz-adv-x="706" 
d="M379 188c14.667 0 27.998 1.66797 39.998 5.00098s23.667 7.66602 35 12.999l15 -50c-28.667 -13.333 -60.667 -20 -96 -20c-24.667 0 -47.667 3.66699 -69 11s-40 18.166 -56 32.499s-28.667 32.5 -38 54.5s-14 47.667 -14 77c0 54.667 16.333 97.667 49 129
s75.334 47 128.001 47c15.333 0 30.166 -1.16699 44.499 -3.5s30.5 -7.5 48.5 -15.5l-14 -51c-12.667 6.66699 -25 11.334 -37 14.001s-24 4 -36 4c-34 0 -61.5 -10.667 -82.5 -32s-31.5 -51.333 -31.5 -90c0 -23.333 3.33301 -43 10 -59s15.334 -28.833 26.001 -38.5
s22.834 -16.667 36.501 -21s27.5 -6.5 41.5 -6.5zM354.998 638.001c42.667 0 83 -6.83203 121 -20.499s71.333 -34 100 -61s51.5 -60.667 68.5 -101s25.5 -87.5 25.5 -141.5c0 -52 -8.66699 -98.167 -26 -138.5s-40.666 -74.166 -69.999 -101.499s-63.166 -48 -101.499 -62
s-78.833 -21 -121.5 -21s-83 6.83301 -121 20.5s-71.333 34 -100 61s-51.5 60.667 -68.5 101s-25.5 87.166 -25.5 140.499c0 52.667 8.66699 99.167 26 139.5s40.666 74.166 69.999 101.499s63.166 48 101.499 62s78.833 21 121.5 21zM354.998 600.002
c-37.333 0 -72.498 -6.16504 -105.498 -18.498s-62.167 -30.5 -87.5 -54.5s-45.333 -53.833 -60 -89.5s-22 -76.834 -22 -123.501c0 -48 7.16699 -89.833 21.5 -125.5s33.833 -65.334 58.5 -89.001s53.5 -41.334 86.5 -53.001s67.833 -17.5 104.5 -17.5
s71.667 6.16699 105 18.5s62.5 30.5 87.5 54.5s44.833 53.667 59.5 89s22 76.333 22 123c0 48 -7.16699 89.833 -21.5 125.5s-33.833 65.334 -58.5 89.001s-53.334 41.5 -86.001 53.5s-67.334 18 -104.001 18z" />
    <glyph glyph-name="ordfeminine" unicode="&#xaa;" horiz-adv-x="340" 
d="M56 557c20 10.667 39.333 18.667 58 24s39.667 8 63 8c35.333 0 64 -8.33301 86 -25s33 -46 33 -88v-202h-55l-7 33h-1c-24 -26 -56.333 -39 -97 -39c-32 0 -57.333 8.16699 -76 24.5s-28 38.5 -28 66.5c0 34 13.333 59.167 40 75.5s61 24.5 103 24.5h53v24
c0 20 -5.33301 33.833 -16 41.5s-25.334 11.5 -44.001 11.5c-11.333 0 -24.166 -2 -38.499 -6s-30.5 -11 -48.5 -21zM228 415l-41.999 -2.00098c-31.333 -1.33301 -53.166 -6.66602 -65.499 -15.999s-18.5 -21 -18.5 -35c0 -17.333 5.33301 -29.166 16 -35.499
s22.667 -9.5 36 -9.5s26.666 3.16699 39.999 9.5s24.666 16.166 33.999 29.499v59z" />
    <glyph glyph-name="guillemotleft" unicode="&#xab;" horiz-adv-x="495" 
d="M374 76l-143 160l143 161h86l-131 -161l131 -160h-86zM184 76l-143 160l143 161h86l-131 -161l131 -160h-86z" />
    <glyph glyph-name="logicalnot" unicode="&#xac;" horiz-adv-x="1087" 
 />
    <glyph glyph-name="uni00AD" unicode="&#xad;" horiz-adv-x="280" 
d="M250 335v-86h-220v86h220z" />
    <glyph glyph-name="registered" unicode="&#xae;" horiz-adv-x="531" 
d="M492 467c0 -38 -5.49902 -71.334 -16.499 -100.001s-26.5 -52.667 -46.5 -72s-43.833 -33.833 -71.5 -43.5s-58.167 -14.5 -91.5 -14.5s-63.833 4.83301 -91.5 14.5s-51.5 23.834 -71.5 42.501s-35.667 41.834 -47 69.501s-17 59.5 -17 95.5
c0 37.333 5.5 70.166 16.5 98.499s26.5 52 46.5 71s43.667 33.333 71 43s57.666 14.5 90.999 14.5s64 -4.66699 92 -14s52 -23.333 72 -42s35.667 -41.5 47 -68.5s17 -58.5 17 -94.5zM455.001 462.999c0 33.333 -5.16797 62.167 -15.501 86.5s-24.166 44.5 -41.499 60.5
s-37.5 27.833 -60.5 35.5s-47.5 11.5 -73.5 11.5s-50.333 -3.66699 -73 -11s-42.5 -18.666 -59.5 -33.999s-30.5 -35.333 -40.5 -60s-15 -54.334 -15 -89.001c0 -33.333 4.66699 -62.5 14 -87.5s22.333 -45.667 39 -62s36.667 -28.5 60 -36.5s49 -12 77 -12
c26 0 50.333 3.83301 73 11.5s42.667 19.5 60 35.5s31 36.5 41 61.5s15 54.833 15 89.5zM182 589h100.001c27.333 0 48.166 -7.16699 62.499 -21.5s21.5 -32.5 21.5 -54.5c0 -20 -5.16699 -36 -15.5 -48s-21.833 -20.667 -34.5 -26l65 -103h-52l-57 96h-47v-96h-43v253z
M225.001 466l40 0.000976562c16 0 29.333 3.5 40 10.5s16 18.5 16 34.5c0 15.333 -4.33301 26.166 -13 32.499s-21 9.5 -37 9.5h-46v-87z" />
    <glyph glyph-name="macron" unicode="&#xaf;" horiz-adv-x="291" 
d="M263 660v-63h-235v63h235z" />
    <glyph glyph-name="degree" unicode="&#xb0;" horiz-adv-x="394" 
d="M362 467c0 -53.333 -14.5 -95.5 -43.5 -126.5s-69.5 -46.5 -121.5 -46.5c-49.333 0 -88.833 15.5 -118.5 46.5s-44.5 73.167 -44.5 126.5c0 26 3.83301 49.667 11.5 71s18.834 39.5 33.501 54.5s32.167 26.667 52.5 35s43.166 12.5 68.499 12.5
c24 0 46 -4.16699 66 -12.5s37 -20 51 -35s25 -33.167 33 -54.5s12 -45 12 -71zM290 467c0 34 -6.99902 61.833 -20.999 83.5s-37 32.5 -69 32.5c-31.333 0 -54.833 -10.167 -70.5 -30.5s-23.5 -48.833 -23.5 -85.5c0 -35.333 7.5 -63.5 22.5 -84.5s37.833 -31.5 68.5 -31.5
c27.333 0 49.666 9.33301 66.999 28s26 48 26 88z" />
    <glyph glyph-name="plusminus" unicode="&#xb1;" horiz-adv-x="476" 
d="M406 68v-68h-344v68h344zM440 375v-69h-167v-165h-70v165h-167v69h167v165h70v-165h167z" />
    <glyph glyph-name="twosuperior" unicode="&#xb2;" horiz-adv-x="320" 
d="M140 795c-14.667 0 -28.999 -1.99902 -42.999 -5.99902s-30 -11.667 -48 -23l-32 54c20 13.333 40.333 23 61 29s42.667 9 66 9c47.333 0 83.666 -12 108.999 -36s38 -54.333 38 -91c0 -26 -8.33301 -53.333 -25 -82s-45.667 -59 -87 -91l-66 -50h178v-63h-262l-13 55
l80 69c40.667 34 70 62.833 88 86.5s27 48.167 27 73.5c0 19.333 -6.5 35.166 -19.5 47.499s-30.167 18.5 -51.5 18.5z" />
    <glyph glyph-name="threesuperior" unicode="&#xb3;" horiz-adv-x="299" 
d="M21 835c21.333 9.33301 40.6709 15.501 58.0039 18.501s34.666 4.5 51.999 4.5c18 0 35.167 -2.66699 51.5 -8s30.666 -12.833 42.999 -22.5s22 -21.167 29 -34.5s10.5 -28.333 10.5 -45c0 -47.333 -26.333 -78.666 -79 -93.999v-2
c28 -5.33301 50.5 -16.166 67.5 -32.499s25.5 -36.833 25.5 -61.5c0 -20 -4.33301 -37.333 -13 -52s-20.167 -27 -34.5 -37s-31 -17.333 -50 -22s-38.5 -7 -58.5 -7c-18 0 -37.833 1.66699 -59.5 5s-39.5 7.66602 -53.5 12.999l17 59
c17.333 -6 32.666 -9.83301 45.999 -11.5s28.666 -2.5 45.999 -2.5c21.333 0 39.5 5.33301 54.5 16s22.5 26 22.5 46c0 15.333 -6.33301 28.166 -19 38.499s-34 15.5 -64 15.5h-57v59h42c29.333 0 51 5.66699 65 17s21 26.666 21 45.999c0 20 -7 34.333 -21 43
s-29.667 13 -47 13c-12 0 -24.333 -1.33301 -37 -4s-25.667 -7 -39 -13z" />
    <glyph glyph-name="acute" unicode="&#xb4;" horiz-adv-x="253" 
d="M103 553h-72l78 162h102z" />
    <glyph glyph-name="uni00B5" unicode="&#xb5;" horiz-adv-x="545" 
d="M378 472l103 0.000976562v-472h-79l-13 57h-4c-16 -17.333 -36.167 -32.833 -60.5 -46.5s-54.5 -20.5 -90.5 -20.5c-28 0 -53 5.66699 -75 17l9 -80v-88h-103v633h103v-303c0 -36.667 8.5 -62.334 25.5 -77.001s37.5 -22 61.5 -22c26 0 49 5.5 69 16.5s38 25.5 54 43.5
v342z" />
    <glyph glyph-name="paragraph" unicode="&#xb6;" horiz-adv-x="567" 
d="M421 -179v744.001h-91v-744h-72v433c-74.667 0 -130.5 17.167 -167.5 51.5s-55.5 80.833 -55.5 139.5c0 32.667 5.5 61.167 16.5 85.5s26.5 44.666 46.5 60.999s43.833 28.5 71.5 36.5s58.167 12 91.5 12h231v-819h-71z" />
    <glyph glyph-name="periodcentered" unicode="&#xb7;" horiz-adv-x="198" 
d="M36 331c0 18 6.5 33.833 19.5 47.5s28.5 20.5 46.5 20.5c18.667 0 34.334 -6.83301 47.001 -20.5s19 -29.5 19 -47.5c0 -20 -6.33301 -36.667 -19 -50s-28.334 -20 -47.001 -20c-18 0 -33.5 6.66699 -46.5 20s-19.5 30 -19.5 50z" />
    <glyph glyph-name="cedilla" unicode="&#xb8;" horiz-adv-x="286" 
d="M127 0l59 0.00195312l-25 -47c28 -2 49.167 -9.33301 63.5 -22s21.5 -28.667 21.5 -48c0 -14 -3 -26.167 -9 -36.5s-14.167 -19 -24.5 -26s-22.333 -12.167 -36 -15.5s-28.167 -5 -43.5 -5s-29.833 1.33301 -43.5 4s-24.5 5.66699 -32.5 9l13 46
c16.667 -6 34.667 -9 54 -9c16.667 0 29.667 2.66699 39 8s14 13.666 14 24.999c0 13.333 -6.33301 23.166 -19 29.499s-35 9.5 -67 9.5z" />
    <glyph glyph-name="onesuperior" unicode="&#xb9;" horiz-adv-x="276" 
d="M146 851h63v-406h-81v322l-88 -40l-18 67z" />
    <glyph glyph-name="ordmasculine" unicode="&#xba;" horiz-adv-x="633" 
 />
    <glyph glyph-name="guillemotright" unicode="&#xbb;" horiz-adv-x="495" 
d="M40 76l131 160l-131 161h86l143 -161l-143 -160h-86zM230 76l131 160l-131 161h86l143 -161l-143 -160h-86z" />
    <glyph glyph-name="onequarter" unicode="&#xbc;" horiz-adv-x="826" 
d="M163 -10l409 650h70l-409 -650h-70zM159 630h64v-406h-82v322l-87 -40l-19 67zM634 406h88v-246h66v-58h-66v-102h-77v102h-201v49zM613 277l-87 -117h119v116l4 56h-2z" />
    <glyph glyph-name="onehalf" unicode="&#xbd;" horiz-adv-x="851" 
d="M155 -10l409 650h70l-409 -650h-70zM664 350c-14.667 0 -29.1689 -1.99902 -43.502 -5.99902s-30.166 -11.667 -47.499 -23l-32 54c20 13.333 40.333 23 61 29s42.667 9 66 9c46.667 0 82.667 -12 108 -36s38 -54.333 38 -91c0 -26 -8.33301 -53.5 -25 -82.5
s-45.667 -59.167 -87 -90.5l-65 -50h177v-63h-261l-14 55l81 69c40.667 34 69.834 62.833 87.501 86.5s26.5 48.167 26.5 73.5c0 19.333 -6.5 35.166 -19.5 47.499s-29.833 18.5 -50.5 18.5zM158.998 630.001h64v-406h-82v322l-87 -40l-19 67z" />
    <glyph glyph-name="threequarters" unicode="&#xbe;" horiz-adv-x="865" 
d="M203 -10l409 650h70l-409 -650h-70zM670 406h89v-246h65v-58h-65v-102h-77v102h-201v49zM649 277l-87 -117h120v116l3 56h-2zM51 613c21.333 9.33301 40.6709 15.501 58.0039 18.501s34.666 4.5 51.999 4.5c18 0 35.167 -2.66699 51.5 -8s30.666 -12.833 42.999 -22.5
s22 -21.167 29 -34.5s10.5 -28.333 10.5 -45c0 -47.333 -26.333 -78.666 -79 -93.999v-2c28 -5.33301 50.5 -16.166 67.5 -32.499s25.5 -36.833 25.5 -61.5c0 -20 -4.33301 -37.333 -13 -52s-20.167 -27 -34.5 -37s-31 -17.333 -50 -22s-38.5 -7 -58.5 -7
c-18 0 -37.833 1.66699 -59.5 5s-39.5 7.66602 -53.5 12.999l17 59c17.333 -6 32.666 -9.83301 45.999 -11.5s28.666 -2.5 45.999 -2.5c21.333 0 39.5 5.33301 54.5 16s22.5 26 22.5 46c0 15.333 -6.33301 28.166 -19 38.499s-34 15.5 -64 15.5h-57v59h42
c29.333 0 51 5.66699 65 17s21 26.666 21 45.999c0 20 -7 34.333 -21 43s-29.667 13 -47 13c-12 0 -24.333 -1.33301 -37 -4s-25.667 -7 -39 -13z" />
    <glyph glyph-name="questiondown" unicode="&#xbf;" horiz-adv-x="437" 
d="M250 -249c-30.667 0 -58.002 4.16699 -82.002 12.5s-44.167 20 -60.5 35s-28.833 32.833 -37.5 53.5s-13 43 -13 67c0 35.333 9.83301 67.166 29.5 95.499s42.5 54.833 68.5 79.5c28 26 49.167 47.5 63.5 64.5s21.5 36.5 21.5 58.5c0 8 -0.5 15.333 -1.5 22
s-3.16699 14.667 -6.5 24l86 14c3.33301 -9.33301 6.16602 -19.5 8.49902 -30.5s3.5 -22.167 3.5 -33.5c0 -14.667 -1.83301 -28.167 -5.5 -40.5s-9 -24.333 -16 -36s-15.667 -23.5 -26 -35.5s-22.166 -25 -35.499 -39l-34 -35c-10.667 -10.667 -19.667 -21.5 -27 -32.5
s-13.166 -22.167 -17.499 -33.5s-6.5 -24 -6.5 -38c0 -11.333 1.83301 -22.166 5.5 -32.499s9.33398 -19.5 17.001 -27.5s17.667 -14.333 30 -19s27.166 -7 44.499 -7c16 0 32 2.16699 48 6.5s32.333 12.5 49 24.5l41 -74c-19.333 -14 -42.166 -24.667 -68.499 -32
s-52.5 -11 -78.5 -11zM331.998 408c0 -19.333 -6.5 -35.333 -19.5 -48s-28.5 -19 -46.5 -19c-17.333 0 -32.5 6.33301 -45.5 19s-19.5 28.667 -19.5 48c0 20 6.5 36.167 19.5 48.5s28.167 18.5 45.5 18.5c18 0 33.5 -6.16699 46.5 -18.5s19.5 -28.5 19.5 -48.5z" />
    <glyph glyph-name="Agrave" unicode="&#xc0;" horiz-adv-x="601" 
d="M150 829h117l80 -124h-85zM203 247l190.998 0.000976562l-37 102c-11.333 28 -21.166 54.167 -29.499 78.5s-17.166 52.166 -26.499 83.499h-2l-28 -81.5c-8.66699 -25 -18.667 -52.167 -30 -81.5zM250.998 630.001h102l245 -630h-112l-63 165h-247l-62 -165h-111z" />
    <glyph glyph-name="Aacute" unicode="&#xc1;" horiz-adv-x="601" 
d="M340 705h-85l80 124h117zM203 247l190.998 0.000976562l-37 102c-11.333 28 -21.166 54.167 -29.499 78.5s-17.166 52.166 -26.499 83.499h-2l-28 -81.5c-8.66699 -25 -18.667 -52.167 -30 -81.5zM250.998 630.001h102l245 -630h-112l-63 165h-247l-62 -165h-111z" />
    <glyph glyph-name="Acircumflex" unicode="&#xc2;" horiz-adv-x="601" 
d="M261 836h79l122 -131h-87l-75 79l-75 -79h-84zM203 247l190.998 0.000976562l-37 102c-11.333 28 -21.166 54.167 -29.499 78.5s-17.166 52.166 -26.499 83.499h-2l-28 -81.5c-8.66699 -25 -18.667 -52.167 -30 -81.5zM250.998 630.001h102l245 -630h-112l-63 165h-247
l-62 -165h-111z" />
    <glyph glyph-name="Atilde" unicode="&#xc3;" horiz-adv-x="601" 
d="M146 705c0 31.333 7.16699 57.998 21.5 79.998s36.5 33 66.5 33c13.333 0 25.333 -2.16699 36 -6.5s20.834 -9.16602 30.501 -14.499s19 -10.166 28 -14.499s18.5 -6.5 28.5 -6.5c12.667 0 21.667 4.66699 27 14s8.66602 19.666 9.99902 30.999h55
c0 -15.333 -1.83301 -29.666 -5.5 -42.999s-9 -25.333 -16 -36s-15.667 -19 -26 -25s-22.5 -9 -36.5 -9s-27 2.16699 -39 6.5s-23.167 9 -33.5 14l-29 14c-9 4.33301 -17.5 6.5 -25.5 6.5c-13.333 0 -22.5 -4.33301 -27.5 -13s-8.16699 -19 -9.5 -31h-55zM203 246.998
l190.998 0.000976562l-37 102c-11.333 28 -21.166 54.167 -29.499 78.5s-17.166 52.166 -26.499 83.499h-2l-28 -81.5c-8.66699 -25 -18.667 -52.167 -30 -81.5zM250.998 629.999h102l245 -630h-112l-63 165h-247l-62 -165h-111z" />
    <glyph glyph-name="Adieresis" unicode="&#xc4;" horiz-adv-x="601" 
d="M158 758c0 14 5.16699 26.333 15.5 37s23.166 16 38.499 16s28.166 -5.33301 38.499 -16s15.5 -23 15.5 -37c0 -15.333 -5.16699 -28.5 -15.5 -39.5s-23.166 -16.5 -38.499 -16.5s-28.166 5.5 -38.499 16.5s-15.5 24.167 -15.5 39.5zM333 758c0 14 5.33301 26.333 16 37
s23.667 16 39 16s28.166 -5.33301 38.499 -16s15.5 -23 15.5 -37c0 -15.333 -5.16699 -28.5 -15.5 -39.5s-23.166 -16.5 -38.499 -16.5s-28.333 5.5 -39 16.5s-16 24.167 -16 39.5zM203 247l190.998 0.000976562l-37 102c-11.333 28 -21.166 54.167 -29.499 78.5
s-17.166 52.166 -26.499 83.499h-2l-28 -81.5c-8.66699 -25 -18.667 -52.167 -30 -81.5zM250.998 630.001h102l245 -630h-112l-63 165h-247l-62 -165h-111z" />
    <glyph glyph-name="Aring" unicode="&#xc5;" horiz-adv-x="601" 
d="M201 761c0 29.333 9.50098 50.833 28.501 64.5s42.5 20.5 70.5 20.5c29.333 0 53.333 -6.66699 72 -20s28 -35 28 -65s-10 -51.833 -30 -65.5s-43.333 -20.5 -70 -20.5s-49.834 7.16699 -69.501 21.5s-29.5 35.833 -29.5 64.5zM255.001 761
c0 -15.333 3.83203 -27.333 11.499 -36s18.834 -13 33.501 -13s26 4.33301 34 13s12 20.667 12 36c0 14.667 -4.16699 26.334 -12.5 35.001s-19.5 13 -33.5 13s-25 -4.33301 -33 -13s-12 -20.334 -12 -35.001zM203 247l190.998 0.000976562l-37 102
c-11.333 28 -21.166 54.167 -29.499 78.5s-17.166 52.166 -26.499 83.499h-2l-28 -81.5c-8.66699 -25 -18.667 -52.167 -30 -81.5zM250.998 630.001h102l245 -630h-112l-63 165h-247l-62 -165h-111z" />
    <glyph glyph-name="AE" unicode="&#xc6;" horiz-adv-x="803" 
d="M327 630h432v-86h-261v-174h235v-85h-235v-199h264v-86h-368v166h-184l-81 -166h-124zM394 551l-149 -304h149v304z" />
    <glyph glyph-name="Ccedilla" unicode="&#xc7;" horiz-adv-x="563" 
d="M363 76c32.667 0 59.833 2.83301 81.5 8.5s42.167 13.167 61.5 22.5l23 -83c-20.667 -9.33301 -44.334 -17 -71.001 -23s-59 -9.66699 -97 -11l-16 -37c34 -1.33301 58 -10 72 -26s21 -33.667 21 -53c0 -28.667 -11.5 -50.5 -34.5 -65.5s-51.5 -22.5 -85.5 -22.5
c-15.333 0 -29.833 1.16699 -43.5 3.5s-24.834 5.16602 -33.501 8.49902l14 47c16 -6 33.667 -9 53 -9c40.667 0 61 13 61 39c0 6 -1.16699 11.833 -3.5 17.5s-6.83301 10.667 -13.5 15s-16.167 7.83301 -28.5 10.5s-28.166 4 -47.499 4l31 71
c-38 4.66699 -73.167 15.167 -105.5 31.5s-60.166 38 -83.499 65s-41.666 59.5 -54.999 97.5s-20 80.667 -20 128c0 50.667 7.66699 96.167 23 136.5s36.833 74.5 64.5 102.5s60.667 49.333 99 64s80.5 22 126.5 22c42 0 76.5 -3.5 103.5 -10.5s50.833 -16.167 71.5 -27.5
l-25 -81c-22.667 10 -44.167 18 -64.5 24s-44.5 9 -72.5 9c-28.667 0 -55.834 -4.33301 -81.501 -13s-48 -22.667 -67 -42s-34.167 -44.166 -45.5 -74.499s-17 -66.833 -17 -109.5s5.5 -79.167 16.5 -109.5s25.667 -55 44 -74s40 -33 65 -42s51.5 -13.5 79.5 -13.5z" />
    <glyph glyph-name="Egrave" unicode="&#xc8;" horiz-adv-x="511" 
d="M76 630h390v-86h-283v-174h257v-85h-257v-199h286v-86h-393v630zM167 829h117l80 -124h-84z" />
    <glyph glyph-name="Eacute" unicode="&#xc9;" horiz-adv-x="506" 
d="M76 630h390v-86h-283v-174h257v-85h-257v-199h286v-86h-393v630zM276 705h-85l80 124h117z" />
    <glyph glyph-name="Ecircumflex" unicode="&#xca;" horiz-adv-x="506" 
d="M76 630h390v-86h-283v-174h257v-85h-257v-199h286v-86h-393v630zM225 836h79l122 -131h-87l-75 79l-75 -79h-84z" />
    <glyph glyph-name="Edieresis" unicode="&#xcb;" horiz-adv-x="506" 
d="M76 630h390v-86h-283v-174h257v-85h-257v-199h286v-86h-393v630zM130 758c0 14 5.33301 26.333 16 37s23.667 16 39 16c14.667 0 27.334 -5.33301 38.001 -16s16 -23 16 -37c0 -15.333 -5.33301 -28.5 -16 -39.5s-23.334 -16.5 -38.001 -16.5
c-15.333 0 -28.333 5.5 -39 16.5s-16 24.167 -16 39.5zM306 758c0 14 5.33301 26.333 16 37s23.334 16 38.001 16c15.333 0 28.333 -5.33301 39 -16s16 -23 16 -37c0 -15.333 -5.33301 -28.5 -16 -39.5s-23.667 -16.5 -39 -16.5c-14.667 0 -27.334 5.5 -38.001 16.5
s-16 24.167 -16 39.5z" />
    <glyph glyph-name="Igrave" unicode="&#xcc;" horiz-adv-x="260" 
d="M183 630v-630h-107v630h107zM-26 829h117l80 -124h-85z" />
    <glyph glyph-name="Iacute" unicode="&#xcd;" horiz-adv-x="260" 
d="M183 630v-630h-107v630h107zM173 705h-85l80 124h117z" />
    <glyph glyph-name="Icircumflex" unicode="&#xce;" horiz-adv-x="260" 
d="M183 630v-630h-107v630h107zM91 836h79l122 -131h-87l-75 79l-75 -79h-84z" />
    <glyph glyph-name="Idieresis" unicode="&#xcf;" horiz-adv-x="260" 
d="M183 630v-630h-107v630h107zM-14 758c0 14 5.33301 26.333 16 37s23.334 16 38.001 16c15.333 0 28.333 -5.33301 39 -16s16 -23 16 -37c0 -15.333 -5.33301 -28.5 -16 -39.5s-23.667 -16.5 -39 -16.5c-14.667 0 -27.334 5.5 -38.001 16.5s-16 24.167 -16 39.5zM162 758
c0 14 5.16699 26.333 15.5 37s23.166 16 38.499 16s28.166 -5.33301 38.499 -16s15.5 -23 15.5 -37c0 -15.333 -5.16699 -28.5 -15.5 -39.5s-23.166 -16.5 -38.499 -16.5s-28.166 5.5 -38.499 16.5s-15.5 24.167 -15.5 39.5z" />
    <glyph glyph-name="Eth" unicode="&#xd0;" horiz-adv-x="678" 
d="M319 630c46 0 88.333 -6.33301 127 -19s72 -31.5 100 -56.5s49.833 -56.333 65.5 -94s23.5 -81.5 23.5 -131.5c0 -59.333 -9.33301 -109.833 -28 -151.5s-43.834 -75.667 -75.501 -102s-68.667 -45.5 -111 -57.5s-87.166 -18 -134.499 -18h-177v290h-82v72h82v268h210z
M340 362v-71.999h-124v-204h61c30.667 0 60.667 3.5 90 10.5s55.333 19.667 78 38s40.834 43.166 54.501 74.499s20.5 71.333 20.5 120c0 69.333 -19.833 122.5 -59.5 159.5s-92.834 55.5 -159.501 55.5h-85v-182h124z" />
    <glyph glyph-name="Ntilde" unicode="&#xd1;" horiz-adv-x="669" 
d="M76 630h160l192 -392l60 -142h3l-3 162v372h105v-630h-160l-185 375l-67 164h-3l3 -185v-354h-105v630zM201 705c0 31.333 7.16602 57.998 21.499 79.998s36.5 33 66.5 33c13.333 0 25.333 -2.16699 36 -6.5s20.834 -9.16602 30.501 -14.499s19 -10.166 28 -14.499
s18.5 -6.5 28.5 -6.5c12 0 20.833 4.66699 26.5 14s9.16699 19.666 10.5 30.999h55c0 -15.333 -1.83301 -29.666 -5.5 -42.999s-9 -25.333 -16 -36s-15.667 -19 -26 -25s-22.5 -9 -36.5 -9s-27 2.16699 -39 6.5s-23.333 9 -34 14l-29 14c-8.66699 4.33301 -17 6.5 -25 6.5
c-13.333 0 -22.5 -4.33301 -27.5 -13s-8.16699 -19 -9.5 -31h-55z" />
    <glyph glyph-name="Ograve" unicode="&#xd2;" horiz-adv-x="692" 
d="M348 640c43.333 0 83.333 -6.99707 120 -20.9971s68.334 -34.667 95.001 -62s47.5 -61.333 62.5 -102s22.5 -87.334 22.5 -140.001c0 -52 -7.66699 -98.167 -23 -138.5s-36.666 -74.333 -63.999 -102s-59.5 -48.667 -96.5 -63s-77.167 -21.5 -120.5 -21.5
s-83.333 7 -120 21s-68.334 34.667 -95.001 62s-47.5 61.166 -62.5 101.499s-22.5 87.166 -22.5 140.499c0 52 7.66699 98.167 23 138.5s36.666 74.333 63.999 102s59.5 48.667 96.5 63s77.167 21.5 120.5 21.5zM159 315.003c0 -40.667 5 -76.167 15 -106.5
s23.5 -55.5 40.5 -75.5s37 -34.833 60 -44.5s47.5 -14.5 73.5 -14.5s50.333 4.83301 73 14.5s42.167 24.5 58.5 44.5s29.333 45.167 39 75.5s14.5 65.833 14.5 106.5c0 42 -5 78.167 -15 108.5s-23.5 55.333 -40.5 75s-37 34.167 -60 43.5s-47.5 14 -73.5 14
s-50.333 -4.83301 -73 -14.5s-42.167 -24.5 -58.5 -44.5s-29.333 -45.167 -39 -75.5s-14.5 -65.833 -14.5 -106.5zM232 829.003h117l80 -124h-85z" />
    <glyph glyph-name="Oacute" unicode="&#xd3;" horiz-adv-x="692" 
d="M348 640c43.333 0 83.333 -6.99707 120 -20.9971s68.334 -34.667 95.001 -62s47.5 -61.333 62.5 -102s22.5 -87.334 22.5 -140.001c0 -52 -7.66699 -98.167 -23 -138.5s-36.666 -74.333 -63.999 -102s-59.5 -48.667 -96.5 -63s-77.167 -21.5 -120.5 -21.5
s-83.333 7 -120 21s-68.334 34.667 -95.001 62s-47.5 61.166 -62.5 101.499s-22.5 87.166 -22.5 140.499c0 52 7.66699 98.167 23 138.5s36.666 74.333 63.999 102s59.5 48.667 96.5 63s77.167 21.5 120.5 21.5zM159 315.003c0 -40.667 5 -76.167 15 -106.5
s23.5 -55.5 40.5 -75.5s37 -34.833 60 -44.5s47.5 -14.5 73.5 -14.5s50.333 4.83301 73 14.5s42.167 24.5 58.5 44.5s29.333 45.167 39 75.5s14.5 65.833 14.5 106.5c0 42 -5 78.167 -15 108.5s-23.5 55.333 -40.5 75s-37 34.167 -60 43.5s-47.5 14 -73.5 14
s-50.333 -4.83301 -73 -14.5s-42.167 -24.5 -58.5 -44.5s-29.333 -45.167 -39 -75.5s-14.5 -65.833 -14.5 -106.5zM340 705.003h-85l80 124h117z" />
    <glyph glyph-name="Ocircumflex" unicode="&#xd4;" horiz-adv-x="692" 
d="M348 640c43.333 0 83.333 -6.99707 120 -20.9971s68.334 -34.667 95.001 -62s47.5 -61.333 62.5 -102s22.5 -87.334 22.5 -140.001c0 -52 -7.66699 -98.167 -23 -138.5s-36.666 -74.333 -63.999 -102s-59.5 -48.667 -96.5 -63s-77.167 -21.5 -120.5 -21.5
s-83.333 7 -120 21s-68.334 34.667 -95.001 62s-47.5 61.166 -62.5 101.499s-22.5 87.166 -22.5 140.499c0 52 7.66699 98.167 23 138.5s36.666 74.333 63.999 102s59.5 48.667 96.5 63s77.167 21.5 120.5 21.5zM159 315.003c0 -40.667 5 -76.167 15 -106.5
s23.5 -55.5 40.5 -75.5s37 -34.833 60 -44.5s47.5 -14.5 73.5 -14.5s50.333 4.83301 73 14.5s42.167 24.5 58.5 44.5s29.333 45.167 39 75.5s14.5 65.833 14.5 106.5c0 42 -5 78.167 -15 108.5s-23.5 55.333 -40.5 75s-37 34.167 -60 43.5s-47.5 14 -73.5 14
s-50.333 -4.83301 -73 -14.5s-42.167 -24.5 -58.5 -44.5s-29.333 -45.167 -39 -75.5s-14.5 -65.833 -14.5 -106.5zM308 836.003h79l122 -131h-87l-75 79l-75 -79h-84z" />
    <glyph glyph-name="Otilde" unicode="&#xd5;" horiz-adv-x="692" 
d="M348 640c43.333 0 83.333 -6.99707 120 -20.9971s68.334 -34.667 95.001 -62s47.5 -61.333 62.5 -102s22.5 -87.334 22.5 -140.001c0 -52 -7.66699 -98.167 -23 -138.5s-36.666 -74.333 -63.999 -102s-59.5 -48.667 -96.5 -63s-77.167 -21.5 -120.5 -21.5
s-83.333 7 -120 21s-68.334 34.667 -95.001 62s-47.5 61.166 -62.5 101.499s-22.5 87.166 -22.5 140.499c0 52 7.66699 98.167 23 138.5s36.666 74.333 63.999 102s59.5 48.667 96.5 63s77.167 21.5 120.5 21.5zM159 315.003c0 -40.667 5 -76.167 15 -106.5
s23.5 -55.5 40.5 -75.5s37 -34.833 60 -44.5s47.5 -14.5 73.5 -14.5s50.333 4.83301 73 14.5s42.167 24.5 58.5 44.5s29.333 45.167 39 75.5s14.5 65.833 14.5 106.5c0 42 -5 78.167 -15 108.5s-23.5 55.333 -40.5 75s-37 34.167 -60 43.5s-47.5 14 -73.5 14
s-50.333 -4.83301 -73 -14.5s-42.167 -24.5 -58.5 -44.5s-29.333 -45.167 -39 -75.5s-14.5 -65.833 -14.5 -106.5zM190 706.003c0 31.333 7.16504 57.834 21.498 79.501s36.833 32.5 67.5 32.5c13.333 0 25.333 -2.16699 36 -6.5s20.667 -9 30 -14
s18.666 -9.66699 27.999 -14s19 -6.5 29 -6.5c12 0 20.833 4.5 26.5 13.5s8.83398 19.167 9.50098 30.5h55c0 -14.667 -1.83301 -28.834 -5.5 -42.501s-9 -25.667 -16 -36s-15.667 -18.5 -26 -24.5s-22.5 -9 -36.5 -9s-27 2 -39 6s-23.167 8.5 -33.5 13.5l-29 14
c-9 4.33301 -17.167 6.5 -24.5 6.5c-13.333 0 -22.666 -4.16699 -27.999 -12.5s-8.66602 -18.5 -9.99902 -30.5h-55z" />
    <glyph glyph-name="Odieresis" unicode="&#xd6;" horiz-adv-x="692" 
d="M348 640c43.333 0 83.333 -6.99707 120 -20.9971s68.334 -34.667 95.001 -62s47.5 -61.333 62.5 -102s22.5 -87.334 22.5 -140.001c0 -52 -7.66699 -98.167 -23 -138.5s-36.666 -74.333 -63.999 -102s-59.5 -48.667 -96.5 -63s-77.167 -21.5 -120.5 -21.5
s-83.333 7 -120 21s-68.334 34.667 -95.001 62s-47.5 61.166 -62.5 101.499s-22.5 87.166 -22.5 140.499c0 52 7.66699 98.167 23 138.5s36.666 74.333 63.999 102s59.5 48.667 96.5 63s77.167 21.5 120.5 21.5zM159 315.003c0 -40.667 5 -76.167 15 -106.5
s23.5 -55.5 40.5 -75.5s37 -34.833 60 -44.5s47.5 -14.5 73.5 -14.5s50.333 4.83301 73 14.5s42.167 24.5 58.5 44.5s29.333 45.167 39 75.5s14.5 65.833 14.5 106.5c0 42 -5 78.167 -15 108.5s-23.5 55.333 -40.5 75s-37 34.167 -60 43.5s-47.5 14 -73.5 14
s-50.333 -4.83301 -73 -14.5s-42.167 -24.5 -58.5 -44.5s-29.333 -45.167 -39 -75.5s-14.5 -65.833 -14.5 -106.5zM203 758.003c0 14 5.33301 26.333 16 37s23.667 16 39 16s28.166 -5.33301 38.499 -16s15.5 -23 15.5 -37c0 -15.333 -5.16699 -28.5 -15.5 -39.5
s-23.166 -16.5 -38.499 -16.5s-28.333 5.5 -39 16.5s-16 24.167 -16 39.5zM379 758.003c0 14 5.33301 26.333 16 37s23.667 16 39 16c14.667 0 27.334 -5.33301 38.001 -16s16 -23 16 -37c0 -15.333 -5.33301 -28.5 -16 -39.5s-23.334 -16.5 -38.001 -16.5
c-15.333 0 -28.333 5.5 -39 16.5s-16 24.167 -16 39.5z" />
    <glyph glyph-name="multiply" unicode="&#xd7;" horiz-adv-x="415" 
d="M38 180l122 122l-122 122l47 47l122 -122l122 122l47 -47l-122 -122l122 -122l-47 -47l-122 122l-122 -122z" />
    <glyph glyph-name="Oslash" unicode="&#xd8;" horiz-adv-x="692" 
d="M506 750l47.001 -18.002l-52 -128c44 -25.333 79.5 -61.666 106.5 -108.999s40.5 -107.333 40.5 -180c0 -52 -7.66699 -98.167 -23 -138.5s-36.666 -74.333 -63.999 -102s-59.5 -48.667 -96.5 -63s-77.167 -21.5 -120.5 -21.5c-16.667 0 -33.5 1.33301 -50.5 4
s-33.167 6 -48.5 10l-64 -159l-48 21l64 156c-46 25.333 -83 61.833 -111 109.5s-42 108.834 -42 183.501c0 52 7.66699 98.167 23 138.5s36.666 74.333 63.999 102s59.5 48.667 96.5 63s77.167 21.5 120.5 21.5c17.333 0 35.166 -1.5 53.499 -4.5s35.5 -7.16699 51.5 -12.5
zM159.001 314.998c0 -52 7.16699 -94.667 21.5 -128s33.5 -59.333 57.5 -78l177 434c-11.333 4 -23 7.16699 -35 9.5s-24 3.5 -36 3.5c-26 0 -50.333 -4.83301 -73 -14.5s-42.167 -24.5 -58.5 -44.5s-29.333 -45.167 -39 -75.5s-14.5 -65.833 -14.5 -106.5zM348.001 73.998
c26 0 50.333 4.83203 73 14.499s42.167 24.5 58.5 44.5s29.333 45.167 39 75.5s14.5 65.833 14.5 106.5c0 50 -6.66699 91.333 -20 124s-31.333 58.334 -54 77.001l-175 -432c10 -3.33301 20.333 -5.83301 31 -7.5s21.667 -2.5 33 -2.5z" />
    <glyph glyph-name="Ugrave" unicode="&#xd9;" horiz-adv-x="647" 
d="M70 630l107.002 -0.000976562v-377c0 -62.667 11.667 -108 35 -136s60.666 -42 111.999 -42c50.667 0 87.5 15.167 110.5 45.5s34.5 70.5 34.5 120.5v389h107v-384c0 -87.333 -21.833 -151.833 -65.5 -193.5s-105.834 -62.5 -186.501 -62.5
c-79.333 0 -141.5 20.833 -186.5 62.5s-67.5 107.834 -67.5 198.501v379zM198.002 828.999h116l80 -124h-84z" />
    <glyph glyph-name="Uacute" unicode="&#xda;" horiz-adv-x="647" 
d="M70 630l107.002 -0.000976562v-377c0 -62.667 11.667 -108 35 -136s60.666 -42 111.999 -42c50.667 0 87.5 15.167 110.5 45.5s34.5 70.5 34.5 120.5v389h107v-384c0 -87.333 -21.833 -151.833 -65.5 -193.5s-105.834 -62.5 -186.501 -62.5
c-79.333 0 -141.5 20.833 -186.5 62.5s-67.5 107.834 -67.5 198.501v379zM327.002 704.999h-84l80 124h116z" />
    <glyph glyph-name="Ucircumflex" unicode="&#xdb;" horiz-adv-x="647" 
d="M70 630l107.002 -0.000976562v-377c0 -62.667 11.667 -108 35 -136s60.666 -42 111.999 -42c50.667 0 87.5 15.167 110.5 45.5s34.5 70.5 34.5 120.5v389h107v-384c0 -87.333 -21.833 -151.833 -65.5 -193.5s-105.834 -62.5 -186.501 -62.5
c-79.333 0 -141.5 20.833 -186.5 62.5s-67.5 107.834 -67.5 198.501v379zM285.002 835.999h79l123 -131h-88l-75 79l-75 -79h-83z" />
    <glyph glyph-name="Udieresis" unicode="&#xdc;" horiz-adv-x="647" 
d="M70 630l107.002 -0.000976562v-377c0 -62.667 11.667 -108 35 -136s60.666 -42 111.999 -42c50.667 0 87.5 15.167 110.5 45.5s34.5 70.5 34.5 120.5v389h107v-384c0 -87.333 -21.833 -151.833 -65.5 -193.5s-105.834 -62.5 -186.501 -62.5
c-79.333 0 -141.5 20.833 -186.5 62.5s-67.5 107.834 -67.5 198.501v379zM182.002 757.999c0 14 5.33301 26.333 16 37s23.334 16 38.001 16c15.333 0 28.333 -5.33301 39 -16s16 -23 16 -37c0 -15.333 -5.33301 -28.5 -16 -39.5s-23.667 -16.5 -39 -16.5
c-14.667 0 -27.334 5.5 -38.001 16.5s-16 24.167 -16 39.5zM358.002 757.999c0 14 5.16699 26.333 15.5 37s23.166 16 38.499 16s28.166 -5.33301 38.499 -16s15.5 -23 15.5 -37c0 -15.333 -5.16699 -28.5 -15.5 -39.5s-23.166 -16.5 -38.499 -16.5
s-28.166 5.5 -38.499 16.5s-15.5 24.167 -15.5 39.5z" />
    <glyph glyph-name="Yacute" unicode="&#xdd;" horiz-adv-x="533" 
d="M119 630l150 -270l150 270h115l-216 -367v-263h-107v263l-210 367h118zM303 705h-85l80 124h117z" />
    <glyph glyph-name="Thorn" unicode="&#xde;" horiz-adv-x="525" 
d="M70 630l101 0.00195312v-130c28 8 58 12 90 12c31.333 0 60.5 -4.5 87.5 -13.5s50.333 -21.833 70 -38.5s35.167 -36.834 46.5 -60.501s17 -50.167 17 -79.5c0 -36 -6.16699 -67.167 -18.5 -93.5s-29.333 -48.333 -51 -66s-47.167 -30.834 -76.5 -39.501
s-61.333 -13 -96 -13c-9.33301 0 -20.5 0.5 -33.5 1.5s-24.833 2.16699 -35.5 3.5v-113h-101v630zM171 196.002c10.667 -3.33301 21.166 -5.5 31.499 -6.5s22.5 -1.5 36.5 -1.5c42 0 75.5 10.667 100.5 32s37.5 52 37.5 92c0 40.667 -12.667 71 -38 91s-56 30 -92 30
c-14.667 0 -28.667 -1 -42 -3s-24.666 -4.66699 -33.999 -8v-226z" />
    <glyph glyph-name="germandbls" unicode="&#xdf;" horiz-adv-x="584" 
d="M72 0v477.004c0 35.333 4.33301 67.833 13 97.5s22.5 55.334 41.5 77.001s43.333 38.5 73 50.5s65.167 18 106.5 18c24.667 0 48.667 -3.66699 72 -11s44.166 -18 62.499 -32s33 -31.333 44 -52s16.5 -44.334 16.5 -71.001c0 -17.333 -2 -33.333 -6 -48
s-8.66699 -27.667 -14 -39c-34 -7.33301 -58.5 -17.666 -73.5 -30.999s-22.5 -30.666 -22.5 -51.999c0 -20 6 -36.833 18 -50.5s26.333 -26.5 43 -38.5c27.333 -19.333 50 -40.833 68 -64.5s27 -52.834 27 -87.501c0 -44.667 -15.833 -81.334 -47.5 -110.001
s-77.834 -43 -138.501 -43c-19.333 0 -40.5 2 -63.5 6s-41.167 9.33301 -54.5 16l23 74c28 -12 57.333 -18 88 -18c30 0 52.5 7.16699 67.5 21.5s22.5 32.166 22.5 53.499c0 19.333 -6.16699 35.666 -18.5 48.999s-30.166 28.666 -53.499 45.999
c-25.333 19.333 -45.5 39.5 -60.5 60.5s-22.5 48.167 -22.5 81.5c0 30 9.33301 55.833 28 77.5s46 38.167 82 49.5c2.66699 5.33301 4.33398 11.5 5.00098 18.5s1 15.5 1 25.5c0 30 -9.16699 52.333 -27.5 67s-41.5 22 -69.5 22c-20 0 -37.833 -3 -53.5 -9
s-29.167 -16 -40.5 -30s-20 -32.333 -26 -55s-9 -50.334 -9 -83.001v-463h-101z" />
    <glyph glyph-name="agrave" unicode="&#xe0;" horiz-adv-x="495" 
d="M71 430c30.667 16.667 60.168 29.166 88.501 37.499s59.833 12.5 94.5 12.5c26.667 0 51.167 -3 73.5 -9s41.5 -15.667 57.5 -29s28.5 -31.166 37.5 -53.499s13.5 -49.5 13.5 -81.5v-307h-83l-11 51h-3c-18.667 -21.333 -40.334 -36.833 -65.001 -46.5
s-52 -14.5 -82 -14.5c-47.333 0 -85.5 12.667 -114.5 38s-43.5 59 -43.5 101c0 26 5.33301 48.5 16 67.5s25.667 34.833 45 47.5s42.333 22.167 69 28.5s56 9.5 88 9.5h80v36c0 30 -8 50.833 -24 62.5s-38 17.5 -66 17.5c-17.333 0 -36.833 -2.83301 -58.5 -8.5
s-46.5 -16.167 -74.5 -31.5zM333.001 213.999l-63 -1.00098c-47.333 -1.33301 -80.666 -9.66602 -99.999 -24.999s-29 -33.333 -29 -54c0 -13.333 2.16699 -24.333 6.5 -33s10.166 -15.667 17.499 -21s15.833 -9.16602 25.5 -11.499s19.5 -3.5 29.5 -3.5
c20.667 0 41.167 5.16699 61.5 15.5s37.5 25.166 51.5 44.499v89zM138.001 691.998h113l70 -139h-79z" />
    <glyph glyph-name="aacute" unicode="&#xe1;" horiz-adv-x="495" 
d="M71 430c30.667 16.667 60.168 29.166 88.501 37.499s59.833 12.5 94.5 12.5c26.667 0 51.167 -3 73.5 -9s41.5 -15.667 57.5 -29s28.5 -31.166 37.5 -53.499s13.5 -49.5 13.5 -81.5v-307h-83l-11 51h-3c-18.667 -21.333 -40.334 -36.833 -65.001 -46.5
s-52 -14.5 -82 -14.5c-47.333 0 -85.5 12.667 -114.5 38s-43.5 59 -43.5 101c0 26 5.33301 48.5 16 67.5s25.667 34.833 45 47.5s42.333 22.167 69 28.5s56 9.5 88 9.5h80v36c0 30 -8 50.833 -24 62.5s-38 17.5 -66 17.5c-17.333 0 -36.833 -2.83301 -58.5 -8.5
s-46.5 -16.167 -74.5 -31.5zM333.001 213.999l-63 -1.00098c-47.333 -1.33301 -80.666 -9.66602 -99.999 -24.999s-29 -33.333 -29 -54c0 -13.333 2.16699 -24.333 6.5 -33s10.166 -15.667 17.499 -21s15.833 -9.16602 25.5 -11.499s19.5 -3.5 29.5 -3.5
c20.667 0 41.167 5.16699 61.5 15.5s37.5 25.166 51.5 44.499v89zM277.001 552.998h-79l70 139h113z" />
    <glyph glyph-name="acircumflex" unicode="&#xe2;" horiz-adv-x="495" 
d="M71 430c30.667 16.667 60.168 29.166 88.501 37.499s59.833 12.5 94.5 12.5c26.667 0 51.167 -3 73.5 -9s41.5 -15.667 57.5 -29s28.5 -31.166 37.5 -53.499s13.5 -49.5 13.5 -81.5v-307h-83l-11 51h-3c-18.667 -21.333 -40.334 -36.833 -65.001 -46.5
s-52 -14.5 -82 -14.5c-47.333 0 -85.5 12.667 -114.5 38s-43.5 59 -43.5 101c0 26 5.33301 48.5 16 67.5s25.667 34.833 45 47.5s42.333 22.167 69 28.5s56 9.5 88 9.5h80v36c0 30 -8 50.833 -24 62.5s-38 17.5 -66 17.5c-17.333 0 -36.833 -2.83301 -58.5 -8.5
s-46.5 -16.167 -74.5 -31.5zM333.001 213.999l-63 -1.00098c-47.333 -1.33301 -80.666 -9.66602 -99.999 -24.999s-29 -33.333 -29 -54c0 -13.333 2.16699 -24.333 6.5 -33s10.166 -15.667 17.499 -21s15.833 -9.16602 25.5 -11.499s19.5 -3.5 29.5 -3.5
c20.667 0 41.167 5.16699 61.5 15.5s37.5 25.166 51.5 44.499v89zM406.001 552.998h-84l-67 82l-68 -82h-87l119 137h71z" />
    <glyph glyph-name="atilde" unicode="&#xe3;" horiz-adv-x="495" 
d="M71 430c30.667 16.667 60.168 29.166 88.501 37.499s59.833 12.5 94.5 12.5c26.667 0 51.167 -3 73.5 -9s41.5 -15.667 57.5 -29s28.5 -31.166 37.5 -53.499s13.5 -49.5 13.5 -81.5v-307h-83l-11 51h-3c-18.667 -21.333 -40.334 -36.833 -65.001 -46.5
s-52 -14.5 -82 -14.5c-47.333 0 -85.5 12.667 -114.5 38s-43.5 59 -43.5 101c0 26 5.33301 48.5 16 67.5s25.667 34.833 45 47.5s42.333 22.167 69 28.5s56 9.5 88 9.5h80v36c0 30 -8 50.833 -24 62.5s-38 17.5 -66 17.5c-17.333 0 -36.833 -2.83301 -58.5 -8.5
s-46.5 -16.167 -74.5 -31.5zM333.001 213.999l-63 -1.00098c-47.333 -1.33301 -80.666 -9.66602 -99.999 -24.999s-29 -33.333 -29 -54c0 -13.333 2.16699 -24.333 6.5 -33s10.166 -15.667 17.499 -21s15.833 -9.16602 25.5 -11.499s19.5 -3.5 29.5 -3.5
c20.667 0 41.167 5.16699 61.5 15.5s37.5 25.166 51.5 44.499v89zM94.001 552.998c0 34 7.33203 62.001 21.999 84.001s37 33 67 33c14 0 26.5 -2.33301 37.5 -7s21.5 -9.66699 31.5 -15l29 -15c9.33301 -4.66699 19 -7 29 -7c13.333 0 22.666 5.16699 27.999 15.5
s8.33301 21.166 9 32.499h55c0.666992 -32 -6.16602 -59.333 -20.499 -82s-35.833 -34 -64.5 -34c-14.667 0 -28.334 2.16699 -41.001 6.5s-24.167 9.33301 -34.5 15s-20 10.667 -29 15s-17.5 6.5 -25.5 6.5c-13.333 0 -22.666 -4.5 -27.999 -13.5
s-8.66602 -20.5 -9.99902 -34.5h-55z" />
    <glyph glyph-name="adieresis" unicode="&#xe4;" horiz-adv-x="495" 
d="M71 430c30.667 16.667 60.168 29.166 88.501 37.499s59.833 12.5 94.5 12.5c26.667 0 51.167 -3 73.5 -9s41.5 -15.667 57.5 -29s28.5 -31.166 37.5 -53.499s13.5 -49.5 13.5 -81.5v-307h-83l-11 51h-3c-18.667 -21.333 -40.334 -36.833 -65.001 -46.5
s-52 -14.5 -82 -14.5c-47.333 0 -85.5 12.667 -114.5 38s-43.5 59 -43.5 101c0 26 5.33301 48.5 16 67.5s25.667 34.833 45 47.5s42.333 22.167 69 28.5s56 9.5 88 9.5h80v36c0 30 -8 50.833 -24 62.5s-38 17.5 -66 17.5c-17.333 0 -36.833 -2.83301 -58.5 -8.5
s-46.5 -16.167 -74.5 -31.5zM333.001 213.999l-63 -1.00098c-47.333 -1.33301 -80.666 -9.66602 -99.999 -24.999s-29 -33.333 -29 -54c0 -13.333 2.16699 -24.333 6.5 -33s10.166 -15.667 17.499 -21s15.833 -9.16602 25.5 -11.499s19.5 -3.5 29.5 -3.5
c20.667 0 41.167 5.16699 61.5 15.5s37.5 25.166 51.5 44.499v89zM115.001 621.998c0 14 5.33301 26.5 16 37.5s23.667 16.5 39 16.5s28.333 -5.5 39 -16.5s16 -23.5 16 -37.5c0 -15.333 -5.33301 -28.5 -16 -39.5s-23.667 -16.5 -39 -16.5s-28.333 5.5 -39 16.5
s-16 24.167 -16 39.5zM292.001 621.998c0 14 5.33301 26.5 16 37.5s23.667 16.5 39 16.5s28.166 -5.5 38.499 -16.5s15.5 -23.5 15.5 -37.5c0 -15.333 -5.16699 -28.5 -15.5 -39.5s-23.166 -16.5 -38.499 -16.5s-28.333 5.5 -39 16.5s-16 24.167 -16 39.5z" />
    <glyph glyph-name="aring" unicode="&#xe5;" horiz-adv-x="495" 
d="M71 430c30.667 16.667 60.168 29.166 88.501 37.499s59.833 12.5 94.5 12.5c26.667 0 51.167 -3 73.5 -9s41.5 -15.667 57.5 -29s28.5 -31.166 37.5 -53.499s13.5 -49.5 13.5 -81.5v-307h-83l-11 51h-3c-18.667 -21.333 -40.334 -36.833 -65.001 -46.5
s-52 -14.5 -82 -14.5c-47.333 0 -85.5 12.667 -114.5 38s-43.5 59 -43.5 101c0 26 5.33301 48.5 16 67.5s25.667 34.833 45 47.5s42.333 22.167 69 28.5s56 9.5 88 9.5h80v36c0 30 -8 50.833 -24 62.5s-38 17.5 -66 17.5c-17.333 0 -36.833 -2.83301 -58.5 -8.5
s-46.5 -16.167 -74.5 -31.5zM333.001 213.999l-63 -1.00098c-47.333 -1.33301 -80.666 -9.66602 -99.999 -24.999s-29 -33.333 -29 -54c0 -13.333 2.16699 -24.333 6.5 -33s10.166 -15.667 17.499 -21s15.833 -9.16602 25.5 -11.499s19.5 -3.5 29.5 -3.5
c20.667 0 41.167 5.16699 61.5 15.5s37.5 25.166 51.5 44.499v89zM162.001 622.998c0 14.667 2.66699 27.334 8 38.001s12.5 19.5 21.5 26.5s19.167 12.167 30.5 15.5s23.333 5 36 5c26 0 48.667 -6.83301 68 -20.5s29 -35.167 29 -64.5
c0 -14.667 -2.83301 -27.334 -8.5 -38.001s-13 -19.5 -22 -26.5s-19.333 -12.333 -31 -16s-23.5 -5.5 -35.5 -5.5s-23.833 1.83301 -35.5 5.5s-22 9.16699 -31 16.5s-16.167 16.333 -21.5 27s-8 23 -8 37zM212.001 622.998c0 -15.333 4 -27.333 12 -36s19.333 -13 34 -13
s26.167 4.33301 34.5 13s12.5 20.667 12.5 36s-4.33301 27.333 -13 36s-20 13 -34 13s-25.167 -4.33301 -33.5 -13s-12.5 -20.667 -12.5 -36z" />
    <glyph glyph-name="ae" unicode="&#xe6;" horiz-adv-x="788" 
d="M753 217l-323.002 0.00292969v-4c0 -48.667 13.333 -85 40 -109s63 -36 109 -36c25.333 0 48.166 2.16699 68.499 6.5s40.833 11.166 61.5 20.499l21 -75c-19.333 -8.66699 -42 -15.834 -68 -21.501s-55 -8.5 -87 -8.5c-42 0 -79.667 6.5 -113 19.5
s-60.666 34.5 -81.999 64.5h-3c-20 -26 -44.167 -46.5 -72.5 -61.5s-64.5 -22.5 -108.5 -22.5c-24 0 -46 3.33301 -66 10s-37 16.167 -51 28.5s-25 27 -33 44s-12 35.833 -12 56.5c0 26 5.33301 48.5 16 67.5s25.667 34.833 45 47.5s42.333 22.167 69 28.5s56 9.5 88 9.5h85
v36c0 30 -8.66699 50.833 -26 62.5s-40.333 17.5 -69 17.5c-17.333 0 -36.833 -2.83301 -58.5 -8.5s-46.5 -16.167 -74.5 -31.5l-38 72c30.667 16.667 59.834 29.167 87.501 37.5s59.167 12.5 94.5 12.5c34.667 0 63.834 -5.16699 87.501 -15.5s43.167 -27.166 58.5 -50.499
h2c19.333 23.333 42 40.166 68 50.499s54.333 15.5 85 15.5c62.667 0 111.5 -19.333 146.5 -58s52.5 -91.334 52.5 -158.001v-47zM140.998 134.003c0 -13.333 2.16895 -24.335 6.50195 -33.002s10.166 -15.667 17.499 -21s15.833 -9.16602 25.5 -11.499s19.5 -3.5 29.5 -3.5
c25.333 0 49.166 5.83301 71.499 17.5s41.166 29.167 56.499 52.5c-4 11.333 -7 23.5 -9 36.5s-3.66699 27.167 -5 42.5l-64 -1c-47.333 -1.33301 -80.666 -9.66602 -99.999 -24.999s-29 -33.333 -29 -54zM647 284.001c0 16 -1.66699 31.333 -5 46s-9 27.667 -17 39
s-18.167 20.333 -30.5 27s-27.5 10 -45.5 10c-33.333 0 -60.333 -11 -81 -33s-32.667 -52 -36 -90z" />
    <glyph glyph-name="ccedilla" unicode="&#xe7;" horiz-adv-x="450" 
d="M299 68c21.333 0 40.168 2.50586 56.501 7.50586s31.166 10.833 44.499 17.5l21 -74c-16.667 -8.66699 -36 -15.5 -58 -20.5s-46.333 -7.83301 -73 -8.5l-19 -37c28 -2 49.167 -9.33301 63.5 -22s21.5 -28.667 21.5 -48c0 -14 -3 -26.167 -9 -36.5s-14.167 -19 -24.5 -26
s-22.333 -12.167 -36 -15.5s-28.167 -5 -43.5 -5s-29.833 1.33301 -43.5 4s-24.5 5.66699 -32.5 9l13 46c16.667 -6 34.667 -9 54 -9c16.667 0 29.667 2.66699 39 8s14 13.666 14 24.999c0 13.333 -6.33301 23.166 -19 29.499s-35 9.5 -67 9.5l34 73
c-28 4.66699 -54 13 -78 25s-44.833 28 -62.5 48s-31.334 44 -41.001 72s-14.5 59.667 -14.5 95c0 37.333 6 71.166 18 101.499s29 56.166 51 77.499s48.333 37.666 79 48.999s64.334 17 101.001 17c20.667 0 41.334 -1.66699 62.001 -5s43.667 -11 69 -23l-23 -75
c-30.667 17.333 -63 26 -97 26c-46 0 -83.333 -14.333 -112 -43s-43 -69.334 -43 -122.001c0 -32 4.5 -58.833 13.5 -80.5s20.833 -39.167 35.5 -52.5s31.167 -22.833 49.5 -28.5s37.166 -8.5 56.499 -8.5z" />
    <glyph glyph-name="egrave" unicode="&#xe8;" horiz-adv-x="509" 
d="M474 220l-331 -0.000976562v-4c0 -48 14 -84.667 42 -110s65 -38 111 -38c25.333 0 48.166 2.16699 68.499 6.5s40.833 11.166 61.5 20.499l20 -75c-19.333 -8.66699 -42.333 -15.834 -69 -21.501s-56 -8.5 -88 -8.5c-34 0 -66.333 4.66699 -97 14s-57.5 24 -80.5 44
s-41.167 45.333 -54.5 76s-20 67.334 -20 110.001c0 36.667 5.5 70.167 16.5 100.5s26.667 56.333 47 78s45 38.334 74 50.001s61.167 17.5 96.5 17.5c30.667 0 58.5 -5 83.5 -15s46.333 -24.167 64 -42.5s31.334 -40.666 41.001 -66.999s14.5 -55.5 14.5 -87.5v-48z
M368 289.999c0 16 -2 31.001 -6 45.001s-10 26.167 -18 36.5s-18.5 18.666 -31.5 24.999s-28.5 9.5 -46.5 9.5c-33.333 0 -60.5 -10.667 -81.5 -32s-33.833 -50 -38.5 -86zM158 692h113l70 -139h-79z" />
    <glyph glyph-name="eacute" unicode="&#xe9;" horiz-adv-x="509" 
d="M474 220l-331 -0.000976562v-4c0 -48 14 -84.667 42 -110s65 -38 111 -38c25.333 0 48.166 2.16699 68.499 6.5s40.833 11.166 61.5 20.499l20 -75c-19.333 -8.66699 -42.333 -15.834 -69 -21.501s-56 -8.5 -88 -8.5c-34 0 -66.333 4.66699 -97 14s-57.5 24 -80.5 44
s-41.167 45.333 -54.5 76s-20 67.334 -20 110.001c0 36.667 5.5 70.167 16.5 100.5s26.667 56.333 47 78s45 38.334 74 50.001s61.167 17.5 96.5 17.5c30.667 0 58.5 -5 83.5 -15s46.333 -24.167 64 -42.5s31.334 -40.666 41.001 -66.999s14.5 -55.5 14.5 -87.5v-48z
M368 289.999c0 16 -2 31.001 -6 45.001s-10 26.167 -18 36.5s-18.5 18.666 -31.5 24.999s-28.5 9.5 -46.5 9.5c-33.333 0 -60.5 -10.667 -81.5 -32s-33.833 -50 -38.5 -86zM282 553h-79l70 139h113z" />
    <glyph glyph-name="ecircumflex" unicode="&#xea;" horiz-adv-x="509" 
d="M474 220l-331 -0.000976562v-4c0 -48 14 -84.667 42 -110s65 -38 111 -38c25.333 0 48.166 2.16699 68.499 6.5s40.833 11.166 61.5 20.499l20 -75c-19.333 -8.66699 -42.333 -15.834 -69 -21.501s-56 -8.5 -88 -8.5c-34 0 -66.333 4.66699 -97 14s-57.5 24 -80.5 44
s-41.167 45.333 -54.5 76s-20 67.334 -20 110.001c0 36.667 5.5 70.167 16.5 100.5s26.667 56.333 47 78s45 38.334 74 50.001s61.167 17.5 96.5 17.5c30.667 0 58.5 -5 83.5 -15s46.333 -24.167 64 -42.5s31.334 -40.666 41.001 -66.999s14.5 -55.5 14.5 -87.5v-48z
M368 289.999c0 16 -2 31.001 -6 45.001s-10 26.167 -18 36.5s-18.5 18.666 -31.5 24.999s-28.5 9.5 -46.5 9.5c-33.333 0 -60.5 -10.667 -81.5 -32s-33.833 -50 -38.5 -86zM418 553h-84l-67 82l-68 -82h-87l119 137h71z" />
    <glyph glyph-name="edieresis" unicode="&#xeb;" horiz-adv-x="509" 
d="M474 220l-331 -0.000976562v-4c0 -48 14 -84.667 42 -110s65 -38 111 -38c25.333 0 48.166 2.16699 68.499 6.5s40.833 11.166 61.5 20.499l20 -75c-19.333 -8.66699 -42.333 -15.834 -69 -21.501s-56 -8.5 -88 -8.5c-34 0 -66.333 4.66699 -97 14s-57.5 24 -80.5 44
s-41.167 45.333 -54.5 76s-20 67.334 -20 110.001c0 36.667 5.5 70.167 16.5 100.5s26.667 56.333 47 78s45 38.334 74 50.001s61.167 17.5 96.5 17.5c30.667 0 58.5 -5 83.5 -15s46.333 -24.167 64 -42.5s31.334 -40.666 41.001 -66.999s14.5 -55.5 14.5 -87.5v-48z
M368 289.999c0 16 -2 31.001 -6 45.001s-10 26.167 -18 36.5s-18.5 18.666 -31.5 24.999s-28.5 9.5 -46.5 9.5c-33.333 0 -60.5 -10.667 -81.5 -32s-33.833 -50 -38.5 -86zM125 622c0 14 5.33301 26.5 16 37.5s23.667 16.5 39 16.5s28.333 -5.5 39 -16.5s16 -23.5 16 -37.5
c0 -15.333 -5.33301 -28.5 -16 -39.5s-23.667 -16.5 -39 -16.5s-28.333 5.5 -39 16.5s-16 24.167 -16 39.5zM302 622c0 14 5.33301 26.5 16 37.5s23.667 16.5 39 16.5s28.166 -5.5 38.499 -16.5s15.5 -23.5 15.5 -37.5c0 -15.333 -5.16699 -28.5 -15.5 -39.5
s-23.166 -16.5 -38.499 -16.5s-28.333 5.5 -39 16.5s-16 24.167 -16 39.5z" />
    <glyph glyph-name="igrave" unicode="&#xec;" horiz-adv-x="257" 
d="M77 0v472h103v-472h-103zM-5 692h113l70 -139h-80z" />
    <glyph glyph-name="iacute" unicode="&#xed;" horiz-adv-x="257" 
d="M77 0v472h103v-472h-103zM159 553h-79l70 139h113z" />
    <glyph glyph-name="icircumflex" unicode="&#xee;" horiz-adv-x="257" 
d="M77 0v472h103v-472h-103zM279 553h-84l-66 82l-68 -82h-87l118 137h72z" />
    <glyph glyph-name="idieresis" unicode="&#xef;" horiz-adv-x="257" 
d="M77 0v472h103v-472h-103zM-18 622c0 14 5.33301 26.5 16 37.5s23.667 16.5 39 16.5s28.166 -5.5 38.499 -16.5s15.5 -23.5 15.5 -37.5c0 -15.333 -5.16699 -28.5 -15.5 -39.5s-23.166 -16.5 -38.499 -16.5s-28.333 5.5 -39 16.5s-16 24.167 -16 39.5zM158 622
c0 14 5.5 26.5 16.5 37.5s23.833 16.5 38.5 16.5c15.333 0 28.333 -5.5 39 -16.5s16 -23.5 16 -37.5c0 -15.333 -5.33301 -28.5 -16 -39.5s-23.667 -16.5 -39 -16.5c-14.667 0 -27.5 5.5 -38.5 16.5s-16.5 24.167 -16.5 39.5z" />
    <glyph glyph-name="eth" unicode="&#xf0;" horiz-adv-x="538" 
d="M249 457c24 0 47.835 -4.83203 71.502 -14.499s43.167 -23.167 58.5 -40.5l3 1c-9.33301 34 -24.666 66.333 -45.999 97s-44.333 55.334 -69 74.001l-111 -56l-25 43l93 46c-15.333 9.33301 -30.833 17.166 -46.5 23.499s-33.167 12.166 -52.5 17.499l38 67
c26 -6.66699 52 -16.334 78 -29.001s50.333 -27.334 73 -44.001l92 47l26 -43l-78 -39c17.333 -18 34.333 -38.5 51 -61.5s31.5 -49.167 44.5 -78.5s23.333 -61.666 31 -96.999s11.5 -74 11.5 -116c0 -38 -4.83301 -73.167 -14.5 -105.5s-24 -60.166 -43 -83.499
s-42.833 -41.666 -71.5 -54.999s-61.667 -20 -99 -20c-26 0 -52.333 4.5 -79 13.5s-50.834 23 -72.501 42s-39.334 43.167 -53.001 72.5s-20.5 64.666 -20.5 105.999c0 36.667 5.5 69.5 16.5 98.5s26 53.5 45 73.5s41.167 35.167 66.5 45.5s52.666 15.5 81.999 15.5z
M266.002 380.001c-14.667 0 -29.333 -2.49707 -44 -7.49707s-27.834 -13.5 -39.501 -25.5s-21.167 -27.833 -28.5 -47.5s-11 -43.834 -11 -72.501c0 -30 3.66699 -55 11 -75s17 -36.333 29 -49s25.5 -21.667 40.5 -27s30.167 -8 45.5 -8c18 0 34.5 4 49.5 12
s28 19.167 39 33.5s19.5 31.166 25.5 50.499s9 40.666 9 63.999c0 24 -3.5 45.5 -10.5 64.5s-16.167 35 -27.5 48s-24.666 22.833 -39.999 29.5s-31.333 10 -48 10z" />
    <glyph glyph-name="ntilde" unicode="&#xf1;" horiz-adv-x="542" 
d="M167 0l-103 -0.000976562v472h80l14 -63c23.333 22.667 48 40.167 74 52.5s55.333 18.5 88 18.5c50 0 88.667 -13.667 116 -41s41 -66.333 41 -117v-322h-103v309c0 27.333 -7 49 -21 65s-35.333 24 -64 24c-20.667 0 -41.667 -5.16699 -63 -15.5
s-41 -25.166 -59 -44.499v-338zM115 552.999c0 34 7.33203 62.001 21.999 84.001s37 33 67 33c14 0 26.5 -2.33301 37.5 -7s21.5 -9.66699 31.5 -15l29 -15c9.33301 -4.66699 19 -7 29 -7c13.333 0 22.666 5.16699 27.999 15.5s8.33301 21.166 9 32.499h55
c0.666992 -32 -6.16602 -59.333 -20.499 -82s-35.833 -34 -64.5 -34c-14.667 0 -28.334 2.16699 -41.001 6.5s-24.167 9.33301 -34.5 15s-20 10.667 -29 15s-17.5 6.5 -25.5 6.5c-13.333 0 -22.666 -4.5 -27.999 -13.5s-8.66602 -20.5 -9.99902 -34.5h-55z" />
    <glyph glyph-name="ograve" unicode="&#xf2;" horiz-adv-x="548" 
d="M509 241c0 -39.333 -6.16699 -74.6689 -18.5 -106.002s-29.166 -57.666 -50.499 -78.999s-46.333 -37.666 -75 -48.999s-59.667 -17 -93 -17s-64.166 5.33301 -92.499 16s-53 26.167 -74 46.5s-37.333 45.5 -49 75.5s-17.5 64.333 -17.5 103
c0 40 6.16699 75.333 18.5 106s29.166 56.667 50.499 78s46.333 37.5 75 48.5s59.667 16.5 93 16.5s64.166 -5.16699 92.499 -15.5s53 -25.5 74 -45.5s37.333 -45 49 -75s17.5 -64.333 17.5 -103zM402 235.997c0 30 -3.66699 55.499 -11 76.499s-17 38.167 -29 51.5
s-25.833 23 -41.5 29s-31.5 9 -47.5 9s-31.667 -2.66699 -47 -8s-29 -14.333 -41 -27s-21.5 -29.667 -28.5 -51s-10.5 -48 -10.5 -80c0 -29.333 3.66699 -54.666 11 -75.999s17 -38.833 29 -52.5s25.667 -23.667 41 -30s31.333 -9.5 48 -9.5c16 0 31.667 2.66699 47 8
s29 14.5 41 27.5s21.5 30.333 28.5 52s10.5 48.5 10.5 80.5zM154 691.996h113l70 -139h-79z" />
    <glyph glyph-name="oacute" unicode="&#xf3;" horiz-adv-x="548" 
d="M509 241c0 -39.333 -6.16699 -74.6689 -18.5 -106.002s-29.166 -57.666 -50.499 -78.999s-46.333 -37.666 -75 -48.999s-59.667 -17 -93 -17s-64.166 5.33301 -92.499 16s-53 26.167 -74 46.5s-37.333 45.5 -49 75.5s-17.5 64.333 -17.5 103
c0 40 6.16699 75.333 18.5 106s29.166 56.667 50.499 78s46.333 37.5 75 48.5s59.667 16.5 93 16.5s64.166 -5.16699 92.499 -15.5s53 -25.5 74 -45.5s37.333 -45 49 -75s17.5 -64.333 17.5 -103zM402 235.997c0 30 -3.66699 55.499 -11 76.499s-17 38.167 -29 51.5
s-25.833 23 -41.5 29s-31.5 9 -47.5 9s-31.667 -2.66699 -47 -8s-29 -14.333 -41 -27s-21.5 -29.667 -28.5 -51s-10.5 -48 -10.5 -80c0 -29.333 3.66699 -54.666 11 -75.999s17 -38.833 29 -52.5s25.667 -23.667 41 -30s31.333 -9.5 48 -9.5c16 0 31.667 2.66699 47 8
s29 14.5 41 27.5s21.5 30.333 28.5 52s10.5 48.5 10.5 80.5zM296 552.996h-80l70 139h113z" />
    <glyph glyph-name="ocircumflex" unicode="&#xf4;" horiz-adv-x="548" 
d="M509 241c0 -39.333 -6.16699 -74.6689 -18.5 -106.002s-29.166 -57.666 -50.499 -78.999s-46.333 -37.666 -75 -48.999s-59.667 -17 -93 -17s-64.166 5.33301 -92.499 16s-53 26.167 -74 46.5s-37.333 45.5 -49 75.5s-17.5 64.333 -17.5 103
c0 40 6.16699 75.333 18.5 106s29.166 56.667 50.499 78s46.333 37.5 75 48.5s59.667 16.5 93 16.5s64.166 -5.16699 92.499 -15.5s53 -25.5 74 -45.5s37.333 -45 49 -75s17.5 -64.333 17.5 -103zM402 235.997c0 30 -3.66699 55.499 -11 76.499s-17 38.167 -29 51.5
s-25.833 23 -41.5 29s-31.5 9 -47.5 9s-31.667 -2.66699 -47 -8s-29 -14.333 -41 -27s-21.5 -29.667 -28.5 -51s-10.5 -48 -10.5 -80c0 -29.333 3.66699 -54.666 11 -75.999s17 -38.833 29 -52.5s25.667 -23.667 41 -30s31.333 -9.5 48 -9.5c16 0 31.667 2.66699 47 8
s29 14.5 41 27.5s21.5 30.333 28.5 52s10.5 48.5 10.5 80.5zM425 552.996h-84l-67 82l-68 -82h-87l118 137h72z" />
    <glyph glyph-name="otilde" unicode="&#xf5;" horiz-adv-x="548" 
d="M509 241c0 -39.333 -6.16699 -74.6689 -18.5 -106.002s-29.166 -57.666 -50.499 -78.999s-46.333 -37.666 -75 -48.999s-59.667 -17 -93 -17s-64.166 5.33301 -92.499 16s-53 26.167 -74 46.5s-37.333 45.5 -49 75.5s-17.5 64.333 -17.5 103
c0 40 6.16699 75.333 18.5 106s29.166 56.667 50.499 78s46.333 37.5 75 48.5s59.667 16.5 93 16.5s64.166 -5.16699 92.499 -15.5s53 -25.5 74 -45.5s37.333 -45 49 -75s17.5 -64.333 17.5 -103zM402 235.997c0 30 -3.66699 55.499 -11 76.499s-17 38.167 -29 51.5
s-25.833 23 -41.5 29s-31.5 9 -47.5 9s-31.667 -2.66699 -47 -8s-29 -14.333 -41 -27s-21.5 -29.667 -28.5 -51s-10.5 -48 -10.5 -80c0 -29.333 3.66699 -54.666 11 -75.999s17 -38.833 29 -52.5s25.667 -23.667 41 -30s31.333 -9.5 48 -9.5c16 0 31.667 2.66699 47 8
s29 14.5 41 27.5s21.5 30.333 28.5 52s10.5 48.5 10.5 80.5zM120 552.996c0 34 7.16992 62.001 21.5029 84.001s36.833 33 67.5 33c14 0 26.5 -2.33301 37.5 -7s21.5 -9.66699 31.5 -15l29 -15c9.33301 -4.66699 18.666 -7 27.999 -7c13.333 0 22.666 5.16699 27.999 15.5
s8.66602 21.166 9.99902 32.499h55c0 -32 -7.16699 -59.333 -21.5 -82s-35.833 -34 -64.5 -34c-14.667 0 -28.334 2.16699 -41.001 6.5s-24.167 9.33301 -34.5 15s-20 10.667 -29 15s-17.5 6.5 -25.5 6.5c-13.333 0 -22.666 -4.5 -27.999 -13.5s-8.33301 -20.5 -9 -34.5h-55
z" />
    <glyph glyph-name="odieresis" unicode="&#xf6;" horiz-adv-x="548" 
d="M509 241c0 -39.333 -6.16699 -74.6689 -18.5 -106.002s-29.166 -57.666 -50.499 -78.999s-46.333 -37.666 -75 -48.999s-59.667 -17 -93 -17s-64.166 5.33301 -92.499 16s-53 26.167 -74 46.5s-37.333 45.5 -49 75.5s-17.5 64.333 -17.5 103
c0 40 6.16699 75.333 18.5 106s29.166 56.667 50.499 78s46.333 37.5 75 48.5s59.667 16.5 93 16.5s64.166 -5.16699 92.499 -15.5s53 -25.5 74 -45.5s37.333 -45 49 -75s17.5 -64.333 17.5 -103zM402 235.997c0 30 -3.66699 55.499 -11 76.499s-17 38.167 -29 51.5
s-25.833 23 -41.5 29s-31.5 9 -47.5 9s-31.667 -2.66699 -47 -8s-29 -14.333 -41 -27s-21.5 -29.667 -28.5 -51s-10.5 -48 -10.5 -80c0 -29.333 3.66699 -54.666 11 -75.999s17 -38.833 29 -52.5s25.667 -23.667 41 -30s31.333 -9.5 48 -9.5c16 0 31.667 2.66699 47 8
s29 14.5 41 27.5s21.5 30.333 28.5 52s10.5 48.5 10.5 80.5zM127 621.996c0 14 5.33301 26.5 16 37.5s23.667 16.5 39 16.5s28.333 -5.5 39 -16.5s16 -23.5 16 -37.5c0 -15.333 -5.33301 -28.5 -16 -39.5s-23.667 -16.5 -39 -16.5s-28.333 5.5 -39 16.5s-16 24.167 -16 39.5
zM304 621.996c0 14 5.33301 26.5 16 37.5s23.667 16.5 39 16.5s28.166 -5.5 38.499 -16.5s15.5 -23.5 15.5 -37.5c0 -15.333 -5.16699 -28.5 -15.5 -39.5s-23.166 -16.5 -38.499 -16.5s-28.333 5.5 -39 16.5s-16 24.167 -16 39.5z" />
    <glyph glyph-name="divide" unicode="&#xf7;" horiz-adv-x="538" 
d="M202 87c0 17.333 6.5 32.333 19.5 45s28.167 19 45.5 19s32.333 -6.33301 45 -19s19 -27.667 19 -45c0 -18 -6.33301 -33.333 -19 -46s-27.667 -19 -45 -19s-32.5 6.33301 -45.5 19s-19.5 28 -19.5 46zM202 416c0 16.667 6.5 31.5 19.5 44.5s28.167 19.5 45.5 19.5
s32.333 -6.5 45 -19.5s19 -27.833 19 -44.5c0 -18.667 -6.33301 -34.167 -19 -46.5s-27.667 -18.5 -45 -18.5s-32.5 6.16699 -45.5 18.5s-19.5 27.833 -19.5 46.5zM498 284v-66h-458v66h458z" />
    <glyph glyph-name="oslash" unicode="&#xf8;" horiz-adv-x="548" 
d="M365 567l47 -13.001l-31 -94c38 -17.333 68.667 -43.833 92 -79.5s35.333 -81.834 36 -138.501c0 -39.333 -6 -74.666 -18 -105.999s-28.667 -57.666 -50 -78.999s-46.333 -37.833 -75 -49.5s-59.667 -17.5 -93 -17.5c-21.333 0 -40.333 2 -57 6l-28 -86l-46 14l29 86
c-40 17.333 -72 44 -96 80s-36 82.667 -36 140c0 40 6 75.5 18 106.5s28.667 57.167 50 78.5s46.333 37.5 75 48.5s59.667 16.5 93 16.5c20 0 40 -2 60 -6zM272 401.999c-16 0 -31.668 -2.66602 -47.001 -7.99902s-28.833 -14.333 -40.5 -27s-21 -29.834 -28 -51.501
s-10.5 -48.5 -10.5 -80.5c0 -36.667 5.33301 -66.5 16 -89.5s24.334 -40.833 41.001 -53.5l101 307c-10 2 -20.667 3 -32 3zM401.999 236c0 36 -5.16797 65.333 -15.501 88s-23.5 40 -39.5 52l-100 -305c8.66699 -2 18.334 -3 29.001 -3c16 0 31.5 2.83301 46.5 8.5
s28.5 15 40.5 28s21.5 30.167 28.5 51.5s10.5 48 10.5 80z" />
    <glyph glyph-name="ugrave" unicode="&#xf9;" horiz-adv-x="546" 
d="M378 472l103 0.000976562v-472h-79l-13 57h-4c-16.667 -17.333 -37.667 -32.833 -63 -46.5s-56 -20.5 -92 -20.5c-50 0 -90 14 -120 42s-45 70 -45 126v314h103v-303c0 -36.667 8.5 -62.334 25.5 -77.001s37.5 -22 61.5 -22c26 0 49 5.5 69 16.5s38 25.5 54 43.5v342z
M140 692.001h113l70 -139h-79z" />
    <glyph glyph-name="uacute" unicode="&#xfa;" horiz-adv-x="546" 
d="M378 472l103 0.000976562v-472h-79l-13 57h-4c-16.667 -17.333 -37.667 -32.833 -63 -46.5s-56 -20.5 -92 -20.5c-50 0 -90 14 -120 42s-45 70 -45 126v314h103v-303c0 -36.667 8.5 -62.334 25.5 -77.001s37.5 -22 61.5 -22c26 0 49 5.5 69 16.5s38 25.5 54 43.5v342z
M299 553.001h-79l70 139h113z" />
    <glyph glyph-name="ucircumflex" unicode="&#xfb;" horiz-adv-x="546" 
d="M378 472l103 0.000976562v-472h-79l-13 57h-4c-16.667 -17.333 -37.667 -32.833 -63 -46.5s-56 -20.5 -92 -20.5c-50 0 -90 14 -120 42s-45 70 -45 126v314h103v-303c0 -36.667 8.5 -62.334 25.5 -77.001s37.5 -22 61.5 -22c26 0 49 5.5 69 16.5s38 25.5 54 43.5v342z
M425 553.001h-84l-67 82l-68 -82h-87l119 137h71z" />
    <glyph glyph-name="udieresis" unicode="&#xfc;" horiz-adv-x="546" 
d="M378 472l103 0.000976562v-472h-79l-13 57h-4c-16.667 -17.333 -37.667 -32.833 -63 -46.5s-56 -20.5 -92 -20.5c-50 0 -90 14 -120 42s-45 70 -45 126v314h103v-303c0 -36.667 8.5 -62.334 25.5 -77.001s37.5 -22 61.5 -22c26 0 49 5.5 69 16.5s38 25.5 54 43.5v342z
M129 622.001c0 14 5.33301 26.5 16 37.5s23.667 16.5 39 16.5s28.166 -5.5 38.499 -16.5s15.5 -23.5 15.5 -37.5c0 -15.333 -5.16699 -28.5 -15.5 -39.5s-23.166 -16.5 -38.499 -16.5s-28.333 5.5 -39 16.5s-16 24.167 -16 39.5zM305 622.001c0 14 5.5 26.5 16.5 37.5
s23.833 16.5 38.5 16.5c15.333 0 28.333 -5.5 39 -16.5s16 -23.5 16 -37.5c0 -15.333 -5.33301 -28.5 -16 -39.5s-23.667 -16.5 -39 -16.5c-14.667 0 -27.5 5.5 -38.5 16.5s-16.5 24.167 -16.5 39.5z" />
    <glyph glyph-name="yacute" unicode="&#xfd;" horiz-adv-x="481" 
d="M8 472h111l95 -255l34 -113h2l33 114l86 254h105l-179 -504c-20 -56.667 -45.5 -102.834 -76.5 -138.501s-71.5 -62.167 -121.5 -79.5l-44 81c33.333 12.667 62.333 30.834 87 54.501s43 54.5 55 92.5l8 23zM266 553h-80l70 139h113z" />
    <glyph glyph-name="thorn" unicode="&#xfe;" horiz-adv-x="551" 
d="M512 236c0 -38 -5.66699 -72.1689 -17 -102.502s-26.833 -56.166 -46.5 -77.499s-42.667 -37.666 -69 -48.999s-54.5 -17 -84.5 -17c-26.667 0 -50 2.83301 -70 8.5s-38.667 15.167 -56 28.5v-190h-102v874h102v-289c19.333 20 41.333 34.667 66 44s50.667 14 78 14
c61.333 0 109.833 -21.5 145.5 -64.5s53.5 -102.833 53.5 -179.5zM405 233.998c0 50.667 -10.6689 90.667 -32.002 120s-51 44 -89 44c-23.333 0 -44.5 -4.83301 -63.5 -14.5s-36.167 -23.167 -51.5 -40.5v-230c12 -14 26.167 -25 42.5 -33s34.833 -12 55.5 -12
c18 0 35.333 3.33301 52 10s31.334 16.667 44.001 30s22.834 30.5 30.501 51.5s11.5 45.833 11.5 74.5z" />
    <glyph glyph-name="ydieresis" unicode="&#xff;" horiz-adv-x="481" 
d="M8 472h111l95 -255l34 -113h2l33 114l86 254h105l-179 -504c-20 -56.667 -45.5 -102.834 -76.5 -138.501s-71.5 -62.167 -121.5 -79.5l-44 81c33.333 12.667 62.333 30.834 87 54.501s43 54.5 55 92.5l8 23zM97 622c0 14 5.5 26.5 16.5 37.5s23.833 16.5 38.5 16.5
c15.333 0 28.333 -5.5 39 -16.5s16 -23.5 16 -37.5c0 -15.333 -5.33301 -28.5 -16 -39.5s-23.667 -16.5 -39 -16.5c-14.667 0 -27.5 5.5 -38.5 16.5s-16.5 24.167 -16.5 39.5zM274 622c0 14 5.33301 26.5 16 37.5s23.667 16.5 39 16.5s28.333 -5.5 39 -16.5
s16 -23.5 16 -37.5c0 -15.333 -5.33301 -28.5 -16 -39.5s-23.667 -16.5 -39 -16.5s-28.333 5.5 -39 16.5s-16 24.167 -16 39.5z" />
    <glyph glyph-name="Amacron" unicode="&#x100;" horiz-adv-x="601" 
d="M423 772v-67h-249v67h249zM203 247l190.998 0.000976562l-37 102c-11.333 28 -21.166 54.167 -29.499 78.5s-17.166 52.166 -26.499 83.499h-2l-28 -81.5c-8.66699 -25 -18.667 -52.167 -30 -81.5zM250.998 630.001h102l245 -630h-112l-63 165h-247l-62 -165h-111z" />
    <glyph glyph-name="amacron" unicode="&#x101;" horiz-adv-x="495" 
d="M71 430c30.667 16.667 60.168 29.166 88.501 37.499s59.833 12.5 94.5 12.5c26.667 0 51.167 -3 73.5 -9s41.5 -15.667 57.5 -29s28.5 -31.166 37.5 -53.499s13.5 -49.5 13.5 -81.5v-307h-83l-11 51h-3c-18.667 -21.333 -40.334 -36.833 -65.001 -46.5
s-52 -14.5 -82 -14.5c-47.333 0 -85.5 12.667 -114.5 38s-43.5 59 -43.5 101c0 26 5.33301 48.5 16 67.5s25.667 34.833 45 47.5s42.333 22.167 69 28.5s56 9.5 88 9.5h80v36c0 30 -8 50.833 -24 62.5s-38 17.5 -66 17.5c-17.333 0 -36.833 -2.83301 -58.5 -8.5
s-46.5 -16.167 -74.5 -31.5zM333.001 213.999l-63 -1.00098c-47.333 -1.33301 -80.666 -9.66602 -99.999 -24.999s-29 -33.333 -29 -54c0 -13.333 2.16699 -24.333 6.5 -33s10.166 -15.667 17.499 -21s15.833 -9.16602 25.5 -11.499s19.5 -3.5 29.5 -3.5
c20.667 0 41.167 5.16699 61.5 15.5s37.5 25.166 51.5 44.499v89zM385.001 653.998v-67h-250v67h250z" />
    <glyph glyph-name="Abreve" unicode="&#x102;" horiz-adv-x="601" 
d="M233 829c2 -20 7.33301 -35.833 16 -47.5s25.667 -17.5 51 -17.5c40.667 0 63 21.667 67 65h67c0 -37.333 -11.5 -67.5 -34.5 -90.5s-56.167 -34.5 -99.5 -34.5c-24 0 -44.5 3.5 -61.5 10.5s-31 16.333 -42 28s-19 25 -24 40s-7.5 30.5 -7.5 46.5h68zM203 247
l190.998 0.000976562l-37 102c-11.333 28 -21.166 54.167 -29.499 78.5s-17.166 52.166 -26.499 83.499h-2l-28 -81.5c-8.66699 -25 -18.667 -52.167 -30 -81.5zM250.998 630.001h102l245 -630h-112l-63 165h-247l-62 -165h-111z" />
    <glyph glyph-name="abreve" unicode="&#x103;" horiz-adv-x="495" 
d="M71 430c30.667 16.667 60.168 29.166 88.501 37.499s59.833 12.5 94.5 12.5c26.667 0 51.167 -3 73.5 -9s41.5 -15.667 57.5 -29s28.5 -31.166 37.5 -53.499s13.5 -49.5 13.5 -81.5v-307h-83l-11 51h-3c-18.667 -21.333 -40.334 -36.833 -65.001 -46.5
s-52 -14.5 -82 -14.5c-47.333 0 -85.5 12.667 -114.5 38s-43.5 59 -43.5 101c0 26 5.33301 48.5 16 67.5s25.667 34.833 45 47.5s42.333 22.167 69 28.5s56 9.5 88 9.5h80v36c0 30 -8 50.833 -24 62.5s-38 17.5 -66 17.5c-17.333 0 -36.833 -2.83301 -58.5 -8.5
s-46.5 -16.167 -74.5 -31.5zM333.001 213.999l-63 -1.00098c-47.333 -1.33301 -80.666 -9.66602 -99.999 -24.999s-29 -33.333 -29 -54c0 -13.333 2.16699 -24.333 6.5 -33s10.166 -15.667 17.499 -21s15.833 -9.16602 25.5 -11.499s19.5 -3.5 29.5 -3.5
c20.667 0 41.167 5.16699 61.5 15.5s37.5 25.166 51.5 44.499v89zM193.001 681.998c2 -20.667 7.33301 -37 16 -49s25.667 -18 51 -18c21.333 0 37.333 5.83301 48 17.5s17 28.167 19 49.5h67c0 -37.333 -11.5 -67.833 -34.5 -91.5s-56.167 -35.5 -99.5 -35.5
c-24 0 -44.5 3.66699 -61.5 11s-31 16.833 -42 28.5s-19 25.167 -24 40.5s-7.5 31 -7.5 47h68z" />
    <glyph glyph-name="Aogonek" unicode="&#x104;" horiz-adv-x="602" 
d="M251 630h101.999l245 -630h-22c-28.667 -13.333 -49.667 -27.5 -63 -42.5s-20 -30.5 -20 -46.5c0 -15.333 4.83301 -27.5 14.5 -36.5s22.167 -13.5 37.5 -13.5c9.33301 0 18 0.833008 26 2.5s15 3.5 21 5.5l15 -54c-23.333 -14 -50.666 -21 -81.999 -21
c-30.667 0 -56.167 8.5 -76.5 25.5s-30.5 41.167 -30.5 72.5c0 25.333 6.83301 46.833 20.5 64.5s29.5 32.167 47.5 43.5l-63 165h-247l-62 -165h-111zM202.999 247l190.998 0.000976562l-37 102c-11.333 28 -21.166 54.167 -29.499 78.5s-17.166 52.166 -26.499 83.499h-2
l-28 -81.5c-8.66699 -25 -18.667 -52.167 -30 -81.5z" />
    <glyph glyph-name="aogonek" unicode="&#x105;" horiz-adv-x="496" 
d="M428 0c-18.667 -13.333 -33.666 -27.668 -44.999 -43.001s-17 -31.333 -17 -48c0 -15.333 4.66699 -27.166 14 -35.499s21.666 -12.5 36.999 -12.5c18.667 0 34.334 2.66699 47.001 8l15 -54c-22 -14 -49.333 -21 -82 -21c-30.667 0 -56.167 8.33301 -76.5 25
s-30.5 40.667 -30.5 72c0 25.333 7 47.166 21 65.499s28 32.833 42 43.5l-11 51h-3c-18.667 -21.333 -40.334 -36.833 -65.001 -46.5s-52 -14.5 -82 -14.5c-47.333 0 -85.5 12.667 -114.5 38s-43.5 59 -43.5 101c0 26 5.33301 48.5 16 67.5s25.667 34.833 45 47.5
s42.333 22.167 69 28.5s56 9.5 88 9.5h80v36c0 30 -8 50.833 -24 62.5s-38 17.5 -66 17.5c-17.333 0 -36.833 -2.83301 -58.5 -8.5s-46.5 -16.167 -74.5 -31.5l-38 72c30.667 16.667 60.167 29.167 88.5 37.5s59.833 12.5 94.5 12.5c26.667 0 51.167 -3 73.5 -9
s41.5 -15.667 57.5 -29s28.5 -31.166 37.5 -53.499s13.5 -49.5 13.5 -81.5v-307h-8zM333.001 213.998l-63 -1.00098c-47.333 -1.33301 -80.666 -9.66602 -99.999 -24.999s-29 -33.333 -29 -54c0 -13.333 2.16699 -24.333 6.5 -33s10.166 -15.667 17.499 -21
s15.833 -9.16602 25.5 -11.499s19.5 -3.5 29.5 -3.5c20.667 0 41.167 5.16699 61.5 15.5s37.5 25.166 51.5 44.499v89z" />
    <glyph glyph-name="Cacute" unicode="&#x106;" horiz-adv-x="563" 
d="M363 76c32.667 0 59.835 2.83203 81.502 8.49902s42.167 13.167 61.5 22.5l23 -83c-21.333 -10 -46 -18.167 -74 -24.5s-62.333 -9.5 -103 -9.5c-43.333 0 -83.833 7.16699 -121.5 21.5s-70.334 35.333 -98.001 63s-49.5 61.667 -65.5 102s-24 86.5 -24 138.5
c0 50.667 7.66699 96.167 23 136.5s36.833 74.5 64.5 102.5s60.667 49.333 99 64s80.5 22 126.5 22c42 0 76.5 -3.5 103.5 -10.5s50.833 -16.167 71.5 -27.5l-25 -81c-22.667 10 -44.167 18 -64.5 24s-44.5 9 -72.5 9c-28.667 0 -55.834 -4.33301 -81.501 -13
s-48 -22.667 -67 -42s-34.167 -44.166 -45.5 -74.499s-17 -66.833 -17 -109.5s5.5 -79.167 16.5 -109.5s25.667 -55 44 -74s40 -33 65 -42s51.5 -13.5 79.5 -13.5zM334.001 704.999h-85l80 124h117z" />
    <glyph glyph-name="cacute" unicode="&#x107;" horiz-adv-x="450" 
d="M299 68c21.333 0 40.168 2.50391 56.501 7.50391s31.166 10.833 44.499 17.5l21 -74c-16.667 -8.66699 -36.334 -15.667 -59.001 -21s-47.334 -8 -74.001 -8c-34.667 0 -67.167 5.16699 -97.5 15.5s-56.666 25.666 -78.999 45.999s-40 45.833 -53 76.5
s-19.5 66.334 -19.5 107.001c0 37.333 6 71.166 18 101.499s29 56.166 51 77.499s48.333 37.666 79 48.999s64.334 17 101.001 17c20.667 0 41.334 -1.66699 62.001 -5s43.667 -11 69 -23l-23 -75c-30.667 17.333 -63 26 -97 26c-46 0 -83.333 -14.333 -112 -43
s-43 -69.334 -43 -122.001c0 -32 4.5 -58.833 13.5 -80.5s20.833 -39.167 35.5 -52.5s31.167 -22.833 49.5 -28.5s37.166 -8.5 56.499 -8.5zM283.002 553.004h-80l70 139h113z" />
    <glyph glyph-name="Ccircumflex" unicode="&#x108;" horiz-adv-x="563" 
d="M363 76c32.667 0 59.835 2.83203 81.502 8.49902s42.167 13.167 61.5 22.5l23 -83c-21.333 -10 -46 -18.167 -74 -24.5s-62.333 -9.5 -103 -9.5c-43.333 0 -83.833 7.16699 -121.5 21.5s-70.334 35.333 -98.001 63s-49.5 61.667 -65.5 102s-24 86.5 -24 138.5
c0 50.667 7.66699 96.167 23 136.5s36.833 74.5 64.5 102.5s60.667 49.333 99 64s80.5 22 126.5 22c42 0 76.5 -3.5 103.5 -10.5s50.833 -16.167 71.5 -27.5l-25 -81c-22.667 10 -44.167 18 -64.5 24s-44.5 9 -72.5 9c-28.667 0 -55.834 -4.33301 -81.501 -13
s-48 -22.667 -67 -42s-34.167 -44.166 -45.5 -74.499s-17 -66.833 -17 -109.5s5.5 -79.167 16.5 -109.5s25.667 -55 44 -74s40 -33 65 -42s51.5 -13.5 79.5 -13.5zM297.001 835.999h79l122 -131h-87l-75 79l-75 -79h-84z" />
    <glyph glyph-name="ccircumflex" unicode="&#x109;" horiz-adv-x="450" 
d="M299 68c21.333 0 40.168 2.50391 56.501 7.50391s31.166 10.833 44.499 17.5l21 -74c-16.667 -8.66699 -36.334 -15.667 -59.001 -21s-47.334 -8 -74.001 -8c-34.667 0 -67.167 5.16699 -97.5 15.5s-56.666 25.666 -78.999 45.999s-40 45.833 -53 76.5
s-19.5 66.334 -19.5 107.001c0 37.333 6 71.166 18 101.499s29 56.166 51 77.499s48.333 37.666 79 48.999s64.334 17 101.001 17c20.667 0 41.334 -1.66699 62.001 -5s43.667 -11 69 -23l-23 -75c-30.667 17.333 -63 26 -97 26c-46 0 -83.333 -14.333 -112 -43
s-43 -69.334 -43 -122.001c0 -32 4.5 -58.833 13.5 -80.5s20.833 -39.167 35.5 -52.5s31.167 -22.833 49.5 -28.5s37.166 -8.5 56.499 -8.5zM412.002 553.004h-84l-67 82l-68 -82h-87l119 137h71z" />
    <glyph glyph-name="Cdotaccent" unicode="&#x10a;" horiz-adv-x="563" 
d="M363 76c32.667 0 59.835 2.83203 81.502 8.49902s42.167 13.167 61.5 22.5l23 -83c-21.333 -10 -46 -18.167 -74 -24.5s-62.333 -9.5 -103 -9.5c-43.333 0 -83.833 7.16699 -121.5 21.5s-70.334 35.333 -98.001 63s-49.5 61.667 -65.5 102s-24 86.5 -24 138.5
c0 50.667 7.66699 96.167 23 136.5s36.833 74.5 64.5 102.5s60.667 49.333 99 64s80.5 22 126.5 22c42 0 76.5 -3.5 103.5 -10.5s50.833 -16.167 71.5 -27.5l-25 -81c-22.667 10 -44.167 18 -64.5 24s-44.5 9 -72.5 9c-28.667 0 -55.834 -4.33301 -81.501 -13
s-48 -22.667 -67 -42s-34.167 -44.166 -45.5 -74.499s-17 -66.833 -17 -109.5s5.5 -79.167 16.5 -109.5s25.667 -55 44 -74s40 -33 65 -42s51.5 -13.5 79.5 -13.5zM293.001 761.999c0 15.333 6 28.833 18 40.5s25.667 17.5 41 17.5c16.667 0 30.667 -5.83301 42 -17.5
s17 -25.167 17 -40.5c0 -16.667 -5.66699 -30.834 -17 -42.501s-25.333 -17.5 -42 -17.5c-15.333 0 -29 5.83301 -41 17.5s-18 25.834 -18 42.501z" />
    <glyph glyph-name="cdotaccent" unicode="&#x10b;" horiz-adv-x="450" 
d="M299 68c21.333 0 40.168 2.50391 56.501 7.50391s31.166 10.833 44.499 17.5l21 -74c-16.667 -8.66699 -36.334 -15.667 -59.001 -21s-47.334 -8 -74.001 -8c-34.667 0 -67.167 5.16699 -97.5 15.5s-56.666 25.666 -78.999 45.999s-40 45.833 -53 76.5
s-19.5 66.334 -19.5 107.001c0 37.333 6 71.166 18 101.499s29 56.166 51 77.499s48.333 37.666 79 48.999s64.334 17 101.001 17c20.667 0 41.334 -1.66699 62.001 -5s43.667 -11 69 -23l-23 -75c-30.667 17.333 -63 26 -97 26c-46 0 -83.333 -14.333 -112 -43
s-43 -69.334 -43 -122.001c0 -32 4.5 -58.833 13.5 -80.5s20.833 -39.167 35.5 -52.5s31.167 -22.833 49.5 -28.5s37.166 -8.5 56.499 -8.5zM211.002 623.004c0 15.333 6 28.833 18 40.5s25.667 17.5 41 17.5c16.667 0 30.5 -5.83301 41.5 -17.5s16.5 -25.167 16.5 -40.5
c0 -16.667 -5.5 -30.834 -16.5 -42.501s-24.833 -17.5 -41.5 -17.5c-15.333 0 -29 5.83301 -41 17.5s-18 25.834 -18 42.501z" />
    <glyph glyph-name="Ccaron" unicode="&#x10c;" horiz-adv-x="563" 
d="M363 76c32.667 0 59.835 2.83203 81.502 8.49902s42.167 13.167 61.5 22.5l23 -83c-21.333 -10 -46 -18.167 -74 -24.5s-62.333 -9.5 -103 -9.5c-43.333 0 -83.833 7.16699 -121.5 21.5s-70.334 35.333 -98.001 63s-49.5 61.667 -65.5 102s-24 86.5 -24 138.5
c0 50.667 7.66699 96.167 23 136.5s36.833 74.5 64.5 102.5s60.667 49.333 99 64s80.5 22 126.5 22c42 0 76.5 -3.5 103.5 -10.5s50.833 -16.167 71.5 -27.5l-25 -81c-22.667 10 -44.167 18 -64.5 24s-44.5 9 -72.5 9c-28.667 0 -55.834 -4.33301 -81.501 -13
s-48 -22.667 -67 -42s-34.167 -44.166 -45.5 -74.499s-17 -66.833 -17 -109.5s5.5 -79.167 16.5 -109.5s25.667 -55 44 -74s40 -33 65 -42s51.5 -13.5 79.5 -13.5zM184.001 836.999h87l74 -81l74 81h86l-122 -131h-79z" />
    <glyph glyph-name="ccaron" unicode="&#x10d;" horiz-adv-x="450" 
d="M299 68c21.333 0 40.168 2.50391 56.501 7.50391s31.166 10.833 44.499 17.5l21 -74c-16.667 -8.66699 -36.334 -15.667 -59.001 -21s-47.334 -8 -74.001 -8c-34.667 0 -67.167 5.16699 -97.5 15.5s-56.666 25.666 -78.999 45.999s-40 45.833 -53 76.5
s-19.5 66.334 -19.5 107.001c0 37.333 6 71.166 18 101.499s29 56.166 51 77.499s48.333 37.666 79 48.999s64.334 17 101.001 17c20.667 0 41.334 -1.66699 62.001 -5s43.667 -11 69 -23l-23 -75c-30.667 17.333 -63 26 -97 26c-46 0 -83.333 -14.333 -112 -43
s-43 -69.334 -43 -122.001c0 -32 4.5 -58.833 13.5 -80.5s20.833 -39.167 35.5 -52.5s31.167 -22.833 49.5 -28.5s37.166 -8.5 56.499 -8.5zM114.002 690.004h84l67 -82l68 82h87l-118 -137h-72z" />
    <glyph glyph-name="Dcaron" unicode="&#x10e;" horiz-adv-x="646" 
d="M286 630c46 0 88.334 -6.33301 127.001 -19s72 -31.5 100 -56.5s49.833 -56.333 65.5 -94s23.5 -81.5 23.5 -131.5c0 -59.333 -9.33301 -109.833 -28 -151.5s-43.834 -75.667 -75.501 -102s-68.667 -45.5 -111 -57.5s-86.833 -18 -133.5 -18h-178v630h210zM183.001 86
l62 0.000976562c30.667 0 60.5 3.5 89.5 10.5s54.833 19.667 77.5 38s40.834 43.166 54.501 74.499s20.5 71.333 20.5 120c0 69.333 -19.833 122.5 -59.5 159.5s-92.834 55.5 -159.501 55.5h-85v-458zM133.001 837.001h85l75 -79l75 79h86l-122 -131h-79z" />
    <glyph glyph-name="dcaron" unicode="&#x10f;" horiz-adv-x="634" 
d="M377 711l103.002 -0.00195312v-711h-81l-12 52h-3c-18 -20 -37.667 -35.333 -59 -46s-48.666 -16 -81.999 -16c-26.667 0 -52.334 5.16699 -77.001 15.5s-46.334 25.833 -65.001 46.5s-33.667 46.334 -45 77.001s-17 66 -17 106c0 37.333 4.83301 71 14.5 101
s23.667 55.667 42 77s40.666 37.833 66.999 49.5s56.5 17.5 90.5 17.5c24 0 46.833 -3.66699 68.5 -11s40.167 -17.666 55.5 -30.999v273zM377.002 354.998c-28 32 -61.334 48 -100.001 48c-17.333 0 -34 -3 -50 -9s-30.333 -15.667 -43 -29s-22.667 -30.333 -30 -51
s-11 -46 -11 -76s3.5 -55.667 10.5 -77s16.167 -39 27.5 -53s24.5 -24.167 39.5 -30.5s30.5 -9.5 46.5 -9.5c23.333 0 44.333 5.33301 63 16s34.334 25.667 47.001 45v226zM603.001 616.998c-12 2.66699 -23.833 9.16895 -35.5 19.502s-17.5 24.166 -17.5 41.499
c0 16.667 5.5 31.167 16.5 43.5s26.167 18.5 45.5 18.5c8 0 16.333 -1.66699 25 -5s16.5 -8.66602 23.5 -15.999s12.833 -16.833 17.5 -28.5s7 -25.834 7 -42.501c0 -16 -2.83301 -32.167 -8.5 -48.5s-13.5 -31.833 -23.5 -46.5s-21.833 -28.167 -35.5 -40.5
s-28.167 -22.5 -43.5 -30.5l-27 37c18 10.667 34.333 24.667 49 42s23 34.666 25 51.999z" />
    <glyph glyph-name="Dcroat" unicode="&#x110;" horiz-adv-x="678" 
d="M319 630c46 0 88.333 -6.33301 127 -19s72 -31.5 100 -56.5s49.833 -56.333 65.5 -94s23.5 -81.5 23.5 -131.5c0 -59.333 -9.33301 -109.833 -28 -151.5s-43.834 -75.667 -75.501 -102s-68.667 -45.5 -111 -57.5s-87.166 -18 -134.499 -18h-177v290h-82v72h82v268h210z
M340 362v-71.999h-124v-204h61c30.667 0 60.667 3.5 90 10.5s55.333 19.667 78 38s40.834 43.166 54.501 74.499s20.5 71.333 20.5 120c0 69.333 -19.833 122.5 -59.5 159.5s-92.834 55.5 -159.501 55.5h-85v-182h124z" />
    <glyph glyph-name="dcroat" unicode="&#x111;" horiz-adv-x="556" 
d="M377 711l103.002 -0.00195312v-78h81v-67h-81v-566h-81l-12 52h-3c-18 -20 -37.667 -35.333 -59 -46s-48.666 -16 -81.999 -16c-26.667 0 -52.334 5.16699 -77.001 15.5s-46.334 25.833 -65.001 46.5s-33.667 46.334 -45 77.001s-17 66 -17 106
c0 37.333 4.83301 71 14.5 101s23.667 55.667 42 77s40.666 37.833 66.999 49.5s56.5 17.5 90.5 17.5c24 0 46.833 -3.66699 68.5 -11s40.167 -17.666 55.5 -30.999v128h-113v67h113v78zM377.002 354.998c-28 32 -61.334 48 -100.001 48c-17.333 0 -34 -3 -50 -9
s-30.333 -15.667 -43 -29s-22.667 -30.333 -30 -51s-11 -46 -11 -76s3.5 -55.667 10.5 -77s16.167 -39 27.5 -53s24.5 -24.167 39.5 -30.5s30.5 -9.5 46.5 -9.5c23.333 0 44.333 5.33301 63 16s34.334 25.667 47.001 45v226z" />
    <glyph glyph-name="Emacron" unicode="&#x112;" horiz-adv-x="506" 
d="M76 630h390v-86h-283v-174h257v-85h-257v-199h286v-86h-393v630zM395 772v-67h-249v67h249z" />
    <glyph glyph-name="emacron" unicode="&#x113;" horiz-adv-x="509" 
d="M474 220l-331 -0.000976562v-4c0 -48 14 -84.667 42 -110s65 -38 111 -38c25.333 0 48.166 2.16699 68.499 6.5s40.833 11.166 61.5 20.499l20 -75c-19.333 -8.66699 -42.333 -15.834 -69 -21.501s-56 -8.5 -88 -8.5c-34 0 -66.333 4.66699 -97 14s-57.5 24 -80.5 44
s-41.167 45.333 -54.5 76s-20 67.334 -20 110.001c0 36.667 5.5 70.167 16.5 100.5s26.667 56.333 47 78s45 38.334 74 50.001s61.167 17.5 96.5 17.5c30.667 0 58.5 -5 83.5 -15s46.333 -24.167 64 -42.5s31.334 -40.666 41.001 -66.999s14.5 -55.5 14.5 -87.5v-48z
M368 289.999c0 16 -2 31.001 -6 45.001s-10 26.167 -18 36.5s-18.5 18.666 -31.5 24.999s-28.5 9.5 -46.5 9.5c-33.333 0 -60.5 -10.667 -81.5 -32s-33.833 -50 -38.5 -86zM390 654v-67h-250v67h250z" />
    <glyph glyph-name="Ebreve" unicode="&#x114;" horiz-adv-x="506" 
d="M76 630h390v-86h-283v-174h257v-85h-257v-199h286v-86h-393v630zM213 838c2 -20 7.5 -35.833 16.5 -47.5s25.833 -17.5 50.5 -17.5c21.333 0 37.333 5.5 48 16.5s17 27.167 19 48.5h67c0 -37.333 -11.5 -67.5 -34.5 -90.5s-56.167 -34.5 -99.5 -34.5
c-24 0 -44.5 3.5 -61.5 10.5s-31 16.333 -42 28s-19 25 -24 40s-7.5 30.5 -7.5 46.5h68z" />
    <glyph glyph-name="ebreve" unicode="&#x115;" horiz-adv-x="509" 
d="M474 220l-331 -0.000976562v-4c0 -48 14 -84.667 42 -110s65 -38 111 -38c25.333 0 48.166 2.16699 68.499 6.5s40.833 11.166 61.5 20.499l20 -75c-19.333 -8.66699 -42.333 -15.834 -69 -21.501s-56 -8.5 -88 -8.5c-34 0 -66.333 4.66699 -97 14s-57.5 24 -80.5 44
s-41.167 45.333 -54.5 76s-20 67.334 -20 110.001c0 36.667 5.5 70.167 16.5 100.5s26.667 56.333 47 78s45 38.334 74 50.001s61.167 17.5 96.5 17.5c30.667 0 58.5 -5 83.5 -15s46.333 -24.167 64 -42.5s31.334 -40.666 41.001 -66.999s14.5 -55.5 14.5 -87.5v-48z
M368 289.999c0 16 -2 31.001 -6 45.001s-10 26.167 -18 36.5s-18.5 18.666 -31.5 24.999s-28.5 9.5 -46.5 9.5c-33.333 0 -60.5 -10.667 -81.5 -32s-33.833 -50 -38.5 -86zM204 682c2 -20.667 7.33301 -37 16 -49s25.667 -18 51 -18c21.333 0 37.333 5.83301 48 17.5
s17 28.167 19 49.5h67c0 -37.333 -11.5 -67.833 -34.5 -91.5s-56.167 -35.5 -99.5 -35.5c-24 0 -44.5 3.66699 -61.5 11s-31 16.833 -42 28.5s-19 25.167 -24 40.5s-7.5 31 -7.5 47h68z" />
    <glyph glyph-name="Edotaccent" unicode="&#x116;" horiz-adv-x="506" 
d="M76 630h390v-86h-283v-174h257v-85h-257v-199h286v-86h-393v630zM225 762c0 15.333 6 28.833 18 40.5s25.667 17.5 41 17.5c16.667 0 30.667 -5.83301 42 -17.5s17 -25.167 17 -40.5c0 -16.667 -5.66699 -30.834 -17 -42.501s-25.333 -17.5 -42 -17.5
c-15.333 0 -29 5.83301 -41 17.5s-18 25.834 -18 42.501z" />
    <glyph glyph-name="edotaccent" unicode="&#x117;" horiz-adv-x="509" 
d="M474 220l-331 -0.000976562v-4c0 -48 14 -84.667 42 -110s65 -38 111 -38c25.333 0 48.166 2.16699 68.499 6.5s40.833 11.166 61.5 20.499l20 -75c-19.333 -8.66699 -42.333 -15.834 -69 -21.501s-56 -8.5 -88 -8.5c-34 0 -66.333 4.66699 -97 14s-57.5 24 -80.5 44
s-41.167 45.333 -54.5 76s-20 67.334 -20 110.001c0 36.667 5.5 70.167 16.5 100.5s26.667 56.333 47 78s45 38.334 74 50.001s61.167 17.5 96.5 17.5c30.667 0 58.5 -5 83.5 -15s46.333 -24.167 64 -42.5s31.334 -40.666 41.001 -66.999s14.5 -55.5 14.5 -87.5v-48z
M368 289.999c0 16 -2 31.001 -6 45.001s-10 26.167 -18 36.5s-18.5 18.666 -31.5 24.999s-28.5 9.5 -46.5 9.5c-33.333 0 -60.5 -10.667 -81.5 -32s-33.833 -50 -38.5 -86zM208 623c0 15.333 6 28.833 18 40.5s25.667 17.5 41 17.5c16.667 0 30.667 -5.83301 42 -17.5
s17 -25.167 17 -40.5c0 -16.667 -5.66699 -30.834 -17 -42.501s-25.333 -17.5 -42 -17.5c-15.333 0 -29 5.83301 -41 17.5s-18 25.834 -18 42.501z" />
    <glyph glyph-name="Eogonek" unicode="&#x118;" horiz-adv-x="506" 
d="M76 630h390.001v-86h-283v-174h257v-85h-257v-199h286v-86c-25.333 -12.667 -46 -26.167 -62 -40.5s-24 -30.833 -24 -49.5c0 -15.333 4.66699 -27.333 14 -36s21.666 -13 36.999 -13c9.33301 0 18 0.833008 26 2.5s15.333 3.5 22 5.5l14 -54c-22 -14 -49 -21 -81 -21
c-30.667 0 -56.167 8.5 -76.5 25.5s-30.5 41.167 -30.5 72.5c0 24.667 7.16699 46 21.5 64s30.833 32 49.5 42v2h-303v630z" />
    <glyph glyph-name="eogonek" unicode="&#x119;" horiz-adv-x="509" 
d="M474 220l-331 -0.00390625v-4c0 -48 14 -84.667 42 -110s65 -38 111 -38c25.333 0 48.166 2.16699 68.499 6.5s40.833 11.166 61.5 20.499l20 -75l-21 -8c-25.333 -12.667 -45.333 -25.5 -60 -38.5s-22 -29.5 -22 -49.5c0 -15.333 4.83301 -27.166 14.5 -35.499
s22.167 -12.5 37.5 -12.5c17.333 0 33 2.66699 47 8l15 -54c-23.333 -14 -50.666 -21 -81.999 -21c-30.667 0 -56.167 8 -76.5 24s-30.5 39.667 -30.5 71c0 16.667 4.33301 32.334 13 47.001s20.667 27 36 37v3c-4.66699 -0.666992 -9.33398 -1 -14.001 -1h-14
c-34 0 -66.333 4.66699 -97 14s-57.5 24 -80.5 44s-41.167 45.333 -54.5 76s-20 67.334 -20 110.001c0 36.667 5.5 70.167 16.5 100.5s26.667 56.333 47 78s45 38.334 74 50.001s61.167 17.5 96.5 17.5c30.667 0 58.5 -5 83.5 -15s46.333 -24.167 64 -42.5
s31.334 -40.666 41.001 -66.999s14.5 -55.5 14.5 -87.5v-48zM368 289.996c0 16 -2 31.001 -6 45.001s-10 26.167 -18 36.5s-18.5 18.666 -31.5 24.999s-28.5 9.5 -46.5 9.5c-33.333 0 -60.5 -10.667 -81.5 -32s-33.833 -50 -38.5 -86z" />
    <glyph glyph-name="Ecaron" unicode="&#x11a;" horiz-adv-x="506" 
d="M76 630h390v-86h-283v-174h257v-85h-257v-199h286v-86h-393v630zM320 706h-79l-120 131h87l74 -81l74 81h86z" />
    <glyph glyph-name="ecaron" unicode="&#x11b;" horiz-adv-x="509" 
d="M474 220l-331 -0.000976562v-4c0 -48 14 -84.667 42 -110s65 -38 111 -38c25.333 0 48.166 2.16699 68.499 6.5s40.833 11.166 61.5 20.499l20 -75c-19.333 -8.66699 -42.333 -15.834 -69 -21.501s-56 -8.5 -88 -8.5c-34 0 -66.333 4.66699 -97 14s-57.5 24 -80.5 44
s-41.167 45.333 -54.5 76s-20 67.334 -20 110.001c0 36.667 5.5 70.167 16.5 100.5s26.667 56.333 47 78s45 38.334 74 50.001s61.167 17.5 96.5 17.5c30.667 0 58.5 -5 83.5 -15s46.333 -24.167 64 -42.5s31.334 -40.666 41.001 -66.999s14.5 -55.5 14.5 -87.5v-48z
M368 289.999c0 16 -2 31.001 -6 45.001s-10 26.167 -18 36.5s-18.5 18.666 -31.5 24.999s-28.5 9.5 -46.5 9.5c-33.333 0 -60.5 -10.667 -81.5 -32s-33.833 -50 -38.5 -86zM303 553h-72l-118 137h87l67 -82l68 82h84z" />
    <glyph glyph-name="Gcircumflex" unicode="&#x11c;" horiz-adv-x="622" 
d="M360 640c73.333 0 134.671 -12.3311 184.004 -36.998l-24 -79c-24 11.333 -48.167 19.666 -72.5 24.999s-49.5 8 -75.5 8c-28.667 0 -55.834 -4.33301 -81.501 -13s-48.334 -22.667 -68.001 -42s-35.334 -44.333 -47.001 -75s-17.5 -68.334 -17.5 -113.001
c0 -78 17.667 -137.5 53 -178.5s85.333 -61.5 150 -61.5c22.667 0 42.167 1.16699 58.5 3.5s31.833 6.16602 46.5 11.499v166h-114v82h215v-309c-26.667 -10.667 -56.667 -19.667 -90 -27s-72.333 -11 -117 -11c-44 0 -85.333 7 -124 21s-72.334 34.667 -101.001 62
s-51.167 61.166 -67.5 101.499s-24.5 86.833 -24.5 139.5s8 99.334 24 140.001s38.167 74.834 66.5 102.501s61.833 48.5 100.5 62.5s80.667 21 126 21zM303.005 836.002h79l122 -131h-87l-75 79l-75 -79h-84z" />
    <glyph glyph-name="gcircumflex" unicode="&#x11d;" horiz-adv-x="551" 
d="M60 314c0 26 4.83496 49.3311 14.502 69.998s23.167 38.167 40.5 52.5s38 25.166 62 32.499s50 11 78 11c20.667 0 41.667 -2.66699 63 -8h203v-71h-35l-74 10c11.333 -12.667 20.333 -27.334 27 -44.001s10 -34 10 -52c0 -26 -4.66699 -49.167 -14 -69.5
s-22.5 -37.666 -39.5 -51.999s-37.5 -25.166 -61.5 -32.499s-50.333 -11 -79 -11c-9.33301 0 -18.166 0.333008 -26.499 1s-16.5 1.66699 -24.5 3c-12.667 -5.33301 -21.667 -11.666 -27 -18.999s-8 -15.333 -8 -24c0 -13.333 4.66699 -22.666 14 -27.999
s22.666 -8 39.999 -8h119c52 0 92.5 -11.833 121.5 -35.5s43.5 -57.5 43.5 -101.5c0 -26 -5.83301 -49.5 -17.5 -70.5s-28.334 -39 -50.001 -54s-47.834 -26.5 -78.501 -34.5s-65 -12 -103 -12c-70 0 -125.333 12.333 -166 37s-61 61 -61 109c0 23.333 7.66699 43.333 23 60
s35.666 29.667 60.999 39c-12 8 -21.667 17.5 -29 28.5s-11 25.5 -11 43.5c0 21.333 6.33301 39.5 19 54.5s29.334 26.833 50.001 35.5c-24 11.333 -44 28.5 -60 51.5s-24 52.5 -24 88.5zM174.002 -5.00195c-30.667 -14.667 -46 -36.666 -46 -65.999
c0 -26.667 10.833 -47 32.5 -61s55.5 -21 101.5 -21c26 0 48 2.5 66 7.5s32.833 11.5 44.5 19.5s20.167 17 25.5 27s8 20.333 8 31c0 25.333 -8.5 42.166 -25.5 50.499s-39.5 12.5 -67.5 12.5h-139zM346.002 312.999c0 32 -8.33301 55.833 -25 71.5s-38.667 23.5 -66 23.5
c-28 0 -50.167 -7.66699 -66.5 -23s-24.5 -38.333 -24.5 -69c0 -32 8.33301 -55.667 25 -71s38.667 -23 66 -23c28 0 50.167 7.66699 66.5 23s24.5 38 24.5 68zM417.002 552.999h-84l-67 82l-68 -82h-87l118 137h72z" />
    <glyph glyph-name="Gbreve" unicode="&#x11e;" horiz-adv-x="622" 
d="M360 640c73.333 0 134.671 -12.3311 184.004 -36.998l-24 -79c-24 11.333 -48.167 19.666 -72.5 24.999s-49.5 8 -75.5 8c-28.667 0 -55.834 -4.33301 -81.501 -13s-48.334 -22.667 -68.001 -42s-35.334 -44.333 -47.001 -75s-17.5 -68.334 -17.5 -113.001
c0 -78 17.667 -137.5 53 -178.5s85.333 -61.5 150 -61.5c22.667 0 42.167 1.16699 58.5 3.5s31.833 6.16602 46.5 11.499v166h-114v82h215v-309c-26.667 -10.667 -56.667 -19.667 -90 -27s-72.333 -11 -117 -11c-44 0 -85.333 7 -124 21s-72.334 34.667 -101.001 62
s-51.167 61.166 -67.5 101.499s-24.5 86.833 -24.5 139.5s8 99.334 24 140.001s38.167 74.834 66.5 102.501s61.833 48.5 100.5 62.5s80.667 21 126 21zM296.005 838.002c2 -20 7.5 -35.833 16.5 -47.5s25.833 -17.5 50.5 -17.5c21.333 0 37.333 5.5 48 16.5
s17 27.167 19 48.5h67c0 -37.333 -11.5 -67.5 -34.5 -90.5s-56.167 -34.5 -99.5 -34.5c-24 0 -44.5 3.5 -61.5 10.5s-31 16.333 -42 28s-19 25 -24 40s-7.5 30.5 -7.5 46.5h68z" />
    <glyph glyph-name="gbreve" unicode="&#x11f;" horiz-adv-x="551" 
d="M60 314c0 26 4.83496 49.3311 14.502 69.998s23.167 38.167 40.5 52.5s38 25.166 62 32.499s50 11 78 11c20.667 0 41.667 -2.66699 63 -8h203v-71h-35l-74 10c11.333 -12.667 20.333 -27.334 27 -44.001s10 -34 10 -52c0 -26 -4.66699 -49.167 -14 -69.5
s-22.5 -37.666 -39.5 -51.999s-37.5 -25.166 -61.5 -32.499s-50.333 -11 -79 -11c-9.33301 0 -18.166 0.333008 -26.499 1s-16.5 1.66699 -24.5 3c-12.667 -5.33301 -21.667 -11.666 -27 -18.999s-8 -15.333 -8 -24c0 -13.333 4.66699 -22.666 14 -27.999
s22.666 -8 39.999 -8h119c52 0 92.5 -11.833 121.5 -35.5s43.5 -57.5 43.5 -101.5c0 -26 -5.83301 -49.5 -17.5 -70.5s-28.334 -39 -50.001 -54s-47.834 -26.5 -78.501 -34.5s-65 -12 -103 -12c-70 0 -125.333 12.333 -166 37s-61 61 -61 109c0 23.333 7.66699 43.333 23 60
s35.666 29.667 60.999 39c-12 8 -21.667 17.5 -29 28.5s-11 25.5 -11 43.5c0 21.333 6.33301 39.5 19 54.5s29.334 26.833 50.001 35.5c-24 11.333 -44 28.5 -60 51.5s-24 52.5 -24 88.5zM174.002 -5.00195c-30.667 -14.667 -46 -36.666 -46 -65.999
c0 -26.667 10.833 -47 32.5 -61s55.5 -21 101.5 -21c26 0 48 2.5 66 7.5s32.833 11.5 44.5 19.5s20.167 17 25.5 27s8 20.333 8 31c0 25.333 -8.5 42.166 -25.5 50.499s-39.5 12.5 -67.5 12.5h-139zM346.002 312.999c0 32 -8.33301 55.833 -25 71.5s-38.667 23.5 -66 23.5
c-28 0 -50.167 -7.66699 -66.5 -23s-24.5 -38.333 -24.5 -69c0 -32 8.33301 -55.667 25 -71s38.667 -23 66 -23c28 0 50.167 7.66699 66.5 23s24.5 38 24.5 68zM207.002 681.999c2 -20.667 7.33301 -37 16 -49s25.667 -18 51 -18c21.333 0 37.333 5.83301 48 17.5
s17 28.167 19 49.5h67c0 -37.333 -11.5 -67.833 -34.5 -91.5s-56.167 -35.5 -99.5 -35.5c-24 0 -44.5 3.66699 -61.5 11s-31 16.833 -42 28.5s-19 25.167 -24 40.5s-7.5 31 -7.5 47h68z" />
    <glyph glyph-name="Gdotaccent" unicode="&#x120;" horiz-adv-x="622" 
d="M360 640c73.333 0 134.671 -12.3311 184.004 -36.998l-24 -79c-24 11.333 -48.167 19.666 -72.5 24.999s-49.5 8 -75.5 8c-28.667 0 -55.834 -4.33301 -81.501 -13s-48.334 -22.667 -68.001 -42s-35.334 -44.333 -47.001 -75s-17.5 -68.334 -17.5 -113.001
c0 -78 17.667 -137.5 53 -178.5s85.333 -61.5 150 -61.5c22.667 0 42.167 1.16699 58.5 3.5s31.833 6.16602 46.5 11.499v166h-114v82h215v-309c-26.667 -10.667 -56.667 -19.667 -90 -27s-72.333 -11 -117 -11c-44 0 -85.333 7 -124 21s-72.334 34.667 -101.001 62
s-51.167 61.166 -67.5 101.499s-24.5 86.833 -24.5 139.5s8 99.334 24 140.001s38.167 74.834 66.5 102.501s61.833 48.5 100.5 62.5s80.667 21 126 21zM301.005 762.002c0 15.333 6 28.833 18 40.5s25.667 17.5 41 17.5c16.667 0 30.667 -5.83301 42 -17.5
s17 -25.167 17 -40.5c0 -16.667 -5.66699 -30.834 -17 -42.501s-25.333 -17.5 -42 -17.5c-15.333 0 -29 5.83301 -41 17.5s-18 25.834 -18 42.501z" />
    <glyph glyph-name="gdotaccent" unicode="&#x121;" horiz-adv-x="551" 
d="M60 314c0 26 4.83496 49.3311 14.502 69.998s23.167 38.167 40.5 52.5s38 25.166 62 32.499s50 11 78 11c20.667 0 41.667 -2.66699 63 -8h203v-71h-35l-74 10c11.333 -12.667 20.333 -27.334 27 -44.001s10 -34 10 -52c0 -26 -4.66699 -49.167 -14 -69.5
s-22.5 -37.666 -39.5 -51.999s-37.5 -25.166 -61.5 -32.499s-50.333 -11 -79 -11c-9.33301 0 -18.166 0.333008 -26.499 1s-16.5 1.66699 -24.5 3c-12.667 -5.33301 -21.667 -11.666 -27 -18.999s-8 -15.333 -8 -24c0 -13.333 4.66699 -22.666 14 -27.999
s22.666 -8 39.999 -8h119c52 0 92.5 -11.833 121.5 -35.5s43.5 -57.5 43.5 -101.5c0 -26 -5.83301 -49.5 -17.5 -70.5s-28.334 -39 -50.001 -54s-47.834 -26.5 -78.501 -34.5s-65 -12 -103 -12c-70 0 -125.333 12.333 -166 37s-61 61 -61 109c0 23.333 7.66699 43.333 23 60
s35.666 29.667 60.999 39c-12 8 -21.667 17.5 -29 28.5s-11 25.5 -11 43.5c0 21.333 6.33301 39.5 19 54.5s29.334 26.833 50.001 35.5c-24 11.333 -44 28.5 -60 51.5s-24 52.5 -24 88.5zM174.002 -5.00195c-30.667 -14.667 -46 -36.666 -46 -65.999
c0 -26.667 10.833 -47 32.5 -61s55.5 -21 101.5 -21c26 0 48 2.5 66 7.5s32.833 11.5 44.5 19.5s20.167 17 25.5 27s8 20.333 8 31c0 25.333 -8.5 42.166 -25.5 50.499s-39.5 12.5 -67.5 12.5h-139zM346.002 312.999c0 32 -8.33301 55.833 -25 71.5s-38.667 23.5 -66 23.5
c-28 0 -50.167 -7.66699 -66.5 -23s-24.5 -38.333 -24.5 -69c0 -32 8.33301 -55.667 25 -71s38.667 -23 66 -23c28 0 50.167 7.66699 66.5 23s24.5 38 24.5 68zM200.002 622.999c0 15.333 5.83301 28.833 17.5 40.5s25.5 17.5 41.5 17.5c16.667 0 30.5 -5.83301 41.5 -17.5
s16.5 -25.167 16.5 -40.5c0 -16.667 -5.5 -30.834 -16.5 -42.501s-24.833 -17.5 -41.5 -17.5c-16 0 -29.833 5.83301 -41.5 17.5s-17.5 25.834 -17.5 42.501z" />
    <glyph glyph-name="Gcommaaccent" unicode="&#x122;" horiz-adv-x="622" 
d="M360 640c73.333 0 134.671 -12.3311 184.004 -36.998l-24 -79c-24 11.333 -48.167 19.666 -72.5 24.999s-49.5 8 -75.5 8c-28.667 0 -55.834 -4.33301 -81.501 -13s-48.334 -22.667 -68.001 -42s-35.334 -44.333 -47.001 -75s-17.5 -68.334 -17.5 -113.001
c0 -78 17.667 -137.5 53 -178.5s85.333 -61.5 150 -61.5c22.667 0 42.167 1.16699 58.5 3.5s31.833 6.16602 46.5 11.499v166h-114v82h215v-309c-26.667 -10.667 -56.667 -19.667 -90 -27s-72.333 -11 -117 -11c-44 0 -85.333 7 -124 21s-72.334 34.667 -101.001 62
s-51.167 61.166 -67.5 101.499s-24.5 86.833 -24.5 139.5s8 99.334 24 140.001s38.167 74.834 66.5 102.501s61.833 48.5 100.5 62.5s80.667 21 126 21zM345.005 -186.998c-12 2 -23.833 8.16699 -35.5 18.5s-17.5 24.5 -17.5 42.5c0 16.667 5.5 31 16.5 43
s26.167 18 45.5 18c8 0 16.333 -1.66699 25 -5s16.5 -8.66602 23.5 -15.999s12.833 -16.666 17.5 -27.999s7 -25.333 7 -42s-2.83301 -33.167 -8.5 -49.5s-13.5 -31.833 -23.5 -46.5s-21.833 -28.167 -35.5 -40.5s-28.167 -22.5 -43.5 -30.5l-27 37
c18 11.333 34.333 25.666 49 42.999s23 34.666 25 51.999z" />
    <glyph glyph-name="gcommaaccent" unicode="&#x123;" horiz-adv-x="551" 
d="M60 314c0 26 4.83496 49.3311 14.502 69.998s23.167 38.167 40.5 52.5s38 25.166 62 32.499s50 11 78 11c20.667 0 41.667 -2.66699 63 -8h203v-71h-35l-74 10c11.333 -12.667 20.333 -27.334 27 -44.001s10 -34 10 -52c0 -26 -4.66699 -49.167 -14 -69.5
s-22.5 -37.666 -39.5 -51.999s-37.5 -25.166 -61.5 -32.499s-50.333 -11 -79 -11c-9.33301 0 -18.166 0.333008 -26.499 1s-16.5 1.66699 -24.5 3c-12.667 -5.33301 -21.667 -11.666 -27 -18.999s-8 -15.333 -8 -24c0 -13.333 4.66699 -22.666 14 -27.999
s22.666 -8 39.999 -8h119c52 0 92.5 -11.833 121.5 -35.5s43.5 -57.5 43.5 -101.5c0 -26 -5.83301 -49.5 -17.5 -70.5s-28.334 -39 -50.001 -54s-47.834 -26.5 -78.501 -34.5s-65 -12 -103 -12c-70 0 -125.333 12.333 -166 37s-61 61 -61 109c0 23.333 7.66699 43.333 23 60
s35.666 29.667 60.999 39c-12 8 -21.667 17.5 -29 28.5s-11 25.5 -11 43.5c0 21.333 6.33301 39.5 19 54.5s29.334 26.833 50.001 35.5c-24 11.333 -44 28.5 -60 51.5s-24 52.5 -24 88.5zM174.002 -5.00195c-30.667 -14.667 -46 -36.666 -46 -65.999
c0 -26.667 10.833 -47 32.5 -61s55.5 -21 101.5 -21c26 0 48 2.5 66 7.5s32.833 11.5 44.5 19.5s20.167 17 25.5 27s8 20.333 8 31c0 25.333 -8.5 42.166 -25.5 50.499s-39.5 12.5 -67.5 12.5h-139zM346.002 312.999c0 32 -8.33301 55.833 -25 71.5s-38.667 23.5 -66 23.5
c-28 0 -50.167 -7.66699 -66.5 -23s-24.5 -38.333 -24.5 -69c0 -32 8.33301 -55.667 25 -71s38.667 -23 66 -23c28 0 50.167 7.66699 66.5 23s24.5 38 24.5 68zM264.002 675.999c12.667 -2.66699 24.667 -8.99902 36 -18.999s17 -24 17 -42c0 -16.667 -5.5 -31 -16.5 -43
s-26.167 -18 -45.5 -18c-8 0 -16.333 1.66699 -25 5s-16.5 8.66602 -23.5 15.999s-12.833 16.666 -17.5 27.999s-7 25.333 -7 42c0 16 2.83301 32.167 8.5 48.5s13.5 31.833 23.5 46.5s21.833 28.167 35.5 40.5s28.167 22.833 43.5 31.5l27 -38
c-18 -10.667 -34.167 -24.667 -48.5 -42s-22.5 -34.666 -24.5 -51.999z" />
    <glyph glyph-name="Hcircumflex" unicode="&#x124;" horiz-adv-x="645" 
d="M76 0v630h107v-260h279v260h107v-630h-107v282h-279v-282h-107zM286 836h79l122 -131h-87l-75 79l-75 -79h-84z" />
    <glyph glyph-name="hcircumflex" unicode="&#x125;" horiz-adv-x="550" 
d="M170 0l-102.999 0.000976562v689h103v-271c21.333 17.333 44.833 32 70.5 44s54.167 18 85.5 18c26.667 0 50 -4 70 -12s36.5 -19 49.5 -33s22.667 -30.667 29 -50s9.5 -40.333 9.5 -63v-322h-103v299c0 35.333 -7.33301 60.666 -22 75.999s-36 23 -64 23
c-20.667 0 -41.834 -5.16699 -63.501 -15.5s-42.167 -24.5 -61.5 -42.5v-340zM269.001 743.001h-83l-68 82l-67 -82h-88l119 137h71z" />
    <glyph glyph-name="Hbar" unicode="&#x126;" horiz-adv-x="652" 
d="M80 0v483h-60v69h60v78h107v-78h279v78h107v-78h60v-69h-60v-483h-107v282h-279v-282h-107zM466 370v113h-279v-113h279z" />
    <glyph glyph-name="hbar" unicode="&#x127;" horiz-adv-x="551" 
d="M277 633l-0.00195312 -66.999h-107v-148c21.333 17.333 45 32 71 44s54.667 18 86 18c26.667 0 49.834 -4 69.501 -12s36 -19 49 -33s22.667 -30.667 29 -50s9.5 -40.333 9.5 -63v-322h-103v299c0 35.333 -7.16699 60.666 -21.5 75.999s-35.5 23 -63.5 23
c-21.333 0 -42.666 -5.16699 -63.999 -15.5s-42 -24.5 -62 -42.5v-340h-103v566h-80v67h80v78h103v-78h107z" />
    <glyph glyph-name="Itilde" unicode="&#x128;" horiz-adv-x="260" 
d="M183 630v-630h-107v630h107zM-27 706c0 31.333 7.16602 57.834 21.499 79.501s36.5 32.5 66.5 32.5c13.333 0 25.333 -2.16699 36 -6.5s20.834 -9 30.501 -14l28 -14c9 -4.33301 18.5 -6.5 28.5 -6.5c12 0 20.833 4.5 26.5 13.5s9.16699 19.167 10.5 30.5h55
c0 -14.667 -1.83301 -28.834 -5.5 -42.501s-9 -25.667 -16 -36s-15.833 -18.5 -26.5 -24.5s-23 -9 -37 -9s-26.833 2 -38.5 6s-22.834 8.5 -33.501 13.5l-29 14c-8.66699 4.33301 -17 6.5 -25 6.5c-13.333 0 -22.666 -4.16699 -27.999 -12.5s-8.33301 -18.5 -9 -30.5h-55z
" />
    <glyph glyph-name="itilde" unicode="&#x129;" horiz-adv-x="257" 
d="M77 0v472h103v-472h-103zM-25 553c0 34 7.33301 62.001 22 84.001s37 33 67 33c14 0 26.5 -2.33301 37.5 -7s21.5 -9.66699 31.5 -15l29 -15c9.33301 -4.66699 19 -7 29 -7c13.333 0 22.5 5.16699 27.5 15.5s8.16699 21.166 9.5 32.499h55
c0 -32 -7.16699 -59.333 -21.5 -82s-35.833 -34 -64.5 -34c-14.667 0 -28.167 2.16699 -40.5 6.5s-23.833 9.33301 -34.5 15s-20.5 10.667 -29.5 15s-17.5 6.5 -25.5 6.5c-13.333 0 -22.5 -4.5 -27.5 -13.5s-8.16699 -20.5 -9.5 -34.5h-55z" />
    <glyph glyph-name="Imacron" unicode="&#x12a;" horiz-adv-x="260" 
d="M183 630v-630h-107v630h107zM256 772v-67h-249v67h249z" />
    <glyph glyph-name="imacron" unicode="&#x12b;" horiz-adv-x="257" 
d="M77 0v472h103v-472h-103zM253 654v-67h-250v67h250z" />
    <glyph glyph-name="Ibreve" unicode="&#x12c;" horiz-adv-x="260" 
d="M183 630v-630h-107v630h107zM64 829c2 -20 7.50098 -35.833 16.501 -47.5s26.167 -17.5 51.5 -17.5c21.333 0 37.166 5.5 47.499 16.5s16.5 27.167 18.5 48.5h67c0 -37.333 -11.5 -67.5 -34.5 -90.5s-56.167 -34.5 -99.5 -34.5c-24 0 -44.5 3.5 -61.5 10.5
s-31 16.333 -42 28s-19 25 -24 40s-7.5 30.5 -7.5 46.5h68z" />
    <glyph glyph-name="ibreve" unicode="&#x12d;" horiz-adv-x="259" 
d="M77 0v472h103v-472h-103zM62 682c2 -20.667 7.5 -37 16.5 -49s25.833 -18 50.5 -18c21.333 0 37.333 5.83301 48 17.5s17 28.167 19 49.5h67c0 -37.333 -11.5 -67.833 -34.5 -91.5s-56.167 -35.5 -99.5 -35.5c-24 0 -44.5 3.66699 -61.5 11s-31 16.833 -42 28.5
s-19 25.167 -24 40.5s-7.5 31 -7.5 47h68z" />
    <glyph glyph-name="Iogonek" unicode="&#x12e;" horiz-adv-x="260" 
d="M183 630l-0.000976562 -630h-21c-23.333 -13.333 -42.333 -27.333 -57 -42s-22 -30.667 -22 -48c0 -15.333 4.83301 -27.333 14.5 -36s22.167 -13 37.5 -13c9.33301 0 18 0.833008 26 2.5s15 3.5 21 5.5l15 -54c-23.333 -14 -50.666 -21 -81.999 -21
c-30.667 0 -56.167 8.83301 -76.5 26.5s-30.5 42.167 -30.5 73.5c0 25.333 7.16699 47 21.5 65s29.833 31.667 46.5 41v630h107z" />
    <glyph glyph-name="iogonek" unicode="&#x12f;" horiz-adv-x="257" 
d="M161 0c-25.333 -14 -45.002 -27.834 -59.002 -41.501s-21 -30.167 -21 -49.5c0 -15.333 4.83301 -27.166 14.5 -35.499s22.167 -12.5 37.5 -12.5c17.333 0 33 2.66699 47 8l15 -54c-23.333 -14 -50.666 -21 -81.999 -21c-30.667 0 -56.167 8.33301 -76.5 25
s-30.5 40.667 -30.5 72c0 12.667 2.16699 24.667 6.5 36s9.83301 21.5 16.5 30.5s14.334 17.167 23.001 24.5s17 13.333 25 18v472h103v-472h-19zM68.998 646.999c0 16.667 5.5 30.5 16.5 41.5s25.5 16.5 43.5 16.5c17.333 0 31.5 -5.5 42.5 -16.5s16.5 -24.833 16.5 -41.5
c0 -17.333 -5.5 -31.333 -16.5 -42s-25.167 -16 -42.5 -16c-18 0 -32.5 5.5 -43.5 16.5s-16.5 24.833 -16.5 41.5z" />
    <glyph glyph-name="Idotaccent" unicode="&#x130;" horiz-adv-x="260" 
d="M183 630v-630h-107v630h107zM69 762c0 15.333 6 28.833 18 40.5s25.667 17.5 41 17.5c16.667 0 30.667 -5.83301 42 -17.5s17 -25.167 17 -40.5c0 -16.667 -5.66699 -30.834 -17 -42.501s-25.333 -17.5 -42 -17.5c-15.333 0 -29 5.83301 -41 17.5s-18 25.834 -18 42.501z
" />
    <glyph glyph-name="dotlessi" unicode="&#x131;" horiz-adv-x="256" 
d="M76 0v472h103v-472h-103z" />
    <glyph glyph-name="IJ" unicode="&#x132;" horiz-adv-x="507" 
d="M183 630v-630h-107v630h107zM436 630v-515c0 -48.667 -2.5 -88.5 -7.5 -119.5s-16.833 -58.167 -35.5 -81.5c-20.667 -28 -47.167 -47.167 -79.5 -57.5s-65.5 -15.833 -99.5 -16.5v85c38 0.666992 66.667 12 86 34c12 12 19.833 27.5 23.5 46.5s5.5 39.167 5.5 60.5v564
h107z" />
    <glyph glyph-name="ij" unicode="&#x133;" horiz-adv-x="472" 
d="M76 472h103v-472h-103v472zM293 472l103.002 0.000976562v-402c0 -38 -2.5 -73 -7.5 -105s-13.833 -61 -26.5 -87s-30 -49.333 -52 -70s-50.333 -38.334 -85 -53.001l-47 74c20.667 10.667 38.167 21.5 52.5 32.5s26.166 24.833 35.499 41.5s16.166 37.5 20.499 62.5
s6.5 56.5 6.5 94.5v412zM69.002 647.001c0 16.667 5.33301 30.5 16 41.5s25 16.5 43 16.5c17.333 0 31.5 -5.5 42.5 -16.5s16.5 -24.833 16.5 -41.5c0 -17.333 -5.5 -31.333 -16.5 -42s-25.167 -16 -42.5 -16c-18 0 -32.333 5.5 -43 16.5s-16 24.833 -16 41.5z
M285.002 647.001c0 16.667 5.5 30.5 16.5 41.5s25.5 16.5 43.5 16.5c17.333 0 31.5 -5.5 42.5 -16.5s16.5 -24.833 16.5 -41.5c0 -17.333 -5.5 -31.333 -16.5 -42s-25.167 -16 -42.5 -16c-18 0 -32.5 5.5 -43.5 16.5s-16.5 24.833 -16.5 41.5z" />
    <glyph glyph-name="Jcircumflex" unicode="&#x134;" horiz-adv-x="276" 
d="M206 630v-515.002c0 -48.667 -2.66699 -88.5 -8 -119.5s-17 -58.167 -35 -81.5c-21.333 -28 -48 -47.167 -80 -57.5s-65 -15.833 -99 -16.5v85c19.333 0.666992 36 3.83398 50 9.50098s26 13.834 36 24.501c12 12 19.833 27.5 23.5 46.5s5.5 39.167 5.5 60.5v564h107z
M114 835.998h79l122 -131h-87l-75 79l-75 -79h-84z" />
    <glyph glyph-name="jcircumflex" unicode="&#x135;" horiz-adv-x="251" 
d="M71 472l103 0.000976562v-402c0 -38 -2.5 -73 -7.5 -105s-13.833 -61 -26.5 -87s-30 -49.333 -52 -70s-50.333 -38.334 -85 -53.001l-46 74c20.667 10.667 38.167 21.5 52.5 32.5s26 24.833 35 41.5s15.667 37.5 20 62.5s6.5 56.5 6.5 94.5v412zM274 553.001h-83l-68 82
l-67 -82h-88l119 137h71z" />
    <glyph glyph-name="Kcommaaccent" unicode="&#x136;" horiz-adv-x="588" 
d="M76 0v630h107v-278l249 278h133l-252 -278l272 -352h-134l-215 282l-53 -57v-225h-107zM299 -187c-12 2 -23.834 8.16699 -35.501 18.5s-17.5 24.5 -17.5 42.5c0 16.667 5.5 31 16.5 43s26.167 18 45.5 18c8 0 16.333 -1.66699 25 -5s16.5 -8.66602 23.5 -15.999
s12.833 -16.666 17.5 -27.999s7 -25.333 7 -42s-2.83301 -33.167 -8.5 -49.5s-13.5 -31.833 -23.5 -46.5s-21.667 -28.167 -35 -40.5s-27.666 -22.5 -42.999 -30.5l-27 37c18 11.333 34.167 25.666 48.5 42.999s22.5 34.666 24.5 51.999z" />
    <glyph glyph-name="kcommaaccent" unicode="&#x137;" horiz-adv-x="487" 
d="M169 168v-168h-102v711h102v-436l179 197h126l-190 -199l199 -273h-121l-149 212zM246 -187c-12 2 -23.833 8.16699 -35.5 18.5s-17.5 24.5 -17.5 42.5c0 16.667 5.5 31 16.5 43s26.167 18 45.5 18c8 0 16.333 -1.66699 25 -5s16.5 -8.66602 23.5 -15.999
s12.833 -16.666 17.5 -27.999s7 -25.333 7 -42s-2.83301 -33.167 -8.5 -49.5s-13.5 -31.833 -23.5 -46.5s-21.833 -28.167 -35.5 -40.5s-28.167 -22.5 -43.5 -30.5l-27 37c18 11.333 34.333 25.666 49 42.999s23 34.666 25 51.999z" />
    <glyph glyph-name="Lacute" unicode="&#x139;" horiz-adv-x="460" 
d="M76 630h107v-542h264v-88h-371v630zM171 705h-85l80 124h117z" />
    <glyph glyph-name="lacute" unicode="&#x13a;" horiz-adv-x="243" 
d="M67 0v689h101v-689h-101zM149 756h-80l70 139h113z" />
    <glyph glyph-name="Lcommaaccent" unicode="&#x13b;" horiz-adv-x="460" 
d="M76 630h107v-542h264v-88h-371v630zM247 -187c-12 2 -23.833 8.16699 -35.5 18.5s-17.5 24.5 -17.5 42.5c0 16.667 5.5 31 16.5 43s26.167 18 45.5 18c8 0 16.333 -1.66699 25 -5s16.5 -8.66602 23.5 -15.999s12.833 -16.666 17.5 -27.999s7 -25.333 7 -42
s-2.83301 -33.167 -8.5 -49.5s-13.5 -31.833 -23.5 -46.5s-21.833 -28.167 -35.5 -40.5s-28.167 -22.5 -43.5 -30.5l-27 37c18 11.333 34.333 25.666 49 42.999s23 34.666 25 51.999z" />
    <glyph glyph-name="lcommaaccent" unicode="&#x13c;" horiz-adv-x="234" 
d="M67 0v711h101v-711h-101zM103 -187c-12 2 -23.834 8.16699 -35.501 18.5s-17.5 24.5 -17.5 42.5c0 16.667 5.5 31 16.5 43s26.167 18 45.5 18c8 0 16.333 -1.66699 25 -5s16.5 -8.66602 23.5 -15.999s12.833 -16.666 17.5 -27.999s7 -25.333 7 -42
s-2.83301 -33.167 -8.5 -49.5s-13.5 -31.833 -23.5 -46.5s-21.667 -28.167 -35 -40.5s-27.666 -22.5 -42.999 -30.5l-27 37c18 11.333 34.167 25.666 48.5 42.999s22.5 34.666 24.5 51.999z" />
    <glyph glyph-name="Lcaron" unicode="&#x13d;" horiz-adv-x="460" 
d="M76 630h107v-542h264v-88h-371v630zM316 619c-12 2 -23.833 8.16699 -35.5 18.5s-17.5 24.5 -17.5 42.5c0 16.667 5.5 31 16.5 43s26.167 18 45.5 18c8 0 16.333 -1.66699 25 -5s16.5 -8.66602 23.5 -15.999s12.833 -16.666 17.5 -27.999s7 -25.333 7 -42
s-2.83301 -33.167 -8.5 -49.5s-13.5 -31.833 -23.5 -46.5s-21.833 -28.167 -35.5 -40.5s-28.167 -22.5 -43.5 -30.5l-27 37c18.667 11.333 35.167 25.666 49.5 42.999s22.5 34.666 24.5 51.999z" />
    <glyph glyph-name="lcaron" unicode="&#x13e;" horiz-adv-x="327" 
d="M67 0v711h101v-711h-101zM293 617c-12.667 2.66699 -24.667 9.16895 -36 19.502s-17 24.166 -17 41.499c0 16.667 5.5 31.167 16.5 43.5s26.167 18.5 45.5 18.5c8 0 16.333 -1.66699 25 -5s16.5 -8.66602 23.5 -15.999s12.833 -16.833 17.5 -28.5s7 -25.834 7 -42.501
c0 -16 -2.83301 -32.167 -8.5 -48.5s-13.5 -31.833 -23.5 -46.5s-21.833 -28.167 -35.5 -40.5s-28.167 -22.5 -43.5 -30.5l-27 37c18 10.667 34.167 24.667 48.5 42s22.5 34.666 24.5 51.999z" />
    <glyph glyph-name="Ldot" unicode="&#x13f;" horiz-adv-x="460" 
d="M76 630h107v-542h264v-88h-371v630zM257 336c0 18 5.83301 33.333 17.5 46s26.5 19 44.5 19c16 0 29.833 -6.33301 41.5 -19s17.5 -28 17.5 -46c0 -17.333 -5.83301 -32.333 -17.5 -45s-25.5 -19 -41.5 -19c-18 0 -32.833 6.33301 -44.5 19s-17.5 27.667 -17.5 45z" />
    <glyph glyph-name="ldot" unicode="&#x140;" horiz-adv-x="298" 
d="M67 0v711h101v-711h-101zM230 336c0 18 5.83301 33.333 17.5 46s26.5 19 44.5 19c16 0 29.833 -6.33301 41.5 -19s17.5 -28 17.5 -46c0 -17.333 -5.83301 -32.333 -17.5 -45s-25.5 -19 -41.5 -19c-18 0 -32.833 6.33301 -44.5 19s-17.5 27.667 -17.5 45z" />
    <glyph glyph-name="Lslash" unicode="&#x141;" horiz-adv-x="460" 
d="M76 630h107v-243l124 104l39 -48l-163 -136v-219h264v-88h-371v232l-72 -60l-39 48l111 93v317z" />
    <glyph glyph-name="lslash" unicode="&#x142;" horiz-adv-x="341" 
d="M112 0v246l-85 -86l-42 42l127 127v382h101v-309l102 102l42 -42l-144 -143v-319h-101z" />
    <glyph glyph-name="Nacute" unicode="&#x143;" horiz-adv-x="672" 
d="M361 705h-84l80 124h117zM76 630l95 -0.000976562l264 -377c12 -17.333 23.333 -34.666 34 -51.999s19.667 -33 27 -47h2c-3.33301 49.333 -5 98.5 -5 147.5v148.5v180h103v-630h-95l-257 365c-12.667 18 -25 37.5 -37 58.5s-22.333 39.833 -31 56.5h-2
c3.33301 -52 5 -103.5 5 -154.5v-153.5v-172h-103v630z" />
    <glyph glyph-name="nacute" unicode="&#x144;" horiz-adv-x="542" 
d="M167 0l-103 -0.000976562v472h80l14 -63c23.333 22.667 48 40.167 74 52.5s55.333 18.5 88 18.5c50 0 88.667 -13.667 116 -41s41 -66.333 41 -117v-322h-103v309c0 27.333 -7 49 -21 65s-35.333 24 -64 24c-20.667 0 -41.667 -5.16699 -63 -15.5
s-41 -25.166 -59 -44.499v-338zM313 552.999h-80l70 139h113z" />
    <glyph glyph-name="Ncommaaccent" unicode="&#x145;" horiz-adv-x="672" 
d="M317 -187c-12 2 -23.833 8.16699 -35.5 18.5s-17.5 24.5 -17.5 42.5c0 16.667 5.5 31 16.5 43s26.167 18 45.5 18c8 0 16.333 -1.66699 25 -5s16.5 -8.66602 23.5 -15.999s12.833 -16.666 17.5 -27.999s7 -25.333 7 -42s-2.83301 -33.167 -8.5 -49.5
s-13.5 -31.833 -23.5 -46.5s-21.833 -28.167 -35.5 -40.5s-28.167 -22.5 -43.5 -30.5l-27 37c18 11.333 34.333 25.666 49 42.999s23 34.666 25 51.999zM76 630l95 -0.000976562l264 -377c12 -17.333 23.333 -34.666 34 -51.999s19.667 -33 27 -47h2
c-3.33301 49.333 -5 98.5 -5 147.5v148.5v180h103v-630h-95l-257 365c-12.667 18 -25 37.5 -37 58.5s-22.333 39.833 -31 56.5h-2c3.33301 -52 5 -103.5 5 -154.5v-153.5v-172h-103v630z" />
    <glyph glyph-name="ncommaaccent" unicode="&#x146;" horiz-adv-x="542" 
d="M167 0l-103 -0.000976562v472h80l14 -63c23.333 22.667 48 40.167 74 52.5s55.333 18.5 88 18.5c50 0 88.667 -13.667 116 -41s41 -66.333 41 -117v-322h-103v309c0 27.333 -7 49 -21 65s-35.333 24 -64 24c-20.667 0 -41.667 -5.16699 -63 -15.5
s-41 -25.166 -59 -44.499v-338zM264 -187.001c-12 2 -23.833 8.16699 -35.5 18.5s-17.5 24.5 -17.5 42.5c0 16.667 5.5 31 16.5 43s26.167 18 45.5 18c8 0 16.333 -1.66699 25 -5s16.5 -8.66602 23.5 -15.999s12.833 -16.666 17.5 -27.999s7 -25.333 7 -42
s-2.83301 -33.167 -8.5 -49.5s-13.5 -31.833 -23.5 -46.5s-21.833 -28.167 -35.5 -40.5s-28.167 -22.5 -43.5 -30.5l-27 37c18 11.333 34.333 25.666 49 42.999s23 34.666 25 51.999z" />
    <glyph glyph-name="Ncaron" unicode="&#x147;" horiz-adv-x="672" 
d="M384 706h-79l-120 131h87l74 -81l74 81h86zM76 630l95 -0.000976562l264 -377c12 -17.333 23.333 -34.666 34 -51.999s19.667 -33 27 -47h2c-3.33301 49.333 -5 98.5 -5 147.5v148.5v180h103v-630h-95l-257 365c-12.667 18 -25 37.5 -37 58.5s-22.333 39.833 -31 56.5h-2
c3.33301 -52 5 -103.5 5 -154.5v-153.5v-172h-103v630z" />
    <glyph glyph-name="ncaron" unicode="&#x148;" horiz-adv-x="542" 
d="M167 0l-103 -0.000976562v472h80l14 -63c23.333 22.667 48 40.167 74 52.5s55.333 18.5 88 18.5c50 0 88.667 -13.667 116 -41s41 -66.333 41 -117v-322h-103v309c0 27.333 -7 49 -21 65s-35.333 24 -64 24c-20.667 0 -41.667 -5.16699 -63 -15.5
s-41 -25.166 -59 -44.499v-338zM126 689.999h86l68 -82l67 82h85l-117 -137h-71z" />
    <glyph glyph-name="napostrophe" unicode="&#x149;" horiz-adv-x="558" 
d="M183 0l-103.001 -0.000976562v472h80l14 -63c23.333 22.667 47.833 40.167 73.5 52.5s54.834 18.5 87.501 18.5c50 0 88.833 -13.667 116.5 -41s41.5 -66.333 41.5 -117v-322h-103v309c0 27.333 -7 49 -21 65s-35.333 24 -64 24c-21.333 0 -42.5 -5.16699 -63.5 -15.5
s-40.5 -25.166 -58.5 -44.499v-338zM31.999 622.999c-12 2.66699 -23.833 9.16699 -35.5 19.5s-17.5 24.166 -17.5 41.499c0 16.667 5.5 31.167 16.5 43.5s26.167 18.5 45.5 18.5c8 0 16.333 -1.66699 25 -5s16.5 -8.66602 23.5 -15.999s12.833 -16.833 17.5 -28.5
s7 -25.834 7 -42.501c0 -16 -2.83301 -32.167 -8.5 -48.5s-13.5 -31.833 -23.5 -46.5s-21.833 -28.167 -35.5 -40.5s-28.167 -22.5 -43.5 -30.5l-27 37c18.667 10.667 35.167 24.834 49.5 42.501s22.5 35.167 24.5 52.5z" />
    <glyph glyph-name="Eng" unicode="&#x14a;" horiz-adv-x="672" 
d="M76 630l95 -0.00195312l264 -397c12 -17.333 23.333 -34.666 34 -51.999s19.667 -33 27 -47h2c-3.33301 49.333 -5 98.5 -5 147.5v148.5v200h103v-557c0 -38 -2.5 -73 -7.5 -105s-13.833 -61 -26.5 -87s-30 -49.167 -52 -69.5s-50.333 -38.166 -85 -53.499l-46 74
c33.333 17.333 59.5 38 78.5 62s30.833 56.667 35.5 98l-249 373c-12.667 18 -25 37.5 -37 58.5s-22.333 39.833 -31 56.5h-2c3.33301 -52 5 -103.5 5 -154.5v-153.5v-172h-103v630z" />
    <glyph glyph-name="eng" unicode="&#x14b;" horiz-adv-x="544" 
d="M65 472l81.001 -0.00390625l14 -63c23.333 22.667 47.833 40.167 73.5 52.5s54.834 18.5 87.501 18.5c50 0 88.667 -13.667 116 -41s41 -66.333 41 -117v-254c0 -38 -2.5 -72.667 -7.5 -104s-13.833 -59.833 -26.5 -85.5s-30 -48.667 -52 -69s-50.333 -37.833 -85 -52.5
l-46 75c20 10 37.167 20.333 51.5 31s26.166 23.834 35.499 39.501s16.166 34.834 20.499 57.501s6.5 51.334 6.5 86.001v263c0 27.333 -7 49 -21 65s-35 24 -63 24c-21.333 0 -42.5 -5.16699 -63.5 -15.5s-40.833 -25.166 -59.5 -44.499v-338h-103v472z" />
    <glyph glyph-name="Omacron" unicode="&#x14c;" horiz-adv-x="692" 
d="M348 640c43.333 0 83.333 -6.99707 120 -20.9971s68.334 -34.667 95.001 -62s47.5 -61.333 62.5 -102s22.5 -87.334 22.5 -140.001c0 -52 -7.66699 -98.167 -23 -138.5s-36.666 -74.333 -63.999 -102s-59.5 -48.667 -96.5 -63s-77.167 -21.5 -120.5 -21.5
s-83.333 7 -120 21s-68.334 34.667 -95.001 62s-47.5 61.166 -62.5 101.499s-22.5 87.166 -22.5 140.499c0 52 7.66699 98.167 23 138.5s36.666 74.333 63.999 102s59.5 48.667 96.5 63s77.167 21.5 120.5 21.5zM159 315.003c0 -40.667 5 -76.167 15 -106.5
s23.5 -55.5 40.5 -75.5s37 -34.833 60 -44.5s47.5 -14.5 73.5 -14.5s50.333 4.83301 73 14.5s42.167 24.5 58.5 44.5s29.333 45.167 39 75.5s14.5 65.833 14.5 106.5c0 42 -5 78.167 -15 108.5s-23.5 55.333 -40.5 75s-37 34.167 -60 43.5s-47.5 14 -73.5 14
s-50.333 -4.83301 -73 -14.5s-42.167 -24.5 -58.5 -44.5s-29.333 -45.167 -39 -75.5s-14.5 -65.833 -14.5 -106.5zM475 772.003v-67h-248v67h248z" />
    <glyph glyph-name="omacron" unicode="&#x14d;" horiz-adv-x="548" 
d="M509 241c0 -39.333 -6.16699 -74.6689 -18.5 -106.002s-29.166 -57.666 -50.499 -78.999s-46.333 -37.666 -75 -48.999s-59.667 -17 -93 -17s-64.166 5.33301 -92.499 16s-53 26.167 -74 46.5s-37.333 45.5 -49 75.5s-17.5 64.333 -17.5 103
c0 40 6.16699 75.333 18.5 106s29.166 56.667 50.499 78s46.333 37.5 75 48.5s59.667 16.5 93 16.5s64.166 -5.16699 92.499 -15.5s53 -25.5 74 -45.5s37.333 -45 49 -75s17.5 -64.333 17.5 -103zM402 235.997c0 30 -3.66699 55.499 -11 76.499s-17 38.167 -29 51.5
s-25.833 23 -41.5 29s-31.5 9 -47.5 9s-31.667 -2.66699 -47 -8s-29 -14.333 -41 -27s-21.5 -29.667 -28.5 -51s-10.5 -48 -10.5 -80c0 -29.333 3.66699 -54.666 11 -75.999s17 -38.833 29 -52.5s25.667 -23.667 41 -30s31.333 -9.5 48 -9.5c16 0 31.667 2.66699 47 8
s29 14.5 41 27.5s21.5 30.333 28.5 52s10.5 48.5 10.5 80.5zM400 653.996v-67h-250v67h250z" />
    <glyph glyph-name="Obreve" unicode="&#x14e;" horiz-adv-x="692" 
d="M348 640c43.333 0 83.333 -6.99707 120 -20.9971s68.334 -34.667 95.001 -62s47.5 -61.333 62.5 -102s22.5 -87.334 22.5 -140.001c0 -52 -7.66699 -98.167 -23 -138.5s-36.666 -74.333 -63.999 -102s-59.5 -48.667 -96.5 -63s-77.167 -21.5 -120.5 -21.5
s-83.333 7 -120 21s-68.334 34.667 -95.001 62s-47.5 61.166 -62.5 101.499s-22.5 87.166 -22.5 140.499c0 52 7.66699 98.167 23 138.5s36.666 74.333 63.999 102s59.5 48.667 96.5 63s77.167 21.5 120.5 21.5zM159 315.003c0 -40.667 5 -76.167 15 -106.5
s23.5 -55.5 40.5 -75.5s37 -34.833 60 -44.5s47.5 -14.5 73.5 -14.5s50.333 4.83301 73 14.5s42.167 24.5 58.5 44.5s29.333 45.167 39 75.5s14.5 65.833 14.5 106.5c0 42 -5 78.167 -15 108.5s-23.5 55.333 -40.5 75s-37 34.167 -60 43.5s-47.5 14 -73.5 14
s-50.333 -4.83301 -73 -14.5s-42.167 -24.5 -58.5 -44.5s-29.333 -45.167 -39 -75.5s-14.5 -65.833 -14.5 -106.5zM278 829.003c2 -20 7.33301 -35.833 16 -47.5s25.667 -17.5 51 -17.5c40.667 0 63 21.667 67 65h67c0 -37.333 -11.5 -67.5 -34.5 -90.5
s-56.167 -34.5 -99.5 -34.5c-24 0 -44.5 3.5 -61.5 10.5s-31 16.333 -42 28s-19 25 -24 40s-7.5 30.5 -7.5 46.5h68z" />
    <glyph glyph-name="obreve" unicode="&#x14f;" horiz-adv-x="548" 
d="M509 241c0 -39.333 -6.16699 -74.6689 -18.5 -106.002s-29.166 -57.666 -50.499 -78.999s-46.333 -37.666 -75 -48.999s-59.667 -17 -93 -17s-64.166 5.33301 -92.499 16s-53 26.167 -74 46.5s-37.333 45.5 -49 75.5s-17.5 64.333 -17.5 103
c0 40 6.16699 75.333 18.5 106s29.166 56.667 50.499 78s46.333 37.5 75 48.5s59.667 16.5 93 16.5s64.166 -5.16699 92.499 -15.5s53 -25.5 74 -45.5s37.333 -45 49 -75s17.5 -64.333 17.5 -103zM402 235.997c0 30 -3.66699 55.499 -11 76.499s-17 38.167 -29 51.5
s-25.833 23 -41.5 29s-31.5 9 -47.5 9s-31.667 -2.66699 -47 -8s-29 -14.333 -41 -27s-21.5 -29.667 -28.5 -51s-10.5 -48 -10.5 -80c0 -29.333 3.66699 -54.666 11 -75.999s17 -38.833 29 -52.5s25.667 -23.667 41 -30s31.333 -9.5 48 -9.5c16 0 31.667 2.66699 47 8
s29 14.5 41 27.5s21.5 30.333 28.5 52s10.5 48.5 10.5 80.5zM210 681.996c2 -20.667 7.33301 -37 16 -49s25.667 -18 51 -18c21.333 0 37.333 5.83301 48 17.5s17 28.167 19 49.5h67c0 -37.333 -11.5 -67.833 -34.5 -91.5s-56.167 -35.5 -99.5 -35.5
c-24 0 -44.5 3.66699 -61.5 11s-31 16.833 -42 28.5s-19 25.167 -24 40.5s-7.5 31 -7.5 47h68z" />
    <glyph glyph-name="Ohungarumlaut" unicode="&#x150;" horiz-adv-x="692" 
d="M348 640c43.333 0 83.333 -6.99707 120 -20.9971s68.334 -34.667 95.001 -62s47.5 -61.333 62.5 -102s22.5 -87.334 22.5 -140.001c0 -52 -7.66699 -98.167 -23 -138.5s-36.666 -74.333 -63.999 -102s-59.5 -48.667 -96.5 -63s-77.167 -21.5 -120.5 -21.5
s-83.333 7 -120 21s-68.334 34.667 -95.001 62s-47.5 61.166 -62.5 101.499s-22.5 87.166 -22.5 140.499c0 52 7.66699 98.167 23 138.5s36.666 74.333 63.999 102s59.5 48.667 96.5 63s77.167 21.5 120.5 21.5zM159 315.003c0 -40.667 5 -76.167 15 -106.5
s23.5 -55.5 40.5 -75.5s37 -34.833 60 -44.5s47.5 -14.5 73.5 -14.5s50.333 4.83301 73 14.5s42.167 24.5 58.5 44.5s29.333 45.167 39 75.5s14.5 65.833 14.5 106.5c0 42 -5 78.167 -15 108.5s-23.5 55.333 -40.5 75s-37 34.167 -60 43.5s-47.5 14 -73.5 14
s-50.333 -4.83301 -73 -14.5s-42.167 -24.5 -58.5 -44.5s-29.333 -45.167 -39 -75.5s-14.5 -65.833 -14.5 -106.5zM267 705.003h-82l80 125h109zM461 705.003h-82l80 125h109z" />
    <glyph glyph-name="ohungarumlaut" unicode="&#x151;" horiz-adv-x="548" 
d="M509 241c0 -39.333 -6.16699 -74.6689 -18.5 -106.002s-29.166 -57.666 -50.499 -78.999s-46.333 -37.666 -75 -48.999s-59.667 -17 -93 -17s-64.166 5.33301 -92.499 16s-53 26.167 -74 46.5s-37.333 45.5 -49 75.5s-17.5 64.333 -17.5 103
c0 40 6.16699 75.333 18.5 106s29.166 56.667 50.499 78s46.333 37.5 75 48.5s59.667 16.5 93 16.5s64.166 -5.16699 92.499 -15.5s53 -25.5 74 -45.5s37.333 -45 49 -75s17.5 -64.333 17.5 -103zM402 235.997c0 30 -3.66699 55.499 -11 76.499s-17 38.167 -29 51.5
s-25.833 23 -41.5 29s-31.5 9 -47.5 9s-31.667 -2.66699 -47 -8s-29 -14.333 -41 -27s-21.5 -29.667 -28.5 -51s-10.5 -48 -10.5 -80c0 -29.333 3.66699 -54.666 11 -75.999s17 -38.833 29 -52.5s25.667 -23.667 41 -30s31.333 -9.5 48 -9.5c16 0 31.667 2.66699 47 8
s29 14.5 41 27.5s21.5 30.333 28.5 52s10.5 48.5 10.5 80.5zM207 552.996h-77l74 139h110zM378 552.996h-77l74 139h110z" />
    <glyph glyph-name="OE" unicode="&#x152;" horiz-adv-x="853" 
d="M340 -10c-42.667 0 -82 6.66895 -118 20.002s-67.167 33.5 -93.5 60.5s-47 60.833 -62 101.5s-22.5 88.667 -22.5 144c0 52 7.5 98.167 22.5 138.5s35.833 74.166 62.5 101.499s58.167 48.166 94.5 62.499s75.5 21.5 117.5 21.5c15.333 0 31.5 -0.833008 48.5 -2.5
s32.167 -4.16699 45.5 -7.5h374v-86h-276v-174h250v-85h-250v-199h279v-86h-381c-14.667 -3.33301 -30 -5.83301 -46 -7.5s-31 -2.5 -45 -2.5zM344 556.002c-56 0 -100.834 -19.333 -134.501 -58s-50.5 -98.667 -50.5 -180s16.833 -142.333 50.5 -183s78.5 -61 134.5 -61
c14 0 28.333 1.66699 43 5s27.667 8 39 14v447c-25.333 10.667 -52.666 16 -81.999 16z" />
    <glyph glyph-name="oe" unicode="&#x153;" horiz-adv-x="847" 
d="M816 218l-324.002 0.000976562v-4c0 -48 13.333 -84.333 40 -109s63.334 -37 110.001 -37c25.333 0 47.5 2.16699 66.5 6.5s38.833 11.166 59.5 20.499l20 -75c-19.333 -8.66699 -41.666 -15.834 -66.999 -21.501s-54 -8.5 -86 -8.5c-42 0 -79.833 7.5 -113.5 22.5
s-60.167 37.5 -79.5 67.5c-38 -60 -96.333 -90 -175 -90c-33.333 0 -64 5.33301 -92 16s-52 26.167 -72 46.5s-35.667 45.5 -47 75.5s-17 64.333 -17 103c0 40 5.83301 75.333 17.5 106s27.834 56.667 48.501 78s45.167 37.5 73.5 48.5s59.166 16.5 92.499 16.5
c76 0 134 -29 174 -87c37.333 58 94.666 87 171.999 87c30.667 0 58.334 -5 83.001 -15s45.5 -24.167 62.5 -42.5s30.167 -40.666 39.5 -66.999s14 -55.5 14 -87.5v-50zM392.998 236.001c0 30 -3.50098 55.499 -10.501 76.499s-16.167 38.167 -27.5 51.5s-24.5 23 -39.5 29
s-30.833 9 -47.5 9c-16 0 -31.5 -2.66699 -46.5 -8s-28 -14.333 -39 -27s-19.833 -29.667 -26.5 -51s-10 -48 -10 -80c0 -29.333 3.33301 -54.666 10 -75.999s15.834 -38.833 27.501 -52.5s25 -23.667 40 -30s30.5 -9.5 46.5 -9.5s31.5 2.66699 46.5 8
s28.167 14.5 39.5 27.5s20.333 30.333 27 52s10 48.5 10 80.5zM709.997 290c0 16 -1.66797 31.001 -5.00098 45.001s-9 26.167 -17 36.5s-18.167 18.666 -30.5 24.999s-27.5 9.5 -45.5 9.5c-34 0 -60.667 -10.667 -80 -32s-31.666 -50 -36.999 -86z" />
    <glyph glyph-name="Racute" unicode="&#x154;" horiz-adv-x="548" 
d="M76 630l217 -0.00292969c33.333 0 62.833 -4.83301 88.5 -14.5s47.167 -23 64.5 -40s30.333 -37.167 39 -60.5s13 -48.666 13 -75.999c0 -24.667 -3.83301 -46.667 -11.5 -66s-17.5 -36.166 -29.5 -50.499s-25.5 -26.666 -40.5 -36.999s-30.167 -18.5 -45.5 -24.5
l162 -261h-121l-139 242h-93v-242h-104v630zM180 326.997h67.999c20 0 38.333 2 55 6s31.334 10.333 44.001 19s22.5 19.834 29.5 33.501s10.5 30.167 10.5 49.5c0 37.333 -10.667 65.166 -32 83.499s-52 27.5 -92 27.5h-83v-219zM272.999 704.997h-84l80 124h116z" />
    <glyph glyph-name="racute" unicode="&#x155;" horiz-adv-x="378" 
d="M64 0l0.000976562 472.001h78l15 -91c11.333 28 29.666 51.5 54.999 70.5s56 28.5 92 28.5c16 0 29.833 -1.33301 41.5 -4s22.167 -6.33398 31.5 -11.001l-19 -86c-8 4 -17.167 7.33301 -27.5 10s-22.166 4 -35.499 4c-36.667 0 -67.334 -12.5 -92.001 -37.5
s-37 -62.833 -37 -113.5v-242h-102zM160.001 553.001h-79l70 139h113z" />
    <glyph glyph-name="Rcommaaccent" unicode="&#x156;" horiz-adv-x="548" 
d="M76 630l217 -0.00292969c33.333 0 62.833 -4.83301 88.5 -14.5s47.167 -23 64.5 -40s30.333 -37.167 39 -60.5s13 -48.666 13 -75.999c0 -24.667 -3.83301 -46.667 -11.5 -66s-17.5 -36.166 -29.5 -50.499s-25.5 -26.666 -40.5 -36.999s-30.167 -18.5 -45.5 -24.5
l162 -261h-121l-139 242h-93v-242h-104v630zM180 326.997h67.999c20 0 38.333 2 55 6s31.334 10.333 44.001 19s22.5 19.834 29.5 33.501s10.5 30.167 10.5 49.5c0 37.333 -10.667 65.166 -32 83.499s-52 27.5 -92 27.5h-83v-219zM276.999 -187.003
c-12 2 -23.833 8.16699 -35.5 18.5s-17.5 24.5 -17.5 42.5c0 16.667 5.5 31 16.5 43s26.167 18 45.5 18c8 0 16.333 -1.66699 25 -5s16.5 -8.66602 23.5 -15.999s12.833 -16.666 17.5 -27.999s7 -25.333 7 -42s-2.83301 -33.167 -8.5 -49.5s-13.5 -31.833 -23.5 -46.5
s-21.833 -28.167 -35.5 -40.5s-28.167 -22.5 -43.5 -30.5l-27 37c18 11.333 34.333 25.666 49 42.999s23 34.666 25 51.999z" />
    <glyph glyph-name="rcommaaccent" unicode="&#x157;" horiz-adv-x="378" 
d="M64 0l0.000976562 472.001h78l15 -91c11.333 28 29.666 51.5 54.999 70.5s56 28.5 92 28.5c16 0 29.833 -1.33301 41.5 -4s22.167 -6.33398 31.5 -11.001l-19 -86c-8 4 -17.167 7.33301 -27.5 10s-22.166 4 -35.499 4c-36.667 0 -67.334 -12.5 -92.001 -37.5
s-37 -62.833 -37 -113.5v-242h-102zM105.001 -186.999c-12 2 -23.833 8.16699 -35.5 18.5s-17.5 24.5 -17.5 42.5c0 16.667 5.5 31 16.5 43s26.167 18 45.5 18c8 0 16.333 -1.66699 25 -5s16.5 -8.66602 23.5 -15.999s12.833 -16.666 17.5 -27.999s7 -25.333 7 -42
s-2.83301 -33.167 -8.5 -49.5s-13.5 -31.833 -23.5 -46.5s-21.833 -28.167 -35.5 -40.5s-28.167 -22.5 -43.5 -30.5l-27 37c18 11.333 34.333 25.666 49 42.999s23 34.666 25 51.999z" />
    <glyph glyph-name="Rcaron" unicode="&#x158;" horiz-adv-x="548" 
d="M76 630l217 -0.00292969c33.333 0 62.833 -4.83301 88.5 -14.5s47.167 -23 64.5 -40s30.333 -37.167 39 -60.5s13 -48.666 13 -75.999c0 -24.667 -3.83301 -46.667 -11.5 -66s-17.5 -36.166 -29.5 -50.499s-25.5 -26.666 -40.5 -36.999s-30.167 -18.5 -45.5 -24.5
l162 -261h-121l-139 242h-93v-242h-104v630zM180 326.997h67.999c20 0 38.333 2 55 6s31.334 10.333 44.001 19s22.5 19.834 29.5 33.501s10.5 30.167 10.5 49.5c0 37.333 -10.667 65.166 -32 83.499s-52 27.5 -92 27.5h-83v-219zM296.999 705.997h-79l-120 131h87l74 -81
l74 81h86z" />
    <glyph glyph-name="rcaron" unicode="&#x159;" horiz-adv-x="378" 
d="M64 472l78.001 0.000976562l15 -91c11.333 28 29.666 51.5 54.999 70.5s56 28.5 92 28.5c16 0 29.833 -1.33301 41.5 -4s22.167 -6.33398 31.5 -11.001l-19 -86c-8 4 -17.167 7.33301 -27.5 10s-22.166 4 -35.499 4c-36.667 0 -67.334 -12.5 -92.001 -37.5
s-37 -62.833 -37 -113.5v-242h-102v472zM205.001 608.001l67 82h85l-117 -137h-71l-118 137h86z" />
    <glyph glyph-name="Sacute" unicode="&#x15a;" horiz-adv-x="515" 
d="M262 640c68.667 0 128.669 -12.666 180.002 -37.999l-25 -85c-28 13.333 -53.833 23.166 -77.5 29.499s-47.5 9.5 -71.5 9.5c-36 0 -64.333 -7.66699 -85 -23s-31 -36.666 -31 -63.999c0 -24 8 -43 24 -57s42 -26.667 78 -38l62 -20
c54.667 -17.333 94.667 -41.5 120 -72.5s38 -66.833 38 -107.5c0 -27.333 -5.33301 -52.333 -16 -75s-25.834 -42 -45.501 -58s-43.5 -28.5 -71.5 -37.5s-59 -13.5 -93 -13.5s-67.833 3.16699 -101.5 9.5s-66.5 17.166 -98.5 32.499l25 84c28.667 -14 56.667 -24.5 84 -31.5
s56 -10.5 86 -10.5c36 0 65.333 7.66699 88 23s34 38 34 68c0 21.333 -7.83301 40.333 -23.5 57s-46.167 32.334 -91.5 47.001l-59 19c-46 15.333 -82.167 35.833 -108.5 61.5s-39.5 61.5 -39.5 107.5c0 55.333 18.667 99.666 56 132.999s91.666 50 162.999 50z
M255.002 705.001h-84l80 124h117z" />
    <glyph glyph-name="sacute" unicode="&#x15b;" horiz-adv-x="416" 
d="M337 376c-21.333 10 -41.167 17.166 -59.5 21.499s-36.5 6.5 -54.5 6.5c-28 0 -49.167 -5.16699 -63.5 -15.5s-21.5 -24.166 -21.5 -41.499c0 -13.333 5.33301 -24.833 16 -34.5s32.667 -19.167 66 -28.5l30 -9c43.333 -13.333 76.166 -30.666 98.499 -51.999
s33.5 -50 33.5 -86c0 -44 -16.667 -79.5 -50 -106.5s-79 -40.5 -137 -40.5c-31.333 0 -60.5 2.83301 -87.5 8.5s-51.167 13.5 -72.5 23.5l24 78c19.333 -9.33301 40 -17 62 -23s44.667 -9 68 -9c28.667 0 51 5 67 15s24 25.333 24 46c0 19.333 -7.16699 33.166 -21.5 41.499
s-36.5 17.166 -66.5 26.499l-31 9c-42 14 -73.167 31.667 -93.5 53s-30.5 49.333 -30.5 84c0 20.667 4.33301 39.334 13 56.001s20.667 31 36 43s33.833 21.333 55.5 28s45.5 10 71.5 10c24.667 0 49.834 -2.33301 75.501 -7s49.5 -12 71.5 -22zM211.999 552.999h-79l70 139
h113z" />
    <glyph glyph-name="Scircumflex" unicode="&#x15c;" horiz-adv-x="515" 
d="M262 640c68.667 0 128.669 -12.666 180.002 -37.999l-25 -85c-28 13.333 -53.833 23.166 -77.5 29.499s-47.5 9.5 -71.5 9.5c-36 0 -64.333 -7.66699 -85 -23s-31 -36.666 -31 -63.999c0 -24 8 -43 24 -57s42 -26.667 78 -38l62 -20
c54.667 -17.333 94.667 -41.5 120 -72.5s38 -66.833 38 -107.5c0 -27.333 -5.33301 -52.333 -16 -75s-25.834 -42 -45.501 -58s-43.5 -28.5 -71.5 -37.5s-59 -13.5 -93 -13.5s-67.833 3.16699 -101.5 9.5s-66.5 17.166 -98.5 32.499l25 84c28.667 -14 56.667 -24.5 84 -31.5
s56 -10.5 86 -10.5c36 0 65.333 7.66699 88 23s34 38 34 68c0 21.333 -7.83301 40.333 -23.5 57s-46.167 32.334 -91.5 47.001l-59 19c-46 15.333 -82.167 35.833 -108.5 61.5s-39.5 61.5 -39.5 107.5c0 55.333 18.667 99.666 56 132.999s91.666 50 162.999 50z
M217.002 836.001h79l122 -131h-87l-75 79l-75 -79h-84z" />
    <glyph glyph-name="scircumflex" unicode="&#x15d;" horiz-adv-x="416" 
d="M337 376c-21.333 10 -41.167 17.166 -59.5 21.499s-36.5 6.5 -54.5 6.5c-28 0 -49.167 -5.16699 -63.5 -15.5s-21.5 -24.166 -21.5 -41.499c0 -13.333 5.33301 -24.833 16 -34.5s32.667 -19.167 66 -28.5l30 -9c43.333 -13.333 76.166 -30.666 98.499 -51.999
s33.5 -50 33.5 -86c0 -44 -16.667 -79.5 -50 -106.5s-79 -40.5 -137 -40.5c-31.333 0 -60.5 2.83301 -87.5 8.5s-51.167 13.5 -72.5 23.5l24 78c19.333 -9.33301 40 -17 62 -23s44.667 -9 68 -9c28.667 0 51 5 67 15s24 25.333 24 46c0 19.333 -7.16699 33.166 -21.5 41.499
s-36.5 17.166 -66.5 26.499l-31 9c-42 14 -73.167 31.667 -93.5 53s-30.5 49.333 -30.5 84c0 20.667 4.33301 39.334 13 56.001s20.667 31 36 43s33.833 21.333 55.5 28s45.5 10 71.5 10c24.667 0 49.834 -2.33301 75.501 -7s49.5 -12 71.5 -22zM362.999 552.999h-84l-67 82
l-68 -82h-87l118 137h72z" />
    <glyph glyph-name="Scedilla" unicode="&#x15e;" horiz-adv-x="515" 
d="M262 640c68.667 0 128.669 -12.6641 180.002 -37.9971l-25 -85c-28 13.333 -53.833 23.166 -77.5 29.499s-47.5 9.5 -71.5 9.5c-36 0 -64.333 -7.66699 -85 -23s-31 -36.666 -31 -63.999c0 -24 8 -43 24 -57s42 -26.667 78 -38l62 -20
c54.667 -17.333 94.667 -41.5 120 -72.5s38 -66.833 38 -107.5c0 -25.333 -4.5 -48.5 -13.5 -69.5s-22 -39.333 -39 -55s-37.333 -28.5 -61 -38.5s-50.5 -16.333 -80.5 -19l-17 -39c33.333 -1.33301 57.166 -10 71.499 -26s21.5 -33.667 21.5 -53
c0 -28.667 -11.5 -50.5 -34.5 -65.5s-51.833 -22.5 -86.5 -22.5c-15.333 0 -29.833 1.16699 -43.5 3.5s-24.5 5.16602 -32.5 8.49902l13 47c16.667 -6 34.667 -9 54 -9c40.667 0 61 13 61 39c0 6 -1.16699 11.833 -3.5 17.5s-7 10.667 -14 15s-16.5 7.83301 -28.5 10.5
s-28 4 -48 4l31 69c-30 1.33301 -59.833 5.16602 -89.5 11.499s-58.5 16.166 -86.5 29.499l25 84c28.667 -14 56.667 -24.5 84 -31.5s56 -10.5 86 -10.5c36 0 65.333 7.66699 88 23s34 38 34 68c0 21.333 -7.83301 40.333 -23.5 57s-46.167 32.334 -91.5 47.001l-59 19
c-46 15.333 -82.167 35.833 -108.5 61.5s-39.5 61.5 -39.5 107.5c0 55.333 18.667 99.666 56 132.999s91.666 50 162.999 50z" />
    <glyph glyph-name="scedilla" unicode="&#x15f;" horiz-adv-x="416" 
d="M337 376c-21.333 10 -41.166 17.168 -59.499 21.501s-36.5 6.5 -54.5 6.5c-28 0 -49.167 -5.16699 -63.5 -15.5s-21.5 -24.166 -21.5 -41.499c0 -13.333 5.33301 -24.833 16 -34.5s32.667 -19.167 66 -28.5l30 -9c43.333 -13.333 76.166 -30.666 98.499 -51.999
s33.5 -50 33.5 -86c0 -40 -13.667 -72.833 -41 -98.5s-65 -40.834 -113 -45.501l-20 -40c28 -2 49.167 -9.33301 63.5 -22s21.5 -28.667 21.5 -48c0 -14 -3 -26.167 -9 -36.5s-14.167 -19 -24.5 -26s-22.333 -12.167 -36 -15.5s-28.167 -5 -43.5 -5s-30 1.33301 -44 4
s-25.333 5.66699 -34 9l14 46c8.66699 -3.33301 17.667 -5.66602 27 -6.99902s18.666 -2 27.999 -2c16.667 0 29.667 2.66699 39 8s14 13.666 14 24.999c0 13.333 -6.33301 23.166 -19 29.499s-35 9.5 -67 9.5l33 69c-26.667 1.33301 -51.5 4.5 -74.5 9.5
s-43.5 12.167 -61.5 21.5l24 78c19.333 -9.33301 40 -17 62 -23s44.667 -9 68 -9c28.667 0 51 5 67 15s24 25.333 24 46c0 19.333 -7.16699 33.166 -21.5 41.499s-36.5 17.166 -66.5 26.499l-31 9c-42 14 -73.167 31.667 -93.5 53s-30.5 49.333 -30.5 84
c0 20.667 4.33301 39.334 13 56.001s20.667 31 36 43s33.833 21.333 55.5 28s45.5 10 71.5 10c24.667 0 49.834 -2.33301 75.501 -7s49.5 -12 71.5 -22z" />
    <glyph glyph-name="Scaron" unicode="&#x160;" horiz-adv-x="515" 
d="M262 640c68.667 0 128.669 -12.6631 180.002 -37.9961l-25 -85c-28 13.333 -53.833 23.166 -77.5 29.499s-47.5 9.5 -71.5 9.5c-36 0 -64.333 -7.66699 -85 -23s-31 -36.666 -31 -63.999c0 -24 8 -43 24 -57s42 -26.667 78 -38l62 -20
c54.667 -17.333 94.667 -41.5 120 -72.5s38 -66.833 38 -107.5c0 -27.333 -5.33301 -52.333 -16 -75s-25.834 -42 -45.501 -58s-43.5 -28.5 -71.5 -37.5s-59 -13.5 -93 -13.5s-67.833 3.16699 -101.5 9.5s-66.5 17.166 -98.5 32.499l25 84c28.667 -14 56.667 -24.5 84 -31.5
s56 -10.5 86 -10.5c36 0 65.333 7.66699 88 23s34 38 34 68c0 21.333 -7.83301 40.166 -23.5 56.499s-46.167 32.166 -91.5 47.499l-59 19c-46 15.333 -82.167 35.833 -108.5 61.5s-39.5 61.5 -39.5 107.5c0 55.333 18.667 99.666 56 132.999s91.666 50 162.999 50z
M103.002 837.004h87l74 -81l74 81h86l-122 -131h-79z" />
    <glyph glyph-name="scaron" unicode="&#x161;" horiz-adv-x="416" 
d="M337 376c-21.333 10 -41.167 17.166 -59.5 21.499s-36.5 6.5 -54.5 6.5c-28 0 -49.167 -5.16699 -63.5 -15.5s-21.5 -24.166 -21.5 -41.499c0 -13.333 5.33301 -24.833 16 -34.5s32.667 -19.167 66 -28.5l30 -9c43.333 -13.333 76.166 -30.666 98.499 -51.999
s33.5 -50 33.5 -86c0 -44 -16.667 -79.5 -50 -106.5s-79 -40.5 -137 -40.5c-31.333 0 -60.5 2.83301 -87.5 8.5s-51.167 13.5 -72.5 23.5l24 78c19.333 -9.33301 40 -17 62 -23s44.667 -9 68 -9c28.667 0 51 5 67 15s24 25.333 24 46c0 19.333 -7.16699 33.166 -21.5 41.499
s-36.5 17.166 -66.5 26.499l-31 9c-42 14 -73.167 31.667 -93.5 53s-30.5 49.333 -30.5 84c0 20.667 4.33301 39.334 13 56.001s20.667 31 36 43s33.833 21.333 55.5 28s45.5 10 71.5 10c24.667 0 49.834 -2.33301 75.501 -7s49.5 -12 71.5 -22zM57.999 689.999h84l67 -82
l68 82h87l-118 -137h-72z" />
    <glyph glyph-name="Tcommaaccent" unicode="&#x162;" horiz-adv-x="503" 
d="M494 630v-88h-190v-542h-107v542h-187v88h484zM236 -187c-12 2 -23.834 8.16699 -35.501 18.5s-17.5 24.5 -17.5 42.5c0 16.667 5.5 31 16.5 43s26.167 18 45.5 18c8 0 16.333 -1.66699 25 -5s16.5 -8.66602 23.5 -15.999s12.833 -16.666 17.5 -27.999s7 -25.333 7 -42
s-2.83301 -33.167 -8.5 -49.5s-13.5 -31.833 -23.5 -46.5s-21.667 -28.167 -35 -40.5s-27.666 -22.5 -42.999 -30.5l-27 37c18 11.333 34.167 25.666 48.5 42.999s22.5 34.666 24.5 51.999z" />
    <glyph glyph-name="tcommaaccent" unicode="&#x163;" horiz-adv-x="370" 
d="M325 396l-134 -0.000976562v-255c0 -23.333 5.5 -39 16.5 -47s25.833 -12 44.5 -12c13.333 0 27.5 1.5 42.5 4.5s28.167 6.5 39.5 10.5l16 -76c-13.333 -5.33301 -30.5 -10.166 -51.5 -14.499s-43.167 -6.5 -66.5 -6.5c-50.667 0 -87.167 10.5 -109.5 31.5
s-33.5 52.167 -33.5 93.5v271h-72v76h72v149h102v-149h134v-76zM193 -187.001c-12 2 -23.833 8.16699 -35.5 18.5s-17.5 24.5 -17.5 42.5c0 16.667 5.5 31 16.5 43s26.167 18 45.5 18c8 0 16.333 -1.66699 25 -5s16.5 -8.66602 23.5 -15.999s12.833 -16.666 17.5 -27.999
s7 -25.333 7 -42s-2.83301 -33.167 -8.5 -49.5s-13.5 -31.833 -23.5 -46.5s-21.833 -28.167 -35.5 -40.5s-28.167 -22.5 -43.5 -30.5l-27 37c18.667 11.333 35.167 25.666 49.5 42.999s22.5 34.666 24.5 51.999z" />
    <glyph glyph-name="Tcaron" unicode="&#x164;" horiz-adv-x="503" 
d="M494 630v-88h-190v-542h-107v542h-187v88h484zM292 706h-79l-120 131h84l75 -79l75 79h87z" />
    <glyph glyph-name="tcaron" unicode="&#x165;" horiz-adv-x="468" 
d="M325 396l-134 -0.000976562v-255c0 -23.333 5.5 -39 16.5 -47s25.833 -12 44.5 -12c13.333 0 27.5 1.5 42.5 4.5s28.167 6.5 39.5 10.5l16 -76c-13.333 -5.33301 -30.5 -10.166 -51.5 -14.499s-43.167 -6.5 -66.5 -6.5c-50.667 0 -87.167 10.5 -109.5 31.5
s-33.5 52.167 -33.5 93.5v271h-72v76h72v149h102v-149h134v-76zM414 616.999c-12 2.66699 -23.833 9.16895 -35.5 19.502s-17.5 24.166 -17.5 41.499c0 16.667 5.5 31.167 16.5 43.5s26.167 18.5 45.5 18.5c8 0 16.333 -1.66699 25 -5s16.5 -8.66602 23.5 -15.999
s12.833 -16.833 17.5 -28.5s7 -25.834 7 -42.501c0 -16 -2.83301 -32.167 -8.5 -48.5s-13.5 -31.833 -23.5 -46.5s-21.833 -28.167 -35.5 -40.5s-28.167 -22.5 -43.5 -30.5l-27 37c18 10.667 34.333 24.667 49 42s23 34.666 25 51.999z" />
    <glyph glyph-name="Tbar" unicode="&#x166;" horiz-adv-x="503" 
d="M494 630v-88h-190v-182h98v-72h-98v-288h-107v288h-99v72h99v182h-187v88h484z" />
    <glyph glyph-name="tbar" unicode="&#x167;" horiz-adv-x="370" 
d="M325 396l-134 -0.000976562v-95h120v-67h-120v-93c0 -23.333 5.5 -39 16.5 -47s25.833 -12 44.5 -12c13.333 0 27.5 1.5 42.5 4.5s28.167 6.5 39.5 10.5l16 -76c-13.333 -5.33301 -30.5 -10.166 -51.5 -14.499s-43.167 -6.5 -66.5 -6.5
c-50.667 0 -87.167 10.5 -109.5 31.5s-33.5 52.167 -33.5 93.5v109h-70v67h70v95h-72v76h72v149h102v-149h134v-76z" />
    <glyph glyph-name="Utilde" unicode="&#x168;" horiz-adv-x="647" 
d="M70 630l107.002 -0.000976562v-377c0 -62.667 11.667 -108 35 -136s60.666 -42 111.999 -42c50.667 0 87.5 15.167 110.5 45.5s34.5 70.5 34.5 120.5v389h107v-384c0 -87.333 -21.833 -151.833 -65.5 -193.5s-105.834 -62.5 -186.501 -62.5
c-79.333 0 -141.5 20.833 -186.5 62.5s-67.5 107.834 -67.5 198.501v379zM169.002 704.999c0 31.333 7.16699 57.998 21.5 79.998s36.5 33 66.5 33c13.333 0 25.333 -2.16699 36 -6.5s20.834 -9.16602 30.501 -14.499s19 -10.166 28 -14.499s18.5 -6.5 28.5 -6.5
c12.667 0 21.667 4.66699 27 14s8.66602 19.666 9.99902 30.999h55c0 -15.333 -1.83301 -29.666 -5.5 -42.999s-9 -25.333 -16 -36s-15.667 -19 -26 -25s-22.5 -9 -36.5 -9s-27 2.16699 -39 6.5s-23.167 9 -33.5 14l-29 14c-9 4.33301 -17.5 6.5 -25.5 6.5
c-13.333 0 -22.5 -4.33301 -27.5 -13s-8.16699 -19 -9.5 -31h-55z" />
    <glyph glyph-name="utilde" unicode="&#x169;" horiz-adv-x="546" 
d="M378 472l103 0.000976562v-472h-79l-13 57h-4c-16.667 -17.333 -37.667 -32.833 -63 -46.5s-56 -20.5 -92 -20.5c-50 0 -90 14 -120 42s-45 70 -45 126v314h103v-303c0 -36.667 8.5 -62.334 25.5 -77.001s37.5 -22 61.5 -22c26 0 49 5.5 69 16.5s38 25.5 54 43.5v342z
M114 553.001c0 34 7.33008 62.001 21.9971 84.001s37 33 67 33c14 0 26.5 -2.33301 37.5 -7s21.5 -9.66699 31.5 -15l29 -15c9.33301 -4.66699 19 -7 29 -7c13.333 0 22.5 5.16699 27.5 15.5s8.16699 21.166 9.5 32.499h55c0 -32 -7.16699 -59.333 -21.5 -82
s-35.833 -34 -64.5 -34c-14.667 0 -28.167 2.16699 -40.5 6.5s-23.666 9.33301 -33.999 15s-20 10.667 -29 15s-17.5 6.5 -25.5 6.5c-13.333 0 -22.666 -4.5 -27.999 -13.5s-8.66602 -20.5 -9.99902 -34.5h-55z" />
    <glyph glyph-name="Umacron" unicode="&#x16a;" horiz-adv-x="647" 
d="M70 630l107.002 -0.000976562v-377c0 -62.667 11.667 -108 35 -136s60.666 -42 111.999 -42c50.667 0 87.5 15.167 110.5 45.5s34.5 70.5 34.5 120.5v389h107v-384c0 -87.333 -21.833 -151.833 -65.5 -193.5s-105.834 -62.5 -186.501 -62.5
c-79.333 0 -141.5 20.833 -186.5 62.5s-67.5 107.834 -67.5 198.501v379zM448.002 771.999v-67h-249v67h249z" />
    <glyph glyph-name="umacron" unicode="&#x16b;" horiz-adv-x="546" 
d="M378 472l103 0.000976562v-472h-79l-13 57h-4c-16.667 -17.333 -37.667 -32.833 -63 -46.5s-56 -20.5 -92 -20.5c-50 0 -90 14 -120 42s-45 70 -45 126v314h103v-303c0 -36.667 8.5 -62.334 25.5 -77.001s37.5 -22 61.5 -22c26 0 49 5.5 69 16.5s38 25.5 54 43.5v342z
M399 654.001v-67h-250v67h250z" />
    <glyph glyph-name="Ubreve" unicode="&#x16c;" horiz-adv-x="647" 
d="M70 630l107.002 -0.000976562v-377c0 -62.667 11.667 -108 35 -136s60.666 -42 111.999 -42c50.667 0 87.5 15.167 110.5 45.5s34.5 70.5 34.5 120.5v389h107v-384c0 -87.333 -21.833 -151.833 -65.5 -193.5s-105.834 -62.5 -186.501 -62.5
c-79.333 0 -141.5 20.833 -186.5 62.5s-67.5 107.834 -67.5 198.501v379zM257.002 828.999c2 -20 7.5 -35.833 16.5 -47.5s25.833 -17.5 50.5 -17.5c21.333 0 37.333 5.5 48 16.5s17 27.167 19 48.5h67c0 -37.333 -11.5 -67.5 -34.5 -90.5s-56.167 -34.5 -99.5 -34.5
c-24 0 -44.5 3.5 -61.5 10.5s-31 16.333 -42 28s-19 25 -24 40s-7.5 30.5 -7.5 46.5h68z" />
    <glyph glyph-name="ubreve" unicode="&#x16d;" horiz-adv-x="546" 
d="M378 472l103 0.000976562v-472h-79l-13 57h-4c-16.667 -17.333 -37.667 -32.833 -63 -46.5s-56 -20.5 -92 -20.5c-50 0 -90 14 -120 42s-45 70 -45 126v314h103v-303c0 -36.667 8.5 -62.334 25.5 -77.001s37.5 -22 61.5 -22c26 0 49 5.5 69 16.5s38 25.5 54 43.5v342z
M205 682.001c2 -20.667 7.33301 -37 16 -49s25.667 -18 51 -18c21.333 0 37.333 5.83301 48 17.5s17 28.167 19 49.5h67c0 -37.333 -11.5 -67.833 -34.5 -91.5s-56.167 -35.5 -99.5 -35.5c-24 0 -44.5 3.66699 -61.5 11s-31 16.833 -42 28.5s-19 25.167 -24 40.5
s-7.5 31 -7.5 47h68z" />
    <glyph glyph-name="Uring" unicode="&#x16e;" horiz-adv-x="647" 
d="M70 630l107.002 -0.000976562v-377c0 -62.667 11.667 -108 35 -136s60.666 -42 111.999 -42c50.667 0 87.5 15.167 110.5 45.5s34.5 70.5 34.5 120.5v389h107v-384c0 -87.333 -21.833 -151.833 -65.5 -193.5s-105.834 -62.5 -186.501 -62.5
c-79.333 0 -141.5 20.833 -186.5 62.5s-67.5 107.834 -67.5 198.501v379zM224.002 760.999c0 28.667 9.66602 50 28.999 64s43 21 71 21c28.667 0 52.334 -7 71.001 -21s28 -35.333 28 -64c0 -29.333 -10 -51 -30 -65s-43 -21 -69 -21c-27.333 0 -50.833 7.33301 -70.5 22
s-29.5 36 -29.5 64zM275.001 760.999c0 -15.333 4.49902 -27.333 13.499 -36s20.833 -13 35.5 -13s26.334 4.33301 35.001 13s13 20.667 13 36c0 14.667 -4.5 26.334 -13.5 35.001s-20.5 13 -34.5 13s-25.667 -4.33301 -35 -13s-14 -20.334 -14 -35.001z" />
    <glyph glyph-name="uring" unicode="&#x16f;" horiz-adv-x="546" 
d="M378 472l103 0.000976562v-472h-79l-13 57h-4c-16.667 -17.333 -37.667 -32.833 -63 -46.5s-56 -20.5 -92 -20.5c-50 0 -90 14 -120 42s-45 70 -45 126v314h103v-303c0 -36.667 8.5 -62.334 25.5 -77.001s37.5 -22 61.5 -22c26 0 49 5.5 69 16.5s38 25.5 54 43.5v342z
M178 623.001c0 14.667 2.66699 27.334 8 38.001s12.5 19.5 21.5 26.5s19.167 12.167 30.5 15.5s23.333 5 36 5c26 0 48.667 -6.83301 68 -20.5s29 -35.167 29 -64.5c0 -14.667 -2.83301 -27.334 -8.5 -38.001s-13 -19.5 -22 -26.5s-19.333 -12.333 -31 -16
s-23.5 -5.5 -35.5 -5.5s-23.833 1.83301 -35.5 5.5s-22 9.16699 -31 16.5s-16.167 16.333 -21.5 27s-8 23 -8 37zM228 623.001c0 -15.333 4 -27.333 12 -36s19.333 -13 34 -13s26.167 4.33301 34.5 13s12.5 20.667 12.5 36s-4.33301 27.333 -13 36s-20 13 -34 13
s-25.167 -4.33301 -33.5 -13s-12.5 -20.667 -12.5 -36z" />
    <glyph glyph-name="Uhungarumlaut" unicode="&#x170;" horiz-adv-x="647" 
d="M70 630l107.002 -0.000976562v-377c0 -62.667 11.667 -108 35 -136s60.666 -42 111.999 -42c50.667 0 87.5 15.167 110.5 45.5s34.5 70.5 34.5 120.5v389h107v-384c0 -87.333 -21.833 -151.833 -65.5 -193.5s-105.834 -62.5 -186.501 -62.5
c-79.333 0 -141.5 20.833 -186.5 62.5s-67.5 107.834 -67.5 198.501v379zM256.002 704.999h-82l80 125h109zM450.002 704.999h-82l80 125h109z" />
    <glyph glyph-name="uhungarumlaut" unicode="&#x171;" horiz-adv-x="554" 
d="M378 472l103 0.000976562v-472h-79l-13 57h-4c-16.667 -17.333 -37.667 -32.833 -63 -46.5s-56 -20.5 -92 -20.5c-50 0 -90 14 -120 42s-45 70 -45 126v314h103v-303c0 -36.667 8.5 -62.334 25.5 -77.001s37.5 -22 61.5 -22c26 0 49 5.5 69 16.5s38 25.5 54 43.5v342z
M219 553.001h-76l74 139h110zM390 553.001h-76l73 139h110z" />
    <glyph glyph-name="Uogonek" unicode="&#x172;" horiz-adv-x="647" 
d="M70 630l106.999 -0.00292969v-377c0 -62.667 11.667 -108 35 -136s60.666 -42 111.999 -42c50.667 0 87.5 15.167 110.5 45.5s34.5 70.5 34.5 120.5v389h107v-384c0 -80 -18.667 -141 -56 -183s-90.666 -65.667 -159.999 -71c-22 -12.667 -39.5 -25.167 -52.5 -37.5
s-19.5 -27.166 -19.5 -44.499c0 -15.333 4.83301 -27.333 14.5 -36s22.167 -13 37.5 -13c9.33301 0 17.833 0.833008 25.5 2.5s14.834 3.5 21.501 5.5l15 -54c-23.333 -14 -50.666 -21 -81.999 -21c-30.667 0 -56.167 8.5 -76.5 25.5s-30.5 41.167 -30.5 72.5
c0 22.667 6.16699 42.834 18.5 60.501s26.166 31.5 41.499 41.5c-64.667 7.33301 -114.667 31.833 -150 73.5s-53 102.834 -53 183.501v379z" />
    <glyph glyph-name="uogonek" unicode="&#x173;" horiz-adv-x="546" 
d="M378 472h102.999v-472h-11c-37.333 -27.333 -56 -57.666 -56 -90.999c0 -15.333 4.83301 -27.166 14.5 -35.499s22.167 -12.5 37.5 -12.5c17.333 0 33 2.66699 47 8l15 -54c-23.333 -14 -50.666 -21 -81.999 -21c-30.667 0 -56.167 8.33301 -76.5 25
s-30.5 40.667 -30.5 72c0 25.333 7 47.166 21 65.499s28 32.833 42 43.5l-13 57h-4c-16.667 -17.333 -37.667 -32.833 -63 -46.5s-56 -20.5 -92 -20.5c-50 0 -90 14 -120 42s-45 70 -45 126v314h103v-303c0 -36.667 8.5 -62.334 25.5 -77.001s37.5 -22 61.5 -22
c26 0 49 5.5 69 16.5s38 25.5 54 43.5v342z" />
    <glyph glyph-name="Wcircumflex" unicode="&#x174;" horiz-adv-x="860" 
d="M391 836h79l123 -131h-88l-75 79l-75 -79h-83zM116 630l95.001 -345.999l8 -33.5c3.33301 -13.667 6.5 -28 9.5 -43s5.83301 -30 8.5 -45l7 -40.5h2l7 40.5c2.66699 15 5.66699 30 9 45s6.66602 29.167 9.99902 42.5s6.33301 24.666 9 33.999l99 346h102l100 -344
c2.66699 -8 5.66699 -19 9 -33l10 -44c3.33301 -15.333 6.5 -30.833 9.5 -46.5l7.5 -40.5h2c2 12 4.5 25.333 7.5 40l9 44.5c3 15 6.16699 29.5 9.5 43.5s6.33301 26 9 36l90 344h108l-177 -630h-112l-93 337l-20.5 80l-20.5 83h-2l-20 -82l-20 -79l-90 -339h-110l-181 630
h109z" />
    <glyph glyph-name="wcircumflex" unicode="&#x175;" horiz-adv-x="728" 
d="M10 472h109l74 -281l18 -112h4l22 112l73 281h110l76 -281l21 -112h4l21 112l72 281h105l-139 -472h-119l-74 278l-22 116l-23 -116l-76 -278h-115zM516 553h-84l-67 82l-68 -82h-87l119 137h71z" />
    <glyph glyph-name="Ycircumflex" unicode="&#x176;" horiz-adv-x="544" 
d="M128 630l150 -270l150 270h115l-216 -367v-263h-107v263l-210 367h118zM238 836h79l123 -131h-88l-75 79l-75 -79h-83z" />
    <glyph glyph-name="ycircumflex" unicode="&#x177;" horiz-adv-x="481" 
d="M8 472h111l95 -255l34 -113h2l33 114l86 254h105l-179 -504c-20 -56.667 -45.5 -102.834 -76.5 -138.501s-71.5 -62.167 -121.5 -79.5l-44 81c33.333 12.667 62.333 30.834 87 54.501s43 54.5 55 92.5l8 23zM401 553h-84l-67 82l-68 -82h-87l118 137h72z" />
    <glyph glyph-name="Ydieresis" unicode="&#x178;" horiz-adv-x="544" 
d="M128 630l150 -270l150 270h115l-216 -367v-263h-107v263l-210 367h118zM136 758c0 14 5.16699 26.333 15.5 37s23.166 16 38.499 16s28.166 -5.33301 38.499 -16s15.5 -23 15.5 -37c0 -15.333 -5.16699 -28.5 -15.5 -39.5s-23.166 -16.5 -38.499 -16.5
s-28.166 5.5 -38.499 16.5s-15.5 24.167 -15.5 39.5zM311 758c0 14 5.33301 26.333 16 37s23.667 16 39 16s28.166 -5.33301 38.499 -16s15.5 -23 15.5 -37c0 -15.333 -5.16699 -28.5 -15.5 -39.5s-23.166 -16.5 -38.499 -16.5s-28.333 5.5 -39 16.5s-16 24.167 -16 39.5z
" />
    <glyph glyph-name="Zacute" unicode="&#x179;" horiz-adv-x="519" 
d="M487 630v-63l-332 -483h338v-84h-467v72l326 474h-313v84h448zM283 705h-84l80 124h116z" />
    <glyph glyph-name="zacute" unicode="&#x17a;" horiz-adv-x="414" 
d="M386 411l-241 -335h246v-76h-367v64l240 332h-225v76h347v-61zM231 553h-79l70 139h113z" />
    <glyph glyph-name="Zdotaccent" unicode="&#x17b;" horiz-adv-x="519" 
d="M487 630v-63l-332 -483h338v-84h-467v72l326 474h-313v84h448zM209 762c0 15.333 6 28.833 18 40.5s25.667 17.5 41 17.5c16.667 0 30.667 -5.83301 42 -17.5s17 -25.167 17 -40.5c0 -16.667 -5.66699 -30.834 -17 -42.501s-25.333 -17.5 -42 -17.5
c-15.333 0 -29 5.83301 -41 17.5s-18 25.834 -18 42.501z" />
    <glyph glyph-name="zdotaccent" unicode="&#x17c;" horiz-adv-x="414" 
d="M386 411l-241 -335h246v-76h-367v64l240 332h-225v76h347v-61zM154 623c0 15.333 6 28.833 18 40.5s25.667 17.5 41 17.5c16.667 0 30.5 -5.83301 41.5 -17.5s16.5 -25.167 16.5 -40.5c0 -16.667 -5.5 -30.834 -16.5 -42.501s-24.833 -17.5 -41.5 -17.5
c-15.333 0 -29 5.83301 -41 17.5s-18 25.834 -18 42.501z" />
    <glyph glyph-name="Zcaron" unicode="&#x17d;" horiz-adv-x="519" 
d="M487 630v-63l-332 -483h338v-84h-467v72l326 474h-313v84h448zM105 837h85l75 -79l75 79h86l-122 -131h-79z" />
    <glyph glyph-name="zcaron" unicode="&#x17e;" horiz-adv-x="414" 
d="M386 411l-241 -335h246v-76h-367v64l240 332h-225v76h347v-61zM67 690h84l67 -82l68 82h87l-119 -137h-71z" />
    <glyph glyph-name="florin" unicode="&#x192;" horiz-adv-x="485" 
d="M227 47c-6 -42.667 -16.3311 -78.333 -30.998 -107s-31.5 -51.834 -50.5 -69.501s-39.667 -31 -62 -40s-44.5 -15.5 -66.5 -19.5l-31 80c16.667 4 32.5 9.66699 47.5 17s28.333 16.833 40 28.5s21.667 26.167 30 43.5s14.166 38.333 17.499 63l52 354h-67v75h77l11 77
c4 28.667 10.667 55.167 20 79.5s22 45.5 38 63.5s35.5 32.167 58.5 42.5s50.167 15.5 81.5 15.5c18 0 35.833 -2.16699 53.5 -6.5s33.167 -10.166 46.5 -17.499l-25 -72c-20.667 9.33301 -43.334 14 -68.001 14c-31.333 0 -55 -10.5 -71 -31.5s-27 -53.5 -33 -97.5l-9 -67
h130v-76h-140z" />
    <glyph glyph-name="AEacute" unicode="&#x1fc;" horiz-adv-x="803" 
d="M327 630h432v-86h-261v-174h235v-85h-235v-199h264v-86h-368v166h-184l-81 -166h-124zM394 551l-149 -304h149v304zM443 705h-85l80 124h117z" />
    <glyph glyph-name="aeacute" unicode="&#x1fd;" horiz-adv-x="788" 
d="M428 553h-79l70 139h113zM753 217l-323.002 0.00292969v-4c0 -48.667 13.333 -85 40 -109s63 -36 109 -36c25.333 0 48.166 2.16699 68.499 6.5s40.833 11.166 61.5 20.499l21 -75c-19.333 -8.66699 -42 -15.834 -68 -21.501s-55 -8.5 -87 -8.5
c-42 0 -79.667 6.5 -113 19.5s-60.666 34.5 -81.999 64.5h-3c-20 -26 -44.167 -46.5 -72.5 -61.5s-64.5 -22.5 -108.5 -22.5c-24 0 -46 3.33301 -66 10s-37 16.167 -51 28.5s-25 27 -33 44s-12 35.833 -12 56.5c0 26 5.33301 48.5 16 67.5s25.667 34.833 45 47.5
s42.333 22.167 69 28.5s56 9.5 88 9.5h85v36c0 30 -8.66699 50.833 -26 62.5s-40.333 17.5 -69 17.5c-17.333 0 -36.833 -2.83301 -58.5 -8.5s-46.5 -16.167 -74.5 -31.5l-38 72c30.667 16.667 59.834 29.167 87.501 37.5s59.167 12.5 94.5 12.5
c34.667 0 63.834 -5.16699 87.501 -15.5s43.167 -27.166 58.5 -50.499h2c19.333 23.333 42 40.166 68 50.499s54.333 15.5 85 15.5c62.667 0 111.5 -19.333 146.5 -58s52.5 -91.334 52.5 -158.001v-47zM140.998 134.003c0 -13.333 2.16895 -24.335 6.50195 -33.002
s10.166 -15.667 17.499 -21s15.833 -9.16602 25.5 -11.499s19.5 -3.5 29.5 -3.5c25.333 0 49.166 5.83301 71.499 17.5s41.166 29.167 56.499 52.5c-4 11.333 -7 23.5 -9 36.5s-3.66699 27.167 -5 42.5l-64 -1c-47.333 -1.33301 -80.666 -9.66602 -99.999 -24.999
s-29 -33.333 -29 -54zM647 284.001c0 16 -1.66699 31.333 -5 46s-9 27.667 -17 39s-18.167 20.333 -30.5 27s-27.5 10 -45.5 10c-33.333 0 -60.333 -11 -81 -33s-32.667 -52 -36 -90z" />
    <glyph glyph-name="Oslashacute" unicode="&#x1fe;" horiz-adv-x="692" 
d="M332 705h-84l80 124h116zM506 750l47.001 -18.002l-52 -128c44 -25.333 79.5 -61.666 106.5 -108.999s40.5 -107.333 40.5 -180c0 -52 -7.66699 -98.167 -23 -138.5s-36.666 -74.333 -63.999 -102s-59.5 -48.667 -96.5 -63s-77.167 -21.5 -120.5 -21.5
c-16.667 0 -33.5 1.33301 -50.5 4s-33.167 6 -48.5 10l-64 -159l-48 21l64 156c-46 25.333 -83 61.833 -111 109.5s-42 108.834 -42 183.501c0 52 7.66699 98.167 23 138.5s36.666 74.333 63.999 102s59.5 48.667 96.5 63s77.167 21.5 120.5 21.5
c17.333 0 35.166 -1.5 53.499 -4.5s35.5 -7.16699 51.5 -12.5zM159.001 314.998c0 -52 7.16699 -94.667 21.5 -128s33.5 -59.333 57.5 -78l177 434c-11.333 4 -23 7.16699 -35 9.5s-24 3.5 -36 3.5c-26 0 -50.333 -4.83301 -73 -14.5s-42.167 -24.5 -58.5 -44.5
s-29.333 -45.167 -39 -75.5s-14.5 -65.833 -14.5 -106.5zM348.001 73.998c26 0 50.333 4.83203 73 14.499s42.167 24.5 58.5 44.5s29.333 45.167 39 75.5s14.5 65.833 14.5 106.5c0 50 -6.66699 91.333 -20 124s-31.333 58.334 -54 77.001l-175 -432
c10 -3.33301 20.333 -5.83301 31 -7.5s21.667 -2.5 33 -2.5z" />
    <glyph glyph-name="oslashacute" unicode="&#x1ff;" horiz-adv-x="548" 
d="M365 567l47 -13.001l-31 -94c38 -17.333 68.667 -43.833 92 -79.5s35.333 -81.834 36 -138.501c0 -39.333 -6 -74.666 -18 -105.999s-28.667 -57.666 -50 -78.999s-46.333 -37.833 -75 -49.5s-59.667 -17.5 -93 -17.5c-21.333 0 -40.333 2 -57 6l-28 -86l-46 14l29 86
c-40 17.333 -72 44 -96 80s-36 82.667 -36 140c0 40 6 75.5 18 106.5s28.667 57.167 50 78.5s46.333 37.5 75 48.5s59.667 16.5 93 16.5c20 0 40 -2 60 -6zM272 401.999c-16 0 -31.668 -2.66602 -47.001 -7.99902s-28.833 -14.333 -40.5 -27s-21 -29.834 -28 -51.501
s-10.5 -48.5 -10.5 -80.5c0 -36.667 5.33301 -66.5 16 -89.5s24.334 -40.833 41.001 -53.5l101 307c-10 2 -20.667 3 -32 3zM401.999 236c0 36 -5.16797 65.333 -15.501 88s-23.5 40 -39.5 52l-100 -305c8.66699 -2 18.334 -3 29.001 -3c16 0 31.5 2.83301 46.5 8.5
s28.5 15 40.5 28s21.5 30.167 28.5 51.5s10.5 48 10.5 80zM261.998 553h-80l70 139h113z" />
    <glyph glyph-name="Scommaaccent" unicode="&#x218;" horiz-adv-x="515" 
d="M262 640c68.667 0 128.669 -12.666 180.002 -37.999l-25 -85c-28 13.333 -53.833 23.166 -77.5 29.499s-47.5 9.5 -71.5 9.5c-36 0 -64.333 -7.66699 -85 -23s-31 -36.666 -31 -63.999c0 -24 8 -43 24 -57s42 -26.667 78 -38l62 -20
c54.667 -17.333 94.667 -41.5 120 -72.5s38 -66.833 38 -107.5c0 -27.333 -5.33301 -52.333 -16 -75s-25.834 -42 -45.501 -58s-43.5 -28.5 -71.5 -37.5s-59 -13.5 -93 -13.5s-67.833 3.16699 -101.5 9.5s-66.5 17.166 -98.5 32.499l25 84c28.667 -14 56.667 -24.5 84 -31.5
s56 -10.5 86 -10.5c36 0 65.333 7.66699 88 23s34 38 34 68c0 21.333 -7.83301 40.333 -23.5 57s-46.167 32.334 -91.5 47.001l-59 19c-46 15.333 -82.167 35.833 -108.5 61.5s-39.5 61.5 -39.5 107.5c0 55.333 18.667 99.666 56 132.999s91.666 50 162.999 50z
M232.002 -186.999c-12 2 -23.833 8.16699 -35.5 18.5s-17.5 24.5 -17.5 42.5c0 16.667 5.5 31 16.5 43s26.167 18 45.5 18c8 0 16.333 -1.66699 25 -5s16.5 -8.66602 23.5 -15.999s12.833 -16.666 17.5 -27.999s7 -25.333 7 -42s-2.83301 -33.167 -8.5 -49.5
s-13.5 -31.833 -23.5 -46.5s-21.833 -28.167 -35.5 -40.5s-28.167 -22.5 -43.5 -30.5l-27 37c18.667 11.333 35.167 25.666 49.5 42.999s22.5 34.666 24.5 51.999z" />
    <glyph glyph-name="scommaaccent" unicode="&#x219;" horiz-adv-x="416" 
d="M337 376c-21.333 10 -41.167 17.166 -59.5 21.499s-36.5 6.5 -54.5 6.5c-28 0 -49.167 -5.16699 -63.5 -15.5s-21.5 -24.166 -21.5 -41.499c0 -13.333 5.33301 -24.833 16 -34.5s32.667 -19.167 66 -28.5l30 -9c43.333 -13.333 76.166 -30.666 98.499 -51.999
s33.5 -50 33.5 -86c0 -44 -16.667 -79.5 -50 -106.5s-79 -40.5 -137 -40.5c-31.333 0 -60.5 2.83301 -87.5 8.5s-51.167 13.5 -72.5 23.5l24 78c19.333 -9.33301 40 -17 62 -23s44.667 -9 68 -9c28.667 0 51 5 67 15s24 25.333 24 46c0 19.333 -7.16699 33.166 -21.5 41.499
s-36.5 17.166 -66.5 26.499l-31 9c-42 14 -73.167 31.667 -93.5 53s-30.5 49.333 -30.5 84c0 20.667 4.33301 39.334 13 56.001s20.667 31 36 43s33.833 21.333 55.5 28s45.5 10 71.5 10c24.667 0 49.834 -2.33301 75.501 -7s49.5 -12 71.5 -22zM194.999 -187.001
c-12 2 -23.833 8.16699 -35.5 18.5s-17.5 24.5 -17.5 42.5c0 16.667 5.5 31 16.5 43s26.167 18 45.5 18c8 0 16.333 -1.66699 25 -5s16.5 -8.66602 23.5 -15.999s12.833 -16.666 17.5 -27.999s7 -25.333 7 -42s-2.83301 -33.167 -8.5 -49.5s-13.5 -31.833 -23.5 -46.5
s-21.833 -28.167 -35.5 -40.5s-28.167 -22.5 -43.5 -30.5l-27 37c18 11.333 34.333 25.666 49 42.999s23 34.666 25 51.999z" />
    <glyph glyph-name="uni021A" unicode="&#x21a;" horiz-adv-x="503" 
d="M494 630v-88h-190v-542h-107v542h-187v88h484zM236 -187c-12 2 -23.834 8.16699 -35.501 18.5s-17.5 24.5 -17.5 42.5c0 16.667 5.5 31 16.5 43s26.167 18 45.5 18c8 0 16.333 -1.66699 25 -5s16.5 -8.66602 23.5 -15.999s12.833 -16.666 17.5 -27.999s7 -25.333 7 -42
s-2.83301 -33.167 -8.5 -49.5s-13.5 -31.833 -23.5 -46.5s-21.667 -28.167 -35 -40.5s-27.666 -22.5 -42.999 -30.5l-27 37c18 11.333 34.167 25.666 48.5 42.999s22.5 34.666 24.5 51.999z" />
    <glyph glyph-name="uni021B" unicode="&#x21b;" horiz-adv-x="370" 
d="M325 396l-134 -0.000976562v-255c0 -23.333 5.5 -39 16.5 -47s25.833 -12 44.5 -12c13.333 0 27.5 1.5 42.5 4.5s28.167 6.5 39.5 10.5l16 -76c-13.333 -5.33301 -30.5 -10.166 -51.5 -14.499s-43.167 -6.5 -66.5 -6.5c-50.667 0 -87.167 10.5 -109.5 31.5
s-33.5 52.167 -33.5 93.5v271h-72v76h72v149h102v-149h134v-76zM193 -187.001c-12 2 -23.833 8.16699 -35.5 18.5s-17.5 24.5 -17.5 42.5c0 16.667 5.5 31 16.5 43s26.167 18 45.5 18c8 0 16.333 -1.66699 25 -5s16.5 -8.66602 23.5 -15.999s12.833 -16.666 17.5 -27.999
s7 -25.333 7 -42s-2.83301 -33.167 -8.5 -49.5s-13.5 -31.833 -23.5 -46.5s-21.833 -28.167 -35.5 -40.5s-28.167 -22.5 -43.5 -30.5l-27 37c18.667 11.333 35.167 25.666 49.5 42.999s22.5 34.666 24.5 51.999z" />
    <glyph glyph-name="circumflex" unicode="&#x2c6;" horiz-adv-x="360" 
d="M338 553h-84l-70 106l-74 -106h-85l126 159h64z" />
    <glyph glyph-name="caron" unicode="&#x2c7;" horiz-adv-x="357" 
d="M29 690h84l67 -82l68 82h87l-118 -137h-72z" />
    <glyph glyph-name="uni02C9" unicode="&#x2c9;" horiz-adv-x="291" 
d="M263 660v-63h-235v63h235z" />
    <glyph glyph-name="breve" unicode="&#x2d8;" horiz-adv-x="295" 
d="M82 682c2 -20.667 7.5 -37 16.5 -49s25.833 -18 50.5 -18c21.333 0 37.333 5.83301 48 17.5s17 28.167 19 49.5h67c0 -37.333 -11.5 -67.833 -34.5 -91.5s-56.167 -35.5 -99.5 -35.5c-24 0 -44.5 3.66699 -61.5 11s-31 16.833 -42 28.5s-19 25.167 -24 40.5
s-7.5 31 -7.5 47h68z" />
    <glyph glyph-name="dotaccent" unicode="&#x2d9;" horiz-adv-x="173" 
d="M27 630c0 15.333 6 28.833 18 40.5s25.667 17.5 41 17.5c16.667 0 30.667 -5.83301 42 -17.5s17 -25.167 17 -40.5c0 -17.333 -5.66699 -31.666 -17 -42.999s-25.333 -17 -42 -17c-15.333 0 -29 5.66699 -41 17s-18 25.666 -18 42.999z" />
    <glyph glyph-name="ring" unicode="&#x2da;" horiz-adv-x="246" 
d="M25 623c0 14.667 2.66699 27.334 8 38.001s12.5 19.5 21.5 26.5s19.167 12.167 30.5 15.5s23.333 5 36 5c26.667 0 49.5 -6.83301 68.5 -20.5s28.5 -35.167 28.5 -64.5c0 -14.667 -2.83301 -27.334 -8.5 -38.001s-13 -19.5 -22 -26.5s-19.333 -12.333 -31 -16
s-23.5 -5.5 -35.5 -5.5s-23.833 1.83301 -35.5 5.5s-22 9.16699 -31 16.5s-16.167 16.333 -21.5 27s-8 23 -8 37zM75 623c0 -15.333 4.16699 -27.333 12.5 -36s19.5 -13 33.5 -13c14.667 0 26.167 4.33301 34.5 13s12.5 20.667 12.5 36s-4.33301 27.333 -13 36
s-20 13 -34 13c-13.333 0 -24.333 -4.33301 -33 -13s-13 -20.667 -13 -36z" />
    <glyph glyph-name="ogonek" unicode="&#x2db;" horiz-adv-x="248" 
d="M185 0c-25.333 -14 -45.6699 -27.834 -61.0029 -41.501s-23 -30.167 -23 -49.5c0 -15.333 4.83301 -27.166 14.5 -35.499s22.167 -12.5 37.5 -12.5c18.667 0 34.334 2.66699 47.001 8l15 -54c-23.333 -14 -50.666 -21 -81.999 -21c-30.667 0 -56.167 8.33301 -76.5 25
s-30.5 40.667 -30.5 72c0 12.667 2.16699 24.667 6.5 36s9.83301 21.5 16.5 30.5s14.334 17.167 23.001 24.5s17 13.333 25 18h88z" />
    <glyph glyph-name="tilde" unicode="&#x2dc;" horiz-adv-x="400" 
d="M35 583c0 35.333 6.50098 63.832 19.501 85.499s34.5 32.5 64.5 32.5c14 0 26.667 -2.5 38 -7.5s22 -10.333 32 -16l29 -16c9.33301 -5 19 -7.5 29 -7.5c11.333 0 19.5 4.5 24.5 13.5s7.5 21.5 7.5 37.5h54c0 -37.333 -6.33301 -66.166 -19 -86.499
s-33.334 -30.5 -62.001 -30.5c-15.333 0 -29 2.33301 -41 7s-23.167 10 -33.5 16l-28.5 16c-8.66699 4.66699 -17 7 -25 7c-22.667 0 -34 -17 -34 -51h-55z" />
    <glyph glyph-name="hungarumlaut" unicode="&#x2dd;" horiz-adv-x="316" 
d="M106 553h-77l74 139h110zM276 553h-76l74 139h110z" />
    <glyph glyph-name="pi" unicode="&#x3c0;" horiz-adv-x="652" 
d="M431 547l-221.999 -0.000976562v-547h-101v547h-93v83h611v-83h-93v-414c0 -21.333 4.16699 -36.666 12.5 -45.999s22.166 -14 41.499 -14c4 0 9.5 0.333008 16.5 1s14.167 2 21.5 4l12 -78c-14.667 -4.66699 -26.667 -7.5 -36 -8.5s-20 -1.5 -32 -1.5
c-44 0 -78 11.333 -102 34s-36 55 -36 97v426z" />
    <glyph glyph-name="uni0900" unicode="&#x900;" 
d="M-78 767c0 -13.333 -4.33301 -25.166 -13 -35.499s-20.334 -15.5 -35.001 -15.5c-14 0 -25.333 5.16699 -34 15.5s-13 22.166 -13 35.499c0 14 4.33301 26 13 36s20 15 34 15c14.667 0 26.334 -5 35.001 -15s13 -22 13 -36zM-301 774
c0 28.667 4.66504 53.334 13.998 74.001s22 37.667 38 51s34.5 23.333 55.5 30s43.167 10 66.5 10c24.667 0 47.834 -3.5 69.501 -10.5s40.5 -17.5 56.5 -31.5s28.5 -31.333 37.5 -52s13.5 -44.334 13.5 -71.001h-77c-3.33301 34 -13.166 58.667 -29.499 74
s-39.5 23 -69.5 23c-30.667 0 -54 -8.66699 -70 -26s-25 -41 -27 -71h-78z" />
    <glyph glyph-name="Chandrabindu.dv" unicode="&#x901;" 
d="M-173 889c0 13.333 4.33301 25 13 35s20.334 15 35.001 15c14 0 25.333 -5 34 -15s13 -21.667 13 -35c0 -14 -4.33301 -26 -13 -36s-20 -15 -34 -15c-14.667 0 -26.334 5 -35.001 15s-13 22 -13 36zM50 881c0 -28 -4.66504 -52.498 -13.998 -73.498
s-22 -38.167 -38 -51.5s-34.5 -23.333 -55.5 -30s-42.833 -10 -65.5 -10c-24.667 0 -47.834 3.5 -69.501 10.5s-40.5 17.5 -56.5 31.5s-28.667 31.167 -38 51.5s-14 44.166 -14 71.499h77c3.33301 -34 13.166 -58.5 29.499 -73.5s39.5 -22.5 69.5 -22.5
c30.667 0 54 8.66699 70 26s25 40.666 27 69.999h78z" />
    <glyph glyph-name="Bindu.dv" unicode="&#x902;" 
d="M-186 777c0 14 5.66504 27.333 16.998 40s26 19 44 19c18.667 0 33.334 -6.33301 44.001 -19s16 -26 16 -40c0 -17.333 -5.66699 -31.666 -17 -42.999s-25.666 -17 -42.999 -17c-18 0 -32.667 5.66699 -44 17s-17 25.666 -17 42.999z" />
    <glyph glyph-name="Visarga.dv" unicode="&#x903;" horiz-adv-x="141" 
d="M-10 559v74h161v-74h-161zM0 400c0 13.333 5.33301 25.666 16 36.999s24 17 40 17c17.333 0 30.833 -5.66699 40.5 -17s14.5 -23.666 14.5 -36.999c0 -15.333 -5 -28.333 -15 -39s-23.333 -16 -40 -16c-16 0 -29.333 5.33301 -40 16s-16 23.667 -16 39zM0 168
c0 13.333 5.33301 25.666 16 36.999s24 17 40 17c17.333 0 30.833 -5.66699 40.5 -17s14.5 -23.666 14.5 -36.999c0 -15.333 -5 -28.333 -15 -39s-23.333 -16 -40 -16c-16 0 -29.333 5.33301 -40 16s-16 23.667 -16 39z" />
    </font>
</defs>
</svg>
