<svg id="ic-building-own" xmlns="http://www.w3.org/2000/svg" width="180" height="112" viewBox="0 0 180 112">
  <metadata><?xpacket begin="﻿" id="W5M0MpCehiHzreSzNTczkc9d"?>
<x:xmpmeta xmlns:x="adobe:ns:meta/" x:xmptk="Adobe XMP Core 5.6-c142 79.160924, 2017/07/13-01:06:39        ">
   <rdf:RDF xmlns:rdf="http://www.w3.org/1999/02/22-rdf-syntax-ns#">
      <rdf:Description rdf:about=""/>
   </rdf:RDF>
</x:xmpmeta>
                                                                                                    
                                                                                                    
                                                                                                    
                                                                                                    
                                                                                                    
                                                                                                    
                                                                                                    
                                                                                                    
                                                                                                    
                                                                                                    
                                                                                                    
                                                                                                    
                                                                                                    
                                                                                                    
                                                                                                    
                                                                                                    
                                                                                                    
                                                                                                    
                                                                                                    
                                                                                                    
                           
<?xpacket end="w"?></metadata>
<defs>
    <style>
      .cls-1 {
        fill: #ebf7fb;
      }

      .cls-2 {
        fill: #65aaa9;
      }

      .cls-2, .cls-3 {
        fill-rule: evenodd;
      }

      .cls-3 {
        fill: #0c1319;
      }
    </style>
  </defs>
  <rect id="Прямоугольник_513" data-name="Прямоугольник 513" class="cls-1" width="180" height="90"/>
  <path id="Фигура_1008" data-name="Фигура 1008" class="cls-2" d="M1087,1377h22v78h-11v-50h-11v-28Z" transform="translate(-1014 -1344)"/>
  <path id="Заливка_цветом_34" data-name="Заливка цветом 34" class="cls-3" d="M1117.15,1414.03v-1.92a1.125,1.125,0,1,0-2.25,0v1.92a1.126,1.126,0,0,0,1.12,1.13A1.066,1.066,0,0,0,1117.15,1414.03Zm5.41,0v-1.92a1.125,1.125,0,1,0-2.25,0v1.92A1.125,1.125,0,1,0,1122.56,1414.03Zm5.3,0v-1.92a1.13,1.13,0,0,0-2.26,0v1.92a1.134,1.134,0,0,0,1.13,1.13A1.066,1.066,0,0,0,1127.86,1414.03Zm-10.71,7.9v-1.92a1.125,1.125,0,1,0-2.25,0v1.92a1.124,1.124,0,0,0,1.12,1.12A1.063,1.063,0,0,0,1117.15,1421.93Zm5.41,0v-1.92a1.125,1.125,0,1,0-2.25,0v1.92A1.125,1.125,0,0,0,1122.56,1421.93Zm5.3,0v-1.92a1.13,1.13,0,0,0-2.26,0v1.92a1.132,1.132,0,0,0,1.13,1.12A1.063,1.063,0,0,0,1127.86,1421.93Zm-10.71,7.89v-1.91a1.125,1.125,0,1,0-2.25,0v1.91a1.206,1.206,0,0,0,1.12,1.13A1.066,1.066,0,0,0,1117.15,1429.82Zm5.41,0v-1.91a1.125,1.125,0,1,0-2.25,0v1.91a1.126,1.126,0,0,0,1.12,1.13A1.066,1.066,0,0,0,1122.56,1429.82Zm5.3,0v-1.91a1.13,1.13,0,1,0-2.26,0v1.91a1.215,1.215,0,0,0,1.13,1.13A1.066,1.066,0,0,0,1127.86,1429.82Zm-10.71,7.79v-1.92a1.125,1.125,0,1,0-2.25,0v1.92a1.126,1.126,0,0,0,1.12,1.13A1.066,1.066,0,0,0,1117.15,1437.61Zm5.41,0v-1.92a1.125,1.125,0,1,0-2.25,0v1.92A1.125,1.125,0,1,0,1122.56,1437.61Zm5.3,0v-1.92a1.13,1.13,0,1,0-2.26,0v1.92a1.134,1.134,0,0,0,1.13,1.13A1.066,1.066,0,0,0,1127.86,1437.61Zm-10.71,7.9v-1.92a1.125,1.125,0,1,0-2.25,0v1.92a1.214,1.214,0,0,0,1.12,1.13A1.071,1.071,0,0,0,1117.15,1445.51Zm5.41,0v-1.92a1.125,1.125,0,1,0-2.25,0v1.92a1.132,1.132,0,0,0,1.12,1.13A1.071,1.071,0,0,0,1122.56,1445.51Zm5.3,0v-1.92a1.13,1.13,0,0,0-2.26,0v1.92a1.223,1.223,0,0,0,1.13,1.13A1.071,1.071,0,0,0,1127.86,1445.51Zm-47.9-33.4v1.92a1.125,1.125,0,1,0,2.25,0v-1.92a1.132,1.132,0,0,0-1.12-1.13A1.066,1.066,0,0,0,1079.96,1412.11Zm5.41,0v1.92a1.125,1.125,0,1,0,2.25,0v-1.92a1.214,1.214,0,0,0-1.12-1.13A1.066,1.066,0,0,0,1085.37,1412.11Zm5.41,0v1.92a1.125,1.125,0,1,0,2.25,0v-1.92a1.214,1.214,0,0,0-1.12-1.13A1.066,1.066,0,0,0,1090.78,1412.11Zm-10.82,7.9v1.92a1.125,1.125,0,0,0,2.25,0v-1.92A1.125,1.125,0,1,0,1079.96,1420.01Zm5.41,0v1.92a1.125,1.125,0,0,0,2.25,0v-1.92a1.126,1.126,0,0,0-1.12-1.13A1.066,1.066,0,0,0,1085.37,1420.01Zm5.41,0v1.92a1.125,1.125,0,0,0,2.25,0v-1.92a1.126,1.126,0,0,0-1.12-1.13A1.066,1.066,0,0,0,1090.78,1420.01Zm-10.82,7.9v1.91a1.125,1.125,0,1,0,2.25,0v-1.91A1.125,1.125,0,1,0,1079.96,1427.91Zm5.41,0v1.91a1.125,1.125,0,1,0,2.25,0v-1.91a1.126,1.126,0,0,0-1.12-1.13A1.066,1.066,0,0,0,1085.37,1427.91Zm5.41,0v1.91a1.125,1.125,0,1,0,2.25,0v-1.91a1.126,1.126,0,0,0-1.12-1.13A1.066,1.066,0,0,0,1090.78,1427.91Zm-10.82,7.78v1.92a1.125,1.125,0,1,0,2.25,0v-1.92a1.132,1.132,0,0,0-1.12-1.13A1.066,1.066,0,0,0,1079.96,1435.69Zm5.41,0v1.92a1.125,1.125,0,1,0,2.25,0v-1.92a1.214,1.214,0,0,0-1.12-1.13A1.066,1.066,0,0,0,1085.37,1435.69Zm5.41,0v1.92a1.125,1.125,0,1,0,2.25,0v-1.92a1.214,1.214,0,0,0-1.12-1.13A1.066,1.066,0,0,0,1090.78,1435.69Zm-10.82,7.9v1.92a1.125,1.125,0,1,0,2.25,0v-1.92A1.125,1.125,0,1,0,1079.96,1443.59Zm5.41,0v1.92a1.125,1.125,0,1,0,2.25,0v-1.92a1.126,1.126,0,0,0-1.12-1.13A1.066,1.066,0,0,0,1085.37,1443.59Zm5.41,0v1.92a1.125,1.125,0,1,0,2.25,0v-1.92a1.126,1.126,0,0,0-1.12-1.13A1.066,1.066,0,0,0,1090.78,1443.59Zm48.23,11.17a1.063,1.063,0,0,0-1.12-1.13h-3.38v-46.26a1.078,1.078,0,0,0-.68-1.01l-23.67-10.72v-18.5a1.063,1.063,0,0,0-1.12-1.13h-21.75a1.066,1.066,0,0,0-1.13,1.13v27.3h-11.72a1.066,1.066,0,0,0-1.13,1.13v48.17h-4.17a1.13,1.13,0,1,0,0,2.26l68.75-.11h0A1.063,1.063,0,0,0,1139.01,1454.76Zm-6.76-1.02H1110.5v-55.51l21.75,9.93v45.58Zm-24.34-75.48v75.37h-8.34v-7.11h4.62a1.125,1.125,0,1,0,0-2.25h-4.62v-6.55h4.62a1.125,1.125,0,1,0,0-2.25h-4.62v-6.55h4.62a1.125,1.125,0,1,0,0-2.25h-4.62v-6.55h4.62a1.125,1.125,0,1,0,0-2.25h-4.62v-6.44h4.62a1.125,1.125,0,1,0,0-2.25h-4.62v-3.73a1.063,1.063,0,0,0-1.13-1.12h-10.03v-26.07h19.5Zm-10.59,28.32v47.05h-21.76v-47.05h21.76Zm6.98-21.43a1.13,1.13,0,1,0,0-2.26h-12.39a1.13,1.13,0,1,0,0,2.26h12.39Zm0,8.68a1.125,1.125,0,1,0,0-2.25h-12.39a1.125,1.125,0,1,0,0,2.25h12.39Zm-0.11,6.55h-12.4a1.125,1.125,0,0,0,0,2.25h12.4A1.125,1.125,0,1,0,1104.19,1400.38Z" transform="translate(-1014 -1344)"/>
</svg>
