<svg id="ic-offices-own" xmlns="http://www.w3.org/2000/svg" width="180" height="112" viewBox="0 0 180 112">
  <metadata><?xpacket begin="﻿" id="W5M0MpCehiHzreSzNTczkc9d"?>
<x:xmpmeta xmlns:x="adobe:ns:meta/" x:xmptk="Adobe XMP Core 5.6-c142 79.160924, 2017/07/13-01:06:39        ">
   <rdf:RDF xmlns:rdf="http://www.w3.org/1999/02/22-rdf-syntax-ns#">
      <rdf:Description rdf:about=""/>
   </rdf:RDF>
</x:xmpmeta>
                                                                                                    
                                                                                                    
                                                                                                    
                                                                                                    
                                                                                                    
                                                                                                    
                                                                                                    
                                                                                                    
                                                                                                    
                                                                                                    
                                                                                                    
                                                                                                    
                                                                                                    
                                                                                                    
                                                                                                    
                                                                                                    
                                                                                                    
                                                                                                    
                                                                                                    
                                                                                                    
                           
<?xpacket end="w"?></metadata>
<defs>
    <style>
      .cls-1 {
        fill: #ebf7fb;
      }

      .cls-2 {
        fill: #65aaa9;
      }

      .cls-3 {
        fill: #0c1319;
        fill-rule: evenodd;
      }
    </style>
  </defs>
  <rect id="Прямоугольник_513" data-name="Прямоугольник 513" class="cls-1" width="180" height="90"/>
  <g id="ic-off-own">
    <rect id="Прямоугольник_1029" data-name="Прямоугольник 1029" class="cls-2" x="109" y="97" width="7" height="8"/>
    <rect id="Прямоугольник_1029-2" data-name="Прямоугольник 1029" class="cls-2" x="98" y="73" width="7" height="8"/>
    <rect id="Прямоугольник_1029-3" data-name="Прямоугольник 1029" class="cls-2" x="66" y="57" width="7" height="8"/>
    <rect id="Прямоугольник_1029-4" data-name="Прямоугольник 1029" class="cls-2" x="77" y="81" width="7" height="8"/>
    <rect id="Прямоугольник_1029-5" data-name="Прямоугольник 1029" class="cls-2" x="66" y="97" width="7" height="8"/>
    <path id="Заливка_цветом_34" data-name="Заливка цветом 34" class="cls-3" d="M496.332,1412.11v1.92a1.129,1.129,0,1,0,2.258,0v-1.92a1.219,1.219,0,0,0-1.129-1.13A1.066,1.066,0,0,0,496.332,1412.11Zm5.305,0v1.92a1.129,1.129,0,1,0,2.257,0v-1.92a1.135,1.135,0,0,0-1.129-1.13A1.066,1.066,0,0,0,501.637,1412.11Zm5.417,0v1.92a1.129,1.129,0,1,0,2.258,0v-1.92a1.135,1.135,0,0,0-1.129-1.13A1.066,1.066,0,0,0,507.054,1412.11Zm-10.722-8.35v1.92a1.129,1.129,0,1,0,2.258,0v-1.92a1.219,1.219,0,0,0-1.129-1.13A1.072,1.072,0,0,0,496.332,1403.76Zm5.305,0v1.92a1.129,1.129,0,1,0,2.257,0v-1.92a1.135,1.135,0,0,0-1.129-1.13A1.071,1.071,0,0,0,501.637,1403.76Zm5.417,0v1.92a1.129,1.129,0,1,0,2.258,0v-1.92a1.135,1.135,0,0,0-1.129-1.13A1.072,1.072,0,0,0,507.054,1403.76Zm-10.722,16.25v1.92a1.129,1.129,0,0,0,2.258,0v-1.92a1.131,1.131,0,0,0-1.129-1.13A1.066,1.066,0,0,0,496.332,1420.01Zm5.305,0v1.92a1.129,1.129,0,0,0,2.257,0v-1.92A1.129,1.129,0,1,0,501.637,1420.01Zm5.417,0v1.92a1.129,1.129,0,0,0,2.258,0v-1.92A1.129,1.129,0,1,0,507.054,1420.01Zm-10.722,7.78v1.92a1.129,1.129,0,1,0,2.258,0v-1.92a1.21,1.21,0,0,0-1.129-1.12A1.064,1.064,0,0,0,496.332,1427.79Zm5.305,0v1.92a1.129,1.129,0,1,0,2.257,0v-1.92a1.126,1.126,0,0,0-1.129-1.12A1.063,1.063,0,0,0,501.637,1427.79Zm5.417,0v1.92a1.129,1.129,0,1,0,2.258,0v-1.92a1.127,1.127,0,0,0-1.129-1.12A1.064,1.064,0,0,0,507.054,1427.79Zm-10.722,7.9v1.92a1.129,1.129,0,1,0,2.258,0v-1.92a1.131,1.131,0,0,0-1.129-1.13A1.066,1.066,0,0,0,496.332,1435.69Zm5.305,0v1.92a1.129,1.129,0,1,0,2.257,0v-1.92A1.129,1.129,0,1,0,501.637,1435.69Zm5.417,0v1.92a1.129,1.129,0,1,0,2.258,0v-1.92A1.129,1.129,0,1,0,507.054,1435.69Zm-10.722,7.79v1.91a1.129,1.129,0,1,0,2.258,0v-1.91a1.211,1.211,0,0,0-1.129-1.13A1.066,1.066,0,0,0,496.332,1443.48Zm5.305,0v1.91a1.129,1.129,0,1,0,2.257,0v-1.91a1.128,1.128,0,0,0-1.129-1.13A1.066,1.066,0,0,0,501.637,1443.48Zm5.417,0v1.91a1.129,1.129,0,1,0,2.258,0v-1.91a1.129,1.129,0,0,0-1.129-1.13A1.066,1.066,0,0,0,507.054,1443.48Zm21.671-31.37v1.92a1.129,1.129,0,1,0,2.257,0v-1.92a1.135,1.135,0,0,0-1.129-1.13A1.066,1.066,0,0,0,528.725,1412.11Zm5.417,0v1.92a1.129,1.129,0,1,0,2.258,0v-1.92a1.219,1.219,0,0,0-1.129-1.13A1.066,1.066,0,0,0,534.142,1412.11Zm5.3,0v1.92a1.129,1.129,0,1,0,2.257,0v-1.92a1.134,1.134,0,0,0-1.128-1.13A1.066,1.066,0,0,0,539.447,1412.11Zm-10.722,7.9v1.92a1.129,1.129,0,0,0,2.257,0v-1.92A1.129,1.129,0,1,0,528.725,1420.01Zm5.417,0v1.92a1.129,1.129,0,0,0,2.258,0v-1.92a1.131,1.131,0,0,0-1.129-1.13A1.066,1.066,0,0,0,534.142,1420.01Zm5.3,0v1.92a1.129,1.129,0,0,0,2.257,0v-1.92A1.129,1.129,0,1,0,539.447,1420.01Zm-10.722,7.78v1.92a1.129,1.129,0,1,0,2.257,0v-1.92a1.126,1.126,0,0,0-1.129-1.12A1.063,1.063,0,0,0,528.725,1427.79Zm5.417,0v1.92a1.129,1.129,0,1,0,2.258,0v-1.92a1.21,1.21,0,0,0-1.129-1.12A1.064,1.064,0,0,0,534.142,1427.79Zm5.3,0v1.92a1.129,1.129,0,1,0,2.257,0v-1.92a1.126,1.126,0,0,0-1.128-1.12A1.064,1.064,0,0,0,539.447,1427.79Zm-10.722,7.9v1.92a1.129,1.129,0,1,0,2.257,0v-1.92A1.129,1.129,0,1,0,528.725,1435.69Zm5.417,0v1.92a1.129,1.129,0,1,0,2.258,0v-1.92a1.131,1.131,0,0,0-1.129-1.13A1.066,1.066,0,0,0,534.142,1435.69Zm5.3,0v1.92a1.129,1.129,0,1,0,2.257,0v-1.92A1.129,1.129,0,1,0,539.447,1435.69Zm-10.722,7.79v1.91a1.129,1.129,0,1,0,2.257,0v-1.91a1.128,1.128,0,0,0-1.129-1.13A1.066,1.066,0,0,0,528.725,1443.48Zm5.417,0v1.91a1.129,1.129,0,1,0,2.258,0v-1.91a1.211,1.211,0,0,0-1.129-1.13A1.066,1.066,0,0,0,534.142,1443.48Zm5.3,0v1.91a1.129,1.129,0,1,0,2.257,0v-1.91a1.128,1.128,0,0,0-1.128-1.13A1.066,1.066,0,0,0,539.447,1443.48Zm8.916,10.15v-46.26a1.072,1.072,0,0,0-.677-1.01l-24.04-10.95a1.334,1.334,0,0,0-1.129.12,1.137,1.137,0,0,0-.564.9v57.2h-6.1v-76.49a1.087,1.087,0,0,0-.677-1.02,1.24,1.24,0,0,0-1.242.11l-23.814,19.41a1.37,1.37,0,0,0-.452.9v57.2h-5.53a1.13,1.13,0,0,0,0,2.26h68.735a1.066,1.066,0,0,0,1.129-1.13,1.232,1.232,0,0,0-1.129-1.24h-4.515Zm-2.257-45.58v45.58H524.323v-55.4Zm-32.392-28.55v74.13H491.93v-56.64Z" transform="translate(-428 -1344)"/>
  </g>
</svg>
