<svg id="ic-smallspace" xmlns="http://www.w3.org/2000/svg" width="180" height="112" viewBox="0 0 180 112">
  <metadata><?xpacket begin="﻿" id="W5M0MpCehiHzreSzNTczkc9d"?>
<x:xmpmeta xmlns:x="adobe:ns:meta/" x:xmptk="Adobe XMP Core 5.6-c142 79.160924, 2017/07/13-01:06:39        ">
   <rdf:RDF xmlns:rdf="http://www.w3.org/1999/02/22-rdf-syntax-ns#">
      <rdf:Description rdf:about=""/>
   </rdf:RDF>
</x:xmpmeta>
                                                                                                    
                                                                                                    
                                                                                                    
                                                                                                    
                                                                                                    
                                                                                                    
                                                                                                    
                                                                                                    
                                                                                                    
                                                                                                    
                                                                                                    
                                                                                                    
                                                                                                    
                                                                                                    
                                                                                                    
                                                                                                    
                                                                                                    
                                                                                                    
                                                                                                    
                                                                                                    
                           
<?xpacket end="w"?></metadata>
<defs>
    <style>
      .cls-1 {
        fill: #ebf7fb;
      }

      .cls-2 {
        fill: none;
        stroke: #000;
        stroke-width: 2px;
      }

      .cls-2, .cls-3, .cls-4, .cls-6 {
        fill-rule: evenodd;
      }

      .cls-3 {
        fill: #0c1319;
      }

      .cls-4, .cls-5 {
        fill: #fff;
      }

      .cls-6 {
        fill: #65aaa9;
      }
    </style>
  </defs>
  <rect id="Прямоугольник_513" data-name="Прямоугольник 513" class="cls-1" width="180" height="90"/>
  <g id="s">
    <path id="Прямоугольник_скругл._углы_1" data-name="Прямоугольник, скругл. углы 1" class="cls-2" d="M1924,1351.99h25a2.006,2.006,0,0,1,2,2v25a2.006,2.006,0,0,1-2,2h-25a2.006,2.006,0,0,1-2-2v-25A2.006,2.006,0,0,1,1924,1351.99Z" transform="translate(-1914 -1344)"/>
    <path id="Прямоугольник_скругл._углы_1-2" data-name="Прямоугольник, скругл. углы 1" class="cls-2" d="M1932.27,1360.23h16a2.006,2.006,0,0,1,2,2v16a2.006,2.006,0,0,1-2,2h-16a2.006,2.006,0,0,1-2-2v-16A2.006,2.006,0,0,1,1932.27,1360.23Z" transform="translate(-1914 -1344)"/>
    <path id="Прямоугольник_скругл._углы_1-3" data-name="Прямоугольник, скругл. углы 1" class="cls-3" d="M1940.57,1368.47h8a2.006,2.006,0,0,1,2,2v8a2.006,2.006,0,0,1-2,2h-8a2.006,2.006,0,0,1-2-2v-8A2.006,2.006,0,0,1,1940.57,1368.47Z" transform="translate(-1914 -1344)"/>
    <path id="S-2" data-name="S" class="cls-3" d="M1942.29,1392.42h-0.61c-0.05.18-.1,0.38-0.15,0.62s-0.1.49-.14,0.75-0.09.52-.13,0.79a6.637,6.637,0,0,0-.07.73,1.644,1.644,0,0,0,.5.25,7.783,7.783,0,0,0,.76.23c0.29,0.06.6,0.12,0.92,0.16a7.733,7.733,0,0,0,.96.06,4.623,4.623,0,0,0,2.96-.81,2.773,2.773,0,0,0,1.01-2.29,2.451,2.451,0,0,0-.36-1.37,3.771,3.771,0,0,0-.9-0.97,7.019,7.019,0,0,0-1.17-.74c-0.42-.21-0.82-0.43-1.18-0.64a4.368,4.368,0,0,1-.89-0.72,1.363,1.363,0,0,1-.36-0.96,1.121,1.121,0,0,1,.43-0.95,1.726,1.726,0,0,1,1.07-.33,3.379,3.379,0,0,1,.72.08,2.264,2.264,0,0,1,.53.16l0.69,2.03h0.61c0.04-.14.09-0.33,0.13-0.55s0.09-.46.13-0.71,0.07-.51.1-0.77,0.04-.48.05-0.68a5.814,5.814,0,0,0-1.41-.39,10,10,0,0,0-1.69-.13,5.571,5.571,0,0,0-1.39.17,3.351,3.351,0,0,0-1.11.52,2.425,2.425,0,0,0-.74.88,2.784,2.784,0,0,0-.27,1.26,2.692,2.692,0,0,0,.35,1.42,3.643,3.643,0,0,0,.89.99,7.944,7.944,0,0,0,1.15.72c0.4,0.2.79,0.4,1.15,0.61a4.252,4.252,0,0,1,.88.68,1.275,1.275,0,0,1,.35.92,1.4,1.4,0,0,1-.54,1.18,2.172,2.172,0,0,1-1.37.42,1.8,1.8,0,0,1-.79-0.14,1.526,1.526,0,0,1-.46-0.3Z" transform="translate(-1914 -1344)"/>
  </g>
  <path id="Эллипс_1" data-name="Эллипс 1" class="cls-4" d="M1994.02,1440c1.76,0,3.2,2.15,3.2,4.8s-1.44,4.79-3.2,4.79-3.21-2.14-3.21-4.79S1992.25,1440,1994.02,1440Z" transform="translate(-1914 -1344)"/>
  <path id="Эллипс_1-2" data-name="Эллипс 1" class="cls-4" d="M1986.81,1424c2.21,0,4,2.5,4,5.59s-1.79,5.6-4,5.6-4-2.51-4-5.6S1984.6,1424,1986.81,1424Z" transform="translate(-1914 -1344)"/>
  <ellipse id="Эллипс_1-3" data-name="Эллипс 1" class="cls-5" cx="65.2" cy="98.39" rx="3.61" ry="4.8"/>
  <path id="Прямоугольник_512" data-name="Прямоугольник 512" class="cls-6" d="M2038.8,1404.78h8v9h-8v-9Z" transform="translate(-1914 -1344)"/>
  <path id="Прямоугольник_512-2" data-name="Прямоугольник 512" class="cls-6" d="M2002,1441.58h8v9h-8v-9Z" transform="translate(-1914 -1344)"/>
  <path id="Прямоугольник_512-3" data-name="Прямоугольник 512" class="cls-6" d="M2002,1393.58h8v9h-8v-9Z" transform="translate(-1914 -1344)"/>
  <path id="Прямоугольник_512-4" data-name="Прямоугольник 512" class="cls-6" d="M2026.02,1429.78h8v8h-8v-8Z" transform="translate(-1914 -1344)"/>
  <path id="build" class="cls-3" d="M2052.99,1453.98h-3.37v-52.64h0.92a0.958,0.958,0,0,0,1.02-1.01v-6.8a0.958,0.958,0,0,0-1.02-1.01h-3.99v-3.45a0.958,0.958,0,0,0-1.02-1.01h-4.9a0.961,0.961,0,0,0-1.03,1.01v3.45h-13.89v-3.04h1.02a0.966,0.966,0,0,0,1.02-1.02v-6.79a0.966,0.966,0,0,0-1.02-1.02h-0.92V1377a0.958,0.958,0,0,0-1.02-1.01h-23.71a0.958,0.958,0,0,0-1.02,1.01v3.65h-0.92a0.961,0.961,0,0,0-1.02,1.02v6.79a0.961,0.961,0,0,0,1.02,1.02h0.92v64.5h-4.91v-3.04a4.564,4.564,0,0,0,3.48-4.26v-2.64a4.5,4.5,0,0,0-9,0v2.64a4.271,4.271,0,0,0,3.48,4.26v3.04h-5.52v-17.45a5.325,5.325,0,0,0,4.39-5.27v-3.35a5.415,5.415,0,0,0-10.83,0v3.35a5.349,5.349,0,0,0,4.4,5.27v17.45h-5.11v-4.77a4.05,4.05,0,0,0,3.06-3.95v-5.08a4.085,4.085,0,0,0-8.17,0v5.08a4.148,4.148,0,0,0,3.06,3.95v4.77h-3.37a1.015,1.015,0,1,0,0,2.03h77.97a1.1,1.1,0,0,0,1.02-1.02A0.958,0.958,0,0,0,2052.99,1453.98Zm-75.62-8.72v-5.08a2.045,2.045,0,0,1,4.09,0v5.08A2.045,2.045,0,0,1,1977.37,1445.26Zm5.83-14v-3.35a3.37,3.37,0,0,1,6.74,0v3.35A3.37,3.37,0,0,1,1983.2,1431.26Zm8.38,15.31v-2.63a2.45,2.45,0,0,1,4.9,0v2.63a2.414,2.414,0,0,1-2.45,2.44A2.478,2.478,0,0,1,1991.58,1446.57Zm55.89-45.23v52.54h-21.76v-52.54h21.76Zm-23.71-11.86v3.04h-0.92a0.958,0.958,0,0,0-1.02,1.01v6.8a0.958,0.958,0,0,0,1.02,1.01h0.92v52.54H2002.1v-64.4h21.66Zm-21.66-8.83v-2.63h21.77v2.63H2002.1Zm-1.94,2.03h25.65v4.77h-25.65v-4.77Zm41.49,9.84v-2.44h2.86v2.44h-2.86Zm7.76,6.79h-25.54v-4.76h25.65v4.76h-0.11Zm-31.16,12.99v-4.57a1.02,1.02,0,0,1,2.04,0v4.57a1.1,1.1,0,0,1-1.02,1.01A0.963,0.963,0,0,1,2018.25,1412.3Zm-6.44,0v-4.57a1.02,1.02,0,0,1,2.04,0v4.57a1.1,1.1,0,0,1-1.02,1.01A0.963,0.963,0,0,1,2011.81,1412.3Zm-6.44,0v-4.57a1.02,1.02,0,0,1,2.04,0v4.57a1.015,1.015,0,0,1-1.02,1.01A0.963,0.963,0,0,1,2005.37,1412.3Zm12.88,11.96v-4.56a1.02,1.02,0,0,1,2.04,0v4.56a1.1,1.1,0,0,1-1.02,1.02A0.966,0.966,0,0,1,2018.25,1424.26Zm-6.44,0v-4.56a1.02,1.02,0,1,1,2.04,0v4.56a1.1,1.1,0,0,1-1.02,1.02A0.966,0.966,0,0,1,2011.81,1424.26Zm-6.44,0v-4.56a1.02,1.02,0,0,1,2.04,0v4.56a1.017,1.017,0,0,1-1.02,1.02A0.966,0.966,0,0,1,2005.37,1424.26Zm12.88-23.93v-4.57a1.02,1.02,0,0,1,2.04,0v4.57a1.015,1.015,0,0,1-1.02,1.01A0.958,0.958,0,0,1,2018.25,1400.33Zm-6.44,0v-4.57a1.02,1.02,0,0,1,2.04,0v4.57a1.015,1.015,0,0,1-1.02,1.01A0.958,0.958,0,0,1,2011.81,1400.33Zm-6.44,0v-4.57a1.02,1.02,0,0,1,2.04,0v4.57A1.02,1.02,0,0,1,2005.37,1400.33Zm12.88,35.9v-4.56a1.02,1.02,0,0,1,2.04,0v4.56a1.088,1.088,0,0,1-1.02,1.01A0.958,0.958,0,0,1,2018.25,1436.23Zm-6.44,0v-4.56a1.02,1.02,0,0,1,2.04,0v4.56a1.088,1.088,0,0,1-1.02,1.01A0.958,0.958,0,0,1,2011.81,1436.23Zm-6.44,0v-4.56a1.02,1.02,0,0,1,2.04,0v4.56a1.009,1.009,0,0,1-1.02,1.01A0.958,0.958,0,0,1,2005.37,1436.23Zm12.88,11.97v-4.57a1.02,1.02,0,0,1,2.04,0v4.57a1.1,1.1,0,0,1-1.02,1.01A0.958,0.958,0,0,1,2018.25,1448.2Zm-6.44,0v-4.57a1.02,1.02,0,0,1,2.04,0v4.57a1.1,1.1,0,0,1-1.02,1.01A0.958,0.958,0,0,1,2011.81,1448.2Zm-6.44,0v-4.57a1.02,1.02,0,0,1,2.04,0v4.57a1.015,1.015,0,0,1-1.02,1.01A0.958,0.958,0,0,1,2005.37,1448.2Zm36.69-35.9v-4.57a1.02,1.02,0,0,1,2.04,0v4.57a1.1,1.1,0,0,1-1.02,1.01A0.958,0.958,0,0,1,2042.06,1412.3Zm-6.44,0v-4.57a1.02,1.02,0,0,1,2.04,0v4.57a1.1,1.1,0,0,1-1.02,1.01A0.963,0.963,0,0,1,2035.62,1412.3Zm-6.44,0v-4.57a1.02,1.02,0,0,1,2.04,0v4.57a1.015,1.015,0,0,1-1.02,1.01A0.963,0.963,0,0,1,2029.18,1412.3Zm12.88,11.96v-4.56a1.02,1.02,0,1,1,2.04,0v4.56a1.1,1.1,0,0,1-1.02,1.02A0.961,0.961,0,0,1,2042.06,1424.26Zm-6.44,0v-4.56a1.02,1.02,0,0,1,2.04,0v4.56a1.1,1.1,0,0,1-1.02,1.02A0.966,0.966,0,0,1,2035.62,1424.26Zm-6.44,0v-4.56a1.02,1.02,0,0,1,2.04,0v4.56a1.017,1.017,0,0,1-1.02,1.02A0.966,0.966,0,0,1,2029.18,1424.26Zm12.88,11.97v-4.56a1.02,1.02,0,0,1,2.04,0v4.56a1.088,1.088,0,0,1-1.02,1.01A0.953,0.953,0,0,1,2042.06,1436.23Zm-6.44,0v-4.56a1.02,1.02,0,0,1,2.04,0v4.56a1.088,1.088,0,0,1-1.02,1.01A0.958,0.958,0,0,1,2035.62,1436.23Zm-6.44,0v-4.56a1.02,1.02,0,0,1,2.04,0v4.56a1.009,1.009,0,0,1-1.02,1.01A0.958,0.958,0,0,1,2029.18,1436.23Zm12.88,11.97v-4.57a1.02,1.02,0,0,1,2.04,0v4.57a1.1,1.1,0,0,1-1.02,1.01A0.953,0.953,0,0,1,2042.06,1448.2Zm-6.44,0v-4.57a1.02,1.02,0,0,1,2.04,0v4.57a1.1,1.1,0,0,1-1.02,1.01A0.958,0.958,0,0,1,2035.62,1448.2Zm-6.44,0v-4.57a1.02,1.02,0,0,1,2.04,0v4.57a1.015,1.015,0,0,1-1.02,1.01A0.958,0.958,0,0,1,2029.18,1448.2Z" transform="translate(-1914 -1344)"/>
</svg>
