<svg id="ic-tenant" xmlns="http://www.w3.org/2000/svg" width="104" height="120" viewBox="0 0 104 120">
  <metadata><?xpacket begin="﻿" id="W5M0MpCehiHzreSzNTczkc9d"?>
<x:xmpmeta xmlns:x="adobe:ns:meta/" x:xmptk="Adobe XMP Core 5.6-c142 79.160924, 2017/07/13-01:06:39        ">
   <rdf:RDF xmlns:rdf="http://www.w3.org/1999/02/22-rdf-syntax-ns#">
      <rdf:Description rdf:about=""/>
   </rdf:RDF>
</x:xmpmeta>
                                                                                                    
                                                                                                    
                                                                                                    
                                                                                                    
                                                                                                    
                                                                                                    
                                                                                                    
                                                                                                    
                                                                                                    
                                                                                                    
                                                                                                    
                                                                                                    
                                                                                                    
                                                                                                    
                                                                                                    
                                                                                                    
                                                                                                    
                                                                                                    
                                                                                                    
                                                                                                    
                           
<?xpacket end="w"?></metadata>
<defs>
    <style>
      .cls-1 {
        fill: #ebf7fb;
      }

      .cls-1, .cls-2, .cls-3, .cls-4 {
        fill-rule: evenodd;
      }

      .cls-2 {
        fill: #0c1319;
      }

      .cls-3 {
        fill: #65aaa9;
      }
    </style>
  </defs>
  <path id="Прямоугольник_505" data-name="Прямоугольник 505" class="cls-1" d="M1945,2982h72.14v120H1945V2982Z" transform="translate(-1945 -2982)"/>
  <path id="Заливка_цветом_1" data-name="Заливка цветом 1" class="cls-2" d="M2016.3,3017.16h0.12a20.416,20.416,0,0,0,9.74-2.76,29.465,29.465,0,0,0,6.49-4.68l0.6-.6-0.6-.6a28.456,28.456,0,0,0-11.54-6.72,17.877,17.877,0,0,0-4.21-.6h-1.2a16.913,16.913,0,0,0-4.21.6,28.371,28.371,0,0,0-11.54,6.72l-0.61.6,0.61,0.6a29.172,29.172,0,0,0,6.49,4.68,20.794,20.794,0,0,0,9.86,2.76h0Zm0-14.28h0.12a6.181,6.181,0,0,1,6.13,6.24,6.282,6.282,0,0,1-6.25,6.24h0a6.26,6.26,0,0,1-6.14-6.24A6.341,6.341,0,0,1,2016.3,3002.88Zm6.25,11.16a7.873,7.873,0,0,0,1.68-4.92,7.631,7.631,0,0,0-1.68-4.92,28.5,28.5,0,0,1,8.05,4.92,23.284,23.284,0,0,1-5.29,3.72A27.452,27.452,0,0,1,2022.55,3014.04Zm-14.19-4.92a7.631,7.631,0,0,0,1.68,4.92c-0.84-.36-1.8-0.72-2.76-1.2a26.518,26.518,0,0,1-5.29-3.72,28.648,28.648,0,0,1,8.05-4.92A7.873,7.873,0,0,0,2008.36,3009.12Z" transform="translate(-1945 -2982)"/>
  <path id="Заливка_цветом_2" data-name="Заливка цветом 2" class="cls-3" d="M2016.42,3006.48a2.64,2.64,0,1,0,2.64,2.64A2.666,2.666,0,0,0,2016.42,3006.48Zm-0.12,1.8a0.84,0.84,0,1,1-.84.84A0.82,0.82,0,0,1,2016.3,3008.28Z" transform="translate(-1945 -2982)"/>
  <path id="Заливка_цветом_3" data-name="Заливка цветом 3" class="cls-3" d="M2006.72,3064.69l0.35-4.78,1.8,0.13-0.35,4.78Z" transform="translate(-1945 -2982)"/>
  <path id="Заливка_цветом_4" data-name="Заливка цветом 4" class="cls-3" d="M2024.22,3059.95l1.8-.13,0.35,4.79-1.8.13Z" transform="translate(-1945 -2982)"/>
  <path id="Заливка_цветом_5" data-name="Заливка цветом 5" class="cls-3" d="M2016.54,3047.76a7.08,7.08,0,1,0,0-14.16,7.183,7.183,0,0,0-7.1,7.08A7.1,7.1,0,0,0,2016.54,3047.76Zm0-1.8a5.28,5.28,0,1,1,5.29-5.28A5.329,5.329,0,0,1,2016.54,3045.96Z" transform="translate(-1945 -2982)"/>
  <path id="Заливка_цветом_6" data-name="Заливка цветом 6" class="cls-3" d="M2047.68,3055.92a5.321,5.321,0,0,0-2.65-2.16l-3.97-1.44-3.36,6.24h-0.72l-3.37-6.24-3.49,1.32c-0.12-.12-0.12-0.36-0.24-0.48a5.936,5.936,0,0,0-3.24-2.64l-5.05-1.8-4.45,8.04h-1.2l-4.45-8.16-5.05,1.8a6.412,6.412,0,0,0-3.25,2.64c-0.12.12-.12,0.36-0.24,0.48l-3.49-1.2-3.36,6.24h-0.72l-3.37-6.24-3.97,1.44a4.5,4.5,0,0,0-2.52,2.16,6.591,6.591,0,0,0-.84,2.76c0,0.48-.36,2.88-0.49,6l1.69,0.12c0.12-3.24.48-5.88,0.48-5.88v-0.12a4.527,4.527,0,0,1,.6-1.92,3.318,3.318,0,0,1,1.56-1.32l2.53-.96,3.12,5.88h2.89l3.13-5.88,2.04,0.72a4.922,4.922,0,0,0-.12,1.32s-0.48,3.84-.72,8.16l1.8,0.12a49.315,49.315,0,0,1,.72-8.04,5.283,5.283,0,0,1,.84-2.64,4.569,4.569,0,0,1,2.29-1.92l3.61-1.32,4.2,7.68h3.49l4.21-7.68,3.61,1.32a4,4,0,0,1,2.28,1.92,5.365,5.365,0,0,1,.84,2.76s0.48,3.72.6,8.04l1.81-.12a47.459,47.459,0,0,0-.72-8.04c0-.48-0.13-0.96-0.13-1.44l2.05-.72,3.12,5.88h2.77l3.13-5.88,2.52,0.96a3.1,3.1,0,0,1,1.68,1.32,4.53,4.53,0,0,1,.61,1.92v0.12s0.36,2.64.48,5.88l1.8-.12a48.972,48.972,0,0,0-.48-6.12A4.932,4.932,0,0,0,2047.68,3055.92Z" transform="translate(-1945 -2982)"/>
  <path id="Заливка_цветом_7" data-name="Заливка цветом 7" class="cls-3" d="M2042.96,3061.32l1.8-.13,0.27,3.47-1.8.13Z" transform="translate(-1945 -2982)"/>
  <path id="Заливка_цветом_8" data-name="Заливка цветом 8" class="cls-3" d="M2031.69,3046.56a5.65,5.65,0,1,0,5.65-5.64A5.636,5.636,0,0,0,2031.69,3046.56Zm1.8-.12a3.845,3.845,0,1,1,3.85,3.84A3.793,3.793,0,0,1,2033.49,3046.44Z" transform="translate(-1945 -2982)"/>
  <path id="Заливка_цветом_9" data-name="Заливка цветом 9" class="cls-3" d="M1988,3064.67l0.26-3.47,1.8,0.14-0.26,3.47Z" transform="translate(-1945 -2982)"/>
  <path id="Заливка_цветом_10" data-name="Заливка цветом 10" class="cls-3" d="M2001.39,3046.44a5.65,5.65,0,1,0-5.65,5.64A5.642,5.642,0,0,0,2001.39,3046.44Zm-1.81.12a3.791,3.791,0,0,1-3.84,3.84,3.9,3.9,0,0,1-3.85-3.96A3.846,3.846,0,0,1,1999.58,3046.56Z" transform="translate(-1945 -2982)"/>
  <path id="Заливка_цветом_11" data-name="Заливка цветом 11" class="cls-4" d="M2032.41,3015.24l4.21-3.12a20.383,20.383,0,0,1-39.92,1.44l-1.8.36a22.214,22.214,0,0,0,21.64,17.04,16.082,16.082,0,0,0,2.4-.12,22.062,22.062,0,0,0,19.48-18.36l3.01,4.08,1.44-1.08-4.81-6.6-6.73,4.92Z" transform="translate(-1945 -2982)"/>
  <path id="Заливка_цветом_12" data-name="Заливка цветом 12" class="cls-4" d="M2000.67,3002.52l-4.21,3.12a20.383,20.383,0,0,1,39.92-1.44l1.8-.36a22.451,22.451,0,0,0-24.05-16.92,22.043,22.043,0,0,0-19.35,18.36l-3.01-4.08-1.44,1.08,4.81,6.6,6.61-4.92Z" transform="translate(-1945 -2982)"/>
  <path id="Заливка_цветом_2-2" data-name="Заливка цветом 2" class="cls-4" d="M2035.05,3083.28v2.76h-2.76v-1.92h-1.81v1.92h-2.76v-1.32h-1.8v1.32h-22.49v-3a6.25,6.25,0,0,0-12.5,0v7.8a6.25,6.25,0,1,0,12.5.12v-3h38.84v-1.8h-5.53v-2.76m-39.68-4.68a4.438,4.438,0,0,1,4.45,4.44v7.8a4.45,4.45,0,0,1-8.9,0v-7.8A4.438,4.438,0,0,1,1997.06,3078.72Z" transform="translate(-1945 -2982)"/>
  <path id="Заливка_цветом_3-2" data-name="Заливка цветом 3" class="cls-4" d="M1999.83,3090.96v-7.8a2.65,2.65,0,0,0-5.3,0v7.8a2.526,2.526,0,0,0,2.65,2.64A2.672,2.672,0,0,0,1999.83,3090.96Zm-2.77-8.64a0.82,0.82,0,0,1,.84.84v7.8a0.84,0.84,0,0,1-1.68,0v-7.8A0.82,0.82,0,0,1,1997.06,3082.32Z" transform="translate(-1945 -2982)"/>
  <path id="_1" data-name="1" class="cls-3" d="M1959.55,3000.54c-0.27-.12-0.53-0.23-0.8-0.32s-0.53-.16-0.8-0.23v-10.38h-0.4a6.83,6.83,0,0,1-1.46.9,14.043,14.043,0,0,1-1.52.6l0.08,0.39a5.487,5.487,0,0,0,1-.06,4.176,4.176,0,0,0,.92-0.25l-0.06.95v7.85c-0.28.07-.55,0.14-0.82,0.23a7.179,7.179,0,0,0-.81.32V3001h4.67v-0.46Z" transform="translate(-1945 -2982)"/>
</svg>
