<svg id="pin_it-share" data-name="pin it-share" xmlns="http://www.w3.org/2000/svg" width="76" height="25" viewBox="0 0 76 25">
  <metadata><?xpacket begin="﻿" id="W5M0MpCehiHzreSzNTczkc9d"?>
<x:xmpmeta xmlns:x="adobe:ns:meta/" x:xmptk="Adobe XMP Core 5.6-c142 79.160924, 2017/07/13-01:06:39        ">
   <rdf:RDF xmlns:rdf="http://www.w3.org/1999/02/22-rdf-syntax-ns#">
      <rdf:Description rdf:about=""/>
   </rdf:RDF>
</x:xmpmeta>
                                                                                                    
                                                                                                    
                                                                                                    
                                                                                                    
                                                                                                    
                                                                                                    
                                                                                                    
                                                                                                    
                                                                                                    
                                                                                                    
                                                                                                    
                                                                                                    
                                                                                                    
                                                                                                    
                                                                                                    
                                                                                                    
                                                                                                    
                                                                                                    
                                                                                                    
                                                                                                    
                           
<?xpacket end="w"?></metadata>
<defs>
    <style>
      .cls-1 {
        fill: #c9353d;
      }

      .cls-2 {
        fill: #fff;
        fill-rule: evenodd;
      }
    </style>
  </defs>
  <rect id="bg" class="cls-1" width="76" height="25" rx="2" ry="2"/>
  <path id="Pin_It" data-name="Pin It" class="cls-2" d="M761.633,1064.33h1.918v-3.2h1.008a5.082,5.082,0,0,0,1.372-.18,3.2,3.2,0,0,0,1.127-.53,2.6,2.6,0,0,0,.763-0.9,2.85,2.85,0,0,0,.28-1.3,2.687,2.687,0,0,0-.238-1.15,2.348,2.348,0,0,0-.679-0.84,2.946,2.946,0,0,0-1.064-.53,4.661,4.661,0,0,0-1.393-.19h-3.094v8.82Zm1.918-7.36h0.938a2.045,2.045,0,0,1,1.176.32,1.15,1.15,0,0,1,.462,1.01,1.354,1.354,0,0,1-.14.65,1.2,1.2,0,0,1-.385.42,1.5,1.5,0,0,1-.574.22,3.121,3.121,0,0,1-.693.07h-0.784v-2.69Zm7.847,7.36v-6.67h-1.862v6.67H771.4Zm-0.182-8.38a0.98,0.98,0,0,0-.007-1.35,1.114,1.114,0,0,0-1.477,0,0.989,0.989,0,0,0,0,1.35A1.123,1.123,0,0,0,771.216,1055.95Zm3.9,3.75a2.489,2.489,0,0,1,.721-0.55,1.639,1.639,0,0,1,.763-0.21,0.915,0.915,0,0,1,.742.3,1.266,1.266,0,0,1,.252.82v4.27h1.862v-4.46a2.4,2.4,0,0,0-.588-1.75,2.267,2.267,0,0,0-1.694-.6,2.886,2.886,0,0,0-1.225.25,3.555,3.555,0,0,0-1.015.74l-0.224-.85h-1.456v6.67h1.862v-4.63Zm9.389-4.19v8.82h1.918v-8.82h-1.918Zm7.739,2.15h-1.778v-2.06h-1.848v2.06h-1.036V1059h1.036v3.4a1.876,1.876,0,0,0,.518,1.45,2.525,2.525,0,0,0,1.736.48,4.122,4.122,0,0,0,1.008-.11,3.917,3.917,0,0,0,.714-0.22l-0.28-1.3a2,2,0,0,1-.476.15,2.872,2.872,0,0,1-.574.06,0.88,0.88,0,0,1-.581-0.18,0.8,0.8,0,0,1-.217-0.65V1059h1.778v-1.34Z" transform="translate(-725 -1047)"/>
  <path id="ic-pinterest" class="cls-2" d="M741.348,1052a6.5,6.5,0,0,0-4.748,1.8,5.282,5.282,0,0,0-1.6,3.69,3.456,3.456,0,0,0,1.9,3.44,0.687,0.687,0,0,0,.239.05,0.538,0.538,0,0,0,.519-0.43c0.04-.14.134-0.51,0.174-0.67a0.632,0.632,0,0,0-.172-0.69,2.147,2.147,0,0,1-.5-1.49,3.788,3.788,0,0,1,3.957-3.78c2.039,0,3.306,1.14,3.306,2.98a6.1,6.1,0,0,1-.714,3.02,2.107,2.107,0,0,1-1.747,1.2,1.175,1.175,0,0,1-.922-0.41,1.034,1.034,0,0,1-.185-0.91c0.091-.38.215-0.77,0.335-1.15a7.077,7.077,0,0,0,.425-1.89,1.372,1.372,0,0,0-1.4-1.5,2.18,2.18,0,0,0-1.894,2.42,3.529,3.529,0,0,0,.261,1.35c-0.134.56-.929,3.88-1.08,4.5-0.087.37-.613,3.25,0.257,3.48,0.977,0.26,1.85-2.55,1.939-2.87,0.072-.25.324-1.23,0.479-1.83a2.965,2.965,0,0,0,1.97.75,4.419,4.419,0,0,0,3.527-1.74,6.9,6.9,0,0,0,1.327-4.26,4.882,4.882,0,0,0-1.557-3.52A5.921,5.921,0,0,0,741.348,1052Z" transform="translate(-725 -1047)"/>
</svg>
