<svg id="facebook-share" xmlns="http://www.w3.org/2000/svg" width="78" height="25" viewBox="0 0 78 25">
  <metadata><?xpacket begin="﻿" id="W5M0MpCehiHzreSzNTczkc9d"?>
<x:xmpmeta xmlns:x="adobe:ns:meta/" x:xmptk="Adobe XMP Core 5.6-c142 79.160924, 2017/07/13-01:06:39        ">
   <rdf:RDF xmlns:rdf="http://www.w3.org/1999/02/22-rdf-syntax-ns#">
      <rdf:Description rdf:about=""/>
   </rdf:RDF>
</x:xmpmeta>
                                                                                                    
                                                                                                    
                                                                                                    
                                                                                                    
                                                                                                    
                                                                                                    
                                                                                                    
                                                                                                    
                                                                                                    
                                                                                                    
                                                                                                    
                                                                                                    
                                                                                                    
                                                                                                    
                                                                                                    
                                                                                                    
                                                                                                    
                                                                                                    
                                                                                                    
                                                                                                    
                           
<?xpacket end="w"?></metadata>
<defs>
    <style>
      .cls-1 {
        fill: #4867aa;
      }

      .cls-2 {
        fill: #fff;
        fill-rule: evenodd;
      }
    </style>
  </defs>
  <rect id="bg" class="cls-1" width="78" height="25" rx="2" ry="2"/>
  <path id="Share" class="cls-2" d="M454.1,1055.56a3,3,0,0,0-1.022.54,2.236,2.236,0,0,0-.623.83,2.674,2.674,0,0,0-.21,1.06,2.418,2.418,0,0,0,.161.93,2.126,2.126,0,0,0,.448.7,3.11,3.11,0,0,0,.693.51,6.343,6.343,0,0,0,.9.4l0.742,0.25a5.2,5.2,0,0,1,.749.28,2.266,2.266,0,0,1,.455.3,0.81,0.81,0,0,1,.231.31,0.844,0.844,0,0,1,.063.33,0.888,0.888,0,0,1-.378.76,1.924,1.924,0,0,1-1.12.27,4.332,4.332,0,0,1-1.2-.16,7.747,7.747,0,0,1-1.176-.45l-0.434,1.42a6.5,6.5,0,0,0,2.9.65,4.654,4.654,0,0,0,1.47-.21,2.95,2.95,0,0,0,1.05-.58,2.278,2.278,0,0,0,.63-0.85,2.661,2.661,0,0,0,.21-1.05,2.236,2.236,0,0,0-.6-1.58,3.909,3.909,0,0,0-1.645-1l-0.84-.26a3.948,3.948,0,0,1-1.036-.46,0.826,0.826,0,0,1-.322-0.7,0.846,0.846,0,0,1,.371-0.72,1.749,1.749,0,0,1,1.043-.26,3.789,3.789,0,0,1,1.036.14,6.4,6.4,0,0,1,1.106.43l0.434-1.43a5.38,5.38,0,0,0-1.176-.43,6.234,6.234,0,0,0-1.512-.17A4.271,4.271,0,0,0,454.1,1055.56Zm7.8,4.03a2.468,2.468,0,0,1,.693-0.47,1.759,1.759,0,0,1,.749-0.18,1.058,1.058,0,0,1,.812.3,1.386,1.386,0,0,1,.28.98v4.11h1.862v-4.43a3.131,3.131,0,0,0-.14-0.96,1.892,1.892,0,0,0-1.155-1.25,2.715,2.715,0,0,0-1.029-.17,3.043,3.043,0,0,0-1.141.21,3.525,3.525,0,0,0-.931.53v-3.92h-1.862v9.99H461.9v-4.74Zm6.866-.11a4.583,4.583,0,0,1,.945-0.41,3.088,3.088,0,0,1,.833-0.13,1.344,1.344,0,0,1,.805.22,0.8,0.8,0,0,1,.287.68v0.41h-0.84a6.19,6.19,0,0,0-1.253.12,3.591,3.591,0,0,0-1.015.39,2.034,2.034,0,0,0-.679.68,1.923,1.923,0,0,0-.245.99,2.2,2.2,0,0,0,.147.81,1.731,1.731,0,0,0,.441.65,2.279,2.279,0,0,0,.714.44,2.858,2.858,0,0,0,.966.16,2.78,2.78,0,0,0,1.155-.23,2.236,2.236,0,0,0,.819-0.61H471.9l0.168,0.68h1.442v-4.34a2.961,2.961,0,0,0-.189-1.12,1.876,1.876,0,0,0-.546-0.77,2.216,2.216,0,0,0-.854-0.44,3.806,3.806,0,0,0-1.1-.14,5.5,5.5,0,0,0-1.428.18,5.8,5.8,0,0,0-1.274.54Zm2.884,2.98a1.583,1.583,0,0,1-.5.49,1.271,1.271,0,0,1-.693.21,1.2,1.2,0,0,1-.651-0.18,0.687,0.687,0,0,1-.287-0.65,0.762,0.762,0,0,1,.336-0.62,2.168,2.168,0,0,1,1.19-.29l0.6-.01v1.05Zm5.333,1.87v-3.37a2.041,2.041,0,0,1,.455-1.49,1.563,1.563,0,0,1,1.141-.46,1.884,1.884,0,0,1,.56.07,2.058,2.058,0,0,1,.392.14l0.308-1.47a1.741,1.741,0,0,0-.42-0.16,2.024,2.024,0,0,0-.574-0.07,2.046,2.046,0,0,0-1.3.4,2.427,2.427,0,0,0-.756.94l-0.21-1.2h-1.442v6.67h1.848Zm9.252-3.68a3.171,3.171,0,0,0-.805-2.31,2.881,2.881,0,0,0-2.163-.82,3.552,3.552,0,0,0-1.372.25,3.2,3.2,0,0,0-1.057.73,3.018,3.018,0,0,0-.679,1.11,4.185,4.185,0,0,0-.238,1.45,3.712,3.712,0,0,0,.294,1.54,2.97,2.97,0,0,0,.791,1.06,3.15,3.15,0,0,0,1.162.62,4.691,4.691,0,0,0,1.421.21,5.976,5.976,0,0,0,1.358-.14,4.253,4.253,0,0,0,.952-0.31l-0.336-1.3a5.052,5.052,0,0,1-.777.26,3.664,3.664,0,0,1-.987.12,2.47,2.47,0,0,1-1.442-.4,1.343,1.343,0,0,1-.56-1.19v-0.05h4.438v-0.83Zm-4.4-.42a1.669,1.669,0,0,1,.434-1.02,1.235,1.235,0,0,1,.924-0.38,1.15,1.15,0,0,1,.518.11,1.186,1.186,0,0,1,.35.3,1.3,1.3,0,0,1,.2.45,2.059,2.059,0,0,1,.063.51Z" transform="translate(-416 -1047)"/>
  <path id="ic-facebook" class="cls-2" d="M433.173,1059.72h2.355l0.357-2.85h-2.712v-1.84a1.564,1.564,0,0,1,.285-1.02,1.378,1.378,0,0,1,1.071-.33l1.463-.04v-2.52a17.047,17.047,0,0,0-2.106-.11,3.453,3.453,0,0,0-2.569.98,3.778,3.778,0,0,0-.963,2.78v2.1H428v2.85h2.355v7.29h2.819v-7.29Z" transform="translate(-416 -1047)"/>
</svg>
