<svg id="ic-building" xmlns="http://www.w3.org/2000/svg" width="180" height="113" viewBox="0 0 180 113">
  <metadata><?xpacket begin="﻿" id="W5M0MpCehiHzreSzNTczkc9d"?>
<x:xmpmeta xmlns:x="adobe:ns:meta/" x:xmptk="Adobe XMP Core 5.6-c142 79.160924, 2017/07/13-01:06:39        ">
   <rdf:RDF xmlns:rdf="http://www.w3.org/1999/02/22-rdf-syntax-ns#">
      <rdf:Description rdf:about=""/>
   </rdf:RDF>
</x:xmpmeta>
                                                                                                    
                                                                                                    
                                                                                                    
                                                                                                    
                                                                                                    
                                                                                                    
                                                                                                    
                                                                                                    
                                                                                                    
                                                                                                    
                                                                                                    
                                                                                                    
                                                                                                    
                                                                                                    
                                                                                                    
                                                                                                    
                                                                                                    
                                                                                                    
                                                                                                    
                                                                                                    
                           
<?xpacket end="w"?></metadata>
<defs>
    <style>
      .cls-1 {
        fill: #ebf7fb;
      }

      .cls-2 {
        fill: none;
      }

      .cls-2, .cls-3 {
        stroke: #000;
        stroke-width: 2px;
      }

      .cls-2, .cls-4 {
        fill-rule: evenodd;
      }

      .cls-4 {
        fill: #0c1319;
      }

      .cls-5 {
        fill: #65aaa9;
      }
    </style>
  </defs>
  <rect id="Прямоугольник_513" data-name="Прямоугольник 513" class="cls-1" width="180" height="90"/>
  <g id="s">
    <path id="Прямоугольник_скругл._углы_1" data-name="Прямоугольник, скругл. углы 1" class="cls-2" d="M2803,1351.99h25a2.006,2.006,0,0,1,2,2v25a2.006,2.006,0,0,1-2,2h-25a2.006,2.006,0,0,1-2-2v-25A2.006,2.006,0,0,1,2803,1351.99Z" transform="translate(-2793 -1344)"/>
    <rect id="Прямоугольник_скругл._углы_1-2" data-name="Прямоугольник, скругл. углы 1" class="cls-3" x="13" y="13" width="19" height="19" rx="2" ry="2"/>
    <path id="S-2" data-name="S" class="cls-4" d="M2837.29,1369.42h-0.61c-0.05.18-.1,0.38-0.15,0.62s-0.1.49-.14,0.75-0.09.52-.13,0.79a6.637,6.637,0,0,0-.07.73,1.644,1.644,0,0,0,.5.25,7.783,7.783,0,0,0,.76.23c0.29,0.06.6,0.12,0.92,0.16a7.733,7.733,0,0,0,.96.06,4.623,4.623,0,0,0,2.96-.81,2.773,2.773,0,0,0,1.01-2.29,2.451,2.451,0,0,0-.36-1.37,3.771,3.771,0,0,0-.9-0.97,7.019,7.019,0,0,0-1.17-.74c-0.42-.21-0.82-0.43-1.18-0.64a4.368,4.368,0,0,1-.89-0.72,1.363,1.363,0,0,1-.36-0.96,1.121,1.121,0,0,1,.43-0.95,1.72,1.72,0,0,1,1.07-.32,3.383,3.383,0,0,1,.72.07,2.264,2.264,0,0,1,.53.16l0.69,2.03h0.61c0.04-.14.09-0.33,0.13-0.55s0.09-.46.13-0.71,0.07-.51.1-0.77,0.04-.48.05-0.68a5.814,5.814,0,0,0-1.41-.39,10,10,0,0,0-1.69-.13,5.571,5.571,0,0,0-1.39.17,3.351,3.351,0,0,0-1.11.52,2.425,2.425,0,0,0-.74.88,2.784,2.784,0,0,0-.27,1.26,2.692,2.692,0,0,0,.35,1.42,3.643,3.643,0,0,0,.89.99,7.944,7.944,0,0,0,1.15.72c0.4,0.2.79,0.4,1.15,0.61a4.252,4.252,0,0,1,.88.68,1.275,1.275,0,0,1,.35.92,1.4,1.4,0,0,1-.54,1.18,2.172,2.172,0,0,1-1.37.42,1.8,1.8,0,0,1-.79-0.14,1.526,1.526,0,0,1-.46-0.3Z" transform="translate(-2793 -1344)"/>
  </g>
  <rect id="Прямоугольник_515" data-name="Прямоугольник 515" class="cls-5" x="66" y="52" width="26" height="60"/>
  <rect id="Прямоугольник_515-2" data-name="Прямоугольник 515" class="cls-5" x="92" y="33" width="26" height="80"/>
  <rect id="Прямоугольник_515-3" data-name="Прямоугольник 515" class="cls-5" x="90" y="38" width="30" height="6"/>
  <path id="build" class="cls-4" d="M2918.01,1432.66v-3.18a1.02,1.02,0,1,0-2.04,0v3.18a1.017,1.017,0,0,0,1.02,1.02A0.966,0.966,0,0,0,2918.01,1432.66Zm5.31,0v-3.18a1.025,1.025,0,1,0-2.05,0v3.18a1.1,1.1,0,0,0,1.02,1.02A0.968,0.968,0,0,0,2923.32,1432.66Zm-5.31,8.42v-3.19a1.02,1.02,0,0,0-2.04,0v3.19A1.02,1.02,0,1,0,2918.01,1441.08Zm5.31,0v-3.19a1.025,1.025,0,0,0-2.05,0v3.19a1.023,1.023,0,0,0,1.02,1.02A0.968,0.968,0,0,0,2923.32,1441.08Zm-5.31-16.94v-3.18a1.02,1.02,0,1,0-2.04,0v3.18A1.02,1.02,0,1,0,2918.01,1424.14Zm5.31,0v-3.18a1.025,1.025,0,1,0-2.05,0v3.18a1.023,1.023,0,0,0,1.02,1.02A0.968,0.968,0,0,0,2923.32,1424.14Zm-5.31,25.46v-3.19a1.02,1.02,0,0,0-2.04,0v3.19A1.02,1.02,0,1,0,2918.01,1449.6Zm5.31,0v-3.19a1.025,1.025,0,0,0-2.05,0v3.19a1.023,1.023,0,0,0,1.02,1.02A0.968,0.968,0,0,0,2923.32,1449.6Zm6.02,5.23v-39.42h1.63a0.966,0.966,0,0,0,1.02-1.02v-6.27a0.966,0.966,0,0,0-1.02-1.02h-18.88v-17.45h1.12a0.968,0.968,0,0,0,1.02-1.03v-6.88a0.966,0.966,0,0,0-1.02-1.02h-1.12v-3.7a0.968,0.968,0,0,0-1.02-1.03h-26.34a0.968,0.968,0,0,0-1.02,1.03v3.7h-1.12a0.966,0.966,0,0,0-1.02,1.02v6.88a0.968,0.968,0,0,0,1.02,1.03h1.22v5.95H2858.6a0.968,0.968,0,0,0-1.02,1.03v58.3h-3.57a1.03,1.03,0,0,0,0,2.06h77.98a0.968,0.968,0,0,0,1.02-1.03,1.119,1.119,0,0,0-1.02-1.13h-2.65Zm-69.72,0v-5.23h24.3v5.23h-24.3Zm0-7.29v-5.44h24.3v5.44h-24.3Zm0-7.49v-5.44h24.3v5.44h-24.3Zm0-7.49v-5.45h24.3v5.45h-24.3Zm0-7.5v-5.44h24.3v5.44h-24.3Zm0-7.49v-5.44h24.3v5.44h-24.3Zm0-7.5v-5.44h24.3v5.44h-24.3Zm0-7.49v-5.03h24.3v5.03h-24.3Zm70.23,10.78h-17.76v-4.21h17.76v4.21Zm-19.8-35.42v2.67h-24.3v-2.67h24.3Zm-26.34,4.83h28.48v4.82h-28.48v-4.82Zm2.25,72.06v-5.23h24.09v5.23h-24.09Zm0-7.29v-5.44h24.09v5.44h-24.09Zm0-7.49v-5.44h24.09v5.44h-24.09Zm0-7.49v-5.45h24.09v5.45h-24.09Zm0-7.5v-5.44h24.09v5.44h-24.09Zm0-7.49v-5.44h24.09v5.44h-24.09Zm0-7.5v-5.44h24.09v5.44h-24.09Zm0-7.49v-5.03h24.09v5.03h-24.09Zm0-7.08v-5.96h24.09v5.96h-24.09Zm26.13,59.33v-39.42h15.21l-0.11,39.42h-15.1Z" transform="translate(-2793 -1344)"/>
</svg>
