<svg id="ic-cellphone" xmlns="http://www.w3.org/2000/svg" width="59.969" height="56.97" viewBox="0 0 59.969 56.97">
  <metadata><?xpacket begin="﻿" id="W5M0MpCehiHzreSzNTczkc9d"?>
<x:xmpmeta xmlns:x="adobe:ns:meta/" x:xmptk="Adobe XMP Core 5.6-c142 79.160924, 2017/07/13-01:06:39        ">
   <rdf:RDF xmlns:rdf="http://www.w3.org/1999/02/22-rdf-syntax-ns#">
      <rdf:Description rdf:about=""/>
   </rdf:RDF>
</x:xmpmeta>
                                                                                                    
                                                                                                    
                                                                                                    
                                                                                                    
                                                                                                    
                                                                                                    
                                                                                                    
                                                                                                    
                                                                                                    
                                                                                                    
                                                                                                    
                                                                                                    
                                                                                                    
                                                                                                    
                                                                                                    
                                                                                                    
                                                                                                    
                                                                                                    
                                                                                                    
                                                                                                    
                           
<?xpacket end="w"?></metadata>
<defs>
    <style>
      .cls-1 {
        fill: #65aaa9;
      }

      .cls-1, .cls-2 {
        fill-rule: evenodd;
      }

      .cls-2 {
        fill: #0c1319;
      }
    </style>
  </defs>
  <path id="Фигура_1" data-name="Фигура 1" class="cls-1" d="M452,1402v34H432l-4-6v-3l3-2,2-1-1-3-1-3-1-4v-12h22Z" transform="translate(-416.031 -1401.03)"/>
  <path id="Заливка_цветом_4" data-name="Заливка цветом 4" class="cls-2" d="M431.55,1401.02a2.55,2.55,0,0,0-2.55,2.55v11.55l-1.916-2.87a2.966,2.966,0,0,0-4-.9l-3.942,2.37a5.8,5.8,0,0,0-2.642,3.43c-1.438,5.23-.371,14.25,12.87,27.5,10.53,10.52,18.381,13.35,23.792,13.35a14.074,14.074,0,0,0,3.71-.48,5.817,5.817,0,0,0,3.428-2.64l2.367-3.95a2.955,2.955,0,0,0-.9-3.99l-9.439-6.3a2.988,2.988,0,0,0-3.988.65l-2.748,3.53a0.954,0.954,0,0,1-1.224.26l-0.523-.29c-1.721-.93-3.863-2.1-8.189-6.43-0.468-.47-0.892-0.9-1.29-1.32H473.45a2.553,2.553,0,0,0,2.55-2.54v-30.93a2.55,2.55,0,0,0-2.55-2.55h-41.9Zm11.846,45.81a2.952,2.952,0,0,0,3.775-.78l2.748-3.53a0.968,0.968,0,0,1,1.3-.21l9.439,6.29a0.967,0.967,0,0,1,.293,1.3l-2.367,3.95a3.834,3.834,0,0,1-2.241,1.74c-4.727,1.3-13,.2-25.556-12.36s-13.652-20.83-12.355-25.55a3.767,3.767,0,0,1,1.739-2.24l3.946-2.37a0.959,0.959,0,0,1,1.3.29l6.3,9.44a0.972,0.972,0,0,1-.211,1.3l-3.534,2.75a2.941,2.941,0,0,0-.778,3.77l0.28,0.51c1,1.83,2.243,4.12,6.774,8.65s6.812,5.77,8.645,6.77Zm30.054-11.79H432.562a25.514,25.514,0,0,1-3.337-4.86l-0.288-.53a0.953,0.953,0,0,1,.258-1.22l3.534-2.75a2.98,2.98,0,0,0,.647-3.99L431,1418.13v-14.56a0.545,0.545,0,0,1,.55-0.55h41.9a0.524,0.524,0,0,1,.39.16,0.532,0.532,0,0,1,.16.39v30.93A0.548,0.548,0,0,1,473.45,1435.04Zm-3.444-29.39-16.713,12.67a1.329,1.329,0,0,1-1.586,0L435,1405.65a1,1,0,1,0-1.209,1.59l16.709,12.68a3.391,3.391,0,0,0,4,0l16.714-12.68A1,1,0,1,0,470.006,1405.65Zm-36.284,25.32a1,1,0,1,0,1.463,1.36l10.244-10.97a1,1,0,0,0-1.463-1.36Zm25.964-11.02a1,1,0,0,0-.049,1.41l10.241,10.97a1,1,0,0,0,1.463-1.36L461.1,1420A1,1,0,0,0,459.686,1419.95Z" transform="translate(-416.031 -1401.03)"/>
</svg>
