<svg id="ic-consult" xmlns="http://www.w3.org/2000/svg" width="104" height="120" viewBox="0 0 104 120">
  <metadata><?xpacket begin="﻿" id="W5M0MpCehiHzreSzNTczkc9d"?>
<x:xmpmeta xmlns:x="adobe:ns:meta/" x:xmptk="Adobe XMP Core 5.6-c142 79.160924, 2017/07/13-01:06:39        ">
   <rdf:RDF xmlns:rdf="http://www.w3.org/1999/02/22-rdf-syntax-ns#">
      <rdf:Description rdf:about=""/>
   </rdf:RDF>
</x:xmpmeta>
                                                                                                    
                                                                                                    
                                                                                                    
                                                                                                    
                                                                                                    
                                                                                                    
                                                                                                    
                                                                                                    
                                                                                                    
                                                                                                    
                                                                                                    
                                                                                                    
                                                                                                    
                                                                                                    
                                                                                                    
                                                                                                    
                                                                                                    
                                                                                                    
                                                                                                    
                                                                                                    
                           
<?xpacket end="w"?></metadata>
<defs>
    <style>
      .cls-1 {
        fill: #93eae8;
      }

      .cls-1, .cls-2, .cls-3 {
        fill-rule: evenodd;
      }

      .cls-3 {
        fill: #65aaa9;
      }
    </style>
  </defs>
  <path id="Прямоугольник_505" data-name="Прямоугольник 505" class="cls-1" d="M2836,2982h72.14v120H2836V2982Z" transform="translate(-2836 -2982)"/>
  <path id="Заливка_цветом_1" data-name="Заливка цветом 1" class="cls-2" d="M2882.15,3035.21a23.706,23.706,0,0,0,1.48,8.25l2.21,4.43c0.37,0.49.62,1.11,0.99,1.6v0.12a73.99,73.99,0,0,1,7.27,18.84h-3.7v1.85h4.07a24.206,24.206,0,0,1,.49,2.59h-2.95v1.84h3.32c0.25,1.36.37,2.59,0.5,3.82v0.25a4.872,4.872,0,0,0,4.55,3.2h12.94a4.88,4.88,0,0,0,4.81-3.94,23.065,23.065,0,0,1,.49-3.33h3.08v-1.84h-2.83a17.9,17.9,0,0,1,.49-2.59h3.94v-1.85h-3.45a77.747,77.747,0,0,1,7.89-20.07,8.474,8.474,0,0,0,.62-1.11,24.323,24.323,0,0,0,3.2-13.42A24.725,24.725,0,0,0,2882.15,3035.21Zm31.17,44.94h-12.94a3.107,3.107,0,0,1-2.83-1.85c-0.12-1.1-.25-2.33-0.49-3.57h19.59c-0.12.99-.25,1.97-0.37,3.08A3.138,3.138,0,0,1,2913.32,3080.15Zm-16.51-7.26c-0.12-.5-0.37-2.1-0.49-2.59h21.19c-0.12.86-.37,1.72-0.49,2.59h-20.21Zm29.94-26.35c-0.24.37-.37,0.61-0.61,0.98a75.755,75.755,0,0,0-8.26,20.93h-21.93a73.4,73.4,0,0,0-7.64-19.94v-0.13a16.923,16.923,0,0,0-.86-1.47l-2.1-4.19a22.4,22.4,0,0,1-1.23-7.51,22.873,22.873,0,0,1,45.71-1.23,23.774,23.774,0,0,1-2.95,12.43Z" transform="translate(-2836 -2982)"/>
  <path id="Заливка_цветом_11" data-name="Заливка цветом 11" class="cls-3" d="M2926.69,3056.43l1.32-1.29,3.28,3.35-1.33,1.29Zm8.17-12.65,0.5-1.78,4.51,1.26-0.5,1.78Zm5.15-16.32-4.54,1.16-0.46-1.79,4.54-1.16Zm-12.75-13.47,3.35-3.27,1.29,1.32-3.35,3.27Zm-10.14-11.31-1.27,4.5-1.78-.5,1.27-4.5Zm-16.43,3.85-1.79.45-1.16-4.53,1.8-.46Zm-13.44,6.94-1.32,1.29-3.27-3.35,1.32-1.29Zm-13.07,13.27,0.5-1.78,4.51,1.26-0.5,1.78Zm-0.18,15.67,4.53-1.16,0.46,1.79-4.54,1.15Zm8.15,15.53,3.34-3.27,1.3,1.32-3.35,3.27Z" transform="translate(-2836 -2982)"/>
  <path id="Заливка_цветом_12" data-name="Заливка цветом 12" class="cls-2" d="M2898.41,3022.28a14.722,14.722,0,0,0-8.38,8.13,14.546,14.546,0,0,0-.12,11.57,14.256,14.256,0,0,0,3.94,5.66h0l0.74,0.62,0.74,0.62h0a14.683,14.683,0,0,0,8.63,2.7h0a15.192,15.192,0,0,0,11.95-5.78,14.223,14.223,0,0,0,3.08-7.27l0.12-.86-14.54-2.09-5.29-13.67Zm-6.77,19.08a13.3,13.3,0,0,1,6.65-16.99l4.68,11.82-7.88,10.1A12.624,12.624,0,0,1,2891.64,3041.36Zm12.32,8.38a13.556,13.556,0,0,1-7.52-2.34l4.19-5.17,3.82-4.81,12.69,1.85a13.983,13.983,0,0,1-2.71,5.42A13.453,13.453,0,0,1,2903.96,3049.74Z" transform="translate(-2836 -2982)"/>
  <path id="Заливка_цветом_13" data-name="Заливка цветом 13" class="cls-3" d="M2902.11,3018.21l-0.86.37,5.79,14.66,15.4,2.34,0.12-.87a15.527,15.527,0,0,0-12.69-17.36A15.25,15.25,0,0,0,2902.11,3018.21Zm6.16,13.43-4.68-11.82a12.34,12.34,0,0,1,6.04-.5,12.669,12.669,0,0,1,8.74,5.3,13.191,13.191,0,0,1,2.59,8.86Z" transform="translate(-2836 -2982)"/>
  <path id="_4" data-name="4" class="cls-3" d="M2851.35,3000.54a5.973,5.973,0,0,0-1.22-.39v-2.24h2.04v-0.83h-2.04v-7.47h-0.42l-5.9,7.93v0.37h4.88v2.24a8.722,8.722,0,0,0-1.47.39V3001h4.13v-0.46Zm-2.66-3.46h-2.68l-1.14.11,0.64-.53,2.69-3.69,0.62-1.16h0.05l-0.18,1.16v4.11Z" transform="translate(-2836 -2982)"/>
</svg>
