<svg id="ic-dinamic" xmlns="http://www.w3.org/2000/svg" width="180" height="112" viewBox="0 0 180 112">
  <metadata><?xpacket begin="﻿" id="W5M0MpCehiHzreSzNTczkc9d"?>
<x:xmpmeta xmlns:x="adobe:ns:meta/" x:xmptk="Adobe XMP Core 5.6-c142 79.160924, 2017/07/13-01:06:39        ">
   <rdf:RDF xmlns:rdf="http://www.w3.org/1999/02/22-rdf-syntax-ns#">
      <rdf:Description rdf:about=""/>
   </rdf:RDF>
</x:xmpmeta>
                                                                                                    
                                                                                                    
                                                                                                    
                                                                                                    
                                                                                                    
                                                                                                    
                                                                                                    
                                                                                                    
                                                                                                    
                                                                                                    
                                                                                                    
                                                                                                    
                                                                                                    
                                                                                                    
                                                                                                    
                                                                                                    
                                                                                                    
                                                                                                    
                                                                                                    
                                                                                                    
                           
<?xpacket end="w"?></metadata>
<defs>
    <style>
      .cls-1 {
        fill: #ebf7fb;
      }

      .cls-2 {
        fill: none;
        stroke: #000;
        stroke-width: 2px;
      }

      .cls-2, .cls-3, .cls-4, .cls-5 {
        fill-rule: evenodd;
      }

      .cls-3 {
        fill: #0c1319;
      }

      .cls-4 {
        fill: #fff;
      }

      .cls-5, .cls-6 {
        fill: #65aaa9;
      }
    </style>
  </defs>
  <rect id="Прямоугольник_513" data-name="Прямоугольник 513" class="cls-1" width="180" height="90"/>
  <g id="s">
    <path id="Прямоугольник_скругл._углы_1" data-name="Прямоугольник, скругл. углы 1" class="cls-2" d="M2217,1351.99h25a2.006,2.006,0,0,1,2,2v25a2.006,2.006,0,0,1-2,2h-25a2.006,2.006,0,0,1-2-2v-25A2.006,2.006,0,0,1,2217,1351.99Z" transform="translate(-2207 -1344)"/>
    <path id="Прямоугольник_скругл._углы_1-2" data-name="Прямоугольник, скругл. углы 1" class="cls-3" d="M2225.28,1360.23h16a2.006,2.006,0,0,1,2,2v16a2.006,2.006,0,0,1-2,2h-16a2.006,2.006,0,0,1-2-2v-16A2.006,2.006,0,0,1,2225.28,1360.23Z" transform="translate(-2207 -1344)"/>
    <path id="S-2" data-name="S" class="cls-3" d="M2232.29,1392.42h-0.61c-0.05.18-.1,0.38-0.15,0.62s-0.1.49-.14,0.75-0.09.52-.13,0.79a6.637,6.637,0,0,0-.07.73,1.644,1.644,0,0,0,.5.25,7.783,7.783,0,0,0,.76.23c0.29,0.06.6,0.12,0.92,0.16a7.733,7.733,0,0,0,.96.06,4.623,4.623,0,0,0,2.96-.81,2.773,2.773,0,0,0,1.01-2.29,2.451,2.451,0,0,0-.36-1.37,3.771,3.771,0,0,0-.9-0.97,7.019,7.019,0,0,0-1.17-.74c-0.42-.21-0.82-0.43-1.18-0.64a4.368,4.368,0,0,1-.89-0.72,1.363,1.363,0,0,1-.36-0.96,1.121,1.121,0,0,1,.43-0.95,1.726,1.726,0,0,1,1.07-.33,3.379,3.379,0,0,1,.72.08,2.264,2.264,0,0,1,.53.16l0.69,2.03h0.61c0.04-.14.09-0.33,0.13-0.55s0.09-.46.13-0.71,0.07-.51.1-0.77,0.04-.48.05-0.68a5.814,5.814,0,0,0-1.41-.39,10,10,0,0,0-1.69-.13,5.571,5.571,0,0,0-1.39.17,3.351,3.351,0,0,0-1.11.52,2.425,2.425,0,0,0-.74.88,2.784,2.784,0,0,0-.27,1.26,2.692,2.692,0,0,0,.35,1.42,3.643,3.643,0,0,0,.89.99,7.944,7.944,0,0,0,1.15.72c0.4,0.2.79,0.4,1.15,0.61a4.252,4.252,0,0,1,.88.68,1.275,1.275,0,0,1,.35.92,1.4,1.4,0,0,1-.54,1.18,2.172,2.172,0,0,1-1.37.42,1.8,1.8,0,0,1-.79-0.14,1.526,1.526,0,0,1-.46-0.3Z" transform="translate(-2207 -1344)"/>
  </g>
  <g id="build">
    <path id="Эллипс_1" data-name="Эллипс 1" class="cls-4" d="M2348.6,1435.99c2.21,0,4,2.51,4,5.61s-1.79,5.6-4,5.6-4-2.51-4-5.6S2346.39,1435.99,2348.6,1435.99Z" transform="translate(-2207 -1344)"/>
    <path id="Эллипс_1-2" data-name="Эллипс 1" class="cls-4" d="M2337.01,1439.19c1.98,0,3.59,2.15,3.59,4.81s-1.61,4.8-3.59,4.8-3.6-2.15-3.6-4.8S2335.02,1439.19,2337.01,1439.19Z" transform="translate(-2207 -1344)"/>
    <path id="Прямоугольник_512" data-name="Прямоугольник 512" class="cls-5" d="M2290.41,1405.58h15v9h-15v-9Z" transform="translate(-2207 -1344)"/>
    <path id="Прямоугольник_512-2" data-name="Прямоугольник 512" class="cls-5" d="M2282.22,1440.99h15v9h-15v-9Z" transform="translate(-2207 -1344)"/>
    <rect id="Прямоугольник_512-3" data-name="Прямоугольник 512" class="cls-6" x="106.41" y="74.38" width="15" height="19"/>
    <path id="build-2" data-name="build" class="cls-3" d="M2349.69,1454.07v-5.58a4.567,4.567,0,0,0,3.48-4.27v-5.68a4.5,4.5,0,0,0-8.99,0v5.68a4.283,4.283,0,0,0,3.47,4.27v5.58h-8.58v-3.05a4.536,4.536,0,0,0,3.47-4.26v-2.64a4.5,4.5,0,0,0-8.99,0v2.64a4.263,4.263,0,0,0,3.48,4.26v3.05h-6.95v-64.58H2331a0.958,0.958,0,0,0,1.02-1.01v-6.81a0.958,0.958,0,0,0-1.02-1.01h-0.92V1377a0.958,0.958,0,0,0-1.02-1.01h-23.91a0.958,0.958,0,0,0-1.02,1.01v3.66h-0.92a0.958,0.958,0,0,0-1.02,1.01v6.81a0.958,0.958,0,0,0,1.02,1.01h1.02v3.05h-13.79v-3.45a0.966,0.966,0,0,0-1.02-1.02h-4.91a0.966,0.966,0,0,0-1.02,1.02v3.45h-3.98a0.953,0.953,0,0,0-1.02,1.01v6.81a0.953,0.953,0,0,0,1.02,1.01h0.92v52.6h-4.4a1.015,1.015,0,1,0,0,2.03h77.95a0.968,0.968,0,0,0,1.03-1.02,0.858,0.858,0,0,0-.92-0.91h-4.4Zm-21.76-76.15v2.64h-21.76v-2.64h21.76Zm-39.53,12.18v2.44h-2.87v-2.44h2.87Zm-5.93,63.97v-52.7h21.76l0.1,52.7h-21.86Zm-1.84-54.73v-4.77h25.64v4.77h-25.64Zm25.75,54.73v-52.7h0.92a0.958,0.958,0,0,0,1.02-1.01v-6.81a0.958,0.958,0,0,0-1.02-1.01h-0.92v-3.05h21.65v64.58h-21.65Zm-2.15-66.61v-4.77h25.64v4.77h-25.64Zm31.36,56.56a2.455,2.455,0,0,1,4.91,0v2.64a2.455,2.455,0,0,1-4.91,0v-2.64Zm10.63-5.48a2.45,2.45,0,0,1,4.9,0v5.68a2.45,2.45,0,0,1-4.9,0v-5.68Zm-34.43-26.2v-4.57a1.02,1.02,0,0,0-2.04,0v4.57a1.088,1.088,0,0,0,1.02,1.01A0.958,0.958,0,0,0,2311.79,1412.34Zm6.44,0v-4.57a1.025,1.025,0,0,0-2.05,0v4.57a1.089,1.089,0,0,0,1.03,1.01A0.958,0.958,0,0,0,2318.23,1412.34Zm6.43,0v-4.57a1.02,1.02,0,0,0-2.04,0v4.57a1.088,1.088,0,0,0,1.02,1.01A0.958,0.958,0,0,0,2324.66,1412.34Zm-12.87,11.98v-4.57a1.02,1.02,0,0,0-2.04,0v4.57a1.1,1.1,0,0,0,1.02,1.02A0.966,0.966,0,0,0,2311.79,1424.32Zm6.44,0v-4.57a1.025,1.025,0,0,0-2.05,0v4.57a1.1,1.1,0,0,0,1.03,1.02A0.966,0.966,0,0,0,2318.23,1424.32Zm6.43,0v-4.57a1.02,1.02,0,0,0-2.04,0v4.57a1.1,1.1,0,0,0,1.02,1.02A0.966,0.966,0,0,0,2324.66,1424.32Zm-12.87-23.96v-4.57a1.02,1.02,0,1,0-2.04,0v4.57a1.015,1.015,0,0,0,1.02,1.01A0.958,0.958,0,0,0,2311.79,1400.36Zm6.44,0v-4.57a1.025,1.025,0,0,0-2.05,0v4.57a1.017,1.017,0,0,0,1.03,1.01A0.958,0.958,0,0,0,2318.23,1400.36Zm6.43,0v-4.57a1.02,1.02,0,1,0-2.04,0v4.57a1.015,1.015,0,0,0,1.02,1.01A0.958,0.958,0,0,0,2324.66,1400.36Zm-12.87,35.94v-4.57a1.02,1.02,0,0,0-2.04,0v4.57a1.1,1.1,0,0,0,1.02,1.02A0.966,0.966,0,0,0,2311.79,1436.3Zm6.44,0v-4.57a1.025,1.025,0,0,0-2.05,0v4.57a1.1,1.1,0,0,0,1.03,1.02A0.966,0.966,0,0,0,2318.23,1436.3Zm6.43,0v-4.57a1.02,1.02,0,0,0-2.04,0v4.57a1.1,1.1,0,0,0,1.02,1.02A0.966,0.966,0,0,0,2324.66,1436.3Zm-12.87,11.98v-4.57a1.02,1.02,0,0,0-2.04,0v4.57a1.1,1.1,0,0,0,1.02,1.02A0.966,0.966,0,0,0,2311.79,1448.28Zm6.44,0v-4.57a1.025,1.025,0,0,0-2.05,0v4.57a1.1,1.1,0,0,0,1.03,1.02A0.966,0.966,0,0,0,2318.23,1448.28Zm6.43,0v-4.57a1.02,1.02,0,0,0-2.04,0v4.57a1.1,1.1,0,0,0,1.02,1.02A0.966,0.966,0,0,0,2324.66,1448.28Zm-36.67-35.94v-4.57a1.025,1.025,0,0,0-2.05,0v4.57a1.089,1.089,0,0,0,1.03,1.01A0.958,0.958,0,0,0,2287.99,1412.34Zm6.43,0v-4.57a1.02,1.02,0,0,0-2.04,0v4.57a1.088,1.088,0,0,0,1.02,1.01A0.958,0.958,0,0,0,2294.42,1412.34Zm6.44,0v-4.57a1.02,1.02,0,0,0-2.04,0v4.57a1.009,1.009,0,0,0,1.02,1.01A0.958,0.958,0,0,0,2300.86,1412.34Zm-12.87,11.98v-4.57a1.025,1.025,0,0,0-2.05,0v4.57a1.1,1.1,0,0,0,1.03,1.02A0.966,0.966,0,0,0,2287.99,1424.32Zm6.43,0v-4.57a1.02,1.02,0,0,0-2.04,0v4.57a1.1,1.1,0,0,0,1.02,1.02A0.966,0.966,0,0,0,2294.42,1424.32Zm6.44,0v-4.57a1.02,1.02,0,0,0-2.04,0v4.57a1.017,1.017,0,0,0,1.02,1.02A0.966,0.966,0,0,0,2300.86,1424.32Zm-12.87,11.98v-4.57a1.025,1.025,0,0,0-2.05,0v4.57a1.1,1.1,0,0,0,1.03,1.02A0.966,0.966,0,0,0,2287.99,1436.3Zm6.43,0v-4.57a1.02,1.02,0,0,0-2.04,0v4.57a1.1,1.1,0,0,0,1.02,1.02A0.966,0.966,0,0,0,2294.42,1436.3Zm6.44,0v-4.57a1.02,1.02,0,0,0-2.04,0v4.57a1.017,1.017,0,0,0,1.02,1.02A0.966,0.966,0,0,0,2300.86,1436.3Zm-12.87,11.98v-4.57a1.025,1.025,0,0,0-2.05,0v4.57a1.1,1.1,0,0,0,1.03,1.02A0.966,0.966,0,0,0,2287.99,1448.28Zm6.43,0v-4.57a1.02,1.02,0,0,0-2.04,0v4.57a1.1,1.1,0,0,0,1.02,1.02A0.966,0.966,0,0,0,2294.42,1448.28Zm6.44,0v-4.57a1.02,1.02,0,0,0-2.04,0v4.57a1.017,1.017,0,0,0,1.02,1.02A0.966,0.966,0,0,0,2300.86,1448.28Z" transform="translate(-2207 -1344)"/>
  </g>
</svg>
