<svg id="ic-hotel-own" xmlns="http://www.w3.org/2000/svg" width="180" height="115" viewBox="0 0 180 115">
  <metadata><?xpacket begin="﻿" id="W5M0MpCehiHzreSzNTczkc9d"?>
<x:xmpmeta xmlns:x="adobe:ns:meta/" x:xmptk="Adobe XMP Core 5.6-c142 79.160924, 2017/07/13-01:06:39        ">
   <rdf:RDF xmlns:rdf="http://www.w3.org/1999/02/22-rdf-syntax-ns#">
      <rdf:Description rdf:about=""/>
   </rdf:RDF>
</x:xmpmeta>
                                                                                                    
                                                                                                    
                                                                                                    
                                                                                                    
                                                                                                    
                                                                                                    
                                                                                                    
                                                                                                    
                                                                                                    
                                                                                                    
                                                                                                    
                                                                                                    
                                                                                                    
                                                                                                    
                                                                                                    
                                                                                                    
                                                                                                    
                                                                                                    
                                                                                                    
                                                                                                    
                           
<?xpacket end="w"?></metadata>
<defs>
    <style>
      .cls-1 {
        fill: #ebf7fb;
      }

      .cls-2, .cls-4 {
        fill: #65aaa9;
      }

      .cls-3 {
        fill: #0c1319;
      }

      .cls-3, .cls-4 {
        fill-rule: evenodd;
      }
    </style>
  </defs>
  <rect id="Прямоугольник_513" data-name="Прямоугольник 513" class="cls-1" width="180" height="90"/>
  <rect id="Прямоугольник_1016" data-name="Прямоугольник 1016" class="cls-2" x="56" y="104" width="65" height="10"/>
  <g id="ic">
    <path id="Заливка_цветом_28" data-name="Заливка цветом 28" class="cls-3" d="M1369.47,1414.54v-5.02a1.205,1.205,0,1,0-2.41,0v5.02a1.218,1.218,0,0,0,1.21,1.23A1.147,1.147,0,0,0,1369.47,1414.54Zm5.56,0v-5.02a1.205,1.205,0,1,0-2.41,0v5.02A1.205,1.205,0,1,0,1375.03,1414.54Zm5.44,0v-5.02a1.21,1.21,0,1,0-2.42,0v5.02A1.21,1.21,0,1,0,1380.47,1414.54Zm-11,10.05v-5.03a1.205,1.205,0,1,0-2.41,0v5.03a1.3,1.3,0,0,0,1.21,1.22A1.144,1.144,0,0,0,1369.47,1424.59Zm5.56,0v-5.03a1.205,1.205,0,1,0-2.41,0v5.03a1.213,1.213,0,0,0,1.2,1.22A1.147,1.147,0,0,0,1375.03,1424.59Zm5.44,0v-5.03a1.21,1.21,0,1,0-2.42,0v5.03a1.222,1.222,0,0,0,1.21,1.22A1.147,1.147,0,0,0,1380.47,1424.59Zm33.6-10.05v-5.02a1.21,1.21,0,1,0-2.42,0v5.02A1.21,1.21,0,1,0,1414.07,1414.54Zm5.44,0v-5.02a1.21,1.21,0,1,0-2.42,0v5.02A1.21,1.21,0,1,0,1419.51,1414.54Zm5.44,0v-5.02a1.21,1.21,0,1,0-2.42,0v5.02a1.224,1.224,0,0,0,1.21,1.23A1.15,1.15,0,0,0,1424.95,1414.54Zm-10.88,10.05v-5.03a1.21,1.21,0,1,0-2.42,0v5.03a1.222,1.222,0,0,0,1.21,1.22A1.147,1.147,0,0,0,1414.07,1424.59Zm5.44,0v-5.03a1.21,1.21,0,1,0-2.42,0v5.03a1.222,1.222,0,0,0,1.21,1.22A1.147,1.147,0,0,0,1419.51,1424.59Zm5.44,0v-5.03a1.21,1.21,0,1,0-2.42,0v5.03a1.311,1.311,0,0,0,1.21,1.22A1.147,1.147,0,0,0,1424.95,1424.59Zm5.8,31.97v-52.43a1.15,1.15,0,0,0-1.21-1.23h-21.51v-7.71a1.473,1.473,0,0,0-.49-0.98l-10.75-7.97a1.108,1.108,0,0,0-1.45,0l-10.64,7.97a1.114,1.114,0,0,0-.48.98v7.71h-21.76a1.147,1.147,0,0,0-1.2,1.23v52.43h-2.06a1.225,1.225,0,0,0,0,2.45h73.6a1.225,1.225,0,0,0,0-2.45h-2.05Zm-39.28,0v-9.8a4.6,4.6,0,1,1,9.19,0l-0.13,9.8h-9.06Zm-2.42-9.68v9.8h-2.78v-25.36h19.58v25.36h-2.78v-9.8a7.136,7.136,0,0,0-7.01-7.1A7.064,7.064,0,0,0,1389.05,1446.88Zm39.28-15.56v25.36h-20.06v-25.36h20.06Zm0-2.45h-20.06v-23.52h20.06v23.52Zm-22.84-33.07v33.07h-18.85V1395.8l9.42-7.11Zm-21.63,33.07h-20.19v-23.52h20.19v23.52Zm-0.12,2.45v25.36h-20.07v-25.36h20.07Zm-16.93,7.35v2.09a1.21,1.21,0,1,0,2.42,0v-2.09a1.216,1.216,0,0,0-1.21-1.22A1.152,1.152,0,0,0,1366.81,1438.67Zm5.81,0v2.09a1.205,1.205,0,1,0,2.41,0v-2.09a1.216,1.216,0,0,0-1.21-1.22A1.144,1.144,0,0,0,1372.62,1438.67Zm5.68,0v2.09a1.205,1.205,0,1,0,2.41,0v-2.09A1.205,1.205,0,1,0,1378.3,1438.67Zm-11.49,8.46v2.08a1.21,1.21,0,1,0,2.42,0v-2.08a1.3,1.3,0,0,0-1.21-1.23A1.155,1.155,0,0,0,1366.81,1447.13Zm5.81,0v2.08a1.205,1.205,0,1,0,2.41,0v-2.08a1.3,1.3,0,0,0-1.21-1.23A1.147,1.147,0,0,0,1372.62,1447.13Zm5.68,0v2.08a1.205,1.205,0,1,0,2.41,0v-2.08a1.215,1.215,0,0,0-1.2-1.23A1.15,1.15,0,0,0,1378.3,1447.13Zm32.99-8.46v2.09a1.21,1.21,0,1,0,2.42,0v-2.09A1.21,1.21,0,1,0,1411.29,1438.67Zm5.8,0v2.09a1.21,1.21,0,1,0,2.42,0v-2.09a1.216,1.216,0,0,0-1.21-1.22A1.152,1.152,0,0,0,1417.09,1438.67Zm5.8,0v2.09a1.21,1.21,0,1,0,2.42,0v-2.09a1.216,1.216,0,0,0-1.21-1.22A1.152,1.152,0,0,0,1422.89,1438.67Zm-11.6,8.46v2.08a1.21,1.21,0,1,0,2.42,0v-2.08a1.217,1.217,0,0,0-1.21-1.23A1.15,1.15,0,0,0,1411.29,1447.13Zm5.8,0v2.08a1.21,1.21,0,1,0,2.42,0v-2.08a1.3,1.3,0,0,0-1.21-1.23A1.155,1.155,0,0,0,1417.09,1447.13Zm5.8,0v2.08a1.21,1.21,0,1,0,2.42,0v-2.08a1.3,1.3,0,0,0-1.21-1.23A1.155,1.155,0,0,0,1422.89,1447.13Zm-22.72-22.18a1.21,1.21,0,1,0,2.42,0v-15.31a1.21,1.21,0,1,0-2.42,0v15.31Zm-8.1,0v-15.31a1.205,1.205,0,1,0-2.41,0v15.31a1.3,1.3,0,0,0,1.21,1.23A1.147,1.147,0,0,0,1392.07,1424.95Zm2.91-15.31v15.31a1.205,1.205,0,1,0,2.41,0v-15.31a1.216,1.216,0,0,0-1.21-1.22A1.144,1.144,0,0,0,1394.98,1409.64Z" transform="translate(-1307 -1344)"/>
    <path id="Заливка_цветом_29" data-name="Заливка цветом 29" class="cls-4" d="M1401.26,1400.09a5.2,5.2,0,1,0-5.2,5.26A5.2,5.2,0,0,0,1401.26,1400.09Zm-2.42.12a2.78,2.78,0,1,1-2.78-2.82A2.758,2.758,0,0,1,1398.84,1400.21Z" transform="translate(-1307 -1344)"/>
  </g>
  <path id="star" class="cls-4" d="M1354.05,1374.81c1.62,6.71,2.42,6.12-3.54,2.53-6.02,3.63-5.2,4.21-3.54-2.53-5.35-4.49-5.67-3.53,1.34-4.08,2.69-6.34,1.72-6.34,4.38,0C1359.68,1371.28,1359.38,1370.34,1354.05,1374.81Z" transform="translate(-1307 -1344)"/>
  <path id="star-2" data-name="star" class="cls-4" d="M1377.05,1374.81c1.62,6.71,2.42,6.12-3.54,2.53-6.02,3.63-5.2,4.21-3.54-2.53-5.35-4.49-5.66-3.53,1.34-4.08,2.69-6.34,1.72-6.34,4.38,0C1382.68,1371.28,1382.38,1370.34,1377.05,1374.81Z" transform="translate(-1307 -1344)"/>
  <path id="star-3" data-name="star" class="cls-4" d="M1400.05,1374.81c1.62,6.71,2.42,6.12-3.54,2.53-6.02,3.63-5.2,4.21-3.54-2.53-5.35-4.49-5.66-3.53,1.34-4.08,2.69-6.34,1.72-6.34,4.38,0C1405.68,1371.28,1405.38,1370.34,1400.05,1374.81Z" transform="translate(-1307 -1344)"/>
  <path id="star-4" data-name="star" class="cls-4" d="M1423.05,1374.81c1.62,6.71,2.42,6.12-3.54,2.53-6.02,3.63-5.2,4.21-3.54-2.53-5.35-4.49-5.66-3.53,1.34-4.08,2.69-6.34,1.72-6.34,4.38,0C1428.68,1371.28,1428.38,1370.34,1423.05,1374.81Z" transform="translate(-1307 -1344)"/>
  <path id="star-5" data-name="star" class="cls-4" d="M1446.05,1374.81c1.62,6.71,2.42,6.12-3.54,2.53-6.02,3.63-5.2,4.21-3.54-2.53-5.35-4.49-5.66-3.53,1.34-4.08,2.69-6.34,1.72-6.34,4.38,0C1451.68,1371.28,1451.38,1370.34,1446.05,1374.81Z" transform="translate(-1307 -1344)"/>
</svg>
