<svg id="ic-owner" xmlns="http://www.w3.org/2000/svg" width="104" height="120" viewBox="0 0 104 120">
  <metadata><?xpacket begin="﻿" id="W5M0MpCehiHzreSzNTczkc9d"?>
<x:xmpmeta xmlns:x="adobe:ns:meta/" x:xmptk="Adobe XMP Core 5.6-c142 79.160924, 2017/07/13-01:06:39        ">
   <rdf:RDF xmlns:rdf="http://www.w3.org/1999/02/22-rdf-syntax-ns#">
      <rdf:Description rdf:about=""/>
   </rdf:RDF>
</x:xmpmeta>
                                                                                                    
                                                                                                    
                                                                                                    
                                                                                                    
                                                                                                    
                                                                                                    
                                                                                                    
                                                                                                    
                                                                                                    
                                                                                                    
                                                                                                    
                                                                                                    
                                                                                                    
                                                                                                    
                                                                                                    
                                                                                                    
                                                                                                    
                                                                                                    
                                                                                                    
                                                                                                    
                           
<?xpacket end="w"?></metadata>
<defs>
    <style>
      .cls-1 {
        fill: #def9f8;
      }

      .cls-1, .cls-2, .cls-3, .cls-4 {
        fill-rule: evenodd;
      }

      .cls-2 {
        fill: #0c1319;
      }

      .cls-3 {
        fill: #65aaa9;
      }
    </style>
  </defs>
  <path id="Прямоугольник_505" data-name="Прямоугольник 505" class="cls-1" d="M2242,2982h72.14v120H2242V2982Z" transform="translate(-2242 -2982)"/>
  <path id="Заливка_цветом_1" data-name="Заливка цветом 1" class="cls-2" d="M2313.3,3017.16h0.12a20.416,20.416,0,0,0,9.74-2.76,29.465,29.465,0,0,0,6.49-4.68l0.6-.6-0.6-.6a28.456,28.456,0,0,0-11.54-6.72,17.877,17.877,0,0,0-4.21-.6h-1.2a16.913,16.913,0,0,0-4.21.6,28.371,28.371,0,0,0-11.54,6.72l-0.61.6,0.61,0.6a29.172,29.172,0,0,0,6.49,4.68,20.794,20.794,0,0,0,9.86,2.76h0Zm0-14.28h0.12a6.181,6.181,0,0,1,6.13,6.24,6.282,6.282,0,0,1-6.25,6.24h0a6.252,6.252,0,0,1-6.13-6.24A6.332,6.332,0,0,1,2313.3,3002.88Zm6.25,11.16a7.873,7.873,0,0,0,1.68-4.92,7.631,7.631,0,0,0-1.68-4.92,28.5,28.5,0,0,1,8.05,4.92,23.284,23.284,0,0,1-5.29,3.72A27.452,27.452,0,0,1,2319.55,3014.04Zm-14.19-4.92a7.631,7.631,0,0,0,1.68,4.92c-0.84-.36-1.8-0.72-2.76-1.2a26.518,26.518,0,0,1-5.29-3.72,28.648,28.648,0,0,1,8.05-4.92A7.873,7.873,0,0,0,2305.36,3009.12Z" transform="translate(-2242 -2982)"/>
  <path id="Заливка_цветом_2" data-name="Заливка цветом 2" class="cls-3" d="M2313.42,3006.48a2.64,2.64,0,1,0,2.64,2.64A2.666,2.666,0,0,0,2313.42,3006.48Zm-0.12,1.8a0.84,0.84,0,1,1-.84.84A0.82,0.82,0,0,1,2313.3,3008.28Z" transform="translate(-2242 -2982)"/>
  <path id="Заливка_цветом_3" data-name="Заливка цветом 3" class="cls-3" d="M2303.72,3064.69l0.35-4.78,1.8,0.13-0.35,4.78Z" transform="translate(-2242 -2982)"/>
  <path id="Заливка_цветом_4" data-name="Заливка цветом 4" class="cls-3" d="M2321.22,3059.95l1.8-.13,0.35,4.79-1.8.13Z" transform="translate(-2242 -2982)"/>
  <path id="Заливка_цветом_5" data-name="Заливка цветом 5" class="cls-3" d="M2313.54,3047.76a7.08,7.08,0,1,0,0-14.16,7.183,7.183,0,0,0-7.1,7.08A7.1,7.1,0,0,0,2313.54,3047.76Zm0-1.8a5.28,5.28,0,1,1,5.29-5.28A5.329,5.329,0,0,1,2313.54,3045.96Z" transform="translate(-2242 -2982)"/>
  <path id="Заливка_цветом_6" data-name="Заливка цветом 6" class="cls-3" d="M2344.68,3055.92a5.321,5.321,0,0,0-2.65-2.16l-3.97-1.44-3.36,6.24h-0.72l-3.37-6.24-3.49,1.32c-0.12-.12-0.12-0.36-0.24-0.48a5.936,5.936,0,0,0-3.24-2.64l-5.05-1.8-4.45,8.04h-1.2l-4.45-8.16-5.05,1.8a6.412,6.412,0,0,0-3.25,2.64c-0.12.12-.12,0.36-0.24,0.48l-3.49-1.2-3.36,6.24h-0.72l-3.37-6.24-3.97,1.44a4.5,4.5,0,0,0-2.52,2.16,6.591,6.591,0,0,0-.84,2.76c0,0.48-.36,2.88-0.48,6l1.68,0.12c0.12-3.24.48-5.88,0.48-5.88v-0.12a4.527,4.527,0,0,1,.6-1.92,3.318,3.318,0,0,1,1.56-1.32l2.53-.96,3.12,5.88h2.89l3.13-5.88,2.04,0.72a4.922,4.922,0,0,0-.12,1.32s-0.48,3.84-.72,8.16l1.8,0.12a49.315,49.315,0,0,1,.72-8.04,5.283,5.283,0,0,1,.84-2.64,4.569,4.569,0,0,1,2.29-1.92l3.61-1.32,4.2,7.68h3.49l4.21-7.68,3.61,1.32a4,4,0,0,1,2.28,1.92,5.365,5.365,0,0,1,.84,2.76s0.48,3.72.6,8.04l1.81-.12a47.459,47.459,0,0,0-.72-8.04c0-.48-0.13-0.96-0.13-1.44l2.05-.72,3.12,5.88h2.77l3.13-5.88,2.52,0.96a3.1,3.1,0,0,1,1.68,1.32,4.53,4.53,0,0,1,.61,1.92v0.12s0.36,2.64.48,5.88l1.8-.12a48.972,48.972,0,0,0-.48-6.12A4.932,4.932,0,0,0,2344.68,3055.92Z" transform="translate(-2242 -2982)"/>
  <path id="Заливка_цветом_7" data-name="Заливка цветом 7" class="cls-3" d="M2339.96,3061.32l1.8-.13,0.27,3.47-1.8.13Z" transform="translate(-2242 -2982)"/>
  <path id="Заливка_цветом_8" data-name="Заливка цветом 8" class="cls-3" d="M2328.69,3046.56a5.65,5.65,0,1,0,5.65-5.64A5.636,5.636,0,0,0,2328.69,3046.56Zm1.8-.12a3.845,3.845,0,1,1,3.85,3.84A3.793,3.793,0,0,1,2330.49,3046.44Z" transform="translate(-2242 -2982)"/>
  <path id="Заливка_цветом_9" data-name="Заливка цветом 9" class="cls-3" d="M2285,3064.67l0.26-3.47,1.8,0.14-0.26,3.47Z" transform="translate(-2242 -2982)"/>
  <path id="Заливка_цветом_10" data-name="Заливка цветом 10" class="cls-3" d="M2298.39,3046.44a5.65,5.65,0,1,0-5.65,5.64A5.642,5.642,0,0,0,2298.39,3046.44Zm-1.81.12a3.791,3.791,0,0,1-3.84,3.84,3.9,3.9,0,0,1-3.85-3.96A3.846,3.846,0,0,1,2296.58,3046.56Z" transform="translate(-2242 -2982)"/>
  <path id="Заливка_цветом_11" data-name="Заливка цветом 11" class="cls-4" d="M2328.72,3002.04l4.21,3.12a20.383,20.383,0,0,0-39.92-1.44l-1.8-.36a22.214,22.214,0,0,1,21.64-17.04,16.082,16.082,0,0,1,2.4.12,22.062,22.062,0,0,1,19.48,18.36l3.01-4.08,1.44,1.08-4.81,6.6-6.73-4.92Z" transform="translate(-2242 -2982)"/>
  <path id="Заливка_цветом_12" data-name="Заливка цветом 12" class="cls-4" d="M2296.98,3014.76l-4.21-3.12a20.383,20.383,0,0,0,39.92,1.44l1.8,0.36a22.433,22.433,0,0,1-24.04,16.92,22.053,22.053,0,0,1-19.36-18.36l-3.01,4.08-1.44-1.08,4.81-6.6,6.61,4.92Z" transform="translate(-2242 -2982)"/>
  <path id="Заливка_цветом_1-2" data-name="Заливка цветом 1" class="cls-2" d="M2309.88,3098a1.712,1.712,0,0,1-1.34-.6,1.52,1.52,0,0,1-.29-1.28l2.31-11.61a6.679,6.679,0,0,1-3.55-5.9,6.491,6.491,0,1,1,12.98,0,6.666,6.666,0,0,1-3.54,5.89l2.3,11.62a1.524,1.524,0,0,1-.3,1.28,1.676,1.676,0,0,1-1.33.6h-7.24Zm7.19-1.72-2.37-12.25-0.04-.62,0.57-.23a4.927,4.927,0,0,0,3.08-4.57,4.811,4.811,0,1,0-9.62,0,4.925,4.925,0,0,0,3.09,4.58l0.61,0.23-0.11,1.03-2.34,11.82Z" transform="translate(-2242 -2982)"/>
  <path id="_2" data-name="2" class="cls-3" d="M2252.39,2990.63a5.081,5.081,0,0,1,.56-0.14,3.42,3.42,0,0,1,.59-0.05,1.673,1.673,0,0,1,.79.18,1.607,1.607,0,0,1,.59.48,2.168,2.168,0,0,1,.36.73,3.171,3.171,0,0,1,.12.88,4.085,4.085,0,0,1-.27,1.41,9.244,9.244,0,0,1-.68,1.48,12.514,12.514,0,0,1-.95,1.46c-0.36.48-.72,0.94-1.08,1.36s-0.71.82-1.05,1.17-0.62.65-.85,0.9V3001h6.61c0-.19-0.01-0.42-0.02-0.68s-0.02-.53-0.04-0.82l-0.06-.84c-0.02-.27-0.04-0.53-0.06-0.76h-0.4l-0.78,1.79h-2.76l-0.89.09v-0.06l0.67-.62c0.4-.4.85-0.86,1.33-1.38a15.463,15.463,0,0,0,1.33-1.67,11.232,11.232,0,0,0,1.04-1.84,4.606,4.606,0,0,0,.41-1.83,3.3,3.3,0,0,0-.17-1.05,2.363,2.363,0,0,0-.56-0.89,2.554,2.554,0,0,0-.95-0.61,3.749,3.749,0,0,0-1.37-.22,4.931,4.931,0,0,0-1.7.28,4.074,4.074,0,0,0-1.34.76c0.08,0.37.18,0.77,0.31,1.18s0.24,0.78.36,1.09h0.4Z" transform="translate(-2242 -2982)"/>
</svg>
