<svg id="ic-shop-own" xmlns="http://www.w3.org/2000/svg" width="180" height="112" viewBox="0 0 180 112">
  <metadata><?xpacket begin="﻿" id="W5M0MpCehiHzreSzNTczkc9d"?>
<x:xmpmeta xmlns:x="adobe:ns:meta/" x:xmptk="Adobe XMP Core 5.6-c142 79.160924, 2017/07/13-01:06:39        ">
   <rdf:RDF xmlns:rdf="http://www.w3.org/1999/02/22-rdf-syntax-ns#">
      <rdf:Description rdf:about=""/>
   </rdf:RDF>
</x:xmpmeta>
                                                                                                    
                                                                                                    
                                                                                                    
                                                                                                    
                                                                                                    
                                                                                                    
                                                                                                    
                                                                                                    
                                                                                                    
                                                                                                    
                                                                                                    
                                                                                                    
                                                                                                    
                                                                                                    
                                                                                                    
                                                                                                    
                                                                                                    
                                                                                                    
                                                                                                    
                                                                                                    
                           
<?xpacket end="w"?></metadata>
<defs>
    <style>
      .cls-1 {
        fill: #ebf7fb;
      }

      .cls-2, .cls-3 {
        fill: #65aaa9;
      }

      .cls-3, .cls-4, .cls-5 {
        fill-rule: evenodd;
      }

      .cls-5 {
        fill: #0c1319;
      }
    </style>
  </defs>
  <rect id="Прямоугольник_513" data-name="Прямоугольник 513" class="cls-1" width="180" height="90"/>
  <g id="noun_shop_front_1097260" data-name="noun_shop front_1097260">
    <rect id="Прямоугольник_997" data-name="Прямоугольник 997" class="cls-2" x="58" y="97" width="12" height="9"/>
    <rect id="Прямоугольник_997-2" data-name="Прямоугольник 997" class="cls-2" x="74" y="97" width="12" height="9"/>
    <rect id="Прямоугольник_997-3" data-name="Прямоугольник 997" class="cls-2" x="89" y="97" width="12" height="9"/>
    <rect id="Прямоугольник_1000" data-name="Прямоугольник 1000" class="cls-2" x="69" y="33" width="9" height="25"/>
    <rect id="Прямоугольник_1000-2" data-name="Прямоугольник 1000" class="cls-2" x="86" y="33" width="9" height="25"/>
    <rect id="Прямоугольник_1000-3" data-name="Прямоугольник 1000" class="cls-2" x="102" y="33" width="9" height="25"/>
    <path id="Фигура_1003" data-name="Фигура 1003" class="cls-3" d="M782,1402v-25h-8v13l-1,12h9Z" transform="translate(-721 -1344)"/>
    <path id="Фигура_1003-2" data-name="Фигура 1003" class="cls-3" d="M841,1402v-25h8v13l1,12h-9Z" transform="translate(-721 -1344)"/>
    <path id="Заливка_цветом_1" data-name="Заливка цветом 1" class="cls-4" d="M790.6,1451.2a0.945,0.945,0,0,0,1-1v-8.1a0.945,0.945,0,0,0-1-1H779a0.945,0.945,0,0,0-1,1v8.1a1.075,1.075,0,0,0,1,1h11.6Zm-1-8.1v6.1H780v-6.1h9.6Z" transform="translate(-721 -1344)"/>
    <path id="Заливка_цветом_2" data-name="Заливка цветом 2" class="cls-4" d="M806.2,1451.2a0.945,0.945,0,0,0,1-1v-8.1a0.945,0.945,0,0,0-1-1H794.6a0.945,0.945,0,0,0-1,1v8.1a1.075,1.075,0,0,0,1,1h11.6Zm-1-8.1v6.1h-9.6v-6.1h9.6Z" transform="translate(-721 -1344)"/>
    <path id="Заливка_цветом_3" data-name="Заливка цветом 3" class="cls-4" d="M821.7,1451.2a0.945,0.945,0,0,0,1-1v-8.1a0.945,0.945,0,0,0-1-1H810.1a0.945,0.945,0,0,0-1,1v8.1a1.075,1.075,0,0,0,1,1h11.6Zm-1-8.1v6.1h-9.6v-6.1h9.6Z" transform="translate(-721 -1344)"/>
    <path id="Заливка_цветом_4" data-name="Заливка цветом 4" class="cls-5" d="M772.1,1403.3h1V1455a0.945,0.945,0,0,0,1,1h74a0.945,0.945,0,0,0,1-1v-51.7h1a0.779,0.779,0,0,0,.7-0.3,1.135,1.135,0,0,0,.3-0.8l-2-19.3v-5.7a0.945,0.945,0,0,0-1-1h-74a0.945,0.945,0,0,0-1,1v5.7l-2,19.4a1.329,1.329,0,0,0,.3.7A1.08,1.08,0,0,0,772.1,1403.3Zm3,50.7v-15.8h50.5V1454H775.1Zm0-17.8v-32.9h50.5v32.9H775.1Zm52.5,17.8v-4.2h19.5v4.2H827.6Zm0-6.2v-44.5h19.5v44.5H827.6Zm19.6-69.7v3.6h-5.5v-3.6h5.5Zm0,5.6,1.8,17.6h-7.3v-17.6h5.5Zm-7.5-5.6v3.6h-6.5v-3.6h6.5Zm0,5.6v17.5h-6.5v-17.5h6.5Zm-8.4-5.6v3.6h-6.5v-3.6h6.5Zm0,5.6v17.5h-6.5v-17.5h6.5Zm-8.5-5.6v3.6h-6.5v-3.6h6.5Zm0,5.6v17.5h-6.5v-17.5h6.5Zm-8.5-5.6v3.6h-6.5v-3.6h6.5Zm0,5.6v17.5h-6.5v-17.5h6.5Zm-8.4-5.6v3.6h-6.5v-3.6h6.5Zm0,5.6v17.5h-6.5v-17.5h6.5Zm-8.5-5.6v3.6h-6.5v-3.6h6.5Zm0,5.6v17.5h-6.5v-17.5h6.5Zm-8.5-5.6v3.6h-6.5v-3.6h6.5Zm0,5.6v17.5h-6.5v-17.5h6.5Zm-8.5-5.6v3.6h-5.3v-3.6h5.3Zm0.1,5.6v17.5h-7.2l1.8-17.5h5.4Z" transform="translate(-721 -1344)"/>
    <path id="Заливка_цветом_5" data-name="Заливка цветом 5" class="cls-3" d="M783.9,1432.3a0.908,0.908,0,0,0,.7-0.3,0.967,0.967,0,0,0,0-1.4l-4-3.9a0.99,0.99,0,0,0-1.4,1.4l4,3.9A0.908,0.908,0,0,0,783.9,1432.3Z" transform="translate(-721 -1344)"/>
    <path id="Заливка_цветом_6" data-name="Заливка цветом 6" class="cls-3" d="M788.8,1431.6a0.908,0.908,0,0,0,.7-0.3,0.967,0.967,0,0,0,0-1.4l-8-7.9a0.99,0.99,0,1,0-1.4,1.4l8,7.9A0.908,0.908,0,0,0,788.8,1431.6Z" transform="translate(-721 -1344)"/>
    <path id="Заливка_цветом_7" data-name="Заливка цветом 7" class="cls-3" d="M833.2,1431v-7.2a1,1,0,0,0-2,0v7.2a1.075,1.075,0,0,0,1,1A0.945,0.945,0,0,0,833.2,1431Z" transform="translate(-721 -1344)"/>
  </g>
</svg>
