<svg id="logo" xmlns="http://www.w3.org/2000/svg" width="221.28" height="66.28" viewBox="0 0 221.28 66.28">
  <metadata><?xpacket begin="﻿" id="W5M0MpCehiHzreSzNTczkc9d"?>
<x:xmpmeta xmlns:x="adobe:ns:meta/" x:xmptk="Adobe XMP Core 5.6-c142 79.160924, 2017/07/13-01:06:39        ">
   <rdf:RDF xmlns:rdf="http://www.w3.org/1999/02/22-rdf-syntax-ns#">
      <rdf:Description rdf:about=""/>
   </rdf:RDF>
</x:xmpmeta>
                                                                                                    
                                                                                                    
                                                                                                    
                                                                                                    
                                                                                                    
                                                                                                    
                                                                                                    
                                                                                                    
                                                                                                    
                                                                                                    
                                                                                                    
                                                                                                    
                                                                                                    
                                                                                                    
                                                                                                    
                                                                                                    
                                                                                                    
                                                                                                    
                                                                                                    
                                                                                                    
                           
<?xpacket end="w"?></metadata>
<defs>
    <style>
      .cls-1 {
        fill: #0c1319;
        fill-rule: evenodd;
      }
    </style>
  </defs>
  <path id="julia" class="cls-1" d="M1965.21,1431.08c-0.05.15-.1,0.36-0.16,0.62s0,0.52-.05.72v6.47a1.536,1.536,0,0,1-.2.82,3.3,3.3,0,0,1-.62.62,2.52,2.52,0,0,1-.98.52,2.906,2.906,0,0,1-.92.15,1.415,1.415,0,0,1-.46-0.05,3.921,3.921,0,0,1-.42-0.15,0.892,0.892,0,0,1-.3-0.31,1.34,1.34,0,0,1-.11-0.47,0.883,0.883,0,0,1,.26-0.57,0.784,0.784,0,0,1,.57-0.2,0.663,0.663,0,0,1,.51.2,0.694,0.694,0,0,1,.21.52,0.529,0.529,0,0,1-.21.47,1.554,1.554,0,0,1-.51.2v0.05a0.562,0.562,0,0,0,.2.16,0.485,0.485,0,0,0,.26.05,0.7,0.7,0,0,0,.56-0.26,1.156,1.156,0,0,0,.31-0.56,3.218,3.218,0,0,0,.1-0.73c0-.26.06-0.52,0.06-0.83v-6.92c0-.16-0.06-0.31-0.06-0.42a0.8,0.8,0,0,0-.1-0.31,1.028,1.028,0,0,0-.56-0.31c-0.26-.05-0.47-0.1-0.72-0.15v-0.16h4.42v0.16a3.31,3.31,0,0,1-.52.2A1.028,1.028,0,0,0,1965.21,1431.08Zm18.66,0.26a1.245,1.245,0,0,0-.11.31c0,0.15-.05.31-0.05,0.51s-0.05.42-.05,0.63v0.67a13.873,13.873,0,0,1-.05,1.39c0,0.52-.05,1.09-0.05,1.76a3.258,3.258,0,0,1-.05.67,2.7,2.7,0,0,1-.16.88,3.248,3.248,0,0,1-.36.93,2.8,2.8,0,0,1-.72.88,3.567,3.567,0,0,1-1.18.62,7.355,7.355,0,0,1-3.49,0,4.711,4.711,0,0,1-1.19-.57,2.894,2.894,0,0,1-.72-0.82,3.631,3.631,0,0,1-.36-0.88,2.634,2.634,0,0,1-.15-0.78v-5.89c0-.16-0.05-0.31-0.05-0.42a0.268,0.268,0,0,0-.16-0.25,1.761,1.761,0,0,0-.51-0.37c-0.21-.05-0.41-0.1-0.67-0.15v-0.16h4.27v0.16a1.175,1.175,0,0,0-.41.1,1,1,0,0,0-.41.21,1.874,1.874,0,0,0-.31.36,0.9,0.9,0,0,0-.16.57v5.38a5.8,5.8,0,0,0,.21,1.39,3.52,3.52,0,0,0,.62,1.09,2.261,2.261,0,0,0,.92.67,3.9,3.9,0,0,0,2.67.05,2.7,2.7,0,0,0,1.55-1.29,3.361,3.361,0,0,0,.3-0.93c0.06-.31.11-0.67,0.16-0.98,0-.37.05-0.68,0.05-0.99v-3.56a1.639,1.639,0,0,0-.05-0.52,0.594,0.594,0,0,0-.1-0.36,1.571,1.571,0,0,0-.52-0.67,2.419,2.419,0,0,0-1.03-.37v-0.15h3.55v0.15a0.787,0.787,0,0,0-.77.11A1.319,1.319,0,0,0,1983.87,1431.34Zm8.58,9.35v-0.15a3.265,3.265,0,0,0,.72-0.21,1.47,1.47,0,0,0,.57-0.36,0.388,0.388,0,0,0,.1-0.26c0.05-.1.05-0.26,0.1-0.36,0-.15.05-0.31,0.05-0.46v-7.24c0-.16-0.05-0.26-0.05-0.42a0.231,0.231,0,0,0-.15-0.25,1.249,1.249,0,0,0-.52-0.37,1.655,1.655,0,0,0-.72-0.15v-0.16h4.58v0.16a2.6,2.6,0,0,0-.46.1,2.268,2.268,0,0,0-.52.21,1.42,1.42,0,0,0-.41.36,2.037,2.037,0,0,0-.21.62v6.88a4.105,4.105,0,0,0,.06.88,1.162,1.162,0,0,0,.15.62,0.631,0.631,0,0,0,.21.15,0.951,0.951,0,0,0,.41.1c0.15,0.06.36,0.06,0.51,0.11a2.017,2.017,0,0,0,.57.05h0.36a2.32,2.32,0,0,0,.56-0.05c0.21,0,.41-0.05.62-0.05,0.2-.06.41-0.06,0.56-0.11a4.012,4.012,0,0,0,.98-0.41,2.606,2.606,0,0,0,.67-0.62,2.319,2.319,0,0,0,.46-0.72c0.1-.26.26-0.57,0.36-0.83l0.16,0.05-0.52,2.89h-9.2Zm16.91,0v-0.15a2.287,2.287,0,0,0,.67-0.21,1.569,1.569,0,0,0,.51-0.36,0.35,0.35,0,0,0,.11-0.26c0-.1.05-0.2,0.05-0.36a1.445,1.445,0,0,1,.05-0.46v-7.24c0-.16-0.05-0.31-0.05-0.42a0.268,0.268,0,0,0-.16-0.25,1.761,1.761,0,0,0-.51-0.37c-0.21-.05-0.41-0.1-0.67-0.15v-0.16h4.32v0.16c-0.21.05-.41,0.1-0.67,0.15a0.933,0.933,0,0,0-.51.47,1.037,1.037,0,0,0-.16.62v7.86a0.81,0.81,0,0,0,.16.57,0.92,0.92,0,0,0,.56.36,1.862,1.862,0,0,0,.67.15v0.16h-4.37v-0.11Zm18.04,0v-0.15a0.408,0.408,0,0,0,.21-0.05,1.167,1.167,0,0,0,.36-0.11,1.24,1.24,0,0,0,.31-0.2,0.452,0.452,0,0,0,.15-0.31,2.357,2.357,0,0,0-.1-0.42,6.9,6.9,0,0,0-.21-0.72c-0.1-.31-0.2-0.62-0.31-0.93a8.6,8.6,0,0,0-.41-1.09h-3.8c-0.15.37-.31,0.73-0.41,1.04-0.16.31-.26,0.67-0.41,0.98a3.475,3.475,0,0,0-.31,1.09,0.8,0.8,0,0,0,.1.31,0.484,0.484,0,0,0,.31.2,0.988,0.988,0,0,0,.41.11c0.16,0,.26.05,0.41,0.05v0.15h-3.08v-0.15a1.8,1.8,0,0,0,.62-0.21,2.961,2.961,0,0,0,.3-0.2,2.777,2.777,0,0,0,.31-0.47,7.411,7.411,0,0,0,.57-1.14c0.2-.46.41-0.98,0.67-1.55s0.51-1.19.77-1.81,0.51-1.24.77-1.86,0.51-1.19.72-1.76l-0.16-.31a1.839,1.839,0,0,0,.47-0.26,2.237,2.237,0,0,0,.36-0.31,1.176,1.176,0,0,0,.25-0.31,1.082,1.082,0,0,1,.16-0.25h0.1c0.31,0.77.57,1.55,0.82,2.27s0.52,1.4.77,2.07,0.47,1.29.72,1.91c0.21,0.62.47,1.24,0.67,1.86a3.526,3.526,0,0,0,.31.73,7.193,7.193,0,0,1,.31.67,0.39,0.39,0,0,0,.15.2,1.463,1.463,0,0,0,.26.32,1.131,1.131,0,0,0,.41.25,1.589,1.589,0,0,0,.57.16v0.15h-4.12v0.05Zm-2.1-8.16c-0.11.26-.26,0.62-0.42,0.98s-0.35.83-.51,1.29c-0.2.47-.41,1.03-0.62,1.6h3.6c-0.15-.41-0.31-0.87-0.51-1.29-0.16-.41-0.31-0.82-0.52-1.24a9.092,9.092,0,0,1-.41-1.08,3.789,3.789,0,0,1-.36-0.83C2025.5,1432.06,2025.4,1432.27,2025.3,1432.53Z" transform="translate(-1887.72 -1412)"/>
  <path id="maksimova" class="cls-1" d="M1969.24,1461.54a1.986,1.986,0,0,0,1.03-.26,1.355,1.355,0,0,0,.56-0.52,2.139,2.139,0,0,0,.16-0.46,2.2,2.2,0,0,0,.05-0.57c0-.62.05-1.24,0.05-1.81v-5.89c-0.31.72-.62,1.34-0.87,1.96s-0.52,1.19-.77,1.76-0.52,1.14-.78,1.76c-0.25.57-.56,1.24-0.87,1.96-0.05.11-.1,0.26-0.21,0.47s-0.15.41-.25,0.62-0.16.41-.26,0.57a1.284,1.284,0,0,1-.15.36h-0.11c-0.3-.73-0.61-1.4-0.92-2.12s-0.62-1.4-.88-2.02c-0.3-.67-0.56-1.24-0.82-1.81s-0.46-1.08-.67-1.5-0.36-.82-0.51-1.13-0.21-.52-0.26-0.62v6.51a8.635,8.635,0,0,0,.05,1.19,3.849,3.849,0,0,0,.21.83,1.253,1.253,0,0,0,.51.51,2.377,2.377,0,0,0,.98.26v0.16h-3.75v-0.16a1.622,1.622,0,0,0,.82-0.31,2.1,2.1,0,0,0,.51-0.52,2.647,2.647,0,0,0,.26-0.87,9.047,9.047,0,0,0,.1-1.25c0-.41.06-0.87,0.06-1.44v-4.4a1.472,1.472,0,0,0-.16-0.67,1.286,1.286,0,0,0-.36-0.41,1.57,1.57,0,0,0-.46-0.21c-0.15-.05-0.31-0.05-0.41-0.1v-0.16h3.08l3.45,7.86c0.41-.93.82-1.81,1.23-2.74s0.77-1.71,1.08-2.48c0.31-.72.56-1.35,0.77-1.81s0.31-.78.36-0.83h3.08v0.16a1.327,1.327,0,0,0-.87.26,1.039,1.039,0,0,0-.41.56,2.67,2.67,0,0,0-.1.78c0,0.36-.06.67-0.06,1.03v5.79a1.815,1.815,0,0,0,.06.57,1.3,1.3,0,0,0,.1.47,0.619,0.619,0,0,1,.1.15,1.182,1.182,0,0,0,.26.21,1.22,1.22,0,0,0,.41.21,1.95,1.95,0,0,0,.62.1v0.15h-5.04v-0.15Zm18.35,0.15v-0.15a0.428,0.428,0,0,0,.21-0.05,1.167,1.167,0,0,0,.36-0.11,1.046,1.046,0,0,0,.3-0.2,0.446,0.446,0,0,0,.16-0.31,2.357,2.357,0,0,0-.1-0.42c-0.06-.2-0.11-0.41-0.21-0.72s-0.21-.62-0.31-0.93a10.451,10.451,0,0,0-.41-1.09h-3.8c-0.16.37-.31,0.73-0.42,1.04-0.15.31-.25,0.67-0.41,0.98a3.666,3.666,0,0,0-.3,1.09,0.8,0.8,0,0,0,.1.31,0.458,0.458,0,0,0,.31.2,0.947,0.947,0,0,0,.41.11c0.15,0,.25.05,0.41,0.05v0.15h-3.09v-0.15a1.726,1.726,0,0,0,.62-0.21,1.557,1.557,0,0,0,.31-0.21,3.532,3.532,0,0,0,.31-0.46,7.547,7.547,0,0,0,.56-1.14c0.21-.46.42-0.98,0.67-1.55s0.52-1.19.77-1.81,0.52-1.24.77-1.86,0.52-1.19.72-1.76l-0.15-.31a1.788,1.788,0,0,0,.46-0.26,1.613,1.613,0,0,0,.36-0.31,1.226,1.226,0,0,0,.26-0.31,1.093,1.093,0,0,1,.15-0.25h0.11c0.3,0.77.56,1.55,0.82,2.27s0.51,1.4.77,2.07,0.46,1.29.72,1.91c0.2,0.62.46,1.24,0.67,1.86a3.054,3.054,0,0,0,.31.73,7.308,7.308,0,0,1,.3.67,0.436,0.436,0,0,0,.16.2,1.048,1.048,0,0,0,.26.31,0.964,0.964,0,0,0,.41.26,1.594,1.594,0,0,0,.56.16v0.15h-4.11v0.05Zm-2.11-8.16c-0.1.26-.25,0.62-0.41,0.98s-0.36.83-.51,1.29c-0.21.47-.41,1.04-0.62,1.6h3.6c-0.16-.41-0.31-0.87-0.52-1.29a10.808,10.808,0,0,0-.51-1.24,6.569,6.569,0,0,1-.41-1.08,3.2,3.2,0,0,1-.36-0.83C1985.69,1453.06,1985.59,1453.27,1985.48,1453.53Zm20.82,8.16a0.265,0.265,0,0,1-.15-0.1c-0.06-.05-0.11-0.1-0.16-0.15-0.62-.73-1.18-1.4-1.75-2.02s-1.13-1.29-1.69-1.96a3.972,3.972,0,0,0-.52-0.52,0.528,0.528,0,0,0-.25-0.1,0.2,0.2,0,0,0-.16.05,0.265,0.265,0,0,1-.1.15v2.59c0,0.26.05,0.51,0.05,0.77a1.308,1.308,0,0,0,.21.57,1.2,1.2,0,0,0,.25.26c0.11,0.05.26,0.1,0.36,0.15a1.093,1.093,0,0,0,.41.11c0.16,0,.26.05,0.36,0.05v0.15h-4.62v-0.15c0.26-.05.46-0.1,0.67-0.16a1.955,1.955,0,0,0,.51-0.31,0.382,0.382,0,0,0,.1-0.25c0-.11.05-0.26,0.05-0.42a1.217,1.217,0,0,1,.06-0.46v-6.31a5.655,5.655,0,0,0-.06-1.03,1.22,1.22,0,0,0-.2-0.68,1.258,1.258,0,0,0-.51-0.36,2.74,2.74,0,0,0-.67-0.15v-0.16h4.47v0.16a1.6,1.6,0,0,0-.52.1,1.7,1.7,0,0,0-.46.21,1.1,1.1,0,0,0-.36.51,2.265,2.265,0,0,0-.15.94v3.56c0.15-.1.41-0.31,0.72-0.51,0.31-.26.61-0.57,0.92-0.88s0.62-.62.98-0.99c0.31-.36.57-0.62,0.82-0.87a5.969,5.969,0,0,1,.46-0.57,0.861,0.861,0,0,0,.21-0.57,0.72,0.72,0,0,0-.31-0.62,2.229,2.229,0,0,0-.67-0.26v-0.16h3.86v0.16a3.04,3.04,0,0,0-1.49.62,10.433,10.433,0,0,0-1.54,1.29c-0.21.21-.42,0.36-0.62,0.57l-0.62.62c-0.2.21-.41,0.41-0.61,0.62l-0.57.57c0.1,0.1.26,0.31,0.51,0.62s0.62,0.72.98,1.14,0.77,0.88,1.23,1.39c0.42,0.52.88,0.99,1.24,1.4a2.993,2.993,0,0,1,.31.36c0.1,0.1.25,0.21,0.36,0.31s0.2,0.16.3,0.26a0.582,0.582,0,0,1,.16.1,3.13,3.13,0,0,0,.51.16,3.208,3.208,0,0,0,.72.1v0.16h-3.03v-0.06Zm16.24-.67a2.77,2.77,0,0,1-1.18.57,7.138,7.138,0,0,1-1.49.21,6.317,6.317,0,0,1-1.18-.11,2.718,2.718,0,0,1-.82-0.2c-0.21-.11-0.42-0.16-0.52-0.21l-0.2-.1a0.368,0.368,0,0,0-.21.15,1.708,1.708,0,0,0-.26.31h-0.15l-0.05-2.84h0.15c0.1,0.26.21,0.52,0.31,0.78a3.46,3.46,0,0,0,.46.67,3.117,3.117,0,0,0,.52.57,1.6,1.6,0,0,0,.51.36,3.465,3.465,0,0,0,.67.26,2.108,2.108,0,0,0,.77.15,2.762,2.762,0,0,0,1.75-.57,2.009,2.009,0,0,0,.67-1.6,1.658,1.658,0,0,0-.16-0.72,1.612,1.612,0,0,0-.36-0.52,1.683,1.683,0,0,0-.51-0.36,6.036,6.036,0,0,0-.67-0.31,2.523,2.523,0,0,0-.62-0.21c-0.15-.05-0.36-0.1-0.46-0.15-0.15-.06-0.31-0.11-0.46-0.16a3.138,3.138,0,0,1-.57-0.21,1.924,1.924,0,0,1-.72-0.41,5.3,5.3,0,0,1-.61-0.57,2.8,2.8,0,0,1-.42-0.77,2.5,2.5,0,0,1-.15-0.88,2.722,2.722,0,0,1,.31-1.35,3.3,3.3,0,0,1,.77-0.93,3.7,3.7,0,0,1,1.08-.57,5.7,5.7,0,0,1,1.34-.2,7.3,7.3,0,0,1,1.13.1,2.893,2.893,0,0,1,.77.26,1.6,1.6,0,0,1,.46.26,0.619,0.619,0,0,1,.15.1,0.208,0.208,0,0,0,.16-0.15,3.3,3.3,0,0,0,.26-0.37h0.15v2.69h-0.15a4.068,4.068,0,0,0-.47-0.93c-0.2-.31-0.41-0.57-0.61-0.83a3.525,3.525,0,0,0-.83-0.62,2.3,2.3,0,0,0-1.02-.2,2.228,2.228,0,0,0-.83.15,1.6,1.6,0,0,0-.67.42,1.733,1.733,0,0,0-.46.62,2.462,2.462,0,0,0-.15.88,1.683,1.683,0,0,0,.46,1.24,3.126,3.126,0,0,0,1.18.72c0.21,0.1.36,0.15,0.52,0.21s0.31,0.1.51,0.15c0.16,0.05.31,0.1,0.51,0.16a2.225,2.225,0,0,1,.52.2,3.2,3.2,0,0,1,1.49,1.04,2.663,2.663,0,0,1,.51,1.7,6.9,6.9,0,0,1-.36,1.19A3.3,3.3,0,0,1,2022.54,1461.02Zm9,0.67v-0.15a2.386,2.386,0,0,0,.67-0.21,1.683,1.683,0,0,0,.51-0.36,0.388,0.388,0,0,0,.1-0.26c0-.1.05-0.2,0.05-0.36a1.217,1.217,0,0,1,.06-0.46v-7.24c0-.16-0.06-0.31-0.06-0.42a0.425,0.425,0,0,0-.15-0.25,1.908,1.908,0,0,0-.51-0.37c-0.21-.05-0.42-0.1-0.67-0.15v-0.16h4.32v0.16c-0.21.05-.42,0.1-0.67,0.15a0.951,0.951,0,0,0-.52.47,1.115,1.115,0,0,0-.15.62v7.86a0.865,0.865,0,0,0,.15.57,0.945,0.945,0,0,0,.57.36,1.819,1.819,0,0,0,.67.15v0.16h-4.37v-0.11Zm20.51-.15a1.986,1.986,0,0,0,1.03-.26,1.355,1.355,0,0,0,.56-0.52,2.235,2.235,0,0,0,.15-0.46,1.846,1.846,0,0,0,.06-0.57c0-.62.05-1.24,0.05-1.81v-5.89c-0.31.72-.62,1.34-0.88,1.96s-0.51,1.19-.77,1.76-0.51,1.14-.77,1.76c-0.26.57-.56,1.24-0.87,1.96-0.05.11-.1,0.26-0.21,0.47s-0.15.41-.25,0.62-0.16.41-.26,0.57-0.1.31-.16,0.36h-0.1c-0.31-.73-0.62-1.4-0.92-2.12s-0.62-1.4-.88-2.02c-0.31-.67-0.56-1.24-0.82-1.81s-0.46-1.08-.67-1.5-0.36-.82-0.51-1.13-0.21-.52-0.26-0.62v6.51a8.635,8.635,0,0,0,.05,1.19,2.955,2.955,0,0,0,.21.83,1.253,1.253,0,0,0,.51.51,2.377,2.377,0,0,0,.98.26v0.16h-3.75v-0.16a1.66,1.66,0,0,0,.82-0.31,2.29,2.29,0,0,0,.51-0.52,2.647,2.647,0,0,0,.26-0.87,9.047,9.047,0,0,0,.1-1.25c0-.41.05-0.87,0.05-1.44v-4.4a1.467,1.467,0,0,0-.15-0.67,1.42,1.42,0,0,0-.36-0.41,1.57,1.57,0,0,0-.46-0.21,4.134,4.134,0,0,1-.41-0.1v-0.16h3.08l3.44,7.86c0.41-.93.83-1.81,1.24-2.74s0.77-1.71,1.08-2.48c0.31-.72.56-1.35,0.77-1.81a7.994,7.994,0,0,1,.36-0.83h3.08v0.16a1.308,1.308,0,0,0-.87.26,1.039,1.039,0,0,0-.41.56,2.6,2.6,0,0,0-.11.78c0,0.36-.05.67-0.05,1.03v5.79a2.163,2.163,0,0,0,.05.57,1.3,1.3,0,0,0,.11.47,0.619,0.619,0,0,1,.1.15,0.984,0.984,0,0,0,.26.21,1.132,1.132,0,0,0,.41.21,1.933,1.933,0,0,0,.61.1v0.15h-5.03v-0.15Zm21.59-1.24a5.532,5.532,0,0,1-3.86,1.55,5.382,5.382,0,0,1-2.06-.36,5.278,5.278,0,0,1-1.69-1.09,5.093,5.093,0,0,1-1.18-1.65,4.95,4.95,0,0,1-.42-2.17,5.238,5.238,0,0,1,.47-2.23,5.061,5.061,0,0,1,1.18-1.65,4.438,4.438,0,0,1,1.75-1.03,5.91,5.91,0,0,1,2.16-.37,6,6,0,0,1,2.21.42,4.814,4.814,0,0,1,1.64,1.19,5.232,5.232,0,0,1,1.03,1.7,5.147,5.147,0,0,1,.36,2.02,5.984,5.984,0,0,1-.41,1.96A5.119,5.119,0,0,1,2073.64,1460.3Zm-1.08-7.24a4.273,4.273,0,0,0-1.13-1.19,2.784,2.784,0,0,0-1.6-.46,2.645,2.645,0,0,0-1.59.46,3.589,3.589,0,0,0-1.13,1.19,5.256,5.256,0,0,0-.67,1.66,7.863,7.863,0,0,0-.21,1.86,7.99,7.99,0,0,0,.21,1.91,4.823,4.823,0,0,0,.67,1.6,3.96,3.96,0,0,0,1.13,1.14,3.158,3.158,0,0,0,1.59.41,2.784,2.784,0,0,0,1.6-.46,4.273,4.273,0,0,0,1.13-1.19,5.388,5.388,0,0,0,.66-1.66,6.918,6.918,0,0,0,.21-1.8,5.519,5.519,0,0,0-.21-1.87A5.129,5.129,0,0,0,2072.56,1453.06Zm18.81-1.19a0.364,0.364,0,0,0-.1.16,0.775,0.775,0,0,0-.16.26c-0.05.1-.15,0.25-0.25,0.46a7.019,7.019,0,0,0-.31.67c-0.21.47-.41,0.99-0.62,1.55s-0.46,1.19-.72,1.76c-0.26.62-.46,1.24-0.72,1.81s-0.46,1.19-.67,1.76l-0.72,1.45h-0.15c-0.31-.78-0.62-1.55-0.88-2.23a22.086,22.086,0,0,0-.82-2.06c-0.25-.68-0.51-1.3-0.77-1.92s-0.46-1.24-.72-1.86a2.072,2.072,0,0,0-.2-0.46c-0.06-.16-0.11-0.26-0.16-0.37s-0.1-.2-0.15-0.31-0.11-.2-0.16-0.31a0.524,0.524,0,0,0-.15-0.2,0.915,0.915,0,0,0-.26-0.26,0.8,0.8,0,0,0-.36-0.21,1.605,1.605,0,0,0-.56-0.1v-0.16h4.31v0.16a0.544,0.544,0,0,0-.25.05,0.925,0.925,0,0,0-.36.1,0.9,0.9,0,0,0-.36.21,0.484,0.484,0,0,0-.16.36,2.736,2.736,0,0,0,.16.62c0.1,0.31.26,0.73,0.41,1.19s0.36,0.98.56,1.5c0.21,0.57.42,1.09,0.62,1.6s0.41,1.04.57,1.45a12.094,12.094,0,0,1,.41,1.14,4.181,4.181,0,0,0,.26-0.67c0.15-.37.3-0.78,0.51-1.24,0.2-.52.41-1.09,0.67-1.71s0.51-1.29.77-2.02a7.042,7.042,0,0,0,.36-1.19,4.524,4.524,0,0,0,.1-0.56,0.5,0.5,0,0,0-.15-0.37,2.8,2.8,0,0,0-.36-0.25,1.456,1.456,0,0,0-.47-0.16,1.269,1.269,0,0,0-.41-0.05v-0.16h3.34v0.16a2.455,2.455,0,0,0-.61.21A1.2,1.2,0,0,0,2091.37,1451.87Zm13.47,9.82v-0.15a0.378,0.378,0,0,0,.2-0.05,1.353,1.353,0,0,0,.67-0.31,0.472,0.472,0,0,0,.15-0.31,0.817,0.817,0,0,0-.1-0.42,6.256,6.256,0,0,1-.2-0.72c-0.11-.31-0.21-0.62-0.31-0.93-0.11-.36-0.26-0.72-0.41-1.09h-3.81c-0.15.37-.31,0.73-0.41,1.04-0.15.31-.26,0.67-0.41,0.98a3.475,3.475,0,0,0-.31,1.09,0.8,0.8,0,0,0,.1.31,0.724,0.724,0,0,0,.31.2,1.033,1.033,0,0,0,.41.11c0.16,0,.26.05,0.42,0.05v0.15h-3.09v-0.15a1.8,1.8,0,0,0,.62-0.21,1.949,1.949,0,0,0,.31-0.21,2.933,2.933,0,0,0,.3-0.46,7.411,7.411,0,0,0,.57-1.14c0.21-.46.41-0.98,0.67-1.55s0.51-1.19.77-1.81,0.51-1.24.77-1.86,0.51-1.19.72-1.76l-0.15-.31a1.97,1.97,0,0,0,.46-0.26,1.874,1.874,0,0,0,.36-0.31,1.477,1.477,0,0,0,.26-0.31,1.093,1.093,0,0,1,.15-0.25h0.1c0.31,0.77.57,1.55,0.88,2.27,0.25,0.72.51,1.4,0.77,2.07s0.46,1.29.72,1.91c0.2,0.62.46,1.24,0.66,1.86a4.175,4.175,0,0,0,.31.73,5.294,5.294,0,0,1,.31.67,0.373,0.373,0,0,0,.16.2,1.176,1.176,0,0,0,.25.31,1.1,1.1,0,0,0,.41.26,1.65,1.65,0,0,0,.57.16v0.15h-4.16v0.05Zm-2.16-8.16c-0.11.26-.26,0.62-0.41,0.98s-0.36.83-.57,1.29-0.41,1.04-.62,1.6h3.6c-0.15-.41-0.31-0.87-0.51-1.29a13.077,13.077,0,0,0-.52-1.24c-0.15-.41-0.3-0.77-0.41-1.08a3.955,3.955,0,0,0-.31-0.83C2102.88,1453.06,2102.78,1453.27,2102.68,1453.53Z" transform="translate(-1887.72 -1412)"/>
  <path id="mark" class="cls-1" d="M1941.12,1462.15h-10.48v-28.13c0-2.22-1.08-4.03-3.24-4.03-0.16,0-6.99,1.81-7.09,1.86l7.24-2.74a7.906,7.906,0,0,1,3.29-.67c6.89,0,10.28,5.38,10.28,12.1m-18.14,21.61h-10.49v-28.13c0-2.22-1.08-4.03-3.24-4.03-0.15,0-6.99,1.81-7.09,1.86l7.25-2.74a7.906,7.906,0,0,1,3.29-.67c6.89,0,10.28,5.38,10.28,12.1m-28.74-11.27h10.49v37.43c0,6.3-6.32,11.58-14.44,11.58a20.726,20.726,0,0,1-2.57-.16c3.85-.1,6.52-1.76,6.52-6.77v-42.08Zm10.8-11.69a5.525,5.525,0,1,1-5.55-5.58A5.443,5.443,0,0,1,1905.04,1417.58Z" transform="translate(-1887.72 -1412)"/>
</svg>
