<svg id="tweet-share" xmlns="http://www.w3.org/2000/svg" width="81" height="25" viewBox="0 0 81 25">
  <metadata><?xpacket begin="﻿" id="W5M0MpCehiHzreSzNTczkc9d"?>
<x:xmpmeta xmlns:x="adobe:ns:meta/" x:xmptk="Adobe XMP Core 5.6-c142 79.160924, 2017/07/13-01:06:39        ">
   <rdf:RDF xmlns:rdf="http://www.w3.org/1999/02/22-rdf-syntax-ns#">
      <rdf:Description rdf:about=""/>
   </rdf:RDF>
</x:xmpmeta>
                                                                                                    
                                                                                                    
                                                                                                    
                                                                                                    
                                                                                                    
                                                                                                    
                                                                                                    
                                                                                                    
                                                                                                    
                                                                                                    
                                                                                                    
                                                                                                    
                                                                                                    
                                                                                                    
                                                                                                    
                                                                                                    
                                                                                                    
                                                                                                    
                                                                                                    
                                                                                                    
                           
<?xpacket end="w"?></metadata>
<defs>
    <style>
      .cls-1 {
        fill: #1da1f3;
      }

      .cls-2 {
        fill: #fff;
        fill-rule: evenodd;
      }
    </style>
  </defs>
  <rect id="bg" class="cls-1" width="81" height="25" rx="2" ry="2"/>
  <path id="ic-twitter" class="cls-2" d="M647.9,1057.26a4.346,4.346,0,0,1-2.711.28c-0.04-.18-0.083-0.34-0.126-0.5a4.9,4.9,0,0,0-4.877-3.61c0.177-.07.356-0.13,0.535-0.19,0.24-.08,1.65-0.3,1.428-0.77-0.187-.41-1.91.32-2.234,0.41a1.689,1.689,0,0,0,1.212-.88,3.448,3.448,0,0,0-1.8.81,1.18,1.18,0,0,0,.345-0.65c-1.75,1.06-2.772,3.19-3.6,5.26a8.683,8.683,0,0,0-1.742-1.32,45.269,45.269,0,0,0-5.9-2.46,2.943,2.943,0,0,0,1.968,2.73,5.527,5.527,0,0,0-1.416.16c0.2,0.98.838,1.78,2.576,2.17a2.164,2.164,0,0,0-1.577.59,2.715,2.715,0,0,0,2.832,1.32c-1.765.72-.72,2.05,0.716,1.85a6.345,6.345,0,0,1-8.53.22c5.791,7.47,18.379,4.41,20.255-2.78a3.594,3.594,0,0,0,2.744-.98,5.973,5.973,0,0,1-2.605-.25A2.816,2.816,0,0,0,647.9,1057.26Z" transform="translate(-620 -1047)"/>
  <path id="Tweet" class="cls-2" d="M655.807,1055.51v1.52h2.436v7.3h1.918v-7.3h2.492v-1.52h-6.846Zm8.693,8.82h2.17l0.868-3.61,0.308-1.61,0.294,1.61,0.868,3.61h2.17l1.848-6.67h-1.89l-0.826,3.54-0.294,1.75H669.96l-0.294-1.75-0.84-3.54h-1.96l-0.826,3.54-0.294,1.75H665.69l-0.252-1.75-0.854-3.54h-1.946Zm15.357-3.68a3.167,3.167,0,0,0-.8-2.31,2.881,2.881,0,0,0-2.163-.82,3.556,3.556,0,0,0-1.372.25,3.2,3.2,0,0,0-1.057.73,3.032,3.032,0,0,0-.679,1.11,4.185,4.185,0,0,0-.238,1.45,3.712,3.712,0,0,0,.294,1.54,2.982,2.982,0,0,0,.791,1.06,3.158,3.158,0,0,0,1.162.62,4.691,4.691,0,0,0,1.421.21,5.97,5.97,0,0,0,1.358-.14,4.236,4.236,0,0,0,.952-0.31l-0.336-1.3a4.98,4.98,0,0,1-.777.26,3.664,3.664,0,0,1-.987.12,2.47,2.47,0,0,1-1.442-.4,1.345,1.345,0,0,1-.56-1.19v-0.05h4.438v-0.83Zm-4.4-.42a1.674,1.674,0,0,1,.434-1.02,1.238,1.238,0,0,1,.924-0.38,1.15,1.15,0,0,1,.518.11,1.173,1.173,0,0,1,.35.3,1.3,1.3,0,0,1,.2.45,2.059,2.059,0,0,1,.063.51Zm11.646,0.42a3.167,3.167,0,0,0-.8-2.31,2.881,2.881,0,0,0-2.163-.82,3.556,3.556,0,0,0-1.372.25,3.2,3.2,0,0,0-1.057.73,3.032,3.032,0,0,0-.679,1.11,4.185,4.185,0,0,0-.238,1.45,3.712,3.712,0,0,0,.294,1.54,2.982,2.982,0,0,0,.791,1.06,3.158,3.158,0,0,0,1.162.62,4.691,4.691,0,0,0,1.421.21,5.97,5.97,0,0,0,1.358-.14,4.236,4.236,0,0,0,.952-0.31l-0.336-1.3a4.98,4.98,0,0,1-.777.26,3.664,3.664,0,0,1-.987.12,2.47,2.47,0,0,1-1.442-.4,1.345,1.345,0,0,1-.56-1.19v-0.05h4.438v-0.83Zm-4.4-.42a1.674,1.674,0,0,1,.434-1.02,1.238,1.238,0,0,1,.924-0.38,1.15,1.15,0,0,1,.518.11,1.173,1.173,0,0,1,.35.3,1.3,1.3,0,0,1,.2.45,2.059,2.059,0,0,1,.063.51Zm9.686-2.57h-1.778v-2.06h-1.848v2.06h-1.036V1059h1.036v3.4a1.88,1.88,0,0,0,.518,1.45,2.525,2.525,0,0,0,1.736.48,4.111,4.111,0,0,0,1.008-.11,3.917,3.917,0,0,0,.714-0.22l-0.28-1.3a1.984,1.984,0,0,1-.476.15,2.864,2.864,0,0,1-.574.06,0.881,0.881,0,0,1-.581-0.18,0.8,0.8,0,0,1-.217-0.65V1059H692.4v-1.34Z" transform="translate(-620 -1047)"/>
</svg>
