<svg id="ic-address" xmlns="http://www.w3.org/2000/svg" width="60" height="60.06" viewBox="0 0 60 60.06">
  <metadata><?xpacket begin="﻿" id="W5M0MpCehiHzreSzNTczkc9d"?>
<x:xmpmeta xmlns:x="adobe:ns:meta/" x:xmptk="Adobe XMP Core 5.6-c142 79.160924, 2017/07/13-01:06:39        ">
   <rdf:RDF xmlns:rdf="http://www.w3.org/1999/02/22-rdf-syntax-ns#">
      <rdf:Description rdf:about=""/>
   </rdf:RDF>
</x:xmpmeta>
                                                                                                    
                                                                                                    
                                                                                                    
                                                                                                    
                                                                                                    
                                                                                                    
                                                                                                    
                                                                                                    
                                                                                                    
                                                                                                    
                                                                                                    
                                                                                                    
                                                                                                    
                                                                                                    
                                                                                                    
                                                                                                    
                                                                                                    
                                                                                                    
                                                                                                    
                                                                                                    
                           
<?xpacket end="w"?></metadata>
<defs>
    <style>
      .cls-1 {
        fill: #65aaa9;
      }

      .cls-1, .cls-2 {
        fill-rule: evenodd;
      }

      .cls-2 {
        fill: #0c1319;
      }
    </style>
  </defs>
  <path id="Эллипс_1" data-name="Эллипс 1" class="cls-1" d="M1255,1458a30,30,0,0,0,0-60" transform="translate(-1226 -1397.97)"/>
  <path id="Заливка_цветом_1" data-name="Заливка цветом 1" class="cls-2" d="M1257.17,1398.07a10.083,10.083,0,0,0-3.15.04,29.98,29.98,0,0,0-23.84,14.65,0.953,0.953,0,0,0-.13.38,9.563,9.563,0,0,0-1.18,2.06l-0.08.16a30.027,30.027,0,0,0,27.18,42.68h0.05a29.9,29.9,0,0,0,24.85-13.26,0.927,0.927,0,0,0,.2-0.3,30.018,30.018,0,0,0,4.93-16.44v-0.09A30.035,30.035,0,0,0,1257.17,1398.07Zm14.26,42.38a48.481,48.481,0,0,0,1.56-11.49h10.99a28.135,28.135,0,0,1-4.25,13.91A48.988,48.988,0,0,0,1271.43,1440.45Zm-20.59,13.49c-0.48-.28-0.93-0.54-1.34-0.83a3.312,3.312,0,0,1-1.5-2.27,4.209,4.209,0,0,1,.55-1.69,5.724,5.724,0,0,0,.51-1.51,3.109,3.109,0,0,1,.51-1.3,3.228,3.228,0,0,1,1-.62,6.66,6.66,0,0,0,1.19-.68,7.92,7.92,0,0,0,1.94-2.33,14.508,14.508,0,0,0,.65-1.31,12.974,12.974,0,0,1,.65-1.29v15.9c-0.51-.01-1.01-0.05-1.5-0.09A10.782,10.782,0,0,0,1250.84,1453.94Zm6.41-53.84c4.95,0.92,9.22,6.3,11.63,13.81a77.46,77.46,0,0,1-11.88,1.04v-14.89h0.03c0.04,0.01.09,0.01,0.13,0.02A0.292,0.292,0,0,0,1257.25,1400.1Zm12.21,15.75a47.371,47.371,0,0,1,1.53,11.11H1257v-10.02A78.914,78.914,0,0,0,1269.46,1415.85ZM1255,1401.92c-0.14.02-.28,0.03-0.41,0.04a10.06,10.06,0,0,1-1.45.07,5.469,5.469,0,0,1-3.25-1.3,27.5,27.5,0,0,1,5.11-.66v1.85Zm-0.25,26.34c-1.44-1.06-2.38-1.84-2.38-3.01a1.345,1.345,0,0,1,.86-1.23,1.873,1.873,0,0,1,1.46.29c0.11,0.05.2,0.09,0.31,0.13v4.01Zm2.25,12.71a78.108,78.108,0,0,1,11.93,1.04c-2.45,7.7-6.84,13.06-11.93,13.84h0v-14.88Zm0-7.33v-4.68h13.99a47.856,47.856,0,0,1-1.49,11.11,78.142,78.142,0,0,0-12.5-1.09h0v-5.34Zm14.44-18.18a50.749,50.749,0,0,0,8.21-2.38,27.706,27.706,0,0,1,4.32,13.87l-10.98.01A49.072,49.072,0,0,0,1271.44,1415.46Zm-0.55-1.93c-1.69-5.38-4.3-9.76-7.5-12.49a28.042,28.042,0,0,1,15.11,10.36A50.256,50.256,0,0,1,1270.89,1413.53Zm-17.85-9.51c0.12,0.01.24,0.01,0.36,0.01,0.47,0,.93-0.04,1.37-0.08,0.08-.01.15-0.01,0.22-0.02v18.34a3.211,3.211,0,0,0-2.49-.11,3.317,3.317,0,0,0-2.13,3.1c0,2.26,1.77,3.56,3.19,4.61,0.17,0.13.35,0.26,0.52,0.39a6.31,6.31,0,0,1,.92,1.01v1.4c-2.05-.52-4.1-1.04-6.16-1.54-1.7-.41-3.41-0.91-4.11-2.17a6.338,6.338,0,0,1-.54-1.8,6.622,6.622,0,0,0-1.01-2.78,6.969,6.969,0,0,0-3.96-2.17l-0.16-.04c-0.95-.29-2.25-0.78-2.61-1.7a4.057,4.057,0,0,1,.43-2.69,6.383,6.383,0,0,0,.54-3.78,3.363,3.363,0,0,0-1.8-2.27,4.109,4.109,0,0,0-2.13-.35,27.784,27.784,0,0,1,14.19-10.06A7.366,7.366,0,0,0,1253.04,1404.02Zm-22.43,12.19,0.07-.16a6.049,6.049,0,0,1,1.2-1.95,2,2,0,0,1,.64-0.43,3.274,3.274,0,0,1,1.38-.31,1.931,1.931,0,0,1,.85.17,1.373,1.373,0,0,1,.73.96,4.706,4.706,0,0,1-.49,2.61,5.687,5.687,0,0,0-.41,4.09c0.67,1.74,2.54,2.48,3.9,2.9l0.19,0.05a5.306,5.306,0,0,1,2.89,1.44,5,5,0,0,1,.66,1.97,7.868,7.868,0,0,0,.75,2.38c1.18,2.13,3.82,2.77,5.39,3.15,2.19,0.53,4.38,1.08,6.56,1.63l0.07,0.02v2.65a3.573,3.573,0,0,0-1,.73,8.946,8.946,0,0,0-1.46,2.47c-0.19.42-.37,0.8-0.56,1.14a5.873,5.873,0,0,1-1.43,1.74,5.162,5.162,0,0,1-.83.46,4.9,4.9,0,0,0-1.62,1.08,4.6,4.6,0,0,0-.97,2.17,4.856,4.856,0,0,1-.34,1.06,5.625,5.625,0,0,0-.78,2.61,4.986,4.986,0,0,0,2.34,3.89c0.21,0.15.42,0.29,0.64,0.42A28.03,28.03,0,0,1,1230.61,1416.21Zm32.42,38.92c3.33-2.7,6.08-7.19,7.84-12.75a49.274,49.274,0,0,1,7.73,2.17,28.573,28.573,0,0,1-3.78,4.22A27.972,27.972,0,0,1,1263.03,1455.13Z" transform="translate(-1226 -1397.97)"/>
</svg>
