<svg id="ic-invest" xmlns="http://www.w3.org/2000/svg" width="112" height="120" viewBox="0 0 112 120">
  <metadata><?xpacket begin="﻿" id="W5M0MpCehiHzreSzNTczkc9d"?>
<x:xmpmeta xmlns:x="adobe:ns:meta/" x:xmptk="Adobe XMP Core 5.6-c142 79.160924, 2017/07/13-01:06:39        ">
   <rdf:RDF xmlns:rdf="http://www.w3.org/1999/02/22-rdf-syntax-ns#">
      <rdf:Description rdf:about=""/>
   </rdf:RDF>
</x:xmpmeta>
                                                                                                    
                                                                                                    
                                                                                                    
                                                                                                    
                                                                                                    
                                                                                                    
                                                                                                    
                                                                                                    
                                                                                                    
                                                                                                    
                                                                                                    
                                                                                                    
                                                                                                    
                                                                                                    
                                                                                                    
                                                                                                    
                                                                                                    
                                                                                                    
                                                                                                    
                                                                                                    
                           
<?xpacket end="w"?></metadata>
<defs>
    <style>
      .cls-1 {
        fill: #bef2f1;
      }

      .cls-1, .cls-2, .cls-3 {
        fill-rule: evenodd;
      }

      .cls-2 {
        fill: #0c1319;
      }

      .cls-3 {
        fill: #65aaa9;
      }
    </style>
  </defs>
  <path id="Прямоугольник_505" data-name="Прямоугольник 505" class="cls-1" d="M2535,2982h72.14v120H2535V2982Z" transform="translate(-2535 -2982)"/>
  <path id="Заливка_цветом_1" data-name="Заливка цветом 1" class="cls-2" d="M2623.05,3023.53h-1.83a3.587,3.587,0,0,0,1.34,2.67,4.068,4.068,0,0,0,2.07.97v2.19h1.83v-2.19a4.585,4.585,0,0,0,2.07-.97,3.34,3.34,0,0,0,0-5.35,4.368,4.368,0,0,0-2.93-1.09,2.609,2.609,0,0,1-1.7-.61,1.766,1.766,0,0,1,0-2.67,2.762,2.762,0,0,1,3.53,0,1.923,1.923,0,0,1,.61,1.34h1.83a3.59,3.59,0,0,0-1.34-2.68,4.15,4.15,0,0,0-2.07-.97v-2.19h-1.83v2.19a4.691,4.691,0,0,0-2.07.97,3.066,3.066,0,0,0-1.34,2.68,3.4,3.4,0,0,0,1.34,2.67,4.149,4.149,0,0,0,2.92,1.09,2.692,2.692,0,0,1,1.71.61,1.985,1.985,0,0,1,.61,1.34,1.962,1.962,0,0,1-.61,1.33,3.135,3.135,0,0,1-3.54,0A1.95,1.95,0,0,1,2623.05,3023.53Z" transform="translate(-2535 -2982)"/>
  <path id="Заливка_цветом_8" data-name="Заливка цветом 8" class="cls-3" d="M2624.03,2997h1.05v4.43h-1.05V2997Zm-8.09,6.55-0.92.53-2.21-3.84,0.91-.53Zm-11.24,5.14,0.53-.91,3.83,2.21-0.52.91Zm-2.7,10.34h4.43v1.05H2602v-1.05Zm2.76,11.29,3.84-2.21,0.53,0.91-3.84,2.22Zm8.05,8.39,2.22-3.84,0.91,0.53-2.21,3.83Zm11.22-1.15h1.05V3042h-1.05v-4.44Zm9.08-2.16,0.91-.53,2.22,3.84-0.92.52Zm6.76-6.43,0.53-.91,3.84,2.21-0.53.91Zm2.69-9.94H2647v1.05h-4.44v-1.05Zm1.73-10.31-3.84,2.22-0.53-.91,3.84-2.22Zm-8.09-8.42-2.21,3.84-0.91-.53,2.21-3.83Z" transform="translate(-2535 -2982)"/>
  <path id="Заливка_цветом_2" data-name="Заливка цветом 2" class="cls-2" d="M2639.01,3020.73a13.65,13.65,0,1,0-27.3-.12,13.461,13.461,0,0,0,5.24,10.7c-7.43,10.33-11.21,22.85-13.04,33.78-1.34-9.35-4.51-17.25-9.14-23.33a11.031,11.031,0,1,0-7.67,3.16,11.406,11.406,0,0,0,6.33-1.95c7.19,9.48,9.14,21.88,9.51,30.75h0c0,0.49-.12.98-0.12,1.46a26.8,26.8,0,0,0-7.56-7.05c0.98-2.43.24-4.25-2.31-5.71a10.719,10.719,0,0,0-5.37-1.09,27.7,27.7,0,0,0-4.14.36l-1.1.24,0.37,0.98c0.12,0.24,2.32,6.07,5.36,7.9a6.454,6.454,0,0,0,2.93.97,4.052,4.052,0,0,0,3.29-1.95,23.176,23.176,0,0,1,8.28,8.76,73.1,73.1,0,0,0,.12,7.41l1.83-.12a86.381,86.381,0,0,1,.25-13.49c2.31-6.45,7.55-10.82,11.33-13.25a4.519,4.519,0,0,0,3.78,2.19,7.369,7.369,0,0,0,3.41-1.1c3.65-2.06,6.21-8.87,6.21-9.23l0.37-.98-1.1-.24a38.062,38.062,0,0,0-4.87-.36c-2.8,0-4.88.36-6.34,1.21-1.83,1.1-2.8,2.31-3.04,3.77a4.743,4.743,0,0,0,.6,3.04,33.592,33.592,0,0,0-9.74,9.48c1.58-11.18,5.36-24.07,13.03-34.64a12.9,12.9,0,0,0,6.95,2.07A13.61,13.61,0,0,0,2639.01,3020.73Zm-51.91,4.01a9.24,9.24,0,1,1-9.26,9.24A9.255,9.255,0,0,1,2587.1,3024.74Zm1.95,44.49c-1.71-.98-3.29-4.01-4.15-5.84a18.312,18.312,0,0,1,2.68-.12,8.969,8.969,0,0,1,4.51.85c1.83,1.1,2.07,2.07,1.59,3.28a10.517,10.517,0,0,1-2.07-1.09l-0.74,1.7s0.74,0.37,1.95.97a2.153,2.153,0,0,1-1.82.98A3.588,3.588,0,0,1,2589.05,3069.23Zm29.61-16.78a11.762,11.762,0,0,1,5.36-.97,23.32,23.32,0,0,1,3.41.25c-0.85,1.94-2.68,5.83-4.99,7.17-2.08,1.21-3.42,1.21-4.63-.49a12.651,12.651,0,0,1,2.43-1.22l-0.73-1.7a17.613,17.613,0,0,0-2.56,1.34,2.669,2.669,0,0,1-.49-1.94A3.748,3.748,0,0,1,2618.66,3052.45Zm6.7-43.63a11.85,11.85,0,1,1-11.82,11.79A11.817,11.817,0,0,1,2625.36,3008.82Z" transform="translate(-2535 -2982)"/>
  <path id="Заливка_цветом_3" data-name="Заливка цветом 3" class="cls-3" d="M2588.8,3031.79h1.83a2.971,2.971,0,0,0-1.1-2.31,3.884,3.884,0,0,0-1.58-.73v-1.58h-1.83v1.58a3.945,3.945,0,0,0-1.58.73,2.975,2.975,0,0,0,0,4.62,3.5,3.5,0,0,0,2.43.85,1.4,1.4,0,0,1,1.22.49,1.472,1.472,0,0,1,.49.97,0.9,0.9,0,0,1-.49.85,2.017,2.017,0,0,1-2.56,0,1.547,1.547,0,0,1-.48-0.85h-1.83a2.971,2.971,0,0,0,1.1,2.31,3.64,3.64,0,0,0,1.58.73v1.58h1.83v-1.58a3.694,3.694,0,0,0,1.58-.73,2.976,2.976,0,0,0,0-4.62,3.5,3.5,0,0,0-2.44-.85,1.39,1.39,0,0,1-1.21-.49,1.479,1.479,0,0,1-.49-0.85,1.449,1.449,0,0,1,.49-0.97,2.2,2.2,0,0,1,2.56-.12A1.505,1.505,0,0,1,2588.8,3031.79Z" transform="translate(-2535 -2982)"/>
  <path id="_3" data-name="3" class="cls-3" d="M2546.17,3000.39c-0.17-.03-0.31-0.06-0.41-0.08-0.09-.09-0.19-0.21-0.31-0.33s-0.23-.26-0.36-0.39-0.24-.25-0.35-0.37-0.2-.21-0.26-0.28h-0.32l-0.45,1.44a2.855,2.855,0,0,0,.58.33,6.564,6.564,0,0,0,.75.26,7.274,7.274,0,0,0,.81.17,7.446,7.446,0,0,0,.79.05,4.188,4.188,0,0,0,1.46-.25,3.721,3.721,0,0,0,1.23-.7,3.417,3.417,0,0,0,.96-3.79,2.816,2.816,0,0,0-.62-0.99,3.129,3.129,0,0,0-1-.69,3.714,3.714,0,0,0-1.34-.28l-0.55.11v-0.03l0.69-.71,2.67-3.56v-0.5h-6.25c0,0.19.01,0.4,0.03,0.64s0.05,0.48.08,0.73,0.06,0.5.1,0.76,0.08,0.49.12,0.72h0.4l0.63-1.64h2.7l0.86-.09v0.06l-0.54.56-2.69,3.6v0.44h1.04a2.731,2.731,0,0,1,.92.15,2.208,2.208,0,0,1,.75.45,1.976,1.976,0,0,1,.5.74,2.762,2.762,0,0,1,.18,1.04,2.692,2.692,0,0,1-.16.94,2.782,2.782,0,0,1-.46.79,2.192,2.192,0,0,1-.67.55,1.846,1.846,0,0,1-.83.2A4.03,4.03,0,0,1,2546.17,3000.39Z" transform="translate(-2535 -2982)"/>
</svg>
