<svg id="ic-building-own" xmlns="http://www.w3.org/2000/svg" width="180" height="112" viewBox="0 0 180 112"><defs><style>.cls-1{fill:#ebf7fb}.cls-2,.cls-3{fill:#65aaa9;fill-rule:evenodd}.cls-3{fill:#0c1319}</style></defs><path id="Прямоугольник_513" data-name="Прямоугольник 513" class="cls-1" d="M0 0h180v90H0z"/><path id="Фигура_1008" data-name="Фигура 1008" class="cls-2" d="M1087 1377h22v78h-11v-50h-11v-28z" transform="translate(-1014 -1344)"/><path id="Заливка_цветом_34" data-name="Заливка цветом 34" class="cls-3" d="M1117.15 1414.03v-1.92a1.125 1.125 0 1 0-2.25 0v1.92a1.126 1.126 0 0 0 1.12 1.13 1.066 1.066 0 0 0 1.13-1.13zm5.41 0v-1.92a1.125 1.125 0 1 0-2.25 0v1.92a1.125 1.125 0 1 0 2.25 0zm5.3 0v-1.92a1.13 1.13 0 0 0-2.26 0v1.92a1.134 1.134 0 0 0 1.13 1.13 1.066 1.066 0 0 0 1.13-1.13zm-10.71 7.9v-1.92a1.125 1.125 0 1 0-2.25 0v1.92a1.124 1.124 0 0 0 1.12 1.12 1.063 1.063 0 0 0 1.13-1.12zm5.41 0v-1.92a1.125 1.125 0 1 0-2.25 0v1.92a1.125 1.125 0 0 0 2.25 0zm5.3 0v-1.92a1.13 1.13 0 0 0-2.26 0v1.92a1.132 1.132 0 0 0 1.13 1.12 1.063 1.063 0 0 0 1.13-1.12zm-10.71 7.89v-1.91a1.125 1.125 0 1 0-2.25 0v1.91a1.206 1.206 0 0 0 1.12 1.13 1.066 1.066 0 0 0 1.13-1.13zm5.41 0v-1.91a1.125 1.125 0 1 0-2.25 0v1.91a1.126 1.126 0 0 0 1.12 1.13 1.066 1.066 0 0 0 1.13-1.13zm5.3 0v-1.91a1.13 1.13 0 1 0-2.26 0v1.91a1.215 1.215 0 0 0 1.13 1.13 1.066 1.066 0 0 0 1.13-1.13zm-10.71 7.79v-1.92a1.125 1.125 0 1 0-2.25 0v1.92a1.126 1.126 0 0 0 1.12 1.13 1.066 1.066 0 0 0 1.13-1.13zm5.41 0v-1.92a1.125 1.125 0 1 0-2.25 0v1.92a1.125 1.125 0 1 0 2.25 0zm5.3 0v-1.92a1.13 1.13 0 1 0-2.26 0v1.92a1.134 1.134 0 0 0 1.13 1.13 1.066 1.066 0 0 0 1.13-1.13zm-10.71 7.9v-1.92a1.125 1.125 0 1 0-2.25 0v1.92a1.214 1.214 0 0 0 1.12 1.13 1.071 1.071 0 0 0 1.13-1.13zm5.41 0v-1.92a1.125 1.125 0 1 0-2.25 0v1.92a1.132 1.132 0 0 0 1.12 1.13 1.071 1.071 0 0 0 1.13-1.13zm5.3 0v-1.92a1.13 1.13 0 0 0-2.26 0v1.92a1.223 1.223 0 0 0 1.13 1.13 1.071 1.071 0 0 0 1.13-1.13zm-47.9-33.4v1.92a1.125 1.125 0 1 0 2.25 0v-1.92a1.132 1.132 0 0 0-1.12-1.13 1.066 1.066 0 0 0-1.13 1.13zm5.41 0v1.92a1.125 1.125 0 1 0 2.25 0v-1.92a1.214 1.214 0 0 0-1.12-1.13 1.066 1.066 0 0 0-1.13 1.13zm5.41 0v1.92a1.125 1.125 0 1 0 2.25 0v-1.92a1.214 1.214 0 0 0-1.12-1.13 1.066 1.066 0 0 0-1.13 1.13zm-10.82 7.9v1.92a1.125 1.125 0 0 0 2.25 0v-1.92a1.125 1.125 0 1 0-2.25 0zm5.41 0v1.92a1.125 1.125 0 0 0 2.25 0v-1.92a1.126 1.126 0 0 0-1.12-1.13 1.066 1.066 0 0 0-1.13 1.13zm5.41 0v1.92a1.125 1.125 0 0 0 2.25 0v-1.92a1.126 1.126 0 0 0-1.12-1.13 1.066 1.066 0 0 0-1.13 1.13zm-10.82 7.9v1.91a1.125 1.125 0 1 0 2.25 0v-1.91a1.125 1.125 0 1 0-2.25 0zm5.41 0v1.91a1.125 1.125 0 1 0 2.25 0v-1.91a1.126 1.126 0 0 0-1.12-1.13 1.066 1.066 0 0 0-1.13 1.13zm5.41 0v1.91a1.125 1.125 0 1 0 2.25 0v-1.91a1.126 1.126 0 0 0-1.12-1.13 1.066 1.066 0 0 0-1.13 1.13zm-10.82 7.78v1.92a1.125 1.125 0 1 0 2.25 0v-1.92a1.132 1.132 0 0 0-1.12-1.13 1.066 1.066 0 0 0-1.13 1.13zm5.41 0v1.92a1.125 1.125 0 1 0 2.25 0v-1.92a1.214 1.214 0 0 0-1.12-1.13 1.066 1.066 0 0 0-1.13 1.13zm5.41 0v1.92a1.125 1.125 0 1 0 2.25 0v-1.92a1.214 1.214 0 0 0-1.12-1.13 1.066 1.066 0 0 0-1.13 1.13zm-10.82 7.9v1.92a1.125 1.125 0 1 0 2.25 0v-1.92a1.125 1.125 0 1 0-2.25 0zm5.41 0v1.92a1.125 1.125 0 1 0 2.25 0v-1.92a1.126 1.126 0 0 0-1.12-1.13 1.066 1.066 0 0 0-1.13 1.13zm5.41 0v1.92a1.125 1.125 0 1 0 2.25 0v-1.92a1.126 1.126 0 0 0-1.12-1.13 1.066 1.066 0 0 0-1.13 1.13zm48.23 11.17a1.063 1.063 0 0 0-1.12-1.13h-3.38v-46.26a1.078 1.078 0 0 0-.68-1.01l-23.67-10.72v-18.5a1.063 1.063 0 0 0-1.12-1.13h-21.75a1.066 1.066 0 0 0-1.13 1.13v27.3h-11.72a1.066 1.066 0 0 0-1.13 1.13v48.17h-4.17a1.13 1.13 0 1 0 0 2.26l68.75-.11a1.063 1.063 0 0 0 1.12-1.13zm-6.76-1.02h-21.75v-55.51l21.75 9.93v45.58zm-24.34-75.48v75.37h-8.34v-7.11h4.62a1.125 1.125 0 1 0 0-2.25h-4.62v-6.55h4.62a1.125 1.125 0 1 0 0-2.25h-4.62v-6.55h4.62a1.125 1.125 0 1 0 0-2.25h-4.62v-6.55h4.62a1.125 1.125 0 1 0 0-2.25h-4.62v-6.44h4.62a1.125 1.125 0 1 0 0-2.25h-4.62v-3.73a1.063 1.063 0 0 0-1.13-1.12h-10.03v-26.07h19.5zm-10.59 28.32v47.05h-21.76v-47.05h21.76zm6.98-21.43a1.13 1.13 0 1 0 0-2.26h-12.39a1.13 1.13 0 1 0 0 2.26h12.39zm0 8.68a1.125 1.125 0 1 0 0-2.25h-12.39a1.125 1.125 0 1 0 0 2.25h12.39zm-.11 6.55h-12.4a1.125 1.125 0 0 0 0 2.25h12.4a1.125 1.125 0 1 0 0-2.25z" transform="translate(-1014 -1344)"/></svg>