<svg id="logo" xmlns="http://www.w3.org/2000/svg" width="221.28" height="66.28" viewBox="0 0 221.28 66.28"><defs><style>.cls-1{fill:#fff;fill-rule:evenodd}</style></defs><path id="julia" class="cls-1" d="M1965.21 8267.08c-.05.15-.1.36-.16.62s0 .52-.05.72v6.47a1.536 1.536 0 0 1-.2.82 3.3 3.3 0 0 1-.62.62 2.52 2.52 0 0 1-.98.52 2.906 2.906 0 0 1-.92.15 1.415 1.415 0 0 1-.46-.05 3.921 3.921 0 0 1-.42-.15.892.892 0 0 1-.3-.31 1.34 1.34 0 0 1-.11-.47.861.861 0 0 1 .26-.57.784.784 0 0 1 .57-.2.663.663 0 0 1 .51.2.694.694 0 0 1 .21.52.529.529 0 0 1-.21.47 1.554 1.554 0 0 1-.51.2v.05a.562.562 0 0 0 .2.16.485.485 0 0 0 .26.05.7.7 0 0 0 .56-.26 1.143 1.143 0 0 0 .31-.57 3.05 3.05 0 0 0 .1-.72c0-.26.06-.52.06-.83v-6.92c0-.16-.06-.31-.06-.42a.751.751 0 0 0-.1-.31 1.028 1.028 0 0 0-.56-.31c-.26-.05-.47-.1-.72-.15v-.16h4.42v.16a3.31 3.31 0 0 1-.52.2 1.028 1.028 0 0 0-.56.47zm18.66.26a1.245 1.245 0 0 0-.11.31c0 .15-.05.31-.05.51s-.05.42-.05.62v.68a13.873 13.873 0 0 1-.05 1.39c0 .52-.05 1.09-.05 1.76a3.258 3.258 0 0 1-.05.67 2.7 2.7 0 0 1-.16.88 3.248 3.248 0 0 1-.36.93 2.8 2.8 0 0 1-.72.88 3.567 3.567 0 0 1-1.18.62 7.355 7.355 0 0 1-3.49 0 4.711 4.711 0 0 1-1.19-.57 2.894 2.894 0 0 1-.72-.82 3.631 3.631 0 0 1-.36-.88 2.634 2.634 0 0 1-.15-.78v-5.89c0-.16-.05-.31-.05-.42a.292.292 0 0 0-.16-.26 1.942 1.942 0 0 0-.51-.36c-.21-.05-.41-.1-.67-.15v-.16h4.27v.16a1.175 1.175 0 0 0-.41.1 1 1 0 0 0-.41.21 1.613 1.613 0 0 0-.31.36.9.9 0 0 0-.16.57v5.38a5.8 5.8 0 0 0 .21 1.39 3.52 3.52 0 0 0 .62 1.09 2.356 2.356 0 0 0 .92.67 3.9 3.9 0 0 0 2.67.05 2.7 2.7 0 0 0 1.55-1.29 3.361 3.361 0 0 0 .3-.93c.06-.31.11-.67.16-.98 0-.37.05-.68.05-.99v-3.56a1.639 1.639 0 0 0-.05-.52.594.594 0 0 0-.1-.36 1.658 1.658 0 0 0-.52-.68 2.568 2.568 0 0 0-1.03-.36v-.15h3.55v.15a.787.787 0 0 0-.77.11 1.319 1.319 0 0 0-.46.62zm8.58 9.35v-.15a3.265 3.265 0 0 0 .72-.21 1.47 1.47 0 0 0 .57-.36.41.41 0 0 0 .1-.26c.05-.1.05-.26.1-.36 0-.15.05-.31.05-.46v-7.24c0-.16-.05-.26-.05-.42a.252.252 0 0 0-.15-.26 1.32 1.32 0 0 0-.52-.36 1.655 1.655 0 0 0-.72-.15v-.16h4.58v.16a2.6 2.6 0 0 0-.46.1 2.268 2.268 0 0 0-.52.21 1.286 1.286 0 0 0-.41.36 2.037 2.037 0 0 0-.21.62v6.88a4.105 4.105 0 0 0 .06.88 1.162 1.162 0 0 0 .15.62.631.631 0 0 0 .21.15.951.951 0 0 0 .41.1c.15.06.36.06.51.11a2.017 2.017 0 0 0 .57.05h.36a2.32 2.32 0 0 0 .56-.05c.21 0 .41-.05.62-.05.2-.06.41-.06.56-.11a4.444 4.444 0 0 0 .98-.41 2.606 2.606 0 0 0 .67-.62 2.251 2.251 0 0 0 .46-.73c.1-.25.26-.56.36-.82l.16.05-.52 2.89h-9.2zm16.91 0v-.15a2.287 2.287 0 0 0 .67-.21 1.569 1.569 0 0 0 .51-.36.368.368 0 0 0 .11-.26c0-.1.05-.2.05-.36a1.445 1.445 0 0 1 .05-.46v-7.24c0-.16-.05-.31-.05-.42a.292.292 0 0 0-.16-.26 1.942 1.942 0 0 0-.51-.36c-.21-.05-.41-.1-.67-.15v-.16h4.32v.16c-.21.05-.41.1-.67.15a.933.933 0 0 0-.51.47 1.037 1.037 0 0 0-.16.62v7.86a.826.826 0 0 0 .16.57.92.92 0 0 0 .56.36 1.862 1.862 0 0 0 .67.15v.16h-4.37v-.11zm18.04 0v-.15a.408.408 0 0 0 .21-.05 1.167 1.167 0 0 0 .36-.11 1.24 1.24 0 0 0 .31-.2.472.472 0 0 0 .15-.31 2.357 2.357 0 0 0-.1-.42 6.9 6.9 0 0 0-.21-.72c-.1-.31-.2-.62-.31-.93a8.6 8.6 0 0 0-.41-1.09h-3.8c-.15.37-.31.73-.41 1.04-.16.31-.26.67-.41.98a3.509 3.509 0 0 0-.31 1.08.793.793 0 0 0 .1.32.484.484 0 0 0 .31.2.988.988 0 0 0 .41.11c.16 0 .26.05.41.05v.15h-3.08v-.15a1.8 1.8 0 0 0 .62-.21 1.74 1.74 0 0 0 .3-.21 2.189 2.189 0 0 0 .31-.46 7.411 7.411 0 0 0 .57-1.14c.2-.46.41-.98.67-1.55s.51-1.19.77-1.81.51-1.24.77-1.86.51-1.19.72-1.76l-.16-.31a1.839 1.839 0 0 0 .47-.26 2.237 2.237 0 0 0 .36-.31 1.176 1.176 0 0 0 .25-.31 1.082 1.082 0 0 1 .16-.25h.1c.31.77.57 1.55.82 2.27s.52 1.4.77 2.07.47 1.29.72 1.91c.21.62.47 1.24.67 1.86a3.526 3.526 0 0 0 .31.73 7.193 7.193 0 0 1 .31.67.39.39 0 0 0 .15.2 1.226 1.226 0 0 0 .26.31 1.029 1.029 0 0 0 .41.26 1.589 1.589 0 0 0 .57.16v.15h-4.12v.05zm-2.1-8.16c-.11.25-.26.62-.42.98s-.35.83-.51 1.29c-.2.47-.41 1.03-.62 1.6h3.6a13.8 13.8 0 0 0-.51-1.29 13.077 13.077 0 0 0-.52-1.24 8.564 8.564 0 0 1-.41-1.09 3.565 3.565 0 0 1-.36-.82c-.05.1-.15.31-.25.57z" transform="translate(-1887.72 -8248)"/><path id="maksimova" class="cls-1" d="M1969.24 8297.54a1.986 1.986 0 0 0 1.03-.26 1.355 1.355 0 0 0 .56-.52 2.139 2.139 0 0 0 .16-.46 2.2 2.2 0 0 0 .05-.57c0-.62.05-1.24.05-1.81v-5.89c-.31.72-.62 1.34-.87 1.96s-.52 1.19-.77 1.76-.52 1.14-.78 1.76c-.25.57-.56 1.24-.87 1.96-.05.1-.1.26-.21.47s-.15.41-.25.62-.16.41-.26.57a1.284 1.284 0 0 1-.15.36h-.11c-.3-.73-.61-1.4-.92-2.12s-.62-1.4-.88-2.02c-.3-.67-.56-1.24-.82-1.81s-.46-1.08-.67-1.5-.36-.82-.51-1.13-.21-.52-.26-.62v6.51a8.635 8.635 0 0 0 .05 1.19 3.849 3.849 0 0 0 .21.83 1.253 1.253 0 0 0 .51.51 2.377 2.377 0 0 0 .98.26v.16h-3.75v-.16a1.622 1.622 0 0 0 .82-.31 2.1 2.1 0 0 0 .51-.52 2.647 2.647 0 0 0 .26-.87 9.047 9.047 0 0 0 .1-1.25c0-.41.06-.87.06-1.44v-4.4a1.472 1.472 0 0 0-.16-.67 1.286 1.286 0 0 0-.36-.41 1.57 1.57 0 0 0-.46-.21c-.15-.05-.31-.05-.41-.1v-.16h3.08l3.45 7.86c.41-.93.82-1.81 1.23-2.74s.77-1.71 1.08-2.48c.31-.73.56-1.35.77-1.81s.31-.78.36-.83h3.08v.16a1.327 1.327 0 0 0-.87.26 1.039 1.039 0 0 0-.41.56 2.67 2.67 0 0 0-.1.78c0 .36-.06.67-.06 1.03v5.79a1.815 1.815 0 0 0 .06.57 1.3 1.3 0 0 0 .1.47.619.619 0 0 1 .1.15 1.182 1.182 0 0 0 .26.21 1.22 1.22 0 0 0 .41.21 1.95 1.95 0 0 0 .62.1v.15h-5.04v-.15zm18.35.15v-.15a.428.428 0 0 0 .21-.05 1.167 1.167 0 0 0 .36-.11 1.046 1.046 0 0 0 .3-.2.446.446 0 0 0 .16-.31 2.357 2.357 0 0 0-.1-.42c-.06-.2-.11-.41-.21-.72s-.21-.62-.31-.93a10.451 10.451 0 0 0-.41-1.09h-3.8c-.16.37-.31.73-.42 1.04-.15.31-.25.67-.41.98a3.666 3.666 0 0 0-.3 1.09.8.8 0 0 0 .1.31.458.458 0 0 0 .31.2.947.947 0 0 0 .41.11c.15 0 .25.05.41.05v.15h-3.09v-.15a1.726 1.726 0 0 0 .62-.21 1.557 1.557 0 0 0 .31-.21 3.532 3.532 0 0 0 .31-.46 7.547 7.547 0 0 0 .56-1.14c.21-.46.42-.98.67-1.55s.52-1.19.77-1.81.52-1.24.77-1.86.52-1.19.72-1.76l-.15-.31a1.788 1.788 0 0 0 .46-.26 1.613 1.613 0 0 0 .36-.31 1.226 1.226 0 0 0 .26-.31 1.093 1.093 0 0 1 .15-.25h.11c.3.77.56 1.55.82 2.27s.51 1.39.77 2.07.46 1.29.72 1.91c.2.62.46 1.24.67 1.86a3.054 3.054 0 0 0 .31.73 7.308 7.308 0 0 1 .3.67.436.436 0 0 0 .16.2 1.048 1.048 0 0 0 .26.31.964.964 0 0 0 .41.26 1.594 1.594 0 0 0 .56.16v.15h-4.11v.05zm-2.11-8.16c-.1.25-.25.62-.41.98s-.36.83-.51 1.29c-.21.47-.41 1.04-.62 1.6h3.6c-.16-.41-.31-.88-.52-1.29a10.808 10.808 0 0 0-.51-1.24 6.317 6.317 0 0 1-.41-1.09 3.168 3.168 0 0 1-.36-.82c-.05.1-.15.31-.26.57zm20.82 8.16a.265.265 0 0 1-.15-.1c-.06-.05-.11-.1-.16-.15-.62-.73-1.18-1.4-1.75-2.02s-1.13-1.29-1.69-1.96a3.972 3.972 0 0 0-.52-.52.528.528 0 0 0-.25-.1.2.2 0 0 0-.16.05.265.265 0 0 1-.1.15v2.59c0 .26.05.51.05.77a1.308 1.308 0 0 0 .21.57 1.2 1.2 0 0 0 .25.26c.11.05.26.1.36.15a1.093 1.093 0 0 0 .41.11c.16 0 .26.05.36.05v.15h-4.62v-.15c.26-.05.46-.1.67-.16a1.955 1.955 0 0 0 .51-.31.382.382 0 0 0 .1-.25c0-.11.05-.26.05-.42a1.217 1.217 0 0 1 .06-.46v-6.31a5.655 5.655 0 0 0-.06-1.03 1.22 1.22 0 0 0-.2-.68 1.258 1.258 0 0 0-.51-.36 2.74 2.74 0 0 0-.67-.15v-.16h4.47v.16a1.6 1.6 0 0 0-.52.1 1.7 1.7 0 0 0-.46.21 1.1 1.1 0 0 0-.36.51 2.244 2.244 0 0 0-.15.93v3.57c.15-.1.41-.31.72-.52a12.26 12.26 0 0 0 .92-.87c.31-.31.62-.63.98-.99.31-.36.57-.62.82-.88.16-.2.31-.41.46-.56a.861.861 0 0 0 .21-.57.72.72 0 0 0-.31-.62 2.229 2.229 0 0 0-.67-.26v-.16h3.86v.16a3.04 3.04 0 0 0-1.49.62 10.433 10.433 0 0 0-1.54 1.29c-.21.21-.42.36-.62.57l-.62.62c-.2.21-.41.41-.61.62l-.57.57c.1.1.26.31.51.62s.62.72.98 1.14.77.88 1.23 1.39c.42.52.88.99 1.24 1.4a2.993 2.993 0 0 1 .31.36c.1.1.25.21.36.31s.2.16.3.26a.582.582 0 0 1 .16.1 3.13 3.13 0 0 0 .51.16 3.208 3.208 0 0 0 .72.1v.16h-3.03v-.06zm16.24-.67a2.77 2.77 0 0 1-1.18.57 7.138 7.138 0 0 1-1.49.21 6.317 6.317 0 0 1-1.18-.11 2.718 2.718 0 0 1-.82-.2c-.21-.11-.42-.16-.52-.21l-.2-.1a.368.368 0 0 0-.21.15 1.708 1.708 0 0 0-.26.31h-.15l-.05-2.84h.15c.1.26.21.52.31.77a3.248 3.248 0 0 0 .46.68 3.117 3.117 0 0 0 .52.57 1.6 1.6 0 0 0 .51.36 3.465 3.465 0 0 0 .67.26 2.108 2.108 0 0 0 .77.15 2.762 2.762 0 0 0 1.75-.57 2.009 2.009 0 0 0 .67-1.6 1.658 1.658 0 0 0-.16-.72 1.612 1.612 0 0 0-.36-.52 1.683 1.683 0 0 0-.51-.36 6.036 6.036 0 0 0-.67-.31 2.523 2.523 0 0 0-.62-.21 3.047 3.047 0 0 1-.46-.16c-.15-.05-.31-.1-.46-.15a3.138 3.138 0 0 1-.57-.21 1.924 1.924 0 0 1-.72-.41 6.36 6.36 0 0 1-.61-.57 2.8 2.8 0 0 1-.42-.77 2.5 2.5 0 0 1-.15-.88 2.7 2.7 0 0 1 .31-1.35 3.3 3.3 0 0 1 .77-.93 3.7 3.7 0 0 1 1.08-.57 5.7 5.7 0 0 1 1.34-.2 7.3 7.3 0 0 1 1.13.1 2.577 2.577 0 0 1 .77.26 1.6 1.6 0 0 1 .46.26.619.619 0 0 1 .15.1.208.208 0 0 0 .16-.15 3.3 3.3 0 0 0 .26-.37h.15v2.69h-.15a4.068 4.068 0 0 0-.47-.93c-.2-.31-.41-.57-.61-.83a3.525 3.525 0 0 0-.83-.62 2.3 2.3 0 0 0-1.02-.2 2.228 2.228 0 0 0-.83.15 1.6 1.6 0 0 0-.67.42 1.733 1.733 0 0 0-.46.62 2.407 2.407 0 0 0-.15.87 1.652 1.652 0 0 0 .46 1.24 3.024 3.024 0 0 0 1.18.73c.21.1.36.15.52.21s.31.1.51.15c.16.05.31.1.51.16a2.225 2.225 0 0 1 .52.2 3.2 3.2 0 0 1 1.49 1.04 2.663 2.663 0 0 1 .51 1.7 6.9 6.9 0 0 1-.36 1.19 3.3 3.3 0 0 1-.77.93zm9 .67v-.15a2.386 2.386 0 0 0 .67-.21 1.683 1.683 0 0 0 .51-.36.388.388 0 0 0 .1-.26c0-.1.05-.2.05-.36a1.217 1.217 0 0 1 .06-.46v-7.24c0-.16-.06-.31-.06-.42a.425.425 0 0 0-.15-.25 1.908 1.908 0 0 0-.51-.37c-.21-.05-.42-.1-.67-.15v-.16h4.32v.16c-.21.05-.42.1-.67.15a.951.951 0 0 0-.52.47 1.115 1.115 0 0 0-.15.62v7.86a.865.865 0 0 0 .15.57.945.945 0 0 0 .57.36 1.819 1.819 0 0 0 .67.15v.16h-4.37v-.11zm20.51-.15a1.986 1.986 0 0 0 1.03-.26 1.355 1.355 0 0 0 .56-.52 2.235 2.235 0 0 0 .15-.46 1.846 1.846 0 0 0 .06-.57c0-.62.05-1.24.05-1.81v-5.89c-.31.72-.62 1.34-.88 1.96s-.51 1.19-.77 1.76-.51 1.14-.77 1.76c-.26.57-.56 1.24-.87 1.96-.05.1-.1.26-.21.47s-.15.41-.25.62-.16.41-.26.57-.1.31-.16.36h-.1c-.31-.73-.62-1.4-.92-2.12s-.62-1.4-.88-2.02c-.31-.67-.56-1.24-.82-1.81s-.46-1.08-.67-1.5-.36-.82-.51-1.13-.21-.52-.26-.62v6.51a8.635 8.635 0 0 0 .05 1.19 2.955 2.955 0 0 0 .21.83 1.253 1.253 0 0 0 .51.51 2.377 2.377 0 0 0 .98.26v.16h-3.75v-.16a1.66 1.66 0 0 0 .82-.31 2.29 2.29 0 0 0 .51-.52 2.647 2.647 0 0 0 .26-.87 9.047 9.047 0 0 0 .1-1.25c0-.41.05-.87.05-1.44v-4.4a1.467 1.467 0 0 0-.15-.67 1.42 1.42 0 0 0-.36-.41 1.57 1.57 0 0 0-.46-.21 4.134 4.134 0 0 1-.41-.1v-.16h3.08l3.44 7.86c.41-.93.83-1.81 1.24-2.74s.77-1.71 1.08-2.48c.31-.73.56-1.35.77-1.81a7.994 7.994 0 0 1 .36-.83h3.08v.16a1.308 1.308 0 0 0-.87.26 1.039 1.039 0 0 0-.41.56 2.6 2.6 0 0 0-.11.78c0 .36-.05.67-.05 1.03v5.79a2.163 2.163 0 0 0 .05.57 1.3 1.3 0 0 0 .11.47.619.619 0 0 1 .1.15.984.984 0 0 0 .26.21 1.132 1.132 0 0 0 .41.21 1.933 1.933 0 0 0 .61.1v.15h-5.03v-.15zm21.59-1.24a5.532 5.532 0 0 1-3.86 1.55 5.382 5.382 0 0 1-2.06-.36 5.278 5.278 0 0 1-1.69-1.09 5.093 5.093 0 0 1-1.18-1.65 4.95 4.95 0 0 1-.42-2.17 5.238 5.238 0 0 1 .47-2.23 5.061 5.061 0 0 1 1.18-1.65 4.438 4.438 0 0 1 1.75-1.03 5.91 5.91 0 0 1 2.16-.37 6 6 0 0 1 2.21.42 4.814 4.814 0 0 1 1.64 1.19 5.232 5.232 0 0 1 1.03 1.7 5.147 5.147 0 0 1 .36 2.02 5.984 5.984 0 0 1-.41 1.96 5.119 5.119 0 0 1-1.18 1.71zm-1.08-7.24a4.273 4.273 0 0 0-1.13-1.19 2.784 2.784 0 0 0-1.6-.46 2.645 2.645 0 0 0-1.59.46 3.589 3.589 0 0 0-1.13 1.19 5.3 5.3 0 0 0-.67 1.65 8.609 8.609 0 0 0 0 3.78 4.823 4.823 0 0 0 .67 1.6 3.96 3.96 0 0 0 1.13 1.14 3.158 3.158 0 0 0 1.59.41 2.784 2.784 0 0 0 1.6-.46 4.273 4.273 0 0 0 1.13-1.19 5.49 5.49 0 0 0 .66-1.66 6.993 6.993 0 0 0 .21-1.81 5.49 5.49 0 0 0-.21-1.86 5.129 5.129 0 0 0-.66-1.6zm18.81-1.19a.364.364 0 0 0-.1.16.775.775 0 0 0-.16.26c-.05.1-.15.25-.25.46a6.036 6.036 0 0 0-.31.67c-.21.47-.41.99-.62 1.55s-.46 1.19-.72 1.76c-.26.62-.46 1.24-.72 1.81s-.46 1.19-.67 1.76l-.72 1.45h-.15c-.31-.78-.62-1.55-.88-2.23a22.086 22.086 0 0 0-.82-2.06c-.25-.68-.51-1.3-.77-1.92s-.46-1.24-.72-1.86a1.877 1.877 0 0 0-.2-.46c-.06-.16-.11-.26-.16-.37s-.1-.2-.15-.31-.11-.2-.16-.31a.524.524 0 0 0-.15-.2.915.915 0 0 0-.26-.26.8.8 0 0 0-.36-.21 1.605 1.605 0 0 0-.56-.1v-.16h4.31v.16a.544.544 0 0 0-.25.05.925.925 0 0 0-.36.1.9.9 0 0 0-.36.21.484.484 0 0 0-.16.36 2.736 2.736 0 0 0 .16.62c.1.31.26.73.41 1.19s.36.98.56 1.5c.21.57.42 1.09.62 1.6s.41 1.04.57 1.45a12.094 12.094 0 0 1 .41 1.14 4.644 4.644 0 0 0 .26-.67c.15-.37.3-.78.51-1.24.2-.52.41-1.09.67-1.71s.51-1.29.77-2.02a7.042 7.042 0 0 0 .36-1.19 4.524 4.524 0 0 0 .1-.56.5.5 0 0 0-.15-.37 2.8 2.8 0 0 0-.36-.25 1.456 1.456 0 0 0-.47-.16 1.269 1.269 0 0 0-.41-.05v-.16h3.34v.16a2.455 2.455 0 0 0-.61.21 1.2 1.2 0 0 0-.31.2zm13.47 9.82v-.15a.378.378 0 0 0 .2-.05 1.353 1.353 0 0 0 .67-.31.472.472 0 0 0 .15-.31.817.817 0 0 0-.1-.42 6.256 6.256 0 0 1-.2-.72c-.11-.31-.21-.62-.31-.93-.11-.36-.26-.72-.41-1.09h-3.81c-.15.37-.31.73-.41 1.04-.15.31-.26.67-.41.98a3.475 3.475 0 0 0-.31 1.09.8.8 0 0 0 .1.31.724.724 0 0 0 .31.2 1.033 1.033 0 0 0 .41.11c.16 0 .26.05.42.05v.15h-3.09v-.15a1.8 1.8 0 0 0 .62-.21 1.949 1.949 0 0 0 .31-.21 2.933 2.933 0 0 0 .3-.46 7.411 7.411 0 0 0 .57-1.14c.21-.46.41-.98.67-1.55s.51-1.19.77-1.81.51-1.24.77-1.86.51-1.19.72-1.76l-.15-.31a1.97 1.97 0 0 0 .46-.26 1.874 1.874 0 0 0 .36-.31 1.477 1.477 0 0 0 .26-.31 1.093 1.093 0 0 1 .15-.25h.1c.31.77.57 1.55.88 2.27.25.72.51 1.39.77 2.07s.46 1.29.72 1.91c.2.62.46 1.24.66 1.86a4.175 4.175 0 0 0 .31.73 5.294 5.294 0 0 1 .31.67.373.373 0 0 0 .16.2 1.176 1.176 0 0 0 .25.31 1.1 1.1 0 0 0 .41.26 1.65 1.65 0 0 0 .57.16v.15h-4.16v.05zm-2.16-8.16c-.11.25-.26.62-.41.98s-.36.83-.57 1.29-.41 1.04-.62 1.6h3.6a13.8 13.8 0 0 0-.51-1.29 13.077 13.077 0 0 0-.52-1.24c-.15-.41-.3-.77-.41-1.09a3.837 3.837 0 0 0-.31-.82c-.05.1-.15.31-.25.57z" transform="translate(-1887.72 -8248)"/><path id="mark" class="cls-1" d="M1941.12 8298.15h-10.48v-28.13c0-2.22-1.08-4.03-3.24-4.03-.16 0-6.99 1.81-7.09 1.86l7.24-2.74a7.906 7.906 0 0 1 3.29-.67c6.89 0 10.28 5.38 10.28 12.1m-18.14 21.61h-10.49v-28.13c0-2.22-1.08-4.03-3.24-4.03-.15 0-6.99 1.81-7.09 1.86l7.25-2.74a7.906 7.906 0 0 1 3.29-.67c6.89 0 10.28 5.38 10.28 12.1m-28.74-11.27h10.49v37.43c0 6.3-6.32 11.58-14.44 11.58a20.726 20.726 0 0 1-2.57-.16c3.85-.1 6.52-1.76 6.52-6.77v-42.08zm10.8-11.69a5.525 5.525 0 1 1-5.55-5.58 5.443 5.443 0 0 1 5.55 5.58z" transform="translate(-1887.72 -8248)"/></svg>