<svg id="ic-floor" xmlns="http://www.w3.org/2000/svg" width="180" height="112" viewBox="0 0 180 112"><defs><style>.cls-1{fill:#ebf7fb}.cls-2,.cls-3{fill:none}.cls-2,.cls-3,.cls-4{stroke:#000;stroke-width:2px}.cls-2,.cls-5{fill-rule:evenodd}.cls-5{fill:#0c1319}.cls-6{fill:#65aaa9}</style></defs><path id="Прямоугольник_513" data-name="Прямоугольник 513" class="cls-1" d="M0 0h180v90H0z"/><g id="s"><path id="Прямоугольник_скругл._углы_1" data-name="Прямоугольник, скругл. углы 1" class="cls-2" d="M2510 1351.99h25a2.006 2.006 0 0 1 2 2v25a2.006 2.006 0 0 1-2 2h-25a2.006 2.006 0 0 1-2-2v-25a2.006 2.006 0 0 1 2-2z" transform="translate(-2500 -1344)"/><rect id="Прямоугольник_скругл._углы_1-2" data-name="Прямоугольник, скругл. углы 1" class="cls-3" x="8" y="26" width="29" height="11" rx="2" ry="2"/><rect id="Прямоугольник_скругл._углы_1-3" data-name="Прямоугольник, скругл. углы 1" class="cls-4" x="8" y="17" width="29" height="11" rx="2" ry="2"/><path id="S-2" data-name="S" class="cls-5" d="M2544.29 1369.42h-.61c-.05.18-.1.38-.15.62s-.1.49-.14.75-.09.52-.13.79a6.637 6.637 0 0 0-.07.73 1.644 1.644 0 0 0 .5.25 7.783 7.783 0 0 0 .76.23c.29.06.6.12.92.16a7.733 7.733 0 0 0 .96.06 4.623 4.623 0 0 0 2.96-.81 2.773 2.773 0 0 0 1.01-2.29 2.451 2.451 0 0 0-.36-1.37 3.771 3.771 0 0 0-.9-.97 7.019 7.019 0 0 0-1.17-.74c-.42-.21-.82-.43-1.18-.64a4.368 4.368 0 0 1-.89-.72 1.363 1.363 0 0 1-.36-.96 1.121 1.121 0 0 1 .43-.95 1.72 1.72 0 0 1 1.07-.32 3.383 3.383 0 0 1 .72.07 2.264 2.264 0 0 1 .53.16l.69 2.03h.61c.04-.14.09-.33.13-.55s.09-.46.13-.71.07-.51.1-.77.04-.48.05-.68a5.814 5.814 0 0 0-1.41-.39 10 10 0 0 0-1.69-.13 5.571 5.571 0 0 0-1.39.17 3.351 3.351 0 0 0-1.11.52 2.425 2.425 0 0 0-.74.88 2.784 2.784 0 0 0-.27 1.26 2.692 2.692 0 0 0 .35 1.42 3.643 3.643 0 0 0 .89.99 7.944 7.944 0 0 0 1.15.72c.4.2.79.4 1.15.61a4.252 4.252 0 0 1 .88.68 1.275 1.275 0 0 1 .35.92 1.4 1.4 0 0 1-.54 1.18 2.172 2.172 0 0 1-1.37.42 1.8 1.8 0 0 1-.79-.14 1.526 1.526 0 0 1-.46-.3z" transform="translate(-2500 -1344)"/></g><g id="build"><path id="Прямоугольник_514" data-name="Прямоугольник 514" class="cls-6" d="M65 73h68v9H65z"/><path id="Заливка_цветом_26" data-name="Заливка цветом 26" class="cls-5" d="M2561.02 1456.01h77.97a1.015 1.015 0 1 0 0-2.03h-3.58v-52.64h1.13a.958.958 0 0 0 1.02-1.01v-6.8a.963.963 0 0 0-1.02-1.01h-4.4v-3.45a.958.958 0 0 0-1.02-1.01h-5.42a.958.958 0 0 0-1.02 1.01v3.45h-15.53v-3.04h1.23a.966.966 0 0 0 1.02-1.02v-6.79a.966.966 0 0 0-1.02-1.02h-1.13V1377a.958.958 0 0 0-1.02-1.01h-26.26a.961.961 0 0 0-1.03 1.01v3.65h-1.12a.966.966 0 0 0-1.02 1.02v6.79a.966.966 0 0 0 1.02 1.02h1.12v17.24h-5.21v-3.55a.966.966 0 0 0-1.02-1.02h-5.42a.966.966 0 0 0-1.02 1.02v3.55h-6.23a.958.958 0 0 0-1.02 1.01v6.19a.953.953 0 0 0 1.02 1.01h1.63v39.05h-2.65a1.026 1.026 0 0 0-1.03 1.02.961.961 0 0 0 1.03 1.01zm9.4-49.29v-2.54h3.37v2.54h-3.37zm10.52 6.19h-17.78v-4.16h17.78v4.16zm2.05-32.36v-2.64h24.32v2.64h-24.32zm-2.05 2.13h28.52v4.77h-28.52v-4.77zm45.79 9.84v-2.43h3.37v2.43h-3.37zm-19.62 2.03h28.51v4.77h-28.51v-4.77zm20.23 50.1v9.33h-5.01v-9.33h5.01zm-7.05 0v9.33h-5.01v-9.33h5.01zm-11.14-43.31h24.32v52.54h-3.98v-10.24a.968.968 0 0 0-1.03-1.02h-14.2a.966.966 0 0 0-1.02 1.02v10.34h-3.99v-52.64h-.1zm-11.65 43.31v9.33h-5.01v-9.33h5.01zm9.61-55.17v3.04h-1.13a.963.963 0 0 0-1.02 1.01v6.8a.958.958 0 0 0 1.02 1.01h1.13v52.54h-7.57v-10.24a.966.966 0 0 0-1.02-1.02h-7.05a.966.966 0 0 0-1.02 1.02v10.34h-7.36c-.1 0-.1-64.5-.1-64.5h24.12zm-31.17 55.17v9.33h-5.11v-9.33h5.11zm-10.12-29.72h15.23v39.05h-3.07v-10.34a.966.966 0 0 0-1.02-1.02h-7.16a.966.966 0 0 0-1.02 1.02v10.34h-3.06v-39.05h.1zm35.26-2.73v-4.57a1.02 1.02 0 0 1 2.04 0v4.57a1.021 1.021 0 0 1-1.02 1.01.958.958 0 0 1-1.02-1.01zm-7.16 0v-4.57a1.025 1.025 0 0 1 2.05 0v4.57a1.025 1.025 0 0 1-2.05 0zm-7.05 0v-4.57a1.02 1.02 0 0 1 2.04 0v4.57a1.02 1.02 0 0 1-2.04 0zm14.21 11.96v-4.56a1.02 1.02 0 0 1 2.04 0v4.56a1.023 1.023 0 0 1-1.02 1.02.961.961 0 0 1-1.02-1.02zm-7.16 0v-4.56a1.025 1.025 0 0 1 2.05 0v4.56a1.025 1.025 0 0 1-2.05 0zm-7.05 0v-4.56a1.02 1.02 0 0 1 2.04 0v4.56a1.02 1.02 0 1 1-2.04 0zm14.21-23.83v-4.56a1.02 1.02 0 0 1 2.04 0v4.56a1.015 1.015 0 0 1-1.02 1.01.953.953 0 0 1-1.02-1.01zm-7.16 0v-4.56a1.025 1.025 0 0 1 2.05 0v4.56a1.025 1.025 0 0 1-2.05 0zm-7.05 0v-4.56a1.02 1.02 0 0 1 2.04 0v4.56a1.02 1.02 0 0 1-2.04 0zm14.21 35.8v-4.56a1.02 1.02 0 1 1 2.04 0v4.56a1.023 1.023 0 0 1-1.02 1.02.961.961 0 0 1-1.02-1.02zm-7.16 0v-4.56a1.025 1.025 0 0 1 2.05 0v4.56a1.025 1.025 0 0 1-2.05 0zm-7.05 0v-4.56a1.02 1.02 0 1 1 2.04 0v4.56a1.02 1.02 0 1 1-2.04 0zm-10.93-11.97v-4.56a1.02 1.02 0 0 1 2.04 0v4.56a1.023 1.023 0 0 1-1.02 1.02.961.961 0 0 1-1.02-1.02zm-7.16 0v-4.56a1.025 1.025 0 0 1 2.05 0v4.56a1.025 1.025 0 0 1-2.05 0zm7.16 11.97v-4.56a1.02 1.02 0 0 1 2.04 0v4.56a1.023 1.023 0 0 1-1.02 1.02.961.961 0 0 1-1.02-1.02zm-7.16 0v-4.56a1.025 1.025 0 0 1 2.05 0v4.56a1.025 1.025 0 0 1-2.05 0zm58.56-23.93v-4.57a1.02 1.02 0 0 1 2.04 0v4.57a1.02 1.02 0 0 1-2.04 0zm-7.05 0v-4.57a1.02 1.02 0 0 1 2.04 0v4.57a1.021 1.021 0 0 1-1.02 1.01.963.963 0 0 1-1.02-1.01zm-7.05 0v-4.57a1.02 1.02 0 0 1 2.04 0v4.57a1.021 1.021 0 0 1-1.02 1.01.963.963 0 0 1-1.02-1.01zm14.1 11.96v-4.56a1.02 1.02 0 0 1 2.04 0v4.56a1.02 1.02 0 1 1-2.04 0zm-7.05 0v-4.56a1.02 1.02 0 0 1 2.04 0v4.56a1.023 1.023 0 0 1-1.02 1.02.966.966 0 0 1-1.02-1.02zm-7.05 0v-4.56a1.02 1.02 0 0 1 2.04 0v4.56a1.023 1.023 0 0 1-1.02 1.02.966.966 0 0 1-1.02-1.02zm14.1 11.97v-4.56a1.02 1.02 0 1 1 2.04 0v4.56a1.02 1.02 0 1 1-2.04 0zm-7.05 0v-4.56a1.02 1.02 0 1 1 2.04 0v4.56a1.023 1.023 0 0 1-1.02 1.02.966.966 0 0 1-1.02-1.02zm-7.05 0v-4.56a1.02 1.02 0 0 1 2.04 0v4.56a1.023 1.023 0 0 1-1.02 1.02.966.966 0 0 1-1.02-1.02z" transform="translate(-2500 -1344)"/></g></svg>