<svg id="ic-invest" xmlns="http://www.w3.org/2000/svg" width="112" height="120" viewBox="0 0 112 120"><defs><style>.cls-1{fill:#bef2f1}.cls-1,.cls-2,.cls-3{fill-rule:evenodd}.cls-2{fill:#0c1319}.cls-3{fill:#65aaa9}</style></defs><path id="Прямоугольник_505" data-name="Прямоугольник 505" class="cls-1" d="M2535 2982h72.14v120H2535v-120z" transform="translate(-2535 -2982)"/><path id="Заливка_цветом_1" data-name="Заливка цветом 1" class="cls-2" d="M2623.05 3023.53h-1.83a3.587 3.587 0 0 0 1.34 2.67 4.068 4.068 0 0 0 2.07.97v2.19h1.83v-2.19a4.585 4.585 0 0 0 2.07-.97 3.34 3.34 0 0 0 0-5.35 4.368 4.368 0 0 0-2.93-1.09 2.609 2.609 0 0 1-1.7-.61 1.766 1.766 0 0 1 0-2.67 2.762 2.762 0 0 1 3.53 0 1.923 1.923 0 0 1 .61 1.34h1.83a3.59 3.59 0 0 0-1.34-2.68 4.15 4.15 0 0 0-2.07-.97v-2.19h-1.83v2.19a4.691 4.691 0 0 0-2.07.97 3.066 3.066 0 0 0-1.34 2.68 3.4 3.4 0 0 0 1.34 2.67 4.149 4.149 0 0 0 2.92 1.09 2.692 2.692 0 0 1 1.71.61 1.985 1.985 0 0 1 .61 1.34 1.962 1.962 0 0 1-.61 1.33 3.135 3.135 0 0 1-3.54 0 1.95 1.95 0 0 1-.6-1.33z" transform="translate(-2535 -2982)"/><path id="Заливка_цветом_8" data-name="Заливка цветом 8" class="cls-3" d="M2624.03 2997h1.05v4.43h-1.05V2997zm-8.09 6.55l-.92.53-2.21-3.84.91-.53zm-11.24 5.14l.53-.91 3.83 2.21-.52.91zm-2.7 10.34h4.43v1.05H2602v-1.05zm2.76 11.29l3.84-2.21.53.91-3.84 2.22zm8.05 8.39l2.22-3.84.91.53-2.21 3.83zm11.22-1.15h1.05v4.44h-1.05v-4.44zm9.08-2.16l.91-.53 2.22 3.84-.92.52zm6.76-6.43l.53-.91 3.84 2.21-.53.91zm2.69-9.94h4.44v1.05h-4.44v-1.05zm1.73-10.31l-3.84 2.22-.53-.91 3.84-2.22zm-8.09-8.42l-2.21 3.84-.91-.53 2.21-3.83z" transform="translate(-2535 -2982)"/><path id="Заливка_цветом_2" data-name="Заливка цветом 2" class="cls-2" d="M2639.01 3020.73a13.65 13.65 0 1 0-27.3-.12 13.461 13.461 0 0 0 5.24 10.7c-7.43 10.33-11.21 22.85-13.04 33.78-1.34-9.35-4.51-17.25-9.14-23.33a11.031 11.031 0 1 0-7.67 3.16 11.406 11.406 0 0 0 6.33-1.95c7.19 9.48 9.14 21.88 9.51 30.75 0 .49-.12.98-.12 1.46a26.8 26.8 0 0 0-7.56-7.05c.98-2.43.24-4.25-2.31-5.71a10.719 10.719 0 0 0-5.37-1.09 27.7 27.7 0 0 0-4.14.36l-1.1.24.37.98c.12.24 2.32 6.07 5.36 7.9a6.454 6.454 0 0 0 2.93.97 4.052 4.052 0 0 0 3.29-1.95 23.176 23.176 0 0 1 8.28 8.76 73.1 73.1 0 0 0 .12 7.41l1.83-.12a86.381 86.381 0 0 1 .25-13.49c2.31-6.45 7.55-10.82 11.33-13.25a4.519 4.519 0 0 0 3.78 2.19 7.369 7.369 0 0 0 3.41-1.1c3.65-2.06 6.21-8.87 6.21-9.23l.37-.98-1.1-.24a38.062 38.062 0 0 0-4.87-.36c-2.8 0-4.88.36-6.34 1.21-1.83 1.1-2.8 2.31-3.04 3.77a4.743 4.743 0 0 0 .6 3.04 33.592 33.592 0 0 0-9.74 9.48c1.58-11.18 5.36-24.07 13.03-34.64a12.9 12.9 0 0 0 6.95 2.07 13.61 13.61 0 0 0 13.65-13.62zm-51.91 4.01a9.24 9.24 0 1 1-9.26 9.24 9.255 9.255 0 0 1 9.26-9.24zm1.95 44.49c-1.71-.98-3.29-4.01-4.15-5.84a18.312 18.312 0 0 1 2.68-.12 8.969 8.969 0 0 1 4.51.85c1.83 1.1 2.07 2.07 1.59 3.28a10.517 10.517 0 0 1-2.07-1.09l-.74 1.7s.74.37 1.95.97a2.153 2.153 0 0 1-1.82.98 3.588 3.588 0 0 1-1.95-.73zm29.61-16.78a11.762 11.762 0 0 1 5.36-.97 23.32 23.32 0 0 1 3.41.25c-.85 1.94-2.68 5.83-4.99 7.17-2.08 1.21-3.42 1.21-4.63-.49a12.651 12.651 0 0 1 2.43-1.22l-.73-1.7a17.613 17.613 0 0 0-2.56 1.34 2.669 2.669 0 0 1-.49-1.94 3.748 3.748 0 0 1 2.2-2.44zm6.7-43.63a11.85 11.85 0 1 1-11.82 11.79 11.817 11.817 0 0 1 11.82-11.79z" transform="translate(-2535 -2982)"/><path id="Заливка_цветом_3" data-name="Заливка цветом 3" class="cls-3" d="M2588.8 3031.79h1.83a2.971 2.971 0 0 0-1.1-2.31 3.884 3.884 0 0 0-1.58-.73v-1.58h-1.83v1.58a3.945 3.945 0 0 0-1.58.73 2.975 2.975 0 0 0 0 4.62 3.5 3.5 0 0 0 2.43.85 1.4 1.4 0 0 1 1.22.49 1.472 1.472 0 0 1 .49.97.9.9 0 0 1-.49.85 2.017 2.017 0 0 1-2.56 0 1.547 1.547 0 0 1-.48-.85h-1.83a2.971 2.971 0 0 0 1.1 2.31 3.64 3.64 0 0 0 1.58.73v1.58h1.83v-1.58a3.694 3.694 0 0 0 1.58-.73 2.976 2.976 0 0 0 0-4.62 3.5 3.5 0 0 0-2.44-.85 1.39 1.39 0 0 1-1.21-.49 1.479 1.479 0 0 1-.49-.85 1.449 1.449 0 0 1 .49-.97 2.2 2.2 0 0 1 2.56-.12 1.505 1.505 0 0 1 .48.97z" transform="translate(-2535 -2982)"/><path id="_3" data-name="3" class="cls-3" d="M2546.17 3000.39c-.17-.03-.31-.06-.41-.08-.09-.09-.19-.21-.31-.33s-.23-.26-.36-.39-.24-.25-.35-.37-.2-.21-.26-.28h-.32l-.45 1.44a2.855 2.855 0 0 0 .58.33 6.564 6.564 0 0 0 .75.26 7.274 7.274 0 0 0 .81.17 7.446 7.446 0 0 0 .79.05 4.188 4.188 0 0 0 1.46-.25 3.721 3.721 0 0 0 1.23-.7 3.417 3.417 0 0 0 .96-3.79 2.816 2.816 0 0 0-.62-.99 3.129 3.129 0 0 0-1-.69 3.714 3.714 0 0 0-1.34-.28l-.55.11v-.03l.69-.71 2.67-3.56v-.5h-6.25c0 .19.01.4.03.64s.05.48.08.73.06.5.1.76.08.49.12.72h.4l.63-1.64h2.7l.86-.09v.06l-.54.56-2.69 3.6v.44h1.04a2.731 2.731 0 0 1 .92.15 2.208 2.208 0 0 1 .75.45 1.976 1.976 0 0 1 .5.74 2.762 2.762 0 0 1 .18 1.04 2.692 2.692 0 0 1-.16.94 2.782 2.782 0 0 1-.46.79 2.192 2.192 0 0 1-.67.55 1.846 1.846 0 0 1-.83.2 4.03 4.03 0 0 1-.68-.05z" transform="translate(-2535 -2982)"/></svg>