<svg id="ic-owner" xmlns="http://www.w3.org/2000/svg" width="104" height="120" viewBox="0 0 104 120"><defs><style>.cls-1{fill:#def9f8}.cls-1,.cls-2,.cls-3,.cls-4{fill-rule:evenodd}.cls-2{fill:#0c1319}.cls-3{fill:#65aaa9}</style></defs><path id="Прямоугольник_505" data-name="Прямоугольник 505" class="cls-1" d="M2242 2982h72.14v120H2242v-120z" transform="translate(-2242 -2982)"/><path id="Заливка_цветом_1" data-name="Заливка цветом 1" class="cls-2" d="M2313.3 3017.16h.12a20.416 20.416 0 0 0 9.74-2.76 29.465 29.465 0 0 0 6.49-4.68l.6-.6-.6-.6a28.456 28.456 0 0 0-11.54-6.72 17.877 17.877 0 0 0-4.21-.6h-1.2a16.913 16.913 0 0 0-4.21.6 28.371 28.371 0 0 0-11.54 6.72l-.61.6.61.6a29.172 29.172 0 0 0 6.49 4.68 20.794 20.794 0 0 0 9.86 2.76zm0-14.28h.12a6.181 6.181 0 0 1 6.13 6.24 6.282 6.282 0 0 1-6.25 6.24 6.252 6.252 0 0 1-6.13-6.24 6.332 6.332 0 0 1 6.13-6.24zm6.25 11.16a7.873 7.873 0 0 0 1.68-4.92 7.631 7.631 0 0 0-1.68-4.92 28.5 28.5 0 0 1 8.05 4.92 23.284 23.284 0 0 1-5.29 3.72 27.452 27.452 0 0 1-2.76 1.2zm-14.19-4.92a7.631 7.631 0 0 0 1.68 4.92c-.84-.36-1.8-.72-2.76-1.2a26.518 26.518 0 0 1-5.29-3.72 28.648 28.648 0 0 1 8.05-4.92 7.873 7.873 0 0 0-1.68 4.92z" transform="translate(-2242 -2982)"/><path id="Заливка_цветом_2" data-name="Заливка цветом 2" class="cls-3" d="M2313.42 3006.48a2.64 2.64 0 1 0 2.64 2.64 2.666 2.666 0 0 0-2.64-2.64zm-.12 1.8a.84.84 0 1 1-.84.84.82.82 0 0 1 .84-.84z" transform="translate(-2242 -2982)"/><path id="Заливка_цветом_3" data-name="Заливка цветом 3" class="cls-3" d="M2303.72 3064.69l.35-4.78 1.8.13-.35 4.78z" transform="translate(-2242 -2982)"/><path id="Заливка_цветом_4" data-name="Заливка цветом 4" class="cls-3" d="M2321.22 3059.95l1.8-.13.35 4.79-1.8.13z" transform="translate(-2242 -2982)"/><path id="Заливка_цветом_5" data-name="Заливка цветом 5" class="cls-3" d="M2313.54 3047.76a7.08 7.08 0 1 0 0-14.16 7.183 7.183 0 0 0-7.1 7.08 7.1 7.1 0 0 0 7.1 7.08zm0-1.8a5.28 5.28 0 1 1 5.29-5.28 5.329 5.329 0 0 1-5.29 5.28z" transform="translate(-2242 -2982)"/><path id="Заливка_цветом_6" data-name="Заливка цветом 6" class="cls-3" d="M2344.68 3055.92a5.321 5.321 0 0 0-2.65-2.16l-3.97-1.44-3.36 6.24h-.72l-3.37-6.24-3.49 1.32c-.12-.12-.12-.36-.24-.48a5.936 5.936 0 0 0-3.24-2.64l-5.05-1.8-4.45 8.04h-1.2l-4.45-8.16-5.05 1.8a6.412 6.412 0 0 0-3.25 2.64c-.12.12-.12.36-.24.48l-3.49-1.2-3.36 6.24h-.72l-3.37-6.24-3.97 1.44a4.5 4.5 0 0 0-2.52 2.16 6.591 6.591 0 0 0-.84 2.76c0 .48-.36 2.88-.48 6l1.68.12c.12-3.24.48-5.88.48-5.88v-.12a4.527 4.527 0 0 1 .6-1.92 3.318 3.318 0 0 1 1.56-1.32l2.53-.96 3.12 5.88h2.89l3.13-5.88 2.04.72a4.922 4.922 0 0 0-.12 1.32s-.48 3.84-.72 8.16l1.8.12a49.315 49.315 0 0 1 .72-8.04 5.283 5.283 0 0 1 .84-2.64 4.569 4.569 0 0 1 2.29-1.92l3.61-1.32 4.2 7.68h3.49l4.21-7.68 3.61 1.32a4 4 0 0 1 2.28 1.92 5.365 5.365 0 0 1 .84 2.76s.48 3.72.6 8.04l1.81-.12a47.459 47.459 0 0 0-.72-8.04c0-.48-.13-.96-.13-1.44l2.05-.72 3.12 5.88h2.77l3.13-5.88 2.52.96a3.1 3.1 0 0 1 1.68 1.32 4.53 4.53 0 0 1 .61 1.92v.12s.36 2.64.48 5.88l1.8-.12a48.972 48.972 0 0 0-.48-6.12 4.932 4.932 0 0 0-.84-2.76z" transform="translate(-2242 -2982)"/><path id="Заливка_цветом_7" data-name="Заливка цветом 7" class="cls-3" d="M2339.96 3061.32l1.8-.13.27 3.47-1.8.13z" transform="translate(-2242 -2982)"/><path id="Заливка_цветом_8" data-name="Заливка цветом 8" class="cls-3" d="M2328.69 3046.56a5.65 5.65 0 1 0 5.65-5.64 5.636 5.636 0 0 0-5.65 5.64zm1.8-.12a3.845 3.845 0 1 1 3.85 3.84 3.793 3.793 0 0 1-3.85-3.84z" transform="translate(-2242 -2982)"/><path id="Заливка_цветом_9" data-name="Заливка цветом 9" class="cls-3" d="M2285 3064.67l.26-3.47 1.8.14-.26 3.47z" transform="translate(-2242 -2982)"/><path id="Заливка_цветом_10" data-name="Заливка цветом 10" class="cls-3" d="M2298.39 3046.44a5.65 5.65 0 1 0-5.65 5.64 5.642 5.642 0 0 0 5.65-5.64zm-1.81.12a3.791 3.791 0 0 1-3.84 3.84 3.9 3.9 0 0 1-3.85-3.96 3.846 3.846 0 0 1 7.69.12z" transform="translate(-2242 -2982)"/><path id="Заливка_цветом_11" data-name="Заливка цветом 11" class="cls-4" d="M2328.72 3002.04l4.21 3.12a20.383 20.383 0 0 0-39.92-1.44l-1.8-.36a22.214 22.214 0 0 1 21.64-17.04 16.082 16.082 0 0 1 2.4.12 22.062 22.062 0 0 1 19.48 18.36l3.01-4.08 1.44 1.08-4.81 6.6-6.73-4.92z" transform="translate(-2242 -2982)"/><path id="Заливка_цветом_12" data-name="Заливка цветом 12" class="cls-4" d="M2296.98 3014.76l-4.21-3.12a20.383 20.383 0 0 0 39.92 1.44l1.8.36a22.433 22.433 0 0 1-24.04 16.92 22.053 22.053 0 0 1-19.36-18.36l-3.01 4.08-1.44-1.08 4.81-6.6 6.61 4.92z" transform="translate(-2242 -2982)"/><path id="Заливка_цветом_1-2" data-name="Заливка цветом 1" class="cls-2" d="M2309.88 3098a1.712 1.712 0 0 1-1.34-.6 1.52 1.52 0 0 1-.29-1.28l2.31-11.61a6.679 6.679 0 0 1-3.55-5.9 6.491 6.491 0 1 1 12.98 0 6.666 6.666 0 0 1-3.54 5.89l2.3 11.62a1.524 1.524 0 0 1-.3 1.28 1.676 1.676 0 0 1-1.33.6h-7.24zm7.19-1.72l-2.37-12.25-.04-.62.57-.23a4.927 4.927 0 0 0 3.08-4.57 4.811 4.811 0 1 0-9.62 0 4.925 4.925 0 0 0 3.09 4.58l.61.23-.11 1.03-2.34 11.82z" transform="translate(-2242 -2982)"/><path id="_2" data-name="2" class="cls-3" d="M2252.39 2990.63a5.081 5.081 0 0 1 .56-.14 3.42 3.42 0 0 1 .59-.05 1.673 1.673 0 0 1 .79.18 1.607 1.607 0 0 1 .59.48 2.168 2.168 0 0 1 .36.73 3.171 3.171 0 0 1 .12.88 4.085 4.085 0 0 1-.27 1.41 9.244 9.244 0 0 1-.68 1.48 12.514 12.514 0 0 1-.95 1.46c-.36.48-.72.94-1.08 1.36s-.71.82-1.05 1.17-.62.65-.85.9v.51h6.61c0-.19-.01-.42-.02-.68s-.02-.53-.04-.82l-.06-.84c-.02-.27-.04-.53-.06-.76h-.4l-.78 1.79h-2.76l-.89.09v-.06l.67-.62c.4-.4.85-.86 1.33-1.38a15.463 15.463 0 0 0 1.33-1.67 11.232 11.232 0 0 0 1.04-1.84 4.606 4.606 0 0 0 .41-1.83 3.3 3.3 0 0 0-.17-1.05 2.363 2.363 0 0 0-.56-.89 2.554 2.554 0 0 0-.95-.61 3.749 3.749 0 0 0-1.37-.22 4.931 4.931 0 0 0-1.7.28 4.074 4.074 0 0 0-1.34.76c.08.37.18.77.31 1.18s.24.78.36 1.09h.4z" transform="translate(-2242 -2982)"/></svg>