<svg id="ic-smallspace" xmlns="http://www.w3.org/2000/svg" width="180" height="112" viewBox="0 0 180 112"><defs><style>.cls-1{fill:#ebf7fb}.cls-2{fill:none;stroke:#000;stroke-width:2px}.cls-2,.cls-3,.cls-4,.cls-6{fill-rule:evenodd}.cls-3{fill:#0c1319}.cls-4,.cls-5{fill:#fff}.cls-6{fill:#65aaa9}</style></defs><path id="Прямоугольник_513" data-name="Прямоугольник 513" class="cls-1" d="M0 0h180v90H0z"/><g id="s"><path id="Прямоугольник_скругл._углы_1" data-name="Прямоугольник, скругл. углы 1" class="cls-2" d="M1924 1351.99h25a2.006 2.006 0 0 1 2 2v25a2.006 2.006 0 0 1-2 2h-25a2.006 2.006 0 0 1-2-2v-25a2.006 2.006 0 0 1 2-2z" transform="translate(-1914 -1344)"/><path id="Прямоугольник_скругл._углы_1-2" data-name="Прямоугольник, скругл. углы 1" class="cls-2" d="M1932.27 1360.23h16a2.006 2.006 0 0 1 2 2v16a2.006 2.006 0 0 1-2 2h-16a2.006 2.006 0 0 1-2-2v-16a2.006 2.006 0 0 1 2-2z" transform="translate(-1914 -1344)"/><path id="Прямоугольник_скругл._углы_1-3" data-name="Прямоугольник, скругл. углы 1" class="cls-3" d="M1940.57 1368.47h8a2.006 2.006 0 0 1 2 2v8a2.006 2.006 0 0 1-2 2h-8a2.006 2.006 0 0 1-2-2v-8a2.006 2.006 0 0 1 2-2z" transform="translate(-1914 -1344)"/><path id="S-2" data-name="S" class="cls-3" d="M1942.29 1392.42h-.61c-.05.18-.1.38-.15.62s-.1.49-.14.75-.09.52-.13.79a6.637 6.637 0 0 0-.07.73 1.644 1.644 0 0 0 .5.25 7.783 7.783 0 0 0 .76.23c.29.06.6.12.92.16a7.733 7.733 0 0 0 .96.06 4.623 4.623 0 0 0 2.96-.81 2.773 2.773 0 0 0 1.01-2.29 2.451 2.451 0 0 0-.36-1.37 3.771 3.771 0 0 0-.9-.97 7.019 7.019 0 0 0-1.17-.74c-.42-.21-.82-.43-1.18-.64a4.368 4.368 0 0 1-.89-.72 1.363 1.363 0 0 1-.36-.96 1.121 1.121 0 0 1 .43-.95 1.726 1.726 0 0 1 1.07-.33 3.379 3.379 0 0 1 .72.08 2.264 2.264 0 0 1 .53.16l.69 2.03h.61c.04-.14.09-.33.13-.55s.09-.46.13-.71.07-.51.1-.77.04-.48.05-.68a5.814 5.814 0 0 0-1.41-.39 10 10 0 0 0-1.69-.13 5.571 5.571 0 0 0-1.39.17 3.351 3.351 0 0 0-1.11.52 2.425 2.425 0 0 0-.74.88 2.784 2.784 0 0 0-.27 1.26 2.692 2.692 0 0 0 .35 1.42 3.643 3.643 0 0 0 .89.99 7.944 7.944 0 0 0 1.15.72c.4.2.79.4 1.15.61a4.252 4.252 0 0 1 .88.68 1.275 1.275 0 0 1 .35.92 1.4 1.4 0 0 1-.54 1.18 2.172 2.172 0 0 1-1.37.42 1.8 1.8 0 0 1-.79-.14 1.526 1.526 0 0 1-.46-.3z" transform="translate(-1914 -1344)"/></g><path id="Эллипс_1" data-name="Эллипс 1" class="cls-4" d="M1994.02 1440c1.76 0 3.2 2.15 3.2 4.8s-1.44 4.79-3.2 4.79-3.21-2.14-3.21-4.79 1.44-4.8 3.21-4.8z" transform="translate(-1914 -1344)"/><path id="Эллипс_1-2" data-name="Эллипс 1" class="cls-4" d="M1986.81 1424c2.21 0 4 2.5 4 5.59s-1.79 5.6-4 5.6-4-2.51-4-5.6 1.79-5.59 4-5.59z" transform="translate(-1914 -1344)"/><ellipse id="Эллипс_1-3" data-name="Эллипс 1" class="cls-5" cx="65.2" cy="98.39" rx="3.61" ry="4.8"/><path id="Прямоугольник_512" data-name="Прямоугольник 512" class="cls-6" d="M2038.8 1404.78h8v9h-8v-9z" transform="translate(-1914 -1344)"/><path id="Прямоугольник_512-2" data-name="Прямоугольник 512" class="cls-6" d="M2002 1441.58h8v9h-8v-9z" transform="translate(-1914 -1344)"/><path id="Прямоугольник_512-3" data-name="Прямоугольник 512" class="cls-6" d="M2002 1393.58h8v9h-8v-9z" transform="translate(-1914 -1344)"/><path id="Прямоугольник_512-4" data-name="Прямоугольник 512" class="cls-6" d="M2026.02 1429.78h8v8h-8v-8z" transform="translate(-1914 -1344)"/><path id="build" class="cls-3" d="M2052.99 1453.98h-3.37v-52.64h.92a.958.958 0 0 0 1.02-1.01v-6.8a.958.958 0 0 0-1.02-1.01h-3.99v-3.45a.958.958 0 0 0-1.02-1.01h-4.9a.961.961 0 0 0-1.03 1.01v3.45h-13.89v-3.04h1.02a.966.966 0 0 0 1.02-1.02v-6.79a.966.966 0 0 0-1.02-1.02h-.92V1377a.958.958 0 0 0-1.02-1.01h-23.71a.958.958 0 0 0-1.02 1.01v3.65h-.92a.961.961 0 0 0-1.02 1.02v6.79a.961.961 0 0 0 1.02 1.02h.92v64.5h-4.91v-3.04a4.564 4.564 0 0 0 3.48-4.26v-2.64a4.5 4.5 0 0 0-9 0v2.64a4.271 4.271 0 0 0 3.48 4.26v3.04h-5.52v-17.45a5.325 5.325 0 0 0 4.39-5.27v-3.35a5.415 5.415 0 0 0-10.83 0v3.35a5.349 5.349 0 0 0 4.4 5.27v17.45h-5.11v-4.77a4.05 4.05 0 0 0 3.06-3.95v-5.08a4.085 4.085 0 0 0-8.17 0v5.08a4.148 4.148 0 0 0 3.06 3.95v4.77h-3.37a1.015 1.015 0 1 0 0 2.03h77.97a1.1 1.1 0 0 0 1.02-1.02.958.958 0 0 0-1.02-1.01zm-75.62-8.72v-5.08a2.045 2.045 0 0 1 4.09 0v5.08a2.045 2.045 0 0 1-4.09 0zm5.83-14v-3.35a3.37 3.37 0 0 1 6.74 0v3.35a3.37 3.37 0 0 1-6.74 0zm8.38 15.31v-2.63a2.45 2.45 0 0 1 4.9 0v2.63a2.414 2.414 0 0 1-2.45 2.44 2.478 2.478 0 0 1-2.45-2.44zm55.89-45.23v52.54h-21.76v-52.54h21.76zm-23.71-11.86v3.04h-.92a.958.958 0 0 0-1.02 1.01v6.8a.958.958 0 0 0 1.02 1.01h.92v52.54h-21.66v-64.4h21.66zm-21.66-8.83v-2.63h21.77v2.63h-21.77zm-1.94 2.03h25.65v4.77h-25.65v-4.77zm41.49 9.84v-2.44h2.86v2.44h-2.86zm7.76 6.79h-25.54v-4.76h25.65v4.76h-.11zm-31.16 12.99v-4.57a1.02 1.02 0 0 1 2.04 0v4.57a1.1 1.1 0 0 1-1.02 1.01.963.963 0 0 1-1.02-1.01zm-6.44 0v-4.57a1.02 1.02 0 0 1 2.04 0v4.57a1.1 1.1 0 0 1-1.02 1.01.963.963 0 0 1-1.02-1.01zm-6.44 0v-4.57a1.02 1.02 0 0 1 2.04 0v4.57a1.015 1.015 0 0 1-1.02 1.01.963.963 0 0 1-1.02-1.01zm12.88 11.96v-4.56a1.02 1.02 0 0 1 2.04 0v4.56a1.1 1.1 0 0 1-1.02 1.02.966.966 0 0 1-1.02-1.02zm-6.44 0v-4.56a1.02 1.02 0 1 1 2.04 0v4.56a1.1 1.1 0 0 1-1.02 1.02.966.966 0 0 1-1.02-1.02zm-6.44 0v-4.56a1.02 1.02 0 0 1 2.04 0v4.56a1.017 1.017 0 0 1-1.02 1.02.966.966 0 0 1-1.02-1.02zm12.88-23.93v-4.57a1.02 1.02 0 0 1 2.04 0v4.57a1.015 1.015 0 0 1-1.02 1.01.958.958 0 0 1-1.02-1.01zm-6.44 0v-4.57a1.02 1.02 0 0 1 2.04 0v4.57a1.015 1.015 0 0 1-1.02 1.01.958.958 0 0 1-1.02-1.01zm-6.44 0v-4.57a1.02 1.02 0 0 1 2.04 0v4.57a1.02 1.02 0 0 1-2.04 0zm12.88 35.9v-4.56a1.02 1.02 0 0 1 2.04 0v4.56a1.088 1.088 0 0 1-1.02 1.01.958.958 0 0 1-1.02-1.01zm-6.44 0v-4.56a1.02 1.02 0 0 1 2.04 0v4.56a1.088 1.088 0 0 1-1.02 1.01.958.958 0 0 1-1.02-1.01zm-6.44 0v-4.56a1.02 1.02 0 0 1 2.04 0v4.56a1.009 1.009 0 0 1-1.02 1.01.958.958 0 0 1-1.02-1.01zm12.88 11.97v-4.57a1.02 1.02 0 0 1 2.04 0v4.57a1.1 1.1 0 0 1-1.02 1.01.958.958 0 0 1-1.02-1.01zm-6.44 0v-4.57a1.02 1.02 0 0 1 2.04 0v4.57a1.1 1.1 0 0 1-1.02 1.01.958.958 0 0 1-1.02-1.01zm-6.44 0v-4.57a1.02 1.02 0 0 1 2.04 0v4.57a1.015 1.015 0 0 1-1.02 1.01.958.958 0 0 1-1.02-1.01zm36.69-35.9v-4.57a1.02 1.02 0 0 1 2.04 0v4.57a1.1 1.1 0 0 1-1.02 1.01.958.958 0 0 1-1.02-1.01zm-6.44 0v-4.57a1.02 1.02 0 0 1 2.04 0v4.57a1.1 1.1 0 0 1-1.02 1.01.963.963 0 0 1-1.02-1.01zm-6.44 0v-4.57a1.02 1.02 0 0 1 2.04 0v4.57a1.015 1.015 0 0 1-1.02 1.01.963.963 0 0 1-1.02-1.01zm12.88 11.96v-4.56a1.02 1.02 0 1 1 2.04 0v4.56a1.1 1.1 0 0 1-1.02 1.02.961.961 0 0 1-1.02-1.02zm-6.44 0v-4.56a1.02 1.02 0 0 1 2.04 0v4.56a1.1 1.1 0 0 1-1.02 1.02.966.966 0 0 1-1.02-1.02zm-6.44 0v-4.56a1.02 1.02 0 0 1 2.04 0v4.56a1.017 1.017 0 0 1-1.02 1.02.966.966 0 0 1-1.02-1.02zm12.88 11.97v-4.56a1.02 1.02 0 0 1 2.04 0v4.56a1.088 1.088 0 0 1-1.02 1.01.953.953 0 0 1-1.02-1.01zm-6.44 0v-4.56a1.02 1.02 0 0 1 2.04 0v4.56a1.088 1.088 0 0 1-1.02 1.01.958.958 0 0 1-1.02-1.01zm-6.44 0v-4.56a1.02 1.02 0 0 1 2.04 0v4.56a1.009 1.009 0 0 1-1.02 1.01.958.958 0 0 1-1.02-1.01zm12.88 11.97v-4.57a1.02 1.02 0 0 1 2.04 0v4.57a1.1 1.1 0 0 1-1.02 1.01.953.953 0 0 1-1.02-1.01zm-6.44 0v-4.57a1.02 1.02 0 0 1 2.04 0v4.57a1.1 1.1 0 0 1-1.02 1.01.958.958 0 0 1-1.02-1.01zm-6.44 0v-4.57a1.02 1.02 0 0 1 2.04 0v4.57a1.015 1.015 0 0 1-1.02 1.01.958.958 0 0 1-1.02-1.01z" transform="translate(-1914 -1344)"/></svg>