<svg id="ic-tenant" xmlns="http://www.w3.org/2000/svg" width="104" height="120" viewBox="0 0 104 120"><defs><style>.cls-1{fill:#ebf7fb}.cls-1,.cls-2,.cls-3,.cls-4{fill-rule:evenodd}.cls-2{fill:#0c1319}.cls-3{fill:#65aaa9}</style></defs><path id="Прямоугольник_505" data-name="Прямоугольник 505" class="cls-1" d="M1945 2982h72.14v120H1945v-120z" transform="translate(-1945 -2982)"/><path id="Заливка_цветом_1" data-name="Заливка цветом 1" class="cls-2" d="M2016.3 3017.16h.12a20.416 20.416 0 0 0 9.74-2.76 29.465 29.465 0 0 0 6.49-4.68l.6-.6-.6-.6a28.456 28.456 0 0 0-11.54-6.72 17.877 17.877 0 0 0-4.21-.6h-1.2a16.913 16.913 0 0 0-4.21.6 28.371 28.371 0 0 0-11.54 6.72l-.61.6.61.6a29.172 29.172 0 0 0 6.49 4.68 20.794 20.794 0 0 0 9.86 2.76zm0-14.28h.12a6.181 6.181 0 0 1 6.13 6.24 6.282 6.282 0 0 1-6.25 6.24 6.26 6.26 0 0 1-6.14-6.24 6.341 6.341 0 0 1 6.14-6.24zm6.25 11.16a7.873 7.873 0 0 0 1.68-4.92 7.631 7.631 0 0 0-1.68-4.92 28.5 28.5 0 0 1 8.05 4.92 23.284 23.284 0 0 1-5.29 3.72 27.452 27.452 0 0 1-2.76 1.2zm-14.19-4.92a7.631 7.631 0 0 0 1.68 4.92c-.84-.36-1.8-.72-2.76-1.2a26.518 26.518 0 0 1-5.29-3.72 28.648 28.648 0 0 1 8.05-4.92 7.873 7.873 0 0 0-1.68 4.92z" transform="translate(-1945 -2982)"/><path id="Заливка_цветом_2" data-name="Заливка цветом 2" class="cls-3" d="M2016.42 3006.48a2.64 2.64 0 1 0 2.64 2.64 2.666 2.666 0 0 0-2.64-2.64zm-.12 1.8a.84.84 0 1 1-.84.84.82.82 0 0 1 .84-.84z" transform="translate(-1945 -2982)"/><path id="Заливка_цветом_3" data-name="Заливка цветом 3" class="cls-3" d="M2006.72 3064.69l.35-4.78 1.8.13-.35 4.78z" transform="translate(-1945 -2982)"/><path id="Заливка_цветом_4" data-name="Заливка цветом 4" class="cls-3" d="M2024.22 3059.95l1.8-.13.35 4.79-1.8.13z" transform="translate(-1945 -2982)"/><path id="Заливка_цветом_5" data-name="Заливка цветом 5" class="cls-3" d="M2016.54 3047.76a7.08 7.08 0 1 0 0-14.16 7.183 7.183 0 0 0-7.1 7.08 7.1 7.1 0 0 0 7.1 7.08zm0-1.8a5.28 5.28 0 1 1 5.29-5.28 5.329 5.329 0 0 1-5.29 5.28z" transform="translate(-1945 -2982)"/><path id="Заливка_цветом_6" data-name="Заливка цветом 6" class="cls-3" d="M2047.68 3055.92a5.321 5.321 0 0 0-2.65-2.16l-3.97-1.44-3.36 6.24h-.72l-3.37-6.24-3.49 1.32c-.12-.12-.12-.36-.24-.48a5.936 5.936 0 0 0-3.24-2.64l-5.05-1.8-4.45 8.04h-1.2l-4.45-8.16-5.05 1.8a6.412 6.412 0 0 0-3.25 2.64c-.12.12-.12.36-.24.48l-3.49-1.2-3.36 6.24h-.72l-3.37-6.24-3.97 1.44a4.5 4.5 0 0 0-2.52 2.16 6.591 6.591 0 0 0-.84 2.76c0 .48-.36 2.88-.49 6l1.69.12c.12-3.24.48-5.88.48-5.88v-.12a4.527 4.527 0 0 1 .6-1.92 3.318 3.318 0 0 1 1.56-1.32l2.53-.96 3.12 5.88h2.89l3.13-5.88 2.04.72a4.922 4.922 0 0 0-.12 1.32s-.48 3.84-.72 8.16l1.8.12a49.315 49.315 0 0 1 .72-8.04 5.283 5.283 0 0 1 .84-2.64 4.569 4.569 0 0 1 2.29-1.92l3.61-1.32 4.2 7.68h3.49l4.21-7.68 3.61 1.32a4 4 0 0 1 2.28 1.92 5.365 5.365 0 0 1 .84 2.76s.48 3.72.6 8.04l1.81-.12a47.459 47.459 0 0 0-.72-8.04c0-.48-.13-.96-.13-1.44l2.05-.72 3.12 5.88h2.77l3.13-5.88 2.52.96a3.1 3.1 0 0 1 1.68 1.32 4.53 4.53 0 0 1 .61 1.92v.12s.36 2.64.48 5.88l1.8-.12a48.972 48.972 0 0 0-.48-6.12 4.932 4.932 0 0 0-.84-2.76z" transform="translate(-1945 -2982)"/><path id="Заливка_цветом_7" data-name="Заливка цветом 7" class="cls-3" d="M2042.96 3061.32l1.8-.13.27 3.47-1.8.13z" transform="translate(-1945 -2982)"/><path id="Заливка_цветом_8" data-name="Заливка цветом 8" class="cls-3" d="M2031.69 3046.56a5.65 5.65 0 1 0 5.65-5.64 5.636 5.636 0 0 0-5.65 5.64zm1.8-.12a3.845 3.845 0 1 1 3.85 3.84 3.793 3.793 0 0 1-3.85-3.84z" transform="translate(-1945 -2982)"/><path id="Заливка_цветом_9" data-name="Заливка цветом 9" class="cls-3" d="M1988 3064.67l.26-3.47 1.8.14-.26 3.47z" transform="translate(-1945 -2982)"/><path id="Заливка_цветом_10" data-name="Заливка цветом 10" class="cls-3" d="M2001.39 3046.44a5.65 5.65 0 1 0-5.65 5.64 5.642 5.642 0 0 0 5.65-5.64zm-1.81.12a3.791 3.791 0 0 1-3.84 3.84 3.9 3.9 0 0 1-3.85-3.96 3.846 3.846 0 0 1 7.69.12z" transform="translate(-1945 -2982)"/><path id="Заливка_цветом_11" data-name="Заливка цветом 11" class="cls-4" d="M2032.41 3015.24l4.21-3.12a20.383 20.383 0 0 1-39.92 1.44l-1.8.36a22.214 22.214 0 0 0 21.64 17.04 16.082 16.082 0 0 0 2.4-.12 22.062 22.062 0 0 0 19.48-18.36l3.01 4.08 1.44-1.08-4.81-6.6-6.73 4.92z" transform="translate(-1945 -2982)"/><path id="Заливка_цветом_12" data-name="Заливка цветом 12" class="cls-4" d="M2000.67 3002.52l-4.21 3.12a20.383 20.383 0 0 1 39.92-1.44l1.8-.36a22.451 22.451 0 0 0-24.05-16.92 22.043 22.043 0 0 0-19.35 18.36l-3.01-4.08-1.44 1.08 4.81 6.6 6.61-4.92z" transform="translate(-1945 -2982)"/><path id="Заливка_цветом_2-2" data-name="Заливка цветом 2" class="cls-4" d="M2035.05 3083.28v2.76h-2.76v-1.92h-1.81v1.92h-2.76v-1.32h-1.8v1.32h-22.49v-3a6.25 6.25 0 0 0-12.5 0v7.8a6.25 6.25 0 1 0 12.5.12v-3h38.84v-1.8h-5.53v-2.76m-39.68-4.68a4.438 4.438 0 0 1 4.45 4.44v7.8a4.45 4.45 0 0 1-8.9 0v-7.8a4.438 4.438 0 0 1 4.45-4.44z" transform="translate(-1945 -2982)"/><path id="Заливка_цветом_3-2" data-name="Заливка цветом 3" class="cls-4" d="M1999.83 3090.96v-7.8a2.65 2.65 0 0 0-5.3 0v7.8a2.526 2.526 0 0 0 2.65 2.64 2.672 2.672 0 0 0 2.65-2.64zm-2.77-8.64a.82.82 0 0 1 .84.84v7.8a.84.84 0 0 1-1.68 0v-7.8a.82.82 0 0 1 .84-.84z" transform="translate(-1945 -2982)"/><path id="_1" data-name="1" class="cls-3" d="M1959.55 3000.54c-.27-.12-.53-.23-.8-.32s-.53-.16-.8-.23v-10.38h-.4a6.83 6.83 0 0 1-1.46.9 14.043 14.043 0 0 1-1.52.6l.08.39a5.487 5.487 0 0 0 1-.06 4.176 4.176 0 0 0 .92-.25l-.06.95v7.85c-.28.07-.55.14-.82.23a7.179 7.179 0 0 0-.81.32v.46h4.67v-.46z" transform="translate(-1945 -2982)"/></svg>